G04 Title: RX Daughterboard, silkscreen, component side *
G04 Creator: pcb-bin 1.99q *
G04 CreationDate: Thu Apr 28 23:14:29 2005 UTC *
G04 For: matt *
G04 Format: Gerber/RS-274X *
G04 PCB-Dimensions: 275000 250000 *
G04 PCB-Coordinate-Origin: lower left *
%MOIN*%
%FSLAX24Y24*%
%IPPOS*%
%ADD11C,0.0400*%
%ADD12C,0.0080*%
%ADD13C,0.0239*%
%ADD14C,0.0140*%
%ADD15C,0.0300*%
%ADD16C,0.0600*%
%ADD17C,0.0250*%
%ADD18C,0.0450*%
%ADD19C,0.0140*%
%ADD20C,0.0299*%
%ADD21C,0.0100*%
%ADD22C,0.0110*%
%ADD23C,0.0249*%
%ADD24R,0.0240X0.0240*%
%ADD25R,0.0440X0.0440*%
%ADD26R,0.0300X0.0300*%
%ADD27C,0.0060*%
%ADD28C,0.0080*%
%ADD29C,0.0800*%
%ADD30C,0.0860*%
%ADD31C,0.1100X0.0800*%
%ADD32C,0.1100*%
%ADD33C,0.0110*%
%AMTHERM1*7,0,0,0.1100,0.0800,0.0110,45*%
%ADD34THERM1*%
%ADD35R,0.0970X0.0970*%
%ADD36R,0.1170X0.1170*%
%ADD37R,0.1030X0.1030*%
%ADD38C,0.0200*%
%ADD39R,0.0560X0.0560*%
%ADD40R,0.0860X0.0860*%
%ADD41R,0.0620X0.0620*%
%ADD42R,0.1220X0.1220*%
%ADD43R,0.1520X0.1520*%
%ADD44R,0.1280X0.1280*%
%ADD45R,0.0340X0.0340*%
%ADD46R,0.0640X0.0640*%
%ADD47R,0.0400X0.0400*%
%ADD48R,0.0540X0.0540*%
%ADD49R,0.0480X0.0480*%
%ADD50R,0.0680X0.0680*%
%ADD51R,0.0200X0.0200*%
%ADD52R,0.0500X0.0500*%
%ADD53R,0.0600X0.0600*%
%ADD54R,0.0660X0.0660*%
%ADD55R,0.0900X0.0900X0.0600X0.0600*%
%ADD56R,0.0900X0.0900*%
%ADD57C,0.0600*%
%ADD58C,0.0660*%
%AMTHERM2*7,0,0,0.0900,0.0600,0.0100,45*%
%ADD59THERM2*%
%ADD60C,0.0900X0.0600*%
%ADD61C,0.0900*%
%ADD62R,0.0150X0.0150*%
%ADD63R,0.0450X0.0450*%
%ADD64R,0.0210X0.0210*%
%ADD65C,0.0410*%
%ADD66C,0.0170*%
%ADD67R,0.1610X0.1610*%
%ADD68R,0.1910X0.1910*%
%ADD69R,0.1670X0.1670*%
%ADD70C,0.0720*%
%ADD71C,0.0920X0.0720*%
%ADD72C,0.0920*%
%ADD73C,0.0240*%
%ADD74C,0.0340*%
%ADD75C,0.1320*%
%ADD76C,0.1520*%
%ADD77C,0.1520X0.1320*%
%ADD78C,0.0600*%
%ADD79C,0.0125*%
%AMTHERM3*7,0,0,0.0800,0.0600,0.0125,45*%
%ADD80THERM3*%
%ADD81C,0.0800*%
%ADD82C,0.0800X0.0600*%
%ADD83C,0.0350*%
%ADD84C,0.0100*%
%AMTHERM4*7,0,0,0.0510,0.0350,0.0100,45*%
%ADD85THERM4*%
%ADD86C,0.0510*%
%ADD87C,0.0510X0.0350*%
%ADD88C,0.0360*%
%ADD89C,0.0520*%
%ADD90C,0.0520X0.0360*%
%AMTHERM5*7,0,0,0.0799,0.0600,0.0125,45*%
%ADD91THERM5*%
%ADD92C,0.0799*%
%ADD93C,0.0799X0.0600*%
%ADD94C,0.0090*%
%AMTHERM6*7,0,0,0.0520,0.0360,0.0090,45*%
%ADD95THERM6*%
%ADD96C,0.0310*%
%ADD97C,0.0080*%
%AMTHERM7*7,0,0,0.0469,0.0310,0.0080,45*%
%ADD98THERM7*%
%ADD99C,0.0469*%
%ADD100C,0.0469X0.0310*%
%AMTHERM8*7,0,0,0.0510,0.0350,0.0100,45*%
%ADD101THERM8*%
%ADD102C,0.0510*%
%ADD103C,0.0510X0.0350*%
%LNGROUP_3*%
%LPD*%
G01X0Y0D02*
G54D27*X15530Y11730D02*X16070D01*
Y12570D02*Y11730D01*
X15530Y12570D02*X16070D01*
X15530D02*Y11730D01*
G04 Text: R22 *
G54D28*X14350Y12170D02*X14550D01*
X14600Y12120D01*
Y12020D01*
X14550Y11970D02*X14600Y12020D01*
X14400Y11970D02*X14550D01*
X14400Y12170D02*Y11770D01*
Y11970D02*X14600Y11770D01*
X14720Y12120D02*X14770Y12170D01*
X14920D01*
X14970Y12120D01*
Y12020D01*
X14720Y11770D02*X14970Y12020D01*
X14720Y11770D02*X14970D01*
X15090Y12120D02*X15140Y12170D01*
X15290D01*
X15340Y12120D01*
Y12020D01*
X15090Y11770D02*X15340Y12020D01*
X15090Y11770D02*X15340D01*
G54D27*X19580Y19220D02*X20120D01*
X19580D02*Y18380D01*
X20120D01*
Y19220D02*Y18380D01*
G04 Text: R18 *
G54D28*X19630Y17450D02*Y17250D01*
Y17450D02*X19680Y17500D01*
X19780D01*
X19830Y17450D02*X19780Y17500D01*
X19830Y17450D02*Y17300D01*
X19630D02*X20030D01*
X19830D02*X20030Y17500D01*
Y17770D02*Y17670D01*
X19630Y17720D02*X20030D01*
X19730Y17620D02*X19630Y17720D01*
X19980Y17890D02*X20030Y17940D01*
X19880Y17890D02*X19980D01*
X19880D02*X19830Y17940D01*
Y18040D02*Y17940D01*
Y18040D02*X19880Y18090D01*
X19980D01*
X20030Y18040D02*X19980Y18090D01*
X20030Y18040D02*Y17940D01*
X19780Y17890D02*X19830Y17940D01*
X19680Y17890D02*X19780D01*
X19680D02*X19630Y17940D01*
Y18040D02*Y17940D01*
Y18040D02*X19680Y18090D01*
X19780D01*
X19830Y18040D02*X19780Y18090D01*
G54D27*X20780Y18380D02*X21320D01*
Y19220D02*Y18380D01*
X20780Y19220D02*X21320D01*
X20780D02*Y18380D01*
G04 Text: C66 *
G54D28*X21280Y17500D02*Y17350D01*
X21230Y17300D02*X21280Y17350D01*
X20930Y17300D02*X21230D01*
X20930D02*X20880Y17350D01*
Y17500D02*Y17350D01*
Y17770D02*X20930Y17820D01*
X20880Y17770D02*Y17670D01*
X20930Y17620D02*X20880Y17670D01*
X20930Y17620D02*X21230D01*
X21280Y17670D01*
X21080Y17770D02*X21130Y17820D01*
X21080Y17770D02*Y17620D01*
X21280Y17770D02*Y17670D01*
Y17770D02*X21230Y17820D01*
X21130D02*X21230D01*
X20880Y18090D02*X20930Y18140D01*
X20880Y18090D02*Y17990D01*
X20930Y17940D02*X20880Y17990D01*
X20930Y17940D02*X21230D01*
X21280Y17990D01*
X21080Y18090D02*X21130Y18140D01*
X21080Y18090D02*Y17940D01*
X21280Y18090D02*Y17990D01*
Y18090D02*X21230Y18140D01*
X21130D02*X21230D01*
G54D27*X21380Y19220D02*X21920D01*
X21380D02*Y18380D01*
X21920D01*
Y19220D02*Y18380D01*
G04 Text: R65 *
G54D28*X21480Y17450D02*Y17250D01*
Y17450D02*X21530Y17500D01*
X21630D01*
X21680Y17450D02*X21630Y17500D01*
X21680Y17450D02*Y17300D01*
X21480D02*X21880D01*
X21680D02*X21880Y17500D01*
X21480Y17770D02*X21530Y17820D01*
X21480Y17770D02*Y17670D01*
X21530Y17620D02*X21480Y17670D01*
X21530Y17620D02*X21830D01*
X21880Y17670D01*
X21680Y17770D02*X21730Y17820D01*
X21680Y17770D02*Y17620D01*
X21880Y17770D02*Y17670D01*
Y17770D02*X21830Y17820D01*
X21730D02*X21830D01*
X21480Y18140D02*Y17940D01*
X21680D01*
X21630Y17990D01*
Y18090D02*Y17990D01*
Y18090D02*X21680Y18140D01*
X21830D01*
X21880Y18090D02*X21830Y18140D01*
X21880Y18090D02*Y17990D01*
X21830Y17940D02*X21880Y17990D01*
G54D27*X20180Y18380D02*X20720D01*
Y19220D02*Y18380D01*
X20180Y19220D02*X20720D01*
X20180D02*Y18380D01*
G04 Text: C86 *
G54D28*X20630Y17450D02*Y17300D01*
X20580Y17250D02*X20630Y17300D01*
X20280Y17250D02*X20580D01*
X20280D02*X20230Y17300D01*
Y17450D02*Y17300D01*
X20580Y17570D02*X20630Y17620D01*
X20480Y17570D02*X20580D01*
X20480D02*X20430Y17620D01*
Y17720D02*Y17620D01*
Y17720D02*X20480Y17770D01*
X20580D01*
X20630Y17720D02*X20580Y17770D01*
X20630Y17720D02*Y17620D01*
X20380Y17570D02*X20430Y17620D01*
X20280Y17570D02*X20380D01*
X20280D02*X20230Y17620D01*
Y17720D02*Y17620D01*
Y17720D02*X20280Y17770D01*
X20380D01*
X20430Y17720D02*X20380Y17770D01*
X20230Y18040D02*X20280Y18090D01*
X20230Y18040D02*Y17940D01*
X20280Y17890D02*X20230Y17940D01*
X20280Y17890D02*X20580D01*
X20630Y17940D01*
X20430Y18040D02*X20480Y18090D01*
X20430Y18040D02*Y17890D01*
X20630Y18040D02*Y17940D01*
Y18040D02*X20580Y18090D01*
X20480D02*X20580D01*
G54D21*X8800Y5300D02*X12000D01*
X8800Y8500D02*Y5300D01*
Y8500D02*X12000D01*
Y5300D01*
G04 Text: J3 *
G54D28*X9950Y9150D02*X10100D01*
Y8800D01*
X10050Y8750D02*X10100Y8800D01*
X10000Y8750D02*X10050D01*
X9950Y8800D02*X10000Y8750D01*
X10220Y9100D02*X10270Y9150D01*
X10370D01*
X10420Y9100D01*
Y8800D01*
X10370Y8750D02*X10420Y8800D01*
X10270Y8750D02*X10370D01*
X10220Y8800D02*X10270Y8750D01*
Y8950D02*X10420D01*
G54D27*X20580Y20820D02*Y20280D01*
X21420D01*
Y20820D02*Y20280D01*
X20580Y20820D02*X21420D01*
G04 Text: C124 *
G54D28*X21850Y20370D02*X22000D01*
X21800Y20420D02*X21850Y20370D01*
X21800Y20720D02*Y20420D01*
Y20720D02*X21850Y20770D01*
X22000D01*
X22170Y20370D02*X22270D01*
X22220Y20770D02*Y20370D01*
X22120Y20670D02*X22220Y20770D01*
X22390Y20720D02*X22440Y20770D01*
X22590D01*
X22640Y20720D01*
Y20620D01*
X22390Y20370D02*X22640Y20620D01*
X22390Y20370D02*X22640D01*
X22760Y20570D02*X22960Y20770D01*
X22760Y20570D02*X23010D01*
X22960Y20770D02*Y20370D01*
G54D27*X18170Y20470D02*Y19930D01*
X17330Y20470D02*X18170D01*
X17330D02*Y19930D01*
X18170D01*
G04 Text: C28 *
G54D28*X17550Y20620D02*X17700D01*
X17500Y20670D02*X17550Y20620D01*
X17500Y20970D02*Y20670D01*
Y20970D02*X17550Y21020D01*
X17700D01*
X17820Y20970D02*X17870Y21020D01*
X18020D01*
X18070Y20970D01*
Y20870D01*
X17820Y20620D02*X18070Y20870D01*
X17820Y20620D02*X18070D01*
X18190Y20670D02*X18240Y20620D01*
X18190Y20770D02*Y20670D01*
Y20770D02*X18240Y20820D01*
X18340D01*
X18390Y20770D01*
Y20670D01*
X18340Y20620D02*X18390Y20670D01*
X18240Y20620D02*X18340D01*
X18190Y20870D02*X18240Y20820D01*
X18190Y20970D02*Y20870D01*
Y20970D02*X18240Y21020D01*
X18340D01*
X18390Y20970D01*
Y20870D01*
X18340Y20820D02*X18390Y20870D01*
G54D21*X23550Y9340D02*Y7950D01*
X22270Y9340D02*X23550D01*
X22270D02*Y7950D01*
X23550D01*
G04 Text: Q1 *
G54D28*X22700Y9880D02*Y9580D01*
Y9880D02*X22750Y9930D01*
X22850D01*
X22900Y9880D01*
Y9580D01*
X22850Y9530D02*X22900Y9580D01*
X22750Y9530D02*X22850D01*
X22700Y9580D02*X22750Y9530D01*
X22800Y9630D02*X22900Y9530D01*
X23070D02*X23170D01*
X23120Y9930D02*Y9530D01*
X23020Y9830D02*X23120Y9930D01*
G54D27*X23970Y20470D02*Y19930D01*
X23130Y20470D02*X23970D01*
X23130D02*Y19930D01*
X23970D01*
G04 Text: C27 *
G54D28*X24150Y20020D02*X24300D01*
X24100Y20070D02*X24150Y20020D01*
X24100Y20370D02*Y20070D01*
Y20370D02*X24150Y20420D01*
X24300D01*
X24420Y20370D02*X24470Y20420D01*
X24620D01*
X24670Y20370D01*
Y20270D01*
X24420Y20020D02*X24670Y20270D01*
X24420Y20020D02*X24670D01*
X24790D02*X25040Y20270D01*
Y20420D02*Y20270D01*
X24790Y20420D02*X25040D01*
G54D27*X20530Y22020D02*X21370D01*
Y21480D01*
X20530D02*X21370D01*
X20530Y22020D02*Y21480D01*
G04 Text: C24 *
G54D28*X21550Y21600D02*X21700D01*
X21500Y21650D02*X21550Y21600D01*
X21500Y21950D02*Y21650D01*
Y21950D02*X21550Y22000D01*
X21700D01*
X21820Y21950D02*X21870Y22000D01*
X22020D01*
X22070Y21950D01*
Y21850D01*
X21820Y21600D02*X22070Y21850D01*
X21820Y21600D02*X22070D01*
X22190Y21800D02*X22390Y22000D01*
X22190Y21800D02*X22440D01*
X22390Y22000D02*Y21600D01*
G54D27*X17680Y3870D02*Y3330D01*
X18520D01*
Y3870D01*
X17680D01*
G04 Text: C81 *
G54D28*X17450Y2820D02*X17600D01*
X17400Y2870D02*X17450Y2820D01*
X17400Y3170D02*Y2870D01*
Y3170D02*X17450Y3220D01*
X17600D01*
X17720Y2870D02*X17770Y2820D01*
X17720Y2970D02*Y2870D01*
Y2970D02*X17770Y3020D01*
X17870D01*
X17920Y2970D01*
Y2870D01*
X17870Y2820D02*X17920Y2870D01*
X17770Y2820D02*X17870D01*
X17720Y3070D02*X17770Y3020D01*
X17720Y3170D02*Y3070D01*
Y3170D02*X17770Y3220D01*
X17870D01*
X17920Y3170D01*
Y3070D01*
X17870Y3020D02*X17920Y3070D01*
X18090Y2820D02*X18190D01*
X18140Y3220D02*Y2820D01*
X18040Y3120D02*X18140Y3220D01*
G54D27*X17630Y4820D02*X18170D01*
X17630D02*Y3980D01*
X18170D01*
Y4820D02*Y3980D01*
G04 Text: R12 *
G54D28*X16600Y4620D02*X16800D01*
X16850Y4570D01*
Y4470D01*
X16800Y4420D02*X16850Y4470D01*
X16650Y4420D02*X16800D01*
X16650Y4620D02*Y4220D01*
Y4420D02*X16850Y4220D01*
X17020D02*X17120D01*
X17070Y4620D02*Y4220D01*
X16970Y4520D02*X17070Y4620D01*
X17240Y4570D02*X17290Y4620D01*
X17440D01*
X17490Y4570D01*
Y4470D01*
X17240Y4220D02*X17490Y4470D01*
X17240Y4220D02*X17490D01*
G54D27*X17730Y5470D02*Y4930D01*
X18570D01*
Y5470D02*Y4930D01*
X17730Y5470D02*X18570D01*
G04 Text: C80 *
G54D28*X16750Y4970D02*X16900D01*
X16700Y5020D02*X16750Y4970D01*
X16700Y5320D02*Y5020D01*
Y5320D02*X16750Y5370D01*
X16900D01*
X17020Y5020D02*X17070Y4970D01*
X17020Y5120D02*Y5020D01*
Y5120D02*X17070Y5170D01*
X17170D01*
X17220Y5120D01*
Y5020D01*
X17170Y4970D02*X17220Y5020D01*
X17070Y4970D02*X17170D01*
X17020Y5220D02*X17070Y5170D01*
X17020Y5320D02*Y5220D01*
Y5320D02*X17070Y5370D01*
X17170D01*
X17220Y5320D01*
Y5220D01*
X17170Y5170D02*X17220Y5220D01*
X17340Y5020D02*X17390Y4970D01*
X17340Y5320D02*Y5020D01*
Y5320D02*X17390Y5370D01*
X17490D01*
X17540Y5320D01*
Y5020D01*
X17490Y4970D02*X17540Y5020D01*
X17390Y4970D02*X17490D01*
X17340Y5070D02*X17540Y5270D01*
G54D27*X15480Y8320D02*Y7780D01*
X16320D01*
Y8320D02*Y7780D01*
X15480Y8320D02*X16320D01*
G04 Text: R11 *
G54D28*X14550Y9950D02*X14750D01*
X14800Y9900D01*
Y9800D01*
X14750Y9750D02*X14800Y9800D01*
X14600Y9750D02*X14750D01*
X14600Y9950D02*Y9550D01*
Y9750D02*X14800Y9550D01*
X14970D02*X15070D01*
X15020Y9950D02*Y9550D01*
X14920Y9850D02*X15020Y9950D01*
X15240Y9550D02*X15340D01*
X15290Y9950D02*Y9550D01*
X15190Y9850D02*X15290Y9950D01*
G54D27*X13830Y8520D02*X14370D01*
X13830D02*Y7680D01*
X14370D01*
Y8520D02*Y7680D01*
G04 Text: L98 *
G54D28*X13830Y9500D02*X14230D01*
Y9700D02*Y9500D01*
Y9820D02*X14030Y10020D01*
X13880D02*X14030D01*
X13830Y9970D02*X13880Y10020D01*
X13830Y9970D02*Y9870D01*
X13880Y9820D02*X13830Y9870D01*
X13880Y9820D02*X13980D01*
X14030Y9870D01*
Y10020D02*Y9870D01*
X14180Y10140D02*X14230Y10190D01*
X14080Y10140D02*X14180D01*
X14080D02*X14030Y10190D01*
Y10290D02*Y10190D01*
Y10290D02*X14080Y10340D01*
X14180D01*
X14230Y10290D02*X14180Y10340D01*
X14230Y10290D02*Y10190D01*
X13980Y10140D02*X14030Y10190D01*
X13880Y10140D02*X13980D01*
X13880D02*X13830Y10190D01*
Y10290D02*Y10190D01*
Y10290D02*X13880Y10340D01*
X13980D01*
X14030Y10290D02*X13980Y10340D01*
G54D27*X13770Y8420D02*Y7880D01*
X12930Y8420D02*X13770D01*
X12930D02*Y7880D01*
X13770D01*
G04 Text: C97 *
G54D28*X12750Y9220D02*X12900D01*
X12700Y9270D02*X12750Y9220D01*
X12700Y9570D02*Y9270D01*
Y9570D02*X12750Y9620D01*
X12900D01*
X13020Y9220D02*X13220Y9420D01*
Y9570D02*Y9420D01*
X13170Y9620D02*X13220Y9570D01*
X13070Y9620D02*X13170D01*
X13020Y9570D02*X13070Y9620D01*
X13020Y9570D02*Y9470D01*
X13070Y9420D01*
X13220D01*
X13340Y9220D02*X13590Y9470D01*
Y9620D02*Y9470D01*
X13340Y9620D02*X13590D01*
G54D27*X14480Y7720D02*Y7180D01*
X15320D01*
Y7720D02*Y7180D01*
X14480Y7720D02*X15320D01*
G04 Text: C96 *
G54D28*X14500Y6620D02*X14650D01*
X14450Y6670D02*X14500Y6620D01*
X14450Y6970D02*Y6670D01*
Y6970D02*X14500Y7020D01*
X14650D01*
X14770Y6620D02*X14970Y6820D01*
Y6970D02*Y6820D01*
X14920Y7020D02*X14970Y6970D01*
X14820Y7020D02*X14920D01*
X14770Y6970D02*X14820Y7020D01*
X14770Y6970D02*Y6870D01*
X14820Y6820D01*
X14970D01*
X15240Y7020D02*X15290Y6970D01*
X15140Y7020D02*X15240D01*
X15090Y6970D02*X15140Y7020D01*
X15090Y6970D02*Y6670D01*
X15140Y6620D01*
X15240Y6820D02*X15290Y6770D01*
X15090Y6820D02*X15240D01*
X15140Y6620D02*X15240D01*
X15290Y6670D01*
Y6770D02*Y6670D01*
G54D27*X17030Y6120D02*Y5580D01*
X17870D01*
Y6120D02*Y5580D01*
X17030Y6120D02*X17870D01*
G04 Text: C75 *
G54D28*X16100Y5670D02*X16250D01*
X16050Y5720D02*X16100Y5670D01*
X16050Y6020D02*Y5720D01*
Y6020D02*X16100Y6070D01*
X16250D01*
X16370Y5670D02*X16620Y5920D01*
Y6070D02*Y5920D01*
X16370Y6070D02*X16620D01*
X16740D02*X16940D01*
X16740D02*Y5870D01*
X16790Y5920D01*
X16890D01*
X16940Y5870D01*
Y5720D01*
X16890Y5670D02*X16940Y5720D01*
X16790Y5670D02*X16890D01*
X16740Y5720D02*X16790Y5670D01*
G54D27*X21080Y6320D02*Y5780D01*
X21920D01*
Y6320D02*Y5780D01*
X21080Y6320D02*X21920D01*
G04 Text: C71 *
G54D28*X23600Y5870D02*X23750D01*
X23550Y5920D02*X23600Y5870D01*
X23550Y6220D02*Y5920D01*
Y6220D02*X23600Y6270D01*
X23750D01*
X23870Y5870D02*X24120Y6120D01*
Y6270D02*Y6120D01*
X23870Y6270D02*X24120D01*
X24290Y5870D02*X24390D01*
X24340Y6270D02*Y5870D01*
X24240Y6170D02*X24340Y6270D01*
G54D27*X16380Y7720D02*Y7180D01*
X17220D01*
Y7720D02*Y7180D01*
X16380Y7720D02*X17220D01*
G04 Text: C72 *
G54D28*X15500Y8970D02*X15650D01*
X15450Y9020D02*X15500Y8970D01*
X15450Y9320D02*Y9020D01*
Y9320D02*X15500Y9370D01*
X15650D01*
X15770Y8970D02*X16020Y9220D01*
Y9370D02*Y9220D01*
X15770Y9370D02*X16020D01*
X16140Y9320D02*X16190Y9370D01*
X16340D01*
X16390Y9320D01*
Y9220D01*
X16140Y8970D02*X16390Y9220D01*
X16140Y8970D02*X16390D01*
G54D27*X15430Y6280D02*X15970D01*
Y7120D02*Y6280D01*
X15430Y7120D02*X15970D01*
X15430D02*Y6280D01*
G04 Text: R40 *
G54D28*X14950Y5770D02*X15150D01*
X15200Y5720D01*
Y5620D01*
X15150Y5570D02*X15200Y5620D01*
X15000Y5570D02*X15150D01*
X15000Y5770D02*Y5370D01*
Y5570D02*X15200Y5370D01*
X15320Y5570D02*X15520Y5770D01*
X15320Y5570D02*X15570D01*
X15520Y5770D02*Y5370D01*
X15690Y5420D02*X15740Y5370D01*
X15690Y5720D02*Y5420D01*
Y5720D02*X15740Y5770D01*
X15840D01*
X15890Y5720D01*
Y5420D01*
X15840Y5370D02*X15890Y5420D01*
X15740Y5370D02*X15840D01*
X15690Y5470D02*X15890Y5670D01*
G54D27*X18780Y6020D02*X19320D01*
X18780D02*Y5180D01*
X19320D01*
Y6020D02*Y5180D01*
G04 Text: C70 *
G54D28*X18650Y3370D02*X18800D01*
X18600Y3420D02*X18650Y3370D01*
X18600Y3720D02*Y3420D01*
Y3720D02*X18650Y3770D01*
X18800D01*
X18920Y3370D02*X19170Y3620D01*
Y3770D02*Y3620D01*
X18920Y3770D02*X19170D01*
X19290Y3420D02*X19340Y3370D01*
X19290Y3720D02*Y3420D01*
Y3720D02*X19340Y3770D01*
X19440D01*
X19490Y3720D01*
Y3420D01*
X19440Y3370D02*X19490Y3420D01*
X19340Y3370D02*X19440D01*
X19290Y3470D02*X19490Y3670D01*
G54D27*X17680Y9770D02*Y9230D01*
X18520D01*
Y9770D02*Y9230D01*
X17680Y9770D02*X18520D01*
G04 Text: C69 *
G54D28*X17650Y9870D02*X17800D01*
X17600Y9920D02*X17650Y9870D01*
X17600Y10220D02*Y9920D01*
Y10220D02*X17650Y10270D01*
X17800D01*
X18070D02*X18120Y10220D01*
X17970Y10270D02*X18070D01*
X17920Y10220D02*X17970Y10270D01*
X17920Y10220D02*Y9920D01*
X17970Y9870D01*
X18070Y10070D02*X18120Y10020D01*
X17920Y10070D02*X18070D01*
X17970Y9870D02*X18070D01*
X18120Y9920D01*
Y10020D02*Y9920D01*
X18240Y9870D02*X18440Y10070D01*
Y10220D02*Y10070D01*
X18390Y10270D02*X18440Y10220D01*
X18290Y10270D02*X18390D01*
X18240Y10220D02*X18290Y10270D01*
X18240Y10220D02*Y10120D01*
X18290Y10070D01*
X18440D01*
G54D27*X16780Y9870D02*X17320D01*
X16780D02*Y9030D01*
X17320D01*
Y9870D02*Y9030D01*
G04 Text: C68 *
G54D28*X17130Y10150D02*Y10000D01*
X17080Y9950D02*X17130Y10000D01*
X16780Y9950D02*X17080D01*
X16780D02*X16730Y10000D01*
Y10150D02*Y10000D01*
Y10420D02*X16780Y10470D01*
X16730Y10420D02*Y10320D01*
X16780Y10270D02*X16730Y10320D01*
X16780Y10270D02*X17080D01*
X17130Y10320D01*
X16930Y10420D02*X16980Y10470D01*
X16930Y10420D02*Y10270D01*
X17130Y10420D02*Y10320D01*
Y10420D02*X17080Y10470D01*
X16980D02*X17080D01*
Y10590D02*X17130Y10640D01*
X16980Y10590D02*X17080D01*
X16980D02*X16930Y10640D01*
Y10740D02*Y10640D01*
Y10740D02*X16980Y10790D01*
X17080D01*
X17130Y10740D02*X17080Y10790D01*
X17130Y10740D02*Y10640D01*
X16880Y10590D02*X16930Y10640D01*
X16780Y10590D02*X16880D01*
X16780D02*X16730Y10640D01*
Y10740D02*Y10640D01*
Y10740D02*X16780Y10790D01*
X16880D01*
X16930Y10740D02*X16880Y10790D01*
G54D27*X22030Y6920D02*Y6380D01*
X22870D01*
Y6920D02*Y6380D01*
X22030Y6920D02*X22870D01*
G04 Text: R93 *
G54D28*X24700Y6870D02*X24900D01*
X24950Y6820D01*
Y6720D01*
X24900Y6670D02*X24950Y6720D01*
X24750Y6670D02*X24900D01*
X24750Y6870D02*Y6470D01*
Y6670D02*X24950Y6470D01*
X25070D02*X25270Y6670D01*
Y6820D02*Y6670D01*
X25220Y6870D02*X25270Y6820D01*
X25120Y6870D02*X25220D01*
X25070Y6820D02*X25120Y6870D01*
X25070Y6820D02*Y6720D01*
X25120Y6670D01*
X25270D01*
X25390Y6820D02*X25440Y6870D01*
X25540D01*
X25590Y6820D01*
Y6520D01*
X25540Y6470D02*X25590Y6520D01*
X25440Y6470D02*X25540D01*
X25390Y6520D02*X25440Y6470D01*
Y6670D02*X25590D01*
G54D27*X19230Y10870D02*X19770D01*
X19230D02*Y10030D01*
X19770D01*
Y10870D02*Y10030D01*
G04 Text: C79 *
G54D28*X19200Y11420D02*X19350D01*
X19150Y11470D02*X19200Y11420D01*
X19150Y11770D02*Y11470D01*
Y11770D02*X19200Y11820D01*
X19350D01*
X19470Y11420D02*X19720Y11670D01*
Y11820D02*Y11670D01*
X19470Y11820D02*X19720D01*
X19840Y11420D02*X20040Y11620D01*
Y11770D02*Y11620D01*
X19990Y11820D02*X20040Y11770D01*
X19890Y11820D02*X19990D01*
X19840Y11770D02*X19890Y11820D01*
X19840Y11770D02*Y11670D01*
X19890Y11620D01*
X20040D01*
G54D27*X13770Y9020D02*Y8480D01*
X12930Y9020D02*X13770D01*
X12930D02*Y8480D01*
X13770D01*
G04 Text: C98 *
G54D28*X12750Y9820D02*X12900D01*
X12700Y9870D02*X12750Y9820D01*
X12700Y10170D02*Y9870D01*
Y10170D02*X12750Y10220D01*
X12900D01*
X13020Y9820D02*X13220Y10020D01*
Y10170D02*Y10020D01*
X13170Y10220D02*X13220Y10170D01*
X13070Y10220D02*X13170D01*
X13020Y10170D02*X13070Y10220D01*
X13020Y10170D02*Y10070D01*
X13070Y10020D01*
X13220D01*
X13340Y9870D02*X13390Y9820D01*
X13340Y9970D02*Y9870D01*
Y9970D02*X13390Y10020D01*
X13490D01*
X13540Y9970D01*
Y9870D01*
X13490Y9820D02*X13540Y9870D01*
X13390Y9820D02*X13490D01*
X13340Y10070D02*X13390Y10020D01*
X13340Y10170D02*Y10070D01*
Y10170D02*X13390Y10220D01*
X13490D01*
X13540Y10170D01*
Y10070D01*
X13490Y10020D02*X13540Y10070D01*
G54D27*X21920Y5720D02*Y5180D01*
X21080Y5720D02*X21920D01*
X21080D02*Y5180D01*
X21920D01*
G04 Text: C76 *
G54D28*X23550Y5320D02*X23700D01*
X23500Y5370D02*X23550Y5320D01*
X23500Y5670D02*Y5370D01*
Y5670D02*X23550Y5720D01*
X23700D01*
X23820Y5320D02*X24070Y5570D01*
Y5720D02*Y5570D01*
X23820Y5720D02*X24070D01*
X24340D02*X24390Y5670D01*
X24240Y5720D02*X24340D01*
X24190Y5670D02*X24240Y5720D01*
X24190Y5670D02*Y5370D01*
X24240Y5320D01*
X24340Y5520D02*X24390Y5470D01*
X24190Y5520D02*X24340D01*
X24240Y5320D02*X24340D01*
X24390Y5370D01*
Y5470D02*Y5370D01*
G54D27*X16380Y8320D02*Y7780D01*
X17220D01*
Y8320D02*Y7780D01*
X16380Y8320D02*X17220D01*
G04 Text: C73 *
G54D28*X15600Y9520D02*X15750D01*
X15550Y9570D02*X15600Y9520D01*
X15550Y9870D02*Y9570D01*
Y9870D02*X15600Y9920D01*
X15750D01*
X15870Y9520D02*X16120Y9770D01*
Y9920D02*Y9770D01*
X15870Y9920D02*X16120D01*
X16240Y9870D02*X16290Y9920D01*
X16390D01*
X16440Y9870D01*
Y9570D01*
X16390Y9520D02*X16440Y9570D01*
X16290Y9520D02*X16390D01*
X16240Y9570D02*X16290Y9520D01*
Y9720D02*X16440D01*
G54D27*X20830Y9220D02*X21370D01*
X20830D02*Y8380D01*
X21370D01*
Y9220D02*Y8380D01*
G04 Text: C77 *
G54D28*X20650Y9470D02*X20800D01*
X20600Y9520D02*X20650Y9470D01*
X20600Y9820D02*Y9520D01*
Y9820D02*X20650Y9870D01*
X20800D01*
X20920Y9470D02*X21170Y9720D01*
Y9870D02*Y9720D01*
X20920Y9870D02*X21170D01*
X21290Y9470D02*X21540Y9720D01*
Y9870D02*Y9720D01*
X21290Y9870D02*X21540D01*
G54D27*X16530Y8920D02*Y8380D01*
X17370D01*
Y8920D02*Y8380D01*
X16530Y8920D02*X17370D01*
G04 Text: C74 *
G54D28*X15600Y10120D02*X15750D01*
X15550Y10170D02*X15600Y10120D01*
X15550Y10470D02*Y10170D01*
Y10470D02*X15600Y10520D01*
X15750D01*
X15870Y10120D02*X16120Y10370D01*
Y10520D02*Y10370D01*
X15870Y10520D02*X16120D01*
X16240Y10320D02*X16440Y10520D01*
X16240Y10320D02*X16490D01*
X16440Y10520D02*Y10120D01*
G54D38*X15230Y4030D02*X16970D01*
G54D21*X15230D02*X14980Y3550D01*
Y570D01*
X17220D01*
Y3550D02*Y570D01*
Y3550D02*X16970Y4030D01*
G04 Text: C82 *
G54D28*X13950Y2130D02*X14100D01*
X13900Y2180D02*X13950Y2130D01*
X13900Y2480D02*Y2180D01*
Y2480D02*X13950Y2530D01*
X14100D01*
X14220Y2180D02*X14270Y2130D01*
X14220Y2280D02*Y2180D01*
Y2280D02*X14270Y2330D01*
X14370D01*
X14420Y2280D01*
Y2180D01*
X14370Y2130D02*X14420Y2180D01*
X14270Y2130D02*X14370D01*
X14220Y2380D02*X14270Y2330D01*
X14220Y2480D02*Y2380D01*
Y2480D02*X14270Y2530D01*
X14370D01*
X14420Y2480D01*
Y2380D01*
X14370Y2330D02*X14420Y2380D01*
X14540Y2480D02*X14590Y2530D01*
X14740D01*
X14790Y2480D01*
Y2380D01*
X14540Y2130D02*X14790Y2380D01*
X14540Y2130D02*X14790D01*
G54D38*X9950Y22100D02*X17950D01*
Y24100D02*Y22100D01*
X9950Y24100D02*X17950D01*
X9950D02*Y22100D01*
G54D21*X10950Y23100D02*Y22100D01*
X9950Y23100D02*X10950D01*
G04 Text: J24 *
G54D28*X8830Y23310D02*X8980D01*
Y22960D01*
X8930Y22910D02*X8980Y22960D01*
X8880Y22910D02*X8930D01*
X8830Y22960D02*X8880Y22910D01*
X9100Y23260D02*X9150Y23310D01*
X9300D01*
X9350Y23260D01*
Y23160D01*
X9100Y22910D02*X9350Y23160D01*
X9100Y22910D02*X9350D01*
X9470Y23110D02*X9670Y23310D01*
X9470Y23110D02*X9720D01*
X9670Y23310D02*Y22910D01*
G54D27*X15630Y19220D02*X16170D01*
X15630D02*Y18380D01*
X16170D01*
Y19220D02*Y18380D01*
G04 Text: R17 *
G54D28*X15680Y17450D02*Y17250D01*
Y17450D02*X15730Y17500D01*
X15830D01*
X15880Y17450D02*X15830Y17500D01*
X15880Y17450D02*Y17300D01*
X15680D02*X16080D01*
X15880D02*X16080Y17500D01*
Y17770D02*Y17670D01*
X15680Y17720D02*X16080D01*
X15780Y17620D02*X15680Y17720D01*
X16080Y17890D02*X15830Y18140D01*
X15680D02*X15830D01*
X15680D02*Y17890D01*
G54D27*X21070Y6920D02*Y6380D01*
X21910D01*
Y6920D02*Y6380D01*
X21070Y6920D02*X21910D01*
G04 Text: C61 *
G54D28*X23600Y6460D02*X23750D01*
X23550Y6510D02*X23600Y6460D01*
X23550Y6810D02*Y6510D01*
Y6810D02*X23600Y6860D01*
X23750D01*
X24020D02*X24070Y6810D01*
X23920Y6860D02*X24020D01*
X23870Y6810D02*X23920Y6860D01*
X23870Y6810D02*Y6510D01*
X23920Y6460D01*
X24020Y6660D02*X24070Y6610D01*
X23870Y6660D02*X24020D01*
X23920Y6460D02*X24020D01*
X24070Y6510D01*
Y6610D02*Y6510D01*
X24240Y6460D02*X24340D01*
X24290Y6860D02*Y6460D01*
X24190Y6760D02*X24290Y6860D01*
G54D27*X26130Y18380D02*X26670D01*
Y19220D02*Y18380D01*
X26130Y19220D02*X26670D01*
X26130D02*Y18380D01*
G04 Text: C67 *
G54D28*X26830Y17500D02*Y17350D01*
X26780Y17300D02*X26830Y17350D01*
X26480Y17300D02*X26780D01*
X26480D02*X26430Y17350D01*
Y17500D02*Y17350D01*
Y17770D02*X26480Y17820D01*
X26430Y17770D02*Y17670D01*
X26480Y17620D02*X26430Y17670D01*
X26480Y17620D02*X26780D01*
X26830Y17670D01*
X26630Y17770D02*X26680Y17820D01*
X26630Y17770D02*Y17620D01*
X26830Y17770D02*Y17670D01*
Y17770D02*X26780Y17820D01*
X26680D02*X26780D01*
X26830Y17940D02*X26580Y18190D01*
X26430D02*X26580D01*
X26430D02*Y17940D01*
G54D27*X19680Y4520D02*Y3980D01*
X20520D01*
Y4520D02*Y3980D01*
X19680Y4520D02*X20520D01*
G04 Text: R14 *
G54D28*X19700Y2620D02*X19900D01*
X19950Y2570D01*
Y2470D01*
X19900Y2420D02*X19950Y2470D01*
X19750Y2420D02*X19900D01*
X19750Y2620D02*Y2220D01*
Y2420D02*X19950Y2220D01*
X20120D02*X20220D01*
X20170Y2620D02*Y2220D01*
X20070Y2520D02*X20170Y2620D01*
X20340Y2420D02*X20540Y2620D01*
X20340Y2420D02*X20590D01*
X20540Y2620D02*Y2220D01*
G54D21*X13160Y7550D02*X14350D01*
X13160D02*Y6750D01*
X14350D01*
Y7550D02*Y6750D01*
G04 Text: U4 *
G54D28*X13450Y6650D02*Y6300D01*
X13500Y6250D01*
X13600D01*
X13650Y6300D01*
Y6650D02*Y6300D01*
X13770Y6450D02*X13970Y6650D01*
X13770Y6450D02*X14020D01*
X13970Y6650D02*Y6250D01*
G54D21*X25200Y19750D02*Y17850D01*
X22100Y19750D02*X25200D01*
X22100D02*Y17850D01*
X23900D02*X25200D01*
X22100D02*X23400D01*
X23900D02*G75*G03X23400Y17850I-250J0D01*G01*
G04 Text: U5 *
G54D28*Y17700D02*Y17350D01*
X23450Y17300D01*
X23550D01*
X23600Y17350D01*
Y17700D02*Y17350D01*
X23720Y17700D02*X23920D01*
X23720D02*Y17500D01*
X23770Y17550D01*
X23870D01*
X23920Y17500D01*
Y17350D01*
X23870Y17300D02*X23920Y17350D01*
X23770Y17300D02*X23870D01*
X23720Y17350D02*X23770Y17300D01*
G54D27*X18780Y4520D02*Y3980D01*
X19620D01*
Y4520D02*Y3980D01*
X18780Y4520D02*X19620D01*
G04 Text: C84 *
G54D28*X18720Y2220D02*X18870D01*
X18670Y2270D02*X18720Y2220D01*
X18670Y2570D02*Y2270D01*
Y2570D02*X18720Y2620D01*
X18870D01*
X18990Y2270D02*X19040Y2220D01*
X18990Y2370D02*Y2270D01*
Y2370D02*X19040Y2420D01*
X19140D01*
X19190Y2370D01*
Y2270D01*
X19140Y2220D02*X19190Y2270D01*
X19040Y2220D02*X19140D01*
X18990Y2470D02*X19040Y2420D01*
X18990Y2570D02*Y2470D01*
Y2570D02*X19040Y2620D01*
X19140D01*
X19190Y2570D01*
Y2470D01*
X19140Y2420D02*X19190Y2470D01*
X19310Y2420D02*X19510Y2620D01*
X19310Y2420D02*X19560D01*
X19510Y2620D02*Y2220D01*
G54D27*X24380Y17470D02*X24920D01*
X24380D02*Y16630D01*
X24920D01*
Y17470D02*Y16630D01*
G04 Text: R67 *
G54D28*X25100Y17070D02*X25300D01*
X25350Y17020D01*
Y16920D01*
X25300Y16870D02*X25350Y16920D01*
X25150Y16870D02*X25300D01*
X25150Y17070D02*Y16670D01*
Y16870D02*X25350Y16670D01*
X25620Y17070D02*X25670Y17020D01*
X25520Y17070D02*X25620D01*
X25470Y17020D02*X25520Y17070D01*
X25470Y17020D02*Y16720D01*
X25520Y16670D01*
X25620Y16870D02*X25670Y16820D01*
X25470Y16870D02*X25620D01*
X25520Y16670D02*X25620D01*
X25670Y16720D01*
Y16820D02*Y16720D01*
X25790Y16670D02*X26040Y16920D01*
Y17070D02*Y16920D01*
X25790Y17070D02*X26040D01*
G54D27*X25430Y19220D02*X25970D01*
X25430D02*Y18380D01*
X25970D01*
Y19220D02*Y18380D01*
G04 Text: R66 *
G54D28*X25580Y17450D02*Y17250D01*
Y17450D02*X25630Y17500D01*
X25730D01*
X25780Y17450D02*X25730Y17500D01*
X25780Y17450D02*Y17300D01*
X25580D02*X25980D01*
X25780D02*X25980Y17500D01*
X25580Y17770D02*X25630Y17820D01*
X25580Y17770D02*Y17670D01*
X25630Y17620D02*X25580Y17670D01*
X25630Y17620D02*X25930D01*
X25980Y17670D01*
X25780Y17770D02*X25830Y17820D01*
X25780Y17770D02*Y17620D01*
X25980Y17770D02*Y17670D01*
Y17770D02*X25930Y17820D01*
X25830D02*X25930D01*
X25580Y18090D02*X25630Y18140D01*
X25580Y18090D02*Y17990D01*
X25630Y17940D02*X25580Y17990D01*
X25630Y17940D02*X25930D01*
X25980Y17990D01*
X25780Y18090D02*X25830Y18140D01*
X25780Y18090D02*Y17940D01*
X25980Y18090D02*Y17990D01*
Y18090D02*X25930Y18140D01*
X25830D02*X25930D01*
G54D21*X20670Y8970D02*Y6230D01*
X17930Y8970D02*X20670D01*
X17930D02*Y6230D01*
X20670D01*
X17930Y8970D02*X17780Y9120D01*
G04 Text: U3 *
G54D28*X17180Y6820D02*Y6470D01*
X17230Y6420D01*
X17330D01*
X17380Y6470D01*
Y6820D02*Y6470D01*
X17500Y6770D02*X17550Y6820D01*
X17650D01*
X17700Y6770D01*
Y6470D01*
X17650Y6420D02*X17700Y6470D01*
X17550Y6420D02*X17650D01*
X17500Y6470D02*X17550Y6420D01*
Y6620D02*X17700D01*
G54D27*X20520Y5120D02*Y4580D01*
X19680Y5120D02*X20520D01*
X19680D02*Y4580D01*
X20520D01*
G04 Text: R13 *
G54D28*X19700Y3220D02*X19900D01*
X19950Y3170D01*
Y3070D01*
X19900Y3020D02*X19950Y3070D01*
X19750Y3020D02*X19900D01*
X19750Y3220D02*Y2820D01*
Y3020D02*X19950Y2820D01*
X20120D02*X20220D01*
X20170Y3220D02*Y2820D01*
X20070Y3120D02*X20170Y3220D01*
X20340Y3170D02*X20390Y3220D01*
X20490D01*
X20540Y3170D01*
Y2870D01*
X20490Y2820D02*X20540Y2870D01*
X20390Y2820D02*X20490D01*
X20340Y2870D02*X20390Y2820D01*
Y3020D02*X20540D01*
G54D27*X22330Y17320D02*X22870D01*
X22330D02*Y16480D01*
X22870D01*
Y17320D02*Y16480D01*
G04 Text: R68 *
G54D28*X22940Y16960D02*X23140D01*
X23190Y16910D01*
Y16810D01*
X23140Y16760D02*X23190Y16810D01*
X22990Y16760D02*X23140D01*
X22990Y16960D02*Y16560D01*
Y16760D02*X23190Y16560D01*
X23460Y16960D02*X23510Y16910D01*
X23360Y16960D02*X23460D01*
X23310Y16910D02*X23360Y16960D01*
X23310Y16910D02*Y16610D01*
X23360Y16560D01*
X23460Y16760D02*X23510Y16710D01*
X23310Y16760D02*X23460D01*
X23360Y16560D02*X23460D01*
X23510Y16610D01*
Y16710D02*Y16610D01*
X23630D02*X23680Y16560D01*
X23630Y16710D02*Y16610D01*
Y16710D02*X23680Y16760D01*
X23780D01*
X23830Y16710D01*
Y16610D01*
X23780Y16560D02*X23830Y16610D01*
X23680Y16560D02*X23780D01*
X23630Y16810D02*X23680Y16760D01*
X23630Y16910D02*Y16810D01*
Y16910D02*X23680Y16960D01*
X23780D01*
X23830Y16910D01*
Y16810D01*
X23780Y16760D02*X23830Y16810D01*
G54D21*X19400Y19750D02*Y17850D01*
X16300Y19750D02*X19400D01*
X16300D02*Y17850D01*
X18100D02*X19400D01*
X16300D02*X17600D01*
X18100D02*G75*G03X17600Y17850I-250J0D01*G01*
G04 Text: U6 *
G54D28*Y17750D02*Y17400D01*
X17650Y17350D01*
X17750D01*
X17800Y17400D01*
Y17750D02*Y17400D01*
X18070Y17750D02*X18120Y17700D01*
X17970Y17750D02*X18070D01*
X17920Y17700D02*X17970Y17750D01*
X17920Y17700D02*Y17400D01*
X17970Y17350D01*
X18070Y17550D02*X18120Y17500D01*
X17920Y17550D02*X18070D01*
X17970Y17350D02*X18070D01*
X18120Y17400D01*
Y17500D02*Y17400D01*
G54D27*X12230Y7170D02*Y6630D01*
X13070D01*
Y7170D02*Y6630D01*
X12230Y7170D02*X13070D01*
G04 Text: C99 *
G54D28*X12250Y6120D02*X12400D01*
X12200Y6170D02*X12250Y6120D01*
X12200Y6470D02*Y6170D01*
Y6470D02*X12250Y6520D01*
X12400D01*
X12520Y6120D02*X12720Y6320D01*
Y6470D02*Y6320D01*
X12670Y6520D02*X12720Y6470D01*
X12570Y6520D02*X12670D01*
X12520Y6470D02*X12570Y6520D01*
X12520Y6470D02*Y6370D01*
X12570Y6320D01*
X12720D01*
X12840Y6120D02*X13040Y6320D01*
Y6470D02*Y6320D01*
X12990Y6520D02*X13040Y6470D01*
X12890Y6520D02*X12990D01*
X12840Y6470D02*X12890Y6520D01*
X12840Y6470D02*Y6370D01*
X12890Y6320D01*
X13040D01*
G54D27*X15030Y18380D02*X15570D01*
Y19220D02*Y18380D01*
X15030Y19220D02*X15570D01*
X15030D02*Y18380D01*
G04 Text: C85 *
G54D28*X15430Y17450D02*Y17300D01*
X15380Y17250D02*X15430Y17300D01*
X15080Y17250D02*X15380D01*
X15080D02*X15030Y17300D01*
Y17450D02*Y17300D01*
X15380Y17570D02*X15430Y17620D01*
X15280Y17570D02*X15380D01*
X15280D02*X15230Y17620D01*
Y17720D02*Y17620D01*
Y17720D02*X15280Y17770D01*
X15380D01*
X15430Y17720D02*X15380Y17770D01*
X15430Y17720D02*Y17620D01*
X15180Y17570D02*X15230Y17620D01*
X15080Y17570D02*X15180D01*
X15080D02*X15030Y17620D01*
Y17720D02*Y17620D01*
Y17720D02*X15080Y17770D01*
X15180D01*
X15230Y17720D02*X15180Y17770D01*
X15030Y18090D02*Y17890D01*
X15230D01*
X15180Y17940D01*
Y18040D02*Y17940D01*
Y18040D02*X15230Y18090D01*
X15380D01*
X15430Y18040D02*X15380Y18090D01*
X15430Y18040D02*Y17940D01*
X15380Y17890D02*X15430Y17940D01*
G54D38*X300Y22100D02*X8300D01*
Y24100D02*Y22100D01*
X300Y24100D02*X8300D01*
X300D02*Y22100D01*
G54D21*X1300Y23100D02*Y22100D01*
X300Y23100D02*X1300D01*
G04 Text: J25 *
G54D28*X3570Y21610D02*X3720D01*
Y21260D01*
X3670Y21210D02*X3720Y21260D01*
X3620Y21210D02*X3670D01*
X3570Y21260D02*X3620Y21210D01*
X3840Y21560D02*X3890Y21610D01*
X4040D01*
X4090Y21560D01*
Y21460D01*
X3840Y21210D02*X4090Y21460D01*
X3840Y21210D02*X4090D01*
X4210Y21610D02*X4410D01*
X4210D02*Y21410D01*
X4260Y21460D01*
X4360D01*
X4410Y21410D01*
Y21260D01*
X4360Y21210D02*X4410Y21260D01*
X4260Y21210D02*X4360D01*
X4210Y21260D02*X4260Y21210D01*
G54D38*X9850Y3000D02*X10850D01*
X9850D02*Y1000D01*
X10850D01*
Y3000D02*Y1000D01*
G54D21*X9850Y3000D02*Y2000D01*
X10850D01*
G04 Text: J100 *
G54D28*X9800Y800D02*X9950D01*
Y450D01*
X9900Y400D02*X9950Y450D01*
X9850Y400D02*X9900D01*
X9800Y450D02*X9850Y400D01*
X10120D02*X10220D01*
X10170Y800D02*Y400D01*
X10070Y700D02*X10170Y800D01*
X10340Y450D02*X10390Y400D01*
X10340Y750D02*Y450D01*
Y750D02*X10390Y800D01*
X10490D01*
X10540Y750D01*
Y450D01*
X10490Y400D02*X10540Y450D01*
X10390Y400D02*X10490D01*
X10340Y500D02*X10540Y700D01*
X10660Y450D02*X10710Y400D01*
X10660Y750D02*Y450D01*
Y750D02*X10710Y800D01*
X10810D01*
X10860Y750D01*
Y450D01*
X10810Y400D02*X10860Y450D01*
X10710Y400D02*X10810D01*
X10660Y500D02*X10860Y700D01*
G54D27*X15480Y7720D02*Y7180D01*
X16320D01*
Y7720D02*Y7180D01*
X15480Y7720D02*X16320D01*
G04 Text: R9 *
G54D28*X14650Y9400D02*X14850D01*
X14900Y9350D01*
Y9250D01*
X14850Y9200D02*X14900Y9250D01*
X14700Y9200D02*X14850D01*
X14700Y9400D02*Y9000D01*
Y9200D02*X14900Y9000D01*
X15020D02*X15220Y9200D01*
Y9350D02*Y9200D01*
X15170Y9400D02*X15220Y9350D01*
X15070Y9400D02*X15170D01*
X15020Y9350D02*X15070Y9400D01*
X15020Y9350D02*Y9250D01*
X15070Y9200D01*
X15220D01*
G54D27*X19620Y5120D02*Y4580D01*
X18780Y5120D02*X19620D01*
X18780D02*Y4580D01*
X19620D01*
G04 Text: C59 *
G54D28*X18750Y2770D02*X18900D01*
X18700Y2820D02*X18750Y2770D01*
X18700Y3120D02*Y2820D01*
Y3120D02*X18750Y3170D01*
X18900D01*
X19020D02*X19220D01*
X19020D02*Y2970D01*
X19070Y3020D01*
X19170D01*
X19220Y2970D01*
Y2820D01*
X19170Y2770D02*X19220Y2820D01*
X19070Y2770D02*X19170D01*
X19020Y2820D02*X19070Y2770D01*
X19340D02*X19540Y2970D01*
Y3120D02*Y2970D01*
X19490Y3170D02*X19540Y3120D01*
X19390Y3170D02*X19490D01*
X19340Y3120D02*X19390Y3170D01*
X19340Y3120D02*Y3020D01*
X19390Y2970D01*
X19540D01*
G54D27*X16980Y17320D02*X17520D01*
X16980D02*Y16480D01*
X17520D01*
Y17320D02*Y16480D01*
G04 Text: R20 *
G54D28*X16100Y16320D02*X16300D01*
X16350Y16270D01*
Y16170D01*
X16300Y16120D02*X16350Y16170D01*
X16150Y16120D02*X16300D01*
X16150Y16320D02*Y15920D01*
Y16120D02*X16350Y15920D01*
X16470Y16270D02*X16520Y16320D01*
X16670D01*
X16720Y16270D01*
Y16170D01*
X16470Y15920D02*X16720Y16170D01*
X16470Y15920D02*X16720D01*
X16840Y15970D02*X16890Y15920D01*
X16840Y16270D02*Y15970D01*
Y16270D02*X16890Y16320D01*
X16990D01*
X17040Y16270D01*
Y15970D01*
X16990Y15920D02*X17040Y15970D01*
X16890Y15920D02*X16990D01*
X16840Y16020D02*X17040Y16220D01*
G54D27*X17830Y17320D02*X18370D01*
X17830D02*Y16480D01*
X18370D01*
Y17320D02*Y16480D01*
G04 Text: R19 *
G54D28*X17950Y16270D02*X18150D01*
X18200Y16220D01*
Y16120D01*
X18150Y16070D02*X18200Y16120D01*
X18000Y16070D02*X18150D01*
X18000Y16270D02*Y15870D01*
Y16070D02*X18200Y15870D01*
X18370D02*X18470D01*
X18420Y16270D02*Y15870D01*
X18320Y16170D02*X18420Y16270D01*
X18590Y15870D02*X18790Y16070D01*
Y16220D02*Y16070D01*
X18740Y16270D02*X18790Y16220D01*
X18640Y16270D02*X18740D01*
X18590Y16220D02*X18640Y16270D01*
X18590Y16220D02*Y16120D01*
X18640Y16070D01*
X18790D01*
G54D27*X20520Y5720D02*Y5180D01*
X19680Y5720D02*X20520D01*
X19680D02*Y5180D01*
X20520D01*
G04 Text: C83 *
G54D28*X19800Y3220D02*X19950D01*
X19750Y3270D02*X19800Y3220D01*
X19750Y3570D02*Y3270D01*
Y3570D02*X19800Y3620D01*
X19950D01*
X20070Y3270D02*X20120Y3220D01*
X20070Y3370D02*Y3270D01*
Y3370D02*X20120Y3420D01*
X20220D01*
X20270Y3370D01*
Y3270D01*
X20220Y3220D02*X20270Y3270D01*
X20120Y3220D02*X20220D01*
X20070Y3470D02*X20120Y3420D01*
X20070Y3570D02*Y3470D01*
Y3570D02*X20120Y3620D01*
X20220D01*
X20270Y3570D01*
Y3470D01*
X20220Y3420D02*X20270Y3470D01*
X20390Y3570D02*X20440Y3620D01*
X20540D01*
X20590Y3570D01*
Y3270D01*
X20540Y3220D02*X20590Y3270D01*
X20440Y3220D02*X20540D01*
X20390Y3270D02*X20440Y3220D01*
Y3420D02*X20590D01*
G54D27*X20530Y21420D02*Y20880D01*
X21370D01*
Y21420D02*Y20880D01*
X20530Y21420D02*X21370D01*
G04 Text: R7 *
G54D28*X21500Y21350D02*X21700D01*
X21750Y21300D01*
Y21200D01*
X21700Y21150D02*X21750Y21200D01*
X21550Y21150D02*X21700D01*
X21550Y21350D02*Y20950D01*
Y21150D02*X21750Y20950D01*
X21870D02*X22120Y21200D01*
Y21350D02*Y21200D01*
X21870Y21350D02*X22120D01*
G54D27*X19630Y21420D02*Y20880D01*
X20470D01*
Y21420D02*Y20880D01*
X19630Y21420D02*X20470D01*
G04 Text: R6 *
G54D28*X18850Y21850D02*X19050D01*
X19100Y21800D01*
Y21700D01*
X19050Y21650D02*X19100Y21700D01*
X18900Y21650D02*X19050D01*
X18900Y21850D02*Y21450D01*
Y21650D02*X19100Y21450D01*
X19370Y21850D02*X19420Y21800D01*
X19270Y21850D02*X19370D01*
X19220Y21800D02*X19270Y21850D01*
X19220Y21800D02*Y21500D01*
X19270Y21450D01*
X19370Y21650D02*X19420Y21600D01*
X19220Y21650D02*X19370D01*
X19270Y21450D02*X19370D01*
X19420Y21500D01*
Y21600D02*Y21500D01*
G04 Text: . *
X13200Y7700D02*X13250D01*
G04 Text: 800-2400MHz Receiver *
X350Y10700D02*X400Y10650D01*
X350Y10800D02*Y10700D01*
Y10800D02*X400Y10850D01*
X500D01*
X550Y10800D01*
Y10700D01*
X500Y10650D02*X550Y10700D01*
X400Y10650D02*X500D01*
X350Y10900D02*X400Y10850D01*
X350Y11000D02*Y10900D01*
Y11000D02*X400Y11050D01*
X500D01*
X550Y11000D01*
Y10900D01*
X500Y10850D02*X550Y10900D01*
X670Y10700D02*X720Y10650D01*
X670Y11000D02*Y10700D01*
Y11000D02*X720Y11050D01*
X820D01*
X870Y11000D01*
Y10700D01*
X820Y10650D02*X870Y10700D01*
X720Y10650D02*X820D01*
X670Y10750D02*X870Y10950D01*
X990Y10700D02*X1040Y10650D01*
X990Y11000D02*Y10700D01*
Y11000D02*X1040Y11050D01*
X1140D01*
X1190Y11000D01*
Y10700D01*
X1140Y10650D02*X1190Y10700D01*
X1040Y10650D02*X1140D01*
X990Y10750D02*X1190Y10950D01*
X1310Y10850D02*X1510D01*
X1630Y11000D02*X1680Y11050D01*
X1830D01*
X1880Y11000D01*
Y10900D01*
X1630Y10650D02*X1880Y10900D01*
X1630Y10650D02*X1880D01*
X2000Y10850D02*X2200Y11050D01*
X2000Y10850D02*X2250D01*
X2200Y11050D02*Y10650D01*
X2370Y10700D02*X2420Y10650D01*
X2370Y11000D02*Y10700D01*
Y11000D02*X2420Y11050D01*
X2520D01*
X2570Y11000D01*
Y10700D01*
X2520Y10650D02*X2570Y10700D01*
X2420Y10650D02*X2520D01*
X2370Y10750D02*X2570Y10950D01*
X2690Y10700D02*X2740Y10650D01*
X2690Y11000D02*Y10700D01*
Y11000D02*X2740Y11050D01*
X2840D01*
X2890Y11000D01*
Y10700D01*
X2840Y10650D02*X2890Y10700D01*
X2740Y10650D02*X2840D01*
X2690Y10750D02*X2890Y10950D01*
X3010Y11050D02*Y10650D01*
Y11050D02*X3160Y10900D01*
X3310Y11050D01*
Y10650D01*
X3430Y11050D02*Y10650D01*
X3680Y11050D02*Y10650D01*
X3430Y10850D02*X3680D01*
X3801D02*X4001D01*
X3801Y10650D02*X4001Y10850D01*
X3801Y10650D02*X4001D01*
X4301Y11050D02*X4501D01*
X4551Y11000D01*
Y10900D01*
X4501Y10850D02*X4551Y10900D01*
X4351Y10850D02*X4501D01*
X4351Y11050D02*Y10650D01*
Y10850D02*X4551Y10650D01*
X4721D02*X4871D01*
X4671Y10700D02*X4721Y10650D01*
X4671Y10800D02*Y10700D01*
Y10800D02*X4721Y10850D01*
X4821D01*
X4871Y10800D01*
X4671Y10750D02*X4871D01*
Y10800D02*Y10750D01*
X5041Y10850D02*X5191D01*
X4991Y10800D02*X5041Y10850D01*
X4991Y10800D02*Y10700D01*
X5041Y10650D01*
X5191D01*
X5361D02*X5511D01*
X5311Y10700D02*X5361Y10650D01*
X5311Y10800D02*Y10700D01*
Y10800D02*X5361Y10850D01*
X5461D01*
X5511Y10800D01*
X5311Y10750D02*X5511D01*
Y10800D02*Y10750D01*
X5631Y10950D02*Y10900D01*
Y10800D02*Y10650D01*
X5731Y10850D02*Y10750D01*
X5831Y10650D01*
X5931Y10750D01*
Y10850D02*Y10750D01*
X6101Y10650D02*X6251D01*
X6051Y10700D02*X6101Y10650D01*
X6051Y10800D02*Y10700D01*
Y10800D02*X6101Y10850D01*
X6201D01*
X6251Y10800D01*
X6051Y10750D02*X6251D01*
Y10800D02*Y10750D01*
X6421Y10800D02*Y10650D01*
Y10800D02*X6471Y10850D01*
X6571D01*
X6371D02*X6421Y10800D01*
G04 Text: Rev 2.0 *
X400Y9650D02*X600D01*
X650Y9600D01*
Y9500D01*
X600Y9450D02*X650Y9500D01*
X450Y9450D02*X600D01*
X450Y9650D02*Y9250D01*
Y9450D02*X650Y9250D01*
X820D02*X970D01*
X770Y9300D02*X820Y9250D01*
X770Y9400D02*Y9300D01*
Y9400D02*X820Y9450D01*
X920D01*
X970Y9400D01*
X770Y9350D02*X970D01*
Y9400D02*Y9350D01*
X1090Y9450D02*Y9350D01*
X1190Y9250D01*
X1290Y9350D01*
Y9450D02*Y9350D01*
X1590Y9600D02*X1640Y9650D01*
X1790D01*
X1840Y9600D01*
Y9500D01*
X1590Y9250D02*X1840Y9500D01*
X1590Y9250D02*X1840D01*
X1960D02*X2010D01*
X2130Y9300D02*X2180Y9250D01*
X2130Y9600D02*Y9300D01*
Y9600D02*X2180Y9650D01*
X2280D01*
X2330Y9600D01*
Y9300D01*
X2280Y9250D02*X2330Y9300D01*
X2180Y9250D02*X2280D01*
X2130Y9350D02*X2330Y9550D01*
G04 Text: (c) 2005 Ettus Research LLC *
X400Y8650D02*X450Y8600D01*
X400Y8950D02*X450Y9000D01*
X400Y8950D02*Y8650D01*
X620Y8800D02*X770D01*
X570Y8750D02*X620Y8800D01*
X570Y8750D02*Y8650D01*
X620Y8600D01*
X770D01*
X890Y9000D02*X940Y8950D01*
Y8650D01*
X890Y8600D02*X940Y8650D01*
X1240Y8950D02*X1290Y9000D01*
X1440D01*
X1490Y8950D01*
Y8850D01*
X1240Y8600D02*X1490Y8850D01*
X1240Y8600D02*X1490D01*
X1610Y8650D02*X1660Y8600D01*
X1610Y8950D02*Y8650D01*
Y8950D02*X1660Y9000D01*
X1760D01*
X1810Y8950D01*
Y8650D01*
X1760Y8600D02*X1810Y8650D01*
X1660Y8600D02*X1760D01*
X1610Y8700D02*X1810Y8900D01*
X1930Y8650D02*X1980Y8600D01*
X1930Y8950D02*Y8650D01*
Y8950D02*X1980Y9000D01*
X2080D01*
X2130Y8950D01*
Y8650D01*
X2080Y8600D02*X2130Y8650D01*
X1980Y8600D02*X2080D01*
X1930Y8700D02*X2130Y8900D01*
X2250Y9000D02*X2450D01*
X2250D02*Y8800D01*
X2300Y8850D01*
X2400D01*
X2450Y8800D01*
Y8650D01*
X2400Y8600D02*X2450Y8650D01*
X2300Y8600D02*X2400D01*
X2250Y8650D02*X2300Y8600D01*
X2750Y8800D02*X2900D01*
X2750Y8600D02*X2950D01*
X2750Y9000D02*Y8600D01*
Y9000D02*X2950D01*
X3120D02*Y8650D01*
X3170Y8600D01*
X3070Y8850D02*X3170D01*
X3320Y9000D02*Y8650D01*
X3370Y8600D01*
X3270Y8850D02*X3370D01*
X3471Y8800D02*Y8650D01*
X3521Y8600D01*
X3621D01*
X3671Y8650D01*
Y8800D02*Y8650D01*
X3841Y8600D02*X3991D01*
X4041Y8650D01*
X3991Y8700D02*X4041Y8650D01*
X3841Y8700D02*X3991D01*
X3791Y8750D02*X3841Y8700D01*
X3791Y8750D02*X3841Y8800D01*
X3991D01*
X4041Y8750D01*
X3791Y8650D02*X3841Y8600D01*
X4341Y9000D02*X4541D01*
X4591Y8950D01*
Y8850D01*
X4541Y8800D02*X4591Y8850D01*
X4391Y8800D02*X4541D01*
X4391Y9000D02*Y8600D01*
Y8800D02*X4591Y8600D01*
X4761D02*X4911D01*
X4711Y8650D02*X4761Y8600D01*
X4711Y8750D02*Y8650D01*
Y8750D02*X4761Y8800D01*
X4861D01*
X4911Y8750D01*
X4711Y8700D02*X4911D01*
Y8750D02*Y8700D01*
X5081Y8600D02*X5231D01*
X5281Y8650D01*
X5231Y8700D02*X5281Y8650D01*
X5081Y8700D02*X5231D01*
X5031Y8750D02*X5081Y8700D01*
X5031Y8750D02*X5081Y8800D01*
X5231D01*
X5281Y8750D01*
X5031Y8650D02*X5081Y8600D01*
X5451D02*X5601D01*
X5401Y8650D02*X5451Y8600D01*
X5401Y8750D02*Y8650D01*
Y8750D02*X5451Y8800D01*
X5551D01*
X5601Y8750D01*
X5401Y8700D02*X5601D01*
Y8750D02*Y8700D01*
X5871Y8800D02*X5921Y8750D01*
X5771Y8800D02*X5871D01*
X5721Y8750D02*X5771Y8800D01*
X5721Y8750D02*Y8650D01*
X5771Y8600D01*
X5921Y8800D02*Y8650D01*
X5971Y8600D01*
X5771D02*X5871D01*
X5921Y8650D01*
X6141Y8750D02*Y8600D01*
Y8750D02*X6191Y8800D01*
X6291D01*
X6091D02*X6141Y8750D01*
X6461Y8800D02*X6611D01*
X6411Y8750D02*X6461Y8800D01*
X6411Y8750D02*Y8650D01*
X6461Y8600D01*
X6611D01*
X6731Y9000D02*Y8600D01*
Y8750D02*X6781Y8800D01*
X6881D01*
X6931Y8750D01*
Y8600D01*
X7232Y9000D02*Y8600D01*
X7432D01*
X7552Y9000D02*Y8600D01*
X7752D01*
X7922D02*X8072D01*
X7872Y8650D02*X7922Y8600D01*
X7872Y8950D02*Y8650D01*
Y8950D02*X7922Y9000D01*
X8072D01*
G04 Text: DBSRX *
X450Y10300D02*Y9900D01*
X600Y10300D02*X650Y10250D01*
Y9950D01*
X600Y9900D02*X650Y9950D01*
X400Y9900D02*X600D01*
X400Y10300D02*X600D01*
X770Y9900D02*X970D01*
X1020Y9950D01*
Y10050D02*Y9950D01*
X970Y10100D02*X1020Y10050D01*
X820Y10100D02*X970D01*
X820Y10300D02*Y9900D01*
X770Y10300D02*X970D01*
X1020Y10250D01*
Y10150D01*
X970Y10100D02*X1020Y10150D01*
X1340Y10300D02*X1390Y10250D01*
X1190Y10300D02*X1340D01*
X1140Y10250D02*X1190Y10300D01*
X1140Y10250D02*Y10150D01*
X1190Y10100D01*
X1340D01*
X1390Y10050D01*
Y9950D01*
X1340Y9900D02*X1390Y9950D01*
X1190Y9900D02*X1340D01*
X1140Y9950D02*X1190Y9900D01*
X1510Y10300D02*X1710D01*
X1760Y10250D01*
Y10150D01*
X1710Y10100D02*X1760Y10150D01*
X1560Y10100D02*X1710D01*
X1560Y10300D02*Y9900D01*
Y10100D02*X1760Y9900D01*
X1880Y10300D02*Y10250D01*
X2130Y10000D01*
Y9900D01*
X1880Y10000D02*Y9900D01*
Y10000D02*X2130Y10250D01*
Y10300D02*Y10250D01*
G04 Text: GND *
X13400Y24750D02*X13450Y24700D01*
X13250Y24750D02*X13400D01*
X13200Y24700D02*X13250Y24750D01*
X13200Y24700D02*Y24400D01*
X13250Y24350D01*
X13400D01*
X13450Y24400D01*
Y24500D02*Y24400D01*
X13400Y24550D02*X13450Y24500D01*
X13300Y24550D02*X13400D01*
X13570Y24750D02*Y24350D01*
Y24750D02*Y24700D01*
X13820Y24450D01*
Y24750D02*Y24350D01*
X13990Y24750D02*Y24350D01*
X14140Y24750D02*X14190Y24700D01*
Y24400D01*
X14140Y24350D02*X14190Y24400D01*
X13940Y24350D02*X14140D01*
X13940Y24750D02*X14140D01*
G04 Text: io_rx[0] *
X16910Y21812D02*Y21773D01*
Y21695D02*Y21578D01*
X16988Y21695D02*Y21617D01*
Y21695D02*X17027Y21734D01*
X17105D01*
X17144Y21695D01*
Y21617D01*
X17105Y21578D02*X17144Y21617D01*
X17027Y21578D02*X17105D01*
X16988Y21617D02*X17027Y21578D01*
X17237D02*X17393D01*
X17526Y21695D02*Y21578D01*
Y21695D02*X17565Y21734D01*
X17643D01*
X17487D02*X17526Y21695D01*
X17737Y21734D02*X17893Y21578D01*
X17737D02*X17893Y21734D01*
X17986Y21890D02*X18025D01*
X17986D02*Y21578D01*
X18025D01*
X18119Y21617D02*X18158Y21578D01*
X18119Y21851D02*Y21617D01*
Y21851D02*X18158Y21890D01*
X18236D01*
X18275Y21851D01*
Y21617D01*
X18236Y21578D02*X18275Y21617D01*
X18158Y21578D02*X18236D01*
X18119Y21656D02*X18275Y21812D01*
X18369Y21890D02*X18408D01*
Y21578D01*
X18369D02*X18408D01*
G04 Text: io_rx[8] *
X7748Y20320D02*X7787D01*
X7865D02*X7982D01*
X7865Y20398D02*X7943D01*
X7865D02*X7826Y20437D01*
Y20515D02*Y20437D01*
Y20515D02*X7865Y20554D01*
X7943D01*
X7982Y20515D02*X7943Y20554D01*
X7982Y20515D02*Y20437D01*
X7943Y20398D02*X7982Y20437D01*
Y20803D02*Y20647D01*
X7865Y20936D02*X7982D01*
X7865D02*X7826Y20975D01*
Y21053D02*Y20975D01*
Y20897D02*X7865Y20936D01*
X7826Y21147D02*X7982Y21303D01*
Y21147D02*X7826Y21303D01*
X7670Y21435D02*Y21396D01*
X7982D01*
Y21435D02*Y21396D01*
X7943Y21529D02*X7982Y21568D01*
X7865Y21529D02*X7943D01*
X7865D02*X7826Y21568D01*
Y21646D02*Y21568D01*
Y21646D02*X7865Y21685D01*
X7943D01*
X7982Y21646D02*X7943Y21685D01*
X7982Y21646D02*Y21568D01*
X7787Y21529D02*X7826Y21568D01*
X7709Y21529D02*X7787D01*
X7709D02*X7670Y21568D01*
Y21646D02*Y21568D01*
Y21646D02*X7709Y21685D01*
X7787D01*
X7826Y21646D02*X7787Y21685D01*
X7670Y21818D02*Y21779D01*
Y21818D02*X7982D01*
Y21779D01*
G04 Text: GND *
X8450Y2450D02*X8500Y2400D01*
X8300Y2450D02*X8450D01*
X8250Y2400D02*X8300Y2450D01*
X8250Y2400D02*Y2100D01*
X8300Y2050D01*
X8450D01*
X8500Y2100D01*
Y2200D02*Y2100D01*
X8450Y2250D02*X8500Y2200D01*
X8350Y2250D02*X8450D01*
X8620Y2450D02*Y2050D01*
Y2450D02*Y2400D01*
X8870Y2150D01*
Y2450D02*Y2050D01*
X9040Y2450D02*Y2050D01*
X9190Y2450D02*X9240Y2400D01*
Y2100D01*
X9190Y2050D02*X9240Y2100D01*
X8990Y2050D02*X9190D01*
X8990Y2450D02*X9190D01*
G04 Text: SILK *
X21200Y24050D02*X21250Y24000D01*
X21050Y24050D02*X21200D01*
X21000Y24000D02*X21050Y24050D01*
X21000Y24000D02*Y23900D01*
X21050Y23850D01*
X21200D01*
X21250Y23800D01*
Y23700D01*
X21200Y23650D02*X21250Y23700D01*
X21050Y23650D02*X21200D01*
X21000Y23700D02*X21050Y23650D01*
X21370Y24050D02*X21470D01*
X21420D02*Y23650D01*
X21370D02*X21470D01*
X21590Y24050D02*Y23650D01*
X21790D01*
X21910Y24050D02*Y23650D01*
Y23850D02*X22110Y24050D01*
X21910Y23850D02*X22110Y23650D01*
G04 Text: io_rx[15] *
X778Y20060D02*X817D01*
X895D02*X1012D01*
X895Y20138D02*X973D01*
X895D02*X856Y20177D01*
Y20255D02*Y20177D01*
Y20255D02*X895Y20294D01*
X973D01*
X1012Y20255D02*X973Y20294D01*
X1012Y20255D02*Y20177D01*
X973Y20138D02*X1012Y20177D01*
Y20543D02*Y20387D01*
X895Y20676D02*X1012D01*
X895D02*X856Y20715D01*
Y20793D02*Y20715D01*
Y20637D02*X895Y20676D01*
X856Y20887D02*X1012Y21043D01*
Y20887D02*X856Y21043D01*
X700Y21175D02*Y21136D01*
X1012D01*
Y21175D02*Y21136D01*
Y21386D02*Y21308D01*
X700Y21347D02*X1012D01*
X778Y21269D02*X700Y21347D01*
Y21636D02*Y21480D01*
X856D01*
X817Y21519D01*
Y21597D02*Y21519D01*
Y21597D02*X856Y21636D01*
X973D01*
X1012Y21597D02*X973Y21636D01*
X1012Y21597D02*Y21519D01*
X973Y21480D02*X1012Y21519D01*
X700Y21768D02*Y21729D01*
Y21768D02*X1012D01*
Y21729D01*
G04 Text: + *
X9050Y3250D02*X9250D01*
X9150Y3350D02*Y3150D01*
G04 Text: 500mA MAX *
X4750Y2250D02*X4950D01*
X4750D02*Y2050D01*
X4800Y2100D01*
X4900D01*
X4950Y2050D01*
Y1900D01*
X4900Y1850D02*X4950Y1900D01*
X4800Y1850D02*X4900D01*
X4750Y1900D02*X4800Y1850D01*
X5070Y1900D02*X5120Y1850D01*
X5070Y2200D02*Y1900D01*
Y2200D02*X5120Y2250D01*
X5220D01*
X5270Y2200D01*
Y1900D01*
X5220Y1850D02*X5270Y1900D01*
X5120Y1850D02*X5220D01*
X5070Y1950D02*X5270Y2150D01*
X5390Y1900D02*X5440Y1850D01*
X5390Y2200D02*Y1900D01*
Y2200D02*X5440Y2250D01*
X5540D01*
X5590Y2200D01*
Y1900D01*
X5540Y1850D02*X5590Y1900D01*
X5440Y1850D02*X5540D01*
X5390Y1950D02*X5590Y2150D01*
X5760Y2000D02*Y1850D01*
Y2000D02*X5810Y2050D01*
X5860D01*
X5910Y2000D01*
Y1850D01*
Y2000D02*X5960Y2050D01*
X6010D01*
X6060Y2000D01*
Y1850D01*
X5710Y2050D02*X5760Y2000D01*
X6180Y2200D02*Y1850D01*
Y2200D02*X6230Y2250D01*
X6380D01*
X6430Y2200D01*
Y1850D01*
X6180Y2050D02*X6430D01*
X6730Y2250D02*Y1850D01*
Y2250D02*X6880Y2100D01*
X7030Y2250D01*
Y1850D01*
X7150Y2200D02*Y1850D01*
Y2200D02*X7200Y2250D01*
X7350D01*
X7400Y2200D01*
Y1850D01*
X7150Y2050D02*X7400D01*
X7520Y2250D02*Y2200D01*
X7770Y1950D01*
Y1850D01*
X7520Y1950D02*Y1850D01*
Y1950D02*X7770Y2200D01*
Y2250D02*Y2200D01*
G04 Text: GND *
X4100Y24850D02*X4150Y24800D01*
X3950Y24850D02*X4100D01*
X3900Y24800D02*X3950Y24850D01*
X3900Y24800D02*Y24500D01*
X3950Y24450D01*
X4100D01*
X4150Y24500D01*
Y24600D02*Y24500D01*
X4100Y24650D02*X4150Y24600D01*
X4000Y24650D02*X4100D01*
X4270Y24850D02*Y24450D01*
Y24850D02*Y24800D01*
X4520Y24550D01*
Y24850D02*Y24450D01*
X4690Y24850D02*Y24450D01*
X4840Y24850D02*X4890Y24800D01*
Y24500D01*
X4840Y24450D02*X4890Y24500D01*
X4640Y24450D02*X4840D01*
X4640Y24850D02*X4840D01*
G04 Text: io_rx[7] *
X10358Y20390D02*X10397D01*
X10475D02*X10592D01*
X10475Y20468D02*X10553D01*
X10475D02*X10436Y20507D01*
Y20585D02*Y20507D01*
Y20585D02*X10475Y20624D01*
X10553D01*
X10592Y20585D02*X10553Y20624D01*
X10592Y20585D02*Y20507D01*
X10553Y20468D02*X10592Y20507D01*
Y20873D02*Y20717D01*
X10475Y21006D02*X10592D01*
X10475D02*X10436Y21045D01*
Y21123D02*Y21045D01*
Y20967D02*X10475Y21006D01*
X10436Y21217D02*X10592Y21373D01*
Y21217D02*X10436Y21373D01*
X10280Y21505D02*Y21466D01*
X10592D01*
Y21505D02*Y21466D01*
Y21599D02*X10397Y21794D01*
X10280D02*X10397D01*
X10280D02*Y21599D01*
Y21927D02*Y21888D01*
Y21927D02*X10592D01*
Y21888D01*
G04 Text: Antenna Bias *
X4400Y2850D02*Y2500D01*
Y2850D02*X4450Y2900D01*
X4600D01*
X4650Y2850D01*
Y2500D01*
X4400Y2700D02*X4650D01*
X4820Y2650D02*Y2500D01*
Y2650D02*X4870Y2700D01*
X4920D01*
X4970Y2650D01*
Y2500D01*
X4770Y2700D02*X4820Y2650D01*
X5140Y2900D02*Y2550D01*
X5190Y2500D01*
X5090Y2750D02*X5190D01*
X5340Y2500D02*X5490D01*
X5290Y2550D02*X5340Y2500D01*
X5290Y2650D02*Y2550D01*
Y2650D02*X5340Y2700D01*
X5440D01*
X5490Y2650D01*
X5290Y2600D02*X5490D01*
Y2650D02*Y2600D01*
X5660Y2650D02*Y2500D01*
Y2650D02*X5710Y2700D01*
X5760D01*
X5810Y2650D01*
Y2500D01*
X5610Y2700D02*X5660Y2650D01*
X5980D02*Y2500D01*
Y2650D02*X6030Y2700D01*
X6080D01*
X6130Y2650D01*
Y2500D01*
X5930Y2700D02*X5980Y2650D01*
X6400Y2700D02*X6450Y2650D01*
X6300Y2700D02*X6400D01*
X6250Y2650D02*X6300Y2700D01*
X6250Y2650D02*Y2550D01*
X6300Y2500D01*
X6450Y2700D02*Y2550D01*
X6500Y2500D01*
X6300D02*X6400D01*
X6450Y2550D01*
X6800Y2500D02*X7000D01*
X7050Y2550D01*
Y2650D02*Y2550D01*
X7000Y2700D02*X7050Y2650D01*
X6850Y2700D02*X7000D01*
X6850Y2900D02*Y2500D01*
X6800Y2900D02*X7000D01*
X7050Y2850D01*
Y2750D01*
X7000Y2700D02*X7050Y2750D01*
X7170Y2800D02*Y2750D01*
Y2650D02*Y2500D01*
X7420Y2700D02*X7470Y2650D01*
X7320Y2700D02*X7420D01*
X7270Y2650D02*X7320Y2700D01*
X7270Y2650D02*Y2550D01*
X7320Y2500D01*
X7470Y2700D02*Y2550D01*
X7520Y2500D01*
X7320D02*X7420D01*
X7470Y2550D01*
X7691Y2500D02*X7841D01*
X7891Y2550D01*
X7841Y2600D02*X7891Y2550D01*
X7691Y2600D02*X7841D01*
X7641Y2650D02*X7691Y2600D01*
X7641Y2650D02*X7691Y2700D01*
X7841D01*
X7891Y2650D01*
X7641Y2550D02*X7691Y2500D01*
%LNCUTS*%
%LPC*%
G54D24*X19760Y19040D02*X19940D01*
X19760Y18560D02*X19940D01*
X20960D02*X21140D01*
X20960Y19040D02*X21140D01*
X21560D02*X21740D01*
X21560Y18560D02*X21740D01*
X20360D02*X20540D01*
X20360Y19040D02*X20540D01*
X13110Y8240D02*Y8060D01*
X17210Y5940D02*Y5760D01*
X17690Y5940D02*Y5760D01*
X17040Y7540D02*Y7360D01*
X15810Y18560D02*X15990D01*
G54D51*X24350Y18050D02*X25000D01*
X24350Y18550D02*X25000D01*
X24350Y19050D02*X25000D01*
X24350Y19550D02*X25000D01*
X22300Y18550D02*X22950D01*
G54D24*X24560Y17290D02*X24740D01*
X24560Y16810D02*X24740D01*
G54D51*X18550Y18050D02*X19200D01*
X18550Y18550D02*X19200D01*
X18550Y19050D02*X19200D01*
X18550Y19550D02*X19200D01*
G54D24*X15210Y18560D02*X15390D01*
X17160Y17140D02*X17340D01*
X18010D02*X18190D01*
X18010Y16660D02*X18190D01*
M02*
