G04 Title: RX Daughterboard, layergroup #4 *
G04 Creator: pcb-bin 1.99q *
G04 CreationDate: Thu Apr 28 23:14:29 2005 UTC *
G04 For: matt *
G04 Format: Gerber/RS-274X *
G04 PCB-Dimensions: 275000 250000 *
G04 PCB-Coordinate-Origin: lower left *
%MOIN*%
%FSLAX24Y24*%
G04 contains layers Vcc (2) *
%IPPOS*%
%ADD11C,0.0400*%
%ADD12C,0.0080*%
%ADD13C,0.0239*%
%ADD14C,0.0140*%
%ADD15C,0.0300*%
%ADD16C,0.0600*%
%ADD17C,0.0250*%
%ADD18C,0.0450*%
%ADD19C,0.0140*%
%ADD20C,0.0299*%
%ADD21C,0.0100*%
%ADD22C,0.0110*%
%ADD23C,0.0249*%
%ADD24R,0.0240X0.0240*%
%ADD25R,0.0440X0.0440*%
%ADD26R,0.0300X0.0300*%
%ADD27C,0.0060*%
%ADD28C,0.0080*%
%ADD29C,0.0800*%
%ADD30C,0.0860*%
%ADD31C,0.1100X0.0800*%
%ADD32C,0.1100*%
%ADD33C,0.0110*%
%AMTHERM1*7,0,0,0.1100,0.0800,0.0110,45*%
%ADD34THERM1*%
%ADD35R,0.0970X0.0970*%
%ADD36R,0.1170X0.1170*%
%ADD37R,0.1030X0.1030*%
%ADD38C,0.0200*%
%ADD39R,0.0560X0.0560*%
%ADD40R,0.0860X0.0860*%
%ADD41R,0.0620X0.0620*%
%ADD42R,0.1220X0.1220*%
%ADD43R,0.1520X0.1520*%
%ADD44R,0.1280X0.1280*%
%ADD45R,0.0340X0.0340*%
%ADD46R,0.0640X0.0640*%
%ADD47R,0.0400X0.0400*%
%ADD48R,0.0540X0.0540*%
%ADD49R,0.0480X0.0480*%
%ADD50R,0.0680X0.0680*%
%ADD51R,0.0200X0.0200*%
%ADD52R,0.0500X0.0500*%
%ADD53R,0.0600X0.0600*%
%ADD54R,0.0660X0.0660*%
%ADD55R,0.0900X0.0900X0.0600X0.0600*%
%ADD56R,0.0900X0.0900*%
%ADD57C,0.0600*%
%ADD58C,0.0660*%
%AMTHERM2*7,0,0,0.0900,0.0600,0.0100,45*%
%ADD59THERM2*%
%ADD60C,0.0900X0.0600*%
%ADD61C,0.0900*%
%ADD62R,0.0150X0.0150*%
%ADD63R,0.0450X0.0450*%
%ADD64R,0.0210X0.0210*%
%ADD65C,0.0410*%
%ADD66C,0.0170*%
%ADD67R,0.1610X0.1610*%
%ADD68R,0.1910X0.1910*%
%ADD69R,0.1670X0.1670*%
%ADD70C,0.0720*%
%ADD71C,0.0920X0.0720*%
%ADD72C,0.0920*%
%ADD73C,0.0240*%
%ADD74C,0.0340*%
%ADD75C,0.1320*%
%ADD76C,0.1520*%
%ADD77C,0.1520X0.1320*%
%ADD78C,0.0600*%
%ADD79C,0.0125*%
%AMTHERM3*7,0,0,0.0800,0.0600,0.0125,45*%
%ADD80THERM3*%
%ADD81C,0.0800*%
%ADD82C,0.0800X0.0600*%
%ADD83C,0.0350*%
%ADD84C,0.0100*%
%AMTHERM4*7,0,0,0.0510,0.0350,0.0100,45*%
%ADD85THERM4*%
%ADD86C,0.0510*%
%ADD87C,0.0510X0.0350*%
%ADD88C,0.0360*%
%ADD89C,0.0520*%
%ADD90C,0.0520X0.0360*%
%AMTHERM5*7,0,0,0.0799,0.0600,0.0125,45*%
%ADD91THERM5*%
%ADD92C,0.0799*%
%ADD93C,0.0799X0.0600*%
%ADD94C,0.0090*%
%AMTHERM6*7,0,0,0.0520,0.0360,0.0090,45*%
%ADD95THERM6*%
%ADD96C,0.0310*%
%ADD97C,0.0080*%
%AMTHERM7*7,0,0,0.0469,0.0310,0.0080,45*%
%ADD98THERM7*%
%ADD99C,0.0469*%
%ADD100C,0.0469X0.0310*%
%AMTHERM8*7,0,0,0.0510,0.0350,0.0100,45*%
%ADD101THERM8*%
%ADD102C,0.0510*%
%ADD103C,0.0510X0.0350*%
%LNGROUP_3*%
%LPD*%
G01X0Y0D02*
G54D21*G36*
X16400Y21100D02*X20800D01*
Y17650D01*
X16400D01*
Y21100D01*
G37*
G36*
X14300Y2250D02*X27250D01*
Y10750D01*
X14300D01*
Y2250D01*
G37*
G36*
X14600Y9200D02*X11600D01*
Y5950D01*
X14600D01*
Y9200D01*
G37*
G36*
X20350Y10050D02*X27250D01*
Y22650D01*
X20350D01*
Y10050D01*
G37*
G36*
X17000Y8450D02*X22200D01*
Y17750D01*
X17000D01*
Y8450D01*
G37*
%LNCUTS*%
%LPC*%
G54D89*X19350Y21150D03*
X17050Y20500D03*
X18750Y20000D03*
X21000Y19450D03*
X19450Y20050D03*
G54D13*X21950Y9050D02*X23950D01*
X21700Y8500D02*X21650Y8550D01*
X18810Y8820D02*X18750Y8880D01*
X18800Y9300D01*
X20550Y10450D02*X21950Y9050D01*
G54D18*X17800Y12650D02*X14250Y9100D01*
X13900Y9000D01*
G54D89*X20750Y5850D03*
G54D99*X14550D03*
X14700Y5050D03*
X15450Y4900D03*
G54D89*X18450Y3050D03*
X18500Y4550D03*
X17400Y3650D03*
X20800Y5350D03*
X22350Y5650D03*
X21250Y4850D03*
G54D92*X25350Y10800D03*
G54D89*X22850Y10900D03*
G54D99*X19900Y8100D03*
G54D89*X21700Y8500D03*
X23200Y10000D03*
X20550Y10450D03*
X23950Y9050D03*
X20450Y9100D03*
X23200Y6650D03*
X20850Y7150D03*
G54D99*X19400Y7350D03*
X19350Y7000D03*
X19650Y7150D03*
X19950Y7000D03*
X19900Y7350D03*
X19650Y7550D03*
X19900Y7750D03*
X19600Y7950D03*
G54D89*X15950Y9600D03*
G54D81*X14000Y9100D03*
G54D89*X19550Y9450D03*
X18800D03*
G54D99*Y8100D03*
X19350Y8150D03*
G54D102*X15650Y6000D03*
Y8600D03*
G54D89*X18050Y6250D03*
G54D99*X18800Y7400D03*
Y7050D03*
X19100Y7200D03*
X18800Y7750D03*
X19100Y7550D03*
Y7950D03*
X19350Y7750D03*
G54D89*X17550Y8300D03*
G54D99*X15050Y6100D03*
G54D89*X16850Y6900D03*
X17250Y6350D03*
G54D99*X14100Y6500D03*
X14700Y6600D03*
X15150Y6500D03*
G54D18*X17800Y12650D02*X14250Y9100D01*
X13900Y9000D01*
G54D99*X14550Y5850D03*
G54D89*X12700Y8800D03*
Y8250D03*
G54D81*X14000Y9100D03*
G54D99*X12300Y7550D03*
X11850Y8950D03*
X12200Y8450D03*
X14100Y6500D03*
X14700Y6600D03*
X12950Y7550D03*
G54D32*X11400Y7900D03*
Y5900D03*
G54D16*X16193Y11850D02*X20243Y15900D01*
X22150D01*
X23450Y17200D01*
X23600D01*
G54D13*X20550Y10450D02*X21950Y9050D01*
G54D92*X25450Y20300D03*
G54D81*X23250Y21000D03*
X24150Y20750D03*
G54D92*X26450Y13300D03*
X22500Y13500D03*
X25350Y10800D03*
G54D81*X23200Y14400D03*
G54D89*X22850Y10900D03*
X21650Y20500D03*
X20100Y16350D03*
X21150Y11350D03*
G54D92*X26800Y20050D03*
G54D89*X24400Y19950D03*
X21000Y19450D03*
G54D92*X23600Y17200D03*
X26400Y15550D03*
G54D89*X23200Y10000D03*
X20550Y10450D03*
G54D16*X16193Y11850D02*X20243Y15900D01*
X22150D01*
X23450Y17200D01*
G54D13*X21950Y9050D02*X23950D01*
X21700Y8500D02*X21650Y8550D01*
X18810Y8820D02*X18750Y8880D01*
X18800Y9300D01*
X20550Y10450D02*X21950Y9050D01*
G54D18*X17800Y12650D02*X14250Y9100D01*
G54D92*X22500Y13500D03*
G54D89*X20100Y16350D03*
X18850Y11050D03*
X18950Y12850D03*
X21150Y11350D03*
X21700Y8500D03*
X20550Y10450D03*
X20450Y9100D03*
G54D81*X17800Y12650D03*
G54D89*X19500Y11100D03*
X19550Y9450D03*
X18800D03*
X17700Y11450D03*
X17550Y8300D03*
%LNTRACKS*%
%LPD*%
G54D12*X21950Y9050D02*X23950D01*
X20550Y10450D02*X21950Y9050D01*
X13900Y12600D02*X14250D01*
X13800Y12700D02*X13900Y12600D01*
X12350Y13050D02*X14050D01*
X13150Y12400D02*X13300D01*
X12850Y12700D02*X13800D01*
X12750D02*X12850D01*
X13300Y12400D02*X13800D01*
X12250Y12950D02*X12350Y13050D01*
X18750Y8880D02*X18800Y9300D01*
X18810Y8820D02*X18750Y8880D01*
X21700Y8500D02*X21650Y8550D01*
G54D11*X23450Y17200D02*X23600D01*
X22150Y15900D02*X23450Y17200D01*
X20243Y15900D02*X22150D01*
X16193Y11850D02*X20243Y15900D01*
X13000Y11850D02*X16193D01*
G54D17*X14250Y9100D02*X13900Y9000D01*
X17800Y12650D02*X14250Y9100D01*
G54D19*X7450Y12700D02*X6450Y13700D01*
X10900Y12700D02*X7450D01*
G54D29*X10400Y6900D03*
X11400Y7900D03*
Y5900D03*
X9400Y7900D03*
Y5900D03*
G54D53*X10450Y22600D03*
G54D57*Y23600D03*
X11450Y22600D03*
Y23600D03*
X12450Y22600D03*
Y23600D03*
X13450Y22600D03*
Y23600D03*
X14450Y22600D03*
Y23600D03*
X15450Y22600D03*
Y23600D03*
X16450Y22600D03*
Y23600D03*
X17450Y22600D03*
Y23600D03*
G54D53*X800Y22600D03*
G54D57*Y23600D03*
X1800Y22600D03*
Y23600D03*
X2800Y22600D03*
Y23600D03*
X3800Y22600D03*
Y23600D03*
X4800Y22600D03*
Y23600D03*
X5800Y22600D03*
Y23600D03*
X6800Y22600D03*
Y23600D03*
X7800Y22600D03*
Y23600D03*
G54D53*X10350Y2500D03*
G54D57*Y1500D03*
G54D78*X16300Y16650D03*
X8800Y13500D03*
Y16100D03*
G54D83*X5850Y14950D03*
X4400Y16500D03*
G54D88*X17700Y11450D03*
G54D83*X5900Y15600D03*
X12750Y12700D03*
X7300Y15950D03*
X10900Y12700D03*
X6450Y13700D03*
X13150Y12400D03*
X4000Y14300D03*
G54D78*X13250Y10500D03*
X22500Y13500D03*
X25350Y10800D03*
X23200Y14400D03*
G54D88*X16850Y6900D03*
X17250Y6350D03*
G54D78*X26800Y20050D03*
X25450Y20300D03*
X23250Y21000D03*
G54D88*X20800Y5350D03*
X21650Y20500D03*
X24400Y19950D03*
X21000Y19450D03*
G54D78*X17800Y12650D03*
X14000Y9100D03*
X17850Y1400D03*
X14500Y1300D03*
G54D88*X19350Y21150D03*
X17050Y20500D03*
X19500Y11100D03*
X12700Y8800D03*
Y8250D03*
X19450Y20050D03*
X19500Y21600D03*
G54D78*X13000Y11850D03*
X23600Y17200D03*
G54D96*X19900Y8100D03*
G54D83*X15650Y6000D03*
Y8600D03*
G54D88*X22350Y5650D03*
X23200Y6650D03*
X18450Y3050D03*
X18500Y4550D03*
X17550Y8300D03*
G54D94*X17368Y8481D02*X17731Y8118D01*
X17368D02*X17731Y8481D01*
G54D88*X21700Y8500D03*
G54D94*X21518Y8681D02*X21881Y8318D01*
X21518D02*X21881Y8681D01*
G54D88*X18750Y20000D03*
G54D94*X18568Y20181D02*X18931Y19818D01*
X18568D02*X18931Y20181D01*
G54D88*X21250Y4850D03*
G54D94*X21068Y5031D02*X21431Y4668D01*
X21068D02*X21431Y5031D01*
G54D88*X17400Y3650D03*
G54D94*X17218Y3831D02*X17581Y3468D01*
X17218D02*X17581Y3831D01*
G54D88*X18050Y6250D03*
G54D94*X17868Y6431D02*X18231Y6068D01*
X17868D02*X18231Y6431D01*
G54D78*X24150Y20750D03*
G54D79*X23870Y21029D02*X24429Y20470D01*
X23870D02*X24429Y21029D01*
G54D78*X26400Y15550D03*
G54D79*X26120Y15829D02*X26679Y15270D01*
X26120D02*X26679Y15829D01*
G54D88*X19550Y9450D03*
G54D94*X19368Y9631D02*X19731Y9268D01*
X19368D02*X19731Y9631D01*
G54D88*X18800Y9450D03*
G54D94*X18618Y9631D02*X18981Y9268D01*
X18618D02*X18981Y9631D01*
G54D78*X26450Y13300D03*
G54D79*X26170Y13579D02*X26729Y13020D01*
X26170D02*X26729Y13579D01*
G54D88*X13900Y17500D03*
X14900Y18250D03*
X20850Y7150D03*
G54D83*X12250Y12950D03*
G54D88*X14100Y13000D03*
X13750Y12350D03*
X14300Y12550D03*
X18850Y11050D03*
X21150Y11350D03*
X23200Y10000D03*
X22850Y10900D03*
X20550Y10450D03*
X23950Y9050D03*
X15950Y11350D03*
Y9600D03*
X20100Y16350D03*
X18950Y12850D03*
X20750Y5850D03*
G54D94*X20568Y6031D02*X20931Y5668D01*
X20568D02*X20931Y6031D01*
G54D88*X20450Y9100D03*
G54D96*X18800Y8100D03*
Y7750D03*
Y7400D03*
Y7050D03*
X19100Y7200D03*
Y7550D03*
Y7950D03*
X19350Y8150D03*
Y7750D03*
X19400Y7350D03*
X19350Y7000D03*
X19650Y7150D03*
X19950Y7000D03*
X19900Y7350D03*
X19650Y7550D03*
X19900Y7750D03*
X19600Y7950D03*
X15050Y6100D03*
X12300Y7550D03*
X11150Y8950D03*
X11850D03*
X12200Y8450D03*
X14100Y6500D03*
X14700Y6600D03*
X15150Y6500D03*
X13650Y5700D03*
X14550Y5850D03*
X14000Y5150D03*
X14700Y5050D03*
X15450Y4900D03*
X12950Y7550D03*
M02*
