G04 Title: RX Daughterboard, solder paste, solder side *
G04 Creator: pcb-bin 1.99q *
G04 CreationDate: Mon Dec 12 23:54:21 2005 UTC *
G04 For: matt *
G04 Format: Gerber/RS-274X *
G04 PCB-Dimensions: 275000 250000 *
G04 PCB-Coordinate-Origin: lower left *
%MOIN*%
%FSLAX24Y24*%
%IPPOS*%
%ADD11C,0.0400*%
%ADD12C,0.0080*%
%ADD13C,0.0239*%
%ADD14C,0.0140*%
%ADD15C,0.0300*%
%ADD16C,0.0600*%
%ADD17C,0.0250*%
%ADD18C,0.0450*%
%ADD19C,0.0140*%
%ADD20C,0.0299*%
%ADD21C,0.0100*%
%ADD22C,0.0110*%
%ADD23C,0.0249*%
%ADD24R,0.0600X0.0600*%
%ADD25R,0.0660X0.0660*%
%ADD26R,0.0900X0.0900X0.0600X0.0600*%
%ADD27R,0.0900X0.0900*%
%ADD28C,0.0600*%
%ADD29C,0.0660*%
%ADD30C,0.0900X0.0600*%
%ADD31C,0.0900*%
%ADD32C,0.0200*%
%ADD33C,0.0080*%
%ADD34R,0.0240X0.0240*%
%ADD35R,0.0440X0.0440*%
%ADD36R,0.0300X0.0300*%
%ADD37C,0.0060*%
%ADD38C,0.0800*%
%ADD39C,0.0860*%
%ADD40C,0.1100X0.0800*%
%ADD41C,0.1100*%
%ADD42C,0.0110*%
%AMTHERM1*7,0,0,0.1100,0.0800,0.0110,45*%
%ADD43THERM1*%
%ADD44R,0.0970X0.0970*%
%ADD45R,0.1170X0.1170*%
%ADD46R,0.1030X0.1030*%
%ADD47R,0.0560X0.0560*%
%ADD48R,0.0860X0.0860*%
%ADD49R,0.0620X0.0620*%
%ADD50R,0.1220X0.1220*%
%ADD51R,0.1520X0.1520*%
%ADD52R,0.1280X0.1280*%
%ADD53R,0.0340X0.0340*%
%ADD54R,0.0640X0.0640*%
%ADD55R,0.0400X0.0400*%
%ADD56R,0.0540X0.0540*%
%ADD57R,0.0480X0.0480*%
%ADD58R,0.0680X0.0680*%
%ADD59R,0.0200X0.0200*%
%ADD60R,0.0500X0.0500*%
%AMTHERM2*7,0,0,0.0900,0.0600,0.0100,45*%
%ADD61THERM2*%
%ADD62R,0.0150X0.0150*%
%ADD63R,0.0450X0.0450*%
%ADD64R,0.0210X0.0210*%
%ADD65C,0.0410*%
%ADD66C,0.0170*%
%ADD67R,0.1610X0.1610*%
%ADD68R,0.1910X0.1910*%
%ADD69R,0.1670X0.1670*%
%ADD70C,0.0720*%
%ADD71C,0.0920X0.0720*%
%ADD72C,0.0920*%
%ADD73C,0.0240*%
%ADD74C,0.0340*%
%ADD75C,0.1320*%
%ADD76C,0.1520*%
%ADD77C,0.1520X0.1320*%
%ADD78C,0.0600*%
%ADD79C,0.0125*%
%AMTHERM3*7,0,0,0.0800,0.0600,0.0125,45*%
%ADD80THERM3*%
%ADD81C,0.0800*%
%ADD82C,0.0800X0.0600*%
%ADD83C,0.0350*%
%ADD84C,0.0100*%
%AMTHERM4*7,0,0,0.0510,0.0350,0.0100,45*%
%ADD85THERM4*%
%ADD86C,0.0510*%
%ADD87C,0.0510X0.0350*%
%ADD88C,0.0360*%
%ADD89C,0.0520*%
%ADD90C,0.0520X0.0360*%
%AMTHERM5*7,0,0,0.0799,0.0600,0.0125,45*%
%ADD91THERM5*%
%ADD92C,0.0799*%
%ADD93C,0.0799X0.0600*%
%ADD94C,0.0090*%
%AMTHERM6*7,0,0,0.0520,0.0360,0.0090,45*%
%ADD95THERM6*%
%ADD96C,0.0310*%
%ADD97C,0.0080*%
%AMTHERM7*7,0,0,0.0469,0.0310,0.0080,45*%
%ADD98THERM7*%
%ADD99C,0.0469*%
%ADD100C,0.0469X0.0310*%
%AMTHERM8*7,0,0,0.0510,0.0350,0.0100,45*%
%ADD101THERM8*%
%ADD102C,0.0510*%
%ADD103C,0.0510X0.0350*%
%LNGROUP_3*%
%LPD*%
G01X0Y0D02*
G54D34*X15960Y17910D02*X16140D01*
X15960Y18390D02*X16140D01*
X15360Y16910D02*X15540D01*
X15360Y17390D02*X15540D01*
X23260Y15140D02*Y14960D01*
X23740Y15140D02*Y14960D01*
X11710Y11160D02*X11890D01*
X11710Y11640D02*X11890D01*
G54D44*X25710Y17010D02*X26490D01*
X25710Y18890D02*X26490D01*
G54D47*X24570Y14770D02*Y14110D01*
X25470Y14770D02*Y14110D01*
X26380Y14770D02*Y14110D01*
G54D50*X25020Y12000D02*X25920D01*
G54D34*X17260Y6760D02*X17440D01*
X17260Y7240D02*X17440D01*
X9360Y12690D02*Y12510D01*
X9840Y12690D02*Y12510D01*
G54D57*X23470Y16230D02*Y15870D01*
X24430Y16230D02*Y15870D01*
G54D34*X19410Y10690D02*X19590D01*
X19410Y10210D02*X19590D01*
X15960Y17490D02*Y17310D01*
X16440Y17490D02*Y17310D01*
X19260Y11910D02*X19440D01*
X19260Y12390D02*X19440D01*
G54D59*X4410Y14450D02*X4690D01*
X4410Y14950D02*X4690D01*
X4410Y15450D02*X4690D01*
X4410Y15950D02*X4690D01*
X6450D02*X6730D01*
X6450Y15450D02*X6730D01*
X6450Y14950D02*X6730D01*
X6450Y14450D02*X6730D01*
G54D34*X20940Y16840D02*Y16660D01*
X20460Y16840D02*Y16660D01*
X21360Y17740D02*X21540D01*
X21360Y17260D02*X21540D01*
X21360Y16840D02*Y16660D01*
X21840Y16840D02*Y16660D01*
X15360Y18290D02*X15540D01*
X15360Y17810D02*X15540D01*
X18710Y17740D02*X18890D01*
X18710Y17260D02*X18890D01*
X11340Y4940D02*Y4760D01*
X10860Y4940D02*Y4760D01*
X10310Y5610D02*X10490D01*
X10310Y6090D02*X10490D01*
G54D57*X9920Y11830D02*Y11470D01*
X10880Y11830D02*Y11470D01*
G54D34*X19310Y16840D02*Y16660D01*
X19790Y16840D02*Y16660D01*
G54D73*X9499Y14428D02*Y13518D01*
X21704Y15881D02*Y14971D01*
X10286Y14428D02*Y13518D01*
X9893Y14428D02*Y13518D01*
X10680Y14428D02*Y13518D01*
X9499Y15881D02*Y14971D01*
X11074Y14428D02*Y13518D01*
X10286Y15881D02*Y14971D01*
X11467Y14428D02*Y13518D01*
X10680Y15881D02*Y14971D01*
X11861Y14428D02*Y13518D01*
X11074Y15881D02*Y14971D01*
X12255Y14428D02*Y13518D01*
X11467Y15881D02*Y14971D01*
X12648Y14428D02*Y13518D01*
X11861Y15881D02*Y14971D01*
X13042Y14428D02*Y13518D01*
X12255Y15881D02*Y14971D01*
X13436Y14428D02*Y13518D01*
X12648Y15881D02*Y14971D01*
X13042Y15881D02*Y14971D01*
X13436Y15881D02*Y14971D01*
X13830Y15881D02*Y14971D01*
X14223Y15881D02*Y14971D01*
X14617Y15881D02*Y14971D01*
X15011Y15881D02*Y14971D01*
X15404Y15881D02*Y14971D01*
X15798Y15881D02*Y14971D01*
X16192Y15881D02*Y14971D01*
X16585Y15881D02*Y14971D01*
X16979Y15881D02*Y14971D01*
X17373Y15881D02*Y14971D01*
X17767Y15881D02*Y14971D01*
X18160Y15881D02*Y14971D01*
X18554Y15881D02*Y14971D01*
X19341Y15881D02*Y14971D01*
X18948Y15881D02*Y14971D01*
X19735Y15881D02*Y14971D01*
X20129Y15881D02*Y14971D01*
X20522Y15881D02*Y14971D01*
X20916Y15881D02*Y14971D01*
X9893Y15881D02*Y14971D01*
X13830Y14428D02*Y13518D01*
X14223Y14428D02*Y13518D01*
X14617Y14428D02*Y13518D01*
X15011Y14428D02*Y13518D01*
X15404Y14428D02*Y13518D01*
X15798Y14428D02*Y13518D01*
X16192Y14428D02*Y13518D01*
X16585Y14428D02*Y13518D01*
X16979Y14428D02*Y13518D01*
X17373Y14428D02*Y13518D01*
X17767Y14428D02*Y13518D01*
X18160Y14428D02*Y13518D01*
X18554Y14428D02*Y13518D01*
X18948Y14428D02*Y13518D01*
X19341Y14428D02*Y13518D01*
X19735Y14428D02*Y13518D01*
X20129Y14428D02*Y13518D01*
X20522Y14428D02*Y13518D01*
X20916Y14428D02*Y13518D01*
X21310Y14428D02*Y13518D01*
X21704Y14428D02*Y13518D01*
X21310Y15881D02*Y14971D01*
G54D34*X19310Y17740D02*X19490D01*
X19310Y17260D02*X19490D01*
X20760Y17740D02*X20940D01*
X20760Y17260D02*X20940D01*
X18890Y16840D02*Y16660D01*
X18410Y16840D02*Y16660D01*
M02*
