M48
INCH,TZ
T01C0.015
T02C0.018
T03C0.035
T04C0.040
T05C0.058
T06C0.128
%
T01
X005850Y014950
X004400Y016500
X005900Y015600
X012750Y012700
X007300Y015950
X010900Y012700
X006450Y013700
X013150Y012400
X004000Y014300
X019900Y008100
X015650Y006000
X015650Y008600
X012250Y012950
X018800Y008100
X018800Y007750
X018800Y007400
X018800Y007050
X019100Y007200
X019100Y007550
X019100Y007950
X019350Y008150
X019350Y007750
X019400Y007350
X019350Y007000
X019650Y007150
X019950Y007000
X019900Y007350
X019650Y007550
X019900Y007750
X019600Y007950
X015050Y006100
X012300Y007550
X011150Y008950
X011850Y008950
X012200Y008450
X014100Y006500
X014700Y006600
X015150Y006500
X013650Y005700
X014550Y005850
X014000Y005150
X014700Y005050
X015450Y004900
X012950Y007550
T02
X017700Y011450
X016850Y006900
X017250Y006350
X020800Y005350
X021650Y020500
X024400Y019950
X021000Y019450
X019350Y021150
X017050Y020500
X019500Y011100
X012700Y008800
X012700Y008250
X019450Y020050
X019500Y021600
X022350Y005650
X023200Y006650
X018450Y003050
X018500Y004550
X017550Y008300
X021700Y008500
X018750Y020000
X021250Y004850
X017400Y003650
X018050Y006250
X019550Y009450
X018800Y009450
X013900Y017500
X014900Y018250
X020850Y007150
X014100Y013000
X013750Y012350
X014300Y012550
X018850Y011050
X021150Y011350
X023200Y010000
X022850Y010900
X020550Y010450
X023950Y009050
X015950Y011350
X015950Y009600
X020100Y016350
X018950Y012850
X020750Y005850
X020450Y009100
X011500Y012650
X015600Y019750
T03
X016300Y016650
X008800Y013500
X008800Y016100
X013250Y010500
X022500Y013500
X025350Y010800
X023200Y014400
X026800Y020050
X025450Y020300
X023250Y021000
X017800Y012650
X014000Y009100
X017850Y001400
X014500Y001300
X013000Y011850
X023600Y017200
X024150Y020750
X026400Y015550
X026450Y013300
X014750Y004200
T04
X011650Y002500
X011650Y001500
X010450Y022600
X010450Y023600
X011450Y022600
X011450Y023600
X012450Y022600
X012450Y023600
X013450Y022600
X013450Y023600
X014450Y022600
X014450Y023600
X015450Y022600
X015450Y023600
X016450Y022600
X016450Y023600
X017450Y022600
X017450Y023600
X000800Y022600
X000800Y023600
X001800Y022600
X001800Y023600
X002800Y022600
X002800Y023600
X003800Y022600
X003800Y023600
X004800Y022600
X004800Y023600
X005800Y022600
X005800Y023600
X006800Y022600
X006800Y023600
X007800Y022600
X007800Y023600
X010350Y002500
X010350Y001500
T05
X010400Y006900
X011400Y007900
X011400Y005900
X009400Y007900
X009400Y005900
M30
