G04 Title: RX Daughterboard, layergroup #2 *
G04 Creator: pcb-bin 1.99q *
G04 CreationDate: Mon Dec 12 23:54:21 2005 UTC *
G04 For: matt *
G04 Format: Gerber/RS-274X *
G04 PCB-Dimensions: 275000 250000 *
G04 PCB-Coordinate-Origin: lower left *
%MOIN*%
%FSLAX24Y24*%
G04 contains layers component (3) *
%IPPOS*%
%ADD11C,0.0400*%
%ADD12C,0.0080*%
%ADD13C,0.0239*%
%ADD14C,0.0140*%
%ADD15C,0.0300*%
%ADD16C,0.0600*%
%ADD17C,0.0250*%
%ADD18C,0.0450*%
%ADD19C,0.0140*%
%ADD20C,0.0299*%
%ADD21C,0.0100*%
%ADD22C,0.0110*%
%ADD23C,0.0249*%
%ADD24R,0.0600X0.0600*%
%ADD25R,0.0660X0.0660*%
%ADD26R,0.0900X0.0900X0.0600X0.0600*%
%ADD27R,0.0900X0.0900*%
%ADD28C,0.0600*%
%ADD29C,0.0660*%
%ADD30C,0.0900X0.0600*%
%ADD31C,0.0900*%
%ADD32C,0.0200*%
%ADD33C,0.0080*%
%ADD34R,0.0240X0.0240*%
%ADD35R,0.0440X0.0440*%
%ADD36R,0.0300X0.0300*%
%ADD37C,0.0060*%
%ADD38C,0.0800*%
%ADD39C,0.0860*%
%ADD40C,0.1100X0.0800*%
%ADD41C,0.1100*%
%ADD42C,0.0110*%
%AMTHERM1*7,0,0,0.1100,0.0800,0.0110,45*%
%ADD43THERM1*%
%ADD44R,0.0970X0.0970*%
%ADD45R,0.1170X0.1170*%
%ADD46R,0.1030X0.1030*%
%ADD47R,0.0560X0.0560*%
%ADD48R,0.0860X0.0860*%
%ADD49R,0.0620X0.0620*%
%ADD50R,0.1220X0.1220*%
%ADD51R,0.1520X0.1520*%
%ADD52R,0.1280X0.1280*%
%ADD53R,0.0340X0.0340*%
%ADD54R,0.0640X0.0640*%
%ADD55R,0.0400X0.0400*%
%ADD56R,0.0540X0.0540*%
%ADD57R,0.0480X0.0480*%
%ADD58R,0.0680X0.0680*%
%ADD59R,0.0200X0.0200*%
%ADD60R,0.0500X0.0500*%
%AMTHERM2*7,0,0,0.0900,0.0600,0.0100,45*%
%ADD61THERM2*%
%ADD62R,0.0150X0.0150*%
%ADD63R,0.0450X0.0450*%
%ADD64R,0.0210X0.0210*%
%ADD65C,0.0410*%
%ADD66C,0.0170*%
%ADD67R,0.1610X0.1610*%
%ADD68R,0.1910X0.1910*%
%ADD69R,0.1670X0.1670*%
%ADD70C,0.0720*%
%ADD71C,0.0920X0.0720*%
%ADD72C,0.0920*%
%ADD73C,0.0240*%
%ADD74C,0.0340*%
%ADD75C,0.1320*%
%ADD76C,0.1520*%
%ADD77C,0.1520X0.1320*%
%ADD78C,0.0600*%
%ADD79C,0.0125*%
%AMTHERM3*7,0,0,0.0800,0.0600,0.0125,45*%
%ADD80THERM3*%
%ADD81C,0.0800*%
%ADD82C,0.0800X0.0600*%
%ADD83C,0.0350*%
%ADD84C,0.0100*%
%AMTHERM4*7,0,0,0.0510,0.0350,0.0100,45*%
%ADD85THERM4*%
%ADD86C,0.0510*%
%ADD87C,0.0510X0.0350*%
%ADD88C,0.0360*%
%ADD89C,0.0520*%
%ADD90C,0.0520X0.0360*%
%AMTHERM5*7,0,0,0.0799,0.0600,0.0125,45*%
%ADD91THERM5*%
%ADD92C,0.0799*%
%ADD93C,0.0799X0.0600*%
%ADD94C,0.0090*%
%AMTHERM6*7,0,0,0.0520,0.0360,0.0090,45*%
%ADD95THERM6*%
%ADD96C,0.0310*%
%ADD97C,0.0080*%
%AMTHERM7*7,0,0,0.0469,0.0310,0.0080,45*%
%ADD98THERM7*%
%ADD99C,0.0469*%
%ADD100C,0.0469X0.0310*%
%AMTHERM8*7,0,0,0.0510,0.0350,0.0100,45*%
%ADD101THERM8*%
%ADD102C,0.0510*%
%ADD103C,0.0510X0.0350*%
%LNGROUP_1*%
%LPD*%
G01X0Y0D02*
G54D21*G36*
X18800Y7300D02*X19450D01*
Y8250D01*
X18800D01*
Y7300D01*
G37*
G36*
X18500Y6800D02*X20100D01*
Y8400D01*
X18500D01*
Y6800D01*
G37*
G36*
X20100D01*
Y8400D01*
X18500D01*
Y6800D01*
G37*
%LNCUTS*%
%LPC*%
G54D13*X18090Y7500D02*X18800D01*
G54D99*X19400Y7350D03*
X19650Y7150D03*
Y7550D03*
X19600Y7950D03*
X18800Y8100D03*
X19350Y8150D03*
X18800Y7400D03*
X19100Y7200D03*
X18800Y7750D03*
X19100Y7550D03*
Y7950D03*
X19350Y7750D03*
G54D68*X19300Y7600D03*
G54D13*X18090Y7500D02*X18800D01*
X18250Y6920D02*X18770D01*
X18850Y7000D01*
X18250Y6720D02*X18480Y6950D01*
X18800D01*
X18420Y6620D02*X18650Y6850D01*
X20350Y7510D02*X19740D01*
X19700Y7550D01*
X19790Y6860D02*X19750Y6900D01*
X19790Y6550D02*Y6860D01*
X20180Y8530D02*X20000Y8350D01*
G54D99*X19900Y8100D03*
X19400Y7350D03*
X19350Y7000D03*
X19650Y7150D03*
X19950Y7000D03*
X19900Y7350D03*
X19650Y7550D03*
X19900Y7750D03*
X19600Y7950D03*
X18800Y8100D03*
X19350Y8150D03*
X18800Y7400D03*
Y7050D03*
X19100Y7200D03*
X18800Y7750D03*
X19100Y7550D03*
Y7950D03*
X19350Y7750D03*
G54D68*X19300Y7600D03*
G54D13*X18090Y7500D02*X18800D01*
X18250Y6920D02*X18770D01*
X18850Y7000D01*
X18250Y6720D02*X18480Y6950D01*
X18800D01*
X18420Y6620D02*X18650Y6850D01*
X20350Y7510D02*X19740D01*
X19700Y7550D01*
X19790Y6860D02*X19750Y6900D01*
X19790Y6550D02*Y6860D01*
X20180Y8530D02*X20000Y8350D01*
G54D99*X19900Y8100D03*
X19400Y7350D03*
X19350Y7000D03*
X19650Y7150D03*
X19950Y7000D03*
X19900Y7350D03*
X19650Y7550D03*
X19900Y7750D03*
X19600Y7950D03*
X18800Y8100D03*
X19350Y8150D03*
X18800Y7400D03*
Y7050D03*
X19100Y7200D03*
X18800Y7750D03*
X19100Y7550D03*
Y7950D03*
X19350Y7750D03*
G54D68*X19300Y7600D03*
%LNTRACKS*%
%LPD*%
G54D11*X15150Y6550D02*X15300D01*
X15100Y6600D02*X15150Y6550D01*
X15100Y6650D02*Y6600D01*
X15000Y6750D02*X15100Y6650D01*
X14150Y6750D02*X15000D01*
X13750Y6350D02*X14150Y6750D01*
X13450Y6350D02*X13750D01*
X13450Y5850D02*Y6350D01*
X13950Y5350D02*X13450Y5850D01*
X15100Y5350D02*X13950D01*
X15100Y5650D02*Y5350D01*
X13750Y5650D02*X15100D01*
X13700Y5600D02*X13750Y5650D01*
X13700Y5000D02*Y5600D01*
X15350Y5000D02*X13700D01*
X15350Y6000D02*Y5000D01*
X13450Y6000D02*X15350D01*
X13450Y4700D02*Y6000D01*
X15650Y4700D02*X13450D01*
X15650Y6350D02*Y4700D01*
X13450Y6350D02*X15650D01*
X13200Y7650D02*X13100Y7750D01*
X13200Y7400D02*Y7650D01*
X13150Y7450D02*X13200Y7400D01*
X13100Y7450D02*X13150D01*
X13000Y7550D02*X13100Y7450D01*
X13000Y9050D02*Y7550D01*
X11000Y9050D02*X13000D01*
X11400Y8650D02*X11000Y9050D01*
X11400Y8550D02*Y8650D01*
X11450Y8600D02*X11400Y8550D01*
X12750Y8600D02*X11450D01*
X12050Y7900D02*X12750Y8600D01*
X11750Y7900D02*X12050D01*
X11950Y8100D02*X11750Y7900D01*
X12350Y8100D02*X11950D01*
X12250Y8200D02*X12350Y8100D01*
X11200Y8200D02*X12250D01*
X11150Y8150D02*X11200Y8200D01*
X11150Y7800D02*Y8150D01*
X11200Y7750D02*X11150Y7800D01*
X12700Y7750D02*X11200D01*
X12700Y8450D02*Y7750D01*
X11350Y8450D02*X12700D01*
X11000Y8800D02*X11350Y8450D01*
X11000Y8900D02*Y8800D01*
X13050Y8900D02*X11000D01*
X13050Y7700D02*Y8900D01*
X12850Y7500D02*X13050Y7700D01*
X11000Y7500D02*X12850D01*
X11000Y8850D02*Y7500D01*
G54D12*X18620Y6270D02*X18500Y6150D01*
X15950Y11350D02*Y9600D01*
X15800Y15600D02*Y12400D01*
X13900Y17500D02*X15800Y15600D01*
Y11550D02*Y11850D01*
X15900Y11450D02*X15800Y11550D01*
X22850Y9950D02*Y10900D01*
X23200Y10000D02*X23000D01*
X21100Y11450D02*X21200Y11300D01*
X19250Y11450D02*X21100D01*
X18850Y11050D02*X19250Y11450D01*
X22750Y8700D02*X22850Y8800D01*
X22638Y8700D02*X22750D01*
X22038Y8100D02*X22638Y8700D01*
X21500Y8100D02*X22038D01*
X22850Y8800D02*Y10000D01*
X22700Y8550D02*X23000D01*
X22655Y8505D02*X22700Y8550D01*
X22655Y8500D02*Y8505D01*
X22600Y8444D02*X22655Y8500D01*
X22600Y8300D02*Y8444D01*
X22190Y7890D02*X22600Y8300D01*
X20520Y7890D02*X22190D01*
X21320Y8280D02*X21500Y8100D01*
X20520Y8280D02*X21320D01*
X23000Y8550D02*Y10050D01*
X23300Y9080D02*X23350Y9130D01*
X23950Y9050D02*X23300D01*
X16800Y12550D02*X17650Y11450D01*
X20850Y6700D02*Y7150D01*
X16800Y16850D02*Y12550D01*
X15400Y18250D02*X16800Y16850D01*
X14900Y18250D02*X15400D01*
X23500Y16750D02*X24550D01*
X21600Y14850D02*X23500Y16750D01*
X21600Y10838D02*Y14850D01*
X19790Y9028D02*X21600Y10838D01*
X19790Y8820D02*Y9028D01*
X22550Y16100D02*Y16650D01*
X21450Y15000D02*X22550Y16100D01*
X21450Y10900D02*Y15000D01*
X19590Y9040D02*X21450Y10900D01*
X19590Y8820D02*Y9040D01*
X18499Y16250D02*X18100Y16650D01*
X18499Y10612D02*Y16250D01*
X19250Y9862D02*X18499Y10612D01*
X19250Y9278D02*Y9862D01*
X18350Y10550D02*Y15700D01*
X19100Y9800D02*X18350Y10550D01*
X19100Y9340D02*Y9800D01*
X19210Y9238D02*X19250Y9278D01*
X19210Y8820D02*Y9238D01*
X18350Y15700D02*X17400Y16650D01*
X19010Y9250D02*X19100Y9340D01*
X19010Y8820D02*Y9250D01*
X18800Y8830D02*Y9400D01*
X18810Y8820D02*X18800Y8830D01*
X19500Y10120D02*X19550Y9450D01*
X19410Y10210D02*X19500Y10120D01*
X17700Y5900D02*Y5850D01*
X18050Y6250D02*X17700Y5900D01*
X17400Y3650D02*X17800D01*
X21250Y5350D02*Y4850D01*
X21260Y5360D02*X21250Y5350D01*
X21650Y8550D02*X21100D01*
X21700Y8500D02*X21650Y8550D01*
X19450Y9450D02*X19400Y8750D01*
X19390Y8650D02*X19400Y8640D01*
X18150Y6150D02*X18500D01*
X18050Y6250D02*X18150Y6150D01*
X18620Y6380D02*Y6270D01*
X17800Y4150D02*X17900Y3550D01*
X17810Y4160D02*X17900Y4150D01*
X17650Y8100D02*X18150D01*
X17190Y8560D02*X17650Y8100D01*
X21100Y5500D02*X21250D01*
X20600Y6000D02*X21100Y5500D01*
X20300Y6000D02*X20600D01*
X19980Y6320D02*X20300Y6000D01*
X19980Y6380D02*Y6320D01*
X20370Y8500D02*X21100D01*
X20350Y8480D02*X20370Y8500D01*
X18280Y20000D02*X18700D01*
X17990Y20290D02*X18280Y20000D01*
G54D17*X24150Y20650D02*Y20750D01*
X23790Y20290D02*X24150Y20650D01*
G54D12*X23790Y19660D02*X24400Y19050D01*
X23790Y20110D02*Y19660D01*
X17990D02*X18600Y19050D01*
X17990Y20290D02*Y19660D01*
X17900Y5280D02*X17800Y4650D01*
X17910Y5290D02*X17900Y5280D01*
X18920Y4200D02*X18500Y4550D01*
X18960Y4160D02*X18920Y4200D01*
X18450Y3580D02*Y3050D01*
X18340Y3690D02*X18450Y3580D01*
X18960Y5360D02*Y4250D01*
X19000Y6370D02*Y5850D01*
X19010Y6380D02*X19000Y6370D01*
X19790Y6060D02*X20350Y5500D01*
X19790Y6380D02*Y6060D01*
X21850Y5650D02*X22350D01*
X21740Y5540D02*X21850Y5650D01*
X22780Y6650D02*X23200D01*
X22690Y6560D02*X22780Y6650D01*
X21740Y6140D02*Y5450D01*
X17600Y6700D02*X18150D01*
X17500Y7050D02*X17750Y7300D01*
X17115Y9210D02*X18070Y8254D01*
X16960Y9210D02*X17115D01*
X18150Y8680D02*Y8500D01*
X17140Y9690D02*X18150Y8680D01*
X19410Y10690D02*X19500Y10780D01*
Y11100D01*
X18450Y8820D02*Y8800D01*
X17860Y9410D02*X18450Y8820D01*
X18620Y9130D02*Y8735D01*
X18340Y9410D02*X18620Y9130D01*
G54D14*X16570Y8600D02*X15650D01*
X16710Y8740D02*X16570Y8600D01*
X15660Y8140D02*X15650Y8150D01*
Y6420D02*Y6000D01*
X15610Y6460D02*X15650Y6420D01*
X13220Y7500D02*X12850Y7400D01*
X13310Y7410D02*X13220Y7500D01*
X14100Y7150D02*Y6950D01*
X13510Y7150D02*X14100D01*
X13400Y7240D02*Y7450D01*
X13310Y7150D02*X13400Y7240D01*
G54D12*X13150Y7570D02*Y8050D01*
X13310Y7410D02*X13150Y7570D01*
X20270Y4950D02*X20300D01*
X19860Y5360D02*X20270Y4950D01*
X19590Y5710D02*X19850Y5450D01*
X19590Y6380D02*Y5710D01*
X17210Y6310D02*X17600Y6700D01*
X17750Y7300D02*X18100D01*
X17210Y6310D02*Y5850D01*
X20750Y5400D02*X20400D01*
X20800Y5350D02*X20750Y5400D01*
X20360Y6200D02*X21250D01*
X20180Y6380D02*X20360Y6200D01*
X19390Y5010D02*X19450Y4950D01*
X19390Y6380D02*Y5010D01*
X20180Y8530D02*X20000Y8350D01*
X20180Y8820D02*Y8530D01*
X18420Y6620D02*X18650Y6850D01*
X18420Y6550D02*Y6620D01*
X18480Y6950D02*X18800D01*
X18250Y6720D02*X18480Y6950D01*
X18770Y6920D02*X18850Y7000D01*
X18250Y6920D02*X18770D01*
X19790Y6860D02*X19750Y6900D01*
X19790Y6550D02*Y6860D01*
X19740Y7510D02*X19700Y7550D01*
X20350Y7510D02*X19740D01*
X18090Y7500D02*X18800D01*
X18080Y7510D02*X18090Y7500D01*
X22250Y7550D02*X22850Y8150D01*
X21000Y7550D02*X22250D01*
X20860Y7690D02*X21000Y7550D01*
X20520Y7690D02*X20860D01*
G54D22*X17290D02*X17150Y7550D01*
X18080Y7690D02*X17290D01*
X17160Y7890D02*X17100Y7950D01*
X18080Y7890D02*X17160D01*
G54D19*X15650Y7450D02*X15200D01*
X15650Y6980D02*Y7450D01*
X15610Y6940D02*X15650Y6980D01*
G54D12*X20350Y4350D02*Y4900D01*
X20340Y4340D02*X20350Y4350D01*
X19530Y4850D02*X19860D01*
X19440Y4940D02*X19530Y4850D01*
X19440Y4340D02*X19450Y4300D01*
X19820D02*X19450D01*
X19860Y4340D02*X19820Y4300D01*
X20410Y9050D02*X21050D01*
X20180Y8820D02*X20410Y9050D01*
X21070Y9100D02*X22500D01*
X21010Y9040D02*X21270Y9100D01*
X17000Y7050D02*X17500D01*
X16850Y6900D02*X17000Y7050D01*
X20370Y6700D02*X21250D01*
X20350Y6720D02*X20370Y6700D01*
G54D14*X15650Y8150D02*Y8500D01*
G54D12*X22120Y6650D02*X21750D01*
X22210Y6740D02*X22120Y6650D01*
X16500Y20500D02*Y19550D01*
X17600Y21600D02*X16500Y20500D01*
X19500Y21600D02*X17600D01*
X19450Y19800D02*Y20050D01*
X19200Y19550D02*X19450Y19800D01*
G54D19*X16230Y8050D02*X16550D01*
X16140Y8140D02*X16230Y8050D01*
Y7450D02*X16600D01*
X16140Y7540D02*X16230Y7450D01*
X13310Y6900D02*X12900D01*
X15230Y7450D02*X15650D01*
X15140Y7540D02*X15230Y7450D01*
X14100Y7400D02*X14650D01*
X14100Y7770D02*Y7400D01*
X14010Y7860D02*X14100Y7770D01*
G54D12*X14110Y7760D02*Y7410D01*
X14010Y7860D02*X14110Y7760D01*
X13100Y8250D02*X12700D01*
X13110Y8240D02*X13100Y8250D01*
X13070Y8800D02*X12700D01*
X13110Y8840D02*X13070Y8800D01*
X13100Y8830D02*Y8300D01*
X13110Y8840D02*X13100Y8830D01*
X18800Y4850D02*X18960D01*
X18500Y4550D02*X18800Y4850D01*
X17300Y20500D02*X17050D01*
X17510Y20290D02*X17300Y20500D01*
X19350Y21150D02*X19800D01*
X23550Y19350D02*X24350Y18550D01*
X23550Y20500D02*Y19350D01*
X23700Y20650D02*X23550Y20500D01*
X23700Y21200D02*Y20650D01*
X22750Y22150D02*X23700Y21200D01*
X21020Y22150D02*X22750D01*
X20710Y21840D02*X21020Y22150D01*
X18350Y18550D02*X18600D01*
X17750Y19150D02*X18350Y18550D01*
X17750Y20550D02*Y19150D01*
X17900Y20700D02*X17750Y20550D01*
X20700Y20700D02*X17900D01*
X20760Y20640D02*X20700Y20700D01*
G54D17*X15700Y1300D02*X14500D01*
X15710Y1310D02*X15700Y1300D01*
X16580Y1400D02*X17850D01*
X16490Y1310D02*X16580Y1400D01*
X13650Y8300D02*Y8600D01*
X13950Y8300D02*X13650D01*
X14050Y8400D02*X13950Y8300D01*
X14050Y9050D02*Y8400D01*
X14000Y9100D02*X14050Y9050D01*
X13750Y8850D02*X13650Y8700D01*
X14000Y9100D02*X13650Y8750D01*
G54D12*X21000Y19080D02*Y19450D01*
X20960Y19040D02*X21000Y19080D01*
X24400Y19600D02*Y19950D01*
X24350Y19550D02*X24400Y19600D01*
X21280Y20500D02*X21650D01*
X21240Y20460D02*X21280Y20500D01*
X18550Y5130D02*X18500Y4600D01*
X18390Y5290D02*X18550Y5130D01*
G54D17*X23250Y20350D02*Y21000D01*
Y20350D02*Y20900D01*
X23310Y20290D02*X23250Y20350D01*
G54D12*X18810Y6210D02*X17900Y5300D01*
X18810Y6380D02*Y6210D01*
X23310Y19510D02*X22850Y19050D01*
X23310Y20110D02*Y19510D01*
X17510D02*X17050Y19050D01*
X17510Y20290D02*Y19510D01*
X16750Y3500D02*X16450D01*
X17800Y4650D02*X16750Y3500D01*
X16450Y19550D02*X16700D01*
X15950Y19050D02*X16450Y19550D01*
X15220Y19050D02*X15950D01*
X15210Y19040D02*X15220Y19050D01*
X16400Y18050D02*X16550D01*
X15900Y18550D02*X16400Y18050D01*
X15220Y18550D02*X15900D01*
X15210Y18560D02*X15220Y18550D01*
X19430Y19550D02*X18900D01*
X19940Y19040D02*X19430Y19550D01*
X16850Y17450D02*Y18000D01*
X17160Y17140D02*X16850Y17450D01*
X18800Y17930D02*Y18050D01*
X18010Y17140D02*X18800Y17930D01*
X19250Y18050D02*X19100D01*
X19760Y18560D02*X19250Y18050D01*
X20350Y18550D02*X19900D01*
X20360Y18560D02*X20350Y18550D01*
X20360Y19040D02*X19850D01*
X21240Y21060D02*Y20550D01*
X21200Y21100D02*X21240Y21060D01*
X21200Y21830D02*Y21100D01*
X21190Y21840D02*X21200Y21830D01*
X20750Y21600D02*Y20600D01*
X20700Y21650D02*X20750Y21600D01*
X20700Y21160D02*Y21650D01*
X20710Y21150D02*X20700Y21160D01*
X20380Y21150D02*X20710D01*
X20290Y21240D02*X20380Y21150D01*
X24600Y17330D02*Y18050D01*
X24560Y17290D02*X24600Y17330D01*
X21800Y18550D02*X21050D01*
X22300Y18050D02*X21800Y18550D01*
X22550Y18050D02*X22300D01*
X22550Y17180D02*Y18050D01*
X22510Y17140D02*X22550Y17180D01*
X22150Y19550D02*X22400D01*
X21650Y19050D02*X22150Y19550D01*
X21150Y19050D02*X21650D01*
X21140Y19040D02*X21150Y19050D01*
X25500Y18550D02*X25650D01*
X25000Y18050D02*X25500Y18550D01*
X25100Y19550D02*X24900D01*
X25610Y19040D02*X25100Y19550D01*
X26300Y19050D02*X25700D01*
X26310Y19040D02*X26300Y19050D01*
X26310Y18560D02*X25700D01*
X12200Y13000D02*X12250Y12950D01*
X7900Y13000D02*X12200D01*
G54D19*X10400Y6900D02*X12410D01*
X6000Y12300D02*X4000Y14300D01*
X13050Y12300D02*X6000D01*
X13150Y12400D02*X13050Y12300D01*
X7800Y15450D02*X7300Y15950D01*
X10195Y15450D02*X7800D01*
X12750Y12895D02*X10195Y15450D01*
X12750Y12700D02*Y12895D01*
X7150Y14350D02*X5900Y15600D01*
X7150Y13750D02*Y14350D01*
X7900Y13000D02*X7150Y13750D01*
G54D17*X10400Y6900D02*X10350Y6850D01*
G04 Text: COMPONENT *
G54D33*X21050Y24200D02*X21200D01*
X21000Y24250D02*X21050Y24200D01*
X21000Y24550D02*Y24250D01*
Y24550D02*X21050Y24600D01*
X21200D01*
X21320Y24550D02*Y24250D01*
Y24550D02*X21370Y24600D01*
X21470D01*
X21520Y24550D01*
Y24250D01*
X21470Y24200D02*X21520Y24250D01*
X21370Y24200D02*X21470D01*
X21320Y24250D02*X21370Y24200D01*
X21640Y24600D02*Y24200D01*
Y24600D02*X21790Y24450D01*
X21940Y24600D01*
Y24200D01*
X22110Y24600D02*Y24200D01*
X22060Y24600D02*X22260D01*
X22310Y24550D01*
Y24450D01*
X22260Y24400D02*X22310Y24450D01*
X22110Y24400D02*X22260D01*
X22430Y24550D02*Y24250D01*
Y24550D02*X22480Y24600D01*
X22580D01*
X22630Y24550D01*
Y24250D01*
X22580Y24200D02*X22630Y24250D01*
X22480Y24200D02*X22580D01*
X22430Y24250D02*X22480Y24200D01*
X22750Y24600D02*Y24200D01*
Y24600D02*Y24550D01*
X23000Y24300D01*
Y24600D02*Y24200D01*
X23120Y24400D02*X23270D01*
X23120Y24200D02*X23320D01*
X23120Y24600D02*Y24200D01*
Y24600D02*X23320D01*
X23440D02*Y24200D01*
Y24600D02*Y24550D01*
X23690Y24300D01*
Y24600D02*Y24200D01*
X23810Y24600D02*X24010D01*
X23910D02*Y24200D01*
G54D24*X11650Y2500D03*
G54D28*Y1500D03*
G54D38*X10400Y6900D03*
X11400Y7900D03*
Y5900D03*
X9400Y7900D03*
Y5900D03*
G54D24*X10450Y22600D03*
G54D28*Y23600D03*
X11450Y22600D03*
Y23600D03*
X12450Y22600D03*
Y23600D03*
X13450Y22600D03*
Y23600D03*
X14450Y22600D03*
Y23600D03*
X15450Y22600D03*
Y23600D03*
X16450Y22600D03*
Y23600D03*
X17450Y22600D03*
Y23600D03*
G54D24*X800Y22600D03*
G54D28*Y23600D03*
X1800Y22600D03*
Y23600D03*
X2800Y22600D03*
Y23600D03*
X3800Y22600D03*
Y23600D03*
X4800Y22600D03*
Y23600D03*
X5800Y22600D03*
Y23600D03*
X6800Y22600D03*
Y23600D03*
X7800Y22600D03*
Y23600D03*
G54D24*X10350Y2500D03*
G54D28*Y1500D03*
G54D78*X16300Y16650D03*
X8800Y13500D03*
Y16100D03*
G54D83*X5850Y14950D03*
X4400Y16500D03*
G54D88*X17700Y11450D03*
G54D83*X5900Y15600D03*
X12750Y12700D03*
X7300Y15950D03*
X10900Y12700D03*
X6450Y13700D03*
X13150Y12400D03*
X4000Y14300D03*
G54D78*X13250Y10500D03*
X22500Y13500D03*
X25350Y10800D03*
X23200Y14400D03*
G54D88*X16850Y6900D03*
X17250Y6350D03*
G54D78*X26800Y20050D03*
X25450Y20300D03*
X23250Y21000D03*
G54D88*X20800Y5350D03*
X21650Y20500D03*
X24400Y19950D03*
X21000Y19450D03*
G54D78*X17800Y12650D03*
X14000Y9100D03*
X17850Y1400D03*
X14500Y1300D03*
G54D88*X19350Y21150D03*
X17050Y20500D03*
X19500Y11100D03*
X12700Y8800D03*
Y8250D03*
X19450Y20050D03*
X19500Y21600D03*
G54D78*X13000Y11850D03*
X23600Y17200D03*
G54D96*X19900Y8100D03*
G54D83*X15650Y6000D03*
Y8600D03*
G54D88*X22350Y5650D03*
X23200Y6650D03*
X18450Y3050D03*
X18500Y4550D03*
X17550Y8300D03*
X21700Y8500D03*
X18750Y20000D03*
X21250Y4850D03*
X17400Y3650D03*
X18050Y6250D03*
G54D78*X24150Y20750D03*
X26400Y15550D03*
G54D88*X19550Y9450D03*
X18800D03*
G54D78*X26450Y13300D03*
G54D88*X13900Y17500D03*
X14900Y18250D03*
X20850Y7150D03*
G54D83*X12250Y12950D03*
G54D88*X14100Y13000D03*
X13750Y12350D03*
X14300Y12550D03*
X18850Y11050D03*
X21150Y11350D03*
X23200Y10000D03*
X22850Y10900D03*
X20550Y10450D03*
X23950Y9050D03*
X15950Y11350D03*
Y9600D03*
X20100Y16350D03*
X18950Y12850D03*
X20750Y5850D03*
X20450Y9100D03*
G54D96*X18800Y8100D03*
Y7750D03*
Y7400D03*
Y7050D03*
X19100Y7200D03*
Y7550D03*
Y7950D03*
X19350Y8150D03*
Y7750D03*
X19400Y7350D03*
X19350Y7000D03*
X19650Y7150D03*
X19950Y7000D03*
X19900Y7350D03*
X19650Y7550D03*
X19900Y7750D03*
X19600Y7950D03*
X15050Y6100D03*
X12300Y7550D03*
X11150Y8950D03*
X11850D03*
X12200Y8450D03*
X14100Y6500D03*
X14700Y6600D03*
X15150Y6500D03*
X13650Y5700D03*
X14550Y5850D03*
X14000Y5150D03*
X14700Y5050D03*
X15450Y4900D03*
X12950Y7550D03*
G54D88*X11500Y12650D03*
X15600Y19750D03*
G54D78*X14750Y4200D03*
G54D34*X15710Y11910D02*X15890D01*
X15710Y12390D02*X15890D01*
X19760Y19040D02*X19940D01*
X19760Y18560D02*X19940D01*
X20960D02*X21140D01*
X20960Y19040D02*X21140D01*
X21560D02*X21740D01*
X21560Y18560D02*X21740D01*
X20360D02*X20540D01*
X20360Y19040D02*X20540D01*
X20760Y20640D02*Y20460D01*
X21240Y20640D02*Y20460D01*
X17990Y20290D02*Y20110D01*
X17510Y20290D02*Y20110D01*
G54D53*X23300Y9080D02*Y9020D01*
X22520Y9080D02*Y9020D01*
X22910Y8260D02*Y8200D01*
G54D34*X23790Y20290D02*Y20110D01*
X23310Y20290D02*Y20110D01*
X20710Y21840D02*Y21660D01*
X21190Y21840D02*Y21660D01*
X17860Y3690D02*Y3510D01*
X18340Y3690D02*Y3510D01*
X17810Y4640D02*X17990D01*
X17810Y4160D02*X17990D01*
X17910Y5290D02*Y5110D01*
X18390Y5290D02*Y5110D01*
X15660Y8140D02*Y7960D01*
X16140Y8140D02*Y7960D01*
X14010Y8340D02*X14190D01*
X14010Y7860D02*X14190D01*
X13590Y8240D02*Y8060D01*
X13110Y8240D02*Y8060D01*
X14660Y7540D02*Y7360D01*
X15140Y7540D02*Y7360D01*
X17210Y5940D02*Y5760D01*
X17690Y5940D02*Y5760D01*
X21260Y6140D02*Y5960D01*
X21740Y6140D02*Y5960D01*
X16560Y7540D02*Y7360D01*
X17040Y7540D02*Y7360D01*
X15610Y6460D02*X15790D01*
X15610Y6940D02*X15790D01*
X18960Y5840D02*X19140D01*
X18960Y5360D02*X19140D01*
X17860Y9590D02*Y9410D01*
X18340Y9590D02*Y9410D01*
X16960Y9690D02*X17140D01*
X16960Y9210D02*X17140D01*
X22210Y6740D02*Y6560D01*
X22690Y6740D02*Y6560D01*
X19410Y10690D02*X19590D01*
X19410Y10210D02*X19590D01*
X13590Y8840D02*Y8660D01*
X13110Y8840D02*Y8660D01*
X21740Y5540D02*Y5360D01*
X21260Y5540D02*Y5360D01*
X16560Y8140D02*Y7960D01*
X17040Y8140D02*Y7960D01*
X21010Y9040D02*X21190D01*
X21010Y8560D02*X21190D01*
X16710Y8740D02*Y8560D01*
X17190Y8740D02*Y8560D01*
G54D44*X15710Y3190D02*X16490D01*
X15710Y1310D02*X16490D01*
G54D34*X15810Y19040D02*X15990D01*
X15810Y18560D02*X15990D01*
X21250Y6740D02*Y6560D01*
X21730Y6740D02*Y6560D01*
X26310Y18560D02*X26490D01*
X26310Y19040D02*X26490D01*
X19860Y4340D02*Y4160D01*
X20340Y4340D02*Y4160D01*
G54D62*X13310Y7410D02*X13510D01*
X13310Y7150D02*X13510D01*
X13310Y6900D02*X13510D01*
X14010D02*X14210D01*
X14010Y7150D02*X14210D01*
X14010Y7410D02*X14210D01*
G54D59*X24350Y18050D02*X25000D01*
X24350Y18550D02*X25000D01*
X24350Y19050D02*X25000D01*
X24350Y19550D02*X25000D01*
X22300D02*X22950D01*
X22300Y19050D02*X22950D01*
X22300Y18550D02*X22950D01*
X22300Y18050D02*X22950D01*
G54D34*X18960Y4340D02*Y4160D01*
X19440Y4340D02*Y4160D01*
X24560Y17290D02*X24740D01*
X24560Y16810D02*X24740D01*
X25610Y19040D02*X25790D01*
X25610Y18560D02*X25790D01*
G54D42*X18080Y8480D02*X18250D01*
X18080Y8280D02*X18250D01*
X18080Y8090D02*X18250D01*
X18080Y7890D02*X18250D01*
X18080Y7690D02*X18250D01*
X18080Y7510D02*X18250D01*
X18080Y7310D02*X18250D01*
X18080Y7110D02*X18250D01*
X18080Y6920D02*X18250D01*
X18080Y6720D02*X18250D01*
X18420Y6550D02*Y6380D01*
X18620Y6550D02*Y6380D01*
X18810Y6550D02*Y6380D01*
X19010Y6550D02*Y6380D01*
X19210Y6550D02*Y6380D01*
X19390Y6550D02*Y6380D01*
X19590Y6550D02*Y6380D01*
X19790Y6550D02*Y6380D01*
X19980Y6550D02*Y6380D01*
X20180Y6550D02*Y6380D01*
X20350Y6720D02*X20520D01*
X20350Y6920D02*X20520D01*
X20350Y7110D02*X20520D01*
X20350Y7310D02*X20520D01*
X20350Y7510D02*X20520D01*
X20350Y7690D02*X20520D01*
X20350Y7890D02*X20520D01*
X20350Y8090D02*X20520D01*
X20350Y8280D02*X20520D01*
X20350Y8480D02*X20520D01*
X20180Y8820D02*Y8650D01*
X19980Y8820D02*Y8650D01*
X19790Y8820D02*Y8650D01*
X19590Y8820D02*Y8650D01*
X19390Y8820D02*Y8650D01*
X19210Y8820D02*Y8650D01*
X19010Y8820D02*Y8650D01*
X18810Y8820D02*Y8650D01*
X18620Y8820D02*Y8650D01*
X18420Y8820D02*Y8650D01*
G54D67*X19300Y7600D03*
G54D34*X20340Y4940D02*Y4760D01*
X19860Y4940D02*Y4760D01*
X22510Y17140D02*X22690D01*
X22510Y16660D02*X22690D01*
G54D59*X18550Y18050D02*X19200D01*
X18550Y18550D02*X19200D01*
X18550Y19050D02*X19200D01*
X18550Y19550D02*X19200D01*
X16500D02*X17150D01*
X16500Y19050D02*X17150D01*
X16500Y18550D02*X17150D01*
X16500Y18050D02*X17150D01*
G54D34*X12410Y6990D02*Y6810D01*
X12890Y6990D02*Y6810D01*
X15210Y18560D02*X15390D01*
X15210Y19040D02*X15390D01*
X15660Y7540D02*Y7360D01*
X16140Y7540D02*Y7360D01*
X19440Y4940D02*Y4760D01*
X18960Y4940D02*Y4760D01*
X17160Y17140D02*X17340D01*
X17160Y16660D02*X17340D01*
X18010Y17140D02*X18190D01*
X18010Y16660D02*X18190D01*
X20340Y5540D02*Y5360D01*
X19860Y5540D02*Y5360D01*
X20710Y21240D02*Y21060D01*
X21190Y21240D02*Y21060D01*
X19810Y21240D02*Y21060D01*
X20290Y21240D02*Y21060D01*
M02*
