*
*
G04 PowerPCB (Build Number 501.037) generated Gerber (RS-274-X) file*
G04 PC Version=2.1*
*
%IN "GNU_RADIO_REV 3.pcb"*%
*
%MOIN*%
*
%FSLAX23Y23*%
*
*
*
*
G04 PC Standard Apertures*
*
*
G04 Thermal Relief Aperture macro.*
%AMTER*
1,1,$1,0,0*
1,0,$1-$2,0,0*
21,0,$3,$4,0,0,45*
21,0,$3,$4,0,0,135*
%
*
*
G04 Annular Aperture macro.*
%AMANN*
1,1,$1,0,0*
1,0,$2,0,0*
%
*
*
G04 Odd Aperture macro.*
%AMODD*
1,1,$1,0,0*
1,0,$1-0.005,0,0*
%
*
*
G04 PC Custom Aperture Macros*
*
*
*
*
*
*
G04 PC Aperture Table*
*
%ADD010C,0.01*%
%ADD012C,0.005*%
%ADD019C,0.125*%
%ADD025R,0.06X0.06*%
%ADD055C,0.02*%
%ADD066C,0.135*%
%ADD070R,0.04X0.04*%
%ADD071R,0.07299X0.07299*%
%ADD072R,0.1X0.1*%
%ADD073R,0.07X0.07*%
%ADD074C,0.07*%
%ADD075R,0.034X0.034*%
%ADD076C,0.065*%
%ADD077C,0.023*%
%ADD078C,0.03362*%
%ADD079R,0.13X0.13*%
%ADD080R,0.065X0.065*%
%ADD081R,0.36X0.36*%
%ADD082R,0.09X0.09*%
%ADD083R,0.082X0.082*%
%ADD084R,0.068X0.068*%
%ADD085C,0.068*%
%ADD086C,0.17*%
%ADD087C,0.15*%
%ADD088C,0.103*%
%ADD089C,0.108*%
*
*
*
*
G04 PC Custom Flashes*
G04 Layer Name GNU_RADIO_REV 3.pcb - flashes*
%LPD*%
*
*
G04 PC Circuitry*
G04 Layer Name GNU_RADIO_REV 3.pcb - circuitry*
%LPD*%
*
G54D10*
G01X16850Y13557D02*
Y19907D01*
X16850D02*
X23150D01*
X23150D02*
Y13557D01*
X23150D02*
X16850D01*
X20329Y12142D02*
X20326Y12148D01*
X20326D02*
X20322Y12155D01*
X20317Y12158*
X20317D02*
X20308D01*
X20308D02*
X20304Y12155D01*
X20299Y12148*
X20299D02*
X20297Y12142D01*
X20297D02*
X20295Y12133D01*
Y12117*
X20295D02*
X20297Y12108D01*
X20299Y12101*
X20299D02*
X20304Y12095D01*
X20304D02*
X20308Y12092D01*
X20308D02*
X20317D01*
X20317D02*
X20322Y12095D01*
X20322D02*
X20326Y12101D01*
X20326D02*
X20329Y12108D01*
X20363Y12158D02*
X20358Y12155D01*
X20358D02*
X20354Y12148D01*
X20354D02*
X20351Y12142D01*
X20351D02*
X20349Y12133D01*
X20349D02*
Y12117D01*
X20349D02*
X20351Y12108D01*
X20351D02*
X20354Y12101D01*
X20354D02*
X20358Y12095D01*
X20358D02*
X20363Y12092D01*
X20363D02*
X20372D01*
X20372D02*
X20376Y12095D01*
X20376D02*
X20381Y12101D01*
X20381D02*
X20383Y12108D01*
X20383D02*
X20385Y12117D01*
X20385D02*
Y12133D01*
X20385D02*
X20383Y12142D01*
X20383D02*
X20381Y12148D01*
X20381D02*
X20376Y12155D01*
X20376D02*
X20372Y12158D01*
X20363*
X20406D02*
Y12092D01*
Y12158D02*
X20424Y12092D01*
X20442Y12158D02*
X20424Y12092D01*
X20442Y12158D02*
Y12092D01*
X20463Y12158D02*
Y12092D01*
Y12158D02*
X20483D01*
X20483D02*
X20490Y12155D01*
X20492Y12151*
X20492D02*
X20495Y12145D01*
X20495D02*
Y12136D01*
X20492Y12130*
X20492D02*
X20490Y12126D01*
X20490D02*
X20483Y12123D01*
X20483D02*
X20463D01*
X20529Y12158D02*
X20524Y12155D01*
X20524D02*
X20520Y12148D01*
X20520D02*
X20517Y12142D01*
X20517D02*
X20515Y12133D01*
Y12117*
X20515D02*
X20517Y12108D01*
X20517D02*
X20520Y12101D01*
X20520D02*
X20524Y12095D01*
X20524D02*
X20529Y12092D01*
X20529D02*
X20538D01*
X20538D02*
X20542Y12095D01*
X20542D02*
X20547Y12101D01*
X20547D02*
X20549Y12108D01*
X20549D02*
X20551Y12117D01*
X20551D02*
Y12133D01*
X20551D02*
X20549Y12142D01*
X20549D02*
X20547Y12148D01*
X20547D02*
X20542Y12155D01*
X20542D02*
X20538Y12158D01*
X20529*
X20572D02*
Y12092D01*
Y12158D02*
X20604Y12092D01*
Y12158D02*
Y12092D01*
X20624Y12158D02*
Y12092D01*
Y12158D02*
X20654D01*
X20624Y12126D02*
X20642D01*
X20624Y12092D02*
X20654D01*
X20674Y12158D02*
Y12092D01*
Y12158D02*
X20706Y12092D01*
Y12158D02*
Y12092D01*
X20742Y12158D02*
Y12092D01*
X20726Y12158D02*
X20758D01*
X20851Y12148D02*
X20847Y12155D01*
X20840Y12158*
X20831*
X20824Y12155*
X20824D02*
X20820Y12148D01*
X20820D02*
Y12142D01*
X20820D02*
X20822Y12136D01*
X20824Y12133*
X20824D02*
X20829Y12130D01*
X20842Y12123*
X20842D02*
X20847Y12120D01*
X20847D02*
X20849Y12117D01*
X20849D02*
X20851Y12111D01*
X20851D02*
Y12101D01*
X20851D02*
X20847Y12095D01*
X20847D02*
X20840Y12092D01*
X20840D02*
X20831D01*
X20831D02*
X20824Y12095D01*
X20824D02*
X20820Y12101D01*
X20872Y12158D02*
Y12092D01*
X20892Y12158D02*
Y12092D01*
Y12158D02*
X20908D01*
X20908D02*
X20915Y12155D01*
X20920Y12148*
X20920D02*
X20922Y12142D01*
X20922D02*
X20924Y12133D01*
X20924D02*
Y12117D01*
X20924D02*
X20922Y12108D01*
X20920Y12101*
X20920D02*
X20915Y12095D01*
X20915D02*
X20908Y12092D01*
X20908D02*
X20892D01*
X20945Y12158D02*
Y12092D01*
Y12158D02*
X20974D01*
X20945Y12126D02*
X20963D01*
X20945Y12092D02*
X20974D01*
X21035Y12158D02*
Y12092D01*
Y12158D02*
X21054Y12092D01*
X21072Y12158D02*
X21054Y12092D01*
X21072Y12158D02*
Y12092D01*
X21110Y12158D02*
X21092Y12092D01*
X21110Y12158D02*
X21129Y12092D01*
X21099Y12114D02*
X21122D01*
X21181Y12148D02*
X21176Y12155D01*
X21176D02*
X21170Y12158D01*
X21160*
X21160D02*
X21154Y12155D01*
X21149Y12148*
X21149D02*
Y12142D01*
X21149D02*
X21151Y12136D01*
X21151D02*
X21154Y12133D01*
X21158Y12130*
X21158D02*
X21172Y12123D01*
X21172D02*
X21176Y12120D01*
X21176D02*
X21179Y12117D01*
X21179D02*
X21181Y12111D01*
Y12101*
X21181D02*
X21176Y12095D01*
X21176D02*
X21170Y12092D01*
X21170D02*
X21160D01*
X21160D02*
X21154Y12095D01*
X21154D02*
X21149Y12101D01*
X21201Y12158D02*
Y12092D01*
X21233Y12158D02*
X21201Y12114D01*
X21213Y12130D02*
X21233Y12092D01*
G54D12*
X18017Y15321D02*
G75*
G03X18017I-27D01*
G01X18117Y15317D02*
G03X18117I-27D01*
G01X18617Y15562D02*
G03X18617I-27D01*
G01X19302Y14712D02*
G03X19302I-27D01*
G01X21301Y15548D02*
G03X21301I-27D01*
G01X18626Y18596D02*
G03X18626I-27D01*
G01X21436Y18593D02*
G03X21436I-27D01*
G01X18067Y15317D02*
G03X18067I-27D01*
G01X21337Y15582D02*
G03X21337I-27D01*
G01X19192Y14712D02*
G03X19192I-27D01*
G01X19247D02*
G03X19247I-27D01*
G01X18677Y18597D02*
G03X18677I-27D01*
G01X18017Y15321D02*
G03X18017I-27D01*
G01X18117Y15317D02*
G03X18117I-27D01*
G01X18617Y15562D02*
G03X18617I-27D01*
G01X19302Y14712D02*
G03X19302I-27D01*
G01X21301Y15548D02*
G03X21301I-27D01*
G01X18626Y18596D02*
G03X18626I-27D01*
G01X21436Y18593D02*
G03X21436I-27D01*
G01X18067Y15317D02*
G03X18067I-27D01*
G01X21337Y15582D02*
G03X21337I-27D01*
G01X19192Y14712D02*
G03X19192I-27D01*
G01X19247D02*
G03X19247I-27D01*
G01X18677Y18597D02*
G03X18677I-27D01*
G01X17962Y15323D02*
X18017D01*
X17963Y15313D02*
X18016D01*
X17965Y15333D02*
X18014D01*
X17968Y15303D02*
X18011D01*
X17974Y15343D02*
X18005D01*
X18062Y15319D02*
X18117D01*
X18063Y15309D02*
X18116D01*
X18065Y15329D02*
X18114D01*
X18068Y15299D02*
X18111D01*
X18074Y15339D02*
X18105D01*
X18562Y15564D02*
X18617D01*
X18563Y15554D02*
X18616D01*
X18565Y15574D02*
X18614D01*
X18568Y15544D02*
X18611D01*
X18574Y15584D02*
X18605D01*
X19247Y14714D02*
X19302D01*
X19248Y14704D02*
X19301D01*
X19250Y14724D02*
X19299D01*
X19253Y14694D02*
X19296D01*
X19259Y14734D02*
X19290D01*
X21246Y15550D02*
X21301D01*
X21247Y15540D02*
X21300D01*
X21249Y15560D02*
X21298D01*
X21252Y15530D02*
X21295D01*
X21258Y15570D02*
X21289D01*
X18571Y18598D02*
X18626D01*
X18572Y18588D02*
X18625D01*
X18574Y18608D02*
X18623D01*
X18577Y18578D02*
X18620D01*
X18583Y18618D02*
X18614D01*
X21381Y18595D02*
X21436D01*
X21382Y18585D02*
X21435D01*
X21384Y18605D02*
X21433D01*
X21387Y18575D02*
X21430D01*
X21393Y18615D02*
X21424D01*
X18012Y15319D02*
X18067D01*
X18013Y15309D02*
X18066D01*
X18015Y15329D02*
X18064D01*
X18018Y15299D02*
X18061D01*
X18024Y15339D02*
X18055D01*
X21282Y15584D02*
X21337D01*
X21283Y15574D02*
X21336D01*
X21285Y15594D02*
X21334D01*
X21288Y15564D02*
X21331D01*
X21294Y15604D02*
X21325D01*
X19137Y14714D02*
X19192D01*
X19138Y14704D02*
X19191D01*
X19140Y14724D02*
X19189D01*
X19143Y14694D02*
X19186D01*
X19149Y14734D02*
X19180D01*
X19192Y14714D02*
X19247D01*
X19193Y14704D02*
X19246D01*
X19195Y14724D02*
X19244D01*
X19198Y14694D02*
X19241D01*
X19204Y14734D02*
X19235D01*
X18622Y18599D02*
X18677D01*
X18623Y18589D02*
X18676D01*
X18625Y18609D02*
X18674D01*
X18628Y18579D02*
X18671D01*
X18634Y18619D02*
X18665D01*
X18012Y15305D02*
Y15337D01*
X18002Y15297D02*
Y15345D01*
X17992Y15294D02*
Y15348D01*
X17982Y15295D02*
Y15347D01*
X17972Y15300D02*
Y15342D01*
X18112Y15301D02*
Y15333D01*
X18102Y15293D02*
Y15341D01*
X18092Y15290D02*
Y15344D01*
X18082Y15291D02*
Y15343D01*
X18072Y15296D02*
Y15338D01*
X18612Y15546D02*
Y15578D01*
X18602Y15538D02*
Y15586D01*
X18592Y15535D02*
Y15589D01*
X18582Y15536D02*
Y15588D01*
X18572Y15541D02*
Y15583D01*
X19297Y14696D02*
Y14728D01*
X19287Y14688D02*
Y14736D01*
X19277Y14685D02*
Y14739D01*
X19267Y14686D02*
Y14738D01*
X19257Y14691D02*
Y14733D01*
X21296Y15532D02*
Y15564D01*
X21286Y15524D02*
Y15572D01*
X21276Y15521D02*
Y15575D01*
X21266Y15522D02*
Y15574D01*
X21256Y15527D02*
Y15569D01*
X18621Y18580D02*
Y18612D01*
X18611Y18572D02*
Y18620D01*
X18601Y18569D02*
Y18623D01*
X18591Y18570D02*
Y18622D01*
X18581Y18575D02*
Y18617D01*
X21431Y18577D02*
Y18609D01*
X21421Y18569D02*
Y18617D01*
X21411Y18566D02*
Y18620D01*
X21401Y18567D02*
Y18619D01*
X21391Y18572D02*
Y18614D01*
X18062Y15301D02*
Y15333D01*
X18052Y15293D02*
Y15341D01*
X18042Y15290D02*
Y15344D01*
X18032Y15291D02*
Y15343D01*
X18022Y15296D02*
Y15338D01*
X21332Y15566D02*
Y15598D01*
X21322Y15558D02*
Y15606D01*
X21312Y15555D02*
Y15609D01*
X21302Y15556D02*
Y15608D01*
X21292Y15561D02*
Y15603D01*
X19187Y14696D02*
Y14728D01*
X19177Y14688D02*
Y14736D01*
X19167Y14685D02*
Y14739D01*
X19157Y14686D02*
Y14738D01*
X19147Y14691D02*
Y14733D01*
X19242Y14696D02*
Y14728D01*
X19232Y14688D02*
Y14736D01*
X19222Y14685D02*
Y14739D01*
X19212Y14686D02*
Y14738D01*
X19202Y14691D02*
Y14733D01*
X18672Y18581D02*
Y18613D01*
X18662Y18573D02*
Y18621D01*
X18652Y18570D02*
Y18624D01*
X18642Y18571D02*
Y18623D01*
X18632Y18576D02*
Y18618D01*
G54D19*
X20537Y13957D03*
X20063D03*
G54D25*
X20645Y15822D02*
Y15832D01*
Y15912D02*
Y15922D01*
X20742Y15822D02*
Y15832D01*
Y15912D02*
Y15922D01*
G54D55*
X22084Y16781D02*
X22024D01*
X22084Y16800D02*
X22024D01*
X22084Y16820D02*
X22024D01*
X22084Y16840D02*
X22024D01*
X22084Y16859D02*
X22024D01*
X22084Y16879D02*
X22024D01*
X22084Y16899D02*
X22024D01*
X22084Y16918D02*
X22024D01*
X22084Y16938D02*
X22024D01*
X22084Y16958D02*
X22024D01*
X22084Y16978D02*
X22024D01*
X22084Y16997D02*
X22024D01*
X22084Y17017D02*
X22024D01*
X22084Y17037D02*
X22024D01*
X22084Y17056D02*
X22024D01*
X22084Y17076D02*
X22024D01*
X22084Y17096D02*
X22024D01*
X22084Y17115D02*
X22024D01*
X22084Y17135D02*
X22024D01*
X22084Y17155D02*
X22024D01*
X22084Y17175D02*
X22024D01*
X22084Y17194D02*
X22024D01*
X22084Y17214D02*
X22024D01*
X22084Y17234D02*
X22024D01*
X22084Y17253D02*
X22024D01*
X22084Y17273D02*
X22024D01*
X22084Y17293D02*
X22024D01*
X22084Y17312D02*
X22024D01*
X22084Y17332D02*
X22024D01*
X22084Y17352D02*
X22024D01*
X22084Y17372D02*
X22024D01*
X22084Y17391D02*
X22024D01*
X22084Y17411D02*
X22024D01*
X22084Y17431D02*
X22024D01*
X22084Y17450D02*
X22024D01*
X22084Y17470D02*
X22024D01*
X22084Y17490D02*
X22024D01*
X22084Y17509D02*
X22024D01*
X21995Y17600D02*
Y17540D01*
X21975Y17600D02*
Y17540D01*
X21955Y17600D02*
Y17540D01*
X21936Y17600D02*
Y17540D01*
X21916Y17600D02*
Y17540D01*
X21896Y17600D02*
Y17540D01*
X21877Y17600D02*
Y17540D01*
X21857Y17600D02*
Y17540D01*
X21837Y17600D02*
Y17540D01*
X21817Y17600D02*
Y17540D01*
X21798Y17600D02*
Y17540D01*
X21778Y17600D02*
Y17540D01*
X21758Y17600D02*
Y17540D01*
X21739Y17600D02*
Y17540D01*
X21719Y17600D02*
Y17540D01*
X21699Y17600D02*
Y17540D01*
X21680Y17600D02*
Y17540D01*
X21660Y17600D02*
Y17540D01*
X21640Y17600D02*
Y17540D01*
X21620Y17600D02*
Y17540D01*
X21601Y17600D02*
Y17540D01*
X21581Y17600D02*
Y17540D01*
X21561Y17600D02*
Y17540D01*
X21542Y17600D02*
Y17540D01*
X21522Y17600D02*
Y17540D01*
X21502Y17600D02*
Y17540D01*
X21474Y17509D02*
X21414D01*
X21474Y17490D02*
X21414D01*
X21474Y17470D02*
X21414D01*
X21474Y17450D02*
X21414D01*
X21474Y17431D02*
X21414D01*
X21474Y17411D02*
X21414D01*
X21474Y17391D02*
X21414D01*
X21474Y17372D02*
X21414D01*
X21474Y17352D02*
X21414D01*
X21474Y17332D02*
X21414D01*
X21474Y17312D02*
X21414D01*
X21474Y17293D02*
X21414D01*
X21474Y17273D02*
X21414D01*
X21474Y17253D02*
X21414D01*
X21474Y17234D02*
X21414D01*
X21474Y17214D02*
X21414D01*
X21474Y17194D02*
X21414D01*
X21474Y17175D02*
X21414D01*
X21474Y17155D02*
X21414D01*
X21474Y17135D02*
X21414D01*
X21474Y17115D02*
X21414D01*
X21474Y17096D02*
X21414D01*
X21474Y17076D02*
X21414D01*
X21474Y17056D02*
X21414D01*
X21474Y17037D02*
X21414D01*
X21474Y17017D02*
X21414D01*
X21474Y16997D02*
X21414D01*
X21474Y16978D02*
X21414D01*
X21474Y16958D02*
X21414D01*
X21474Y16938D02*
X21414D01*
X21474Y16918D02*
X21414D01*
X21474Y16899D02*
X21414D01*
X21474Y16879D02*
X21414D01*
X21474Y16859D02*
X21414D01*
X21474Y16840D02*
X21414D01*
X21474Y16820D02*
X21414D01*
X21474Y16800D02*
X21414D01*
X21474Y16781D02*
X21414D01*
X21502Y16750D02*
Y16690D01*
X21522Y16750D02*
Y16690D01*
X21542Y16750D02*
Y16690D01*
X21561Y16750D02*
Y16690D01*
X21581Y16750D02*
Y16690D01*
X21601Y16750D02*
Y16690D01*
X21620Y16750D02*
Y16690D01*
X21640Y16750D02*
Y16690D01*
X21660Y16750D02*
Y16690D01*
X21680Y16750D02*
Y16690D01*
X21699Y16750D02*
Y16690D01*
X21719Y16750D02*
Y16690D01*
X21739Y16750D02*
Y16690D01*
X21758Y16750D02*
Y16690D01*
X21778Y16750D02*
Y16690D01*
X21798Y16750D02*
Y16690D01*
X21817Y16750D02*
Y16690D01*
X21837Y16750D02*
Y16690D01*
X21857Y16750D02*
Y16690D01*
X21877Y16750D02*
Y16690D01*
X21896Y16750D02*
Y16690D01*
X21916Y16750D02*
Y16690D01*
X21936Y16750D02*
Y16690D01*
X21955Y16750D02*
Y16690D01*
X21975Y16750D02*
Y16690D01*
X21995Y16750D02*
Y16690D01*
X17935Y17454D02*
X17995D01*
X17935Y17435D02*
X17995D01*
X17935Y17415D02*
X17995D01*
X17935Y17395D02*
X17995D01*
X17935Y17376D02*
X17995D01*
X17935Y17356D02*
X17995D01*
X17935Y17336D02*
X17995D01*
X17935Y17317D02*
X17995D01*
X17935Y17297D02*
X17995D01*
X17935Y17277D02*
X17995D01*
X17935Y17257D02*
X17995D01*
X17935Y17238D02*
X17995D01*
X17935Y17218D02*
X17995D01*
X17935Y17198D02*
X17995D01*
X17935Y17179D02*
X17995D01*
X17935Y17159D02*
X17995D01*
X17935Y17139D02*
X17995D01*
X17935Y17120D02*
X17995D01*
X17935Y17100D02*
X17995D01*
X17935Y17080D02*
X17995D01*
X17935Y17060D02*
X17995D01*
X17935Y17041D02*
X17995D01*
X17935Y17021D02*
X17995D01*
X17935Y17001D02*
X17995D01*
X17935Y16982D02*
X17995D01*
X17935Y16962D02*
X17995D01*
X17935Y16942D02*
X17995D01*
X17935Y16923D02*
X17995D01*
X17935Y16903D02*
X17995D01*
X17935Y16883D02*
X17995D01*
X17935Y16863D02*
X17995D01*
X17935Y16844D02*
X17995D01*
X17935Y16824D02*
X17995D01*
X17935Y16804D02*
X17995D01*
X17935Y16785D02*
X17995D01*
X17935Y16765D02*
X17995D01*
X17935Y16745D02*
X17995D01*
X17935Y16726D02*
X17995D01*
X18023Y16635D02*
Y16695D01*
X18043Y16635D02*
Y16695D01*
X18063Y16635D02*
Y16695D01*
X18082Y16635D02*
Y16695D01*
X18102Y16635D02*
Y16695D01*
X18122Y16635D02*
Y16695D01*
X18141Y16635D02*
Y16695D01*
X18161Y16635D02*
Y16695D01*
X18181Y16635D02*
Y16695D01*
X18201Y16635D02*
Y16695D01*
X18220Y16635D02*
Y16695D01*
X18240Y16635D02*
Y16695D01*
X18260Y16635D02*
Y16695D01*
X18279Y16635D02*
Y16695D01*
X18299Y16635D02*
Y16695D01*
X18319Y16635D02*
Y16695D01*
X18338Y16635D02*
Y16695D01*
X18358Y16635D02*
Y16695D01*
X18378Y16635D02*
Y16695D01*
X18398Y16635D02*
Y16695D01*
X18417Y16635D02*
Y16695D01*
X18437Y16635D02*
Y16695D01*
X18457Y16635D02*
Y16695D01*
X18476Y16635D02*
Y16695D01*
X18496Y16635D02*
Y16695D01*
X18516Y16635D02*
Y16695D01*
X18545Y16726D02*
X18605D01*
X18545Y16745D02*
X18605D01*
X18545Y16765D02*
X18605D01*
X18545Y16785D02*
X18605D01*
X18545Y16804D02*
X18605D01*
X18545Y16824D02*
X18605D01*
X18545Y16844D02*
X18605D01*
X18545Y16863D02*
X18605D01*
X18545Y16883D02*
X18605D01*
X18545Y16903D02*
X18605D01*
X18545Y16923D02*
X18605D01*
X18545Y16942D02*
X18605D01*
X18545Y16962D02*
X18605D01*
X18545Y16982D02*
X18605D01*
X18545Y17001D02*
X18605D01*
X18545Y17021D02*
X18605D01*
X18545Y17041D02*
X18605D01*
X18545Y17060D02*
X18605D01*
X18545Y17080D02*
X18605D01*
X18545Y17100D02*
X18605D01*
X18545Y17120D02*
X18605D01*
X18545Y17139D02*
X18605D01*
X18545Y17159D02*
X18605D01*
X18545Y17179D02*
X18605D01*
X18545Y17198D02*
X18605D01*
X18545Y17218D02*
X18605D01*
X18545Y17238D02*
X18605D01*
X18545Y17257D02*
X18605D01*
X18545Y17277D02*
X18605D01*
X18545Y17297D02*
X18605D01*
X18545Y17317D02*
X18605D01*
X18545Y17336D02*
X18605D01*
X18545Y17356D02*
X18605D01*
X18545Y17376D02*
X18605D01*
X18545Y17395D02*
X18605D01*
X18545Y17415D02*
X18605D01*
X18545Y17435D02*
X18605D01*
X18545Y17454D02*
X18605D01*
X18516Y17485D02*
Y17545D01*
X18496Y17485D02*
Y17545D01*
X18476Y17485D02*
Y17545D01*
X18457Y17485D02*
Y17545D01*
X18437Y17485D02*
Y17545D01*
X18417Y17485D02*
Y17545D01*
X18398Y17485D02*
Y17545D01*
X18378Y17485D02*
Y17545D01*
X18358Y17485D02*
Y17545D01*
X18338Y17485D02*
Y17545D01*
X18319Y17485D02*
Y17545D01*
X18299Y17485D02*
Y17545D01*
X18279Y17485D02*
Y17545D01*
X18260Y17485D02*
Y17545D01*
X18240Y17485D02*
Y17545D01*
X18220Y17485D02*
Y17545D01*
X18201Y17485D02*
Y17545D01*
X18181Y17485D02*
Y17545D01*
X18161Y17485D02*
Y17545D01*
X18141Y17485D02*
Y17545D01*
X18122Y17485D02*
Y17545D01*
X18102Y17485D02*
Y17545D01*
X18082Y17485D02*
Y17545D01*
X18063Y17485D02*
Y17545D01*
X18043Y17485D02*
Y17545D01*
X18023Y17485D02*
Y17545D01*
X19295Y17688D02*
X19365D01*
X19295Y17668D02*
X19365D01*
X19295Y17649D02*
X19365D01*
X19295Y17629D02*
X19365D01*
X19295Y17609D02*
X19365D01*
X19295Y17590D02*
X19365D01*
X19295Y17570D02*
X19365D01*
X19295Y17550D02*
X19365D01*
X19295Y17531D02*
X19365D01*
X19295Y17511D02*
X19365D01*
X19295Y17491D02*
X19365D01*
X19295Y17471D02*
X19365D01*
X19295Y17452D02*
X19365D01*
X19295Y17432D02*
X19365D01*
X19295Y17412D02*
X19365D01*
X19295Y17393D02*
X19365D01*
X19295Y17373D02*
X19365D01*
X19295Y17353D02*
X19365D01*
X19295Y17334D02*
X19365D01*
X19295Y17314D02*
X19365D01*
X19295Y17294D02*
X19365D01*
X19295Y17274D02*
X19365D01*
X19295Y17255D02*
X19365D01*
X19295Y17235D02*
X19365D01*
X19295Y17215D02*
X19365D01*
X19295Y17196D02*
X19365D01*
X19295Y17176D02*
X19365D01*
X19295Y17156D02*
X19365D01*
X19295Y17137D02*
X19365D01*
X19295Y17117D02*
X19365D01*
X19295Y17097D02*
X19365D01*
X19295Y17077D02*
X19365D01*
X19295Y17058D02*
X19365D01*
X19295Y17038D02*
X19365D01*
X19295Y17018D02*
X19365D01*
X19295Y16999D02*
X19365D01*
X19295Y16979D02*
X19365D01*
X19295Y16959D02*
X19365D01*
X19295Y16940D02*
X19365D01*
X19295Y16920D02*
X19365D01*
X19295Y16900D02*
X19365D01*
X19295Y16880D02*
X19365D01*
X19295Y16861D02*
X19365D01*
X19295Y16841D02*
X19365D01*
X19295Y16821D02*
X19365D01*
X19295Y16802D02*
X19365D01*
X19295Y16782D02*
X19365D01*
X19295Y16762D02*
X19365D01*
X19295Y16743D02*
X19365D01*
X19295Y16723D02*
X19365D01*
X19295Y16703D02*
X19365D01*
X19295Y16683D02*
X19365D01*
X19295Y16664D02*
X19365D01*
X19295Y16644D02*
X19365D01*
X19295Y16624D02*
X19365D01*
X19295Y16605D02*
X19365D01*
X19295Y16585D02*
X19365D01*
X19295Y16565D02*
X19365D01*
X19295Y16546D02*
X19365D01*
X19295Y16526D02*
X19365D01*
X19408Y16412D02*
Y16482D01*
X19428Y16412D02*
Y16482D01*
X19448Y16412D02*
Y16482D01*
X19467Y16412D02*
Y16482D01*
X19487Y16412D02*
Y16482D01*
X19507Y16412D02*
Y16482D01*
X19527Y16412D02*
Y16482D01*
X19546Y16412D02*
Y16482D01*
X19566Y16412D02*
Y16482D01*
X19586Y16412D02*
Y16482D01*
X19605Y16412D02*
Y16482D01*
X19625Y16412D02*
Y16482D01*
X19645Y16412D02*
Y16482D01*
X19664Y16412D02*
Y16482D01*
X19684Y16412D02*
Y16482D01*
X19704Y16412D02*
Y16482D01*
X19724Y16412D02*
Y16482D01*
X19743Y16412D02*
Y16482D01*
X19763Y16412D02*
Y16482D01*
X19783Y16412D02*
Y16482D01*
X19802Y16412D02*
Y16482D01*
X19822Y16412D02*
Y16482D01*
X19842Y16412D02*
Y16482D01*
X19861Y16412D02*
Y16482D01*
X19881Y16412D02*
Y16482D01*
X19901Y16412D02*
Y16482D01*
X19921Y16412D02*
Y16482D01*
X19940Y16412D02*
Y16482D01*
X19960Y16412D02*
Y16482D01*
X19980Y16412D02*
Y16482D01*
X19999Y16412D02*
Y16482D01*
X20019Y16412D02*
Y16482D01*
X20039Y16412D02*
Y16482D01*
X20058Y16412D02*
Y16482D01*
X20078Y16412D02*
Y16482D01*
X20098Y16412D02*
Y16482D01*
X20118Y16412D02*
Y16482D01*
X20137Y16412D02*
Y16482D01*
X20157Y16412D02*
Y16482D01*
X20177Y16412D02*
Y16482D01*
X20196Y16412D02*
Y16482D01*
X20216Y16412D02*
Y16482D01*
X20236Y16412D02*
Y16482D01*
X20255Y16412D02*
Y16482D01*
X20275Y16412D02*
Y16482D01*
X20295Y16412D02*
Y16482D01*
X20315Y16412D02*
Y16482D01*
X20334Y16412D02*
Y16482D01*
X20354Y16412D02*
Y16482D01*
X20374Y16412D02*
Y16482D01*
X20393Y16412D02*
Y16482D01*
X20413Y16412D02*
Y16482D01*
X20433Y16412D02*
Y16482D01*
X20452Y16412D02*
Y16482D01*
X20472Y16412D02*
Y16482D01*
X20492Y16412D02*
Y16482D01*
X20512Y16412D02*
Y16482D01*
X20531Y16412D02*
Y16482D01*
X20551Y16412D02*
Y16482D01*
X20571Y16412D02*
Y16482D01*
X20615Y16526D02*
X20685D01*
X20615Y16546D02*
X20685D01*
X20615Y16565D02*
X20685D01*
X20615Y16585D02*
X20685D01*
X20615Y16605D02*
X20685D01*
X20615Y16624D02*
X20685D01*
X20615Y16644D02*
X20685D01*
X20615Y16664D02*
X20685D01*
X20615Y16683D02*
X20685D01*
X20615Y16703D02*
X20685D01*
X20615Y16723D02*
X20685D01*
X20615Y16743D02*
X20685D01*
X20615Y16762D02*
X20685D01*
X20615Y16782D02*
X20685D01*
X20615Y16802D02*
X20685D01*
X20615Y16821D02*
X20685D01*
X20615Y16841D02*
X20685D01*
X20615Y16861D02*
X20685D01*
X20615Y16880D02*
X20685D01*
X20615Y16900D02*
X20685D01*
X20615Y16920D02*
X20685D01*
X20615Y16940D02*
X20685D01*
X20615Y16959D02*
X20685D01*
X20615Y16979D02*
X20685D01*
X20615Y16999D02*
X20685D01*
X20615Y17018D02*
X20685D01*
X20615Y17038D02*
X20685D01*
X20615Y17058D02*
X20685D01*
X20615Y17077D02*
X20685D01*
X20615Y17097D02*
X20685D01*
X20615Y17117D02*
X20685D01*
X20615Y17137D02*
X20685D01*
X20615Y17156D02*
X20685D01*
X20615Y17176D02*
X20685D01*
X20615Y17196D02*
X20685D01*
X20615Y17215D02*
X20685D01*
X20615Y17235D02*
X20685D01*
X20615Y17255D02*
X20685D01*
X20615Y17274D02*
X20685D01*
X20615Y17294D02*
X20685D01*
X20615Y17314D02*
X20685D01*
X20615Y17334D02*
X20685D01*
X20615Y17353D02*
X20685D01*
X20615Y17373D02*
X20685D01*
X20615Y17393D02*
X20685D01*
X20615Y17412D02*
X20685D01*
X20615Y17432D02*
X20685D01*
X20615Y17452D02*
X20685D01*
X20615Y17471D02*
X20685D01*
X20615Y17491D02*
X20685D01*
X20615Y17511D02*
X20685D01*
X20615Y17531D02*
X20685D01*
X20615Y17550D02*
X20685D01*
X20615Y17570D02*
X20685D01*
X20615Y17590D02*
X20685D01*
X20615Y17609D02*
X20685D01*
X20615Y17629D02*
X20685D01*
X20615Y17649D02*
X20685D01*
X20615Y17668D02*
X20685D01*
X20615Y17688D02*
X20685D01*
X20571Y17732D02*
Y17802D01*
X20551Y17732D02*
Y17802D01*
X20531Y17732D02*
Y17802D01*
X20512Y17732D02*
Y17802D01*
X20492Y17732D02*
Y17802D01*
X20472Y17732D02*
Y17802D01*
X20452Y17732D02*
Y17802D01*
X20433Y17732D02*
Y17802D01*
X20413Y17732D02*
Y17802D01*
X20393Y17732D02*
Y17802D01*
X20374Y17732D02*
Y17802D01*
X20354Y17732D02*
Y17802D01*
X20334Y17732D02*
Y17802D01*
X20315Y17732D02*
Y17802D01*
X20295Y17732D02*
Y17802D01*
X20275Y17732D02*
Y17802D01*
X20255Y17732D02*
Y17802D01*
X20236Y17732D02*
Y17802D01*
X20216Y17732D02*
Y17802D01*
X20196Y17732D02*
Y17802D01*
X20177Y17732D02*
Y17802D01*
X20157Y17732D02*
Y17802D01*
X20137Y17732D02*
Y17802D01*
X20118Y17732D02*
Y17802D01*
X20098Y17732D02*
Y17802D01*
X20078Y17732D02*
Y17802D01*
X20058Y17732D02*
Y17802D01*
X20039Y17732D02*
Y17802D01*
X20019Y17732D02*
Y17802D01*
X19999Y17732D02*
Y17802D01*
X19980Y17732D02*
Y17802D01*
X19960Y17732D02*
Y17802D01*
X19940Y17732D02*
Y17802D01*
X19921Y17732D02*
Y17802D01*
X19901Y17732D02*
Y17802D01*
X19881Y17732D02*
Y17802D01*
X19861Y17732D02*
Y17802D01*
X19842Y17732D02*
Y17802D01*
X19822Y17732D02*
Y17802D01*
X19802Y17732D02*
Y17802D01*
X19783Y17732D02*
Y17802D01*
X19763Y17732D02*
Y17802D01*
X19743Y17732D02*
Y17802D01*
X19724Y17732D02*
Y17802D01*
X19704Y17732D02*
Y17802D01*
X19684Y17732D02*
Y17802D01*
X19664Y17732D02*
Y17802D01*
X19645Y17732D02*
Y17802D01*
X19625Y17732D02*
Y17802D01*
X19605Y17732D02*
Y17802D01*
X19586Y17732D02*
Y17802D01*
X19566Y17732D02*
Y17802D01*
X19546Y17732D02*
Y17802D01*
X19527Y17732D02*
Y17802D01*
X19507Y17732D02*
Y17802D01*
X19487Y17732D02*
Y17802D01*
X19467Y17732D02*
Y17802D01*
X19448Y17732D02*
Y17802D01*
X19428Y17732D02*
Y17802D01*
X19408Y17732D02*
Y17802D01*
G54D66*
X17000Y19757D03*
X19450D03*
X17000Y17557D03*
X19050Y17957D03*
X20950D03*
X20550Y19757D03*
X23000D03*
Y17557D03*
X17000Y14457D03*
Y16657D03*
X19450Y14457D03*
X19050Y16257D03*
X23000Y16657D03*
Y14457D03*
X20550D03*
X20950Y16257D03*
G54D70*
X19872Y15350D02*
X19880D01*
X19934D02*
X19942D01*
X19647Y15355D02*
X19639D01*
X19585D02*
X19577D01*
X19950Y18527D02*
X19958D01*
X20012D02*
X20020D01*
X19885D02*
X19877D01*
X19823D02*
X19815D01*
X21145Y16647D02*
X21137D01*
X21083D02*
X21075D01*
X20120Y15397D02*
Y15389D01*
Y15335D02*
Y15327D01*
X21990Y15572D02*
X21998D01*
X22052D02*
X22060D01*
X21480Y15602D02*
Y15594D01*
Y15540D02*
Y15532D01*
X20525Y15617D02*
Y15609D01*
Y15555D02*
Y15547D01*
X20115Y17907D02*
X20123D01*
X20177D02*
X20185D01*
X20010D02*
X20002D01*
X19948D02*
X19940D01*
X21460Y18632D02*
X21468D01*
X21522D02*
X21530D01*
X21385Y18652D02*
X21377D01*
X21323D02*
X21315D01*
X21760Y15602D02*
X21752D01*
X21698D02*
X21690D01*
X18475Y18652D02*
X18467D01*
X18413D02*
X18405D01*
X18555D02*
X18563D01*
X18617D02*
X18625D01*
X18255D02*
X18263D01*
X18317D02*
X18325D01*
X18715Y15612D02*
X18707D01*
X18653D02*
X18645D01*
X18530Y15607D02*
X18522D01*
X18468D02*
X18460D01*
X21300Y16022D02*
X21292D01*
X21238D02*
X21230D01*
X22175Y15957D02*
X22183D01*
X22237D02*
X22245D01*
X22175Y16022D02*
X22183D01*
X22237D02*
X22245D01*
X22195Y18187D02*
X22187D01*
X22133D02*
X22125D01*
X22195Y18247D02*
X22187D01*
X22133D02*
X22125D01*
X22130Y18627D02*
X22122D01*
X22068D02*
X22060D01*
X22200D02*
X22208D01*
X22262D02*
X22270D01*
X17845Y15977D02*
X17837D01*
X17783D02*
X17775D01*
X17760Y16187D02*
Y16179D01*
Y16125D02*
Y16117D01*
X17780Y15617D02*
X17788D01*
X17842D02*
X17850D01*
X17765Y16277D02*
Y16285D01*
Y16339D02*
Y16347D01*
X17810Y18267D02*
X17818D01*
X17872D02*
X17880D01*
X17805Y18607D02*
X17813D01*
X17867D02*
X17875D01*
X22220Y17152D02*
X22212D01*
X22158D02*
X22150D01*
X18000Y17637D02*
X18008D01*
X18062D02*
X18070D01*
X18225Y17642D02*
X18217D01*
X18163D02*
X18155D01*
X18710Y17527D02*
Y17519D01*
Y17465D02*
Y17457D01*
X22020Y16622D02*
X22012D01*
X21958D02*
X21950D01*
X22020Y16582D02*
X22012D01*
X21958D02*
X21950D01*
X21440Y16607D02*
X21432D01*
X21378D02*
X21370D01*
X17825Y17107D02*
X17817D01*
X17763D02*
X17755D01*
X19400Y14712D02*
X19392D01*
X19338D02*
X19330D01*
X20230Y16297D02*
X20222D01*
X20168D02*
X20160D01*
X20110Y16232D02*
X20118D01*
X20172D02*
X20180D01*
X20050D02*
X20042D01*
X19988D02*
X19980D01*
X21190Y15412D02*
X21198D01*
X21252D02*
X21260D01*
X21185Y15477D02*
X21193D01*
X21247D02*
X21255D01*
X20742Y15732D02*
Y15724D01*
Y15670D02*
Y15662D01*
X20647Y15732D02*
Y15724D01*
Y15670D02*
Y15662D01*
X21190Y15327D02*
X21198D01*
X21252D02*
X21260D01*
X20770Y17042D02*
X20778D01*
X20832D02*
X20840D01*
X20770Y17217D02*
X20778D01*
X20832D02*
X20840D01*
X20770Y16982D02*
X20778D01*
X20832D02*
X20840D01*
X19855Y18927D02*
Y18935D01*
Y18989D02*
Y18997D01*
X17755Y17052D02*
X17763D01*
X17817D02*
X17825D01*
X20840Y17097D02*
X20832D01*
X20778D02*
X20770D01*
X21410Y15592D02*
Y15584D01*
Y15530D02*
Y15522D01*
X17850Y17392D02*
Y17400D01*
Y17454D02*
Y17462D01*
X17795D02*
Y17454D01*
Y17400D02*
Y17392D01*
X22210Y16872D02*
Y16864D01*
Y16810D02*
Y16802D01*
X22270D02*
Y16810D01*
Y16864D02*
Y16872D01*
X20565Y18232D02*
X20557D01*
X20503D02*
X20495D01*
X20565Y18282D02*
X20557D01*
X20503D02*
X20495D01*
X20255Y18107D02*
X20263D01*
X20317D02*
X20325D01*
X20840Y17157D02*
X20832D01*
X20778D02*
X20770D01*
X18160Y15472D02*
Y15480D01*
Y15534D02*
Y15542D01*
X18330Y15477D02*
Y15485D01*
Y15539D02*
Y15547D01*
X19950Y18992D02*
X19958D01*
X20012D02*
X20020D01*
X21145Y16582D02*
X21137D01*
X21083D02*
X21075D01*
X18255Y15472D02*
Y15480D01*
Y15534D02*
Y15542D01*
X19950Y18927D02*
X19958D01*
X20012D02*
X20020D01*
X21245Y16612D02*
X21253D01*
X21307D02*
X21315D01*
X20555Y18427D02*
X20547D01*
X20493D02*
X20485D01*
X20234Y15386D02*
Y15378D01*
Y15324D02*
Y15316D01*
X20025Y19065D02*
X20017D01*
X19963D02*
X19955D01*
G54D71*
X18165Y17718D02*
Y17710D01*
X18055Y17718D02*
Y17710D01*
X21485Y16536D02*
Y16528D01*
X21375Y16536D02*
Y16528D01*
X17730Y17476D02*
Y17468D01*
X17620Y17476D02*
Y17468D01*
X17730Y17351D02*
Y17343D01*
X17620Y17351D02*
Y17343D01*
X22335Y16803D02*
Y16811D01*
X22445Y16803D02*
Y16811D01*
X22335Y16893D02*
Y16901D01*
X22445Y16893D02*
Y16901D01*
X20010Y18441D02*
Y18433D01*
X19900Y18441D02*
Y18433D01*
X21164Y16727D02*
Y16735D01*
X21274Y16727D02*
Y16735D01*
G54D72*
X17885Y15307D02*
Y15337D01*
Y15067D02*
Y15097D01*
X18585Y15140D02*
Y15110D01*
Y15380D02*
Y15350D01*
X20225Y18747D02*
X20195D01*
X20465D02*
X20435D01*
X22610Y16367D02*
Y16337D01*
Y16607D02*
Y16577D01*
X17295Y16167D02*
Y16137D01*
Y16407D02*
Y16377D01*
G54D73*
X20350Y14142D03*
G54D74*
X20250D03*
Y14062D03*
X20350D03*
G54D75*
X21350Y15669D02*
Y15737D01*
Y15817D02*
Y15885D01*
X21389Y15669D02*
Y15737D01*
Y15817D02*
Y15885D01*
X21428Y15669D02*
Y15737D01*
Y15817D02*
Y15885D01*
X21468Y15669D02*
Y15737D01*
Y15817D02*
Y15885D01*
X21507Y15669D02*
Y15737D01*
Y15817D02*
Y15885D01*
X21546Y15669D02*
Y15737D01*
Y15817D02*
Y15885D01*
X21586Y15669D02*
Y15737D01*
Y15817D02*
Y15885D01*
X21625Y15669D02*
Y15737D01*
Y15817D02*
Y15885D01*
X21664Y15669D02*
Y15737D01*
Y15817D02*
Y15885D01*
X21704Y15669D02*
Y15737D01*
Y15817D02*
Y15885D01*
X21743Y15669D02*
Y15737D01*
Y15817D02*
Y15885D01*
X21783Y15669D02*
Y15737D01*
Y15817D02*
Y15885D01*
X21822Y15669D02*
Y15737D01*
Y15817D02*
Y15885D01*
X21861Y15669D02*
Y15737D01*
Y15817D02*
Y15885D01*
X21901Y15669D02*
Y15737D01*
Y15817D02*
Y15885D01*
X21940Y15669D02*
Y15737D01*
Y15817D02*
Y15885D01*
X21979Y15669D02*
Y15737D01*
Y15817D02*
Y15885D01*
X22019Y15669D02*
Y15737D01*
Y15817D02*
Y15885D01*
X22058Y15669D02*
Y15737D01*
Y15817D02*
Y15885D01*
X22098Y15669D02*
Y15737D01*
Y15817D02*
Y15885D01*
X22137Y15669D02*
Y15737D01*
Y15817D02*
Y15885D01*
X22176Y15669D02*
Y15737D01*
Y15817D02*
Y15885D01*
X22216Y15669D02*
Y15737D01*
Y15817D02*
Y15885D01*
X22255Y15669D02*
Y15737D01*
Y15817D02*
Y15885D01*
X22294Y15669D02*
Y15737D01*
Y15817D02*
Y15885D01*
X22334Y15669D02*
Y15737D01*
Y15817D02*
Y15885D01*
X22373Y15669D02*
Y15737D01*
Y15817D02*
Y15885D01*
X22412Y15669D02*
Y15737D01*
Y15817D02*
Y15885D01*
X22452Y15669D02*
Y15737D01*
Y15817D02*
Y15885D01*
X22491Y15669D02*
Y15737D01*
Y15817D02*
Y15885D01*
X22531Y15669D02*
Y15737D01*
Y15817D02*
Y15885D01*
X22570Y15669D02*
Y15737D01*
Y15817D02*
Y15885D01*
X21350Y18329D02*
Y18397D01*
Y18477D02*
Y18545D01*
X21389Y18329D02*
Y18397D01*
Y18477D02*
Y18545D01*
X21428Y18329D02*
Y18397D01*
Y18477D02*
Y18545D01*
X21468Y18329D02*
Y18397D01*
Y18477D02*
Y18545D01*
X21507Y18329D02*
Y18397D01*
Y18477D02*
Y18545D01*
X21546Y18329D02*
Y18397D01*
Y18477D02*
Y18545D01*
X21586Y18329D02*
Y18397D01*
Y18477D02*
Y18545D01*
X21625Y18329D02*
Y18397D01*
Y18477D02*
Y18545D01*
X21664Y18329D02*
Y18397D01*
Y18477D02*
Y18545D01*
X21704Y18329D02*
Y18397D01*
Y18477D02*
Y18545D01*
X21743Y18329D02*
Y18397D01*
Y18477D02*
Y18545D01*
X21783Y18329D02*
Y18397D01*
Y18477D02*
Y18545D01*
X21822Y18329D02*
Y18397D01*
Y18477D02*
Y18545D01*
X21861Y18329D02*
Y18397D01*
Y18477D02*
Y18545D01*
X21901Y18329D02*
Y18397D01*
Y18477D02*
Y18545D01*
X21940Y18329D02*
Y18397D01*
Y18477D02*
Y18545D01*
X21979Y18329D02*
Y18397D01*
Y18477D02*
Y18545D01*
X22019Y18329D02*
Y18397D01*
Y18477D02*
Y18545D01*
X22058Y18329D02*
Y18397D01*
Y18477D02*
Y18545D01*
X22098Y18329D02*
Y18397D01*
Y18477D02*
Y18545D01*
X22137Y18329D02*
Y18397D01*
Y18477D02*
Y18545D01*
X22176Y18329D02*
Y18397D01*
Y18477D02*
Y18545D01*
X22216Y18329D02*
Y18397D01*
Y18477D02*
Y18545D01*
X22255Y18329D02*
Y18397D01*
Y18477D02*
Y18545D01*
X22294Y18329D02*
Y18397D01*
Y18477D02*
Y18545D01*
X22334Y18329D02*
Y18397D01*
Y18477D02*
Y18545D01*
X22373Y18329D02*
Y18397D01*
Y18477D02*
Y18545D01*
X22412Y18329D02*
Y18397D01*
Y18477D02*
Y18545D01*
X22452Y18329D02*
Y18397D01*
Y18477D02*
Y18545D01*
X22491Y18329D02*
Y18397D01*
Y18477D02*
Y18545D01*
X22531Y18329D02*
Y18397D01*
Y18477D02*
Y18545D01*
X22570Y18329D02*
Y18397D01*
Y18477D02*
Y18545D01*
X18650D02*
Y18477D01*
Y18397D02*
Y18329D01*
X18610Y18545D02*
Y18477D01*
Y18397D02*
Y18329D01*
X18571Y18545D02*
Y18477D01*
Y18397D02*
Y18329D01*
X18531Y18545D02*
Y18477D01*
Y18397D02*
Y18329D01*
X18492Y18545D02*
Y18477D01*
Y18397D02*
Y18329D01*
X18453Y18545D02*
Y18477D01*
Y18397D02*
Y18329D01*
X18413Y18545D02*
Y18477D01*
Y18397D02*
Y18329D01*
X18374Y18545D02*
Y18477D01*
Y18397D02*
Y18329D01*
X18335Y18545D02*
Y18477D01*
Y18397D02*
Y18329D01*
X18295Y18545D02*
Y18477D01*
Y18397D02*
Y18329D01*
X18256Y18545D02*
Y18477D01*
Y18397D02*
Y18329D01*
X18216Y18545D02*
Y18477D01*
Y18397D02*
Y18329D01*
X18177Y18545D02*
Y18477D01*
Y18397D02*
Y18329D01*
X18138Y18545D02*
Y18477D01*
Y18397D02*
Y18329D01*
X18098Y18545D02*
Y18477D01*
Y18397D02*
Y18329D01*
X18059Y18545D02*
Y18477D01*
Y18397D02*
Y18329D01*
X18020Y18545D02*
Y18477D01*
Y18397D02*
Y18329D01*
X17980Y18545D02*
Y18477D01*
Y18397D02*
Y18329D01*
X17941Y18545D02*
Y18477D01*
Y18397D02*
Y18329D01*
X17901Y18545D02*
Y18477D01*
Y18397D02*
Y18329D01*
X17862Y18545D02*
Y18477D01*
Y18397D02*
Y18329D01*
X17823Y18545D02*
Y18477D01*
Y18397D02*
Y18329D01*
X17783Y18545D02*
Y18477D01*
Y18397D02*
Y18329D01*
X17744Y18545D02*
Y18477D01*
Y18397D02*
Y18329D01*
X17705Y18545D02*
Y18477D01*
Y18397D02*
Y18329D01*
X17665Y18545D02*
Y18477D01*
Y18397D02*
Y18329D01*
X17626Y18545D02*
Y18477D01*
Y18397D02*
Y18329D01*
X17587Y18545D02*
Y18477D01*
Y18397D02*
Y18329D01*
X17547Y18545D02*
Y18477D01*
Y18397D02*
Y18329D01*
X17508Y18545D02*
Y18477D01*
Y18397D02*
Y18329D01*
X17468Y18545D02*
Y18477D01*
Y18397D02*
Y18329D01*
X17429Y18545D02*
Y18477D01*
Y18397D02*
Y18329D01*
X18650Y15895D02*
Y15827D01*
Y15747D02*
Y15679D01*
X18610Y15895D02*
Y15827D01*
Y15747D02*
Y15679D01*
X18571Y15895D02*
Y15827D01*
Y15747D02*
Y15679D01*
X18531Y15895D02*
Y15827D01*
Y15747D02*
Y15679D01*
X18492Y15895D02*
Y15827D01*
Y15747D02*
Y15679D01*
X18453Y15895D02*
Y15827D01*
Y15747D02*
Y15679D01*
X18413Y15895D02*
Y15827D01*
Y15747D02*
Y15679D01*
X18374Y15895D02*
Y15827D01*
Y15747D02*
Y15679D01*
X18335Y15895D02*
Y15827D01*
Y15747D02*
Y15679D01*
X18295Y15895D02*
Y15827D01*
Y15747D02*
Y15679D01*
X18256Y15895D02*
Y15827D01*
Y15747D02*
Y15679D01*
X18216Y15895D02*
Y15827D01*
Y15747D02*
Y15679D01*
X18177Y15895D02*
Y15827D01*
Y15747D02*
Y15679D01*
X18138Y15895D02*
Y15827D01*
Y15747D02*
Y15679D01*
X18098Y15895D02*
Y15827D01*
Y15747D02*
Y15679D01*
X18059Y15895D02*
Y15827D01*
Y15747D02*
Y15679D01*
X18020Y15895D02*
Y15827D01*
Y15747D02*
Y15679D01*
X17980Y15895D02*
Y15827D01*
Y15747D02*
Y15679D01*
X17941Y15895D02*
Y15827D01*
Y15747D02*
Y15679D01*
X17901Y15895D02*
Y15827D01*
Y15747D02*
Y15679D01*
X17862Y15895D02*
Y15827D01*
Y15747D02*
Y15679D01*
X17823Y15895D02*
Y15827D01*
Y15747D02*
Y15679D01*
X17783Y15895D02*
Y15827D01*
Y15747D02*
Y15679D01*
X17744Y15895D02*
Y15827D01*
Y15747D02*
Y15679D01*
X17705Y15895D02*
Y15827D01*
Y15747D02*
Y15679D01*
X17665Y15895D02*
Y15827D01*
Y15747D02*
Y15679D01*
X17626Y15895D02*
Y15827D01*
Y15747D02*
Y15679D01*
X17587Y15895D02*
Y15827D01*
Y15747D02*
Y15679D01*
X17547Y15895D02*
Y15827D01*
Y15747D02*
Y15679D01*
X17508Y15895D02*
Y15827D01*
Y15747D02*
Y15679D01*
X17468Y15895D02*
Y15827D01*
Y15747D02*
Y15679D01*
X17429Y15895D02*
Y15827D01*
Y15747D02*
Y15679D01*
G54D76*
X21283Y15777D03*
X22637D03*
X21283Y18437D03*
X22637D03*
X18716D03*
X17362D03*
X18716Y15787D03*
X17362D03*
G54D77*
X19628Y15472D02*
Y15529D01*
X19654Y15472D02*
Y15529D01*
X19680Y15472D02*
Y15529D01*
X19705Y15472D02*
Y15529D01*
X19731Y15472D02*
Y15529D01*
X19756Y15472D02*
Y15529D01*
X19782Y15472D02*
Y15529D01*
X19808Y15472D02*
Y15529D01*
X19833Y15472D02*
Y15529D01*
X19859Y15472D02*
Y15529D01*
X19884Y15472D02*
Y15529D01*
X19910Y15472D02*
Y15529D01*
X19936Y15472D02*
Y15529D01*
X19961Y15472D02*
Y15529D01*
X19987Y15472D02*
Y15529D01*
X20012Y15472D02*
Y15529D01*
X20038Y15472D02*
Y15529D01*
X20064Y15472D02*
Y15529D01*
X20089Y15472D02*
Y15529D01*
X20115Y15472D02*
Y15529D01*
X20140Y15472D02*
Y15529D01*
X20166Y15472D02*
Y15529D01*
X20192Y15472D02*
Y15529D01*
X20217Y15472D02*
Y15529D01*
X20243Y15472D02*
Y15529D01*
X20268Y15472D02*
Y15529D01*
X20294Y15472D02*
Y15529D01*
X20320Y15472D02*
Y15529D01*
X20345Y15472D02*
Y15529D01*
X20371Y15472D02*
Y15529D01*
X20453Y15564D02*
X20396D01*
X20453Y15589D02*
X20396D01*
X20453Y15615D02*
X20396D01*
X20453Y15641D02*
X20396D01*
X20453Y15666D02*
X20396D01*
X20453Y15692D02*
X20396D01*
X20453Y15717D02*
X20396D01*
X20453Y15743D02*
X20396D01*
X20453Y15769D02*
X20396D01*
X20453Y15794D02*
X20396D01*
X20453Y15820D02*
X20396D01*
X20453Y15845D02*
X20396D01*
X20453Y15871D02*
X20396D01*
X20453Y15897D02*
X20396D01*
X20453Y15922D02*
X20396D01*
X20453Y15948D02*
X20396D01*
X20453Y15973D02*
X20396D01*
X20453Y15999D02*
X20396D01*
X20453Y16025D02*
X20396D01*
X20453Y16050D02*
X20396D01*
X20371Y16085D02*
Y16142D01*
X20345Y16085D02*
Y16142D01*
X20320Y16085D02*
Y16142D01*
X20294Y16085D02*
Y16142D01*
X20268Y16085D02*
Y16142D01*
X20243Y16085D02*
Y16142D01*
X20217Y16085D02*
Y16142D01*
X20192Y16085D02*
Y16142D01*
X20166Y16085D02*
Y16142D01*
X20140Y16085D02*
Y16142D01*
X20115Y16085D02*
Y16142D01*
X20089Y16085D02*
Y16142D01*
X20064Y16085D02*
Y16142D01*
X20038Y16085D02*
Y16142D01*
X20012Y16085D02*
Y16142D01*
X19987Y16085D02*
Y16142D01*
X19961Y16085D02*
Y16142D01*
X19936Y16085D02*
Y16142D01*
X19910Y16085D02*
Y16142D01*
X19884Y16085D02*
Y16142D01*
X19859Y16085D02*
Y16142D01*
X19833Y16085D02*
Y16142D01*
X19808Y16085D02*
Y16142D01*
X19782Y16085D02*
Y16142D01*
X19756Y16085D02*
Y16142D01*
X19731Y16085D02*
Y16142D01*
X19705Y16085D02*
Y16142D01*
X19680Y16085D02*
Y16142D01*
X19654Y16085D02*
Y16142D01*
X19628Y16085D02*
Y16142D01*
X19603Y16050D02*
X19546D01*
X19603Y16025D02*
X19546D01*
X19603Y15999D02*
X19546D01*
X19603Y15973D02*
X19546D01*
X19603Y15948D02*
X19546D01*
X19603Y15922D02*
X19546D01*
X19603Y15897D02*
X19546D01*
X19603Y15871D02*
X19546D01*
X19603Y15845D02*
X19546D01*
X19603Y15820D02*
X19546D01*
X19603Y15794D02*
X19546D01*
X19603Y15769D02*
X19546D01*
X19603Y15743D02*
X19546D01*
X19603Y15717D02*
X19546D01*
X19603Y15692D02*
X19546D01*
X19603Y15666D02*
X19546D01*
X19603Y15641D02*
X19546D01*
X19603Y15615D02*
X19546D01*
X19603Y15589D02*
X19546D01*
X19603Y15564D02*
X19546D01*
X19752Y18596D02*
Y18648D01*
X19777Y18596D02*
Y18648D01*
X19802Y18596D02*
Y18648D01*
X19827Y18596D02*
Y18648D01*
X19852Y18596D02*
Y18648D01*
X19877Y18596D02*
Y18648D01*
X19902Y18596D02*
Y18648D01*
X19927Y18596D02*
Y18648D01*
X19952Y18596D02*
Y18648D01*
X19977Y18596D02*
Y18648D01*
Y18806D02*
Y18858D01*
X19952Y18806D02*
Y18858D01*
X19927Y18806D02*
Y18858D01*
X19902Y18806D02*
Y18858D01*
X19877Y18806D02*
Y18858D01*
X19852Y18806D02*
Y18858D01*
X19827Y18806D02*
Y18858D01*
X19802Y18806D02*
Y18858D01*
X19777Y18806D02*
Y18858D01*
X19752Y18806D02*
Y18858D01*
G54D78*
X21659Y15277D02*
X21596D01*
X21659Y15327D02*
X21596D01*
X21659Y15377D02*
X21596D01*
X21659Y15427D02*
X21596D01*
X21463D02*
X21400D01*
X21463Y15377D02*
X21400D01*
X21463Y15327D02*
X21400D01*
X21463Y15277D02*
X21400D01*
G54D79*
X19865Y18727D03*
G54D80*
X18360Y15347D02*
Y15292D01*
X18260Y15347D02*
Y15292D01*
X18160Y15347D02*
Y15292D01*
G54D81*
X18260Y14992D03*
G54D82*
X19950Y15205D02*
X19810D01*
X19580D02*
X19440D01*
G54D83*
X20203Y18427D02*
X20211D01*
X20203Y18227D02*
X20211D01*
X20369D02*
X20377D01*
X20369Y18427D02*
X20377D01*
G54D84*
X17710Y13657D03*
G54D85*
X17810D03*
X17910D03*
X18010D03*
G54D86*
X19630Y14102D03*
G54D87*
Y13857D03*
X19820Y13982D03*
G54D88*
X19958Y19277D03*
G54D89*
X19858Y19177D03*
X20058D03*
Y19377D03*
X19858D03*
G74*
X0Y0D02*
M02*
