G04 Title: RX Daughterboard, solder mask component side *
G04 Creator: pcb-bin 1.99p *
G04 CreationDate: Tue 01 Mar 2005 01:13:31 AM GMT UTC *
G04 For: matt *
G04 Format: Gerber/RS-274X *
G04 PCB-Dimensions: 330000 250000 *
G04 PCB-Coordinate-Origin: lower left *
%MOIN*%
%FSLAX24Y24*%
%IPPOS*%
%ADD11C,0.0400*%
%ADD12C,0.0250*%
%ADD13C,0.0450*%
%ADD14C,0.0080*%
%ADD15C,0.0280*%
%ADD16C,0.0100*%
%ADD17C,0.0300*%
%ADD18C,0.0600*%
%ADD19C,0.0240*%
%ADD20R,0.0240X0.0240*%
%ADD21R,0.0440X0.0440*%
%ADD22R,0.0300X0.0300*%
%ADD23C,0.0060*%
%ADD24R,0.0480X0.0480*%
%ADD25R,0.0680X0.0680*%
%ADD26R,0.0540X0.0540*%
%ADD27R,0.0970X0.0970*%
%ADD28R,0.1170X0.1170*%
%ADD29R,0.1030X0.1030*%
%ADD30C,0.0200*%
%ADD31R,0.0560X0.0560*%
%ADD32R,0.0860X0.0860*%
%ADD33R,0.0620X0.0620*%
%ADD34R,0.1220X0.1220*%
%ADD35R,0.1520X0.1520*%
%ADD36R,0.1280X0.1280*%
%ADD37R,0.0340X0.0340*%
%ADD38R,0.0640X0.0640*%
%ADD39R,0.0400X0.0400*%
%ADD40R,0.0200X0.0200*%
%ADD41C,0.0720*%
%ADD42C,0.0920X0.0720*%
%ADD43C,0.0920*%
%ADD44C,0.0340*%
%ADD45R,0.0600X0.0600*%
%ADD46R,0.0660X0.0660*%
%ADD47R,0.0900X0.0900X0.0600X0.0600*%
%ADD48R,0.0900X0.0900*%
%ADD49C,0.0660*%
%AMTHERM1*7,0,0,0.0900,0.0600,0.0100,45*%
%ADD50THERM1*%
%ADD51C,0.0900X0.0600*%
%ADD52C,0.0900*%
%ADD53C,0.0500*%
%ADD54R,0.0500X0.0500*%
%ADD55C,0.0750*%
%ADD56C,0.0810*%
%ADD57C,0.0950X0.0750*%
%ADD58C,0.0950*%
%ADD59C,0.0125*%
%AMTHERM2*7,0,0,0.0950,0.0750,0.0125,45*%
%ADD60THERM2*%
%ADD61C,0.1400*%
%ADD62C,0.1460*%
%ADD63C,0.1600X0.1400*%
%ADD64C,0.1600*%
%ADD65C,0.2100*%
%ADD66C,0.2160*%
%AMTHERM3*7,0,0,0.2300,0.2100,0.0500,45*%
%ADD67THERM3*%
%ADD68C,0.2300X0.2100*%
%ADD69C,0.2300*%
%ADD70C,0.0150*%
%ADD71C,0.1320*%
%ADD72C,0.1100*%
%ADD73C,0.1520*%
%ADD74C,0.1520X0.1320*%
%ADD75C,0.0610*%
%ADD76C,0.0610X0.0450*%
%ADD77C,0.0160*%
%AMTHERM4*7,0,0,0.0800,0.0600,0.0160,45*%
%ADD78THERM4*%
%ADD79C,0.0800*%
%ADD80C,0.0800X0.0600*%
%AMTHERM5*7,0,0,0.0800,0.0600,0.0125,45*%
%ADD81THERM5*%
%AMTHERM6*7,0,0,0.0600,0.0400,0.0100,45*%
%ADD82THERM6*%
%ADD83C,0.0600X0.0400*%
%ADD84C,0.0360*%
%ADD85C,0.0560*%
%ADD86C,0.0560X0.0360*%
%AMTHERM7*7,0,0,0.0560,0.0360,0.0080,45*%
%ADD87THERM7*%
%LNGROUP_1*%
%LPD*%
G01X0Y0D02*
G54D41*X14330Y14700D03*
X27873D03*
G54D46*X8900Y22600D03*
G54D49*Y23600D03*
X9900Y22600D03*
Y23600D03*
X10900Y22600D03*
Y23600D03*
X11900Y22600D03*
Y23600D03*
X12900Y22600D03*
Y23600D03*
X13900Y22600D03*
Y23600D03*
X14900Y22600D03*
Y23600D03*
X15900Y22600D03*
Y23600D03*
G54D46*X18450Y22650D03*
G54D49*Y23650D03*
X19450Y22650D03*
Y23650D03*
X20450Y22650D03*
Y23650D03*
X21450Y22650D03*
Y23650D03*
X22450Y22650D03*
Y23650D03*
X23450Y22650D03*
Y23650D03*
X24450Y22650D03*
Y23650D03*
X25450Y22650D03*
Y23650D03*
G54D56*X1470Y4870D03*
X3220D03*
X4970D03*
X6720D03*
X8470D03*
X10220D03*
X11970D03*
X13720D03*
X15470D03*
X17220D03*
X18970D03*
X20720D03*
X22470D03*
X24220D03*
X25970D03*
X27720D03*
X29470D03*
X31220D03*
G54D62*X910Y5890D03*
G54D66*Y19550D03*
X31780D03*
G54D62*Y5890D03*
G54D72*X7000Y1500D03*
X31500D03*
Y23500D03*
M02*
