G04 Title: RX Daughterboard, silkscreen, solder side *
G04 Creator: pcb-bin 1.99p *
G04 CreationDate: Tue 01 Mar 2005 01:13:31 AM GMT UTC *
G04 For: matt *
G04 Format: Gerber/RS-274X *
G04 PCB-Dimensions: 330000 250000 *
G04 PCB-Coordinate-Origin: lower left *
%MOIN*%
%FSLAX24Y24*%
%IPPOS*%
%ADD11C,0.0400*%
%ADD12C,0.0250*%
%ADD13C,0.0450*%
%ADD14C,0.0080*%
%ADD15C,0.0280*%
%ADD16C,0.0100*%
%ADD17C,0.0300*%
%ADD18C,0.0600*%
%ADD19C,0.0240*%
%ADD20R,0.0240X0.0240*%
%ADD21R,0.0440X0.0440*%
%ADD22R,0.0300X0.0300*%
%ADD23C,0.0060*%
%ADD24R,0.0480X0.0480*%
%ADD25R,0.0680X0.0680*%
%ADD26R,0.0540X0.0540*%
%ADD27R,0.0970X0.0970*%
%ADD28R,0.1170X0.1170*%
%ADD29R,0.1030X0.1030*%
%ADD30C,0.0200*%
%ADD31R,0.0560X0.0560*%
%ADD32R,0.0860X0.0860*%
%ADD33R,0.0620X0.0620*%
%ADD34R,0.1220X0.1220*%
%ADD35R,0.1520X0.1520*%
%ADD36R,0.1280X0.1280*%
%ADD37R,0.0340X0.0340*%
%ADD38R,0.0640X0.0640*%
%ADD39R,0.0400X0.0400*%
%ADD40R,0.0200X0.0200*%
%ADD41C,0.0720*%
%ADD42C,0.0920X0.0720*%
%ADD43C,0.0920*%
%ADD44C,0.0340*%
%ADD45R,0.0600X0.0600*%
%ADD46R,0.0660X0.0660*%
%ADD47R,0.0900X0.0900X0.0600X0.0600*%
%ADD48R,0.0900X0.0900*%
%ADD49C,0.0660*%
%AMTHERM1*7,0,0,0.0900,0.0600,0.0100,45*%
%ADD50THERM1*%
%ADD51C,0.0900X0.0600*%
%ADD52C,0.0900*%
%ADD53C,0.0500*%
%ADD54R,0.0500X0.0500*%
%ADD55C,0.0750*%
%ADD56C,0.0810*%
%ADD57C,0.0950X0.0750*%
%ADD58C,0.0950*%
%ADD59C,0.0125*%
%AMTHERM2*7,0,0,0.0950,0.0750,0.0125,45*%
%ADD60THERM2*%
%ADD61C,0.1400*%
%ADD62C,0.1460*%
%ADD63C,0.1600X0.1400*%
%ADD64C,0.1600*%
%ADD65C,0.2100*%
%ADD66C,0.2160*%
%AMTHERM3*7,0,0,0.2300,0.2100,0.0500,45*%
%ADD67THERM3*%
%ADD68C,0.2300X0.2100*%
%ADD69C,0.2300*%
%ADD70C,0.0150*%
%ADD71C,0.1320*%
%ADD72C,0.1100*%
%ADD73C,0.1520*%
%ADD74C,0.1520X0.1320*%
%ADD75C,0.0610*%
%ADD76C,0.0610X0.0450*%
%ADD77C,0.0160*%
%AMTHERM4*7,0,0,0.0800,0.0600,0.0160,45*%
%ADD78THERM4*%
%ADD79C,0.0800*%
%ADD80C,0.0800X0.0600*%
%AMTHERM5*7,0,0,0.0800,0.0600,0.0125,45*%
%ADD81THERM5*%
%AMTHERM6*7,0,0,0.0600,0.0400,0.0100,45*%
%ADD82THERM6*%
%ADD83C,0.0600X0.0400*%
%ADD84C,0.0360*%
%ADD85C,0.0560*%
%ADD86C,0.0560X0.0360*%
%AMTHERM7*7,0,0,0.0560,0.0360,0.0080,45*%
%ADD87THERM7*%
%LNGROUP_1*%
%LPD*%
G01X0Y0D02*
G54D23*X6630Y5680D02*Y6220D01*
X7470D01*
Y5680D01*
X6630D01*
G04 Text: C107 *
G54D14*X5250Y6180D02*X5400D01*
X5200Y6130D02*X5250Y6180D01*
X5200Y5830D02*Y6130D01*
Y5830D02*X5250Y5780D01*
X5400D01*
X5570Y6180D02*X5670D01*
X5620Y5780D02*Y6180D01*
X5520Y5880D02*X5620Y5780D01*
X5790Y6130D02*X5840Y6180D01*
X5790Y5830D02*Y6130D01*
Y5830D02*X5840Y5780D01*
X5940D01*
X5990Y5830D01*
Y6130D01*
X5940Y6180D02*X5990Y6130D01*
X5840Y6180D02*X5940D01*
X5790Y6080D02*X5990Y5880D01*
X6110Y6180D02*X6360Y5930D01*
Y5780D02*Y5930D01*
X6110Y5780D02*X6360D01*
G54D16*X6560Y6410D02*Y7490D01*
X8240D01*
Y6410D01*
X6560D01*
G04 Text: C108 *
G54D14*X5200Y7210D02*X5350D01*
X5150Y7160D02*X5200Y7210D01*
X5150Y6860D02*Y7160D01*
Y6860D02*X5200Y6810D01*
X5350D01*
X5520Y7210D02*X5620D01*
X5570Y6810D02*Y7210D01*
X5470Y6910D02*X5570Y6810D01*
X5740Y7160D02*X5790Y7210D01*
X5740Y6860D02*Y7160D01*
Y6860D02*X5790Y6810D01*
X5890D01*
X5940Y6860D01*
Y7160D01*
X5890Y7210D02*X5940Y7160D01*
X5790Y7210D02*X5890D01*
X5740Y7110D02*X5940Y6910D01*
X6060Y7160D02*X6110Y7210D01*
X6060Y7060D02*Y7160D01*
Y7060D02*X6110Y7010D01*
X6210D01*
X6260Y7060D01*
Y7160D01*
X6210Y7210D02*X6260Y7160D01*
X6110Y7210D02*X6210D01*
X6060Y6960D02*X6110Y7010D01*
X6060Y6860D02*Y6960D01*
Y6860D02*X6110Y6810D01*
X6210D01*
X6260Y6860D01*
Y6960D01*
X6210Y7010D02*X6260Y6960D01*
G54D23*X15330Y5380D02*Y5920D01*
X16170D01*
Y5380D01*
X15330D01*
G04 Text: C105 *
G54D14*X16350Y5930D02*X16500D01*
X16300Y5880D02*X16350Y5930D01*
X16300Y5580D02*Y5880D01*
Y5580D02*X16350Y5530D01*
X16500D01*
X16670Y5930D02*X16770D01*
X16720Y5530D02*Y5930D01*
X16620Y5630D02*X16720Y5530D01*
X16890Y5880D02*X16940Y5930D01*
X16890Y5580D02*Y5880D01*
Y5580D02*X16940Y5530D01*
X17040D01*
X17090Y5580D01*
Y5880D01*
X17040Y5930D02*X17090Y5880D01*
X16940Y5930D02*X17040D01*
X16890Y5830D02*X17090Y5630D01*
X17210Y5530D02*X17410D01*
X17210D02*Y5730D01*
X17260Y5680D01*
X17360D01*
X17410Y5730D01*
Y5880D01*
X17360Y5930D02*X17410Y5880D01*
X17260Y5930D02*X17360D01*
X17210Y5880D02*X17260Y5930D01*
G54D16*X15110Y6060D02*Y7140D01*
X16790D01*
Y6060D01*
X15110D01*
G04 Text: C106 *
G54D14*X17000Y6710D02*X17150D01*
X16950Y6660D02*X17000Y6710D01*
X16950Y6360D02*Y6660D01*
Y6360D02*X17000Y6310D01*
X17150D01*
X17320Y6710D02*X17420D01*
X17370Y6310D02*Y6710D01*
X17270Y6410D02*X17370Y6310D01*
X17540Y6660D02*X17590Y6710D01*
X17540Y6360D02*Y6660D01*
Y6360D02*X17590Y6310D01*
X17690D01*
X17740Y6360D01*
Y6660D01*
X17690Y6710D02*X17740Y6660D01*
X17590Y6710D02*X17690D01*
X17540Y6610D02*X17740Y6410D01*
X18010Y6310D02*X18060Y6360D01*
X17910Y6310D02*X18010D01*
X17860Y6360D02*X17910Y6310D01*
X17860Y6360D02*Y6660D01*
X17910Y6710D01*
X18010Y6510D02*X18060Y6560D01*
X17860Y6510D02*X18010D01*
X17910Y6710D02*X18010D01*
X18060Y6660D01*
Y6560D02*Y6660D01*
G54D23*X22880Y5480D02*Y6020D01*
X23720D01*
Y5480D01*
X22880D01*
G04 Text: C103 *
G54D14*X23520Y5800D02*Y5950D01*
X23570Y5750D02*X23520Y5800D01*
X23570Y5750D02*X23870D01*
X23920Y5800D01*
Y5950D01*
X23520Y6120D02*Y6220D01*
Y6170D02*X23920D01*
X23820Y6070D02*X23920Y6170D01*
X23570Y6340D02*X23520Y6390D01*
X23570Y6340D02*X23870D01*
X23920Y6390D01*
Y6490D01*
X23870Y6540D01*
X23570D02*X23870D01*
X23520Y6490D02*X23570Y6540D01*
X23520Y6390D02*Y6490D01*
X23620Y6340D02*X23820Y6540D01*
X23870Y6660D02*X23920Y6710D01*
Y6810D01*
X23870Y6860D01*
X23570D02*X23870D01*
X23520Y6810D02*X23570Y6860D01*
X23520Y6710D02*Y6810D01*
X23570Y6660D02*X23520Y6710D01*
X23720D02*Y6860D01*
G54D16*X22560Y2810D02*Y3890D01*
X24240D01*
Y2810D01*
X22560D01*
G04 Text: C104 *
G54D14*X24550Y3560D02*X24700D01*
X24500Y3510D02*X24550Y3560D01*
X24500Y3210D02*Y3510D01*
Y3210D02*X24550Y3160D01*
X24700D01*
X24870Y3560D02*X24970D01*
X24920Y3160D02*Y3560D01*
X24820Y3260D02*X24920Y3160D01*
X25090Y3510D02*X25140Y3560D01*
X25090Y3210D02*Y3510D01*
Y3210D02*X25140Y3160D01*
X25240D01*
X25290Y3210D01*
Y3510D01*
X25240Y3560D02*X25290Y3510D01*
X25140Y3560D02*X25240D01*
X25090Y3460D02*X25290Y3260D01*
X25410Y3360D02*X25610Y3160D01*
X25410Y3360D02*X25660D01*
X25610Y3160D02*Y3560D01*
G54D23*X27530Y6320D02*Y5780D01*
Y6320D02*X28370D01*
Y5780D01*
X27530D02*X28370D01*
G04 Text: C101 *
G54D14*X28600Y6280D02*X28750D01*
X28550Y6230D02*X28600Y6280D01*
X28550Y5930D02*Y6230D01*
Y5930D02*X28600Y5880D01*
X28750D01*
X28920Y6280D02*X29020D01*
X28970Y5880D02*Y6280D01*
X28870Y5980D02*X28970Y5880D01*
X29140Y6230D02*X29190Y6280D01*
X29140Y5930D02*Y6230D01*
Y5930D02*X29190Y5880D01*
X29290D01*
X29340Y5930D01*
Y6230D01*
X29290Y6280D02*X29340Y6230D01*
X29190Y6280D02*X29290D01*
X29140Y6180D02*X29340Y5980D01*
X29510Y6280D02*X29610D01*
X29560Y5880D02*Y6280D01*
X29460Y5980D02*X29560Y5880D01*
G54D16*X27310Y7640D02*Y6560D01*
Y7640D02*X28990D01*
Y6560D01*
X27310D02*X28990D01*
G04 Text: C102 *
G54D14*X29200Y7260D02*X29350D01*
X29150Y7210D02*X29200Y7260D01*
X29150Y6910D02*Y7210D01*
Y6910D02*X29200Y6860D01*
X29350D01*
X29520Y7260D02*X29620D01*
X29570Y6860D02*Y7260D01*
X29470Y6960D02*X29570Y6860D01*
X29740Y7210D02*X29790Y7260D01*
X29740Y6910D02*Y7210D01*
Y6910D02*X29790Y6860D01*
X29890D01*
X29940Y6910D01*
Y7210D01*
X29890Y7260D02*X29940Y7210D01*
X29790Y7260D02*X29890D01*
X29740Y7160D02*X29940Y6960D01*
X30060Y6910D02*X30110Y6860D01*
X30260D01*
X30310Y6910D01*
Y7010D01*
X30060Y7260D02*X30310Y7010D01*
X30060Y7260D02*X30310D01*
G54D23*X12480Y14870D02*X13020D01*
Y14030D01*
X12480D02*X13020D01*
X12480Y14870D02*Y14030D01*
G04 Text: C83 *
G54D14*X12600Y13780D02*X12750D01*
X12550Y13730D02*X12600Y13780D01*
X12550Y13430D02*Y13730D01*
Y13430D02*X12600Y13380D01*
X12750D01*
X12870Y13730D02*X12920Y13780D01*
X12870Y13630D02*Y13730D01*
Y13630D02*X12920Y13580D01*
X13020D01*
X13070Y13630D01*
Y13730D01*
X13020Y13780D02*X13070Y13730D01*
X12920Y13780D02*X13020D01*
X12870Y13530D02*X12920Y13580D01*
X12870Y13430D02*Y13530D01*
Y13430D02*X12920Y13380D01*
X13020D01*
X13070Y13430D01*
Y13530D01*
X13020Y13580D02*X13070Y13530D01*
X13190Y13430D02*X13240Y13380D01*
X13340D01*
X13390Y13430D01*
Y13730D01*
X13340Y13780D02*X13390Y13730D01*
X13240Y13780D02*X13340D01*
X13190Y13730D02*X13240Y13780D01*
Y13580D02*X13390D01*
G54D30*X6730Y12820D02*X8470D01*
G54D16*X6730D02*X6480Y13300D01*
Y16280D02*Y13300D01*
Y16280D02*X8720D01*
Y13300D01*
X8470Y12820D01*
G04 Text: C82 *
G54D14*X7050Y12520D02*X7200D01*
X7000Y12470D02*X7050Y12520D01*
X7000Y12170D02*Y12470D01*
Y12170D02*X7050Y12120D01*
X7200D01*
X7320Y12470D02*X7370Y12520D01*
X7320Y12370D02*Y12470D01*
Y12370D02*X7370Y12320D01*
X7470D01*
X7520Y12370D01*
Y12470D01*
X7470Y12520D02*X7520Y12470D01*
X7370Y12520D02*X7470D01*
X7320Y12270D02*X7370Y12320D01*
X7320Y12170D02*Y12270D01*
Y12170D02*X7370Y12120D01*
X7470D01*
X7520Y12170D01*
Y12270D01*
X7470Y12320D02*X7520Y12270D01*
X7640Y12170D02*X7690Y12120D01*
X7840D01*
X7890Y12170D01*
Y12270D01*
X7640Y12520D02*X7890Y12270D01*
X7640Y12520D02*X7890D01*
G54D16*X12200Y16550D02*Y12410D01*
X9350D02*X12200D01*
X9350Y16550D02*Y12410D01*
Y16550D02*X12200D01*
G04 Text: U3 *
G54D14*X11150Y11800D02*Y12150D01*
X11200Y12200D01*
X11300D01*
X11350Y12150D01*
Y11800D02*Y12150D01*
X11470Y11850D02*X11520Y11800D01*
X11620D01*
X11670Y11850D01*
Y12150D01*
X11620Y12200D02*X11670Y12150D01*
X11520Y12200D02*X11620D01*
X11470Y12150D02*X11520Y12200D01*
Y12000D02*X11670D01*
G54D23*X9330Y2680D02*X9870D01*
X9330Y3520D02*Y2680D01*
Y3520D02*X9870D01*
Y2680D01*
G04 Text: R5 *
G54D14*X9200Y2100D02*X9400D01*
X9450Y2150D01*
Y2250D01*
X9400Y2300D02*X9450Y2250D01*
X9250Y2300D02*X9400D01*
X9250Y2100D02*Y2500D01*
Y2300D02*X9450Y2500D01*
X9570Y2100D02*X9770D01*
X9570D02*Y2300D01*
X9620Y2250D01*
X9720D01*
X9770Y2300D01*
Y2450D01*
X9720Y2500D02*X9770Y2450D01*
X9620Y2500D02*X9720D01*
X9570Y2450D02*X9620Y2500D01*
G54D23*X11380Y2030D02*X11920D01*
X11380Y2870D02*Y2030D01*
Y2870D02*X11920D01*
Y2030D01*
G04 Text: R3 *
G54D14*X11200Y1480D02*X11400D01*
X11450Y1530D01*
Y1630D01*
X11400Y1680D02*X11450Y1630D01*
X11250Y1680D02*X11400D01*
X11250Y1480D02*Y1880D01*
Y1680D02*X11450Y1880D01*
X11570Y1530D02*X11620Y1480D01*
X11720D01*
X11770Y1530D01*
Y1830D01*
X11720Y1880D02*X11770Y1830D01*
X11620Y1880D02*X11720D01*
X11570Y1830D02*X11620Y1880D01*
Y1680D02*X11770D01*
G54D16*X13450Y3100D02*Y1710D01*
X12170D02*X13450D01*
X12170Y3100D02*Y1710D01*
Y3100D02*X13450D01*
G04 Text: Q2 *
G54D14*X12500Y1220D02*Y1520D01*
Y1220D02*X12550Y1170D01*
X12650D01*
X12700Y1220D01*
Y1520D01*
X12650Y1570D02*X12700Y1520D01*
X12550Y1570D02*X12650D01*
X12500Y1520D02*X12550Y1570D01*
X12600Y1470D02*X12700Y1570D01*
X12820Y1220D02*X12870Y1170D01*
X13020D01*
X13070Y1220D01*
Y1320D01*
X12820Y1570D02*X13070Y1320D01*
X12820Y1570D02*X13070D01*
G54D23*X25880Y9680D02*Y10220D01*
X26720D01*
Y9680D01*
X25880D01*
G04 Text: R8 *
G54D14*X26900Y9730D02*X27100D01*
X27150Y9780D01*
Y9880D01*
X27100Y9930D02*X27150Y9880D01*
X26950Y9930D02*X27100D01*
X26950Y9730D02*Y10130D01*
Y9930D02*X27150Y10130D01*
X27270Y10080D02*X27320Y10130D01*
X27270Y9980D02*Y10080D01*
Y9980D02*X27320Y9930D01*
X27420D01*
X27470Y9980D01*
Y10080D01*
X27420Y10130D02*X27470Y10080D01*
X27320Y10130D02*X27420D01*
X27270Y9880D02*X27320Y9930D01*
X27270Y9780D02*Y9880D01*
Y9780D02*X27320Y9730D01*
X27420D01*
X27470Y9780D01*
Y9880D01*
X27420Y9930D02*X27470Y9880D01*
G54D23*X24030Y12820D02*Y12280D01*
Y12820D02*X24870D01*
Y12280D01*
X24030D02*X24870D01*
G04 Text: R14 *
G54D14*X25100Y12330D02*X25300D01*
X25350Y12380D01*
Y12480D01*
X25300Y12530D02*X25350Y12480D01*
X25150Y12530D02*X25300D01*
X25150Y12330D02*Y12730D01*
Y12530D02*X25350Y12730D01*
X25520D02*X25620D01*
X25570Y12330D02*Y12730D01*
X25470Y12430D02*X25570Y12330D01*
X25740Y12530D02*X25940Y12330D01*
X25740Y12530D02*X25990D01*
X25940Y12330D02*Y12730D01*
G54D16*X24350Y10650D02*Y8750D01*
X21250D02*X24350D01*
X21250Y10650D02*Y8750D01*
X23050Y10650D02*X24350D01*
X21250D02*X22550D01*
G75*G03X23050Y10650I250J0D01*G01*
G04 Text: U4 *
G54D14*X22450Y8100D02*Y8450D01*
X22500Y8500D01*
X22600D01*
X22650Y8450D01*
Y8100D02*Y8450D01*
X22770Y8300D02*X22970Y8100D01*
X22770Y8300D02*X23020D01*
X22970Y8100D02*Y8500D01*
G54D23*X20680Y11880D02*X21220D01*
X20680Y12720D02*Y11880D01*
Y12720D02*X21220D01*
Y11880D01*
G04 Text: R13 *
G54D14*X19700Y12230D02*X19900D01*
X19950Y12280D01*
Y12380D01*
X19900Y12430D02*X19950Y12380D01*
X19750Y12430D02*X19900D01*
X19750Y12230D02*Y12630D01*
Y12430D02*X19950Y12630D01*
X20120D02*X20220D01*
X20170Y12230D02*Y12630D01*
X20070Y12330D02*X20170Y12230D01*
X20340Y12280D02*X20390Y12230D01*
X20490D01*
X20540Y12280D01*
Y12580D01*
X20490Y12630D02*X20540Y12580D01*
X20390Y12630D02*X20490D01*
X20340Y12580D02*X20390Y12630D01*
Y12430D02*X20540D01*
G54D23*X19830Y10430D02*X20370D01*
X19830Y11270D02*Y10430D01*
Y11270D02*X20370D01*
Y10430D01*
G04 Text: R16 *
G54D14*X20600Y10780D02*X20800D01*
X20850Y10830D01*
Y10930D01*
X20800Y10980D02*X20850Y10930D01*
X20650Y10980D02*X20800D01*
X20650Y10780D02*Y11180D01*
Y10980D02*X20850Y11180D01*
X21020D02*X21120D01*
X21070Y10780D02*Y11180D01*
X20970Y10880D02*X21070Y10780D01*
X21390D02*X21440Y10830D01*
X21290Y10780D02*X21390D01*
X21240Y10830D02*X21290Y10780D01*
X21240Y10830D02*Y11130D01*
X21290Y11180D01*
X21390Y10980D02*X21440Y11030D01*
X21240Y10980D02*X21390D01*
X21290Y11180D02*X21390D01*
X21440Y11130D01*
Y11030D02*Y11130D01*
G54D23*X19830Y9020D02*Y8480D01*
Y9020D02*X20670D01*
Y8480D01*
X19830D02*X20670D01*
G04 Text: C4 *
G54D14*X19950Y8330D02*X20100D01*
X19900Y8280D02*X19950Y8330D01*
X19900Y7980D02*Y8280D01*
Y7980D02*X19950Y7930D01*
X20100D01*
X20220Y8130D02*X20420Y7930D01*
X20220Y8130D02*X20470D01*
X20420Y7930D02*Y8330D01*
G54D23*X24080Y11280D02*X24620D01*
X24080Y12120D02*Y11280D01*
Y12120D02*X24620D01*
Y11280D01*
G04 Text: R12 *
G54D14*X24950Y11480D02*X25150D01*
X25200Y11530D01*
Y11630D01*
X25150Y11680D02*X25200Y11630D01*
X25000Y11680D02*X25150D01*
X25000Y11480D02*Y11880D01*
Y11680D02*X25200Y11880D01*
X25370D02*X25470D01*
X25420Y11480D02*Y11880D01*
X25320Y11580D02*X25420Y11480D01*
X25590Y11530D02*X25640Y11480D01*
X25790D01*
X25840Y11530D01*
Y11630D01*
X25590Y11880D02*X25840Y11630D01*
X25590Y11880D02*X25840D01*
G54D23*X21830Y11030D02*X22370D01*
X21830Y11870D02*Y11030D01*
Y11870D02*X22370D01*
Y11030D01*
G04 Text: R11 *
G54D14*X22500Y11230D02*X22700D01*
X22750Y11280D01*
Y11380D01*
X22700Y11430D02*X22750Y11380D01*
X22550Y11430D02*X22700D01*
X22550Y11230D02*Y11630D01*
Y11430D02*X22750Y11630D01*
X22920D02*X23020D01*
X22970Y11230D02*Y11630D01*
X22870Y11330D02*X22970Y11230D01*
X23190Y11630D02*X23290D01*
X23240Y11230D02*Y11630D01*
X23140Y11330D02*X23240Y11230D01*
G54D23*X24930Y10670D02*X25470D01*
Y9830D02*Y10670D01*
X24930Y9830D02*X25470D01*
X24930D02*Y10670D01*
G04 Text: R7 *
G54D14*X25800Y10450D02*X26000D01*
X26050Y10500D01*
Y10600D01*
X26000Y10650D02*X26050Y10600D01*
X25850Y10650D02*X26000D01*
X25850Y10450D02*Y10850D01*
Y10650D02*X26050Y10850D01*
X26170D02*X26420Y10600D01*
Y10450D02*Y10600D01*
X26170Y10450D02*X26420D01*
G54D16*X13899Y16318D02*Y13018D01*
Y16318D02*X28399D01*
X13899Y13018D02*X28399D01*
Y16318D02*Y13018D01*
G04 Text: J2 *
G54D14*X13199Y14518D02*X13349D01*
Y14868D01*
X13299Y14918D02*X13349Y14868D01*
X13249Y14918D02*X13299D01*
X13199Y14868D02*X13249Y14918D01*
X13469Y14568D02*X13519Y14518D01*
X13669D01*
X13719Y14568D01*
Y14668D01*
X13469Y14918D02*X13719Y14668D01*
X13469Y14918D02*X13719D01*
G54D23*X25920Y17070D02*Y16530D01*
X25080D02*X25920D01*
X25080Y17070D02*Y16530D01*
Y17070D02*X25920D01*
G04 Text: C6 *
G54D14*X24350Y16980D02*X24500D01*
X24300Y16930D02*X24350Y16980D01*
X24300Y16630D02*Y16930D01*
Y16630D02*X24350Y16580D01*
X24500D01*
X24770D02*X24820Y16630D01*
X24670Y16580D02*X24770D01*
X24620Y16630D02*X24670Y16580D01*
X24620Y16630D02*Y16930D01*
X24670Y16980D01*
X24770Y16780D02*X24820Y16830D01*
X24620Y16780D02*X24770D01*
X24670Y16980D02*X24770D01*
X24820Y16930D01*
Y16830D02*Y16930D01*
G54D23*X27480Y16530D02*Y17070D01*
X28320D01*
Y16530D01*
X27480D01*
G04 Text: C5 *
G54D14*X28550Y16980D02*X28700D01*
X28500Y16930D02*X28550Y16980D01*
X28500Y16630D02*Y16930D01*
Y16630D02*X28550Y16580D01*
X28700D01*
X28820D02*X29020D01*
X28820D02*Y16780D01*
X28870Y16730D01*
X28970D01*
X29020Y16780D01*
Y16930D01*
X28970Y16980D02*X29020Y16930D01*
X28870Y16980D02*X28970D01*
X28820Y16930D02*X28870Y16980D01*
G54D23*X16830Y2780D02*X17370D01*
X16830Y3620D02*Y2780D01*
Y3620D02*X17370D01*
Y2780D01*
G04 Text: R2 *
G54D14*X16700Y2230D02*X16900D01*
X16950Y2280D01*
Y2380D01*
X16900Y2430D02*X16950Y2380D01*
X16750Y2430D02*X16900D01*
X16750Y2230D02*Y2630D01*
Y2430D02*X16950Y2630D01*
X17070Y2280D02*X17120Y2230D01*
X17270D01*
X17320Y2280D01*
Y2380D01*
X17070Y2630D02*X17320Y2380D01*
X17070Y2630D02*X17320D01*
G54D23*X14530Y2130D02*X15070D01*
X14530Y2970D02*Y2130D01*
Y2970D02*X15070D01*
Y2130D01*
G04 Text: R1 *
G54D14*X14500Y1580D02*X14700D01*
X14750Y1630D01*
Y1730D01*
X14700Y1780D02*X14750Y1730D01*
X14550Y1780D02*X14700D01*
X14550Y1580D02*Y1980D01*
Y1780D02*X14750Y1980D01*
X14920D02*X15020D01*
X14970Y1580D02*Y1980D01*
X14870Y1680D02*X14970Y1580D01*
G54D16*X16550Y1860D02*Y3250D01*
X15270Y1860D02*X16550D01*
X15270D02*Y3250D01*
X16550D01*
G04 Text: Q1 *
G54D14*X15700Y1320D02*Y1620D01*
Y1320D02*X15750Y1270D01*
X15850D01*
X15900Y1320D01*
Y1620D01*
X15850Y1670D02*X15900Y1620D01*
X15750Y1670D02*X15850D01*
X15700Y1620D02*X15750Y1670D01*
X15800Y1570D02*X15900Y1670D01*
X16070D02*X16170D01*
X16120Y1270D02*Y1670D01*
X16020Y1370D02*X16120Y1270D01*
G54D23*X13780Y2630D02*X14320D01*
X13780Y3470D02*Y2630D01*
Y3470D02*X14320D01*
Y2630D01*
G04 Text: R4 *
G54D14*X13700Y2080D02*X13900D01*
X13950Y2130D01*
Y2230D01*
X13900Y2280D02*X13950Y2230D01*
X13750Y2280D02*X13900D01*
X13750Y2080D02*Y2480D01*
Y2280D02*X13950Y2480D01*
X14070Y2280D02*X14270Y2080D01*
X14070Y2280D02*X14320D01*
X14270Y2080D02*Y2480D01*
G54D23*X26080Y16680D02*X26620D01*
X26080Y17520D02*Y16680D01*
Y17520D02*X26620D01*
Y16680D01*
G04 Text: C2 *
G54D14*X25350Y17830D02*X25500D01*
X25300Y17780D02*X25350Y17830D01*
X25300Y17480D02*Y17780D01*
Y17480D02*X25350Y17430D01*
X25500D01*
X25620Y17480D02*X25670Y17430D01*
X25820D01*
X25870Y17480D01*
Y17580D01*
X25620Y17830D02*X25870Y17580D01*
X25620Y17830D02*X25870D01*
G54D23*X26780Y16680D02*X27320D01*
X26780Y17520D02*Y16680D01*
Y17520D02*X27320D01*
Y16680D01*
G04 Text: C1 *
G54D14*X27600Y17730D02*X27750D01*
X27550Y17680D02*X27600Y17730D01*
X27550Y17380D02*Y17680D01*
Y17380D02*X27600Y17330D01*
X27750D01*
X27920Y17730D02*X28020D01*
X27970Y17330D02*Y17730D01*
X27870Y17430D02*X27970Y17330D01*
G54D16*X17530Y12400D02*X19040D01*
X16520D02*X18030D01*
X16520Y10400D02*Y12400D01*
Y10400D02*X19040D01*
Y12400D01*
X17530D02*G75*G03X18030Y12400I250J0D01*G01*
G04 Text: U1 *
G54D14*X18450Y12550D02*Y12900D01*
X18500Y12950D01*
X18600D01*
X18650Y12900D01*
Y12550D02*Y12900D01*
X18820Y12950D02*X18920D01*
X18870Y12550D02*Y12950D01*
X18770Y12650D02*X18870Y12550D01*
G54D23*X25870Y9420D02*Y8880D01*
X25030D02*X25870D01*
X25030Y9420D02*Y8880D01*
Y9420D02*X25870D01*
G04 Text: C3 *
G54D14*X26250Y9280D02*X26400D01*
X26200Y9230D02*X26250Y9280D01*
X26200Y8930D02*Y9230D01*
Y8930D02*X26250Y8880D01*
X26400D01*
X26520Y8930D02*X26570Y8880D01*
X26670D01*
X26720Y8930D01*
Y9230D01*
X26670Y9280D02*X26720Y9230D01*
X26570Y9280D02*X26670D01*
X26520Y9230D02*X26570Y9280D01*
Y9080D02*X26720D01*
G54D23*X26080Y18520D02*X26620D01*
Y17680D01*
X26080D02*X26620D01*
X26080Y18520D02*Y17680D01*
G04 Text: R17 *
G54D14*X26130Y19450D02*Y19650D01*
Y19450D02*X26180Y19400D01*
X26280D01*
X26330Y19450D02*X26280Y19400D01*
X26330Y19450D02*Y19600D01*
X26130D02*X26530D01*
X26330D02*X26530Y19400D01*
Y19129D02*Y19229D01*
X26130Y19179D02*X26530D01*
X26230Y19279D02*X26130Y19179D01*
X26530Y19009D02*X26280Y18759D01*
X26130D02*X26280D01*
X26130D02*Y19009D01*
G54D23*X26780Y18470D02*X27320D01*
Y17630D01*
X26780D02*X27320D01*
X26780Y18470D02*Y17630D01*
G04 Text: R10 *
G54D14*X26850Y19400D02*Y19600D01*
Y19400D02*X26900Y19350D01*
X27000D01*
X27050Y19400D02*X27000Y19350D01*
X27050Y19400D02*Y19550D01*
X26850D02*X27250D01*
X27050D02*X27250Y19350D01*
Y19079D02*Y19179D01*
X26850Y19129D02*X27250D01*
X26950Y19229D02*X26850Y19129D01*
X27200Y18959D02*X27250Y18909D01*
X26900Y18959D02*X27200D01*
X26900D02*X26850Y18909D01*
Y18809D02*Y18909D01*
Y18809D02*X26900Y18759D01*
X27200D01*
X27250Y18809D02*X27200Y18759D01*
X27250Y18809D02*Y18909D01*
X27150Y18959D02*X26950Y18759D01*
G54D23*X20760Y10220D02*Y9680D01*
X19920D02*X20760D01*
X19920Y10220D02*Y9680D01*
Y10220D02*X20760D01*
G04 Text: R9 *
G54D14*X19200Y9770D02*X19400D01*
X19450Y9820D01*
Y9920D01*
X19400Y9970D02*X19450Y9920D01*
X19250Y9970D02*X19400D01*
X19250Y9770D02*Y10170D01*
Y9970D02*X19450Y10170D01*
X19570D02*X19770Y9970D01*
Y9820D02*Y9970D01*
X19720Y9770D02*X19770Y9820D01*
X19620Y9770D02*X19720D01*
X19570Y9820D02*X19620Y9770D01*
X19570Y9820D02*Y9920D01*
X19620Y9970D01*
X19770D01*
G54D23*X10130Y3520D02*X10670D01*
Y2680D01*
X10130D02*X10670D01*
X10130Y3520D02*Y2680D01*
G04 Text: R6 *
G54D14*X10100Y2100D02*X10300D01*
X10350Y2150D01*
Y2250D01*
X10300Y2300D02*X10350Y2250D01*
X10150Y2300D02*X10300D01*
X10150Y2100D02*Y2500D01*
Y2300D02*X10350Y2500D01*
X10620Y2100D02*X10670Y2150D01*
X10520Y2100D02*X10620D01*
X10470Y2150D02*X10520Y2100D01*
X10470Y2150D02*Y2450D01*
X10520Y2500D01*
X10620Y2300D02*X10670Y2350D01*
X10470Y2300D02*X10620D01*
X10520Y2500D02*X10620D01*
X10670Y2450D01*
Y2350D02*Y2450D01*
G04 Text: BACK SILK *
X26500Y23550D02*X26700D01*
X26750Y23500D01*
Y23400D02*Y23500D01*
X26700Y23350D02*X26750Y23400D01*
X26550Y23350D02*X26700D01*
X26550Y23150D02*Y23550D01*
X26500Y23150D02*X26700D01*
X26750Y23200D01*
Y23300D01*
X26700Y23350D02*X26750Y23300D01*
X26870Y23200D02*Y23550D01*
Y23200D02*X26920Y23150D01*
X27070D01*
X27120Y23200D01*
Y23550D01*
X26870Y23350D02*X27120D01*
X27290Y23550D02*X27440D01*
X27240Y23500D02*X27290Y23550D01*
X27240Y23200D02*Y23500D01*
Y23200D02*X27290Y23150D01*
X27440D01*
X27560D02*Y23550D01*
Y23350D02*X27760Y23150D01*
X27560Y23350D02*X27760Y23550D01*
X28260Y23150D02*X28310Y23200D01*
X28110Y23150D02*X28260D01*
X28060Y23200D02*X28110Y23150D01*
X28060Y23200D02*Y23300D01*
X28110Y23350D01*
X28260D01*
X28310Y23400D01*
Y23500D01*
X28260Y23550D02*X28310Y23500D01*
X28110Y23550D02*X28260D01*
X28060Y23500D02*X28110Y23550D01*
X28430Y23150D02*X28530D01*
X28480D02*Y23550D01*
X28430D02*X28530D01*
X28650Y23150D02*Y23550D01*
X28850D01*
X28970Y23150D02*Y23550D01*
Y23350D02*X29170Y23150D01*
X28970Y23350D02*X29170Y23550D01*
%LNCUTS*%
%LPC*%
G54D65*X910Y19550D03*
X31780D03*
G54D20*X23540Y5840D02*Y5660D01*
G54D24*X22920Y3530D02*Y3170D01*
X23880Y3530D02*Y3170D01*
G54D30*X18660Y12150D02*X18940D01*
G54D40*X18660Y11650D02*X18940D01*
X18660Y11150D02*X18940D01*
X18660Y10650D02*X18940D01*
X16620D02*X16900D01*
X16620Y11150D02*X16900D01*
X16620Y11650D02*X16900D01*
X16620Y12150D02*X16900D01*
M02*
