M48
INCH,TZ
T01C0.020
T02C0.028
T03C0.035
T04C0.040
T05C0.050
T06C0.058
T07C0.110
T08C0.128
%
T01
X021300Y012950
X021700Y016700
X022100Y012250
X021300Y017550
X010150Y001900
X024850Y016700
X026250Y009350
X024150Y008250
X019100Y008550
X020850Y011500
X018750Y009650
X022750Y010500
X017300Y012100
X019450Y011500
X017600Y002150
X019700Y002950
X007950Y016750
X005700Y008650
X005700Y010450
X005700Y012250
X005650Y014050
X005700Y015350
X005650Y017400
X007250Y017500
X008700Y017550
X010400Y017750
X010050Y014500
X005700Y019200
X006300Y020250
T02
X023250Y017050
X014800Y001700
X013950Y009900
T03
X007950Y005900
X022200Y017750
X027900Y015750
X014150Y015900
X016000Y011700
X028850Y006150
X013654Y008900
X014500Y008050
X017250Y006250
X023850Y007300
T04
X008900Y022600
X008900Y023600
X009900Y022600
X009900Y023600
X010900Y022600
X010900Y023600
X011900Y022600
X011900Y023600
X012900Y022600
X012900Y023600
X013900Y022600
X013900Y023600
X014900Y022600
X014900Y023600
X015900Y022600
X015900Y023600
X018450Y022650
X018450Y023650
X019450Y022650
X019450Y023650
X020450Y022650
X020450Y023650
X021450Y022650
X021450Y023650
X022450Y022650
X022450Y023650
X023450Y022650
X023450Y023650
X024450Y022650
X024450Y023650
X025450Y022650
X025450Y023650
T05
X001470Y004870
X003220Y004870
X004970Y004870
X006720Y004870
X008470Y004870
X010220Y004870
X011970Y004870
X013720Y004870
X015470Y004870
X017220Y004870
X018970Y004870
X020720Y004870
X022470Y004870
X024220Y004870
X025970Y004870
X027720Y004870
X029470Y004870
X031220Y004870
T07
X000910Y005890
X000910Y019550
X031780Y019550
X031780Y005890
M30
