G04 Title: RX Daughterboard, solder paste, solder side *
G04 Creator: pcb-bin 1.99p *
G04 CreationDate: Tue 01 Mar 2005 01:13:31 AM GMT UTC *
G04 For: matt *
G04 Format: Gerber/RS-274X *
G04 PCB-Dimensions: 330000 250000 *
G04 PCB-Coordinate-Origin: lower left *
%MOIN*%
%FSLAX24Y24*%
%IPPOS*%
%ADD11C,0.0400*%
%ADD12C,0.0250*%
%ADD13C,0.0450*%
%ADD14C,0.0080*%
%ADD15C,0.0280*%
%ADD16C,0.0100*%
%ADD17C,0.0300*%
%ADD18C,0.0600*%
%ADD19C,0.0240*%
%ADD20R,0.0240X0.0240*%
%ADD21R,0.0440X0.0440*%
%ADD22R,0.0300X0.0300*%
%ADD23C,0.0060*%
%ADD24R,0.0480X0.0480*%
%ADD25R,0.0680X0.0680*%
%ADD26R,0.0540X0.0540*%
%ADD27R,0.0970X0.0970*%
%ADD28R,0.1170X0.1170*%
%ADD29R,0.1030X0.1030*%
%ADD30C,0.0200*%
%ADD31R,0.0560X0.0560*%
%ADD32R,0.0860X0.0860*%
%ADD33R,0.0620X0.0620*%
%ADD34R,0.1220X0.1220*%
%ADD35R,0.1520X0.1520*%
%ADD36R,0.1280X0.1280*%
%ADD37R,0.0340X0.0340*%
%ADD38R,0.0640X0.0640*%
%ADD39R,0.0400X0.0400*%
%ADD40R,0.0200X0.0200*%
%ADD41C,0.0720*%
%ADD42C,0.0920X0.0720*%
%ADD43C,0.0920*%
%ADD44C,0.0340*%
%ADD45R,0.0600X0.0600*%
%ADD46R,0.0660X0.0660*%
%ADD47R,0.0900X0.0900X0.0600X0.0600*%
%ADD48R,0.0900X0.0900*%
%ADD49C,0.0660*%
%AMTHERM1*7,0,0,0.0900,0.0600,0.0100,45*%
%ADD50THERM1*%
%ADD51C,0.0900X0.0600*%
%ADD52C,0.0900*%
%ADD53C,0.0500*%
%ADD54R,0.0500X0.0500*%
%ADD55C,0.0750*%
%ADD56C,0.0810*%
%ADD57C,0.0950X0.0750*%
%ADD58C,0.0950*%
%ADD59C,0.0125*%
%AMTHERM2*7,0,0,0.0950,0.0750,0.0125,45*%
%ADD60THERM2*%
%ADD61C,0.1400*%
%ADD62C,0.1460*%
%ADD63C,0.1600X0.1400*%
%ADD64C,0.1600*%
%ADD65C,0.2100*%
%ADD66C,0.2160*%
%AMTHERM3*7,0,0,0.2300,0.2100,0.0500,45*%
%ADD67THERM3*%
%ADD68C,0.2300X0.2100*%
%ADD69C,0.2300*%
%ADD70C,0.0150*%
%ADD71C,0.1320*%
%ADD72C,0.1100*%
%ADD73C,0.1520*%
%ADD74C,0.1520X0.1320*%
%ADD75C,0.0610*%
%ADD76C,0.0610X0.0450*%
%ADD77C,0.0160*%
%AMTHERM4*7,0,0,0.0800,0.0600,0.0160,45*%
%ADD78THERM4*%
%ADD79C,0.0800*%
%ADD80C,0.0800X0.0600*%
%AMTHERM5*7,0,0,0.0800,0.0600,0.0125,45*%
%ADD81THERM5*%
%AMTHERM6*7,0,0,0.0600,0.0400,0.0100,45*%
%ADD82THERM6*%
%ADD83C,0.0600X0.0400*%
%ADD84C,0.0360*%
%ADD85C,0.0560*%
%ADD86C,0.0560X0.0360*%
%AMTHERM7*7,0,0,0.0560,0.0360,0.0080,45*%
%ADD87THERM7*%
%LNGROUP_1*%
%LPD*%
G01X0Y0D02*
G54D20*X6810Y6040D02*Y5860D01*
X7290Y6040D02*Y5860D01*
G54D24*X6920Y7130D02*Y6770D01*
X7880Y7130D02*Y6770D01*
G54D20*X15510Y5740D02*Y5560D01*
X15990Y5740D02*Y5560D01*
G54D24*X15470Y6780D02*Y6420D01*
X16430Y6780D02*Y6420D01*
G54D20*X23060Y5840D02*Y5660D01*
X23540Y5840D02*Y5660D01*
G54D24*X22920Y3530D02*Y3170D01*
X23880Y3530D02*Y3170D01*
G54D20*X27710Y6140D02*Y5960D01*
X28190Y6140D02*Y5960D01*
G54D24*X27670Y7280D02*Y6920D01*
X28630Y7280D02*Y6920D01*
G54D20*X12660Y14690D02*X12840D01*
X12660Y14210D02*X12840D01*
G54D27*X7210Y13660D02*X7990D01*
X7210Y15540D02*X7990D01*
G54D31*X11680Y13590D02*Y12930D01*
X10780Y13590D02*Y12930D01*
X9870Y13590D02*Y12930D01*
G54D34*X10330Y15700D02*X11230D01*
G54D20*X9510Y2860D02*X9690D01*
X9510Y3340D02*X9690D01*
X11560Y2210D02*X11740D01*
X11560Y2690D02*X11740D01*
G54D37*X13200Y2030D02*Y1970D01*
X12420Y2030D02*Y1970D01*
X12810Y2850D02*Y2790D01*
G54D20*X26060Y10040D02*Y9860D01*
X26540Y10040D02*Y9860D01*
X24210Y12640D02*Y12460D01*
X24690Y12640D02*Y12460D01*
G54D40*X23500Y10450D02*X24150D01*
X23500Y9950D02*X24150D01*
X23500Y9450D02*X24150D01*
X23500Y8950D02*X24150D01*
X21450D02*X22100D01*
X21450Y9450D02*X22100D01*
X21450Y9950D02*X22100D01*
X21450Y10450D02*X22100D01*
G54D20*X20860Y12060D02*X21040D01*
X20860Y12540D02*X21040D01*
X20010Y10610D02*X20190D01*
X20010Y11090D02*X20190D01*
X20010Y8840D02*Y8660D01*
X20490Y8840D02*Y8660D01*
X24260Y11460D02*X24440D01*
X24260Y11940D02*X24440D01*
X22010Y11210D02*X22190D01*
X22010Y11690D02*X22190D01*
X25110Y10490D02*X25290D01*
X25110Y10010D02*X25290D01*
G54D19*X14999Y14428D02*Y13518D01*
X27204Y15881D02*Y14971D01*
X15786Y14428D02*Y13518D01*
X15393Y14428D02*Y13518D01*
X16180Y14428D02*Y13518D01*
X14999Y15881D02*Y14971D01*
X16574Y14428D02*Y13518D01*
X15786Y15881D02*Y14971D01*
X16967Y14428D02*Y13518D01*
X16180Y15881D02*Y14971D01*
X17361Y14428D02*Y13518D01*
X16574Y15881D02*Y14971D01*
X17755Y14428D02*Y13518D01*
X16967Y15881D02*Y14971D01*
X18148Y14428D02*Y13518D01*
X17361Y15881D02*Y14971D01*
X18542Y14428D02*Y13518D01*
X17755Y15881D02*Y14971D01*
X18936Y14428D02*Y13518D01*
X18148Y15881D02*Y14971D01*
X18542Y15881D02*Y14971D01*
X18936Y15881D02*Y14971D01*
X19330Y15881D02*Y14971D01*
X19723Y15881D02*Y14971D01*
X20117Y15881D02*Y14971D01*
X20511Y15881D02*Y14971D01*
X20904Y15881D02*Y14971D01*
X21298Y15881D02*Y14971D01*
X21692Y15881D02*Y14971D01*
X22085Y15881D02*Y14971D01*
X22479Y15881D02*Y14971D01*
X22873Y15881D02*Y14971D01*
X23267Y15881D02*Y14971D01*
X23660Y15881D02*Y14971D01*
X24054Y15881D02*Y14971D01*
X24841Y15881D02*Y14971D01*
X24448Y15881D02*Y14971D01*
X25235Y15881D02*Y14971D01*
X25629Y15881D02*Y14971D01*
X26022Y15881D02*Y14971D01*
X26416Y15881D02*Y14971D01*
X15393Y15881D02*Y14971D01*
X19330Y14428D02*Y13518D01*
X19723Y14428D02*Y13518D01*
X20117Y14428D02*Y13518D01*
X20511Y14428D02*Y13518D01*
X20904Y14428D02*Y13518D01*
X21298Y14428D02*Y13518D01*
X21692Y14428D02*Y13518D01*
X22085Y14428D02*Y13518D01*
X22479Y14428D02*Y13518D01*
X22873Y14428D02*Y13518D01*
X23267Y14428D02*Y13518D01*
X23660Y14428D02*Y13518D01*
X24054Y14428D02*Y13518D01*
X24448Y14428D02*Y13518D01*
X24841Y14428D02*Y13518D01*
X25235Y14428D02*Y13518D01*
X25629Y14428D02*Y13518D01*
X26022Y14428D02*Y13518D01*
X26416Y14428D02*Y13518D01*
X26810Y14428D02*Y13518D01*
X27204Y14428D02*Y13518D01*
X26810Y15881D02*Y14971D01*
G54D20*X25740Y16890D02*Y16710D01*
X25260Y16890D02*Y16710D01*
X27660Y16890D02*Y16710D01*
X28140Y16890D02*Y16710D01*
X17010Y2960D02*X17190D01*
X17010Y3440D02*X17190D01*
X14710Y2310D02*X14890D01*
X14710Y2790D02*X14890D01*
G54D37*X16300Y2180D02*Y2120D01*
X15520Y2180D02*Y2120D01*
X15910Y3000D02*Y2940D01*
G54D20*X13960Y2810D02*X14140D01*
X13960Y3290D02*X14140D01*
X26260Y16860D02*X26440D01*
X26260Y17340D02*X26440D01*
X26960Y16860D02*X27140D01*
X26960Y17340D02*X27140D01*
G54D30*X18660Y12150D02*X18940D01*
G54D40*X18660Y11650D02*X18940D01*
X18660Y11150D02*X18940D01*
X18660Y10650D02*X18940D01*
X16620D02*X16900D01*
X16620Y11150D02*X16900D01*
X16620Y11650D02*X16900D01*
X16620Y12150D02*X16900D01*
G54D20*X25690Y9240D02*Y9060D01*
X25210Y9240D02*Y9060D01*
X26260Y18340D02*X26440D01*
X26260Y17860D02*X26440D01*
X26960Y18290D02*X27140D01*
X26960Y17810D02*X27140D01*
X20580Y10040D02*Y9860D01*
X20100Y10040D02*Y9860D01*
X10310Y3340D02*X10490D01*
X10310Y2860D02*X10490D01*
M02*
