G04 Title: RX Daughterboard, layergroup #2 *
G04 Creator: pcb-bin 1.99q *
G04 CreationDate: Thu Mar  2 20:16:18 2006 UTC *
G04 For: matt *
G04 Format: Gerber/RS-274X *
G04 PCB-Dimensions: 275000 250000 *
G04 PCB-Coordinate-Origin: lower left *
%MOIN*%
%FSLAX24Y24*%
G04 contains layers component (3) *
%IPPOS*%
%ADD11C,0.0080*%
%ADD12C,0.0280*%
%ADD13C,0.0100*%
%ADD14C,0.0300*%
%ADD15R,0.0240X0.0240*%
%ADD16R,0.0440X0.0440*%
%ADD17R,0.0300X0.0300*%
%ADD18C,0.0060*%
%ADD19R,0.0200X0.0200*%
%ADD20R,0.0540X0.0540*%
%ADD21C,0.0200*%
%ADD22C,0.0500*%
%ADD23R,0.0500X0.0500*%
%ADD24R,0.0600X0.0600*%
%ADD25R,0.0660X0.0660*%
%ADD26R,0.0900X0.0900X0.0600X0.0600*%
%ADD27R,0.0900X0.0900*%
%ADD28C,0.0600*%
%ADD29C,0.0660*%
%AMTHERM1*7,0,0,0.0900,0.0600,0.0100,45*%
%ADD30THERM1*%
%ADD31C,0.0900X0.0600*%
%ADD32C,0.0900*%
%ADD33C,0.1200X0.0900*%
%ADD34C,0.1200*%
%ADD35C,0.0150*%
%AMTHERM2*7,0,0,0.1200,0.0900,0.0150,45*%
%ADD36THERM2*%
%ADD37C,0.0720*%
%ADD38C,0.0920X0.0720*%
%ADD39C,0.0920*%
%ADD40C,0.0240*%
%ADD41C,0.0340*%
%ADD42C,0.1320*%
%ADD43C,0.1100*%
%ADD44C,0.1520*%
%ADD45C,0.1520X0.1320*%
%ADD46C,0.0400*%
%ADD47C,0.0600X0.0400*%
%AMTHERM3*7,0,0,0.0600,0.0400,0.0100,45*%
%ADD48THERM3*%
%ADD49C,0.0360*%
%ADD50C,0.0560*%
%ADD51C,0.0560X0.0360*%
%AMTHERM4*7,0,0,0.0560,0.0360,0.0080,45*%
%ADD52THERM4*%
%LNGROUP_1*%
%LPD*%
G01X0Y0D02*
G54D11*X18350Y1900D02*X19100D01*
X18310Y1860D02*X18350Y1900D01*
X18400Y2430D02*Y2800D01*
X18310Y2340D02*X18400Y2430D01*
X13500Y9200D02*X14000Y9700D01*
X13500Y7600D02*Y9200D01*
X13700Y7400D02*X13500Y7600D01*
X12430Y6700D02*X12800D01*
X12240Y6510D02*X12430Y6700D01*
G54D13*X12240Y6690D02*X12330Y6600D01*
X8200Y5140D02*Y5100D01*
X8660Y5600D02*X8200Y5140D01*
G54D11*X23100Y5300D02*X23300D01*
X22900Y5100D02*X23100Y5300D01*
X19850Y7200D02*X20600D01*
X19790Y7260D02*X19850Y7200D01*
X18045Y5500D02*X17300D01*
X18300Y5754D02*X18045Y5500D01*
X18300Y6830D02*Y5754D01*
X18760Y7290D02*X18300Y6830D01*
G54D13*X17150Y5250D02*X17400Y5500D01*
X19350Y6400D02*X19700D01*
X18940Y6810D02*X19350Y6400D01*
X23000Y5800D02*X23400D01*
X22600Y6200D02*X23000Y5800D01*
X16150Y6100D02*X15900D01*
X16500Y5750D02*X16150Y6100D01*
X18860Y7300D02*X19800D01*
X18850Y7290D02*X18860Y7300D01*
X18850Y7720D02*Y7290D01*
X18810Y7760D02*X18850Y7720D01*
X15250Y5600D02*X15700Y5400D01*
X15100Y5750D02*X15250Y5600D01*
X21850Y5800D02*X22400Y5500D01*
X21800Y5850D02*X21850Y5800D01*
X19370Y8800D02*X19500D01*
X18810Y8240D02*X19370Y8800D01*
X19600Y7750D02*Y8800D01*
X19610Y7740D02*X19600Y7750D01*
X23200Y6350D02*Y7700D01*
X21800Y6350D02*Y7710D01*
X16600Y6350D02*Y7360D01*
X16500Y6250D02*X16600Y6350D01*
X15900Y7050D02*Y7300D01*
X15100Y6250D02*X15900Y7050D01*
X22500Y17300D02*X21600D01*
X22900Y16900D02*X22500Y17300D01*
X22900Y9380D02*Y16900D01*
X21710Y8190D02*X22900Y9380D01*
X22600Y17600D02*X21100D01*
X23100Y17100D02*X22600Y17600D01*
X23100Y8230D02*Y17100D01*
X23010Y8140D02*X23100Y8230D01*
X18900Y17400D02*Y17500D01*
X18700Y17200D02*X18900Y17400D01*
X17600Y17200D02*X18700D01*
X17000Y16600D02*X17600Y17200D01*
X17000Y9130D02*Y16600D01*
X15710Y7840D02*X17000Y9130D01*
X19400Y17300D02*Y17600D01*
X19100Y17000D02*X19400Y17300D01*
X17700Y17000D02*X19100D01*
X17200Y16500D02*X17700Y17000D01*
X17200Y8530D02*Y16500D01*
X16510Y7840D02*X17200Y8530D01*
X24150Y6300D02*X23600D01*
X24510Y5940D02*X24150Y6300D01*
X21050D02*X21300D01*
X20590Y5840D02*X21050Y6300D01*
X20970Y4800D02*X21200D01*
X20410Y5360D02*X20970Y4800D01*
X21600Y4030D02*Y4800D01*
X21560Y3990D02*X21600Y4030D01*
X24460Y5460D02*X24600D01*
X23850Y4850D02*X24460Y5460D01*
X24050Y4800D02*X23600D01*
X24410Y4440D02*X24050Y4800D01*
X24400Y3550D02*Y3900D01*
X24410Y3540D02*X24400Y3550D01*
X23300Y3000D02*X24500D01*
X23300Y3650D02*Y3000D01*
X23140Y3810D02*X23300Y3650D01*
X22400Y3600D02*Y2000D01*
X22600Y3800D02*X22400Y3600D01*
X22050Y3800D02*X22600D01*
X22040Y3810D02*X22050Y3800D01*
X17250Y6200D02*X17100D01*
X17710Y5740D02*X17250Y6200D01*
X17500Y4400D02*X18400D01*
X17150Y4750D02*X17500Y4400D01*
X17600Y5200D02*X17900D01*
X17150Y4750D02*X17600Y5200D01*
X15100Y4100D02*X15360D01*
X14450Y4750D02*X15100Y4100D01*
X14270Y4700D02*X14600D01*
X13810Y5160D02*X14270Y4700D01*
X14470Y6300D02*X14500D01*
X13810Y5640D02*X14470Y6300D01*
X18400Y3390D02*Y3860D01*
X18310Y3300D02*X18400Y3390D01*
X17100Y4030D02*Y2900D01*
X16940Y4190D02*X17100Y4030D01*
X15930Y4100D02*X16460D01*
X15840Y4190D02*X15930Y4100D01*
X15900Y2000D02*Y4100D01*
X16050Y1850D02*X15900Y2000D01*
X17100Y2800D02*X18300D01*
X17050Y2850D02*X17100Y2800D01*
X10050Y9700D02*Y10900D01*
X13050Y9750D02*X13610Y10310D01*
X14499D02*X14500Y10310D01*
X7550Y9250D02*Y10150D01*
X7700Y6100D02*X8700D01*
X7050Y8750D02*X7550Y9250D01*
X9200Y11800D02*X9250D01*
X7050Y6750D02*X7700Y6100D01*
X12600Y10080D02*Y9200D01*
Y10080D02*X13030Y10510D01*
X13710Y11801D02*Y11190D01*
Y11801D02*X13919Y12010D01*
X10980Y7100D02*X11030Y7150D01*
X14499Y12590D02*X14639Y12730D01*
X15679D02*X15679Y12730D01*
X15679D01*
X9700Y20950D02*X9150Y21500D01*
X11050Y9750D02*X12010Y10710D01*
X9150Y21500D02*X3700D01*
X12605Y11305D02*X14380Y13080D01*
X16029Y12500D02*Y12960D01*
X14149Y11660D02*X15189D01*
X14149D02*Y11009D01*
X10600Y12700D02*Y9519D01*
X3700Y21500D02*X3250Y21950D01*
X10380Y9300D02*X10349Y9269D01*
X3250Y21950D02*X1600D01*
X10050Y8750D02*Y8969D01*
X9600Y6700D02*X9650Y6650D01*
X9600Y9300D02*Y6700D01*
X10050Y9750D02*X9600Y9300D01*
X10100Y8700D02*Y6650D01*
X10050Y8750D02*X10100Y8700D01*
X8900Y8600D02*Y7100D01*
X9050Y8750D02*X8900Y8600D01*
X8350Y7500D02*Y6900D01*
X8550Y7700D02*X8350Y7500D01*
X8550Y9250D02*Y7700D01*
X9050Y9750D02*X8550Y9250D01*
X13710Y11190D02*X13030Y10510D01*
X8950Y7150D02*X8900Y7100D01*
X8350Y6900D02*X8650Y6600D01*
X10050Y9700D02*Y9750D01*
X10100Y6700D02*X10750Y6050D01*
X11650Y6600D02*X11700Y6550D01*
X10980Y6600D02*X11650D01*
X9600Y6700D02*X10750Y5550D01*
X13919Y12010D03*
X11050Y9750D03*
X11760Y6550D02*X11700D01*
X14499Y12590D03*
X10180Y9100D02*X10349Y9269D01*
X15200Y10310D02*X14500D01*
X10050Y9750D02*Y10000D01*
Y9750D02*Y10000D01*
X13030Y10510D03*
X10380Y9300D02*X10600Y9519D01*
X16050Y1850D02*Y1800D01*
X14380Y13080D02*X15909D01*
X7550Y10150D02*X9200Y11800D01*
X10349Y9269D03*
X11727Y5314D02*X9850Y5300D01*
X12605Y11305D03*
X1600Y21950D02*X1150Y22400D01*
X13610Y10310D02*X14499D01*
X15189Y11660D02*X16029Y12500D01*
X10750Y6100D02*X10700Y6050D01*
X13050Y8750D03*
X7050D02*Y6750D01*
X13263Y7150D02*X13277Y6464D01*
X14499Y12590D02*X13919Y12010D01*
X16029Y12960D02*X15909Y13080D01*
X12240Y6690D02*X12250Y6680D01*
X10050Y8969D02*X10180Y9100D01*
X10380Y9300D03*
X12600Y9200D02*X13050Y8750D01*
X12010Y10710D03*
X9850Y5300D02*X9050Y6100D01*
X10180Y9100D03*
X11030Y7150D02*X12300D01*
X13263Y7150D01*
X13050Y9750D03*
X7000Y6800D02*X7050D01*
X20250Y12950D02*X20650D01*
X13277Y6464D02*X11727Y5314D01*
X15140Y10310D02*X15950Y11450D01*
X8940Y7100D02*Y7150D01*
X10950Y12250D02*X12400D01*
X10900Y12300D02*X11000Y12250D01*
X9050Y6100D02*X8750D01*
X14639Y12730D02*X15679D01*
X12605Y11305D02*X12010Y10710D01*
X10700Y5600D02*Y5550D01*
X20650Y12950D02*X21350Y12250D01*
G04 Text: COMPONENT *
G54D11*X22500Y19800D02*X22650D01*
X22450Y19850D02*X22500Y19800D01*
X22450Y20150D02*Y19850D01*
Y20150D02*X22500Y20200D01*
X22650D01*
X22770Y20150D02*Y19850D01*
Y20150D02*X22820Y20200D01*
X22920D01*
X22970Y20150D01*
Y19850D01*
X22920Y19800D02*X22970Y19850D01*
X22820Y19800D02*X22920D01*
X22770Y19850D02*X22820Y19800D01*
X23090Y20200D02*Y19800D01*
Y20200D02*X23240Y20050D01*
X23390Y20200D01*
Y19800D01*
X23560Y20200D02*Y19800D01*
X23510Y20200D02*X23710D01*
X23760Y20150D01*
Y20050D01*
X23710Y20000D02*X23760Y20050D01*
X23560Y20000D02*X23710D01*
X23880Y20150D02*Y19850D01*
Y20150D02*X23930Y20200D01*
X24030D01*
X24080Y20150D01*
Y19850D01*
X24030Y19800D02*X24080Y19850D01*
X23930Y19800D02*X24030D01*
X23880Y19850D02*X23930Y19800D01*
X24200Y20200D02*Y19800D01*
Y20200D02*Y20150D01*
X24450Y19900D01*
Y20200D02*Y19800D01*
X24570Y20000D02*X24720D01*
X24570Y19800D02*X24770D01*
X24570Y20200D02*Y19800D01*
Y20200D02*X24770D01*
X24890D02*Y19800D01*
Y20200D02*Y20150D01*
X25140Y19900D01*
Y20200D02*Y19800D01*
X25260Y20200D02*X25460D01*
X25360D02*Y19800D01*
G54D24*X1100Y23500D03*
G54D28*X2100D03*
X1100Y22500D03*
X2100D03*
X1100Y21500D03*
X2100D03*
X1100Y20500D03*
X2100D03*
X1100Y19500D03*
X2100D03*
X1100Y18500D03*
X2100D03*
X1100Y17500D03*
X2100D03*
X1100Y16500D03*
X2100D03*
G54D24*X1050Y11750D03*
G54D28*X2050D03*
X1050Y10750D03*
X2050D03*
X1050Y9750D03*
X2050D03*
X1050Y8750D03*
X2050D03*
X1050Y7750D03*
X2050D03*
X1050Y6750D03*
X2050D03*
X1050Y5750D03*
X2050D03*
X1050Y4750D03*
X2050D03*
G54D24*X7050Y8750D03*
G54D28*Y9750D03*
X8050Y8750D03*
Y9750D03*
X9050Y8750D03*
Y9750D03*
X10050Y8750D03*
Y9750D03*
X11050Y8750D03*
Y9750D03*
X12050Y8750D03*
Y9750D03*
X13050Y8750D03*
Y9750D03*
X14050Y8750D03*
Y9750D03*
G54D32*X22350Y1850D03*
X21350Y2850D03*
X23350D03*
X21350Y850D03*
X23350D03*
X16050Y1850D03*
X15050Y2850D03*
X17050D03*
X15050Y850D03*
X17050D03*
G54D24*X18350Y11250D03*
G54D28*Y12250D03*
X19350Y11250D03*
Y12250D03*
X20350Y11250D03*
Y12250D03*
X21350Y11250D03*
Y12250D03*
X22350Y11250D03*
Y12250D03*
G54D24*X7700Y20950D03*
G54D28*Y21950D03*
X8700Y20950D03*
Y21950D03*
X9700Y20950D03*
Y21950D03*
X10700Y20950D03*
Y21950D03*
X11700Y20950D03*
Y21950D03*
X12700Y20950D03*
Y21950D03*
X13700Y20950D03*
Y21950D03*
X14700Y20950D03*
Y21950D03*
X15700Y20950D03*
Y21950D03*
X16700Y20950D03*
Y21950D03*
G54D46*X9250Y11800D03*
X8200Y5100D03*
X22300Y13700D03*
X14149Y11660D03*
X8500Y13500D03*
X20250Y12950D03*
X10600Y12700D03*
X14149Y11009D03*
X16550Y17100D03*
X15679Y12730D03*
X15990Y11460D03*
X12350Y12300D03*
X9950Y10900D03*
X10950Y12300D03*
X8700Y15850D03*
X18800Y17600D03*
X19400D03*
X21100D03*
X21600Y17300D03*
X19600Y8800D03*
X22400Y5500D03*
X15700Y5400D03*
X15900Y6100D03*
X22600Y6200D03*
X19800Y6400D03*
G54D49*X20600Y7200D03*
X22900Y5100D03*
X12800Y6700D03*
X13700Y7400D03*
X19100Y1900D03*
G54D15*X18310Y1860D02*X18490D01*
X18310Y2340D02*X18490D01*
X18310Y2820D02*X18490D01*
X18310Y3300D02*X18490D01*
G54D19*X16500Y4750D02*X17150D01*
X16500Y5250D02*X17150D01*
X16500Y5750D02*X17150D01*
X16500Y6250D02*X17150D01*
X14450D02*X15100D01*
X14450Y5750D02*X15100D01*
X14450Y5250D02*X15100D01*
X14450Y4750D02*X15100D01*
G54D15*X17710Y5260D02*X17890D01*
X17710Y5740D02*X17890D01*
X13810Y5160D02*X13990D01*
X13810Y5640D02*X13990D01*
X18310Y3860D02*X18490D01*
X18310Y4340D02*X18490D01*
X20410Y5360D02*X20590D01*
X20410Y5840D02*X20590D01*
X22040Y3990D02*Y3810D01*
X21560Y3990D02*Y3810D01*
G54D19*X23200Y4850D02*X23850D01*
X23200Y5350D02*X23850D01*
X23200Y5850D02*X23850D01*
X23200Y6350D02*X23850D01*
X21150D02*X21800D01*
X21150Y5850D02*X21800D01*
X21150Y5350D02*X21800D01*
X21150Y4850D02*X21800D01*
G54D21*X8660Y7100D02*X8940D01*
G54D19*X8660Y6600D02*X8940D01*
X8660Y6100D02*X8940D01*
X8660Y5600D02*X8940D01*
X10700D02*X10980D01*
X10700Y6100D02*X10980D01*
X10700Y6600D02*X10980D01*
X10700Y7100D02*X10980D01*
G54D15*X24510Y5460D02*X24690D01*
X24510Y5940D02*X24690D01*
X24410Y3960D02*X24590D01*
X24410Y4440D02*X24590D01*
X15840Y4190D02*Y4010D01*
X15360Y4190D02*Y4010D01*
X12240Y6690D02*Y6510D01*
X11760Y6690D02*Y6510D01*
X15710Y7360D02*X15890D01*
X15710Y7840D02*X15890D01*
X18810Y7760D02*X18990D01*
X18810Y8240D02*X18990D01*
X18760Y6810D02*X18940D01*
X18760Y7290D02*X18940D01*
X19610Y7260D02*X19790D01*
X19610Y7740D02*X19790D01*
X22660Y3990D02*Y3810D01*
X23140Y3990D02*Y3810D01*
X23010Y7660D02*X23190D01*
X23010Y8140D02*X23190D01*
X16510Y7360D02*X16690D01*
X16510Y7840D02*X16690D01*
X21710Y7710D02*X21890D01*
X21710Y8190D02*X21890D01*
X24410Y3060D02*X24590D01*
X24410Y3540D02*X24590D01*
X16460Y4190D02*Y4010D01*
X16940Y4190D02*Y4010D01*
M02*
