G04 Title: RX Daughterboard, solder paste, component side *
G04 Creator: pcb-bin 1.99q *
G04 CreationDate: Thu Mar  2 20:16:21 2006 UTC *
G04 For: matt *
G04 Format: Gerber/RS-274X *
G04 PCB-Dimensions: 275000 250000 *
G04 PCB-Coordinate-Origin: lower left *
%MOIN*%
%FSLAX24Y24*%
%IPPOS*%
%ADD11C,0.0080*%
%ADD12C,0.0280*%
%ADD13C,0.0100*%
%ADD14C,0.0300*%
%ADD15R,0.0240X0.0240*%
%ADD16R,0.0440X0.0440*%
%ADD17R,0.0300X0.0300*%
%ADD18C,0.0060*%
%ADD19R,0.0200X0.0200*%
%ADD20R,0.0540X0.0540*%
%ADD21C,0.0200*%
%ADD22C,0.0500*%
%ADD23R,0.0500X0.0500*%
%ADD24R,0.0600X0.0600*%
%ADD25R,0.0660X0.0660*%
%ADD26R,0.0900X0.0900X0.0600X0.0600*%
%ADD27R,0.0900X0.0900*%
%ADD28C,0.0600*%
%ADD29C,0.0660*%
%AMTHERM1*7,0,0,0.0900,0.0600,0.0100,45*%
%ADD30THERM1*%
%ADD31C,0.0900X0.0600*%
%ADD32C,0.0900*%
%ADD33C,0.1200X0.0900*%
%ADD34C,0.1200*%
%ADD35C,0.0150*%
%AMTHERM2*7,0,0,0.1200,0.0900,0.0150,45*%
%ADD36THERM2*%
%ADD37C,0.0720*%
%ADD38C,0.0920X0.0720*%
%ADD39C,0.0920*%
%ADD40C,0.0240*%
%ADD41C,0.0340*%
%ADD42C,0.1320*%
%ADD43C,0.1100*%
%ADD44C,0.1520*%
%ADD45C,0.1520X0.1320*%
%ADD46C,0.0400*%
%ADD47C,0.0600X0.0400*%
%AMTHERM3*7,0,0,0.0600,0.0400,0.0100,45*%
%ADD48THERM3*%
%ADD49C,0.0360*%
%ADD50C,0.0560*%
%ADD51C,0.0560X0.0360*%
%AMTHERM4*7,0,0,0.0560,0.0360,0.0080,45*%
%ADD52THERM4*%
%LNGROUP_3*%
%LPD*%
G01X0Y0D02*
G54D15*X18310Y1860D02*X18490D01*
X18310Y2340D02*X18490D01*
X18310Y2820D02*X18490D01*
X18310Y3300D02*X18490D01*
G54D19*X16500Y4750D02*X17150D01*
X16500Y5250D02*X17150D01*
X16500Y5750D02*X17150D01*
X16500Y6250D02*X17150D01*
X14450D02*X15100D01*
X14450Y5750D02*X15100D01*
X14450Y5250D02*X15100D01*
X14450Y4750D02*X15100D01*
G54D15*X17710Y5260D02*X17890D01*
X17710Y5740D02*X17890D01*
X13810Y5160D02*X13990D01*
X13810Y5640D02*X13990D01*
X18310Y3860D02*X18490D01*
X18310Y4340D02*X18490D01*
X20410Y5360D02*X20590D01*
X20410Y5840D02*X20590D01*
X22040Y3990D02*Y3810D01*
X21560Y3990D02*Y3810D01*
G54D19*X23200Y4850D02*X23850D01*
X23200Y5350D02*X23850D01*
X23200Y5850D02*X23850D01*
X23200Y6350D02*X23850D01*
X21150D02*X21800D01*
X21150Y5850D02*X21800D01*
X21150Y5350D02*X21800D01*
X21150Y4850D02*X21800D01*
G54D21*X8660Y7100D02*X8940D01*
G54D19*X8660Y6600D02*X8940D01*
X8660Y6100D02*X8940D01*
X8660Y5600D02*X8940D01*
X10700D02*X10980D01*
X10700Y6100D02*X10980D01*
X10700Y6600D02*X10980D01*
X10700Y7100D02*X10980D01*
G54D15*X24510Y5460D02*X24690D01*
X24510Y5940D02*X24690D01*
X24410Y3960D02*X24590D01*
X24410Y4440D02*X24590D01*
X15840Y4190D02*Y4010D01*
X15360Y4190D02*Y4010D01*
X12240Y6690D02*Y6510D01*
X11760Y6690D02*Y6510D01*
X15710Y7360D02*X15890D01*
X15710Y7840D02*X15890D01*
X18810Y7760D02*X18990D01*
X18810Y8240D02*X18990D01*
X18760Y6810D02*X18940D01*
X18760Y7290D02*X18940D01*
X19610Y7260D02*X19790D01*
X19610Y7740D02*X19790D01*
X22660Y3990D02*Y3810D01*
X23140Y3990D02*Y3810D01*
X23010Y7660D02*X23190D01*
X23010Y8140D02*X23190D01*
X16510Y7360D02*X16690D01*
X16510Y7840D02*X16690D01*
X21710Y7710D02*X21890D01*
X21710Y8190D02*X21890D01*
X24410Y3060D02*X24590D01*
X24410Y3540D02*X24590D01*
X16460Y4190D02*Y4010D01*
X16940Y4190D02*Y4010D01*
M02*
