G04 Title: RX Daughterboard, silkscreen, solder side *
G04 Creator: pcb-bin 1.99q *
G04 CreationDate: Thu Mar  2 20:16:20 2006 UTC *
G04 For: matt *
G04 Format: Gerber/RS-274X *
G04 PCB-Dimensions: 275000 250000 *
G04 PCB-Coordinate-Origin: lower left *
%MOIN*%
%FSLAX24Y24*%
%IPPOS*%
%ADD11C,0.0080*%
%ADD12C,0.0280*%
%ADD13C,0.0100*%
%ADD14C,0.0300*%
%ADD15R,0.0240X0.0240*%
%ADD16R,0.0440X0.0440*%
%ADD17R,0.0300X0.0300*%
%ADD18C,0.0060*%
%ADD19R,0.0200X0.0200*%
%ADD20R,0.0540X0.0540*%
%ADD21C,0.0200*%
%ADD22C,0.0500*%
%ADD23R,0.0500X0.0500*%
%ADD24R,0.0600X0.0600*%
%ADD25R,0.0660X0.0660*%
%ADD26R,0.0900X0.0900X0.0600X0.0600*%
%ADD27R,0.0900X0.0900*%
%ADD28C,0.0600*%
%ADD29C,0.0660*%
%AMTHERM1*7,0,0,0.0900,0.0600,0.0100,45*%
%ADD30THERM1*%
%ADD31C,0.0900X0.0600*%
%ADD32C,0.0900*%
%ADD33C,0.1200X0.0900*%
%ADD34C,0.1200*%
%ADD35C,0.0150*%
%AMTHERM2*7,0,0,0.1200,0.0900,0.0150,45*%
%ADD36THERM2*%
%ADD37C,0.0720*%
%ADD38C,0.0920X0.0720*%
%ADD39C,0.0920*%
%ADD40C,0.0240*%
%ADD41C,0.0340*%
%ADD42C,0.1320*%
%ADD43C,0.1100*%
%ADD44C,0.1520*%
%ADD45C,0.1520X0.1320*%
%ADD46C,0.0400*%
%ADD47C,0.0600X0.0400*%
%AMTHERM3*7,0,0,0.0600,0.0400,0.0100,45*%
%ADD48THERM3*%
%ADD49C,0.0360*%
%ADD50C,0.0560*%
%ADD51C,0.0560X0.0360*%
%AMTHERM4*7,0,0,0.0560,0.0360,0.0080,45*%
%ADD52THERM4*%
%LNGROUP_3*%
%LPD*%
G01X0Y0D02*
G54D18*X19180Y16630D02*Y17170D01*
X20020D01*
Y16630D02*Y17170D01*
X19180Y16630D02*X20020D01*
G04 Text: C23 *
G54D11*X19150Y17750D02*X19300D01*
X19100Y17700D02*X19150Y17750D01*
X19100Y17400D02*Y17700D01*
Y17400D02*X19150Y17350D01*
X19300D01*
X19420Y17400D02*X19470Y17350D01*
X19620D01*
X19670Y17400D01*
Y17500D01*
X19420Y17750D02*X19670Y17500D01*
X19420Y17750D02*X19670D01*
X19790Y17400D02*X19840Y17350D01*
X19940D01*
X19990Y17400D01*
Y17700D01*
X19940Y17750D02*X19990Y17700D01*
X19840Y17750D02*X19940D01*
X19790Y17700D02*X19840Y17750D01*
Y17550D02*X19990D01*
G54D18*X19020Y16630D02*Y17170D01*
X18180Y16630D02*X19020D01*
X18180D02*Y17170D01*
X19020D01*
G04 Text: C22 *
G54D11*X18000Y17750D02*X18150D01*
X17950Y17700D02*X18000Y17750D01*
X17950Y17400D02*Y17700D01*
Y17400D02*X18000Y17350D01*
X18150D01*
X18270Y17400D02*X18320Y17350D01*
X18470D01*
X18520Y17400D01*
Y17500D01*
X18270Y17750D02*X18520Y17500D01*
X18270Y17750D02*X18520D01*
X18640Y17400D02*X18690Y17350D01*
X18840D01*
X18890Y17400D01*
Y17500D01*
X18640Y17750D02*X18890Y17500D01*
X18640Y17750D02*X18890D01*
G54D18*X21020Y16630D02*Y17170D01*
X20180Y16630D02*X21020D01*
X20180D02*Y17170D01*
X21020D01*
G04 Text: C26 *
G54D11*X20250Y17700D02*X20400D01*
X20200Y17650D02*X20250Y17700D01*
X20200Y17350D02*Y17650D01*
Y17350D02*X20250Y17300D01*
X20400D01*
X20520Y17350D02*X20570Y17300D01*
X20720D01*
X20770Y17350D01*
Y17450D01*
X20520Y17700D02*X20770Y17450D01*
X20520Y17700D02*X20770D01*
X21040Y17300D02*X21090Y17350D01*
X20940Y17300D02*X21040D01*
X20890Y17350D02*X20940Y17300D01*
X20890Y17350D02*Y17650D01*
X20940Y17700D01*
X21040Y17500D02*X21090Y17550D01*
X20890Y17500D02*X21040D01*
X20940Y17700D02*X21040D01*
X21090Y17650D01*
Y17550D02*Y17650D01*
G54D18*X21180Y16630D02*Y17170D01*
X22020D01*
Y16630D02*Y17170D01*
X21180Y16630D02*X22020D01*
G04 Text: C25 *
G54D11*X21350Y17750D02*X21500D01*
X21300Y17700D02*X21350Y17750D01*
X21300Y17400D02*Y17700D01*
Y17400D02*X21350Y17350D01*
X21500D01*
X21620Y17400D02*X21670Y17350D01*
X21820D01*
X21870Y17400D01*
Y17500D01*
X21620Y17750D02*X21870Y17500D01*
X21620Y17750D02*X21870D01*
X21990Y17350D02*X22190D01*
X21990D02*Y17550D01*
X22040Y17500D01*
X22140D01*
X22190Y17550D01*
Y17700D01*
X22140Y17750D02*X22190Y17700D01*
X22040Y17750D02*X22140D01*
X21990Y17700D02*X22040Y17750D01*
G54D13*X8399Y16318D02*Y13018D01*
Y16318D02*X22899D01*
X8399Y13018D02*X22899D01*
Y16318D02*Y13018D01*
G04 Text: J2 *
G54D11*X7699Y14518D02*X7849D01*
Y14868D01*
X7799Y14918D02*X7849Y14868D01*
X7749Y14918D02*X7799D01*
X7699Y14868D02*X7749Y14918D01*
X7969Y14568D02*X8019Y14518D01*
X8169D01*
X8219Y14568D01*
Y14668D01*
X7969Y14918D02*X8219Y14668D01*
X7969Y14918D02*X8219D01*
G04 Text: BACK SILK *
X22450Y21100D02*X22650D01*
X22700Y21050D01*
Y20950D02*Y21050D01*
X22650Y20900D02*X22700Y20950D01*
X22500Y20900D02*X22650D01*
X22500Y20700D02*Y21100D01*
X22450Y20700D02*X22650D01*
X22700Y20750D01*
Y20850D01*
X22650Y20900D02*X22700Y20850D01*
X22820Y20750D02*Y21100D01*
Y20750D02*X22870Y20700D01*
X23020D01*
X23070Y20750D01*
Y21100D01*
X22820Y20900D02*X23070D01*
X23240Y21100D02*X23390D01*
X23190Y21050D02*X23240Y21100D01*
X23190Y20750D02*Y21050D01*
Y20750D02*X23240Y20700D01*
X23390D01*
X23510D02*Y21100D01*
Y20900D02*X23710Y20700D01*
X23510Y20900D02*X23710Y21100D01*
X24210Y20700D02*X24260Y20750D01*
X24060Y20700D02*X24210D01*
X24010Y20750D02*X24060Y20700D01*
X24010Y20750D02*Y20850D01*
X24060Y20900D01*
X24210D01*
X24260Y20950D01*
Y21050D01*
X24210Y21100D02*X24260Y21050D01*
X24060Y21100D02*X24210D01*
X24010Y21050D02*X24060Y21100D01*
X24380Y20700D02*X24480D01*
X24430D02*Y21100D01*
X24380D02*X24480D01*
X24600Y20700D02*Y21100D01*
X24800D01*
X24920Y20700D02*Y21100D01*
Y20900D02*X25120Y20700D01*
X24920Y20900D02*X25120Y21100D01*
M02*
