G04 Title: RX Daughterboard, layergroup #1 *
G04 Creator: pcb-bin 1.99q *
G04 CreationDate: Thu Mar  2 20:16:18 2006 UTC *
G04 For: matt *
G04 Format: Gerber/RS-274X *
G04 PCB-Dimensions: 275000 250000 *
G04 PCB-Coordinate-Origin: lower left *
%MOIN*%
%FSLAX24Y24*%
G04 contains layers solder (0) *
%IPPOS*%
%ADD11C,0.0080*%
%ADD12C,0.0280*%
%ADD13C,0.0100*%
%ADD14C,0.0300*%
%ADD15R,0.0240X0.0240*%
%ADD16R,0.0440X0.0440*%
%ADD17R,0.0300X0.0300*%
%ADD18C,0.0060*%
%ADD19R,0.0200X0.0200*%
%ADD20R,0.0540X0.0540*%
%ADD21C,0.0200*%
%ADD22C,0.0500*%
%ADD23R,0.0500X0.0500*%
%ADD24R,0.0600X0.0600*%
%ADD25R,0.0660X0.0660*%
%ADD26R,0.0900X0.0900X0.0600X0.0600*%
%ADD27R,0.0900X0.0900*%
%ADD28C,0.0600*%
%ADD29C,0.0660*%
%AMTHERM1*7,0,0,0.0900,0.0600,0.0100,45*%
%ADD30THERM1*%
%ADD31C,0.0900X0.0600*%
%ADD32C,0.0900*%
%ADD33C,0.1200X0.0900*%
%ADD34C,0.1200*%
%ADD35C,0.0150*%
%AMTHERM2*7,0,0,0.1200,0.0900,0.0150,45*%
%ADD36THERM2*%
%ADD37C,0.0720*%
%ADD38C,0.0920X0.0720*%
%ADD39C,0.0920*%
%ADD40C,0.0240*%
%ADD41C,0.0340*%
%ADD42C,0.1320*%
%ADD43C,0.1100*%
%ADD44C,0.1520*%
%ADD45C,0.1520X0.1320*%
%ADD46C,0.0400*%
%ADD47C,0.0600X0.0400*%
%AMTHERM3*7,0,0,0.0600,0.0400,0.0100,45*%
%ADD48THERM3*%
%ADD49C,0.0360*%
%ADD50C,0.0560*%
%ADD51C,0.0560X0.0360*%
%AMTHERM4*7,0,0,0.0560,0.0360,0.0080,45*%
%ADD52THERM4*%
%LNGROUP_0*%
%LPD*%
G01X0Y0D02*
G54D11*X13500Y7400D02*X13700D01*
X12800Y6700D02*X13500Y7400D01*
G54D13*X17792Y16300D02*X18300D01*
X17373Y15881D02*X17792Y16300D01*
X17400Y13545D02*Y15100D01*
X17373Y13518D02*X17400Y13545D01*
G54D11*X20600Y7200D02*X21900Y5900D01*
G54D13*X21300Y17000D02*Y16900D01*
X21600Y17300D02*X21300Y17000D01*
X20900Y17400D02*Y16900D01*
X21100Y17600D02*X20900Y17400D01*
X18840Y17560D02*Y16900D01*
X18800Y17600D02*X18840Y17560D01*
X19360Y15899D02*Y17560D01*
X21840Y16017D02*Y16900D01*
X21704Y15881D02*X21840Y16017D01*
X21360Y15930D02*Y16900D01*
X21310Y15881D02*X21360Y15930D01*
X20840Y15957D02*Y16900D01*
X20916Y15881D02*X20840Y15957D01*
X19700Y16850D02*Y15700D01*
X19840Y16990D02*X19700Y16850D01*
X20360Y16044D02*Y16900D01*
X20522Y15881D02*X20360Y16044D01*
X19400Y17600D02*X19360Y17560D01*
X19341Y15881D02*X19360Y15899D01*
X18900Y15929D02*Y16800D01*
X18948Y15881D02*X18900Y15929D01*
X18360Y16075D02*Y16900D01*
X18554Y15881D02*X18360Y16075D01*
X18160Y15881D02*Y13518D01*
X17767D02*X18149D01*
X17767Y15881D02*X18160D01*
X12500Y9250D02*X12050Y9700D01*
X12500Y8705D02*Y9250D01*
X12955Y8250D02*X12500Y8705D01*
X14300Y8250D02*X12955D01*
X15011Y8961D02*X14300Y8250D01*
X15011Y13518D02*X15011Y8961D01*
X12000Y8650D02*Y8700D01*
X12700Y7950D02*X12000Y8650D01*
X14600Y7950D02*X12700D01*
X15350Y8700D02*X14600Y7950D01*
X15349Y13463D02*X15350Y8700D01*
X15404Y13518D02*X15350Y13444D01*
X13499Y13418D02*X13500Y13600D01*
X12350Y12300D02*X13499Y13418D01*
X10250Y12300D02*X10850D01*
X8550Y10600D02*X10250Y12300D01*
X8550Y9250D02*Y10600D01*
X9050Y8750D02*X8550Y9250D01*
X9600Y10080D03*
X12648Y13518D02*X10050Y10900D01*
X9849Y13518D02*X9893Y13500D01*
X10286Y15718D02*X10250Y15700D01*
X13799Y13280D02*X10719Y10200D01*
X10680Y15718D02*X10700Y15700D01*
X11500Y12700D02*X12255Y13492D01*
X11074Y15718D02*X11100Y15700D01*
X9269Y9750D02*X9600Y10080D01*
X11467Y15818D02*X11450Y15800D01*
X9600Y10080D02*X9919Y10400D01*
X11861Y15718D02*X11950Y15700D01*
X9969Y10400D02*X13009Y13459D01*
X12255Y15768D02*X12250Y15750D01*
X13009Y13486D02*X13043Y13500D01*
X13436Y13505D02*X13450Y13487D01*
X10719Y10200D02*X10600Y10080D01*
X12648Y15718D02*X12700Y15700D01*
X10600Y9200D02*X11050Y8750D01*
X13042Y15418D02*X13050Y15400D01*
X14224Y11084D02*X14150Y11010D01*
X13436Y15718D02*X13450Y15700D01*
G54D11*X22900Y5500D02*Y5100D01*
G54D13*X13830Y15918D02*X13800Y15900D01*
X14500Y9200D02*X14050Y8750D01*
X14223Y15868D02*X14150Y15850D01*
X15799Y12850D02*X15679Y12730D01*
X14617Y15818D02*X14600Y15800D01*
X10250Y13000D02*X10649Y13418D01*
X15011Y15918D02*X15000Y15900D01*
X16192Y13545D02*X16169Y13550D01*
X15404Y15668D02*X15400Y15650D01*
X11700Y20950D02*Y17550D01*
X15798Y15868D02*X15800Y15850D01*
X9893Y13518D02*X9850Y13500D01*
X16192Y15818D02*X16200Y15800D01*
X9850Y12900D02*Y12850D01*
X19341Y15818D02*X19300Y15800D01*
X8050Y8750D02*Y8700D01*
X18948Y15768D02*X18950Y15750D01*
X14223Y13493D02*X14224Y11084D01*
X21704Y15881D02*Y13568D01*
X8050Y8750D02*Y8700D01*
X20916Y15718D02*X20900Y15700D01*
X20350Y11250D02*X20450D01*
X14223Y13493D02*X14250Y13474D01*
X11700Y20950D02*Y21000D01*
X16192Y13518D02*X16200Y13500D01*
X16168Y13568D02*X16150Y13550D01*
X12700Y20950D02*Y20900D01*
X18948Y13518D02*X18950Y13500D01*
X19341Y13518D02*X19350Y13500D01*
X19735Y13468D02*X19750Y13450D01*
X14700Y20950D02*Y20900D01*
X20129Y13518D02*X20150Y13500D01*
X20499Y13518D02*X20523Y13500D01*
X20499Y13368D02*X20500Y13500D01*
X20916Y13518D02*X20900Y13500D01*
X21310Y13518D02*X21300Y13500D01*
X21310Y15868D02*X21300Y15850D01*
X14550Y20950D02*X14700D01*
X5500Y19500D02*X5700D01*
X19749Y14957D02*X19750Y14700D01*
X21700D01*
X14150Y11010D03*
X16585Y15881D02*X16550Y15898D01*
X10649Y13518D02*X11049D01*
X10649Y13418D02*X10650Y13500D01*
X16192Y11660D02*X16069Y11536D01*
X16192Y13518D02*X16192Y11660D01*
X18554Y14971D02*Y14118D01*
X15798Y13518D02*X15799Y12850D01*
X18550Y14700D02*X20217D01*
X14500Y10691D02*Y9200D01*
Y10691D02*X14618Y10810D01*
X14617Y13518D02*X14618Y10810D01*
X20217Y14700D02*X20522Y15025D01*
X14149Y11009D02*X14150Y11010D01*
X14550Y20750D02*Y20950D01*
X8700Y21950D02*X6700Y23950D01*
X10600Y10080D02*Y9200D01*
X6700Y23950D02*X1700D01*
X13799Y13488D02*X13799Y13280D01*
X13799Y13488D02*X13830Y13500D01*
X1700Y23950D02*X1200Y23450D01*
X16700Y20950D02*Y20900D01*
X9919Y10400D02*X9969D01*
X1200Y23450D02*X1100D01*
X9050Y9750D02*X9269D01*
X10286Y13518D02*X10300Y13500D01*
X10600Y12700D02*X11500D01*
X8050Y8850D02*Y8750D01*
X7550Y9350D02*X8050Y8850D01*
X7550Y10600D02*Y9350D01*
X9850Y12900D02*X7550Y10600D01*
X9499Y15881D02*X9487Y15850D01*
X13436Y13518D02*X13450Y13487D01*
X9849Y13518D02*X9850Y12900D01*
X10299Y13518D02*X9893D01*
X16700Y19050D02*Y20900D01*
X16200Y18550D02*X16700Y19050D01*
X16199Y15818D02*X16200Y18550D01*
X15800Y18650D02*X15799Y15868D01*
X16200Y19050D02*X15800Y18650D01*
X16200Y21400D02*Y19050D01*
X15700Y21900D02*X16200Y21400D01*
X15700Y21950D02*Y21900D01*
X15400Y19050D02*X15399Y15668D01*
X15700Y19350D02*X15400Y19050D01*
X15700Y20950D02*Y19350D01*
X14850Y16050D02*X14999Y15918D01*
X14850Y19400D02*Y16050D01*
X15150Y19700D02*X14850Y19400D01*
X15150Y21550D02*Y19700D01*
X14750Y21950D02*X15150Y21550D01*
X14700Y21950D02*X14750D01*
X14549Y15818D02*X14600Y15800D01*
X14550Y20750D02*X14549Y15818D01*
X14700Y20900D02*X14550Y20750D01*
X14150Y21500D02*X14149Y15868D01*
X13700Y21950D02*X14150Y21500D01*
X13699Y16018D02*X13800Y15900D01*
X13700Y20950D02*X13699Y16018D01*
X13499Y15718D02*X13450Y15700D01*
X13449Y15768D02*X13500Y15700D01*
X13450Y17400D02*X13449Y15768D01*
X13200Y17650D02*X13450Y17400D01*
X13200Y21400D02*Y17650D01*
X12700Y21900D02*X13200Y21400D01*
X12700Y21950D02*Y21900D01*
X13050Y17300D02*X13049Y15418D01*
X12700Y17650D02*X13050Y17300D01*
X12700Y20900D02*Y17650D01*
X12649Y15768D02*X12700Y15700D01*
X12650Y17150D02*X12649Y15768D01*
X12200Y17600D02*X12650Y17150D01*
X12200Y21450D02*Y17600D01*
X11700Y21950D02*X12200Y21450D01*
X12250Y17000D02*X12249Y15768D01*
X11700Y17550D02*X12250Y17000D01*
X11700Y21000D02*Y20950D01*
X11849Y15818D02*X11950Y15700D01*
X11850Y16900D02*X11849Y15818D01*
X11200Y17550D02*X11850Y16900D01*
X11200Y21450D02*Y17550D01*
X10700Y21950D02*X11200Y21450D01*
X11450Y16800D02*X11449Y15818D01*
X10750Y17500D02*X11450Y16800D01*
X10700Y17550D02*X10750Y17500D01*
X10700Y20950D02*Y17550D01*
X11049Y15768D02*X11100Y15700D01*
X11050Y16550D02*X11049Y15768D01*
X10200Y17400D02*X11050Y16550D01*
X10200Y21500D02*Y17400D01*
X9750Y21950D02*X10200Y21500D01*
X9700Y21950D02*X9750D01*
X10649Y15768D02*X10700Y15700D01*
X10650Y16450D02*X10649Y15768D01*
X9700Y17400D02*X10650Y16450D01*
X9700Y20950D02*Y17400D01*
X10250Y16500D02*X10249Y15718D01*
X9200Y17550D02*X10250Y16500D01*
X9200Y21400D02*Y17550D01*
X8700Y21900D02*X9200Y21400D01*
X8700Y21950D02*Y21900D01*
X20850Y11650D02*X20450Y11250D01*
X21050Y11750D02*X20850Y11650D01*
X20150Y13050D02*X20250Y12950D01*
X21650Y11750D02*X21050D01*
X21850Y11950D02*X21650Y11750D01*
X21850Y12450D02*Y11950D01*
X21600Y12700D02*X21850Y12450D01*
X21450Y12700D02*X21600D01*
X20950Y13200D02*X21450Y12700D01*
X20950Y13250D02*Y13200D01*
X20900Y13300D02*X20950Y13250D01*
X20899Y13518D02*X20900Y13300D01*
X19850Y11750D02*X19350Y11250D01*
X20550Y11750D02*X19850D01*
X20850Y12000D02*X20550Y11750D01*
X20850Y13000D02*Y12000D01*
X20149Y13518D02*X20150Y13050D01*
X20499Y13368D02*X20850Y13000D01*
X20499Y13518D02*X20500Y13350D01*
X22000Y10600D02*X21350Y11250D01*
X22450Y10600D02*X22000D01*
X22950Y11100D02*X22450Y10600D01*
X22950Y12450D02*Y11100D01*
X22450Y12950D02*X22950Y12450D01*
X21550Y12950D02*X22450D01*
X21300Y13200D02*X21550Y12950D01*
X21299Y13518D02*X21300Y13250D01*
X19750Y12850D02*X20350Y12250D01*
X19749Y13468D02*X19750Y12850D01*
X19349Y13518D02*X19350Y12250D01*
X18950Y12850D02*X18350Y12250D01*
X18949Y13518D02*X18950Y12850D01*
X9499Y15881D02*Y13518D01*
X10250Y12800D02*Y13000D01*
X17767Y13518D02*X17767Y10782D01*
X18350Y11250D02*X17750Y11850D01*
X9250Y11800D02*X10250Y12800D01*
X7300Y8750D02*X7100D01*
X10719Y10200D03*
X17750Y11850D02*Y11950D01*
X14223Y13518D02*X14250Y13474D01*
X16199Y13518D02*X16150Y13550D01*
X9499Y13518D02*X8500Y13500D01*
G54D11*X21900Y5900D02*X22500D01*
G54D13*X16585Y13518D02*Y15868D01*
X14050Y8750D03*
X2050Y4750D02*X2300Y5000D01*
X15679Y12730D03*
X9487Y15868D02*X8700Y15850D01*
X13042Y13518D02*X13043Y13500D01*
G54D11*X22500Y5900D02*X22900Y5500D01*
G54D13*X16549Y15917D02*X16550Y17050D01*
X22300Y13700D02*X21704Y13718D01*
X14149Y11009D03*
X19735Y14971D02*X19750Y14938D01*
G04 Text: SOLDER SIDE *
G54D11*X22650Y20300D02*X22700Y20350D01*
X22500Y20300D02*X22650D01*
X22450Y20350D02*X22500Y20300D01*
X22450Y20350D02*Y20450D01*
X22500Y20500D01*
X22650D01*
X22700Y20550D01*
Y20650D01*
X22650Y20700D02*X22700Y20650D01*
X22500Y20700D02*X22650D01*
X22450Y20650D02*X22500Y20700D01*
X22820Y20350D02*Y20650D01*
Y20350D02*X22870Y20300D01*
X22970D01*
X23020Y20350D01*
Y20650D01*
X22970Y20700D02*X23020Y20650D01*
X22870Y20700D02*X22970D01*
X22820Y20650D02*X22870Y20700D01*
X23140Y20300D02*Y20700D01*
X23340D01*
X23510Y20300D02*Y20700D01*
X23660Y20300D02*X23710Y20350D01*
Y20650D01*
X23660Y20700D02*X23710Y20650D01*
X23460Y20700D02*X23660D01*
X23460Y20300D02*X23660D01*
X23830Y20500D02*X23980D01*
X23830Y20700D02*X24030D01*
X23830Y20300D02*Y20700D01*
Y20300D02*X24030D01*
X24150D02*X24350D01*
X24400Y20350D01*
Y20450D01*
X24350Y20500D02*X24400Y20450D01*
X24200Y20500D02*X24350D01*
X24200Y20300D02*Y20700D01*
Y20500D02*X24400Y20700D01*
X24900Y20300D02*X24950Y20350D01*
X24750Y20300D02*X24900D01*
X24700Y20350D02*X24750Y20300D01*
X24700Y20350D02*Y20450D01*
X24750Y20500D01*
X24900D01*
X24950Y20550D01*
Y20650D01*
X24900Y20700D02*X24950Y20650D01*
X24750Y20700D02*X24900D01*
X24700Y20650D02*X24750Y20700D01*
X25070Y20300D02*X25170D01*
X25120D02*Y20700D01*
X25070D02*X25170D01*
X25340Y20300D02*Y20700D01*
X25490Y20300D02*X25540Y20350D01*
Y20650D01*
X25490Y20700D02*X25540Y20650D01*
X25290Y20700D02*X25490D01*
X25290Y20300D02*X25490D01*
X25660Y20500D02*X25810D01*
X25660Y20700D02*X25860D01*
X25660Y20300D02*Y20700D01*
Y20300D02*X25860D01*
G54D24*X1100Y23500D03*
G54D28*X2100D03*
X1100Y22500D03*
X2100D03*
X1100Y21500D03*
X2100D03*
X1100Y20500D03*
X2100D03*
X1100Y19500D03*
X2100D03*
X1100Y18500D03*
X2100D03*
X1100Y17500D03*
X2100D03*
X1100Y16500D03*
X2100D03*
G54D24*X1050Y11750D03*
G54D28*X2050D03*
X1050Y10750D03*
X2050D03*
X1050Y9750D03*
X2050D03*
X1050Y8750D03*
X2050D03*
X1050Y7750D03*
X2050D03*
X1050Y6750D03*
X2050D03*
X1050Y5750D03*
X2050D03*
X1050Y4750D03*
X2050D03*
G54D24*X7050Y8750D03*
G54D28*Y9750D03*
X8050Y8750D03*
Y9750D03*
X9050Y8750D03*
Y9750D03*
X10050Y8750D03*
Y9750D03*
X11050Y8750D03*
Y9750D03*
X12050Y8750D03*
Y9750D03*
X13050Y8750D03*
Y9750D03*
X14050Y8750D03*
Y9750D03*
G54D32*X22350Y1850D03*
X21350Y2850D03*
X23350D03*
X21350Y850D03*
X23350D03*
X16050Y1850D03*
X15050Y2850D03*
X17050D03*
X15050Y850D03*
X17050D03*
G54D24*X18350Y11250D03*
G54D28*Y12250D03*
X19350Y11250D03*
Y12250D03*
X20350Y11250D03*
Y12250D03*
X21350Y11250D03*
Y12250D03*
X22350Y11250D03*
Y12250D03*
G54D24*X7700Y20950D03*
G54D28*Y21950D03*
X8700Y20950D03*
Y21950D03*
X9700Y20950D03*
Y21950D03*
X10700Y20950D03*
Y21950D03*
X11700Y20950D03*
Y21950D03*
X12700Y20950D03*
Y21950D03*
X13700Y20950D03*
Y21950D03*
X14700Y20950D03*
Y21950D03*
X15700Y20950D03*
Y21950D03*
X16700Y20950D03*
Y21950D03*
G54D46*X9250Y11800D03*
X8200Y5100D03*
X22300Y13700D03*
X14149Y11660D03*
X8500Y13500D03*
X20250Y12950D03*
X10600Y12700D03*
X14149Y11009D03*
X16550Y17100D03*
X15679Y12730D03*
X15990Y11460D03*
X12350Y12300D03*
X9950Y10900D03*
X10950Y12300D03*
X8700Y15850D03*
X18800Y17600D03*
X19400D03*
X21100D03*
X21600Y17300D03*
X19600Y8800D03*
X22400Y5500D03*
X15700Y5400D03*
X15900Y6100D03*
X22600Y6200D03*
X19800Y6400D03*
G54D49*X20600Y7200D03*
X22900Y5100D03*
X12800Y6700D03*
X13700Y7400D03*
X19100Y1900D03*
G54D15*X19360Y16990D02*Y16810D01*
X19840Y16990D02*Y16810D01*
X18840Y16990D02*Y16810D01*
X18360Y16990D02*Y16810D01*
X20840Y16990D02*Y16810D01*
X20360Y16990D02*Y16810D01*
X21360Y16990D02*Y16810D01*
X21840Y16990D02*Y16810D01*
G54D40*X9499Y14428D02*Y13518D01*
X21704Y15881D02*Y14971D01*
X10286Y14428D02*Y13518D01*
X9893Y14428D02*Y13518D01*
X10680Y14428D02*Y13518D01*
X9499Y15881D02*Y14971D01*
X11074Y14428D02*Y13518D01*
X10286Y15881D02*Y14971D01*
X11467Y14428D02*Y13518D01*
X10680Y15881D02*Y14971D01*
X11861Y14428D02*Y13518D01*
X11074Y15881D02*Y14971D01*
X12255Y14428D02*Y13518D01*
X11467Y15881D02*Y14971D01*
X12648Y14428D02*Y13518D01*
X11861Y15881D02*Y14971D01*
X13042Y14428D02*Y13518D01*
X12255Y15881D02*Y14971D01*
X13436Y14428D02*Y13518D01*
X12648Y15881D02*Y14971D01*
X13042Y15881D02*Y14971D01*
X13436Y15881D02*Y14971D01*
X13830Y15881D02*Y14971D01*
X14223Y15881D02*Y14971D01*
X14617Y15881D02*Y14971D01*
X15011Y15881D02*Y14971D01*
X15404Y15881D02*Y14971D01*
X15798Y15881D02*Y14971D01*
X16192Y15881D02*Y14971D01*
X16585Y15881D02*Y14971D01*
X16979Y15881D02*Y14971D01*
X17373Y15881D02*Y14971D01*
X17767Y15881D02*Y14971D01*
X18160Y15881D02*Y14971D01*
X18554Y15881D02*Y14971D01*
X19341Y15881D02*Y14971D01*
X18948Y15881D02*Y14971D01*
X19735Y15881D02*Y14971D01*
X20129Y15881D02*Y14971D01*
X20522Y15881D02*Y14971D01*
X20916Y15881D02*Y14971D01*
X9893Y15881D02*Y14971D01*
X13830Y14428D02*Y13518D01*
X14223Y14428D02*Y13518D01*
X14617Y14428D02*Y13518D01*
X15011Y14428D02*Y13518D01*
X15404Y14428D02*Y13518D01*
X15798Y14428D02*Y13518D01*
X16192Y14428D02*Y13518D01*
X16585Y14428D02*Y13518D01*
X16979Y14428D02*Y13518D01*
X17373Y14428D02*Y13518D01*
X17767Y14428D02*Y13518D01*
X18160Y14428D02*Y13518D01*
X18554Y14428D02*Y13518D01*
X18948Y14428D02*Y13518D01*
X19341Y14428D02*Y13518D01*
X19735Y14428D02*Y13518D01*
X20129Y14428D02*Y13518D01*
X20522Y14428D02*Y13518D01*
X20916Y14428D02*Y13518D01*
X21310Y14428D02*Y13518D01*
X21704Y14428D02*Y13518D01*
X21310Y15881D02*Y14971D01*
M02*
