M48
INCH,TZ
T01C0.020
T02C0.040
T03C0.058
T04C0.060
T05C0.128
%
T01
X009250Y011800
X008200Y005100
X022300Y013700
X014149Y011660
X008500Y013500
X020250Y012950
X010600Y012700
X014149Y011009
X016550Y017100
X015679Y012730
X015990Y011460
X012350Y012300
X009950Y010900
X010950Y012300
X008700Y015850
X018800Y017600
X019400Y017600
X021100Y017600
X021600Y017300
X019600Y008800
X022400Y005500
X015700Y005400
X015900Y006100
X022600Y006200
X019800Y006400
X020600Y007200
X022900Y005100
X012800Y006700
X013700Y007400
X019100Y001900
T02
X001100Y023500
X002100Y023500
X001100Y022500
X002100Y022500
X001100Y021500
X002100Y021500
X001100Y020500
X002100Y020500
X001100Y019500
X002100Y019500
X001100Y018500
X002100Y018500
X001100Y017500
X002100Y017500
X001100Y016500
X002100Y016500
X001050Y011750
X002050Y011750
X001050Y010750
X002050Y010750
X001050Y009750
X002050Y009750
X001050Y008750
X002050Y008750
X001050Y007750
X002050Y007750
X001050Y006750
X002050Y006750
X001050Y005750
X002050Y005750
X001050Y004750
X002050Y004750
X007050Y008750
X007050Y009750
X008050Y008750
X008050Y009750
X009050Y008750
X009050Y009750
X010050Y008750
X010050Y009750
X011050Y008750
X011050Y009750
X012050Y008750
X012050Y009750
X013050Y008750
X013050Y009750
X014050Y008750
X014050Y009750
X018350Y011250
X018350Y012250
X019350Y011250
X019350Y012250
X020350Y011250
X020350Y012250
X021350Y011250
X021350Y012250
X022350Y011250
X022350Y012250
X007700Y020950
X007700Y021950
X008700Y020950
X008700Y021950
X009700Y020950
X009700Y021950
X010700Y020950
X010700Y021950
X011700Y020950
X011700Y021950
X012700Y020950
X012700Y021950
X013700Y020950
X013700Y021950
X014700Y020950
X014700Y021950
X015700Y020950
X015700Y021950
X016700Y020950
X016700Y021950
T04
X022350Y001850
X021350Y002850
X023350Y002850
X021350Y000850
X023350Y000850
X016050Y001850
X015050Y002850
X017050Y002850
X015050Y000850
X017050Y000850
M30
