G04 Title: RX Daughterboard, layergroup #4 *
G04 Creator: pcb-bin 1.99q *
G04 CreationDate: Thu Mar  2 20:16:19 2006 UTC *
G04 For: matt *
G04 Format: Gerber/RS-274X *
G04 PCB-Dimensions: 275000 250000 *
G04 PCB-Coordinate-Origin: lower left *
%MOIN*%
%FSLAX24Y24*%
G04 contains layers Vcc-sldr (2) *
%IPPOS*%
%ADD11C,0.0080*%
%ADD12C,0.0280*%
%ADD13C,0.0100*%
%ADD14C,0.0300*%
%ADD15R,0.0240X0.0240*%
%ADD16R,0.0440X0.0440*%
%ADD17R,0.0300X0.0300*%
%ADD18C,0.0060*%
%ADD19R,0.0200X0.0200*%
%ADD20R,0.0540X0.0540*%
%ADD21C,0.0200*%
%ADD22C,0.0500*%
%ADD23R,0.0500X0.0500*%
%ADD24R,0.0600X0.0600*%
%ADD25R,0.0660X0.0660*%
%ADD26R,0.0900X0.0900X0.0600X0.0600*%
%ADD27R,0.0900X0.0900*%
%ADD28C,0.0600*%
%ADD29C,0.0660*%
%AMTHERM1*7,0,0,0.0900,0.0600,0.0100,45*%
%ADD30THERM1*%
%ADD31C,0.0900X0.0600*%
%ADD32C,0.0900*%
%ADD33C,0.1200X0.0900*%
%ADD34C,0.1200*%
%ADD35C,0.0150*%
%AMTHERM2*7,0,0,0.1200,0.0900,0.0150,45*%
%ADD36THERM2*%
%ADD37C,0.0720*%
%ADD38C,0.0920X0.0720*%
%ADD39C,0.0920*%
%ADD40C,0.0240*%
%ADD41C,0.0340*%
%ADD42C,0.1320*%
%ADD43C,0.1100*%
%ADD44C,0.1520*%
%ADD45C,0.1520X0.1320*%
%ADD46C,0.0400*%
%ADD47C,0.0600X0.0400*%
%AMTHERM3*7,0,0,0.0600,0.0400,0.0100,45*%
%ADD48THERM3*%
%ADD49C,0.0360*%
%ADD50C,0.0560*%
%ADD51C,0.0560X0.0360*%
%AMTHERM4*7,0,0,0.0560,0.0360,0.0080,45*%
%ADD52THERM4*%
%LNGROUP_3*%
%LPD*%
G01X0Y0D02*
G54D13*G36*
X17900Y900D02*X20500D01*
Y4700D01*
X17900D01*
Y900D01*
G37*
G36*
X13000Y7000D02*X18500D01*
Y4200D01*
X13000D01*
Y7000D01*
G37*
G36*
X25900Y4200D02*X16900D01*
Y13000D01*
X25900D01*
Y4200D01*
G37*
%LNCUTS*%
%LPC*%
G54D50*X19100Y1900D03*
G54D28*X15700Y5400D03*
X15900Y6100D03*
G54D50*X12800Y6700D03*
G54D28*X22400Y5500D03*
X22600Y6200D03*
X19800Y6400D03*
G54D50*X20600Y7200D03*
X22900Y5100D03*
G54D28*X20250Y12950D03*
X19600Y8800D03*
G54D27*X18350Y11250D03*
G54D32*Y12250D03*
X19350Y11250D03*
Y12250D03*
X20350Y11250D03*
Y12250D03*
X21350Y11250D03*
Y12250D03*
X22350Y11250D03*
Y12250D03*
%LNTRACKS*%
%LPD*%
G54D13*X3650Y8050D02*Y8400D01*
X1650Y5300D02*X1100Y4750D01*
X2194Y5300D02*X1650D01*
X3000Y6105D02*X2194Y5300D01*
X3000Y6600D02*Y6105D01*
X16700Y20300D02*X3000Y6600D01*
X16700Y20950D02*Y20300D01*
X1600Y6250D02*X1150Y5800D01*
X2144Y6250D02*X1600D01*
X3650Y7755D02*X2144Y6250D01*
X3650Y12300D02*Y7755D01*
X4500Y13150D02*X3650Y12300D01*
X9000Y13150D02*X4500D01*
X16150Y20300D02*X9000Y13150D01*
X16150Y21500D02*Y20300D01*
X15700Y21950D02*X16150Y21500D01*
X1700Y7300D02*X1100Y6700D01*
X2194Y7300D02*X1700D01*
X3450Y8555D02*X2194Y7300D01*
X3450Y12750D02*Y8555D01*
X4600Y13900D02*X3450Y12750D01*
X8969Y13900D02*X4600D01*
X15700Y20631D02*X8969Y13900D01*
X15700Y20950D02*Y20631D01*
X1650Y8300D02*X1100Y7750D01*
X2194Y8300D02*X1650D01*
X3200Y9305D02*X2194Y8300D01*
X3200Y12950D02*Y9305D01*
X4350Y14100D02*X3200Y12950D01*
X8928Y14100D02*X4350D01*
X15150Y20321D02*X8928Y14100D01*
X15150Y21500D02*Y20321D01*
X14700Y21950D02*X15150Y21500D01*
X1700Y9250D02*X1150Y8700D01*
X2144Y9250D02*X1700D01*
X2900Y10005D02*X2144Y9250D01*
X2900Y13300D02*Y10005D01*
X4850Y15250D02*X2900Y13300D01*
X9350Y15250D02*X4850D01*
X14700Y20600D02*X9350Y15250D01*
X14700Y20950D02*Y20600D01*
X1700Y10350D02*X1100Y9750D01*
X2244Y10350D02*X1700D01*
X2650Y10755D02*X2244Y10350D01*
X2650Y13550D02*Y10755D01*
X4600Y15500D02*X2650Y13550D01*
X9250Y15500D02*X4600D01*
X14200Y20450D02*X9250Y15500D01*
X14200Y21450D02*Y20450D01*
X13700Y21950D02*X14200Y21450D01*
X1600Y11200D02*X1100Y10700D01*
X1600Y13350D02*Y11200D01*
X4550Y16300D02*X1600Y13350D01*
X9550Y16300D02*X4550D01*
X13700Y20450D02*X9550Y16300D01*
X13700Y20950D02*Y20450D01*
X1100Y13850D02*Y11750D01*
X3750Y16500D02*X1100Y13850D01*
X9350Y16500D02*X3750D01*
X13200Y20350D02*X9350Y16500D01*
X13200Y21450D02*Y20350D01*
X12700Y21950D02*X13200Y21450D01*
X10750Y20300D02*X10800Y20350D01*
X7350Y20300D02*X10750D01*
X6800Y20850D02*X7350Y20300D01*
X6800Y21100D02*Y20850D01*
X4100Y21100D02*X6800D01*
X3450Y20450D02*X4100Y21100D01*
X2700Y20450D02*X3450D01*
X1350Y15950D02*X1100Y16200D01*
X2550Y15950D02*X1350D01*
X3350Y16750D02*X2550Y15950D01*
X8700Y16750D02*X3350D01*
X12700Y20750D02*X8700Y16750D01*
X12700Y20950D02*Y20750D01*
X1150Y17450D02*X1100D01*
X1600Y17000D02*X1150Y17450D01*
X8550Y17000D02*X1600D01*
X12200Y20650D02*X8550Y17000D01*
X12200Y21450D02*Y20650D01*
X11700Y21950D02*X12200Y21450D01*
X1350Y18400D02*X1100D01*
X1800Y17950D02*X1350Y18400D01*
X8700Y17950D02*X1800D01*
X11700Y20950D02*X8700Y17950D01*
X1550Y19950D02*X1100Y19500D01*
X2194Y19950D02*X1550D01*
X2694Y20450D02*X2194Y19950D01*
X1100Y16200D02*Y16400D01*
X11150Y20750D02*X10800Y20350D01*
X11150Y21500D02*Y20750D01*
X10700Y21950D02*X11150Y21500D01*
X1250Y20450D02*X1100D01*
X1750Y20950D02*X1250Y20450D01*
X2600Y20950D02*X1750D01*
X3100Y21450D02*X2600Y20950D01*
X10200Y21450D02*X3100D01*
X10700Y20950D02*X10200Y21450D01*
X1200D02*X1100D01*
X1650Y21900D02*X1200Y21450D01*
X4600Y21900D02*X1650D01*
X5100Y22400D02*X4600Y21900D01*
X9250Y22400D02*X5100D01*
X9700Y21950D02*X9250Y22400D01*
G54D24*X1100Y23500D03*
G54D28*X2100D03*
X1100Y22500D03*
X2100D03*
X1100Y21500D03*
X2100D03*
X1100Y20500D03*
X2100D03*
X1100Y19500D03*
X2100D03*
X1100Y18500D03*
X2100D03*
X1100Y17500D03*
X2100D03*
X1100Y16500D03*
X2100D03*
G54D24*X1050Y11750D03*
G54D28*X2050D03*
X1050Y10750D03*
X2050D03*
X1050Y9750D03*
X2050D03*
X1050Y8750D03*
X2050D03*
X1050Y7750D03*
X2050D03*
X1050Y6750D03*
X2050D03*
X1050Y5750D03*
X2050D03*
X1050Y4750D03*
X2050D03*
G54D24*X7050Y8750D03*
G54D28*Y9750D03*
X8050Y8750D03*
Y9750D03*
X9050Y8750D03*
Y9750D03*
X10050Y8750D03*
Y9750D03*
X11050Y8750D03*
Y9750D03*
X12050Y8750D03*
Y9750D03*
X13050Y8750D03*
Y9750D03*
X14050Y8750D03*
Y9750D03*
G54D32*X22350Y1850D03*
X21350Y2850D03*
X23350D03*
X21350Y850D03*
X23350D03*
X16050Y1850D03*
X15050Y2850D03*
X17050D03*
X15050Y850D03*
X17050D03*
G54D24*X18350Y11250D03*
G54D13*X17900Y11700D02*X18800Y10800D01*
X17900D02*X18800Y11700D01*
G54D28*X18350Y12250D03*
X19350Y11250D03*
Y12250D03*
X20350Y11250D03*
Y12250D03*
X21350Y11250D03*
Y12250D03*
X22350Y11250D03*
Y12250D03*
G54D24*X7700Y20950D03*
G54D28*Y21950D03*
X8700Y20950D03*
Y21950D03*
X9700Y20950D03*
Y21950D03*
X10700Y20950D03*
Y21950D03*
X11700Y20950D03*
Y21950D03*
X12700Y20950D03*
Y21950D03*
X13700Y20950D03*
Y21950D03*
X14700Y20950D03*
Y21950D03*
X15700Y20950D03*
Y21950D03*
X16700Y20950D03*
Y21950D03*
G54D46*X9250Y11800D03*
X8200Y5100D03*
X22300Y13700D03*
X14149Y11660D03*
X8500Y13500D03*
X20250Y12950D03*
X10600Y12700D03*
X14149Y11009D03*
X16550Y17100D03*
X15679Y12730D03*
X15990Y11460D03*
X12350Y12300D03*
X9950Y10900D03*
X10950Y12300D03*
X8700Y15850D03*
X18800Y17600D03*
X19400D03*
X21100D03*
X21600Y17300D03*
X19600Y8800D03*
X22400Y5500D03*
X15700Y5400D03*
X15900Y6100D03*
G54D13*X15690Y6310D02*X16110Y5890D01*
X15690D02*X16110Y6310D01*
G54D46*X22600Y6200D03*
G54D13*X22390Y6410D02*X22810Y5990D01*
X22390D02*X22810Y6410D01*
G54D46*X19800Y6400D03*
G54D13*X19590Y6610D02*X20010Y6190D01*
X19590D02*X20010Y6610D01*
G54D49*X20600Y7200D03*
X22900Y5100D03*
X12800Y6700D03*
X13700Y7400D03*
X19100Y1900D03*
G54D11*X18904Y2096D02*X19296Y1704D01*
X18904D02*X19296Y2096D01*
M02*
