G04 Title: RX Daughterboard, layergroup #3 *
G04 Creator: pcb-bin 1.99q *
G04 CreationDate: Thu Mar  2 20:16:19 2006 UTC *
G04 For: matt *
G04 Format: Gerber/RS-274X *
G04 PCB-Dimensions: 275000 250000 *
G04 PCB-Coordinate-Origin: lower left *
%MOIN*%
%FSLAX24Y24*%
G04 contains layers GND-sldr (1) *
%IPPOS*%
%ADD11C,0.0080*%
%ADD12C,0.0280*%
%ADD13C,0.0100*%
%ADD14C,0.0300*%
%ADD15R,0.0240X0.0240*%
%ADD16R,0.0440X0.0440*%
%ADD17R,0.0300X0.0300*%
%ADD18C,0.0060*%
%ADD19R,0.0200X0.0200*%
%ADD20R,0.0540X0.0540*%
%ADD21C,0.0200*%
%ADD22C,0.0500*%
%ADD23R,0.0500X0.0500*%
%ADD24R,0.0600X0.0600*%
%ADD25R,0.0660X0.0660*%
%ADD26R,0.0900X0.0900X0.0600X0.0600*%
%ADD27R,0.0900X0.0900*%
%ADD28C,0.0600*%
%ADD29C,0.0660*%
%AMTHERM1*7,0,0,0.0900,0.0600,0.0100,45*%
%ADD30THERM1*%
%ADD31C,0.0900X0.0600*%
%ADD32C,0.0900*%
%ADD33C,0.1200X0.0900*%
%ADD34C,0.1200*%
%ADD35C,0.0150*%
%AMTHERM2*7,0,0,0.1200,0.0900,0.0150,45*%
%ADD36THERM2*%
%ADD37C,0.0720*%
%ADD38C,0.0920X0.0720*%
%ADD39C,0.0920*%
%ADD40C,0.0240*%
%ADD41C,0.0340*%
%ADD42C,0.1320*%
%ADD43C,0.1100*%
%ADD44C,0.1520*%
%ADD45C,0.1520X0.1320*%
%ADD46C,0.0400*%
%ADD47C,0.0600X0.0400*%
%AMTHERM3*7,0,0,0.0600,0.0400,0.0100,45*%
%ADD48THERM3*%
%ADD49C,0.0360*%
%ADD50C,0.0560*%
%ADD51C,0.0560X0.0360*%
%AMTHERM4*7,0,0,0.0560,0.0360,0.0080,45*%
%ADD52THERM4*%
%LNGROUP_2*%
%LPD*%
G01X0Y0D02*
G54D13*G36*
X16900Y350D02*X27250D01*
Y19500D01*
X16900D01*
Y350D01*
G37*
G36*
X400Y4800D02*X15350D01*
Y10450D01*
X400D01*
Y4800D01*
G37*
G36*
X14650Y350D02*X15900D01*
Y4600D01*
X14650D01*
Y350D01*
G37*
G36*
X14200Y450D02*X400D01*
Y5200D01*
X14200D01*
Y450D01*
G37*
G36*
X15500Y350D02*X17650D01*
Y10250D01*
X15500D01*
Y350D01*
G37*
G36*
X150Y10450D02*X16800D01*
Y24900D01*
X150D01*
Y10450D01*
G37*
%LNCUTS*%
%LPC*%
G54D28*X22400Y5500D03*
X22600Y6200D03*
X19800Y6400D03*
G54D50*X20600Y7200D03*
X22900Y5100D03*
X19100Y1900D03*
G54D28*X22300Y13700D03*
X20250Y12950D03*
X21100Y17600D03*
X21600Y17300D03*
X19600Y8800D03*
X18800Y17600D03*
X19400D03*
G54D34*X17050Y850D03*
Y2850D03*
X21350D03*
Y850D03*
X23350D03*
X22350Y1850D03*
X23350Y2850D03*
G54D27*X18350Y11250D03*
G54D32*Y12250D03*
X19350Y11250D03*
Y12250D03*
X20350Y11250D03*
Y12250D03*
X21350Y11250D03*
Y12250D03*
X22350Y11250D03*
Y12250D03*
G54D28*X8200Y5100D03*
G54D50*X12800Y6700D03*
X13700Y7400D03*
G54D32*X13050Y9750D03*
X14050D03*
X7050D03*
X8050D03*
X9050D03*
X10050D03*
X11050D03*
X12050D03*
G54D27*X7050Y8750D03*
G54D32*X8050D03*
X9050D03*
X10050D03*
X11050D03*
X12050D03*
X13050D03*
X14050D03*
X1050Y10750D03*
X2050D03*
X1050Y9750D03*
X2050D03*
X1050Y8750D03*
X2050D03*
X1050Y7750D03*
X2050D03*
X1050Y6750D03*
X2050D03*
X1050Y5750D03*
X2050D03*
X1050Y4750D03*
X2050D03*
G54D34*X16050Y1850D03*
X15050Y2850D03*
Y850D03*
G54D28*X8200Y5100D03*
G54D32*X1050Y4750D03*
X2050D03*
G54D28*X15700Y5400D03*
X15900Y6100D03*
G54D34*X16050Y1850D03*
X15050Y2850D03*
X17050Y850D03*
Y2850D03*
X15050Y850D03*
G54D28*X9250Y11800D03*
X8500Y13500D03*
X9950Y10900D03*
X14149Y11660D03*
X10600Y12700D03*
X12350Y12300D03*
X10950D03*
X8700Y15850D03*
X14149Y11009D03*
X15679Y12730D03*
X15990Y11460D03*
X16550Y17100D03*
G54D27*X1100Y23500D03*
G54D32*X2100D03*
X1100Y22500D03*
X2100D03*
X1100Y21500D03*
X2100D03*
Y20500D03*
Y19500D03*
Y18500D03*
Y17500D03*
Y16500D03*
X1100Y20500D03*
Y19500D03*
Y18500D03*
Y17500D03*
Y16500D03*
G54D27*X1050Y11750D03*
G54D32*X2050D03*
X1050Y10750D03*
X2050D03*
G54D27*X7700Y20950D03*
G54D32*Y21950D03*
X8700Y20950D03*
Y21950D03*
X9700Y20950D03*
Y21950D03*
X10700Y20950D03*
Y21950D03*
X11700D03*
X12700D03*
X11700Y20950D03*
X12700D03*
X13700D03*
X14700D03*
X15700D03*
X16700D03*
X13700Y21950D03*
X14700D03*
X15700D03*
X16700D03*
%LNTRACKS*%
%LPD*%
G54D24*X1100Y23500D03*
G54D28*X2100D03*
G54D13*X1785Y23815D02*X2415Y23185D01*
X1785D02*X2415Y23815D01*
G54D28*X1100Y22500D03*
X2100D03*
G54D13*X1785Y22815D02*X2415Y22185D01*
X1785D02*X2415Y22815D01*
G54D28*X1100Y21500D03*
X2100D03*
G54D13*X1785Y21815D02*X2415Y21185D01*
X1785D02*X2415Y21815D01*
G54D28*X1100Y20500D03*
X2100D03*
G54D13*X1785Y20815D02*X2415Y20185D01*
X1785D02*X2415Y20815D01*
G54D28*X1100Y19500D03*
X2100D03*
G54D13*X1785Y19815D02*X2415Y19185D01*
X1785D02*X2415Y19815D01*
G54D28*X1100Y18500D03*
X2100D03*
G54D13*X1785Y18815D02*X2415Y18185D01*
X1785D02*X2415Y18815D01*
G54D28*X1100Y17500D03*
X2100D03*
G54D13*X1785Y17815D02*X2415Y17185D01*
X1785D02*X2415Y17815D01*
G54D28*X1100Y16500D03*
X2100D03*
G54D13*X1785Y16815D02*X2415Y16185D01*
X1785D02*X2415Y16815D01*
G54D24*X1050Y11750D03*
G54D28*X2050D03*
G54D13*X1735Y12065D02*X2365Y11435D01*
X1735D02*X2365Y12065D01*
G54D28*X1050Y10750D03*
X2050D03*
G54D13*X1735Y11065D02*X2365Y10435D01*
X1735D02*X2365Y11065D01*
G54D28*X1050Y9750D03*
X2050D03*
G54D13*X1735Y10065D02*X2365Y9435D01*
X1735D02*X2365Y10065D01*
G54D28*X1050Y8750D03*
X2050D03*
G54D13*X1735Y9065D02*X2365Y8435D01*
X1735D02*X2365Y9065D01*
G54D28*X1050Y7750D03*
X2050D03*
G54D13*X1735Y8065D02*X2365Y7435D01*
X1735D02*X2365Y8065D01*
G54D28*X1050Y6750D03*
X2050D03*
G54D13*X1735Y7065D02*X2365Y6435D01*
X1735D02*X2365Y7065D01*
G54D28*X1050Y5750D03*
X2050D03*
G54D13*X1735Y6065D02*X2365Y5435D01*
X1735D02*X2365Y6065D01*
G54D28*X1050Y4750D03*
X2050D03*
G54D13*X1735Y5065D02*X2365Y4435D01*
X1735D02*X2365Y5065D01*
G54D24*X7050Y8750D03*
G54D28*Y9750D03*
G54D13*X6735Y10065D02*X7365Y9435D01*
X6735D02*X7365Y10065D01*
G54D28*X8050Y8750D03*
Y9750D03*
G54D13*X7735Y10065D02*X8365Y9435D01*
X7735D02*X8365Y10065D01*
G54D28*X9050Y8750D03*
Y9750D03*
X10050Y8750D03*
Y9750D03*
X11050Y8750D03*
Y9750D03*
X12050Y8750D03*
Y9750D03*
X13050Y8750D03*
Y9750D03*
X14050Y8750D03*
Y9750D03*
G54D13*X13735Y10065D02*X14365Y9435D01*
X13735D02*X14365Y10065D01*
G54D32*X22350Y1850D03*
X21350Y2850D03*
G54D35*X20930Y3270D02*X21770Y2430D01*
X20930D02*X21770Y3270D01*
G54D32*X23350Y2850D03*
G54D35*X22930Y3270D02*X23770Y2430D01*
X22930D02*X23770Y3270D01*
G54D32*X21350Y850D03*
G54D35*X20930Y1270D02*X21770Y430D01*
X20930D02*X21770Y1270D01*
G54D32*X23350Y850D03*
G54D35*X22930Y1270D02*X23770Y430D01*
X22930D02*X23770Y1270D01*
G54D32*X16050Y1850D03*
X15050Y2850D03*
G54D35*X14630Y3270D02*X15470Y2430D01*
X14630D02*X15470Y3270D01*
G54D32*X17050Y2850D03*
G54D35*X16630Y3270D02*X17470Y2430D01*
X16630D02*X17470Y3270D01*
G54D32*X15050Y850D03*
G54D35*X14630Y1270D02*X15470Y430D01*
X14630D02*X15470Y1270D01*
G54D32*X17050Y850D03*
G54D35*X16630Y1270D02*X17470Y430D01*
X16630D02*X17470Y1270D01*
G54D24*X18350Y11250D03*
G54D28*Y12250D03*
X19350Y11250D03*
Y12250D03*
X20350Y11250D03*
Y12250D03*
X21350Y11250D03*
Y12250D03*
X22350Y11250D03*
G54D13*X22035Y11565D02*X22665Y10935D01*
X22035D02*X22665Y11565D01*
G54D28*X22350Y12250D03*
G54D13*X22035Y12565D02*X22665Y11935D01*
X22035D02*X22665Y12565D01*
G54D24*X7700Y20950D03*
G54D28*Y21950D03*
X8700Y20950D03*
Y21950D03*
X9700Y20950D03*
Y21950D03*
X10700Y20950D03*
Y21950D03*
X11700Y20950D03*
Y21950D03*
X12700Y20950D03*
Y21950D03*
X13700Y20950D03*
Y21950D03*
X14700Y20950D03*
Y21950D03*
X15700Y20950D03*
Y21950D03*
X16700Y20950D03*
Y21950D03*
G54D13*X16385Y22265D02*X17015Y21635D01*
X16385D02*X17015Y22265D01*
G54D46*X9250Y11800D03*
X8200Y5100D03*
G54D13*X7990Y5310D02*X8410Y4890D01*
X7990D02*X8410Y5310D01*
G54D46*X22300Y13700D03*
G54D13*X22090Y13910D02*X22510Y13490D01*
X22090D02*X22510Y13910D01*
G54D46*X14149Y11660D03*
X8500Y13500D03*
G54D13*X8290Y13710D02*X8710Y13290D01*
X8290D02*X8710Y13710D01*
G54D46*X20250Y12950D03*
X10600Y12700D03*
X14149Y11009D03*
X16550Y17100D03*
G54D13*X16340Y17310D02*X16760Y16890D01*
X16340D02*X16760Y17310D01*
G54D46*X15679Y12730D03*
X15990Y11460D03*
X12350Y12300D03*
X9950Y10900D03*
X10950Y12300D03*
X8700Y15850D03*
G54D13*X8490Y16060D02*X8910Y15640D01*
X8490D02*X8910Y16060D01*
G54D46*X18800Y17600D03*
X19400D03*
X21100D03*
X21600Y17300D03*
X19600Y8800D03*
G54D13*X19390Y9010D02*X19810Y8590D01*
X19390D02*X19810Y9010D01*
G54D46*X22400Y5500D03*
G54D13*X22190Y5710D02*X22610Y5290D01*
X22190D02*X22610Y5710D01*
G54D46*X15700Y5400D03*
G54D13*X15490Y5610D02*X15910Y5190D01*
X15490D02*X15910Y5610D01*
G54D46*X15900Y6100D03*
X22600Y6200D03*
X19800Y6400D03*
G54D49*X20600Y7200D03*
X22900Y5100D03*
X12800Y6700D03*
X13700Y7400D03*
X19100Y1900D03*
M02*
