G04 Title: RX Daughterboard, Fabrication Drawing *
G04 Creator: pcb-bin 1.99q *
G04 CreationDate: Thu Mar  2 20:16:21 2006 UTC *
G04 For: matt *
G04 Format: Gerber/RS-274X *
G04 PCB-Dimensions: 275000 250000 *
G04 PCB-Coordinate-Origin: lower left *
%MOIN*%
%FSLAX24Y24*%
%IPPOS*%
%ADD11C,0.0080*%
%ADD12C,0.0280*%
%ADD13C,0.0100*%
%ADD14C,0.0300*%
%ADD15R,0.0240X0.0240*%
%ADD16R,0.0440X0.0440*%
%ADD17R,0.0300X0.0300*%
%ADD18C,0.0060*%
%ADD19R,0.0200X0.0200*%
%ADD20R,0.0540X0.0540*%
%ADD21C,0.0200*%
%ADD22C,0.0500*%
%ADD23R,0.0500X0.0500*%
%ADD24R,0.0600X0.0600*%
%ADD25R,0.0660X0.0660*%
%ADD26R,0.0900X0.0900X0.0600X0.0600*%
%ADD27R,0.0900X0.0900*%
%ADD28C,0.0600*%
%ADD29C,0.0660*%
%AMTHERM1*7,0,0,0.0900,0.0600,0.0100,45*%
%ADD30THERM1*%
%ADD31C,0.0900X0.0600*%
%ADD32C,0.0900*%
%ADD33C,0.1200X0.0900*%
%ADD34C,0.1200*%
%ADD35C,0.0150*%
%AMTHERM2*7,0,0,0.1200,0.0900,0.0150,45*%
%ADD36THERM2*%
%ADD37C,0.0720*%
%ADD38C,0.0920X0.0720*%
%ADD39C,0.0920*%
%ADD40C,0.0240*%
%ADD41C,0.0340*%
%ADD42C,0.1320*%
%ADD43C,0.1100*%
%ADD44C,0.1520*%
%ADD45C,0.1520X0.1320*%
%ADD46C,0.0400*%
%ADD47C,0.0600X0.0400*%
%AMTHERM3*7,0,0,0.0600,0.0400,0.0100,45*%
%ADD48THERM3*%
%ADD49C,0.0360*%
%ADD50C,0.0560*%
%ADD51C,0.0560X0.0360*%
%AMTHERM4*7,0,0,0.0560,0.0360,0.0080,45*%
%ADD52THERM4*%
%LNGROUP_3*%
%LPD*%
G01X0Y0D02*
G54D11*X1340Y1660D02*X1660D01*
X1340D02*Y1340D01*
X1660D01*
Y1660D02*Y1340D01*
X25840Y23660D02*X26160D01*
X25840D02*Y23340D01*
X26160D01*
Y23660D02*Y23340D01*
X25840Y1660D02*X26160D01*
X25840D02*Y1340D01*
X26160D01*
Y1660D02*Y1340D01*
X5340Y19660D02*X5660D01*
X5340D02*Y19340D01*
X5660D01*
Y19660D02*Y19340D01*
X1340Y26285D02*X1660D01*
X1340D02*Y25965D01*
X1660D01*
Y26285D02*Y25965D01*
G04 Text: NO *
X14000Y26500D02*Y25900D01*
Y26500D02*Y26425D01*
X14375Y26050D01*
Y26500D02*Y25900D01*
X14555Y26425D02*Y25975D01*
Y26425D02*X14630Y26500D01*
X14780D01*
X14855Y26425D01*
Y25975D01*
X14780Y25900D02*X14855Y25975D01*
X14630Y25900D02*X14780D01*
X14555Y25975D02*X14630Y25900D01*
X14000Y25574D02*X15035D01*
G04 Text: 4 *
X9800Y26200D02*X10100Y26500D01*
X9800Y26200D02*X10175D01*
X10100Y26500D02*Y25900D01*
X9800Y25574D02*X10355D01*
G04 Text: 0.128 *
X4500Y25975D02*X4575Y25900D01*
X4500Y26425D02*Y25975D01*
Y26425D02*X4575Y26500D01*
X4725D01*
X4800Y26425D01*
Y25975D01*
X4725Y25900D02*X4800Y25975D01*
X4575Y25900D02*X4725D01*
X4500Y26050D02*X4800Y26350D01*
X4980Y25900D02*X5055D01*
X5310D02*X5460D01*
X5385Y26500D02*Y25900D01*
X5235Y26350D02*X5385Y26500D01*
X5640Y26425D02*X5715Y26500D01*
X5940D01*
X6015Y26425D01*
Y26275D01*
X5640Y25900D02*X6015Y26275D01*
X5640Y25900D02*X6015D01*
X6195Y25975D02*X6270Y25900D01*
X6195Y26125D02*Y25975D01*
Y26125D02*X6270Y26200D01*
X6420D01*
X6495Y26125D01*
Y25975D01*
X6420Y25900D02*X6495Y25975D01*
X6270Y25900D02*X6420D01*
X6195Y26275D02*X6270Y26200D01*
X6195Y26425D02*Y26275D01*
Y26425D02*X6270Y26500D01*
X6420D01*
X6495Y26425D01*
Y26275D01*
X6420Y26200D02*X6495Y26275D01*
X4500Y25574D02*X6675D01*
X22270Y1850D02*G75*G03X22430Y1850I80J0D01*G01*
G75*G03X22270Y1850I-80J0D01*G01*
X21270Y2850D02*G75*G03X21430Y2850I80J0D01*G01*
G75*G03X21270Y2850I-80J0D01*G01*
X23270D02*G75*G03X23430Y2850I80J0D01*G01*
G75*G03X23270Y2850I-80J0D01*G01*
X21270Y850D02*G75*G03X21430Y850I80J0D01*G01*
G75*G03X21270Y850I-80J0D01*G01*
X23270D02*G75*G03X23430Y850I80J0D01*G01*
G75*G03X23270Y850I-80J0D01*G01*
X15970Y1850D02*G75*G03X16130Y1850I80J0D01*G01*
G75*G03X15970Y1850I-80J0D01*G01*
X14970Y2850D02*G75*G03X15130Y2850I80J0D01*G01*
G75*G03X14970Y2850I-80J0D01*G01*
X16970D02*G75*G03X17130Y2850I80J0D01*G01*
G75*G03X16970Y2850I-80J0D01*G01*
X14970Y850D02*G75*G03X15130Y850I80J0D01*G01*
G75*G03X14970Y850I-80J0D01*G01*
X16970D02*G75*G03X17130Y850I80J0D01*G01*
G75*G03X16970Y850I-80J0D01*G01*
X1420Y27625D02*G75*G03X1580Y27625I80J0D01*G01*
G75*G03X1420Y27625I-80J0D01*G01*
G04 Text: YES *
X13500Y28000D02*Y27925D01*
X13650Y27775D01*
X13800Y27925D01*
Y28000D02*Y27925D01*
X13650Y27775D02*Y27400D01*
X13980Y27700D02*X14205D01*
X13980Y27400D02*X14280D01*
X13980Y28000D02*Y27400D01*
Y28000D02*X14280D01*
X14760D02*X14835Y27925D01*
X14535Y28000D02*X14760D01*
X14460Y27925D02*X14535Y28000D01*
X14460Y27925D02*Y27775D01*
X14535Y27700D01*
X14760D01*
X14835Y27625D01*
Y27475D01*
X14760Y27400D02*X14835Y27475D01*
X14535Y27400D02*X14760D01*
X14460Y27475D02*X14535Y27400D01*
X13500Y27074D02*X15015D01*
G04 Text: 10 *
X9875Y27400D02*X10025D01*
X9950Y28000D02*Y27400D01*
X9800Y27850D02*X9950Y28000D01*
X10205Y27475D02*X10280Y27400D01*
X10205Y27925D02*Y27475D01*
Y27925D02*X10280Y28000D01*
X10430D01*
X10505Y27925D01*
Y27475D01*
X10430Y27400D02*X10505Y27475D01*
X10280Y27400D02*X10430D01*
X10205Y27550D02*X10505Y27850D01*
X9800Y27074D02*X10685D01*
G04 Text: 0.060 *
X4500Y27475D02*X4575Y27400D01*
X4500Y27925D02*Y27475D01*
Y27925D02*X4575Y28000D01*
X4725D01*
X4800Y27925D01*
Y27475D01*
X4725Y27400D02*X4800Y27475D01*
X4575Y27400D02*X4725D01*
X4500Y27550D02*X4800Y27850D01*
X4980Y27400D02*X5055D01*
X5235Y27475D02*X5310Y27400D01*
X5235Y27925D02*Y27475D01*
Y27925D02*X5310Y28000D01*
X5460D01*
X5535Y27925D01*
Y27475D01*
X5460Y27400D02*X5535Y27475D01*
X5310Y27400D02*X5460D01*
X5235Y27550D02*X5535Y27850D01*
X5940Y28000D02*X6015Y27925D01*
X5790Y28000D02*X5940D01*
X5715Y27925D02*X5790Y28000D01*
X5715Y27925D02*Y27475D01*
X5790Y27400D01*
X5940Y27700D02*X6015Y27625D01*
X5715Y27700D02*X5940D01*
X5790Y27400D02*X5940D01*
X6015Y27475D01*
Y27625D02*Y27475D01*
X6195D02*X6270Y27400D01*
X6195Y27925D02*Y27475D01*
Y27925D02*X6270Y28000D01*
X6420D01*
X6495Y27925D01*
Y27475D01*
X6420Y27400D02*X6495Y27475D01*
X6270Y27400D02*X6420D01*
X6195Y27550D02*X6495Y27850D01*
X4500Y27074D02*X6675D01*
X8710Y14820D02*X8950Y14580D01*
X8710D02*X8950Y14820D01*
X22253D02*X22493Y14580D01*
X22253D02*X22493Y14820D01*
X1380Y29245D02*X1620Y29005D01*
X1380D02*X1620Y29245D01*
G04 Text: NO *
X14000Y29500D02*Y28900D01*
Y29500D02*Y29425D01*
X14375Y29050D01*
Y29500D02*Y28900D01*
X14555Y29425D02*Y28975D01*
Y29425D02*X14630Y29500D01*
X14780D01*
X14855Y29425D01*
Y28975D01*
X14780Y28900D02*X14855Y28975D01*
X14630Y28900D02*X14780D01*
X14555Y28975D02*X14630Y28900D01*
X14000Y28574D02*X15035D01*
G04 Text: 2 *
X9800Y29425D02*X9875Y29500D01*
X10100D01*
X10175Y29425D01*
Y29275D01*
X9800Y28900D02*X10175Y29275D01*
X9800Y28900D02*X10175D01*
X9800Y28574D02*X10355D01*
G04 Text: 0.058 *
X4500Y28975D02*X4575Y28900D01*
X4500Y29425D02*Y28975D01*
Y29425D02*X4575Y29500D01*
X4725D01*
X4800Y29425D01*
Y28975D01*
X4725Y28900D02*X4800Y28975D01*
X4575Y28900D02*X4725D01*
X4500Y29050D02*X4800Y29350D01*
X4980Y28900D02*X5055D01*
X5235Y28975D02*X5310Y28900D01*
X5235Y29425D02*Y28975D01*
Y29425D02*X5310Y29500D01*
X5460D01*
X5535Y29425D01*
Y28975D01*
X5460Y28900D02*X5535Y28975D01*
X5310Y28900D02*X5460D01*
X5235Y29050D02*X5535Y29350D01*
X5715Y29500D02*X6015D01*
X5715D02*Y29200D01*
X5790Y29275D01*
X5940D01*
X6015Y29200D01*
Y28975D01*
X5940Y28900D02*X6015Y28975D01*
X5790Y28900D02*X5940D01*
X5715Y28975D02*X5790Y28900D01*
X6195Y28975D02*X6270Y28900D01*
X6195Y29125D02*Y28975D01*
Y29125D02*X6270Y29200D01*
X6420D01*
X6495Y29125D01*
Y28975D01*
X6420Y28900D02*X6495Y28975D01*
X6270Y28900D02*X6420D01*
X6195Y29275D02*X6270Y29200D01*
X6195Y29425D02*Y29275D01*
Y29425D02*X6270Y29500D01*
X6420D01*
X6495Y29425D01*
Y29275D01*
X6420Y29200D02*X6495Y29275D01*
X4500Y28574D02*X6675D01*
X1100Y23660D02*Y23340D01*
X940Y23500D02*X1260D01*
X2100Y23660D02*Y23340D01*
X1940Y23500D02*X2260D01*
X1100Y22660D02*Y22340D01*
X940Y22500D02*X1260D01*
X2100Y22660D02*Y22340D01*
X1940Y22500D02*X2260D01*
X1100Y21660D02*Y21340D01*
X940Y21500D02*X1260D01*
X2100Y21660D02*Y21340D01*
X1940Y21500D02*X2260D01*
X1100Y20660D02*Y20340D01*
X940Y20500D02*X1260D01*
X2100Y20660D02*Y20340D01*
X1940Y20500D02*X2260D01*
X1100Y19660D02*Y19340D01*
X940Y19500D02*X1260D01*
X2100Y19660D02*Y19340D01*
X1940Y19500D02*X2260D01*
X1100Y18660D02*Y18340D01*
X940Y18500D02*X1260D01*
X2100Y18660D02*Y18340D01*
X1940Y18500D02*X2260D01*
X1100Y17660D02*Y17340D01*
X940Y17500D02*X1260D01*
X2100Y17660D02*Y17340D01*
X1940Y17500D02*X2260D01*
X1100Y16660D02*Y16340D01*
X940Y16500D02*X1260D01*
X2100Y16660D02*Y16340D01*
X1940Y16500D02*X2260D01*
X1050Y11910D02*Y11590D01*
X890Y11750D02*X1210D01*
X2050Y11910D02*Y11590D01*
X1890Y11750D02*X2210D01*
X1050Y10910D02*Y10590D01*
X890Y10750D02*X1210D01*
X2050Y10910D02*Y10590D01*
X1890Y10750D02*X2210D01*
X1050Y9910D02*Y9590D01*
X890Y9750D02*X1210D01*
X2050Y9910D02*Y9590D01*
X1890Y9750D02*X2210D01*
X1050Y8910D02*Y8590D01*
X890Y8750D02*X1210D01*
X2050Y8910D02*Y8590D01*
X1890Y8750D02*X2210D01*
X1050Y7910D02*Y7590D01*
X890Y7750D02*X1210D01*
X2050Y7910D02*Y7590D01*
X1890Y7750D02*X2210D01*
X1050Y6910D02*Y6590D01*
X890Y6750D02*X1210D01*
X2050Y6910D02*Y6590D01*
X1890Y6750D02*X2210D01*
X1050Y5910D02*Y5590D01*
X890Y5750D02*X1210D01*
X2050Y5910D02*Y5590D01*
X1890Y5750D02*X2210D01*
X1050Y4910D02*Y4590D01*
X890Y4750D02*X1210D01*
X2050Y4910D02*Y4590D01*
X1890Y4750D02*X2210D01*
X7050Y8910D02*Y8590D01*
X6890Y8750D02*X7210D01*
X7050Y9910D02*Y9590D01*
X6890Y9750D02*X7210D01*
X8050Y8910D02*Y8590D01*
X7890Y8750D02*X8210D01*
X8050Y9910D02*Y9590D01*
X7890Y9750D02*X8210D01*
X9050Y8910D02*Y8590D01*
X8890Y8750D02*X9210D01*
X9050Y9910D02*Y9590D01*
X8890Y9750D02*X9210D01*
X10050Y8910D02*Y8590D01*
X9890Y8750D02*X10210D01*
X10050Y9910D02*Y9590D01*
X9890Y9750D02*X10210D01*
X11050Y8910D02*Y8590D01*
X10890Y8750D02*X11210D01*
X11050Y9910D02*Y9590D01*
X10890Y9750D02*X11210D01*
X12050Y8910D02*Y8590D01*
X11890Y8750D02*X12210D01*
X12050Y9910D02*Y9590D01*
X11890Y9750D02*X12210D01*
X13050Y8910D02*Y8590D01*
X12890Y8750D02*X13210D01*
X13050Y9910D02*Y9590D01*
X12890Y9750D02*X13210D01*
X14050Y8910D02*Y8590D01*
X13890Y8750D02*X14210D01*
X14050Y9910D02*Y9590D01*
X13890Y9750D02*X14210D01*
X18350Y11410D02*Y11090D01*
X18190Y11250D02*X18510D01*
X18350Y12410D02*Y12090D01*
X18190Y12250D02*X18510D01*
X19350Y11410D02*Y11090D01*
X19190Y11250D02*X19510D01*
X19350Y12410D02*Y12090D01*
X19190Y12250D02*X19510D01*
X20350Y11410D02*Y11090D01*
X20190Y11250D02*X20510D01*
X20350Y12410D02*Y12090D01*
X20190Y12250D02*X20510D01*
X21350Y11410D02*Y11090D01*
X21190Y11250D02*X21510D01*
X21350Y12410D02*Y12090D01*
X21190Y12250D02*X21510D01*
X22350Y11410D02*Y11090D01*
X22190Y11250D02*X22510D01*
X22350Y12410D02*Y12090D01*
X22190Y12250D02*X22510D01*
X7700Y21110D02*Y20790D01*
X7540Y20950D02*X7860D01*
X7700Y22110D02*Y21790D01*
X7540Y21950D02*X7860D01*
X8700Y21110D02*Y20790D01*
X8540Y20950D02*X8860D01*
X8700Y22110D02*Y21790D01*
X8540Y21950D02*X8860D01*
X9700Y21110D02*Y20790D01*
X9540Y20950D02*X9860D01*
X9700Y22110D02*Y21790D01*
X9540Y21950D02*X9860D01*
X10700Y21110D02*Y20790D01*
X10540Y20950D02*X10860D01*
X10700Y22110D02*Y21790D01*
X10540Y21950D02*X10860D01*
X11700Y21110D02*Y20790D01*
X11540Y20950D02*X11860D01*
X11700Y22110D02*Y21790D01*
X11540Y21950D02*X11860D01*
X12700Y21110D02*Y20790D01*
X12540Y20950D02*X12860D01*
X12700Y22110D02*Y21790D01*
X12540Y21950D02*X12860D01*
X13700Y21110D02*Y20790D01*
X13540Y20950D02*X13860D01*
X13700Y22110D02*Y21790D01*
X13540Y21950D02*X13860D01*
X14700Y21110D02*Y20790D01*
X14540Y20950D02*X14860D01*
X14700Y22110D02*Y21790D01*
X14540Y21950D02*X14860D01*
X15700Y21110D02*Y20790D01*
X15540Y20950D02*X15860D01*
X15700Y22110D02*Y21790D01*
X15540Y21950D02*X15860D01*
X16700Y21110D02*Y20790D01*
X16540Y20950D02*X16860D01*
X16700Y22110D02*Y21790D01*
X16540Y21950D02*X16860D01*
X1500Y30785D02*Y30465D01*
X1340Y30625D02*X1660D01*
G04 Text: YES *
X13500Y31000D02*Y30925D01*
X13650Y30775D01*
X13800Y30925D01*
Y31000D02*Y30925D01*
X13650Y30775D02*Y30400D01*
X13980Y30700D02*X14205D01*
X13980Y30400D02*X14280D01*
X13980Y31000D02*Y30400D01*
Y31000D02*X14280D01*
X14760D02*X14835Y30925D01*
X14535Y31000D02*X14760D01*
X14460Y30925D02*X14535Y31000D01*
X14460Y30925D02*Y30775D01*
X14535Y30700D01*
X14760D01*
X14835Y30625D01*
Y30475D01*
X14760Y30400D02*X14835Y30475D01*
X14535Y30400D02*X14760D01*
X14460Y30475D02*X14535Y30400D01*
X13500Y30074D02*X15015D01*
G04 Text: 78 *
X9800Y30400D02*X10175Y30775D01*
Y31000D02*Y30775D01*
X9800Y31000D02*X10175D01*
X10355Y30475D02*X10430Y30400D01*
X10355Y30625D02*Y30475D01*
Y30625D02*X10430Y30700D01*
X10580D01*
X10655Y30625D01*
Y30475D01*
X10580Y30400D02*X10655Y30475D01*
X10430Y30400D02*X10580D01*
X10355Y30775D02*X10430Y30700D01*
X10355Y30925D02*Y30775D01*
Y30925D02*X10430Y31000D01*
X10580D01*
X10655Y30925D01*
Y30775D01*
X10580Y30700D02*X10655Y30775D01*
X9800Y30074D02*X10835D01*
G04 Text: 0.040 *
X4500Y30475D02*X4575Y30400D01*
X4500Y30925D02*Y30475D01*
Y30925D02*X4575Y31000D01*
X4725D01*
X4800Y30925D01*
Y30475D01*
X4725Y30400D02*X4800Y30475D01*
X4575Y30400D02*X4725D01*
X4500Y30550D02*X4800Y30850D01*
X4980Y30400D02*X5055D01*
X5235Y30475D02*X5310Y30400D01*
X5235Y30925D02*Y30475D01*
Y30925D02*X5310Y31000D01*
X5460D01*
X5535Y30925D01*
Y30475D01*
X5460Y30400D02*X5535Y30475D01*
X5310Y30400D02*X5460D01*
X5235Y30550D02*X5535Y30850D01*
X5715Y30700D02*X6015Y31000D01*
X5715Y30700D02*X6090D01*
X6015Y31000D02*Y30400D01*
X6270Y30475D02*X6345Y30400D01*
X6270Y30925D02*Y30475D01*
Y30925D02*X6345Y31000D01*
X6495D01*
X6570Y30925D01*
Y30475D01*
X6495Y30400D02*X6570Y30475D01*
X6345Y30400D02*X6495D01*
X6270Y30550D02*X6570Y30850D01*
X4500Y30074D02*X6750D01*
X9250Y11800D02*Y11640D01*
Y11800D02*X9388Y11880D01*
X9250Y11800D02*X9111Y11880D01*
X8200Y5100D02*Y4940D01*
Y5100D02*X8338Y5180D01*
X8200Y5100D02*X8061Y5180D01*
X22300Y13700D02*Y13540D01*
Y13700D02*X22438Y13780D01*
X22300Y13700D02*X22161Y13780D01*
X14149Y11660D02*Y11500D01*
Y11660D02*X14288Y11740D01*
X14149Y11660D02*X14011Y11740D01*
X8500Y13500D02*Y13340D01*
Y13500D02*X8638Y13580D01*
X8500Y13500D02*X8361Y13580D01*
X20250Y12950D02*Y12790D01*
Y12950D02*X20388Y13030D01*
X20250Y12950D02*X20111Y13030D01*
X10600Y12700D02*Y12540D01*
Y12700D02*X10738Y12780D01*
X10600Y12700D02*X10461Y12780D01*
X14149Y11009D02*Y10849D01*
Y11009D02*X14288Y11089D01*
X14149Y11009D02*X14011Y11089D01*
X16550Y17100D02*Y16940D01*
Y17100D02*X16688Y17180D01*
X16550Y17100D02*X16411Y17180D01*
X15679Y12730D02*Y12570D01*
Y12730D02*X15817Y12810D01*
X15679Y12730D02*X15540Y12810D01*
X15990Y11460D02*Y11300D01*
Y11460D02*X16128Y11540D01*
X15990Y11460D02*X15851Y11540D01*
X12350Y12300D02*Y12140D01*
Y12300D02*X12488Y12380D01*
X12350Y12300D02*X12211Y12380D01*
X9950Y10900D02*Y10740D01*
Y10900D02*X10088Y10980D01*
X9950Y10900D02*X9811Y10980D01*
X10950Y12300D02*Y12140D01*
Y12300D02*X11088Y12380D01*
X10950Y12300D02*X10811Y12380D01*
X8700Y15850D02*Y15690D01*
Y15850D02*X8838Y15930D01*
X8700Y15850D02*X8561Y15930D01*
X18800Y17600D02*Y17440D01*
Y17600D02*X18938Y17680D01*
X18800Y17600D02*X18661Y17680D01*
X19400Y17600D02*Y17440D01*
Y17600D02*X19538Y17680D01*
X19400Y17600D02*X19261Y17680D01*
X21100Y17600D02*Y17440D01*
Y17600D02*X21238Y17680D01*
X21100Y17600D02*X20961Y17680D01*
X21600Y17300D02*Y17140D01*
Y17300D02*X21738Y17380D01*
X21600Y17300D02*X21461Y17380D01*
X19600Y8800D02*Y8640D01*
Y8800D02*X19738Y8880D01*
X19600Y8800D02*X19461Y8880D01*
X22400Y5500D02*Y5340D01*
Y5500D02*X22538Y5580D01*
X22400Y5500D02*X22261Y5580D01*
X15700Y5400D02*Y5240D01*
Y5400D02*X15838Y5480D01*
X15700Y5400D02*X15561Y5480D01*
X15900Y6100D02*Y5940D01*
Y6100D02*X16038Y6180D01*
X15900Y6100D02*X15761Y6180D01*
X22600Y6200D02*Y6040D01*
Y6200D02*X22738Y6280D01*
X22600Y6200D02*X22461Y6280D01*
X19800Y6400D02*Y6240D01*
Y6400D02*X19938Y6480D01*
X19800Y6400D02*X19661Y6480D01*
X20600Y7200D02*Y7040D01*
Y7200D02*X20738Y7280D01*
X20600Y7200D02*X20461Y7280D01*
X22900Y5100D02*Y4940D01*
Y5100D02*X23038Y5180D01*
X22900Y5100D02*X22761Y5180D01*
X12800Y6700D02*Y6540D01*
Y6700D02*X12938Y6780D01*
X12800Y6700D02*X12661Y6780D01*
X13700Y7400D02*Y7240D01*
Y7400D02*X13838Y7480D01*
X13700Y7400D02*X13561Y7480D01*
X19100Y1900D02*Y1740D01*
Y1900D02*X19238Y1980D01*
X19100Y1900D02*X18961Y1980D01*
X1500Y32125D02*Y31965D01*
Y32125D02*X1638Y32205D01*
X1500Y32125D02*X1361Y32205D01*
G04 Text: YES *
X13500Y32500D02*Y32425D01*
X13650Y32275D01*
X13800Y32425D01*
Y32500D02*Y32425D01*
X13650Y32275D02*Y31900D01*
X13980Y32200D02*X14205D01*
X13980Y31900D02*X14280D01*
X13980Y32500D02*Y31900D01*
Y32500D02*X14280D01*
X14760D02*X14835Y32425D01*
X14535Y32500D02*X14760D01*
X14460Y32425D02*X14535Y32500D01*
X14460Y32425D02*Y32275D01*
X14535Y32200D01*
X14760D01*
X14835Y32125D01*
Y31975D01*
X14760Y31900D02*X14835Y31975D01*
X14535Y31900D02*X14760D01*
X14460Y31975D02*X14535Y31900D01*
X13500Y31574D02*X15015D01*
G04 Text: 30 *
X9800Y32425D02*X9875Y32500D01*
X10025D01*
X10100Y32425D01*
Y31975D01*
X10025Y31900D02*X10100Y31975D01*
X9875Y31900D02*X10025D01*
X9800Y31975D02*X9875Y31900D01*
Y32200D02*X10100D01*
X10280Y31975D02*X10355Y31900D01*
X10280Y32425D02*Y31975D01*
Y32425D02*X10355Y32500D01*
X10505D01*
X10580Y32425D01*
Y31975D01*
X10505Y31900D02*X10580Y31975D01*
X10355Y31900D02*X10505D01*
X10280Y32050D02*X10580Y32350D01*
X9800Y31574D02*X10760D01*
G04 Text: 0.020 *
X4500Y31975D02*X4575Y31900D01*
X4500Y32425D02*Y31975D01*
Y32425D02*X4575Y32500D01*
X4725D01*
X4800Y32425D01*
Y31975D01*
X4725Y31900D02*X4800Y31975D01*
X4575Y31900D02*X4725D01*
X4500Y32050D02*X4800Y32350D01*
X4980Y31900D02*X5055D01*
X5235Y31975D02*X5310Y31900D01*
X5235Y32425D02*Y31975D01*
Y32425D02*X5310Y32500D01*
X5460D01*
X5535Y32425D01*
Y31975D01*
X5460Y31900D02*X5535Y31975D01*
X5310Y31900D02*X5460D01*
X5235Y32050D02*X5535Y32350D01*
X5715Y32425D02*X5790Y32500D01*
X6015D01*
X6090Y32425D01*
Y32275D01*
X5715Y31900D02*X6090Y32275D01*
X5715Y31900D02*X6090D01*
X6270Y31975D02*X6345Y31900D01*
X6270Y32425D02*Y31975D01*
Y32425D02*X6345Y32500D01*
X6495D01*
X6570Y32425D01*
Y31975D01*
X6495Y31900D02*X6570Y31975D01*
X6345Y31900D02*X6495D01*
X6270Y32050D02*X6570Y32350D01*
X4500Y31574D02*X6750D01*
G04 Text: Symbol *
X300Y34000D02*X375Y33925D01*
X75Y34000D02*X300D01*
X0Y33925D02*X75Y34000D01*
X0Y33925D02*Y33775D01*
X75Y33700D01*
X300D01*
X375Y33625D01*
Y33475D01*
X300Y33400D02*X375Y33475D01*
X75Y33400D02*X300D01*
X0Y33475D02*X75Y33400D01*
X555Y33700D02*Y33475D01*
X630Y33400D01*
X855Y33700D02*Y33250D01*
X780Y33175D02*X855Y33250D01*
X630Y33175D02*X780D01*
X555Y33250D02*X630Y33175D01*
Y33400D02*X780D01*
X855Y33475D01*
X1110Y33625D02*Y33400D01*
Y33625D02*X1185Y33700D01*
X1260D01*
X1335Y33625D01*
Y33400D01*
Y33625D02*X1410Y33700D01*
X1485D01*
X1560Y33625D01*
Y33400D01*
X1035Y33700D02*X1110Y33625D01*
X1740Y34000D02*Y33400D01*
Y33475D02*X1815Y33400D01*
X1965D01*
X2040Y33475D01*
Y33625D02*Y33475D01*
X1965Y33700D02*X2040Y33625D01*
X1815Y33700D02*X1965D01*
X1740Y33625D02*X1815Y33700D01*
X2220Y33625D02*Y33475D01*
Y33625D02*X2295Y33700D01*
X2445D01*
X2520Y33625D01*
Y33475D01*
X2445Y33400D02*X2520Y33475D01*
X2295Y33400D02*X2445D01*
X2220Y33475D02*X2295Y33400D01*
X2700Y34000D02*Y33475D01*
X2775Y33400D01*
G04 Text: Diam. (Inch) *
X4175Y34000D02*Y33400D01*
X4400Y34000D02*X4475Y33925D01*
Y33475D01*
X4400Y33400D02*X4475Y33475D01*
X4100Y33400D02*X4400D01*
X4100Y34000D02*X4400D01*
X4655Y33850D02*Y33775D01*
Y33625D02*Y33400D01*
X5030Y33700D02*X5105Y33625D01*
X4880Y33700D02*X5030D01*
X4805Y33625D02*X4880Y33700D01*
X4805Y33625D02*Y33475D01*
X4880Y33400D01*
X5105Y33700D02*Y33475D01*
X5180Y33400D01*
X4880D02*X5030D01*
X5105Y33475D01*
X5435Y33625D02*Y33400D01*
Y33625D02*X5510Y33700D01*
X5585D01*
X5660Y33625D01*
Y33400D01*
Y33625D02*X5735Y33700D01*
X5810D01*
X5885Y33625D01*
Y33400D01*
X5360Y33700D02*X5435Y33625D01*
X6065Y33400D02*X6140D01*
X6590Y33475D02*X6665Y33400D01*
X6590Y33925D02*X6665Y34000D01*
X6590Y33925D02*Y33475D01*
X6845Y34000D02*X6995D01*
X6920D02*Y33400D01*
X6845D02*X6995D01*
X7251Y33625D02*Y33400D01*
Y33625D02*X7326Y33700D01*
X7401D01*
X7476Y33625D01*
Y33400D01*
X7176Y33700D02*X7251Y33625D01*
X7731Y33700D02*X7956D01*
X7656Y33625D02*X7731Y33700D01*
X7656Y33625D02*Y33475D01*
X7731Y33400D01*
X7956D01*
X8136Y34000D02*Y33400D01*
Y33625D02*X8211Y33700D01*
X8361D01*
X8436Y33625D01*
Y33400D01*
X8616Y34000D02*X8691Y33925D01*
Y33475D01*
X8616Y33400D02*X8691Y33475D01*
G04 Text: Count *
X9575Y33400D02*X9800D01*
X9500Y33475D02*X9575Y33400D01*
X9500Y33925D02*Y33475D01*
Y33925D02*X9575Y34000D01*
X9800D01*
X9980Y33625D02*Y33475D01*
Y33625D02*X10055Y33700D01*
X10205D01*
X10280Y33625D01*
Y33475D01*
X10205Y33400D02*X10280Y33475D01*
X10055Y33400D02*X10205D01*
X9980Y33475D02*X10055Y33400D01*
X10460Y33700D02*Y33475D01*
X10535Y33400D01*
X10685D01*
X10760Y33475D01*
Y33700D02*Y33475D01*
X11015Y33625D02*Y33400D01*
Y33625D02*X11090Y33700D01*
X11165D01*
X11240Y33625D01*
Y33400D01*
X10940Y33700D02*X11015Y33625D01*
X11495Y34000D02*Y33475D01*
X11570Y33400D01*
X11420Y33775D02*X11570D01*
G04 Text: Plated? *
X13075Y34000D02*Y33400D01*
X13000Y34000D02*X13300D01*
X13375Y33925D01*
Y33775D01*
X13300Y33700D02*X13375Y33775D01*
X13075Y33700D02*X13300D01*
X13555Y34000D02*Y33475D01*
X13630Y33400D01*
X14005Y33700D02*X14080Y33625D01*
X13855Y33700D02*X14005D01*
X13780Y33625D02*X13855Y33700D01*
X13780Y33625D02*Y33475D01*
X13855Y33400D01*
X14080Y33700D02*Y33475D01*
X14155Y33400D01*
X13855D02*X14005D01*
X14080Y33475D01*
X14410Y34000D02*Y33475D01*
X14485Y33400D01*
X14335Y33775D02*X14485D01*
X14710Y33400D02*X14935D01*
X14635Y33475D02*X14710Y33400D01*
X14635Y33625D02*Y33475D01*
Y33625D02*X14710Y33700D01*
X14860D01*
X14935Y33625D01*
X14635Y33550D02*X14935D01*
Y33625D02*Y33550D01*
X15415Y34000D02*Y33400D01*
X15340D02*X15415Y33475D01*
X15190Y33400D02*X15340D01*
X15115Y33475D02*X15190Y33400D01*
X15115Y33625D02*Y33475D01*
Y33625D02*X15190Y33700D01*
X15340D01*
X15415Y33625D01*
X15745Y33700D02*Y33625D01*
Y33475D02*Y33400D01*
X15595Y33925D02*Y33850D01*
Y33925D02*X15670Y34000D01*
X15820D01*
X15895Y33925D01*
Y33850D01*
X15745Y33700D02*X15895Y33850D01*
G04 Text: There are 5 different drill sizes used in this layout, 124 holes total *
X0Y35500D02*X300D01*
X150D02*Y34900D01*
X480Y35500D02*Y34900D01*
Y35125D02*X555Y35200D01*
X705D01*
X780Y35125D01*
Y34900D01*
X1035D02*X1260D01*
X960Y34975D02*X1035Y34900D01*
X960Y35125D02*Y34975D01*
Y35125D02*X1035Y35200D01*
X1185D01*
X1260Y35125D01*
X960Y35050D02*X1260D01*
Y35125D02*Y35050D01*
X1515Y35125D02*Y34900D01*
Y35125D02*X1590Y35200D01*
X1740D01*
X1440D02*X1515Y35125D01*
X1995Y34900D02*X2220D01*
X1920Y34975D02*X1995Y34900D01*
X1920Y35125D02*Y34975D01*
Y35125D02*X1995Y35200D01*
X2145D01*
X2220Y35125D01*
X1920Y35050D02*X2220D01*
Y35125D02*Y35050D01*
X2895Y35200D02*X2970Y35125D01*
X2745Y35200D02*X2895D01*
X2670Y35125D02*X2745Y35200D01*
X2670Y35125D02*Y34975D01*
X2745Y34900D01*
X2970Y35200D02*Y34975D01*
X3045Y34900D01*
X2745D02*X2895D01*
X2970Y34975D01*
X3300Y35125D02*Y34900D01*
Y35125D02*X3375Y35200D01*
X3525D01*
X3225D02*X3300Y35125D01*
X3781Y34900D02*X4006D01*
X3706Y34975D02*X3781Y34900D01*
X3706Y35125D02*Y34975D01*
Y35125D02*X3781Y35200D01*
X3931D01*
X4006Y35125D01*
X3706Y35050D02*X4006D01*
Y35125D02*Y35050D01*
X4456Y35500D02*X4756D01*
X4456D02*Y35200D01*
X4531Y35275D01*
X4681D01*
X4756Y35200D01*
Y34975D01*
X4681Y34900D02*X4756Y34975D01*
X4531Y34900D02*X4681D01*
X4456Y34975D02*X4531Y34900D01*
X5506Y35500D02*Y34900D01*
X5431D02*X5506Y34975D01*
X5281Y34900D02*X5431D01*
X5206Y34975D02*X5281Y34900D01*
X5206Y35125D02*Y34975D01*
Y35125D02*X5281Y35200D01*
X5431D01*
X5506Y35125D01*
X5686Y35350D02*Y35275D01*
Y35125D02*Y34900D01*
X5911Y35425D02*Y34900D01*
Y35425D02*X5986Y35500D01*
X6061D01*
X5836Y35200D02*X5986D01*
X6286Y35425D02*Y34900D01*
Y35425D02*X6361Y35500D01*
X6436D01*
X6211Y35200D02*X6361D01*
X6661Y34900D02*X6886D01*
X6586Y34975D02*X6661Y34900D01*
X6586Y35125D02*Y34975D01*
Y35125D02*X6661Y35200D01*
X6811D01*
X6886Y35125D01*
X6586Y35050D02*X6886D01*
Y35125D02*Y35050D01*
X7142Y35125D02*Y34900D01*
Y35125D02*X7217Y35200D01*
X7367D01*
X7067D02*X7142Y35125D01*
X7622Y34900D02*X7847D01*
X7547Y34975D02*X7622Y34900D01*
X7547Y35125D02*Y34975D01*
Y35125D02*X7622Y35200D01*
X7772D01*
X7847Y35125D01*
X7547Y35050D02*X7847D01*
Y35125D02*Y35050D01*
X8102Y35125D02*Y34900D01*
Y35125D02*X8177Y35200D01*
X8252D01*
X8327Y35125D01*
Y34900D01*
X8027Y35200D02*X8102Y35125D01*
X8582Y35500D02*Y34975D01*
X8657Y34900D01*
X8507Y35275D02*X8657D01*
X9377Y35500D02*Y34900D01*
X9302D02*X9377Y34975D01*
X9152Y34900D02*X9302D01*
X9077Y34975D02*X9152Y34900D01*
X9077Y35125D02*Y34975D01*
Y35125D02*X9152Y35200D01*
X9302D01*
X9377Y35125D01*
X9632D02*Y34900D01*
Y35125D02*X9707Y35200D01*
X9857D01*
X9557D02*X9632Y35125D01*
X10038Y35350D02*Y35275D01*
Y35125D02*Y34900D01*
X10188Y35500D02*Y34975D01*
X10263Y34900D01*
X10413Y35500D02*Y34975D01*
X10488Y34900D01*
X10983D02*X11208D01*
X11283Y34975D01*
X11208Y35050D02*X11283Y34975D01*
X10983Y35050D02*X11208D01*
X10908Y35125D02*X10983Y35050D01*
X10908Y35125D02*X10983Y35200D01*
X11208D01*
X11283Y35125D01*
X10908Y34975D02*X10983Y34900D01*
X11463Y35350D02*Y35275D01*
Y35125D02*Y34900D01*
X11613Y35200D02*X11913D01*
X11613Y34900D02*X11913Y35200D01*
X11613Y34900D02*X11913D01*
X12168D02*X12393D01*
X12093Y34975D02*X12168Y34900D01*
X12093Y35125D02*Y34975D01*
Y35125D02*X12168Y35200D01*
X12318D01*
X12393Y35125D01*
X12093Y35050D02*X12393D01*
Y35125D02*Y35050D01*
X12649Y34900D02*X12874D01*
X12949Y34975D01*
X12874Y35050D02*X12949Y34975D01*
X12649Y35050D02*X12874D01*
X12574Y35125D02*X12649Y35050D01*
X12574Y35125D02*X12649Y35200D01*
X12874D01*
X12949Y35125D01*
X12574Y34975D02*X12649Y34900D01*
X13399Y35200D02*Y34975D01*
X13474Y34900D01*
X13624D01*
X13699Y34975D01*
Y35200D02*Y34975D01*
X13954Y34900D02*X14179D01*
X14254Y34975D01*
X14179Y35050D02*X14254Y34975D01*
X13954Y35050D02*X14179D01*
X13879Y35125D02*X13954Y35050D01*
X13879Y35125D02*X13954Y35200D01*
X14179D01*
X14254Y35125D01*
X13879Y34975D02*X13954Y34900D01*
X14509D02*X14734D01*
X14434Y34975D02*X14509Y34900D01*
X14434Y35125D02*Y34975D01*
Y35125D02*X14509Y35200D01*
X14659D01*
X14734Y35125D01*
X14434Y35050D02*X14734D01*
Y35125D02*Y35050D01*
X15214Y35500D02*Y34900D01*
X15139D02*X15214Y34975D01*
X14989Y34900D02*X15139D01*
X14914Y34975D02*X14989Y34900D01*
X14914Y35125D02*Y34975D01*
Y35125D02*X14989Y35200D01*
X15139D01*
X15214Y35125D01*
X15664Y35350D02*Y35275D01*
Y35125D02*Y34900D01*
X15889Y35125D02*Y34900D01*
Y35125D02*X15964Y35200D01*
X16039D01*
X16114Y35125D01*
Y34900D01*
X15814Y35200D02*X15889Y35125D01*
X16640Y35500D02*Y34975D01*
X16715Y34900D01*
X16565Y35275D02*X16715D01*
X16865Y35500D02*Y34900D01*
Y35125D02*X16940Y35200D01*
X17090D01*
X17165Y35125D01*
Y34900D01*
X17345Y35350D02*Y35275D01*
Y35125D02*Y34900D01*
X17570D02*X17795D01*
X17870Y34975D01*
X17795Y35050D02*X17870Y34975D01*
X17570Y35050D02*X17795D01*
X17495Y35125D02*X17570Y35050D01*
X17495Y35125D02*X17570Y35200D01*
X17795D01*
X17870Y35125D01*
X17495Y34975D02*X17570Y34900D01*
X18320Y35500D02*Y34975D01*
X18395Y34900D01*
X18770Y35200D02*X18845Y35125D01*
X18620Y35200D02*X18770D01*
X18545Y35125D02*X18620Y35200D01*
X18545Y35125D02*Y34975D01*
X18620Y34900D01*
X18845Y35200D02*Y34975D01*
X18920Y34900D01*
X18620D02*X18770D01*
X18845Y34975D01*
X19101Y35200D02*Y34975D01*
X19176Y34900D01*
X19401Y35200D02*Y34750D01*
X19326Y34675D02*X19401Y34750D01*
X19176Y34675D02*X19326D01*
X19101Y34750D02*X19176Y34675D01*
Y34900D02*X19326D01*
X19401Y34975D01*
X19581Y35125D02*Y34975D01*
Y35125D02*X19656Y35200D01*
X19806D01*
X19881Y35125D01*
Y34975D01*
X19806Y34900D02*X19881Y34975D01*
X19656Y34900D02*X19806D01*
X19581Y34975D02*X19656Y34900D01*
X20061Y35200D02*Y34975D01*
X20136Y34900D01*
X20286D01*
X20361Y34975D01*
Y35200D02*Y34975D01*
X20616Y35500D02*Y34975D01*
X20691Y34900D01*
X20541Y35275D02*X20691D01*
X20841Y34750D02*X20991Y34900D01*
X21516D02*X21666D01*
X21591Y35500D02*Y34900D01*
X21441Y35350D02*X21591Y35500D01*
X21846Y35425D02*X21921Y35500D01*
X22146D01*
X22221Y35425D01*
Y35275D01*
X21846Y34900D02*X22221Y35275D01*
X21846Y34900D02*X22221D01*
X22402Y35200D02*X22702Y35500D01*
X22402Y35200D02*X22777D01*
X22702Y35500D02*Y34900D01*
X23227Y35500D02*Y34900D01*
Y35125D02*X23302Y35200D01*
X23452D01*
X23527Y35125D01*
Y34900D01*
X23707Y35125D02*Y34975D01*
Y35125D02*X23782Y35200D01*
X23932D01*
X24007Y35125D01*
Y34975D01*
X23932Y34900D02*X24007Y34975D01*
X23782Y34900D02*X23932D01*
X23707Y34975D02*X23782Y34900D01*
X24187Y35500D02*Y34975D01*
X24262Y34900D01*
X24487D02*X24712D01*
X24412Y34975D02*X24487Y34900D01*
X24412Y35125D02*Y34975D01*
Y35125D02*X24487Y35200D01*
X24637D01*
X24712Y35125D01*
X24412Y35050D02*X24712D01*
Y35125D02*Y35050D01*
X24967Y34900D02*X25192D01*
X25267Y34975D01*
X25192Y35050D02*X25267Y34975D01*
X24967Y35050D02*X25192D01*
X24892Y35125D02*X24967Y35050D01*
X24892Y35125D02*X24967Y35200D01*
X25192D01*
X25267Y35125D01*
X24892Y34975D02*X24967Y34900D01*
X25792Y35500D02*Y34975D01*
X25867Y34900D01*
X25717Y35275D02*X25867D01*
X26018Y35125D02*Y34975D01*
Y35125D02*X26093Y35200D01*
X26243D01*
X26318Y35125D01*
Y34975D01*
X26243Y34900D02*X26318Y34975D01*
X26093Y34900D02*X26243D01*
X26018Y34975D02*X26093Y34900D01*
X26573Y35500D02*Y34975D01*
X26648Y34900D01*
X26498Y35275D02*X26648D01*
X27023Y35200D02*X27098Y35125D01*
X26873Y35200D02*X27023D01*
X26798Y35125D02*X26873Y35200D01*
X26798Y35125D02*Y34975D01*
X26873Y34900D01*
X27098Y35200D02*Y34975D01*
X27173Y34900D01*
X26873D02*X27023D01*
X27098Y34975D01*
X27353Y35500D02*Y34975D01*
X27428Y34900D01*
G04 Text: Maximum Dimensions: 2750 mils wide, 2500 mils high *
X20000Y26500D02*Y25900D01*
Y26500D02*X20225Y26275D01*
X20450Y26500D01*
Y25900D01*
X20855Y26200D02*X20930Y26125D01*
X20705Y26200D02*X20855D01*
X20630Y26125D02*X20705Y26200D01*
X20630Y26125D02*Y25975D01*
X20705Y25900D01*
X20930Y26200D02*Y25975D01*
X21005Y25900D01*
X20705D02*X20855D01*
X20930Y25975D01*
X21185Y26200D02*X21485Y25900D01*
X21185D02*X21485Y26200D01*
X21665Y26350D02*Y26275D01*
Y26125D02*Y25900D01*
X21890Y26125D02*Y25900D01*
Y26125D02*X21965Y26200D01*
X22040D01*
X22115Y26125D01*
Y25900D01*
Y26125D02*X22190Y26200D01*
X22265D01*
X22340Y26125D01*
Y25900D01*
X21815Y26200D02*X21890Y26125D01*
X22520Y26200D02*Y25975D01*
X22595Y25900D01*
X22745D01*
X22820Y25975D01*
Y26200D02*Y25975D01*
X23075Y26125D02*Y25900D01*
Y26125D02*X23150Y26200D01*
X23225D01*
X23300Y26125D01*
Y25900D01*
Y26125D02*X23375Y26200D01*
X23450D01*
X23525Y26125D01*
Y25900D01*
X23000Y26200D02*X23075Y26125D01*
X24051Y26500D02*Y25900D01*
X24276Y26500D02*X24351Y26425D01*
Y25975D01*
X24276Y25900D02*X24351Y25975D01*
X23976Y25900D02*X24276D01*
X23976Y26500D02*X24276D01*
X24531Y26350D02*Y26275D01*
Y26125D02*Y25900D01*
X24756Y26125D02*Y25900D01*
Y26125D02*X24831Y26200D01*
X24906D01*
X24981Y26125D01*
Y25900D01*
Y26125D02*X25056Y26200D01*
X25131D01*
X25206Y26125D01*
Y25900D01*
X24681Y26200D02*X24756Y26125D01*
X25461Y25900D02*X25686D01*
X25386Y25975D02*X25461Y25900D01*
X25386Y26125D02*Y25975D01*
Y26125D02*X25461Y26200D01*
X25611D01*
X25686Y26125D01*
X25386Y26050D02*X25686D01*
Y26125D02*Y26050D01*
X25941Y26125D02*Y25900D01*
Y26125D02*X26016Y26200D01*
X26091D01*
X26166Y26125D01*
Y25900D01*
X25866Y26200D02*X25941Y26125D01*
X26421Y25900D02*X26646D01*
X26721Y25975D01*
X26646Y26050D02*X26721Y25975D01*
X26421Y26050D02*X26646D01*
X26346Y26125D02*X26421Y26050D01*
X26346Y26125D02*X26421Y26200D01*
X26646D01*
X26721Y26125D01*
X26346Y25975D02*X26421Y25900D01*
X26901Y26350D02*Y26275D01*
Y26125D02*Y25900D01*
X27052Y26125D02*Y25975D01*
Y26125D02*X27127Y26200D01*
X27277D01*
X27352Y26125D01*
Y25975D01*
X27277Y25900D02*X27352Y25975D01*
X27127Y25900D02*X27277D01*
X27052Y25975D02*X27127Y25900D01*
X27607Y26125D02*Y25900D01*
Y26125D02*X27682Y26200D01*
X27757D01*
X27832Y26125D01*
Y25900D01*
X27532Y26200D02*X27607Y26125D01*
X28087Y25900D02*X28312D01*
X28387Y25975D01*
X28312Y26050D02*X28387Y25975D01*
X28087Y26050D02*X28312D01*
X28012Y26125D02*X28087Y26050D01*
X28012Y26125D02*X28087Y26200D01*
X28312D01*
X28387Y26125D01*
X28012Y25975D02*X28087Y25900D01*
X28567Y26275D02*X28642D01*
X28567Y26125D02*X28642D01*
X29092Y26425D02*X29167Y26500D01*
X29392D01*
X29467Y26425D01*
Y26275D01*
X29092Y25900D02*X29467Y26275D01*
X29092Y25900D02*X29467D01*
X29647D02*X30022Y26275D01*
Y26500D02*Y26275D01*
X29647Y26500D02*X30022D01*
X30203D02*X30503D01*
X30203D02*Y26200D01*
X30278Y26275D01*
X30428D01*
X30503Y26200D01*
Y25975D01*
X30428Y25900D02*X30503Y25975D01*
X30278Y25900D02*X30428D01*
X30203Y25975D02*X30278Y25900D01*
X30683Y25975D02*X30758Y25900D01*
X30683Y26425D02*Y25975D01*
Y26425D02*X30758Y26500D01*
X30908D01*
X30983Y26425D01*
Y25975D01*
X30908Y25900D02*X30983Y25975D01*
X30758Y25900D02*X30908D01*
X30683Y26050D02*X30983Y26350D01*
X31508Y26125D02*Y25900D01*
Y26125D02*X31583Y26200D01*
X31658D01*
X31733Y26125D01*
Y25900D01*
Y26125D02*X31808Y26200D01*
X31883D01*
X31958Y26125D01*
Y25900D01*
X31433Y26200D02*X31508Y26125D01*
X32138Y26350D02*Y26275D01*
Y26125D02*Y25900D01*
X32288Y26500D02*Y25975D01*
X32363Y25900D01*
X32588D02*X32813D01*
X32888Y25975D01*
X32813Y26050D02*X32888Y25975D01*
X32588Y26050D02*X32813D01*
X32513Y26125D02*X32588Y26050D01*
X32513Y26125D02*X32588Y26200D01*
X32813D01*
X32888Y26125D01*
X32513Y25975D02*X32588Y25900D01*
X33338Y26200D02*Y25975D01*
X33413Y25900D01*
X33488D01*
X33563Y25975D01*
Y26200D02*Y25975D01*
X33638Y25900D01*
X33713D01*
X33788Y25975D01*
Y26200D02*Y25975D01*
X33969Y26350D02*Y26275D01*
Y26125D02*Y25900D01*
X34419Y26500D02*Y25900D01*
X34344D02*X34419Y25975D01*
X34194Y25900D02*X34344D01*
X34119Y25975D02*X34194Y25900D01*
X34119Y26125D02*Y25975D01*
Y26125D02*X34194Y26200D01*
X34344D01*
X34419Y26125D01*
X34674Y25900D02*X34899D01*
X34599Y25975D02*X34674Y25900D01*
X34599Y26125D02*Y25975D01*
Y26125D02*X34674Y26200D01*
X34824D01*
X34899Y26125D01*
X34599Y26050D02*X34899D01*
Y26125D02*Y26050D01*
X35079Y25750D02*X35229Y25900D01*
X35679Y26425D02*X35754Y26500D01*
X35979D01*
X36054Y26425D01*
Y26275D01*
X35679Y25900D02*X36054Y26275D01*
X35679Y25900D02*X36054D01*
X36234Y26500D02*X36534D01*
X36234D02*Y26200D01*
X36309Y26275D01*
X36459D01*
X36534Y26200D01*
Y25975D01*
X36459Y25900D02*X36534Y25975D01*
X36309Y25900D02*X36459D01*
X36234Y25975D02*X36309Y25900D01*
X36714Y25975D02*X36789Y25900D01*
X36714Y26425D02*Y25975D01*
Y26425D02*X36789Y26500D01*
X36939D01*
X37014Y26425D01*
Y25975D01*
X36939Y25900D02*X37014Y25975D01*
X36789Y25900D02*X36939D01*
X36714Y26050D02*X37014Y26350D01*
X37195Y25975D02*X37270Y25900D01*
X37195Y26425D02*Y25975D01*
Y26425D02*X37270Y26500D01*
X37420D01*
X37495Y26425D01*
Y25975D01*
X37420Y25900D02*X37495Y25975D01*
X37270Y25900D02*X37420D01*
X37195Y26050D02*X37495Y26350D01*
X38020Y26125D02*Y25900D01*
Y26125D02*X38095Y26200D01*
X38170D01*
X38245Y26125D01*
Y25900D01*
Y26125D02*X38320Y26200D01*
X38395D01*
X38470Y26125D01*
Y25900D01*
X37945Y26200D02*X38020Y26125D01*
X38650Y26350D02*Y26275D01*
Y26125D02*Y25900D01*
X38800Y26500D02*Y25975D01*
X38875Y25900D01*
X39100D02*X39325D01*
X39400Y25975D01*
X39325Y26050D02*X39400Y25975D01*
X39100Y26050D02*X39325D01*
X39025Y26125D02*X39100Y26050D01*
X39025Y26125D02*X39100Y26200D01*
X39325D01*
X39400Y26125D01*
X39025Y25975D02*X39100Y25900D01*
X39850Y26500D02*Y25900D01*
Y26125D02*X39925Y26200D01*
X40075D01*
X40150Y26125D01*
Y25900D01*
X40331Y26350D02*Y26275D01*
Y26125D02*Y25900D01*
X40706Y26200D02*X40781Y26125D01*
X40556Y26200D02*X40706D01*
X40481Y26125D02*X40556Y26200D01*
X40481Y26125D02*Y25975D01*
X40556Y25900D01*
X40706D01*
X40781Y25975D01*
X40481Y25750D02*X40556Y25675D01*
X40706D01*
X40781Y25750D01*
Y26200D02*Y25750D01*
X40961Y26500D02*Y25900D01*
Y26125D02*X41036Y26200D01*
X41186D01*
X41261Y26125D01*
Y25900D01*
*G04 Outline ***
G54D13*X0Y0D02*X27500Y0D01*
X27500Y0D02*X27500Y25000D01*
X27500Y25000D02*X0Y25000D01*
X0Y25000D02*X0Y0D01*
G04 Text: Board outline is the centerline of this 10 mil rectangle - 0,0 to 2750,2500 mils *
G54D11*Y-800D02*X300D01*
X375Y-725D01*
Y-575D02*Y-725D01*
X300Y-500D02*X375Y-575D01*
X75Y-500D02*X300D01*
X75Y-200D02*Y-800D01*
X0Y-200D02*X300D01*
X375Y-275D01*
Y-425D01*
X300Y-500D02*X375Y-425D01*
X555Y-575D02*Y-725D01*
Y-575D02*X630Y-500D01*
X780D01*
X855Y-575D01*
Y-725D01*
X780Y-800D02*X855Y-725D01*
X630Y-800D02*X780D01*
X555Y-725D02*X630Y-800D01*
X1260Y-500D02*X1335Y-575D01*
X1110Y-500D02*X1260D01*
X1035Y-575D02*X1110Y-500D01*
X1035Y-575D02*Y-725D01*
X1110Y-800D01*
X1335Y-500D02*Y-725D01*
X1410Y-800D01*
X1110D02*X1260D01*
X1335Y-725D01*
X1665Y-575D02*Y-800D01*
Y-575D02*X1740Y-500D01*
X1890D01*
X1590D02*X1665Y-575D01*
X2370Y-200D02*Y-800D01*
X2295D02*X2370Y-725D01*
X2145Y-800D02*X2295D01*
X2070Y-725D02*X2145Y-800D01*
X2070Y-575D02*Y-725D01*
Y-575D02*X2145Y-500D01*
X2295D01*
X2370Y-575D01*
X2820D02*Y-725D01*
Y-575D02*X2895Y-500D01*
X3045D01*
X3120Y-575D01*
Y-725D01*
X3045Y-800D02*X3120Y-725D01*
X2895Y-800D02*X3045D01*
X2820Y-725D02*X2895Y-800D01*
X3300Y-500D02*Y-725D01*
X3375Y-800D01*
X3525D01*
X3600Y-725D01*
Y-500D02*Y-725D01*
X3856Y-200D02*Y-725D01*
X3931Y-800D01*
X3781Y-425D02*X3931D01*
X4081Y-200D02*Y-725D01*
X4156Y-800D01*
X4306Y-350D02*Y-425D01*
Y-575D02*Y-800D01*
X4531Y-575D02*Y-800D01*
Y-575D02*X4606Y-500D01*
X4681D01*
X4756Y-575D01*
Y-800D01*
X4456Y-500D02*X4531Y-575D01*
X5011Y-800D02*X5236D01*
X4936Y-725D02*X5011Y-800D01*
X4936Y-575D02*Y-725D01*
Y-575D02*X5011Y-500D01*
X5161D01*
X5236Y-575D01*
X4936Y-650D02*X5236D01*
Y-575D02*Y-650D01*
X5686Y-350D02*Y-425D01*
Y-575D02*Y-800D01*
X5911D02*X6136D01*
X6211Y-725D01*
X6136Y-650D02*X6211Y-725D01*
X5911Y-650D02*X6136D01*
X5836Y-575D02*X5911Y-650D01*
X5836Y-575D02*X5911Y-500D01*
X6136D01*
X6211Y-575D01*
X5836Y-725D02*X5911Y-800D01*
X6737Y-200D02*Y-725D01*
X6812Y-800D01*
X6662Y-425D02*X6812D01*
X6962Y-200D02*Y-800D01*
Y-575D02*X7037Y-500D01*
X7187D01*
X7262Y-575D01*
Y-800D01*
X7517D02*X7742D01*
X7442Y-725D02*X7517Y-800D01*
X7442Y-575D02*Y-725D01*
Y-575D02*X7517Y-500D01*
X7667D01*
X7742Y-575D01*
X7442Y-650D02*X7742D01*
Y-575D02*Y-650D01*
X8267Y-500D02*X8492D01*
X8192Y-575D02*X8267Y-500D01*
X8192Y-575D02*Y-725D01*
X8267Y-800D01*
X8492D01*
X8747D02*X8972D01*
X8672Y-725D02*X8747Y-800D01*
X8672Y-575D02*Y-725D01*
Y-575D02*X8747Y-500D01*
X8897D01*
X8972Y-575D01*
X8672Y-650D02*X8972D01*
Y-575D02*Y-650D01*
X9227Y-575D02*Y-800D01*
Y-575D02*X9302Y-500D01*
X9377D01*
X9452Y-575D01*
Y-800D01*
X9152Y-500D02*X9227Y-575D01*
X9708Y-200D02*Y-725D01*
X9783Y-800D01*
X9633Y-425D02*X9783D01*
X10008Y-800D02*X10233D01*
X9933Y-725D02*X10008Y-800D01*
X9933Y-575D02*Y-725D01*
Y-575D02*X10008Y-500D01*
X10158D01*
X10233Y-575D01*
X9933Y-650D02*X10233D01*
Y-575D02*Y-650D01*
X10488Y-575D02*Y-800D01*
Y-575D02*X10563Y-500D01*
X10713D01*
X10413D02*X10488Y-575D01*
X10893Y-200D02*Y-725D01*
X10968Y-800D01*
X11118Y-350D02*Y-425D01*
Y-575D02*Y-800D01*
X11343Y-575D02*Y-800D01*
Y-575D02*X11418Y-500D01*
X11493D01*
X11568Y-575D01*
Y-800D01*
X11268Y-500D02*X11343Y-575D01*
X11823Y-800D02*X12048D01*
X11748Y-725D02*X11823Y-800D01*
X11748Y-575D02*Y-725D01*
Y-575D02*X11823Y-500D01*
X11973D01*
X12048Y-575D01*
X11748Y-650D02*X12048D01*
Y-575D02*Y-650D01*
X12499Y-575D02*Y-725D01*
Y-575D02*X12574Y-500D01*
X12724D01*
X12799Y-575D01*
Y-725D01*
X12724Y-800D02*X12799Y-725D01*
X12574Y-800D02*X12724D01*
X12499Y-725D02*X12574Y-800D01*
X13054Y-275D02*Y-800D01*
Y-275D02*X13129Y-200D01*
X13204D01*
X12979Y-500D02*X13129D01*
X13699Y-200D02*Y-725D01*
X13774Y-800D01*
X13624Y-425D02*X13774D01*
X13924Y-200D02*Y-800D01*
Y-575D02*X13999Y-500D01*
X14149D01*
X14224Y-575D01*
Y-800D01*
X14404Y-350D02*Y-425D01*
Y-575D02*Y-800D01*
X14629D02*X14854D01*
X14929Y-725D01*
X14854Y-650D02*X14929Y-725D01*
X14629Y-650D02*X14854D01*
X14554Y-575D02*X14629Y-650D01*
X14554Y-575D02*X14629Y-500D01*
X14854D01*
X14929Y-575D01*
X14554Y-725D02*X14629Y-800D01*
X15454D02*X15604D01*
X15529Y-200D02*Y-800D01*
X15379Y-350D02*X15529Y-200D01*
X15785Y-725D02*X15860Y-800D01*
X15785Y-275D02*Y-725D01*
Y-275D02*X15860Y-200D01*
X16010D01*
X16085Y-275D01*
Y-725D01*
X16010Y-800D02*X16085Y-725D01*
X15860Y-800D02*X16010D01*
X15785Y-650D02*X16085Y-350D01*
X16610Y-575D02*Y-800D01*
Y-575D02*X16685Y-500D01*
X16760D01*
X16835Y-575D01*
Y-800D01*
Y-575D02*X16910Y-500D01*
X16985D01*
X17060Y-575D01*
Y-800D01*
X16535Y-500D02*X16610Y-575D01*
X17240Y-350D02*Y-425D01*
Y-575D02*Y-800D01*
X17390Y-200D02*Y-725D01*
X17465Y-800D01*
X17960Y-575D02*Y-800D01*
Y-575D02*X18035Y-500D01*
X18185D01*
X17885D02*X17960Y-575D01*
X18440Y-800D02*X18665D01*
X18365Y-725D02*X18440Y-800D01*
X18365Y-575D02*Y-725D01*
Y-575D02*X18440Y-500D01*
X18590D01*
X18665Y-575D01*
X18365Y-650D02*X18665D01*
Y-575D02*Y-650D01*
X18921Y-500D02*X19146D01*
X18846Y-575D02*X18921Y-500D01*
X18846Y-575D02*Y-725D01*
X18921Y-800D01*
X19146D01*
X19401Y-200D02*Y-725D01*
X19476Y-800D01*
X19326Y-425D02*X19476D01*
X19851Y-500D02*X19926Y-575D01*
X19701Y-500D02*X19851D01*
X19626Y-575D02*X19701Y-500D01*
X19626Y-575D02*Y-725D01*
X19701Y-800D01*
X19926Y-500D02*Y-725D01*
X20001Y-800D01*
X19701D02*X19851D01*
X19926Y-725D01*
X20256Y-575D02*Y-800D01*
Y-575D02*X20331Y-500D01*
X20406D01*
X20481Y-575D01*
Y-800D01*
X20181Y-500D02*X20256Y-575D01*
X20886Y-500D02*X20961Y-575D01*
X20736Y-500D02*X20886D01*
X20661Y-575D02*X20736Y-500D01*
X20661Y-575D02*Y-725D01*
X20736Y-800D01*
X20886D01*
X20961Y-725D01*
X20661Y-950D02*X20736Y-1025D01*
X20886D01*
X20961Y-950D01*
Y-500D02*Y-950D01*
X21141Y-200D02*Y-725D01*
X21216Y-800D01*
X21441D02*X21666D01*
X21366Y-725D02*X21441Y-800D01*
X21366Y-575D02*Y-725D01*
Y-575D02*X21441Y-500D01*
X21591D01*
X21666Y-575D01*
X21366Y-650D02*X21666D01*
Y-575D02*Y-650D01*
X22117Y-500D02*X22417D01*
X22867Y-725D02*X22942Y-800D01*
X22867Y-275D02*Y-725D01*
Y-275D02*X22942Y-200D01*
X23092D01*
X23167Y-275D01*
Y-725D01*
X23092Y-800D02*X23167Y-725D01*
X22942Y-800D02*X23092D01*
X22867Y-650D02*X23167Y-350D01*
X23347Y-950D02*X23497Y-800D01*
X23677Y-725D02*X23752Y-800D01*
X23677Y-275D02*Y-725D01*
Y-275D02*X23752Y-200D01*
X23902D01*
X23977Y-275D01*
Y-725D01*
X23902Y-800D02*X23977Y-725D01*
X23752Y-800D02*X23902D01*
X23677Y-650D02*X23977Y-350D01*
X24502Y-200D02*Y-725D01*
X24577Y-800D01*
X24427Y-425D02*X24577D01*
X24727Y-575D02*Y-725D01*
Y-575D02*X24802Y-500D01*
X24952D01*
X25027Y-575D01*
Y-725D01*
X24952Y-800D02*X25027Y-725D01*
X24802Y-800D02*X24952D01*
X24727Y-725D02*X24802Y-800D01*
X25477Y-275D02*X25552Y-200D01*
X25777D01*
X25852Y-275D01*
Y-425D01*
X25477Y-800D02*X25852Y-425D01*
X25477Y-800D02*X25852D01*
X26033D02*X26408Y-425D01*
Y-200D02*Y-425D01*
X26033Y-200D02*X26408D01*
X26588D02*X26888D01*
X26588D02*Y-500D01*
X26663Y-425D01*
X26813D01*
X26888Y-500D01*
Y-725D01*
X26813Y-800D02*X26888Y-725D01*
X26663Y-800D02*X26813D01*
X26588Y-725D02*X26663Y-800D01*
X27068Y-725D02*X27143Y-800D01*
X27068Y-275D02*Y-725D01*
Y-275D02*X27143Y-200D01*
X27293D01*
X27368Y-275D01*
Y-725D01*
X27293Y-800D02*X27368Y-725D01*
X27143Y-800D02*X27293D01*
X27068Y-650D02*X27368Y-350D01*
X27548Y-950D02*X27698Y-800D01*
X27878Y-275D02*X27953Y-200D01*
X28178D01*
X28253Y-275D01*
Y-425D01*
X27878Y-800D02*X28253Y-425D01*
X27878Y-800D02*X28253D01*
X28433Y-200D02*X28733D01*
X28433D02*Y-500D01*
X28508Y-425D01*
X28658D01*
X28733Y-500D01*
Y-725D01*
X28658Y-800D02*X28733Y-725D01*
X28508Y-800D02*X28658D01*
X28433Y-725D02*X28508Y-800D01*
X28914Y-725D02*X28989Y-800D01*
X28914Y-275D02*Y-725D01*
Y-275D02*X28989Y-200D01*
X29139D01*
X29214Y-275D01*
Y-725D01*
X29139Y-800D02*X29214Y-725D01*
X28989Y-800D02*X29139D01*
X28914Y-650D02*X29214Y-350D01*
X29394Y-725D02*X29469Y-800D01*
X29394Y-275D02*Y-725D01*
Y-275D02*X29469Y-200D01*
X29619D01*
X29694Y-275D01*
Y-725D01*
X29619Y-800D02*X29694Y-725D01*
X29469Y-800D02*X29619D01*
X29394Y-650D02*X29694Y-350D01*
X30219Y-575D02*Y-800D01*
Y-575D02*X30294Y-500D01*
X30369D01*
X30444Y-575D01*
Y-800D01*
Y-575D02*X30519Y-500D01*
X30594D01*
X30669Y-575D01*
Y-800D01*
X30144Y-500D02*X30219Y-575D01*
X30849Y-350D02*Y-425D01*
Y-575D02*Y-800D01*
X30999Y-200D02*Y-725D01*
X31074Y-800D01*
X31299D02*X31524D01*
X31599Y-725D01*
X31524Y-650D02*X31599Y-725D01*
X31299Y-650D02*X31524D01*
X31224Y-575D02*X31299Y-650D01*
X31224Y-575D02*X31299Y-500D01*
X31524D01*
X31599Y-575D01*
X31224Y-725D02*X31299Y-800D01*
G04 Text: Date: Thu Mar  2 20:16:21 2006 UTC *
X20075Y28000D02*Y27400D01*
X20300Y28000D02*X20375Y27925D01*
Y27475D01*
X20300Y27400D02*X20375Y27475D01*
X20000Y27400D02*X20300D01*
X20000Y28000D02*X20300D01*
X20780Y27700D02*X20855Y27625D01*
X20630Y27700D02*X20780D01*
X20555Y27625D02*X20630Y27700D01*
X20555Y27625D02*Y27475D01*
X20630Y27400D01*
X20855Y27700D02*Y27475D01*
X20930Y27400D01*
X20630D02*X20780D01*
X20855Y27475D01*
X21185Y28000D02*Y27475D01*
X21260Y27400D01*
X21110Y27775D02*X21260D01*
X21485Y27400D02*X21710D01*
X21410Y27475D02*X21485Y27400D01*
X21410Y27625D02*Y27475D01*
Y27625D02*X21485Y27700D01*
X21635D01*
X21710Y27625D01*
X21410Y27550D02*X21710D01*
Y27625D02*Y27550D01*
X21890Y27775D02*X21965D01*
X21890Y27625D02*X21965D01*
X22415Y28000D02*X22715D01*
X22565D02*Y27400D01*
X22895Y28000D02*Y27400D01*
Y27625D02*X22970Y27700D01*
X23120D01*
X23195Y27625D01*
Y27400D01*
X23376Y27700D02*Y27475D01*
X23451Y27400D01*
X23601D01*
X23676Y27475D01*
Y27700D02*Y27475D01*
X24126Y28000D02*Y27400D01*
Y28000D02*X24351Y27775D01*
X24576Y28000D01*
Y27400D01*
X24981Y27700D02*X25056Y27625D01*
X24831Y27700D02*X24981D01*
X24756Y27625D02*X24831Y27700D01*
X24756Y27625D02*Y27475D01*
X24831Y27400D01*
X25056Y27700D02*Y27475D01*
X25131Y27400D01*
X24831D02*X24981D01*
X25056Y27475D01*
X25386Y27625D02*Y27400D01*
Y27625D02*X25461Y27700D01*
X25611D01*
X25311D02*X25386Y27625D01*
X26331Y27925D02*X26406Y28000D01*
X26631D01*
X26706Y27925D01*
Y27775D01*
X26331Y27400D02*X26706Y27775D01*
X26331Y27400D02*X26706D01*
X27156Y27925D02*X27231Y28000D01*
X27456D01*
X27531Y27925D01*
Y27775D01*
X27156Y27400D02*X27531Y27775D01*
X27156Y27400D02*X27531D01*
X27711Y27475D02*X27786Y27400D01*
X27711Y27925D02*Y27475D01*
Y27925D02*X27786Y28000D01*
X27936D01*
X28011Y27925D01*
Y27475D01*
X27936Y27400D02*X28011Y27475D01*
X27786Y27400D02*X27936D01*
X27711Y27550D02*X28011Y27850D01*
X28192Y27775D02*X28267D01*
X28192Y27625D02*X28267D01*
X28522Y27400D02*X28672D01*
X28597Y28000D02*Y27400D01*
X28447Y27850D02*X28597Y28000D01*
X29077D02*X29152Y27925D01*
X28927Y28000D02*X29077D01*
X28852Y27925D02*X28927Y28000D01*
X28852Y27925D02*Y27475D01*
X28927Y27400D01*
X29077Y27700D02*X29152Y27625D01*
X28852Y27700D02*X29077D01*
X28927Y27400D02*X29077D01*
X29152Y27475D01*
Y27625D02*Y27475D01*
X29332Y27775D02*X29407D01*
X29332Y27625D02*X29407D01*
X29587Y27925D02*X29662Y28000D01*
X29887D01*
X29962Y27925D01*
Y27775D01*
X29587Y27400D02*X29962Y27775D01*
X29587Y27400D02*X29962D01*
X30217D02*X30367D01*
X30292Y28000D02*Y27400D01*
X30142Y27850D02*X30292Y28000D01*
X30818Y27925D02*X30893Y28000D01*
X31118D01*
X31193Y27925D01*
Y27775D01*
X30818Y27400D02*X31193Y27775D01*
X30818Y27400D02*X31193D01*
X31373Y27475D02*X31448Y27400D01*
X31373Y27925D02*Y27475D01*
Y27925D02*X31448Y28000D01*
X31598D01*
X31673Y27925D01*
Y27475D01*
X31598Y27400D02*X31673Y27475D01*
X31448Y27400D02*X31598D01*
X31373Y27550D02*X31673Y27850D01*
X31853Y27475D02*X31928Y27400D01*
X31853Y27925D02*Y27475D01*
Y27925D02*X31928Y28000D01*
X32078D01*
X32153Y27925D01*
Y27475D01*
X32078Y27400D02*X32153Y27475D01*
X31928Y27400D02*X32078D01*
X31853Y27550D02*X32153Y27850D01*
X32558Y28000D02*X32633Y27925D01*
X32408Y28000D02*X32558D01*
X32333Y27925D02*X32408Y28000D01*
X32333Y27925D02*Y27475D01*
X32408Y27400D01*
X32558Y27700D02*X32633Y27625D01*
X32333Y27700D02*X32558D01*
X32408Y27400D02*X32558D01*
X32633Y27475D01*
Y27625D02*Y27475D01*
X33083Y28000D02*Y27475D01*
X33158Y27400D01*
X33308D01*
X33383Y27475D01*
Y28000D02*Y27475D01*
X33563Y28000D02*X33863D01*
X33713D02*Y27400D01*
X34118D02*X34343D01*
X34043Y27475D02*X34118Y27400D01*
X34043Y27925D02*Y27475D01*
Y27925D02*X34118Y28000D01*
X34343D01*
G04 Text: Author: Matt Ettus *
X20000Y29425D02*Y28900D01*
Y29425D02*X20075Y29500D01*
X20300D01*
X20375Y29425D01*
Y28900D01*
X20000Y29200D02*X20375D01*
X20555D02*Y28975D01*
X20630Y28900D01*
X20780D01*
X20855Y28975D01*
Y29200D02*Y28975D01*
X21110Y29500D02*Y28975D01*
X21185Y28900D01*
X21035Y29275D02*X21185D01*
X21335Y29500D02*Y28900D01*
Y29125D02*X21410Y29200D01*
X21560D01*
X21635Y29125D01*
Y28900D01*
X21815Y29125D02*Y28975D01*
Y29125D02*X21890Y29200D01*
X22040D01*
X22115Y29125D01*
Y28975D01*
X22040Y28900D02*X22115Y28975D01*
X21890Y28900D02*X22040D01*
X21815Y28975D02*X21890Y28900D01*
X22370Y29125D02*Y28900D01*
Y29125D02*X22445Y29200D01*
X22595D01*
X22295D02*X22370Y29125D01*
X22775Y29275D02*X22850D01*
X22775Y29125D02*X22850D01*
X23301Y29500D02*Y28900D01*
Y29500D02*X23526Y29275D01*
X23751Y29500D01*
Y28900D01*
X24156Y29200D02*X24231Y29125D01*
X24006Y29200D02*X24156D01*
X23931Y29125D02*X24006Y29200D01*
X23931Y29125D02*Y28975D01*
X24006Y28900D01*
X24231Y29200D02*Y28975D01*
X24306Y28900D01*
X24006D02*X24156D01*
X24231Y28975D01*
X24561Y29500D02*Y28975D01*
X24636Y28900D01*
X24486Y29275D02*X24636D01*
X24861Y29500D02*Y28975D01*
X24936Y28900D01*
X24786Y29275D02*X24936D01*
X25356Y29200D02*X25581D01*
X25356Y28900D02*X25656D01*
X25356Y29500D02*Y28900D01*
Y29500D02*X25656D01*
X25911D02*Y28975D01*
X25986Y28900D01*
X25836Y29275D02*X25986D01*
X26211Y29500D02*Y28975D01*
X26286Y28900D01*
X26136Y29275D02*X26286D01*
X26437Y29200D02*Y28975D01*
X26512Y28900D01*
X26662D01*
X26737Y28975D01*
Y29200D02*Y28975D01*
X26992Y28900D02*X27217D01*
X27292Y28975D01*
X27217Y29050D02*X27292Y28975D01*
X26992Y29050D02*X27217D01*
X26917Y29125D02*X26992Y29050D01*
X26917Y29125D02*X26992Y29200D01*
X27217D01*
X27292Y29125D01*
X26917Y28975D02*X26992Y28900D01*
G04 Text: Title: RX Daughterboard - Fabrication Drawing *
X20000Y31000D02*X20300D01*
X20150D02*Y30400D01*
X20480Y30850D02*Y30775D01*
Y30625D02*Y30400D01*
X20705Y31000D02*Y30475D01*
X20780Y30400D01*
X20630Y30775D02*X20780D01*
X20930Y31000D02*Y30475D01*
X21005Y30400D01*
X21230D02*X21455D01*
X21155Y30475D02*X21230Y30400D01*
X21155Y30625D02*Y30475D01*
Y30625D02*X21230Y30700D01*
X21380D01*
X21455Y30625D01*
X21155Y30550D02*X21455D01*
Y30625D02*Y30550D01*
X21635Y30775D02*X21710D01*
X21635Y30625D02*X21710D01*
X22160Y31000D02*X22460D01*
X22535Y30925D01*
Y30775D01*
X22460Y30700D02*X22535Y30775D01*
X22235Y30700D02*X22460D01*
X22235Y31000D02*Y30400D01*
Y30700D02*X22535Y30400D01*
X22716Y31000D02*Y30925D01*
X23091Y30550D01*
Y30400D01*
X22716Y30550D02*Y30400D01*
Y30550D02*X23091Y30925D01*
Y31000D02*Y30925D01*
X23616Y31000D02*Y30400D01*
X23841Y31000D02*X23916Y30925D01*
Y30475D01*
X23841Y30400D02*X23916Y30475D01*
X23541Y30400D02*X23841D01*
X23541Y31000D02*X23841D01*
X24321Y30700D02*X24396Y30625D01*
X24171Y30700D02*X24321D01*
X24096Y30625D02*X24171Y30700D01*
X24096Y30625D02*Y30475D01*
X24171Y30400D01*
X24396Y30700D02*Y30475D01*
X24471Y30400D01*
X24171D02*X24321D01*
X24396Y30475D01*
X24651Y30700D02*Y30475D01*
X24726Y30400D01*
X24876D01*
X24951Y30475D01*
Y30700D02*Y30475D01*
X25356Y30700D02*X25431Y30625D01*
X25206Y30700D02*X25356D01*
X25131Y30625D02*X25206Y30700D01*
X25131Y30625D02*Y30475D01*
X25206Y30400D01*
X25356D01*
X25431Y30475D01*
X25131Y30250D02*X25206Y30175D01*
X25356D01*
X25431Y30250D01*
Y30700D02*Y30250D01*
X25611Y31000D02*Y30400D01*
Y30625D02*X25686Y30700D01*
X25836D01*
X25911Y30625D01*
Y30400D01*
X26166Y31000D02*Y30475D01*
X26241Y30400D01*
X26091Y30775D02*X26241D01*
X26467Y30400D02*X26692D01*
X26392Y30475D02*X26467Y30400D01*
X26392Y30625D02*Y30475D01*
Y30625D02*X26467Y30700D01*
X26617D01*
X26692Y30625D01*
X26392Y30550D02*X26692D01*
Y30625D02*Y30550D01*
X26947Y30625D02*Y30400D01*
Y30625D02*X27022Y30700D01*
X27172D01*
X26872D02*X26947Y30625D01*
X27352Y31000D02*Y30400D01*
Y30475D02*X27427Y30400D01*
X27577D01*
X27652Y30475D01*
Y30625D02*Y30475D01*
X27577Y30700D02*X27652Y30625D01*
X27427Y30700D02*X27577D01*
X27352Y30625D02*X27427Y30700D01*
X27832Y30625D02*Y30475D01*
Y30625D02*X27907Y30700D01*
X28057D01*
X28132Y30625D01*
Y30475D01*
X28057Y30400D02*X28132Y30475D01*
X27907Y30400D02*X28057D01*
X27832Y30475D02*X27907Y30400D01*
X28537Y30700D02*X28612Y30625D01*
X28387Y30700D02*X28537D01*
X28312Y30625D02*X28387Y30700D01*
X28312Y30625D02*Y30475D01*
X28387Y30400D01*
X28612Y30700D02*Y30475D01*
X28687Y30400D01*
X28387D02*X28537D01*
X28612Y30475D01*
X28942Y30625D02*Y30400D01*
Y30625D02*X29017Y30700D01*
X29167D01*
X28867D02*X28942Y30625D01*
X29648Y31000D02*Y30400D01*
X29573D02*X29648Y30475D01*
X29423Y30400D02*X29573D01*
X29348Y30475D02*X29423Y30400D01*
X29348Y30625D02*Y30475D01*
Y30625D02*X29423Y30700D01*
X29573D01*
X29648Y30625D01*
X30098Y30700D02*X30398D01*
X30848Y31000D02*Y30400D01*
Y31000D02*X31148D01*
X30848Y30700D02*X31073D01*
X31553D02*X31628Y30625D01*
X31403Y30700D02*X31553D01*
X31328Y30625D02*X31403Y30700D01*
X31328Y30625D02*Y30475D01*
X31403Y30400D01*
X31628Y30700D02*Y30475D01*
X31703Y30400D01*
X31403D02*X31553D01*
X31628Y30475D01*
X31883Y31000D02*Y30400D01*
Y30475D02*X31958Y30400D01*
X32108D01*
X32183Y30475D01*
Y30625D02*Y30475D01*
X32108Y30700D02*X32183Y30625D01*
X31958Y30700D02*X32108D01*
X31883Y30625D02*X31958Y30700D01*
X32438Y30625D02*Y30400D01*
Y30625D02*X32513Y30700D01*
X32663D01*
X32363D02*X32438Y30625D01*
X32843Y30850D02*Y30775D01*
Y30625D02*Y30400D01*
X33069Y30700D02*X33294D01*
X32994Y30625D02*X33069Y30700D01*
X32994Y30625D02*Y30475D01*
X33069Y30400D01*
X33294D01*
X33699Y30700D02*X33774Y30625D01*
X33549Y30700D02*X33699D01*
X33474Y30625D02*X33549Y30700D01*
X33474Y30625D02*Y30475D01*
X33549Y30400D01*
X33774Y30700D02*Y30475D01*
X33849Y30400D01*
X33549D02*X33699D01*
X33774Y30475D01*
X34104Y31000D02*Y30475D01*
X34179Y30400D01*
X34029Y30775D02*X34179D01*
X34329Y30850D02*Y30775D01*
Y30625D02*Y30400D01*
X34479Y30625D02*Y30475D01*
Y30625D02*X34554Y30700D01*
X34704D01*
X34779Y30625D01*
Y30475D01*
X34704Y30400D02*X34779Y30475D01*
X34554Y30400D02*X34704D01*
X34479Y30475D02*X34554Y30400D01*
X35034Y30625D02*Y30400D01*
Y30625D02*X35109Y30700D01*
X35184D01*
X35259Y30625D01*
Y30400D01*
X34959Y30700D02*X35034Y30625D01*
X35784Y31000D02*Y30400D01*
X36009Y31000D02*X36084Y30925D01*
Y30475D01*
X36009Y30400D02*X36084Y30475D01*
X35709Y30400D02*X36009D01*
X35709Y31000D02*X36009D01*
X36340Y30625D02*Y30400D01*
Y30625D02*X36415Y30700D01*
X36565D01*
X36265D02*X36340Y30625D01*
X36970Y30700D02*X37045Y30625D01*
X36820Y30700D02*X36970D01*
X36745Y30625D02*X36820Y30700D01*
X36745Y30625D02*Y30475D01*
X36820Y30400D01*
X37045Y30700D02*Y30475D01*
X37120Y30400D01*
X36820D02*X36970D01*
X37045Y30475D01*
X37300Y30700D02*Y30475D01*
X37375Y30400D01*
X37450D01*
X37525Y30475D01*
Y30700D02*Y30475D01*
X37600Y30400D01*
X37675D01*
X37750Y30475D01*
Y30700D02*Y30475D01*
X37930Y30850D02*Y30775D01*
Y30625D02*Y30400D01*
X38155Y30625D02*Y30400D01*
Y30625D02*X38230Y30700D01*
X38305D01*
X38380Y30625D01*
Y30400D01*
X38080Y30700D02*X38155Y30625D01*
X38785Y30700D02*X38860Y30625D01*
X38635Y30700D02*X38785D01*
X38560Y30625D02*X38635Y30700D01*
X38560Y30625D02*Y30475D01*
X38635Y30400D01*
X38785D01*
X38860Y30475D01*
X38560Y30250D02*X38635Y30175D01*
X38785D01*
X38860Y30250D01*
Y30700D02*Y30250D01*
M02*
