G04 Title: TX Daughterboard, layergroup #4 *
G04 Creator: pcb-bin 1.99q *
G04 CreationDate: Fri Feb 10 03:52:58 2006 UTC *
G04 For: matt *
G04 Format: Gerber/RS-274X *
G04 PCB-Dimensions: 275000 250000 *
G04 PCB-Coordinate-Origin: lower left *
%MOIN*%
%FSLAX24Y24*%
G04 contains layers Vcc-sldr (2) *
%IPPOS*%
%ADD11C,0.0250*%
%ADD12C,0.0080*%
%ADD13C,0.0100*%
%ADD14R,0.0240X0.0240*%
%ADD15R,0.0440X0.0440*%
%ADD16R,0.0300X0.0300*%
%ADD17C,0.0060*%
%ADD18R,0.0540X0.0540*%
%ADD19R,0.0480X0.0480*%
%ADD20R,0.0680X0.0680*%
%ADD21C,0.0720*%
%ADD22C,0.0920X0.0720*%
%ADD23C,0.0920*%
%ADD24C,0.0240*%
%ADD25C,0.0340*%
%ADD26R,0.0200X0.0200*%
%ADD27R,0.0600X0.0600*%
%ADD28R,0.0660X0.0660*%
%ADD29R,0.0900X0.0900X0.0600X0.0600*%
%ADD30R,0.0900X0.0900*%
%ADD31C,0.0600*%
%ADD32C,0.0660*%
%AMTHERM1*7,0,0,0.0900,0.0600,0.0100,45*%
%ADD33THERM1*%
%ADD34C,0.0900X0.0600*%
%ADD35C,0.0900*%
%ADD36C,0.0200*%
%ADD37C,0.1200X0.0900*%
%ADD38C,0.1200*%
%ADD39C,0.0150*%
%AMTHERM2*7,0,0,0.1200,0.0900,0.0150,45*%
%ADD40THERM2*%
%ADD41C,0.0500*%
%ADD42R,0.0500X0.0500*%
%ADD43C,0.1320*%
%ADD44C,0.1520*%
%ADD45C,0.1520X0.1320*%
%ADD46C,0.0400*%
%ADD47C,0.0600X0.0400*%
%AMTHERM3*7,0,0,0.0600,0.0400,0.0100,45*%
%ADD48THERM3*%
%ADD49C,0.0800*%
%ADD50C,0.0800X0.0600*%
%ADD51C,0.0125*%
%AMTHERM4*7,0,0,0.0800,0.0600,0.0125,45*%
%ADD52THERM4*%
%ADD53C,0.0160*%
%AMTHERM5*7,0,0,0.0800,0.0600,0.0160,45*%
%ADD54THERM5*%
%ADD55C,0.0360*%
%ADD56C,0.0560*%
%ADD57C,0.0560X0.0360*%
%LNGROUP_3*%
%LPD*%
G01X0Y0D02*
G54D13*G36*
X17050Y6250D02*X25100D01*
Y10100D01*
X17050D01*
Y6250D01*
G37*
G36*
X13200Y2850D02*X16800D01*
Y24900D01*
X13200D01*
Y2850D01*
G37*
G36*
X17600Y20900D02*X15950D01*
Y10400D01*
X17600D01*
Y20900D01*
G37*
G36*
X15600Y2800D02*X27000D01*
Y6000D01*
X15600D01*
Y2800D01*
G37*
G36*
X14400Y24650D02*X12500D01*
Y23450D01*
X14400D01*
Y24650D01*
G37*
G36*
X26300D02*X13400D01*
Y20600D01*
X26300D01*
Y24650D01*
G37*
G36*
X17150Y10300D02*X26400D01*
Y20700D01*
X17150D01*
Y10300D01*
G37*
G36*
X25300Y2900D02*X27200D01*
Y22500D01*
X25300D01*
Y2900D01*
G37*
%LNCUTS*%
%LPC*%
G54D49*X18000Y8250D03*
X23500Y7100D03*
G54D56*X18000Y6400D03*
G54D49*X15200Y24050D03*
X13750Y24250D03*
X15900Y21500D03*
G54D31*X14800Y18800D03*
G54D49*X14750Y20100D03*
G54D31*X13000Y13200D03*
X13400Y12600D03*
X14900Y14700D03*
G54D49*X15400Y4350D03*
G54D31*X14600Y13300D03*
X16600Y11900D03*
G54D49*X16950Y4350D03*
G54D35*X15600Y15400D03*
Y16400D03*
X13600D03*
Y15400D03*
X14600D03*
Y16400D03*
G54D38*X15900Y3050D03*
G54D31*X16600Y11900D03*
X17400Y12400D03*
G54D35*X15600Y15400D03*
Y16400D03*
G54D49*X15400Y4350D03*
X25950Y5300D03*
X20300Y5450D03*
G54D56*X20950Y5900D03*
X21600Y5850D03*
X17750Y5750D03*
G54D49*X16950Y4350D03*
X22550Y3800D03*
G54D38*X21600Y2850D03*
X23600D03*
X15900Y3050D03*
X17900D03*
G54D49*X13750Y24250D03*
X15200Y24050D03*
X13750Y24250D03*
X15900Y21500D03*
G54D31*X18900Y12900D03*
X18400Y12400D03*
X17400D03*
X20100Y12900D03*
X19700Y13600D03*
X21700Y12300D03*
G54D30*X18900Y15400D03*
G54D35*X19900D03*
X20900D03*
X21900D03*
X22900D03*
X18900Y16400D03*
X19900D03*
X20900D03*
X21900D03*
X22900D03*
G54D49*X25950Y5300D03*
%LNTRACKS*%
%LPD*%
G54D13*X12600Y16400D02*X12100Y15900D01*
X11000Y4600D02*X2500Y13100D01*
X1900Y18200D02*Y18100D01*
X3600Y16300D02*X1900Y18200D01*
X3600Y13600D02*Y16300D01*
X13000Y4200D02*X3600Y13600D01*
X13000Y1800D02*Y4200D01*
X13500Y1300D02*X13000Y1800D01*
X2200Y17300D02*X1900Y17100D01*
X3200Y16100D02*X2200Y17300D01*
X3200Y13500D02*Y16100D01*
X12500Y4200D02*X3200Y13500D01*
X12500Y2300D02*Y4200D01*
X3000Y15000D02*X1900Y16300D01*
X3000Y13400D02*Y15000D01*
X12000Y4400D02*X3000Y13400D01*
X12000Y1800D02*Y4400D01*
X12500Y1300D02*X12000Y1800D01*
X2700Y14300D02*X1900Y15300D01*
X2700Y13400D02*Y14300D01*
X11500Y4600D02*X2700Y13400D01*
X11500Y2300D02*Y4600D01*
X2500Y13700D02*Y13100D01*
X1900Y14300D02*X2500Y13700D01*
X11000Y1800D02*Y4600D01*
X11500Y1300D02*X11000Y1800D01*
X10500Y4500D02*X1900Y13300D01*
X10500Y2300D02*Y4500D01*
X10000Y4000D02*X1900Y12300D01*
X10000Y1800D02*Y4000D01*
X10500Y1300D02*X10000Y1800D01*
X9500Y3400D02*X1800Y11300D01*
X9500Y2300D02*Y3400D01*
X2100Y4200D02*X1900D01*
X2700Y3600D02*X2100Y4200D01*
X3200Y3900D02*X1900Y5200D01*
X6200Y3900D02*X3200D01*
X7500Y2600D02*X6200Y3900D01*
X7500Y2300D02*Y2600D01*
X6000Y3600D02*X2700D01*
X7000Y2600D02*X6000Y3600D01*
X7000Y1800D02*Y2600D01*
X7500Y1300D02*X7000Y1800D01*
X5600Y3200D02*X1900D01*
X6500Y2300D02*X5600Y3200D01*
X2400Y1200D02*X1900D01*
X3000Y1800D02*X2400Y1200D01*
X5000Y1800D02*X3000D01*
X5500Y2300D02*X5000Y1800D01*
X11100Y15900D02*Y19400D01*
X10600Y15400D02*X11100Y15900D01*
X8600Y14600D02*X10800Y12400D01*
X8600Y15400D02*Y14600D01*
G54D27*X1900Y1200D03*
G54D31*X900D03*
X1900Y2200D03*
X900D03*
X1900Y3200D03*
X900D03*
X1900Y4200D03*
X900D03*
X1900Y5200D03*
X900D03*
X1900Y6200D03*
X900D03*
X1900Y7200D03*
X900D03*
X1900Y8200D03*
X900D03*
G54D27*X4500Y1300D03*
G54D31*Y2300D03*
X5500Y1300D03*
Y2300D03*
X6500Y1300D03*
Y2300D03*
X7500Y1300D03*
Y2300D03*
X8500Y1300D03*
Y2300D03*
X9500Y1300D03*
Y2300D03*
X10500Y1300D03*
Y2300D03*
X11500Y1300D03*
Y2300D03*
X12500Y1300D03*
Y2300D03*
X13500Y1300D03*
Y2300D03*
G54D27*X18900Y15400D03*
G54D31*Y16400D03*
X19900Y15400D03*
Y16400D03*
X20900Y15400D03*
Y16400D03*
X21900Y15400D03*
Y16400D03*
X22900Y15400D03*
Y16400D03*
G54D35*X22600Y1850D03*
X21600Y850D03*
Y2850D03*
X23600Y850D03*
Y2850D03*
G54D27*X8600Y15400D03*
G54D31*Y16400D03*
X9600Y15400D03*
Y16400D03*
X10600Y15400D03*
Y16400D03*
X11600Y15400D03*
Y16400D03*
X12600Y15400D03*
Y16400D03*
X13600Y15400D03*
Y16400D03*
X14600Y15400D03*
Y16400D03*
X15600Y15400D03*
Y16400D03*
G54D35*X16900Y2050D03*
X15900Y1050D03*
Y3050D03*
X17900Y1050D03*
Y3050D03*
G54D27*X1900Y11300D03*
G54D31*X900D03*
X1900Y12300D03*
X900D03*
X1900Y13300D03*
X900D03*
X1900Y14300D03*
X900D03*
X1900Y15300D03*
X900D03*
X1900Y16300D03*
X900D03*
X1900Y17300D03*
X900D03*
X1900Y18300D03*
X900D03*
G54D46*X11100Y19400D03*
X16600Y11900D03*
X18900Y12900D03*
X20100D03*
X19700Y13600D03*
X14900Y14700D03*
X14600Y13300D03*
X13000Y13200D03*
X13400Y12600D03*
X10800Y12400D03*
X9000Y9300D03*
X18400Y12400D03*
X17400D03*
X14800Y18800D03*
X9000Y11100D03*
G54D31*X6250Y17700D03*
X5300Y20350D03*
X5350Y21350D03*
X6300Y22100D03*
X10300Y22650D03*
X11450Y23500D03*
X12450Y22850D03*
X15200Y24050D03*
X15900Y21500D03*
G54D46*X6900Y20450D03*
X7750Y22700D03*
X21700Y12300D03*
G54D31*X25950Y5300D03*
X15400Y4350D03*
X20300Y5450D03*
G54D55*X20950Y5900D03*
X21600Y5850D03*
X18000Y6400D03*
X17750Y5750D03*
G54D31*X14750Y20100D03*
G54D51*X14470Y20380D02*X15030Y19820D01*
X14470D02*X15030Y20380D01*
G54D31*X16950Y4350D03*
G54D51*X16670Y4630D02*X17230Y4070D01*
X16670D02*X17230Y4630D01*
G54D31*X13750Y24250D03*
G54D51*X13470Y24530D02*X14030Y23970D01*
X13470D02*X14030Y24530D01*
G54D31*X18000Y8250D03*
G54D51*X17720Y8530D02*X18280Y7970D01*
X17720D02*X18280Y8530D01*
G54D31*X23500Y7100D03*
G54D51*X23220Y7380D02*X23780Y6820D01*
X23220D02*X23780Y7380D01*
G54D31*X22550Y3800D03*
G54D51*X22270Y4080D02*X22830Y3520D01*
X22270D02*X22830Y4080D01*
M02*
