G04 Title: TX Daughterboard, silkscreen, component side *
G04 Creator: pcb-bin 1.99q *
G04 CreationDate: Fri Feb 10 03:52:58 2006 UTC *
G04 For: matt *
G04 Format: Gerber/RS-274X *
G04 PCB-Dimensions: 275000 250000 *
G04 PCB-Coordinate-Origin: lower left *
%MOIN*%
%FSLAX24Y24*%
%IPPOS*%
%ADD11C,0.0250*%
%ADD12C,0.0080*%
%ADD13C,0.0100*%
%ADD14R,0.0240X0.0240*%
%ADD15R,0.0440X0.0440*%
%ADD16R,0.0300X0.0300*%
%ADD17C,0.0060*%
%ADD18R,0.0540X0.0540*%
%ADD19R,0.0480X0.0480*%
%ADD20R,0.0680X0.0680*%
%ADD21C,0.0720*%
%ADD22C,0.0920X0.0720*%
%ADD23C,0.0920*%
%ADD24C,0.0240*%
%ADD25C,0.0340*%
%ADD26R,0.0200X0.0200*%
%ADD27R,0.0600X0.0600*%
%ADD28R,0.0660X0.0660*%
%ADD29R,0.0900X0.0900X0.0600X0.0600*%
%ADD30R,0.0900X0.0900*%
%ADD31C,0.0600*%
%ADD32C,0.0660*%
%AMTHERM1*7,0,0,0.0900,0.0600,0.0100,45*%
%ADD33THERM1*%
%ADD34C,0.0900X0.0600*%
%ADD35C,0.0900*%
%ADD36C,0.0200*%
%ADD37C,0.1200X0.0900*%
%ADD38C,0.1200*%
%ADD39C,0.0150*%
%AMTHERM2*7,0,0,0.1200,0.0900,0.0150,45*%
%ADD40THERM2*%
%ADD41C,0.0500*%
%ADD42R,0.0500X0.0500*%
%ADD43C,0.1320*%
%ADD44C,0.1520*%
%ADD45C,0.1520X0.1320*%
%ADD46C,0.0400*%
%ADD47C,0.0600X0.0400*%
%AMTHERM3*7,0,0,0.0600,0.0400,0.0100,45*%
%ADD48THERM3*%
%ADD49C,0.0800*%
%ADD50C,0.0800X0.0600*%
%ADD51C,0.0125*%
%AMTHERM4*7,0,0,0.0800,0.0600,0.0125,45*%
%ADD52THERM4*%
%ADD53C,0.0160*%
%AMTHERM5*7,0,0,0.0800,0.0600,0.0160,45*%
%ADD54THERM5*%
%ADD55C,0.0360*%
%ADD56C,0.0560*%
%ADD57C,0.0560X0.0360*%
%LNGROUP_3*%
%LPD*%
G01X0Y0D02*
G54D17*X18830Y2180D02*X19370D01*
Y3020D02*Y2180D01*
X18830Y3020D02*X19370D01*
X18830D02*Y2180D01*
G04 Text: R41 *
G54D12*X18750Y2070D02*X18950D01*
X19000Y2020D01*
Y1920D01*
X18950Y1870D02*X19000Y1920D01*
X18800Y1870D02*X18950D01*
X18800Y2070D02*Y1670D01*
Y1870D02*X19000Y1670D01*
X19120Y1870D02*X19320Y2070D01*
X19120Y1870D02*X19370D01*
X19320Y2070D02*Y1670D01*
X19540D02*X19640D01*
X19590Y2070D02*Y1670D01*
X19490Y1970D02*X19590Y2070D01*
G54D17*X24430Y2580D02*X24970D01*
Y3420D02*Y2580D01*
X24430Y3420D02*X24970D01*
X24430D02*Y2580D01*
G04 Text: R40 *
G54D12*X25050Y3070D02*X25250D01*
X25300Y3020D01*
Y2920D01*
X25250Y2870D02*X25300Y2920D01*
X25100Y2870D02*X25250D01*
X25100Y3070D02*Y2670D01*
Y2870D02*X25300Y2670D01*
X25420Y2870D02*X25620Y3070D01*
X25420Y2870D02*X25670D01*
X25620Y3070D02*Y2670D01*
X25790Y2720D02*X25840Y2670D01*
X25790Y3020D02*Y2720D01*
Y3020D02*X25840Y3070D01*
X25940D01*
X25990Y3020D01*
Y2720D01*
X25940Y2670D02*X25990Y2720D01*
X25840Y2670D02*X25940D01*
X25790Y2770D02*X25990Y2970D01*
G54D17*X17730Y4320D02*Y3780D01*
X18570D01*
Y4320D01*
X17730D01*
G04 Text: C34 *
G54D12*X16700Y3720D02*X16850D01*
X16650Y3770D02*X16700Y3720D01*
X16650Y4070D02*Y3770D01*
Y4070D02*X16700Y4120D01*
X16850D01*
X16970Y4070D02*X17020Y4120D01*
X17120D01*
X17170Y4070D01*
Y3770D01*
X17120Y3720D02*X17170Y3770D01*
X17020Y3720D02*X17120D01*
X16970Y3770D02*X17020Y3720D01*
Y3920D02*X17170D01*
X17290D02*X17490Y4120D01*
X17290Y3920D02*X17540D01*
X17490Y4120D02*Y3720D01*
G54D17*X22980Y4270D02*Y3730D01*
X23820D01*
Y4270D01*
X22980D01*
G04 Text: C33 *
G54D12*X23970Y4350D02*Y4200D01*
X24020Y4400D02*X23970Y4350D01*
X24020Y4400D02*X24320D01*
X24370Y4350D01*
Y4200D01*
X24320Y4079D02*X24370Y4029D01*
Y3929D01*
X24320Y3879D01*
X24020D02*X24320D01*
X23970Y3929D02*X24020Y3879D01*
X23970Y4029D02*Y3929D01*
X24020Y4079D02*X23970Y4029D01*
X24170D02*Y3879D01*
X24320Y3759D02*X24370Y3709D01*
Y3609D01*
X24320Y3559D01*
X24020D02*X24320D01*
X23970Y3609D02*X24020Y3559D01*
X23970Y3709D02*Y3609D01*
X24020Y3759D02*X23970Y3709D01*
X24170D02*Y3559D01*
G54D17*X19480Y3120D02*Y2580D01*
X20320D01*
Y3120D01*
X19480D01*
G04 Text: C32 *
G54D12*X19800Y2070D02*X19950D01*
X19750Y2120D02*X19800Y2070D01*
X19750Y2420D02*Y2120D01*
Y2420D02*X19800Y2470D01*
X19950D01*
X20070Y2420D02*X20120Y2470D01*
X20220D01*
X20270Y2420D01*
Y2120D01*
X20220Y2070D02*X20270Y2120D01*
X20120Y2070D02*X20220D01*
X20070Y2120D02*X20120Y2070D01*
Y2270D02*X20270D01*
X20390Y2420D02*X20440Y2470D01*
X20590D01*
X20640Y2420D01*
Y2320D01*
X20390Y2070D02*X20640Y2320D01*
X20390Y2070D02*X20640D01*
G54D17*X25180Y4020D02*Y3480D01*
X26020D01*
Y4020D01*
X25180D01*
G04 Text: C31 *
G54D12*X26200Y3520D02*X26350D01*
X26150Y3570D02*X26200Y3520D01*
X26150Y3870D02*Y3570D01*
Y3870D02*X26200Y3920D01*
X26350D01*
X26470Y3870D02*X26520Y3920D01*
X26620D01*
X26670Y3870D01*
Y3570D01*
X26620Y3520D02*X26670Y3570D01*
X26520Y3520D02*X26620D01*
X26470Y3570D02*X26520Y3520D01*
Y3720D02*X26670D01*
X26840Y3520D02*X26940D01*
X26890Y3920D02*Y3520D01*
X26790Y3820D02*X26890Y3920D01*
G54D13*X5660Y20090D02*X6740D01*
X5660D02*Y18410D01*
X6740D01*
Y20090D02*Y18410D01*
G04 Text: FB1 *
G54D12*X4550Y19390D02*Y18990D01*
Y19390D02*X4750D01*
X4550Y19190D02*X4700D01*
X4870Y18990D02*X5070D01*
X5120Y19040D01*
Y19140D02*Y19040D01*
X5070Y19190D02*X5120Y19140D01*
X4920Y19190D02*X5070D01*
X4920Y19390D02*Y18990D01*
X4870Y19390D02*X5070D01*
X5120Y19340D01*
Y19240D01*
X5070Y19190D02*X5120Y19240D01*
X5290Y18990D02*X5390D01*
X5340Y19390D02*Y18990D01*
X5240Y19290D02*X5340Y19390D01*
G54D17*X5730Y20770D02*Y20230D01*
X6570D01*
Y20770D01*
X5730D01*
G04 Text: C5 *
G54D12*X4300Y20220D02*X4450D01*
X4250Y20270D02*X4300Y20220D01*
X4250Y20570D02*Y20270D01*
Y20570D02*X4300Y20620D01*
X4450D01*
X4570D02*X4770D01*
X4570D02*Y20420D01*
X4620Y20470D01*
X4720D01*
X4770Y20420D01*
Y20270D01*
X4720Y20220D02*X4770Y20270D01*
X4620Y20220D02*X4720D01*
X4570Y20270D02*X4620Y20220D01*
G54D17*X22220Y4570D02*Y4030D01*
X21380Y4570D02*X22220D01*
X21380D02*Y4030D01*
X22220D01*
G04 Text: C23 *
G54D12*X20350Y4020D02*X20500D01*
X20300Y4070D02*X20350Y4020D01*
X20300Y4370D02*Y4070D01*
Y4370D02*X20350Y4420D01*
X20500D01*
X20620Y4370D02*X20670Y4420D01*
X20820D01*
X20870Y4370D01*
Y4270D01*
X20620Y4020D02*X20870Y4270D01*
X20620Y4020D02*X20870D01*
X20990Y4370D02*X21040Y4420D01*
X21140D01*
X21190Y4370D01*
Y4070D01*
X21140Y4020D02*X21190Y4070D01*
X21040Y4020D02*X21140D01*
X20990Y4070D02*X21040Y4020D01*
Y4220D02*X21190D01*
G54D17*X16270Y5270D02*Y4730D01*
X15430Y5270D02*X16270D01*
X15430D02*Y4730D01*
X16270D01*
G04 Text: C22 *
G54D12*X14300Y4870D02*X14450D01*
X14250Y4920D02*X14300Y4870D01*
X14250Y5220D02*Y4920D01*
Y5220D02*X14300Y5270D01*
X14450D01*
X14570Y5220D02*X14620Y5270D01*
X14770D01*
X14820Y5220D01*
Y5120D01*
X14570Y4870D02*X14820Y5120D01*
X14570Y4870D02*X14820D01*
X14940Y5220D02*X14990Y5270D01*
X15140D01*
X15190Y5220D01*
Y5120D01*
X14940Y4870D02*X15190Y5120D01*
X14940Y4870D02*X15190D01*
G54D17*X10130Y22020D02*X10670D01*
X10130D02*Y21180D01*
X10670D01*
Y22020D02*Y21180D01*
G04 Text: C21 *
G54D12*X10580Y20350D02*Y20200D01*
X10530Y20150D02*X10580Y20200D01*
X10230Y20150D02*X10530D01*
X10230D02*X10180Y20200D01*
Y20350D02*Y20200D01*
X10230Y20470D02*X10180Y20520D01*
Y20670D02*Y20520D01*
Y20670D02*X10230Y20720D01*
X10330D01*
X10580Y20470D02*X10330Y20720D01*
X10580D02*Y20470D01*
Y20990D02*Y20890D01*
X10180Y20940D02*X10580D01*
X10280Y20840D02*X10180Y20940D01*
G54D17*X11930Y22220D02*X12470D01*
X11930D02*Y21380D01*
X12470D01*
Y22220D02*Y21380D01*
G04 Text: C20 *
G54D12*X12380Y20450D02*Y20300D01*
X12330Y20250D02*X12380Y20300D01*
X12030Y20250D02*X12330D01*
X12030D02*X11980Y20300D01*
Y20450D02*Y20300D01*
X12030Y20570D02*X11980Y20620D01*
Y20770D02*Y20620D01*
Y20770D02*X12030Y20820D01*
X12130D01*
X12380Y20570D02*X12130Y20820D01*
X12380D02*Y20570D01*
X12330Y20940D02*X12380Y20990D01*
X12030Y20940D02*X12330D01*
X12030D02*X11980Y20990D01*
Y21090D02*Y20990D01*
Y21090D02*X12030Y21140D01*
X12330D01*
X12380Y21090D02*X12330Y21140D01*
X12380Y21090D02*Y20990D01*
X12280Y20940D02*X12080Y21140D01*
G54D13*X16450Y6950D02*Y5050D01*
X19550D01*
Y6950D01*
X16450D02*X17750D01*
X19550D02*X18250D01*
X17750D02*G75*G03X18250Y6950I250J0D01*G01*
G04 Text: U2 *
G54D12*X17700Y7500D02*Y7150D01*
X17750Y7100D01*
X17850D01*
X17900Y7150D01*
Y7500D02*Y7150D01*
X18020Y7450D02*X18070Y7500D01*
X18220D01*
X18270Y7450D01*
Y7350D01*
X18020Y7100D02*X18270Y7350D01*
X18020Y7100D02*X18270D01*
G54D13*X22000Y6850D02*Y4950D01*
X25100D01*
Y6850D01*
X22000D02*X23300D01*
X25100D02*X23800D01*
X23300D02*G75*G03X23800Y6850I250J0D01*G01*
G04 Text: U1 *
G54D12*X23400Y5800D02*Y5450D01*
X23450Y5400D01*
X23550D01*
X23600Y5450D01*
Y5800D02*Y5450D01*
X23770Y5400D02*X23870D01*
X23820Y5800D02*Y5400D01*
X23720Y5700D02*X23820Y5800D01*
G54D13*X8960Y22390D02*X10040D01*
X8960D02*Y20710D01*
X10040D01*
Y22390D02*Y20710D01*
G04 Text: L2 *
G54D12*X9100Y22940D02*Y22540D01*
X9300D01*
X9420Y22890D02*X9470Y22940D01*
X9620D01*
X9670Y22890D01*
Y22790D01*
X9420Y22540D02*X9670Y22790D01*
X9420Y22540D02*X9670D01*
G54D13*X8640Y23890D02*Y22810D01*
X6960Y23890D02*X8640D01*
X6960D02*Y22810D01*
X8640D01*
G04 Text: L1 *
G54D12*X6250Y23590D02*Y23190D01*
X6450D01*
X6620D02*X6720D01*
X6670Y23590D02*Y23190D01*
X6570Y23490D02*X6670Y23590D01*
G54D17*X26370Y6370D02*Y5830D01*
X25530Y6370D02*X26370D01*
X25530D02*Y5830D01*
X26370D01*
G04 Text: C8 *
G54D12*X25750Y6470D02*X25900D01*
X25700Y6520D02*X25750Y6470D01*
X25700Y6820D02*Y6520D01*
Y6820D02*X25750Y6870D01*
X25900D01*
X26020Y6520D02*X26070Y6470D01*
X26020Y6620D02*Y6520D01*
Y6620D02*X26070Y6670D01*
X26170D01*
X26220Y6620D01*
Y6520D01*
X26170Y6470D02*X26220Y6520D01*
X26070Y6470D02*X26170D01*
X26020Y6720D02*X26070Y6670D01*
X26020Y6820D02*Y6720D01*
Y6820D02*X26070Y6870D01*
X26170D01*
X26220Y6820D01*
Y6720D01*
X26170Y6670D02*X26220Y6720D01*
G54D17*X14530Y22170D02*Y21630D01*
X15370D01*
Y22170D01*
X14530D01*
G04 Text: C12 *
G54D12*X15650Y21870D02*X15800D01*
X15600Y21920D02*X15650Y21870D01*
X15600Y22220D02*Y21920D01*
Y22220D02*X15650Y22270D01*
X15800D01*
X15970Y21870D02*X16070D01*
X16020Y22270D02*Y21870D01*
X15920Y22170D02*X16020Y22270D01*
X16190Y22220D02*X16240Y22270D01*
X16390D01*
X16440Y22220D01*
Y22120D01*
X16190Y21870D02*X16440Y22120D01*
X16190Y21870D02*X16440D01*
G54D17*X20520Y6520D02*Y5980D01*
X19680Y6520D02*X20520D01*
X19680D02*Y5980D01*
X20520D01*
G04 Text: C6 *
G54D12*X20000Y6720D02*X20150D01*
X19950Y6770D02*X20000Y6720D01*
X19950Y7070D02*Y6770D01*
Y7070D02*X20000Y7120D01*
X20150D01*
X20420D02*X20470Y7070D01*
X20320Y7120D02*X20420D01*
X20270Y7070D02*X20320Y7120D01*
X20270Y7070D02*Y6770D01*
X20320Y6720D01*
X20420Y6920D02*X20470Y6870D01*
X20270Y6920D02*X20420D01*
X20320Y6720D02*X20420D01*
X20470Y6770D01*
Y6870D02*Y6770D01*
G54D13*X13910Y23590D02*Y22510D01*
X15590D01*
Y23590D01*
X13910D01*
G04 Text: C11 *
G54D12*X15900Y23190D02*X16050D01*
X15850Y23240D02*X15900Y23190D01*
X15850Y23540D02*Y23240D01*
Y23540D02*X15900Y23590D01*
X16050D01*
X16220Y23190D02*X16320D01*
X16270Y23590D02*Y23190D01*
X16170Y23490D02*X16270Y23590D01*
X16490Y23190D02*X16590D01*
X16540Y23590D02*Y23190D01*
X16440Y23490D02*X16540Y23590D01*
G54D17*X14530Y21470D02*Y20930D01*
X15370D01*
Y21470D01*
X14530D01*
G04 Text: C10 *
G54D12*X15600Y20620D02*X15750D01*
X15550Y20670D02*X15600Y20620D01*
X15550Y20970D02*Y20670D01*
Y20970D02*X15600Y21020D01*
X15750D01*
X15920Y20620D02*X16020D01*
X15970Y21020D02*Y20620D01*
X15870Y20920D02*X15970Y21020D01*
X16140Y20670D02*X16190Y20620D01*
X16140Y20970D02*Y20670D01*
Y20970D02*X16190Y21020D01*
X16290D01*
X16340Y20970D01*
Y20670D01*
X16290Y20620D02*X16340Y20670D01*
X16190Y20620D02*X16290D01*
X16140Y20720D02*X16340Y20920D01*
G54D17*X8070Y20620D02*Y20080D01*
X7230Y20620D02*X8070D01*
X7230D02*Y20080D01*
X8070D01*
G04 Text: C4 *
G54D12*X8250Y20120D02*X8400D01*
X8200Y20170D02*X8250Y20120D01*
X8200Y20470D02*Y20170D01*
Y20470D02*X8250Y20520D01*
X8400D01*
X8520Y20320D02*X8720Y20520D01*
X8520Y20320D02*X8770D01*
X8720Y20520D02*Y20120D01*
G54D13*X10760Y21260D02*X11840D01*
Y22940D02*Y21260D01*
X10760Y22940D02*X11840D01*
X10760D02*Y21260D01*
G04 Text: C3 *
G54D12*X11000Y20740D02*X11150D01*
X10950Y20790D02*X11000Y20740D01*
X10950Y21090D02*Y20790D01*
Y21090D02*X11000Y21140D01*
X11150D01*
X11270Y21090D02*X11320Y21140D01*
X11420D01*
X11470Y21090D01*
Y20790D01*
X11420Y20740D02*X11470Y20790D01*
X11320Y20740D02*X11420D01*
X11270Y20790D02*X11320Y20740D01*
Y20940D02*X11470D01*
G54D17*X5830Y21570D02*Y21030D01*
X6670D01*
Y21570D02*Y21030D01*
X5830Y21570D02*X6670D01*
G04 Text: C2 *
G54D12*X4350Y21220D02*X4500D01*
X4300Y21270D02*X4350Y21220D01*
X4300Y21570D02*Y21270D01*
Y21570D02*X4350Y21620D01*
X4500D01*
X4620Y21570D02*X4670Y21620D01*
X4820D01*
X4870Y21570D01*
Y21470D01*
X4620Y21220D02*X4870Y21470D01*
X4620Y21220D02*X4870D01*
G54D17*X8070Y24620D02*Y24080D01*
X7230Y24620D02*X8070D01*
X7230D02*Y24080D01*
X8070D01*
G04 Text: C1 *
G54D12*X7030Y24250D02*Y24100D01*
X6980Y24050D02*X7030Y24100D01*
X6680Y24050D02*X6980D01*
X6680D02*X6630Y24100D01*
Y24250D02*Y24100D01*
X7030Y24520D02*Y24420D01*
X6630Y24470D02*X7030D01*
X6730Y24370D02*X6630Y24470D01*
G54D17*X18570Y4970D02*Y4430D01*
X17730Y4970D02*X18570D01*
X17730D02*Y4430D01*
X18570D01*
G04 Text: R7 *
G54D12*X18650Y4870D02*X18850D01*
X18900Y4820D01*
Y4720D01*
X18850Y4670D02*X18900Y4720D01*
X18700Y4670D02*X18850D01*
X18700Y4870D02*Y4470D01*
Y4670D02*X18900Y4470D01*
X19020D02*X19270Y4720D01*
Y4870D02*Y4720D01*
X19020Y4870D02*X19270D01*
G54D17*X23820D02*Y4330D01*
X22980Y4870D02*X23820D01*
X22980D02*Y4330D01*
X23820D01*
G04 Text: R4 *
G54D12*X23950Y4820D02*X24150D01*
X24200Y4770D01*
Y4670D01*
X24150Y4620D02*X24200Y4670D01*
X24000Y4620D02*X24150D01*
X24000Y4820D02*Y4420D01*
Y4620D02*X24200Y4420D01*
X24320Y4620D02*X24520Y4820D01*
X24320Y4620D02*X24570D01*
X24520Y4820D02*Y4420D01*
G54D17*X8070Y19870D02*Y19330D01*
X7230Y19870D02*X8070D01*
X7230D02*Y19330D01*
X8070D01*
G04 Text: R2 *
G54D12*X8150Y19770D02*X8350D01*
X8400Y19720D01*
Y19620D01*
X8350Y19570D02*X8400Y19620D01*
X8200Y19570D02*X8350D01*
X8200Y19770D02*Y19370D01*
Y19570D02*X8400Y19370D01*
X8520Y19720D02*X8570Y19770D01*
X8720D01*
X8770Y19720D01*
Y19620D01*
X8520Y19370D02*X8770Y19620D01*
X8520Y19370D02*X8770D01*
G54D17*X18830Y3130D02*X19370D01*
Y3970D02*Y3130D01*
X18830Y3970D02*X19370D01*
X18830D02*Y3130D01*
G04 Text: R38 *
G54D12*X19450Y3820D02*X19650D01*
X19700Y3770D01*
Y3670D01*
X19650Y3620D02*X19700Y3670D01*
X19500Y3620D02*X19650D01*
X19500Y3820D02*Y3420D01*
Y3620D02*X19700Y3420D01*
X19820Y3770D02*X19870Y3820D01*
X19970D01*
X20020Y3770D01*
Y3470D01*
X19970Y3420D02*X20020Y3470D01*
X19870Y3420D02*X19970D01*
X19820Y3470D02*X19870Y3420D01*
Y3620D02*X20020D01*
X20140Y3470D02*X20190Y3420D01*
X20140Y3570D02*Y3470D01*
Y3570D02*X20190Y3620D01*
X20290D01*
X20340Y3570D01*
Y3470D01*
X20290Y3420D02*X20340Y3470D01*
X20190Y3420D02*X20290D01*
X20140Y3670D02*X20190Y3620D01*
X20140Y3770D02*Y3670D01*
Y3770D02*X20190Y3820D01*
X20290D01*
X20340Y3770D01*
Y3670D01*
X20290Y3620D02*X20340Y3670D01*
G54D17*X7230Y21320D02*Y20780D01*
X8070D01*
Y21320D01*
X7230D01*
G04 Text: R1 *
G54D12*X8200Y21220D02*X8400D01*
X8450Y21170D01*
Y21070D01*
X8400Y21020D02*X8450Y21070D01*
X8250Y21020D02*X8400D01*
X8250Y21220D02*Y20820D01*
Y21020D02*X8450Y20820D01*
X8620D02*X8720D01*
X8670Y21220D02*Y20820D01*
X8570Y21120D02*X8670Y21220D01*
G54D36*X2400Y8700D02*Y700D01*
X400Y8700D02*X2400D01*
X400D02*Y700D01*
X2400D01*
G54D13*X1400Y1700D02*X2400D01*
X1400D02*Y700D01*
G04 Text: J51 *
G54D12*X1800Y9400D02*X1950D01*
Y9050D01*
X1900Y9000D02*X1950Y9050D01*
X1850Y9000D02*X1900D01*
X1800Y9050D02*X1850Y9000D01*
X2070Y9400D02*X2270D01*
X2070D02*Y9200D01*
X2120Y9250D01*
X2220D01*
X2270Y9200D01*
Y9050D01*
X2220Y9000D02*X2270Y9050D01*
X2120Y9000D02*X2220D01*
X2070Y9050D02*X2120Y9000D01*
X2440D02*X2540D01*
X2490Y9400D02*Y9000D01*
X2390Y9300D02*X2490Y9400D01*
G54D13*X7575Y22320D02*Y22547D01*
X7697Y22670D01*
X7925D01*
Y22320D01*
X7575Y21880D02*Y21530D01*
X7925D01*
Y21880D01*
G04 Text: U3 *
G54D12*X6250Y22820D02*Y22470D01*
X6300Y22420D01*
X6400D01*
X6450Y22470D01*
Y22820D02*Y22470D01*
X6570Y22770D02*X6620Y22820D01*
X6720D01*
X6770Y22770D01*
Y22470D01*
X6720Y22420D02*X6770Y22470D01*
X6620Y22420D02*X6720D01*
X6570Y22470D02*X6620Y22420D01*
Y22620D02*X6770D01*
G54D13*X4000Y1800D02*X5000D01*
Y800D01*
G54D36*X4000Y2800D02*Y800D01*
Y2800D02*X14000D01*
Y800D01*
X4000D02*X14000D01*
G04 Text: J45 *
G54D12*X9000Y5100D02*X9150D01*
Y4750D01*
X9100Y4700D02*X9150Y4750D01*
X9050Y4700D02*X9100D01*
X9000Y4750D02*X9050Y4700D01*
X9270Y4900D02*X9470Y5100D01*
X9270Y4900D02*X9520D01*
X9470Y5100D02*Y4700D01*
X9640Y5100D02*X9840D01*
X9640D02*Y4900D01*
X9690Y4950D01*
X9790D01*
X9840Y4900D01*
Y4750D01*
X9790Y4700D02*X9840Y4750D01*
X9690Y4700D02*X9790D01*
X9640Y4750D02*X9690Y4700D01*
G54D17*X24430Y4420D02*Y3580D01*
Y4420D02*X24970D01*
Y3580D01*
X24430D02*X24970D01*
G04 Text: R34 *
G54D12*X25050Y4500D02*X25250D01*
X25300Y4450D01*
Y4350D01*
X25250Y4300D02*X25300Y4350D01*
X25100Y4300D02*X25250D01*
X25100Y4500D02*Y4100D01*
Y4300D02*X25300Y4100D01*
X25420Y4450D02*X25470Y4500D01*
X25570D01*
X25620Y4450D01*
Y4150D01*
X25570Y4100D02*X25620Y4150D01*
X25470Y4100D02*X25570D01*
X25420Y4150D02*X25470Y4100D01*
Y4300D02*X25620D01*
X25740D02*X25940Y4500D01*
X25740Y4300D02*X25990D01*
X25940Y4500D02*Y4100D01*
G54D17*X20830Y5030D02*X21670D01*
X20830Y5570D02*Y5030D01*
Y5570D02*X21670D01*
Y5030D01*
G04 Text: R32 *
G54D12*X20000Y4950D02*X20200D01*
X20250Y4900D01*
Y4800D01*
X20200Y4750D02*X20250Y4800D01*
X20050Y4750D02*X20200D01*
X20050Y4950D02*Y4550D01*
Y4750D02*X20250Y4550D01*
X20370Y4900D02*X20420Y4950D01*
X20520D01*
X20570Y4900D01*
Y4600D01*
X20520Y4550D02*X20570Y4600D01*
X20420Y4550D02*X20520D01*
X20370Y4600D02*X20420Y4550D01*
Y4750D02*X20570D01*
X20690Y4900D02*X20740Y4950D01*
X20890D01*
X20940Y4900D01*
Y4800D01*
X20690Y4550D02*X20940Y4800D01*
X20690Y4550D02*X20940D01*
G54D17*X15430Y5480D02*X16270D01*
X15430Y6020D02*Y5480D01*
Y6020D02*X16270D01*
Y5480D01*
G04 Text: R37 *
G54D12*X14200Y6050D02*X14400D01*
X14450Y6000D01*
Y5900D01*
X14400Y5850D02*X14450Y5900D01*
X14250Y5850D02*X14400D01*
X14250Y6050D02*Y5650D01*
Y5850D02*X14450Y5650D01*
X14570Y6000D02*X14620Y6050D01*
X14720D01*
X14770Y6000D01*
Y5700D01*
X14720Y5650D02*X14770Y5700D01*
X14620Y5650D02*X14720D01*
X14570Y5700D02*X14620Y5650D01*
Y5850D02*X14770D01*
X14890Y5650D02*X15140Y5900D01*
Y6050D02*Y5900D01*
X14890Y6050D02*X15140D01*
G54D36*X18400Y14900D02*X23400D01*
Y16900D02*Y14900D01*
X18400Y16900D02*X23400D01*
X18400D02*Y14900D01*
G54D13*X19400Y15900D02*Y14900D01*
X18400Y15900D02*X19400D01*
G04 Text: J47 *
G54D12*X17200Y16600D02*X17350D01*
Y16250D01*
X17300Y16200D02*X17350Y16250D01*
X17250Y16200D02*X17300D01*
X17200Y16250D02*X17250Y16200D01*
X17470Y16400D02*X17670Y16600D01*
X17470Y16400D02*X17720D01*
X17670Y16600D02*Y16200D01*
X17840D02*X18090Y16450D01*
Y16600D02*Y16450D01*
X17840Y16600D02*X18090D01*
G54D13*X12560Y22140D02*Y21060D01*
X14240D01*
Y22140D01*
X12560D01*
G04 Text: FB2 *
G54D12*X12900Y20840D02*Y20440D01*
Y20840D02*X13100D01*
X12900Y20640D02*X13050D01*
X13220Y20440D02*X13420D01*
X13470Y20490D01*
Y20590D02*Y20490D01*
X13420Y20640D02*X13470Y20590D01*
X13270Y20640D02*X13420D01*
X13270Y20840D02*Y20440D01*
X13220Y20840D02*X13420D01*
X13470Y20790D01*
Y20690D01*
X13420Y20640D02*X13470Y20690D01*
X13590Y20790D02*X13640Y20840D01*
X13790D01*
X13840Y20790D01*
Y20690D01*
X13590Y20440D02*X13840Y20690D01*
X13590Y20440D02*X13840D01*
G54D13*X21000Y250D02*Y3450D01*
X24200Y250D02*X21000D01*
X24200Y3450D02*Y250D01*
X21000Y3450D02*X24200D01*
G04 Text: J48 *
G54D12*X19950Y550D02*X20100D01*
Y200D01*
X20050Y150D02*X20100Y200D01*
X20000Y150D02*X20050D01*
X19950Y200D02*X20000Y150D01*
X20220Y350D02*X20420Y550D01*
X20220Y350D02*X20470D01*
X20420Y550D02*Y150D01*
X20590Y200D02*X20640Y150D01*
X20590Y300D02*Y200D01*
Y300D02*X20640Y350D01*
X20740D01*
X20790Y300D01*
Y200D01*
X20740Y150D02*X20790Y200D01*
X20640Y150D02*X20740D01*
X20590Y400D02*X20640Y350D01*
X20590Y500D02*Y400D01*
Y500D02*X20640Y550D01*
X20740D01*
X20790Y500D01*
Y400D01*
X20740Y350D02*X20790Y400D01*
G54D36*X8100Y14900D02*X16100D01*
Y16900D02*Y14900D01*
X8100Y16900D02*X16100D01*
X8100D02*Y14900D01*
G54D13*X9100Y15900D02*Y14900D01*
X8100Y15900D02*X9100D01*
G04 Text: J46 *
G54D12*X16300Y15300D02*X16450D01*
Y14950D01*
X16400Y14900D02*X16450Y14950D01*
X16350Y14900D02*X16400D01*
X16300Y14950D02*X16350Y14900D01*
X16570Y15100D02*X16770Y15300D01*
X16570Y15100D02*X16820D01*
X16770Y15300D02*Y14900D01*
X17090Y15300D02*X17140Y15250D01*
X16990Y15300D02*X17090D01*
X16940Y15250D02*X16990Y15300D01*
X16940Y15250D02*Y14950D01*
X16990Y14900D01*
X17090Y15100D02*X17140Y15050D01*
X16940Y15100D02*X17090D01*
X16990Y14900D02*X17090D01*
X17140Y14950D01*
Y15050D02*Y14950D01*
G54D13*X15300Y450D02*Y3650D01*
X18500Y450D02*X15300D01*
X18500Y3650D02*Y450D01*
X15300Y3650D02*X18500D01*
G04 Text: J49 *
G54D12*X14250Y2400D02*X14400D01*
Y2050D01*
X14350Y2000D02*X14400Y2050D01*
X14300Y2000D02*X14350D01*
X14250Y2050D02*X14300Y2000D01*
X14520Y2200D02*X14720Y2400D01*
X14520Y2200D02*X14770D01*
X14720Y2400D02*Y2000D01*
X14890D02*X15090Y2200D01*
Y2350D02*Y2200D01*
X15040Y2400D02*X15090Y2350D01*
X14940Y2400D02*X15040D01*
X14890Y2350D02*X14940Y2400D01*
X14890Y2350D02*Y2250D01*
X14940Y2200D01*
X15090D01*
G54D36*X2400Y18800D02*Y10800D01*
X400Y18800D02*X2400D01*
X400D02*Y10800D01*
X2400D01*
G54D13*X1400Y11800D02*X2400D01*
X1400D02*Y10800D01*
G04 Text: J50 *
G54D12*X1550Y19450D02*X1700D01*
Y19100D01*
X1650Y19050D02*X1700Y19100D01*
X1600Y19050D02*X1650D01*
X1550Y19100D02*X1600Y19050D01*
X1820Y19450D02*X2020D01*
X1820D02*Y19250D01*
X1870Y19300D01*
X1970D01*
X2020Y19250D01*
Y19100D01*
X1970Y19050D02*X2020Y19100D01*
X1870Y19050D02*X1970D01*
X1820Y19100D02*X1870Y19050D01*
X2140Y19100D02*X2190Y19050D01*
X2140Y19400D02*Y19100D01*
Y19400D02*X2190Y19450D01*
X2290D01*
X2340Y19400D01*
Y19100D01*
X2290Y19050D02*X2340Y19100D01*
X2190Y19050D02*X2290D01*
X2140Y19150D02*X2340Y19350D01*
G54D17*X14120Y19070D02*Y18530D01*
X13280Y19070D02*X14120D01*
X13280D02*Y18530D01*
X14120D01*
G04 Text: R29 *
G54D12*X13200Y19700D02*X13400D01*
X13450Y19650D01*
Y19550D01*
X13400Y19500D02*X13450Y19550D01*
X13250Y19500D02*X13400D01*
X13250Y19700D02*Y19300D01*
Y19500D02*X13450Y19300D01*
X13570Y19650D02*X13620Y19700D01*
X13770D01*
X13820Y19650D01*
Y19550D01*
X13570Y19300D02*X13820Y19550D01*
X13570Y19300D02*X13820D01*
X13940D02*X14140Y19500D01*
Y19650D02*Y19500D01*
X14090Y19700D02*X14140Y19650D01*
X13990Y19700D02*X14090D01*
X13940Y19650D02*X13990Y19700D01*
X13940Y19650D02*Y19550D01*
X13990Y19500D01*
X14140D01*
G54D13*X10310Y19550D02*Y17550D01*
X12830D01*
Y19550D02*Y17550D01*
X11320Y19550D02*X12830D01*
X10310D02*X11820D01*
X11320D02*G75*G03X11820Y19550I250J0D01*G01*
G04 Text: U52 *
G54D12*X9200Y18500D02*Y18150D01*
X9250Y18100D01*
X9350D01*
X9400Y18150D01*
Y18500D02*Y18150D01*
X9520Y18500D02*X9720D01*
X9520D02*Y18300D01*
X9570Y18350D01*
X9670D01*
X9720Y18300D01*
Y18150D01*
X9670Y18100D02*X9720Y18150D01*
X9570Y18100D02*X9670D01*
X9520Y18150D02*X9570Y18100D01*
X9840Y18450D02*X9890Y18500D01*
X10040D01*
X10090Y18450D01*
Y18350D01*
X9840Y18100D02*X10090Y18350D01*
X9840Y18100D02*X10090D01*
G54D13*X15150Y12100D02*Y18400D01*
X13250Y11700D02*Y17900D01*
X12150Y11850D02*Y17450D01*
X10100Y17650D02*X10050Y17700D01*
X10100Y11900D02*Y17650D01*
G04 Text: (c) 2006 Ettus Research LLC *
G54D12*X18200Y20250D02*X18250Y20200D01*
X18200Y20550D02*X18250Y20600D01*
X18200Y20550D02*Y20250D01*
X18420Y20400D02*X18570D01*
X18370Y20350D02*X18420Y20400D01*
X18370Y20350D02*Y20250D01*
X18420Y20200D01*
X18570D01*
X18690Y20600D02*X18740Y20550D01*
Y20250D01*
X18690Y20200D02*X18740Y20250D01*
X19040Y20550D02*X19090Y20600D01*
X19240D01*
X19290Y20550D01*
Y20450D01*
X19040Y20200D02*X19290Y20450D01*
X19040Y20200D02*X19290D01*
X19410Y20250D02*X19460Y20200D01*
X19410Y20550D02*Y20250D01*
Y20550D02*X19460Y20600D01*
X19560D01*
X19610Y20550D01*
Y20250D01*
X19560Y20200D02*X19610Y20250D01*
X19460Y20200D02*X19560D01*
X19410Y20300D02*X19610Y20500D01*
X19730Y20250D02*X19780Y20200D01*
X19730Y20550D02*Y20250D01*
Y20550D02*X19780Y20600D01*
X19880D01*
X19930Y20550D01*
Y20250D01*
X19880Y20200D02*X19930Y20250D01*
X19780Y20200D02*X19880D01*
X19730Y20300D02*X19930Y20500D01*
X20200Y20600D02*X20250Y20550D01*
X20100Y20600D02*X20200D01*
X20050Y20550D02*X20100Y20600D01*
X20050Y20550D02*Y20250D01*
X20100Y20200D01*
X20200Y20400D02*X20250Y20350D01*
X20050Y20400D02*X20200D01*
X20100Y20200D02*X20200D01*
X20250Y20250D01*
Y20350D02*Y20250D01*
X20550Y20400D02*X20700D01*
X20550Y20200D02*X20750D01*
X20550Y20600D02*Y20200D01*
Y20600D02*X20750D01*
X20920D02*Y20250D01*
X20970Y20200D01*
X20870Y20450D02*X20970D01*
X21120Y20600D02*Y20250D01*
X21170Y20200D01*
X21070Y20450D02*X21170D01*
X21271Y20400D02*Y20250D01*
X21321Y20200D01*
X21421D01*
X21471Y20250D01*
Y20400D02*Y20250D01*
X21641Y20200D02*X21791D01*
X21841Y20250D01*
X21791Y20300D02*X21841Y20250D01*
X21641Y20300D02*X21791D01*
X21591Y20350D02*X21641Y20300D01*
X21591Y20350D02*X21641Y20400D01*
X21791D01*
X21841Y20350D01*
X21591Y20250D02*X21641Y20200D01*
X22141Y20600D02*X22341D01*
X22391Y20550D01*
Y20450D01*
X22341Y20400D02*X22391Y20450D01*
X22191Y20400D02*X22341D01*
X22191Y20600D02*Y20200D01*
Y20400D02*X22391Y20200D01*
X22561D02*X22711D01*
X22511Y20250D02*X22561Y20200D01*
X22511Y20350D02*Y20250D01*
Y20350D02*X22561Y20400D01*
X22661D01*
X22711Y20350D01*
X22511Y20300D02*X22711D01*
Y20350D02*Y20300D01*
X22881Y20200D02*X23031D01*
X23081Y20250D01*
X23031Y20300D02*X23081Y20250D01*
X22881Y20300D02*X23031D01*
X22831Y20350D02*X22881Y20300D01*
X22831Y20350D02*X22881Y20400D01*
X23031D01*
X23081Y20350D01*
X22831Y20250D02*X22881Y20200D01*
X23251D02*X23401D01*
X23201Y20250D02*X23251Y20200D01*
X23201Y20350D02*Y20250D01*
Y20350D02*X23251Y20400D01*
X23351D01*
X23401Y20350D01*
X23201Y20300D02*X23401D01*
Y20350D02*Y20300D01*
X23671Y20400D02*X23721Y20350D01*
X23571Y20400D02*X23671D01*
X23521Y20350D02*X23571Y20400D01*
X23521Y20350D02*Y20250D01*
X23571Y20200D01*
X23721Y20400D02*Y20250D01*
X23771Y20200D01*
X23571D02*X23671D01*
X23721Y20250D01*
X23941Y20350D02*Y20200D01*
Y20350D02*X23991Y20400D01*
X24091D01*
X23891D02*X23941Y20350D01*
X24261Y20400D02*X24411D01*
X24211Y20350D02*X24261Y20400D01*
X24211Y20350D02*Y20250D01*
X24261Y20200D01*
X24411D01*
X24531Y20600D02*Y20200D01*
Y20350D02*X24581Y20400D01*
X24681D01*
X24731Y20350D01*
Y20200D01*
X25032Y20600D02*Y20200D01*
X25232D01*
X25352Y20600D02*Y20200D01*
X25552D01*
X25722D02*X25872D01*
X25672Y20250D02*X25722Y20200D01*
X25672Y20550D02*Y20250D01*
Y20550D02*X25722Y20600D01*
X25872D01*
G04 Text: DC-30 MHz Transmitter *
X18250Y21300D02*Y20900D01*
X18400Y21300D02*X18450Y21250D01*
Y20950D01*
X18400Y20900D02*X18450Y20950D01*
X18200Y20900D02*X18400D01*
X18200Y21300D02*X18400D01*
X18620Y20900D02*X18770D01*
X18570Y20950D02*X18620Y20900D01*
X18570Y21250D02*Y20950D01*
Y21250D02*X18620Y21300D01*
X18770D01*
X18890Y21100D02*X19090D01*
X19210Y21250D02*X19260Y21300D01*
X19360D01*
X19410Y21250D01*
Y20950D01*
X19360Y20900D02*X19410Y20950D01*
X19260Y20900D02*X19360D01*
X19210Y20950D02*X19260Y20900D01*
Y21100D02*X19410D01*
X19530Y20950D02*X19580Y20900D01*
X19530Y21250D02*Y20950D01*
Y21250D02*X19580Y21300D01*
X19680D01*
X19730Y21250D01*
Y20950D01*
X19680Y20900D02*X19730Y20950D01*
X19580Y20900D02*X19680D01*
X19530Y21000D02*X19730Y21200D01*
X20030Y21300D02*Y20900D01*
Y21300D02*X20180Y21150D01*
X20330Y21300D01*
Y20900D01*
X20450Y21300D02*Y20900D01*
X20700Y21300D02*Y20900D01*
X20450Y21100D02*X20700D01*
X20820D02*X21020D01*
X20820Y20900D02*X21020Y21100D01*
X20820Y20900D02*X21020D01*
X21320Y21300D02*X21520D01*
X21420D02*Y20900D01*
X21690Y21050D02*Y20900D01*
Y21050D02*X21740Y21100D01*
X21840D01*
X21640D02*X21690Y21050D01*
X22111Y21100D02*X22161Y21050D01*
X22011Y21100D02*X22111D01*
X21961Y21050D02*X22011Y21100D01*
X21961Y21050D02*Y20950D01*
X22011Y20900D01*
X22161Y21100D02*Y20950D01*
X22211Y20900D01*
X22011D02*X22111D01*
X22161Y20950D01*
X22381Y21050D02*Y20900D01*
Y21050D02*X22431Y21100D01*
X22481D01*
X22531Y21050D01*
Y20900D01*
X22331Y21100D02*X22381Y21050D01*
X22701Y20900D02*X22851D01*
X22901Y20950D01*
X22851Y21000D02*X22901Y20950D01*
X22701Y21000D02*X22851D01*
X22651Y21050D02*X22701Y21000D01*
X22651Y21050D02*X22701Y21100D01*
X22851D01*
X22901Y21050D01*
X22651Y20950D02*X22701Y20900D01*
X23071Y21050D02*Y20900D01*
Y21050D02*X23121Y21100D01*
X23171D01*
X23221Y21050D01*
Y20900D01*
Y21050D02*X23271Y21100D01*
X23321D01*
X23371Y21050D01*
Y20900D01*
X23021Y21100D02*X23071Y21050D01*
X23491Y21200D02*Y21150D01*
Y21050D02*Y20900D01*
X23641Y21300D02*Y20950D01*
X23691Y20900D01*
X23591Y21150D02*X23691D01*
X23841Y21300D02*Y20950D01*
X23891Y20900D01*
X23791Y21150D02*X23891D01*
X24041Y20900D02*X24191D01*
X23991Y20950D02*X24041Y20900D01*
X23991Y21050D02*Y20950D01*
Y21050D02*X24041Y21100D01*
X24141D01*
X24191Y21050D01*
X23991Y21000D02*X24191D01*
Y21050D02*Y21000D01*
X24361Y21050D02*Y20900D01*
Y21050D02*X24411Y21100D01*
X24511D01*
X24311D02*X24361Y21050D01*
G04 Text: LFTX v1.0 *
X18200Y22300D02*Y21500D01*
X18600D01*
X18840Y22300D02*Y21500D01*
Y22300D02*X19240D01*
X18840Y21900D02*X19140D01*
X19480Y22300D02*X19880D01*
X19680D02*Y21500D01*
X20120Y22300D02*Y22200D01*
X20620Y21700D01*
Y21500D01*
X20120Y21700D02*Y21500D01*
Y21700D02*X20620Y22200D01*
Y22300D02*Y22200D01*
X21220Y21900D02*Y21700D01*
X21420Y21500D01*
X21620Y21700D01*
Y21900D02*Y21700D01*
X21961Y21500D02*X22161D01*
X22061Y22300D02*Y21500D01*
X21861Y22100D02*X22061Y22300D01*
X22401Y21500D02*X22501D01*
X22741Y21600D02*X22841Y21500D01*
X22741Y22200D02*Y21600D01*
Y22200D02*X22841Y22300D01*
X23041D01*
X23141Y22200D01*
Y21600D01*
X23041Y21500D02*X23141Y21600D01*
X22841Y21500D02*X23041D01*
X22741Y21700D02*X23141Y22100D01*
G04 Text: SPI *
X14050Y12700D02*X14100Y12650D01*
X13900Y12700D02*X14050D01*
X13850Y12650D02*X13900Y12700D01*
X13850Y12650D02*Y12550D01*
X13900Y12500D01*
X14050D01*
X14100Y12450D01*
Y12350D01*
X14050Y12300D02*X14100Y12350D01*
X13900Y12300D02*X14050D01*
X13850Y12350D02*X13900Y12300D01*
X14270Y12700D02*Y12300D01*
X14220Y12700D02*X14420D01*
X14470Y12650D01*
Y12550D01*
X14420Y12500D02*X14470Y12550D01*
X14270Y12500D02*X14420D01*
X14590Y12700D02*X14690D01*
X14640D02*Y12300D01*
X14590D02*X14690D01*
G04 Text: I2C *
X10700Y13150D02*X10800D01*
X10750D02*Y12750D01*
X10700D02*X10800D01*
X10920Y13100D02*X10970Y13150D01*
X11120D01*
X11170Y13100D01*
Y13000D01*
X10920Y12750D02*X11170Y13000D01*
X10920Y12750D02*X11170D01*
X11340D02*X11490D01*
X11290Y12800D02*X11340Y12750D01*
X11290Y13100D02*Y12800D01*
Y13100D02*X11340Y13150D01*
X11490D01*
G04 Text: PWR *
X8650Y12750D02*Y12350D01*
X8600Y12750D02*X8800D01*
X8850Y12700D01*
Y12600D01*
X8800Y12550D02*X8850Y12600D01*
X8650Y12550D02*X8800D01*
X8970Y12750D02*Y12350D01*
X9120Y12500D01*
X9270Y12350D01*
Y12750D02*Y12350D01*
X9390Y12750D02*X9590D01*
X9640Y12700D01*
Y12600D01*
X9590Y12550D02*X9640Y12600D01*
X9440Y12550D02*X9590D01*
X9440Y12750D02*Y12350D01*
Y12550D02*X9640Y12350D01*
G04 Text: SDA *
X11156Y17450D02*X11195Y17411D01*
X11039Y17450D02*X11156D01*
X11000Y17411D02*X11039Y17450D01*
X11000Y17411D02*Y17333D01*
X11039Y17294D01*
X11156D01*
X11195Y17255D01*
Y17177D01*
X11156Y17138D02*X11195Y17177D01*
X11039Y17138D02*X11156D01*
X11000Y17177D02*X11039Y17138D01*
X11327Y17450D02*Y17138D01*
X11444Y17450D02*X11483Y17411D01*
Y17177D01*
X11444Y17138D02*X11483Y17177D01*
X11288Y17138D02*X11444D01*
X11288Y17450D02*X11444D01*
X11577Y17411D02*Y17138D01*
Y17411D02*X11616Y17450D01*
X11733D01*
X11772Y17411D01*
Y17138D01*
X11577Y17294D02*X11772D01*
G04 Text: A1 *
X10300Y17411D02*Y17138D01*
Y17411D02*X10339Y17450D01*
X10456D01*
X10495Y17411D01*
Y17138D01*
X10300Y17294D02*X10495D01*
X10627Y17138D02*X10705D01*
X10666Y17450D02*Y17138D01*
X10588Y17372D02*X10666Y17450D01*
G04 Text: RXD *
X12100D02*X12256D01*
X12295Y17411D01*
Y17333D01*
X12256Y17294D02*X12295Y17333D01*
X12139Y17294D02*X12256D01*
X12139Y17450D02*Y17138D01*
Y17294D02*X12295Y17138D01*
X12388Y17450D02*Y17411D01*
X12583Y17216D01*
Y17138D01*
X12388Y17216D02*Y17138D01*
Y17216D02*X12583Y17411D01*
Y17450D02*Y17411D01*
X12716Y17450D02*Y17138D01*
X12833Y17450D02*X12872Y17411D01*
Y17177D01*
X12833Y17138D02*X12872Y17177D01*
X12677Y17138D02*X12833D01*
X12677Y17450D02*X12833D01*
G04 Text: SCLK *
X13500Y17306D02*X13539Y17345D01*
X13500Y17306D02*Y17189D01*
X13539Y17150D02*X13500Y17189D01*
X13539Y17150D02*X13617D01*
X13656Y17189D01*
Y17306D02*Y17189D01*
Y17306D02*X13695Y17345D01*
X13773D01*
X13812Y17306D02*X13773Y17345D01*
X13812Y17306D02*Y17189D01*
X13773Y17150D02*X13812Y17189D01*
Y17594D02*Y17477D01*
X13773Y17438D02*X13812Y17477D01*
X13539Y17438D02*X13773D01*
X13539D02*X13500Y17477D01*
Y17594D02*Y17477D01*
Y17688D02*X13812D01*
Y17844D02*Y17688D01*
X13500Y17938D02*X13812D01*
X13656D02*X13500Y18094D01*
X13656Y17938D02*X13812Y18094D01*
G04 Text: SEN_TX *
X14400Y17256D02*X14439Y17295D01*
X14400Y17256D02*Y17139D01*
X14439Y17100D02*X14400Y17139D01*
X14439Y17100D02*X14517D01*
X14556Y17139D01*
Y17256D02*Y17139D01*
Y17256D02*X14595Y17295D01*
X14673D01*
X14712Y17256D02*X14673Y17295D01*
X14712Y17256D02*Y17139D01*
X14673Y17100D02*X14712Y17139D01*
X14556Y17505D02*Y17388D01*
X14712Y17544D02*Y17388D01*
X14400D02*X14712D01*
X14400Y17544D02*Y17388D01*
Y17638D02*X14712D01*
X14400D02*X14439D01*
X14634Y17833D01*
X14400D02*X14712D01*
Y18083D02*Y17927D01*
X14400Y18332D02*Y18176D01*
Y18254D02*X14712D01*
X14400Y18426D02*X14439D01*
X14634Y18621D01*
X14712D01*
X14634Y18426D02*X14712D01*
X14634D02*X14439Y18621D01*
X14400D02*X14439D01*
G04 Text: DGND *
X15400Y17189D02*X15712D01*
X15400Y17306D02*X15439Y17345D01*
X15673D01*
X15712Y17306D02*X15673Y17345D01*
X15712Y17306D02*Y17150D01*
X15400Y17306D02*Y17150D01*
Y17594D02*X15439Y17633D01*
X15400Y17594D02*Y17477D01*
X15439Y17438D02*X15400Y17477D01*
X15439Y17438D02*X15673D01*
X15712Y17477D01*
Y17594D02*Y17477D01*
Y17594D02*X15673Y17633D01*
X15595D02*X15673D01*
X15556Y17594D02*X15595Y17633D01*
X15556Y17594D02*Y17516D01*
X15400Y17727D02*X15712D01*
X15400D02*X15439D01*
X15634Y17922D01*
X15400D02*X15712D01*
X15400Y18055D02*X15712D01*
X15400Y18172D02*X15439Y18211D01*
X15673D01*
X15712Y18172D02*X15673Y18211D01*
X15712Y18172D02*Y18016D01*
X15400Y18172D02*Y18016D01*
G04 Text: RESET *
Y13200D02*Y13000D01*
Y13200D02*X15450Y13250D01*
X15550D01*
X15600Y13200D02*X15550Y13250D01*
X15600Y13200D02*Y13050D01*
X15400D02*X15800D01*
X15600D02*X15800Y13250D01*
X15600Y13520D02*Y13370D01*
X15800Y13570D02*Y13370D01*
X15400D02*X15800D01*
X15400Y13570D02*Y13370D01*
Y13890D02*X15450Y13940D01*
X15400Y13890D02*Y13740D01*
X15450Y13690D02*X15400Y13740D01*
X15450Y13690D02*X15550D01*
X15600Y13740D01*
Y13890D02*Y13740D01*
Y13890D02*X15650Y13940D01*
X15750D01*
X15800Y13890D02*X15750Y13940D01*
X15800Y13890D02*Y13740D01*
X15750Y13690D02*X15800Y13740D01*
X15600Y14210D02*Y14060D01*
X15800Y14260D02*Y14060D01*
X15400D02*X15800D01*
X15400Y14260D02*Y14060D01*
Y14580D02*Y14380D01*
Y14480D02*X15800D01*
G04 Text: SDI *
X14450Y13750D02*X14500Y13800D01*
X14450Y13750D02*Y13600D01*
X14500Y13550D02*X14450Y13600D01*
X14500Y13550D02*X14600D01*
X14650Y13600D01*
Y13750D02*Y13600D01*
Y13750D02*X14700Y13800D01*
X14800D01*
X14850Y13750D02*X14800Y13800D01*
X14850Y13750D02*Y13600D01*
X14800Y13550D02*X14850Y13600D01*
X14450Y13970D02*X14850D01*
X14450Y14120D02*X14500Y14170D01*
X14800D01*
X14850Y14120D02*X14800Y14170D01*
X14850Y14120D02*Y13920D01*
X14450Y14120D02*Y13920D01*
Y14390D02*Y14290D01*
Y14340D02*X14850D01*
Y14390D02*Y14290D01*
G04 Text: SDO *
X13450Y13750D02*X13500Y13800D01*
X13450Y13750D02*Y13600D01*
X13500Y13550D02*X13450Y13600D01*
X13500Y13550D02*X13600D01*
X13650Y13600D01*
Y13750D02*Y13600D01*
Y13750D02*X13700Y13800D01*
X13800D01*
X13850Y13750D02*X13800Y13800D01*
X13850Y13750D02*Y13600D01*
X13800Y13550D02*X13850Y13600D01*
X13450Y13970D02*X13850D01*
X13450Y14120D02*X13500Y14170D01*
X13800D01*
X13850Y14120D02*X13800Y14170D01*
X13850Y14120D02*Y13920D01*
X13450Y14120D02*Y13920D01*
X13500Y14290D02*X13800D01*
X13500D02*X13450Y14340D01*
Y14440D02*Y14340D01*
Y14440D02*X13500Y14490D01*
X13800D01*
X13850Y14440D02*X13800Y14490D01*
X13850Y14440D02*Y14340D01*
X13800Y14290D02*X13850Y14340D01*
G04 Text: TXD *
X12500Y13800D02*Y13600D01*
Y13700D02*X12900D01*
X12500Y13920D02*X12550D01*
X12800Y14170D01*
X12900D01*
X12800Y13920D02*X12900D01*
X12800D02*X12550Y14170D01*
X12500D02*X12550D01*
X12500Y14340D02*X12900D01*
X12500Y14490D02*X12550Y14540D01*
X12850D01*
X12900Y14490D02*X12850Y14540D01*
X12900Y14490D02*Y14290D01*
X12500Y14490D02*Y14290D01*
G04 Text: SCL *
X11400Y13750D02*X11450Y13800D01*
X11400Y13750D02*Y13600D01*
X11450Y13550D02*X11400Y13600D01*
X11450Y13550D02*X11550D01*
X11600Y13600D01*
Y13750D02*Y13600D01*
Y13750D02*X11650Y13800D01*
X11750D01*
X11800Y13750D02*X11750Y13800D01*
X11800Y13750D02*Y13600D01*
X11750Y13550D02*X11800Y13600D01*
Y14120D02*Y13970D01*
X11750Y13920D02*X11800Y13970D01*
X11450Y13920D02*X11750D01*
X11450D02*X11400Y13970D01*
Y14120D02*Y13970D01*
Y14240D02*X11800D01*
Y14440D02*Y14240D01*
G04 Text: A0 *
X10500Y13850D02*X10850D01*
X10500D02*X10450Y13900D01*
Y14050D02*Y13900D01*
Y14050D02*X10500Y14100D01*
X10850D01*
X10650D02*Y13850D01*
X10800Y14220D02*X10850Y14270D01*
X10500Y14220D02*X10800D01*
X10500D02*X10450Y14270D01*
Y14370D02*Y14270D01*
Y14370D02*X10500Y14420D01*
X10800D01*
X10850Y14370D02*X10800Y14420D01*
X10850Y14370D02*Y14270D01*
X10750Y14220D02*X10550Y14420D01*
G04 Text: 6V *
X9450Y14100D02*X9500Y14150D01*
X9450Y14100D02*Y14000D01*
X9500Y13950D02*X9450Y14000D01*
X9500Y13950D02*X9800D01*
X9850Y14000D01*
X9650Y14100D02*X9700Y14150D01*
X9650Y14100D02*Y13950D01*
X9850Y14100D02*Y14000D01*
Y14100D02*X9800Y14150D01*
X9700D02*X9800D01*
X9450Y14270D02*X9750D01*
X9850Y14370D01*
X9750Y14470D01*
X9450D02*X9750D01*
G04 Text: 3.3VD *
X8550Y13200D02*X8500Y13250D01*
Y13350D02*Y13250D01*
Y13350D02*X8550Y13400D01*
X8850D01*
X8900Y13350D02*X8850Y13400D01*
X8900Y13350D02*Y13250D01*
X8850Y13200D02*X8900Y13250D01*
X8700Y13400D02*Y13250D01*
X8900Y13570D02*Y13520D01*
X8550Y13690D02*X8500Y13740D01*
Y13840D02*Y13740D01*
Y13840D02*X8550Y13890D01*
X8850D01*
X8900Y13840D02*X8850Y13890D01*
X8900Y13840D02*Y13740D01*
X8850Y13690D02*X8900Y13740D01*
X8700Y13890D02*Y13740D01*
X8500Y14010D02*X8800D01*
X8900Y14110D01*
X8800Y14210D01*
X8500D02*X8800D01*
X8500Y14380D02*X8900D01*
X8500Y14530D02*X8550Y14580D01*
X8850D01*
X8900Y14530D02*X8850Y14580D01*
X8900Y14530D02*Y14330D01*
X8500Y14530D02*Y14330D01*
G04 Text: DGND *
X8450Y17550D02*Y17150D01*
X8600Y17550D02*X8650Y17500D01*
Y17200D01*
X8600Y17150D02*X8650Y17200D01*
X8400Y17150D02*X8600D01*
X8400Y17550D02*X8600D01*
X8970D02*X9020Y17500D01*
X8820Y17550D02*X8970D01*
X8770Y17500D02*X8820Y17550D01*
X8770Y17500D02*Y17200D01*
X8820Y17150D01*
X8970D01*
X9020Y17200D01*
Y17300D02*Y17200D01*
X8970Y17350D02*X9020Y17300D01*
X8870Y17350D02*X8970D01*
X9140Y17550D02*Y17150D01*
Y17550D02*Y17500D01*
X9390Y17250D01*
Y17550D02*Y17150D01*
X9560Y17550D02*Y17150D01*
X9710Y17550D02*X9760Y17500D01*
Y17200D01*
X9710Y17150D02*X9760Y17200D01*
X9510Y17150D02*X9710D01*
X9510Y17550D02*X9710D01*
G04 Text: 3.3VA *
X18300Y14661D02*X18339Y14700D01*
X18417D01*
X18456Y14661D01*
Y14427D01*
X18417Y14388D02*X18456Y14427D01*
X18339Y14388D02*X18417D01*
X18300Y14427D02*X18339Y14388D01*
Y14544D02*X18456D01*
X18549Y14388D02*X18588D01*
X18682Y14661D02*X18721Y14700D01*
X18799D01*
X18838Y14661D01*
Y14427D01*
X18799Y14388D02*X18838Y14427D01*
X18721Y14388D02*X18799D01*
X18682Y14427D02*X18721Y14388D01*
Y14544D02*X18838D01*
X18932Y14700D02*Y14466D01*
X19010Y14388D01*
X19088Y14466D01*
Y14700D02*Y14466D01*
X19181Y14661D02*Y14388D01*
Y14661D02*X19220Y14700D01*
X19337D01*
X19376Y14661D01*
Y14388D01*
X19181Y14544D02*X19376D01*
G04 Text: AGND *
X22839Y13600D02*X23112D01*
X22839D02*X22800Y13639D01*
Y13756D02*Y13639D01*
Y13756D02*X22839Y13795D01*
X23112D01*
X22956D02*Y13600D01*
X22800Y14044D02*X22839Y14083D01*
X22800Y14044D02*Y13927D01*
X22839Y13888D02*X22800Y13927D01*
X22839Y13888D02*X23073D01*
X23112Y13927D01*
Y14044D02*Y13927D01*
Y14044D02*X23073Y14083D01*
X22995D02*X23073D01*
X22956Y14044D02*X22995Y14083D01*
X22956Y14044D02*Y13966D01*
X22800Y14177D02*X23112D01*
X22800D02*X22839D01*
X23034Y14372D01*
X22800D02*X23112D01*
X22800Y14505D02*X23112D01*
X22800Y14622D02*X22839Y14661D01*
X23073D01*
X23112Y14622D02*X23073Y14661D01*
X23112Y14622D02*Y14466D01*
X22800Y14622D02*Y14466D01*
G04 Text: ADC_REF *
X19939Y12900D02*X20212D01*
X19939D02*X19900Y12939D01*
Y13056D02*Y12939D01*
Y13056D02*X19939Y13095D01*
X20212D01*
X20056D02*Y12900D01*
X19900Y13227D02*X20212D01*
X19900Y13344D02*X19939Y13383D01*
X20173D01*
X20212Y13344D02*X20173Y13383D01*
X20212Y13344D02*Y13188D01*
X19900Y13344D02*Y13188D01*
X20212Y13633D02*Y13516D01*
X20173Y13477D02*X20212Y13516D01*
X19939Y13477D02*X20173D01*
X19939D02*X19900Y13516D01*
Y13633D02*Y13516D01*
X20212Y13883D02*Y13727D01*
X19900Y14132D02*Y13976D01*
Y14132D02*X19939Y14171D01*
X20017D01*
X20056Y14132D02*X20017Y14171D01*
X20056Y14132D02*Y14015D01*
X19900D02*X20212D01*
X20056D02*X20212Y14171D01*
X20056Y14382D02*Y14265D01*
X20212Y14421D02*Y14265D01*
X19900D02*X20212D01*
X19900Y14421D02*Y14265D01*
Y14515D02*X20212D01*
X19900Y14671D02*Y14515D01*
X20056Y14632D02*Y14515D01*
G04 Text: ADC_B2 *
X21839Y13100D02*X22112D01*
X21839D02*X21800Y13139D01*
Y13256D02*Y13139D01*
Y13256D02*X21839Y13295D01*
X22112D01*
X21956D02*Y13100D01*
X21800Y13427D02*X22112D01*
X21800Y13544D02*X21839Y13583D01*
X22073D01*
X22112Y13544D02*X22073Y13583D01*
X22112Y13544D02*Y13388D01*
X21800Y13544D02*Y13388D01*
X22112Y13833D02*Y13716D01*
X22073Y13677D02*X22112Y13716D01*
X21839Y13677D02*X22073D01*
X21839D02*X21800Y13716D01*
Y13833D02*Y13716D01*
X22112Y14083D02*Y13927D01*
Y14332D02*Y14176D01*
Y14332D02*X22073Y14371D01*
X21995D02*X22073D01*
X21956Y14332D02*X21995Y14371D01*
X21956Y14332D02*Y14215D01*
X21800D02*X22112D01*
X21800Y14332D02*Y14176D01*
Y14332D02*X21839Y14371D01*
X21917D01*
X21956Y14332D02*X21917Y14371D01*
X21839Y14465D02*X21800Y14504D01*
Y14621D02*Y14504D01*
Y14621D02*X21839Y14660D01*
X21917D01*
X22112Y14465D02*X21917Y14660D01*
X22112D02*Y14465D01*
G04 Text: ADC_A2 *
X20839Y13100D02*X21112D01*
X20839D02*X20800Y13139D01*
Y13256D02*Y13139D01*
Y13256D02*X20839Y13295D01*
X21112D01*
X20956D02*Y13100D01*
X20800Y13427D02*X21112D01*
X20800Y13544D02*X20839Y13583D01*
X21073D01*
X21112Y13544D02*X21073Y13583D01*
X21112Y13544D02*Y13388D01*
X20800Y13544D02*Y13388D01*
X21112Y13833D02*Y13716D01*
X21073Y13677D02*X21112Y13716D01*
X20839Y13677D02*X21073D01*
X20839D02*X20800Y13716D01*
Y13833D02*Y13716D01*
X21112Y14083D02*Y13927D01*
X20839Y14176D02*X21112D01*
X20839D02*X20800Y14215D01*
Y14332D02*Y14215D01*
Y14332D02*X20839Y14371D01*
X21112D01*
X20956D02*Y14176D01*
X20839Y14465D02*X20800Y14504D01*
Y14621D02*Y14504D01*
Y14621D02*X20839Y14660D01*
X20917D01*
X21112Y14465D02*X20917Y14660D01*
X21112D02*Y14465D01*
G04 Text: AGND *
X22850Y17100D02*X23200D01*
X22850D02*X22800Y17150D01*
Y17300D02*Y17150D01*
Y17300D02*X22850Y17350D01*
X23200D01*
X23000D02*Y17100D01*
X22800Y17670D02*X22850Y17720D01*
X22800Y17670D02*Y17520D01*
X22850Y17470D02*X22800Y17520D01*
X22850Y17470D02*X23150D01*
X23200Y17520D01*
Y17670D02*Y17520D01*
Y17670D02*X23150Y17720D01*
X23050D02*X23150D01*
X23000Y17670D02*X23050Y17720D01*
X23000Y17670D02*Y17570D01*
X22800Y17840D02*X23200D01*
X22800D02*X22850D01*
X23100Y18090D01*
X22800D02*X23200D01*
X22800Y18260D02*X23200D01*
X22800Y18410D02*X22850Y18460D01*
X23150D01*
X23200Y18410D02*X23150Y18460D01*
X23200Y18410D02*Y18210D01*
X22800Y18410D02*Y18210D01*
G04 Text: DAC_D *
X18700Y17150D02*X19100D01*
X18700Y17300D02*X18750Y17350D01*
X19050D01*
X19100Y17300D02*X19050Y17350D01*
X19100Y17300D02*Y17100D01*
X18700Y17300D02*Y17100D01*
X18750Y17470D02*X19100D01*
X18750D02*X18700Y17520D01*
Y17670D02*Y17520D01*
Y17670D02*X18750Y17720D01*
X19100D01*
X18900D02*Y17470D01*
X19100Y18040D02*Y17890D01*
X19050Y17840D02*X19100Y17890D01*
X18750Y17840D02*X19050D01*
X18750D02*X18700Y17890D01*
Y18040D02*Y17890D01*
X19100Y18360D02*Y18160D01*
X18700Y18530D02*X19100D01*
X18700Y18680D02*X18750Y18730D01*
X19050D01*
X19100Y18680D02*X19050Y18730D01*
X19100Y18680D02*Y18480D01*
X18700Y18680D02*Y18480D01*
G04 Text: DAC_C *
X21700Y17150D02*X22100D01*
X21700Y17300D02*X21750Y17350D01*
X22050D01*
X22100Y17300D02*X22050Y17350D01*
X22100Y17300D02*Y17100D01*
X21700Y17300D02*Y17100D01*
X21750Y17470D02*X22100D01*
X21750D02*X21700Y17520D01*
Y17670D02*Y17520D01*
Y17670D02*X21750Y17720D01*
X22100D01*
X21900D02*Y17470D01*
X22100Y18040D02*Y17890D01*
X22050Y17840D02*X22100Y17890D01*
X21750Y17840D02*X22050D01*
X21750D02*X21700Y17890D01*
Y18040D02*Y17890D01*
X22100Y18360D02*Y18160D01*
Y18680D02*Y18530D01*
X22050Y18480D02*X22100Y18530D01*
X21750Y18480D02*X22050D01*
X21750D02*X21700Y18530D01*
Y18680D02*Y18530D01*
G04 Text: DAC_B *
X20700Y17150D02*X21100D01*
X20700Y17300D02*X20750Y17350D01*
X21050D01*
X21100Y17300D02*X21050Y17350D01*
X21100Y17300D02*Y17100D01*
X20700Y17300D02*Y17100D01*
X20750Y17470D02*X21100D01*
X20750D02*X20700Y17520D01*
Y17670D02*Y17520D01*
Y17670D02*X20750Y17720D01*
X21100D01*
X20900D02*Y17470D01*
X21100Y18040D02*Y17890D01*
X21050Y17840D02*X21100Y17890D01*
X20750Y17840D02*X21050D01*
X20750D02*X20700Y17890D01*
Y18040D02*Y17890D01*
X21100Y18360D02*Y18160D01*
Y18680D02*Y18480D01*
Y18680D02*X21050Y18730D01*
X20950D02*X21050D01*
X20900Y18680D02*X20950Y18730D01*
X20900Y18680D02*Y18530D01*
X20700D02*X21100D01*
X20700Y18680D02*Y18480D01*
Y18680D02*X20750Y18730D01*
X20850D01*
X20900Y18680D02*X20850Y18730D01*
G04 Text: DAC_A *
X19700Y17150D02*X20100D01*
X19700Y17300D02*X19750Y17350D01*
X20050D01*
X20100Y17300D02*X20050Y17350D01*
X20100Y17300D02*Y17100D01*
X19700Y17300D02*Y17100D01*
X19750Y17470D02*X20100D01*
X19750D02*X19700Y17520D01*
Y17670D02*Y17520D01*
Y17670D02*X19750Y17720D01*
X20100D01*
X19900D02*Y17470D01*
X20100Y18040D02*Y17890D01*
X20050Y17840D02*X20100Y17890D01*
X19750Y17840D02*X20050D01*
X19750D02*X19700Y17890D01*
Y18040D02*Y17890D01*
X20100Y18360D02*Y18160D01*
X19750Y18480D02*X20100D01*
X19750D02*X19700Y18530D01*
Y18680D02*Y18530D01*
Y18680D02*X19750Y18730D01*
X20100D01*
X19900D02*Y18480D01*
G04 Text: io_tx[1] *
X2600Y17372D02*Y17333D01*
Y17255D02*Y17138D01*
X2678Y17255D02*Y17177D01*
Y17255D02*X2717Y17294D01*
X2795D01*
X2834Y17255D01*
Y17177D01*
X2795Y17138D02*X2834Y17177D01*
X2717Y17138D02*X2795D01*
X2678Y17177D02*X2717Y17138D01*
X2927D02*X3083D01*
X3216Y17450D02*Y17177D01*
X3255Y17138D01*
X3177Y17333D02*X3255D01*
X3333Y17294D02*X3489Y17138D01*
X3333D02*X3489Y17294D01*
X3583Y17450D02*X3622D01*
X3583D02*Y17138D01*
X3622D01*
X3754D02*X3832D01*
X3793Y17450D02*Y17138D01*
X3715Y17372D02*X3793Y17450D01*
X3926D02*X3965D01*
Y17138D01*
X3926D02*X3965D01*
G04 Text: 15 *
X5250Y3000D02*X5350D01*
X5300Y3400D02*Y3000D01*
X5200Y3300D02*X5300Y3400D01*
X5470D02*X5670D01*
X5470D02*Y3200D01*
X5520Y3250D01*
X5620D01*
X5670Y3200D01*
Y3050D01*
X5620Y3000D02*X5670Y3050D01*
X5520Y3000D02*X5620D01*
X5470Y3050D02*X5520Y3000D01*
G04 Text: 14 *
X6250Y200D02*X6350D01*
X6300Y600D02*Y200D01*
X6200Y500D02*X6300Y600D01*
X6470Y400D02*X6670Y600D01*
X6470Y400D02*X6720D01*
X6670Y600D02*Y200D01*
G04 Text: 13 *
X6250Y3000D02*X6350D01*
X6300Y3400D02*Y3000D01*
X6200Y3300D02*X6300Y3400D01*
X6470Y3350D02*X6520Y3400D01*
X6620D01*
X6670Y3350D01*
Y3050D01*
X6620Y3000D02*X6670Y3050D01*
X6520Y3000D02*X6620D01*
X6470Y3050D02*X6520Y3000D01*
Y3200D02*X6670D01*
G04 Text: 12 *
X7250Y200D02*X7350D01*
X7300Y600D02*Y200D01*
X7200Y500D02*X7300Y600D01*
X7470Y550D02*X7520Y600D01*
X7670D01*
X7720Y550D01*
Y450D01*
X7470Y200D02*X7720Y450D01*
X7470Y200D02*X7720D01*
G04 Text: 11 *
X7350Y3000D02*X7450D01*
X7400Y3400D02*Y3000D01*
X7300Y3300D02*X7400Y3400D01*
X7620Y3000D02*X7720D01*
X7670Y3400D02*Y3000D01*
X7570Y3300D02*X7670Y3400D01*
G04 Text: 10 *
X8250Y200D02*X8350D01*
X8300Y600D02*Y200D01*
X8200Y500D02*X8300Y600D01*
X8470Y250D02*X8520Y200D01*
X8470Y550D02*Y250D01*
Y550D02*X8520Y600D01*
X8620D01*
X8670Y550D01*
Y250D01*
X8620Y200D02*X8670Y250D01*
X8520Y200D02*X8620D01*
X8470Y300D02*X8670Y500D01*
G04 Text: 9 *
X8300Y3000D02*X8500Y3200D01*
Y3350D02*Y3200D01*
X8450Y3400D02*X8500Y3350D01*
X8350Y3400D02*X8450D01*
X8300Y3350D02*X8350Y3400D01*
X8300Y3350D02*Y3250D01*
X8350Y3200D01*
X8500D01*
G04 Text: 8 *
X9400Y250D02*X9450Y200D01*
X9400Y350D02*Y250D01*
Y350D02*X9450Y400D01*
X9550D01*
X9600Y350D01*
Y250D01*
X9550Y200D02*X9600Y250D01*
X9450Y200D02*X9550D01*
X9400Y450D02*X9450Y400D01*
X9400Y550D02*Y450D01*
Y550D02*X9450Y600D01*
X9550D01*
X9600Y550D01*
Y450D01*
X9550Y400D02*X9600Y450D01*
G04 Text: 7 *
X9200Y3000D02*X9450Y3250D01*
Y3400D02*Y3250D01*
X9200Y3400D02*X9450D01*
G04 Text: 6 *
X10550Y600D02*X10600Y550D01*
X10450Y600D02*X10550D01*
X10400Y550D02*X10450Y600D01*
X10400Y550D02*Y250D01*
X10450Y200D01*
X10550Y400D02*X10600Y350D01*
X10400Y400D02*X10550D01*
X10450Y200D02*X10550D01*
X10600Y250D01*
Y350D02*Y250D01*
G04 Text: 5 *
X10400Y3400D02*X10600D01*
X10400D02*Y3200D01*
X10450Y3250D01*
X10550D01*
X10600Y3200D01*
Y3050D01*
X10550Y3000D02*X10600Y3050D01*
X10450Y3000D02*X10550D01*
X10400Y3050D02*X10450Y3000D01*
G04 Text: 4 *
X11400Y400D02*X11600Y600D01*
X11400Y400D02*X11650D01*
X11600Y600D02*Y200D01*
G04 Text: 3 *
X11400Y3350D02*X11450Y3400D01*
X11550D01*
X11600Y3350D01*
Y3050D01*
X11550Y3000D02*X11600Y3050D01*
X11450Y3000D02*X11550D01*
X11400Y3050D02*X11450Y3000D01*
Y3200D02*X11600D01*
G04 Text: 2 *
X12400Y550D02*X12450Y600D01*
X12600D01*
X12650Y550D01*
Y450D01*
X12400Y200D02*X12650Y450D01*
X12400Y200D02*X12650D01*
G04 Text: DGND *
X13300Y3050D02*X13700D01*
X13300Y3200D02*X13350Y3250D01*
X13650D01*
X13700Y3200D02*X13650Y3250D01*
X13700Y3200D02*Y3000D01*
X13300Y3200D02*Y3000D01*
Y3570D02*X13350Y3620D01*
X13300Y3570D02*Y3420D01*
X13350Y3370D02*X13300Y3420D01*
X13350Y3370D02*X13650D01*
X13700Y3420D01*
Y3570D02*Y3420D01*
Y3570D02*X13650Y3620D01*
X13550D02*X13650D01*
X13500Y3570D02*X13550Y3620D01*
X13500Y3570D02*Y3470D01*
X13300Y3740D02*X13700D01*
X13300D02*X13350D01*
X13600Y3990D01*
X13300D02*X13700D01*
X13300Y4160D02*X13700D01*
X13300Y4310D02*X13350Y4360D01*
X13650D01*
X13700Y4310D02*X13650Y4360D01*
X13700Y4310D02*Y4110D01*
X13300Y4310D02*Y4110D01*
G04 Text: 1 *
X12450Y3000D02*X12550D01*
X12500Y3400D02*Y3000D01*
X12400Y3300D02*X12500Y3400D01*
G04 Text: 0 *
X13400Y250D02*X13450Y200D01*
X13400Y550D02*Y250D01*
Y550D02*X13450Y600D01*
X13550D01*
X13600Y550D01*
Y250D01*
X13550Y200D02*X13600Y250D01*
X13450Y200D02*X13550D01*
X13400Y300D02*X13600Y500D01*
G04 Text: io_tx[15:0] *
X8000Y4400D02*Y4350D01*
Y4250D02*Y4100D01*
X8100Y4250D02*Y4150D01*
Y4250D02*X8150Y4300D01*
X8250D01*
X8300Y4250D01*
Y4150D01*
X8250Y4100D02*X8300Y4150D01*
X8150Y4100D02*X8250D01*
X8100Y4150D02*X8150Y4100D01*
X8420D02*X8620D01*
X8790Y4500D02*Y4150D01*
X8840Y4100D01*
X8740Y4350D02*X8840D01*
X8940Y4300D02*X9140Y4100D01*
X8940D02*X9140Y4300D01*
X9260Y4500D02*X9310D01*
X9260D02*Y4100D01*
X9310D01*
X9480D02*X9580D01*
X9530Y4500D02*Y4100D01*
X9430Y4400D02*X9530Y4500D01*
X9700D02*X9900D01*
X9700D02*Y4300D01*
X9750Y4350D01*
X9850D01*
X9900Y4300D01*
Y4150D01*
X9850Y4100D02*X9900Y4150D01*
X9750Y4100D02*X9850D01*
X9700Y4150D02*X9750Y4100D01*
X10020Y4350D02*X10070D01*
X10020Y4250D02*X10070D01*
X10190Y4150D02*X10240Y4100D01*
X10190Y4450D02*Y4150D01*
Y4450D02*X10240Y4500D01*
X10340D01*
X10390Y4450D01*
Y4150D01*
X10340Y4100D02*X10390Y4150D01*
X10240Y4100D02*X10340D01*
X10190Y4200D02*X10390Y4400D01*
X10511Y4500D02*X10561D01*
Y4100D01*
X10511D02*X10561D01*
G04 Text: TX_B *
X18650Y1200D02*X18894D01*
X18772D02*Y712D01*
X19040Y1200D02*Y1139D01*
X19345Y834D01*
Y712D01*
X19040Y834D02*Y712D01*
Y834D02*X19345Y1139D01*
Y1200D02*Y1139D01*
X19492Y712D02*X19736D01*
X19882D02*X20126D01*
X20187Y773D01*
Y895D02*Y773D01*
X20126Y956D02*X20187Y895D01*
X19943Y956D02*X20126D01*
X19943Y1200D02*Y712D01*
X19882Y1200D02*X20126D01*
X20187Y1139D01*
Y1017D01*
X20126Y956D02*X20187Y1017D01*
G04 Text: TX_A *
X24400Y650D02*X24644D01*
X24522D02*Y162D01*
X24790Y650D02*Y589D01*
X25095Y284D01*
Y162D01*
X24790Y284D02*Y162D01*
Y284D02*X25095Y589D01*
Y650D02*Y589D01*
X25242Y162D02*X25486D01*
X25632Y589D02*Y162D01*
Y589D02*X25693Y650D01*
X25876D01*
X25937Y589D01*
Y162D01*
X25632Y406D02*X25937D01*
G04 Text: io_tx[8] *
X2600Y8300D02*Y8250D01*
Y8150D02*Y8000D01*
X2700Y8150D02*Y8050D01*
Y8150D02*X2750Y8200D01*
X2850D01*
X2900Y8150D01*
Y8050D01*
X2850Y8000D02*X2900Y8050D01*
X2750Y8000D02*X2850D01*
X2700Y8050D02*X2750Y8000D01*
X3020D02*X3220D01*
X3390Y8400D02*Y8050D01*
X3440Y8000D01*
X3340Y8250D02*X3440D01*
X3540Y8200D02*X3740Y8000D01*
X3540D02*X3740Y8200D01*
X3860Y8400D02*X3910D01*
X3860D02*Y8000D01*
X3910D01*
X4030Y8050D02*X4080Y8000D01*
X4030Y8150D02*Y8050D01*
Y8150D02*X4080Y8200D01*
X4180D01*
X4230Y8150D01*
Y8050D01*
X4180Y8000D02*X4230Y8050D01*
X4080Y8000D02*X4180D01*
X4030Y8250D02*X4080Y8200D01*
X4030Y8350D02*Y8250D01*
Y8350D02*X4080Y8400D01*
X4180D01*
X4230Y8350D01*
Y8250D01*
X4180Y8200D02*X4230Y8250D01*
X4350Y8400D02*X4400D01*
Y8000D01*
X4350D02*X4400D01*
G04 Text: io_tx[10] *
X2600Y6300D02*Y6250D01*
Y6150D02*Y6000D01*
X2700Y6150D02*Y6050D01*
Y6150D02*X2750Y6200D01*
X2850D01*
X2900Y6150D01*
Y6050D01*
X2850Y6000D02*X2900Y6050D01*
X2750Y6000D02*X2850D01*
X2700Y6050D02*X2750Y6000D01*
X3020D02*X3220D01*
X3390Y6400D02*Y6050D01*
X3440Y6000D01*
X3340Y6250D02*X3440D01*
X3540Y6200D02*X3740Y6000D01*
X3540D02*X3740Y6200D01*
X3860Y6400D02*X3910D01*
X3860D02*Y6000D01*
X3910D01*
X4080D02*X4180D01*
X4130Y6400D02*Y6000D01*
X4030Y6300D02*X4130Y6400D01*
X4300Y6050D02*X4350Y6000D01*
X4300Y6350D02*Y6050D01*
Y6350D02*X4350Y6400D01*
X4450D01*
X4500Y6350D01*
Y6050D01*
X4450Y6000D02*X4500Y6050D01*
X4350Y6000D02*X4450D01*
X4300Y6100D02*X4500Y6300D01*
X4620Y6400D02*X4670D01*
Y6000D01*
X4620D02*X4670D01*
G04 Text: io_tx[11] *
X2600Y5300D02*Y5250D01*
Y5150D02*Y5000D01*
X2700Y5150D02*Y5050D01*
Y5150D02*X2750Y5200D01*
X2850D01*
X2900Y5150D01*
Y5050D01*
X2850Y5000D02*X2900Y5050D01*
X2750Y5000D02*X2850D01*
X2700Y5050D02*X2750Y5000D01*
X3020D02*X3220D01*
X3390Y5400D02*Y5050D01*
X3440Y5000D01*
X3340Y5250D02*X3440D01*
X3540Y5200D02*X3740Y5000D01*
X3540D02*X3740Y5200D01*
X3860Y5400D02*X3910D01*
X3860D02*Y5000D01*
X3910D01*
X4080D02*X4180D01*
X4130Y5400D02*Y5000D01*
X4030Y5300D02*X4130Y5400D01*
X4350Y5000D02*X4450D01*
X4400Y5400D02*Y5000D01*
X4300Y5300D02*X4400Y5400D01*
X4570D02*X4620D01*
Y5000D01*
X4570D02*X4620D01*
G04 Text: io_tx[12] *
X2600Y4300D02*Y4250D01*
Y4150D02*Y4000D01*
X2700Y4150D02*Y4050D01*
Y4150D02*X2750Y4200D01*
X2850D01*
X2900Y4150D01*
Y4050D01*
X2850Y4000D02*X2900Y4050D01*
X2750Y4000D02*X2850D01*
X2700Y4050D02*X2750Y4000D01*
X3020D02*X3220D01*
X3390Y4400D02*Y4050D01*
X3440Y4000D01*
X3340Y4250D02*X3440D01*
X3540Y4200D02*X3740Y4000D01*
X3540D02*X3740Y4200D01*
X3860Y4400D02*X3910D01*
X3860D02*Y4000D01*
X3910D01*
X4080D02*X4180D01*
X4130Y4400D02*Y4000D01*
X4030Y4300D02*X4130Y4400D01*
X4300Y4350D02*X4350Y4400D01*
X4500D01*
X4550Y4350D01*
Y4250D01*
X4300Y4000D02*X4550Y4250D01*
X4300Y4000D02*X4550D01*
X4670Y4400D02*X4720D01*
Y4000D01*
X4670D02*X4720D01*
G04 Text: [13] *
X2600Y3400D02*X2650D01*
X2600D02*Y3000D01*
X2650D01*
X2820D02*X2920D01*
X2870Y3400D02*Y3000D01*
X2770Y3300D02*X2870Y3400D01*
X3040Y3350D02*X3090Y3400D01*
X3190D01*
X3240Y3350D01*
Y3050D01*
X3190Y3000D02*X3240Y3050D01*
X3090Y3000D02*X3190D01*
X3040Y3050D02*X3090Y3000D01*
Y3200D02*X3240D01*
X3360Y3400D02*X3410D01*
Y3000D01*
X3360D02*X3410D01*
G04 Text: [14] *
X2600Y2400D02*X2650D01*
X2600D02*Y2000D01*
X2650D01*
X2820D02*X2920D01*
X2870Y2400D02*Y2000D01*
X2770Y2300D02*X2870Y2400D01*
X3040Y2200D02*X3240Y2400D01*
X3040Y2200D02*X3290D01*
X3240Y2400D02*Y2000D01*
X3410Y2400D02*X3460D01*
Y2000D01*
X3410D02*X3460D01*
G04 Text: [15] *
X2600Y1500D02*X2650D01*
X2600D02*Y1100D01*
X2650D01*
X2820D02*X2920D01*
X2870Y1500D02*Y1100D01*
X2770Y1400D02*X2870Y1500D01*
X3040D02*X3240D01*
X3040D02*Y1300D01*
X3090Y1350D01*
X3190D01*
X3240Y1300D01*
Y1150D01*
X3190Y1100D02*X3240Y1150D01*
X3090Y1100D02*X3190D01*
X3040Y1150D02*X3090Y1100D01*
X3360Y1500D02*X3410D01*
Y1100D01*
X3360D02*X3410D01*
G04 Text: io_tx[9] *
X2600Y7300D02*Y7250D01*
Y7150D02*Y7000D01*
X2700Y7150D02*Y7050D01*
Y7150D02*X2750Y7200D01*
X2850D01*
X2900Y7150D01*
Y7050D01*
X2850Y7000D02*X2900Y7050D01*
X2750Y7000D02*X2850D01*
X2700Y7050D02*X2750Y7000D01*
X3020D02*X3220D01*
X3390Y7400D02*Y7050D01*
X3440Y7000D01*
X3340Y7250D02*X3440D01*
X3540Y7200D02*X3740Y7000D01*
X3540D02*X3740Y7200D01*
X3860Y7400D02*X3910D01*
X3860D02*Y7000D01*
X3910D01*
X4030D02*X4230Y7200D01*
Y7350D02*Y7200D01*
X4180Y7400D02*X4230Y7350D01*
X4080Y7400D02*X4180D01*
X4030Y7350D02*X4080Y7400D01*
X4030Y7350D02*Y7250D01*
X4080Y7200D01*
X4230D01*
X4350Y7400D02*X4400D01*
Y7000D01*
X4350D02*X4400D01*
G04 Text: io_tx[2] *
X2650Y16372D02*Y16333D01*
Y16255D02*Y16138D01*
X2728Y16255D02*Y16177D01*
Y16255D02*X2767Y16294D01*
X2845D01*
X2884Y16255D01*
Y16177D01*
X2845Y16138D02*X2884Y16177D01*
X2767Y16138D02*X2845D01*
X2728Y16177D02*X2767Y16138D01*
X2977D02*X3133D01*
X3266Y16450D02*Y16177D01*
X3305Y16138D01*
X3227Y16333D02*X3305D01*
X3383Y16294D02*X3539Y16138D01*
X3383D02*X3539Y16294D01*
X3633Y16450D02*X3672D01*
X3633D02*Y16138D01*
X3672D01*
X3765Y16411D02*X3804Y16450D01*
X3921D01*
X3960Y16411D01*
Y16333D01*
X3765Y16138D02*X3960Y16333D01*
X3765Y16138D02*X3960D01*
X4054Y16450D02*X4093D01*
Y16138D01*
X4054D02*X4093D01*
G04 Text: 232 *
X12550Y11750D02*X12500Y11800D01*
Y11950D02*Y11800D01*
Y11950D02*X12550Y12000D01*
X12650D01*
X12900Y11750D02*X12650Y12000D01*
X12900D02*Y11750D01*
X12550Y12120D02*X12500Y12170D01*
Y12270D02*Y12170D01*
Y12270D02*X12550Y12320D01*
X12850D01*
X12900Y12270D02*X12850Y12320D01*
X12900Y12270D02*Y12170D01*
X12850Y12120D02*X12900Y12170D01*
X12700Y12320D02*Y12170D01*
X12550Y12440D02*X12500Y12490D01*
Y12640D02*Y12490D01*
Y12640D02*X12550Y12690D01*
X12650D01*
X12900Y12440D02*X12650Y12690D01*
X12900D02*Y12440D01*
G04 Text: io_tx[0] *
X2600Y18322D02*Y18283D01*
Y18205D02*Y18088D01*
X2678Y18205D02*Y18127D01*
Y18205D02*X2717Y18244D01*
X2795D01*
X2834Y18205D01*
Y18127D01*
X2795Y18088D02*X2834Y18127D01*
X2717Y18088D02*X2795D01*
X2678Y18127D02*X2717Y18088D01*
X2927D02*X3083D01*
X3216Y18400D02*Y18127D01*
X3255Y18088D01*
X3177Y18283D02*X3255D01*
X3333Y18244D02*X3489Y18088D01*
X3333D02*X3489Y18244D01*
X3583Y18400D02*X3622D01*
X3583D02*Y18088D01*
X3622D01*
X3715Y18127D02*X3754Y18088D01*
X3715Y18361D02*Y18127D01*
Y18361D02*X3754Y18400D01*
X3832D01*
X3871Y18361D01*
Y18127D01*
X3832Y18088D02*X3871Y18127D01*
X3754Y18088D02*X3832D01*
X3715Y18166D02*X3871Y18322D01*
X3965Y18400D02*X4004D01*
Y18088D01*
X3965D02*X4004D01*
G04 Text: io_tx[4] *
X2650Y14400D02*Y14350D01*
Y14250D02*Y14100D01*
X2750Y14250D02*Y14150D01*
Y14250D02*X2800Y14300D01*
X2900D01*
X2950Y14250D01*
Y14150D01*
X2900Y14100D02*X2950Y14150D01*
X2800Y14100D02*X2900D01*
X2750Y14150D02*X2800Y14100D01*
X3070D02*X3270D01*
X3440Y14500D02*Y14150D01*
X3490Y14100D01*
X3390Y14350D02*X3490D01*
X3590Y14300D02*X3790Y14100D01*
X3590D02*X3790Y14300D01*
X3910Y14500D02*X3960D01*
X3910D02*Y14100D01*
X3960D01*
X4080Y14300D02*X4280Y14500D01*
X4080Y14300D02*X4330D01*
X4280Y14500D02*Y14100D01*
X4450Y14500D02*X4500D01*
Y14100D01*
X4450D02*X4500D01*
G04 Text: io_tx[3] *
X2600Y15400D02*Y15350D01*
Y15250D02*Y15100D01*
X2700Y15250D02*Y15150D01*
Y15250D02*X2750Y15300D01*
X2850D01*
X2900Y15250D01*
Y15150D01*
X2850Y15100D02*X2900Y15150D01*
X2750Y15100D02*X2850D01*
X2700Y15150D02*X2750Y15100D01*
X3020D02*X3220D01*
X3390Y15500D02*Y15150D01*
X3440Y15100D01*
X3340Y15350D02*X3440D01*
X3540Y15300D02*X3740Y15100D01*
X3540D02*X3740Y15300D01*
X3860Y15500D02*X3910D01*
X3860D02*Y15100D01*
X3910D01*
X4030Y15450D02*X4080Y15500D01*
X4180D01*
X4230Y15450D01*
Y15150D01*
X4180Y15100D02*X4230Y15150D01*
X4080Y15100D02*X4180D01*
X4030Y15150D02*X4080Y15100D01*
Y15300D02*X4230D01*
X4350Y15500D02*X4400D01*
Y15100D01*
X4350D02*X4400D01*
G04 Text: io_tx[7] *
X2650Y11450D02*Y11400D01*
Y11300D02*Y11150D01*
X2750Y11300D02*Y11200D01*
Y11300D02*X2800Y11350D01*
X2900D01*
X2950Y11300D01*
Y11200D01*
X2900Y11150D02*X2950Y11200D01*
X2800Y11150D02*X2900D01*
X2750Y11200D02*X2800Y11150D01*
X3070D02*X3270D01*
X3440Y11550D02*Y11200D01*
X3490Y11150D01*
X3390Y11400D02*X3490D01*
X3590Y11350D02*X3790Y11150D01*
X3590D02*X3790Y11350D01*
X3910Y11550D02*X3960D01*
X3910D02*Y11150D01*
X3960D01*
X4080D02*X4330Y11400D01*
Y11550D02*Y11400D01*
X4080Y11550D02*X4330D01*
X4450D02*X4500D01*
Y11150D01*
X4450D02*X4500D01*
G04 Text: io_tx[6] *
X2600Y12400D02*Y12350D01*
Y12250D02*Y12100D01*
X2700Y12250D02*Y12150D01*
Y12250D02*X2750Y12300D01*
X2850D01*
X2900Y12250D01*
Y12150D01*
X2850Y12100D02*X2900Y12150D01*
X2750Y12100D02*X2850D01*
X2700Y12150D02*X2750Y12100D01*
X3020D02*X3220D01*
X3390Y12500D02*Y12150D01*
X3440Y12100D01*
X3340Y12350D02*X3440D01*
X3540Y12300D02*X3740Y12100D01*
X3540D02*X3740Y12300D01*
X3860Y12500D02*X3910D01*
X3860D02*Y12100D01*
X3910D01*
X4180Y12500D02*X4230Y12450D01*
X4080Y12500D02*X4180D01*
X4030Y12450D02*X4080Y12500D01*
X4030Y12450D02*Y12150D01*
X4080Y12100D01*
X4180Y12300D02*X4230Y12250D01*
X4030Y12300D02*X4180D01*
X4080Y12100D02*X4180D01*
X4230Y12150D01*
Y12250D02*Y12150D01*
X4350Y12500D02*X4400D01*
Y12100D01*
X4350D02*X4400D01*
G04 Text: io_tx[5] *
X2600Y13400D02*Y13350D01*
Y13250D02*Y13100D01*
X2700Y13250D02*Y13150D01*
Y13250D02*X2750Y13300D01*
X2850D01*
X2900Y13250D01*
Y13150D01*
X2850Y13100D02*X2900Y13150D01*
X2750Y13100D02*X2850D01*
X2700Y13150D02*X2750Y13100D01*
X3020D02*X3220D01*
X3390Y13500D02*Y13150D01*
X3440Y13100D01*
X3340Y13350D02*X3440D01*
X3540Y13300D02*X3740Y13100D01*
X3540D02*X3740Y13300D01*
X3860Y13500D02*X3910D01*
X3860D02*Y13100D01*
X3910D01*
X4030Y13500D02*X4230D01*
X4030D02*Y13300D01*
X4080Y13350D01*
X4180D01*
X4230Y13300D01*
Y13150D01*
X4180Y13100D02*X4230Y13150D01*
X4080Y13100D02*X4180D01*
X4030Y13150D02*X4080Y13100D01*
X4350Y13500D02*X4400D01*
Y13100D01*
X4350D02*X4400D01*
G04 Text: DGND *
X550Y19050D02*X950D01*
X550Y19200D02*X600Y19250D01*
X900D01*
X950Y19200D02*X900Y19250D01*
X950Y19200D02*Y19000D01*
X550Y19200D02*Y19000D01*
Y19570D02*X600Y19620D01*
X550Y19570D02*Y19420D01*
X600Y19370D02*X550Y19420D01*
X600Y19370D02*X900D01*
X950Y19420D01*
Y19570D02*Y19420D01*
Y19570D02*X900Y19620D01*
X800D02*X900D01*
X750Y19570D02*X800Y19620D01*
X750Y19570D02*Y19470D01*
X550Y19740D02*X950D01*
X550D02*X600D01*
X850Y19990D01*
X550D02*X950D01*
X550Y20160D02*X950D01*
X550Y20310D02*X600Y20360D01*
X900D01*
X950Y20310D02*X900Y20360D01*
X950Y20310D02*Y20110D01*
X550Y20310D02*Y20110D01*
G04 Text: DGND *
X6250Y10550D02*Y10150D01*
X6400Y10550D02*X6450Y10500D01*
Y10200D01*
X6400Y10150D02*X6450Y10200D01*
X6200Y10150D02*X6400D01*
X6200Y10550D02*X6400D01*
X6770D02*X6820Y10500D01*
X6620Y10550D02*X6770D01*
X6570Y10500D02*X6620Y10550D01*
X6570Y10500D02*Y10200D01*
X6620Y10150D01*
X6770D01*
X6820Y10200D01*
Y10300D02*Y10200D01*
X6770Y10350D02*X6820Y10300D01*
X6670Y10350D02*X6770D01*
X6940Y10550D02*Y10150D01*
Y10550D02*Y10500D01*
X7190Y10250D01*
Y10550D02*Y10150D01*
X7360Y10550D02*Y10150D01*
X7510Y10550D02*X7560Y10500D01*
Y10200D01*
X7510Y10150D02*X7560Y10200D01*
X7310Y10150D02*X7510D01*
X7310Y10550D02*X7510D01*
G04 Text: DGND *
X5700Y11300D02*Y10900D01*
X5850Y11300D02*X5900Y11250D01*
Y10950D01*
X5850Y10900D02*X5900Y10950D01*
X5650Y10900D02*X5850D01*
X5650Y11300D02*X5850D01*
X6220D02*X6270Y11250D01*
X6070Y11300D02*X6220D01*
X6020Y11250D02*X6070Y11300D01*
X6020Y11250D02*Y10950D01*
X6070Y10900D01*
X6220D01*
X6270Y10950D01*
Y11050D02*Y10950D01*
X6220Y11100D02*X6270Y11050D01*
X6120Y11100D02*X6220D01*
X6390Y11300D02*Y10900D01*
Y11300D02*Y11250D01*
X6640Y11000D01*
Y11300D02*Y10900D01*
X6810Y11300D02*Y10900D01*
X6960Y11300D02*X7010Y11250D01*
Y10950D01*
X6960Y10900D02*X7010Y10950D01*
X6760Y10900D02*X6960D01*
X6760Y11300D02*X6960D01*
G04 Text: DGND *
X550Y8900D02*X950D01*
X550Y9050D02*X600Y9100D01*
X900D01*
X950Y9050D02*X900Y9100D01*
X950Y9050D02*Y8850D01*
X550Y9050D02*Y8850D01*
Y9420D02*X600Y9470D01*
X550Y9420D02*Y9270D01*
X600Y9220D02*X550Y9270D01*
X600Y9220D02*X900D01*
X950Y9270D01*
Y9420D02*Y9270D01*
Y9420D02*X900Y9470D01*
X800D02*X900D01*
X750Y9420D02*X800Y9470D01*
X750Y9420D02*Y9320D01*
X550Y9590D02*X950D01*
X550D02*X600D01*
X850Y9840D01*
X550D02*X950D01*
X550Y10010D02*X950D01*
X550Y10160D02*X600Y10210D01*
X900D01*
X950Y10160D02*X900Y10210D01*
X950Y10160D02*Y9960D01*
X550Y10160D02*Y9960D01*
G04 Text: SILK *
X3200Y23000D02*X3250Y22950D01*
X3050Y23000D02*X3200D01*
X3000Y22950D02*X3050Y23000D01*
X3000Y22950D02*Y22850D01*
X3050Y22800D01*
X3200D01*
X3250Y22750D01*
Y22650D01*
X3200Y22600D02*X3250Y22650D01*
X3050Y22600D02*X3200D01*
X3000Y22650D02*X3050Y22600D01*
X3370Y23000D02*X3470D01*
X3420D02*Y22600D01*
X3370D02*X3470D01*
X3590Y23000D02*Y22600D01*
X3790D01*
X3910Y23000D02*Y22600D01*
Y22800D02*X4110Y23000D01*
X3910Y22800D02*X4110Y22600D01*
%LNCUTS*%
%LPC*%
G54D31*X13600Y15400D03*
Y16400D03*
G54D26*X16650Y6750D02*X17300D01*
X18700Y6250D02*X19350D01*
X18700Y6750D02*X19350D01*
X22200Y6650D02*X22850D01*
X24250Y6150D02*X24900D01*
X24250Y6650D02*X24900D01*
G54D14*X19860Y6340D02*Y6160D01*
G54D36*X10410Y19300D02*X10690D01*
G54D26*X10410Y18800D02*X10690D01*
X10410Y18300D02*X10690D01*
X10410Y17800D02*X10690D01*
X12450D02*X12730D01*
X12450Y18300D02*X12730D01*
X12450Y18800D02*X12730D01*
X12450Y19300D02*X12730D01*
M02*
