G04 Title: TX Daughterboard, solder paste, component side *
G04 Creator: pcb-bin 1.99q *
G04 CreationDate: Fri Feb 10 03:52:58 2006 UTC *
G04 For: matt *
G04 Format: Gerber/RS-274X *
G04 PCB-Dimensions: 275000 250000 *
G04 PCB-Coordinate-Origin: lower left *
%MOIN*%
%FSLAX24Y24*%
%IPPOS*%
%ADD11C,0.0250*%
%ADD12C,0.0080*%
%ADD13C,0.0100*%
%ADD14R,0.0240X0.0240*%
%ADD15R,0.0440X0.0440*%
%ADD16R,0.0300X0.0300*%
%ADD17C,0.0060*%
%ADD18R,0.0540X0.0540*%
%ADD19R,0.0480X0.0480*%
%ADD20R,0.0680X0.0680*%
%ADD21C,0.0720*%
%ADD22C,0.0920X0.0720*%
%ADD23C,0.0920*%
%ADD24C,0.0240*%
%ADD25C,0.0340*%
%ADD26R,0.0200X0.0200*%
%ADD27R,0.0600X0.0600*%
%ADD28R,0.0660X0.0660*%
%ADD29R,0.0900X0.0900X0.0600X0.0600*%
%ADD30R,0.0900X0.0900*%
%ADD31C,0.0600*%
%ADD32C,0.0660*%
%AMTHERM1*7,0,0,0.0900,0.0600,0.0100,45*%
%ADD33THERM1*%
%ADD34C,0.0900X0.0600*%
%ADD35C,0.0900*%
%ADD36C,0.0200*%
%ADD37C,0.1200X0.0900*%
%ADD38C,0.1200*%
%ADD39C,0.0150*%
%AMTHERM2*7,0,0,0.1200,0.0900,0.0150,45*%
%ADD40THERM2*%
%ADD41C,0.0500*%
%ADD42R,0.0500X0.0500*%
%ADD43C,0.1320*%
%ADD44C,0.1520*%
%ADD45C,0.1520X0.1320*%
%ADD46C,0.0400*%
%ADD47C,0.0600X0.0400*%
%AMTHERM3*7,0,0,0.0600,0.0400,0.0100,45*%
%ADD48THERM3*%
%ADD49C,0.0800*%
%ADD50C,0.0800X0.0600*%
%ADD51C,0.0125*%
%AMTHERM4*7,0,0,0.0800,0.0600,0.0125,45*%
%ADD52THERM4*%
%ADD53C,0.0160*%
%AMTHERM5*7,0,0,0.0800,0.0600,0.0160,45*%
%ADD54THERM5*%
%ADD55C,0.0360*%
%ADD56C,0.0560*%
%ADD57C,0.0560X0.0360*%
%LNGROUP_3*%
%LPD*%
G01X0Y0D02*
G54D14*X19010Y2360D02*X19190D01*
X19010Y2840D02*X19190D01*
X24610Y2760D02*X24790D01*
X24610Y3240D02*X24790D01*
X17910Y4140D02*Y3960D01*
X18390Y4140D02*Y3960D01*
X23160Y4090D02*Y3910D01*
X23640Y4090D02*Y3910D01*
X19660Y2940D02*Y2760D01*
X20140Y2940D02*Y2760D01*
X25360Y3840D02*Y3660D01*
X25840Y3840D02*Y3660D01*
G54D19*X6020Y19730D02*X6380D01*
X6020Y18770D02*X6380D01*
G54D14*X5910Y20590D02*Y20410D01*
X6390Y20590D02*Y20410D01*
X22040Y4390D02*Y4210D01*
X21560Y4390D02*Y4210D01*
X16090Y5090D02*Y4910D01*
X15610Y5090D02*Y4910D01*
X10310Y21840D02*X10490D01*
X10310Y21360D02*X10490D01*
X12110Y22040D02*X12290D01*
X12110Y21560D02*X12290D01*
G54D26*X16650Y6750D02*X17300D01*
X16650Y6250D02*X17300D01*
X16650Y5750D02*X17300D01*
X16650Y5250D02*X17300D01*
X18700D02*X19350D01*
X18700Y5750D02*X19350D01*
X18700Y6250D02*X19350D01*
X18700Y6750D02*X19350D01*
X22200Y6650D02*X22850D01*
X22200Y6150D02*X22850D01*
X22200Y5650D02*X22850D01*
X22200Y5150D02*X22850D01*
X24250D02*X24900D01*
X24250Y5650D02*X24900D01*
X24250Y6150D02*X24900D01*
X24250Y6650D02*X24900D01*
G54D19*X9320Y22030D02*X9680D01*
X9320Y21070D02*X9680D01*
X8280Y23530D02*Y23170D01*
X7320Y23530D02*Y23170D01*
G54D14*X26190Y6190D02*Y6010D01*
X25710Y6190D02*Y6010D01*
X14710Y21990D02*Y21810D01*
X15190Y21990D02*Y21810D01*
X20340Y6340D02*Y6160D01*
X19860Y6340D02*Y6160D01*
G54D19*X14270Y23230D02*Y22870D01*
X15230Y23230D02*Y22870D01*
G54D14*X14710Y21290D02*Y21110D01*
X15190Y21290D02*Y21110D01*
X7890Y20440D02*Y20260D01*
X7410Y20440D02*Y20260D01*
G54D19*X11120Y21620D02*X11480D01*
X11120Y22580D02*X11480D01*
G54D14*X6010Y21390D02*Y21210D01*
X6490Y21390D02*Y21210D01*
X7890Y24440D02*Y24260D01*
X7410Y24440D02*Y24260D01*
X18390Y4790D02*Y4610D01*
X17910Y4790D02*Y4610D01*
X23640Y4690D02*Y4510D01*
X23160Y4690D02*Y4510D01*
X7890Y19690D02*Y19510D01*
X7410Y19690D02*Y19510D01*
X19010Y3310D02*X19190D01*
X19010Y3790D02*X19190D01*
X7410Y21140D02*Y20960D01*
X7890Y21140D02*Y20960D01*
X7115Y22470D02*X7355D01*
X7115Y22100D02*X7355D01*
X7115Y21730D02*X7355D01*
X8145D02*X8385D01*
X8145Y22100D02*X8385D01*
X8145Y22470D02*X8385D01*
X24610Y3760D02*X24790D01*
X24610Y4240D02*X24790D01*
X21490Y5390D02*Y5210D01*
X21010Y5390D02*Y5210D01*
X16090Y5840D02*Y5660D01*
X15610Y5840D02*Y5660D01*
G54D19*X12920Y21780D02*Y21420D01*
X13880Y21780D02*Y21420D01*
G54D14*X13940Y18890D02*Y18710D01*
X13460Y18890D02*Y18710D01*
G54D36*X10410Y19300D02*X10690D01*
G54D26*X10410Y18800D02*X10690D01*
X10410Y18300D02*X10690D01*
X10410Y17800D02*X10690D01*
X12450D02*X12730D01*
X12450Y18300D02*X12730D01*
X12450Y18800D02*X12730D01*
X12450Y19300D02*X12730D01*
M02*
