G04 Title: TX Daughterboard, layergroup #2 *
G04 Creator: pcb-bin 1.99q *
G04 CreationDate: Fri Feb 10 03:52:58 2006 UTC *
G04 For: matt *
G04 Format: Gerber/RS-274X *
G04 PCB-Dimensions: 275000 250000 *
G04 PCB-Coordinate-Origin: lower left *
%MOIN*%
%FSLAX24Y24*%
G04 contains layers component (3) *
%IPPOS*%
%ADD11C,0.0250*%
%ADD12C,0.0080*%
%ADD13C,0.0100*%
%ADD14R,0.0240X0.0240*%
%ADD15R,0.0440X0.0440*%
%ADD16R,0.0300X0.0300*%
%ADD17C,0.0060*%
%ADD18R,0.0540X0.0540*%
%ADD19R,0.0480X0.0480*%
%ADD20R,0.0680X0.0680*%
%ADD21C,0.0720*%
%ADD22C,0.0920X0.0720*%
%ADD23C,0.0920*%
%ADD24C,0.0240*%
%ADD25C,0.0340*%
%ADD26R,0.0200X0.0200*%
%ADD27R,0.0600X0.0600*%
%ADD28R,0.0660X0.0660*%
%ADD29R,0.0900X0.0900X0.0600X0.0600*%
%ADD30R,0.0900X0.0900*%
%ADD31C,0.0600*%
%ADD32C,0.0660*%
%AMTHERM1*7,0,0,0.0900,0.0600,0.0100,45*%
%ADD33THERM1*%
%ADD34C,0.0900X0.0600*%
%ADD35C,0.0900*%
%ADD36C,0.0200*%
%ADD37C,0.1200X0.0900*%
%ADD38C,0.1200*%
%ADD39C,0.0150*%
%AMTHERM2*7,0,0,0.1200,0.0900,0.0150,45*%
%ADD40THERM2*%
%ADD41C,0.0500*%
%ADD42R,0.0500X0.0500*%
%ADD43C,0.1320*%
%ADD44C,0.1520*%
%ADD45C,0.1520X0.1320*%
%ADD46C,0.0400*%
%ADD47C,0.0600X0.0400*%
%AMTHERM3*7,0,0,0.0600,0.0400,0.0100,45*%
%ADD48THERM3*%
%ADD49C,0.0800*%
%ADD50C,0.0800X0.0600*%
%ADD51C,0.0125*%
%AMTHERM4*7,0,0,0.0800,0.0600,0.0125,45*%
%ADD52THERM4*%
%ADD53C,0.0160*%
%AMTHERM5*7,0,0,0.0800,0.0600,0.0160,45*%
%ADD54THERM5*%
%ADD55C,0.0360*%
%ADD56C,0.0560*%
%ADD57C,0.0560X0.0360*%
%LNGROUP_1*%
%LPD*%
G01X0Y0D02*
G54D13*X24610Y4240D02*X23750Y5100D01*
X23650Y5050D02*Y4650D01*
X24250Y5650D02*X23650Y5050D01*
X23600Y4650D02*Y3950D01*
X23640Y4690D02*X23600Y4650D01*
X23160Y5840D02*Y4000D01*
X22850Y6150D02*X23160Y5840D01*
X24610Y3240D02*X24700Y3330D01*
X23790Y1850D02*X24700Y2760D01*
X22600Y1850D02*X23790D01*
X18390Y4610D02*X18400Y4600D01*
X20140Y2940D02*X21650Y2850D01*
X17910Y4610D02*X17900Y4600D01*
X19050Y2850D02*Y3300D01*
X19570Y2850D02*X19050D01*
X19660Y2940D02*X19570Y2850D01*
X18500Y2350D02*X19050D01*
X18200Y2050D02*X18500Y2350D01*
X16900Y2050D02*X18200D01*
G54D11*X22040Y4390D02*X22450Y3880D01*
X23500Y6300D02*Y7100D01*
X23550Y6250D02*X23500Y6300D01*
X24150Y6250D02*X23550D01*
X24250Y6150D02*X24150Y6250D01*
X25710Y6190D02*X25600Y6300D01*
X13750Y23390D02*Y24250D01*
X14270Y22870D02*X13750Y23390D01*
X16950Y4900D02*Y4300D01*
X17300Y5250D02*X16950Y4900D01*
X14750Y21070D02*Y20100D01*
X14710Y21110D02*X14750Y21070D01*
G54D12*X17750Y5750D02*X17300D01*
X18000Y4800D02*X17950Y4650D01*
X18050Y4850D02*X18000Y4650D01*
X18050Y6350D02*Y4850D01*
X18000Y6400D02*X18050Y6350D01*
X20950Y5900D02*X21450Y5400D01*
G54D13*X21530Y5350D02*X22500Y5650D01*
X20450Y5600D02*X20950Y5300D01*
X20300Y5450D02*X20450Y5600D01*
X15600Y5200D02*Y5800D01*
X15550Y5150D02*X15600Y5200D01*
X15550Y4500D02*Y5150D01*
X15400Y4350D02*X15550Y4500D01*
X26190Y6010D02*X25950Y5770D01*
X22900Y6150D02*X22750D01*
X25360Y3840D02*X25320Y3800D01*
X25900Y3720D02*Y5300D01*
X22050Y5000D02*Y4350D01*
X22200Y5150D02*X22050Y5000D01*
X21550Y4200D02*Y2900D01*
X21560Y4210D02*X21550Y4200D01*
X24700Y3330D02*Y3750D01*
X18400Y4600D02*Y4100D01*
X25320Y3800D02*X24750D01*
X25840Y3660D02*X25900Y3720D01*
G54D11*X18700Y6250D02*X17950Y7000D01*
G54D13*X17900Y4600D02*Y4100D01*
X24900Y6150D02*X25700D01*
X20300Y6120D02*Y5450D01*
X20340Y6160D02*X20300Y6120D01*
G54D11*X17950Y7000D02*Y8250D01*
X22450Y3880D02*X22550Y3850D01*
G54D13*X18950D02*Y3800D01*
X18300Y4650D02*X18950Y3850D01*
X18300Y5350D02*Y4650D01*
X18700Y5750D02*X18300Y5350D01*
G54D12*X21600Y5850D02*X21850Y6100D01*
X18000Y6400D02*X17850Y6250D01*
X17200D01*
X21850Y6100D02*X22300D01*
G54D13*X19350Y6250D02*X19800D01*
X25950Y5770D02*Y5300D01*
X16450Y5050D02*X16050D01*
X16650Y5250D02*X16450Y5050D01*
X16650Y5750D02*X16050D01*
X7850Y22800D02*X8200Y23150D01*
X23750Y5100D02*X23700D01*
X6430Y20450D02*X6900D01*
X6390Y20410D02*X6430Y20450D01*
G54D11*X15400Y21500D02*X15850D01*
X15190Y21290D02*X15400Y21500D01*
X15200Y23260D02*Y24050D01*
X15230Y23230D02*X15200Y23260D01*
X15250Y22000D02*Y23050D01*
X15150Y21900D02*X15250Y22000D01*
X15150Y21330D02*Y21900D01*
X15190Y21290D02*X15150Y21330D01*
X14250Y22150D02*Y22900D01*
X13880Y21780D02*X14250Y22150D01*
X14650Y21900D02*Y21250D01*
X14000Y21900D02*X14650D01*
X13880Y21780D02*X14000Y21900D01*
X7250Y21250D02*Y21750D01*
X7450Y21050D02*X7250Y21250D01*
X7450Y20500D02*Y21050D01*
X7400Y20450D02*X7450Y20500D01*
X7400Y19700D02*Y20450D01*
X7410Y19690D02*X7400Y19700D01*
X11600Y21550D02*X12900D01*
X11500Y21650D02*X11600Y21550D01*
X11200Y21350D02*X11500Y21650D01*
X9960Y21350D02*X11200D01*
X9680Y21070D02*X9960Y21350D01*
X10400Y21930D02*Y22650D01*
X10310Y21840D02*X10400Y21930D01*
X11450Y22910D02*Y23400D01*
X11120Y22580D02*X11450Y22910D01*
X12500Y22430D02*Y22750D01*
X12110Y22040D02*X12500Y22430D01*
X9680Y21070D02*X9710Y21100D01*
X8500Y21050D02*X9600D01*
X7900Y20450D02*X8500Y21050D01*
X7900Y19700D02*Y20450D01*
X7890Y19690D02*X7900Y19700D01*
Y21245D02*Y21100D01*
X8385Y21730D02*X7900Y21245D01*
X8530Y22100D02*X8900Y22469D01*
X8385Y22100D02*X8530D01*
X9300Y22050D02*X9350D01*
X8850Y22500D02*X9300Y22050D01*
X8850Y23715D02*Y22500D01*
X8125Y24440D02*X8850Y23715D01*
X7890Y24440D02*X8125D01*
X8150Y23040D02*Y22450D01*
X8280Y23170D02*X8150Y23040D01*
X7235Y23135D02*Y22470D01*
X7350Y23250D02*X7235Y23135D01*
X7350Y24200D02*Y23250D01*
X7410Y24260D02*X7350Y24200D01*
X7115Y22100D02*X6500D01*
X5870Y21350D02*X5350D01*
X6010Y21210D02*X5870Y21350D01*
X5720Y20350D02*X5400Y20500D01*
X5910Y20590D02*X5720Y20350D01*
X6500Y20650D02*Y21350D01*
X6400Y20550D02*X6500Y20650D01*
X6400Y19750D02*Y20550D01*
X6380Y19730D02*X6400Y19750D01*
X6200Y17750D02*Y18750D01*
X6250Y17700D02*X6200Y17750D01*
G54D13*X9100Y15900D02*X8600Y15400D01*
X7700Y3100D02*X4600D01*
X3100Y5000D02*X1900Y6200D01*
X3800Y3900D02*Y5500D01*
X2100Y7200D02*X1900D01*
X9100Y17800D02*Y15900D01*
X14000Y18800D02*X14800D01*
X5000Y3900D02*X4000Y4900D01*
X12000Y19900D02*X12500Y19300D01*
X4000Y6800D02*X2600Y8200D01*
X10600Y19300D03*
X11100Y19400D02*X10600Y19300D01*
X10700Y18800D02*X10600D01*
X11200D02*X10700D01*
X11200Y18200D02*Y18800D01*
Y17300D02*Y18200D01*
X10700Y16400D02*X11200Y17300D01*
X13000Y18300D02*X12700D01*
X13000Y17600D02*Y18300D01*
X12100Y16700D02*X13000Y17600D01*
X12100Y16000D02*Y16700D01*
X11600Y15500D02*X12100Y16000D01*
X11600Y15400D02*Y15500D01*
Y17200D02*X12700Y17800D01*
X11600Y16400D02*Y17200D01*
X12600Y18800D02*X13400D01*
X10400Y17200D02*X10500Y17800D01*
X2600Y8200D02*X1900D01*
X9000Y3000D02*X8100Y3900D01*
X10600Y14000D02*Y15400D01*
X11800Y12800D02*X10600Y14000D01*
X13200Y12800D02*X11800D01*
X13400Y12600D02*X13200Y12800D01*
X11100Y16100D02*X10700Y16500D01*
X11100Y14300D02*Y16100D01*
X11900Y13500D02*X11100Y14300D01*
X12700Y13500D02*X11900D01*
X13000Y13200D02*X12700Y13500D01*
X15600Y14300D02*X14600Y13300D01*
X15600Y15400D02*Y14300D01*
X14300Y14700D02*X14900D01*
X13600Y15400D02*X14300Y14700D01*
X3100Y2700D02*Y5000D01*
X8500Y1300D02*X8000Y1800D01*
X3800Y5500D02*X2100Y7200D01*
X4600Y3100D02*X3800Y3900D01*
X10500Y18300D02*X10000Y18700D01*
X9600Y16400D02*X10400Y17200D01*
X10000Y18700D02*X9100Y17800D01*
X1800Y17300D02*X1900D01*
X12600Y15400D02*X13900Y14100D01*
X8000Y1800D02*X4000D01*
X9000D02*Y3000D01*
X8500Y2300D02*X7700Y3100D01*
X8100Y3900D02*X5000D01*
X13900Y12400D02*X13200Y11700D01*
X9500Y1300D02*X9000Y1800D01*
X10000Y18700D02*Y19900D01*
X13900Y14100D02*Y12400D01*
X8600Y15400D02*X8550D01*
X4000Y1800D02*X3100Y2700D01*
X4000Y4900D02*Y6800D01*
X10000Y19900D02*X10200D01*
X12000D01*
X20400Y15900D02*X20900Y16400D01*
X20400Y14600D02*Y15900D01*
X19700Y13900D02*X20400Y14600D01*
X19700Y13600D02*Y13900D01*
X21400Y15900D02*X21900Y16400D01*
X21400Y14200D02*Y15900D01*
X20100Y12900D02*X21400Y14200D01*
X17900Y15400D02*X18900Y16400D01*
X17900Y13900D02*Y15400D01*
X18900Y12900D02*X17900Y13900D01*
G04 Text: COMP *
G54D12*X3200Y23100D02*X3350D01*
X3150Y23150D02*X3200Y23100D01*
X3150Y23450D02*Y23150D01*
Y23450D02*X3200Y23500D01*
X3350D01*
X3470Y23450D02*Y23150D01*
Y23450D02*X3520Y23500D01*
X3620D01*
X3670Y23450D01*
Y23150D01*
X3620Y23100D02*X3670Y23150D01*
X3520Y23100D02*X3620D01*
X3470Y23150D02*X3520Y23100D01*
X3790Y23500D02*Y23100D01*
Y23500D02*X3940Y23350D01*
X4090Y23500D01*
Y23100D01*
X4260Y23500D02*Y23100D01*
X4210Y23500D02*X4410D01*
X4460Y23450D01*
Y23350D01*
X4410Y23300D02*X4460Y23350D01*
X4260Y23300D02*X4410D01*
G54D27*X1900Y1200D03*
G54D31*X900D03*
X1900Y2200D03*
X900D03*
X1900Y3200D03*
X900D03*
X1900Y4200D03*
X900D03*
X1900Y5200D03*
X900D03*
X1900Y6200D03*
X900D03*
X1900Y7200D03*
X900D03*
X1900Y8200D03*
X900D03*
G54D27*X4500Y1300D03*
G54D31*Y2300D03*
X5500Y1300D03*
Y2300D03*
X6500Y1300D03*
Y2300D03*
X7500Y1300D03*
Y2300D03*
X8500Y1300D03*
Y2300D03*
X9500Y1300D03*
Y2300D03*
X10500Y1300D03*
Y2300D03*
X11500Y1300D03*
Y2300D03*
X12500Y1300D03*
Y2300D03*
X13500Y1300D03*
Y2300D03*
G54D27*X18900Y15400D03*
G54D31*Y16400D03*
X19900Y15400D03*
Y16400D03*
X20900Y15400D03*
Y16400D03*
X21900Y15400D03*
Y16400D03*
X22900Y15400D03*
Y16400D03*
G54D35*X22600Y1850D03*
X21600Y850D03*
Y2850D03*
X23600Y850D03*
Y2850D03*
G54D27*X8600Y15400D03*
G54D31*Y16400D03*
X9600Y15400D03*
Y16400D03*
X10600Y15400D03*
Y16400D03*
X11600Y15400D03*
Y16400D03*
X12600Y15400D03*
Y16400D03*
X13600Y15400D03*
Y16400D03*
X14600Y15400D03*
Y16400D03*
X15600Y15400D03*
Y16400D03*
G54D35*X16900Y2050D03*
X15900Y1050D03*
Y3050D03*
X17900Y1050D03*
Y3050D03*
G54D27*X1900Y11300D03*
G54D31*X900D03*
X1900Y12300D03*
X900D03*
X1900Y13300D03*
X900D03*
X1900Y14300D03*
X900D03*
X1900Y15300D03*
X900D03*
X1900Y16300D03*
X900D03*
X1900Y17300D03*
X900D03*
X1900Y18300D03*
X900D03*
G54D46*X11100Y19400D03*
X16600Y11900D03*
X18900Y12900D03*
X20100D03*
X19700Y13600D03*
X14900Y14700D03*
X14600Y13300D03*
X13000Y13200D03*
X13400Y12600D03*
X10800Y12400D03*
X9000Y9300D03*
X18400Y12400D03*
X17400D03*
X14800Y18800D03*
X9000Y11100D03*
G54D31*X6250Y17700D03*
X5300Y20350D03*
X5350Y21350D03*
X6300Y22100D03*
X10300Y22650D03*
X11450Y23500D03*
X12450Y22850D03*
X15200Y24050D03*
X15900Y21500D03*
G54D46*X6900Y20450D03*
X7750Y22700D03*
X21700Y12300D03*
G54D31*X25950Y5300D03*
X15400Y4350D03*
X20300Y5450D03*
G54D55*X20950Y5900D03*
X21600Y5850D03*
X18000Y6400D03*
X17750Y5750D03*
G54D31*X14750Y20100D03*
X16950Y4350D03*
X13750Y24250D03*
X18000Y8250D03*
X23500Y7100D03*
X22550Y3800D03*
G54D14*X19010Y2360D02*X19190D01*
X19010Y2840D02*X19190D01*
X24610Y2760D02*X24790D01*
X24610Y3240D02*X24790D01*
X17910Y4140D02*Y3960D01*
X18390Y4140D02*Y3960D01*
X23160Y4090D02*Y3910D01*
X23640Y4090D02*Y3910D01*
X19660Y2940D02*Y2760D01*
X20140Y2940D02*Y2760D01*
X25360Y3840D02*Y3660D01*
X25840Y3840D02*Y3660D01*
G54D19*X6020Y19730D02*X6380D01*
X6020Y18770D02*X6380D01*
G54D14*X5910Y20590D02*Y20410D01*
X6390Y20590D02*Y20410D01*
X22040Y4390D02*Y4210D01*
X21560Y4390D02*Y4210D01*
X16090Y5090D02*Y4910D01*
X15610Y5090D02*Y4910D01*
X10310Y21840D02*X10490D01*
X10310Y21360D02*X10490D01*
X12110Y22040D02*X12290D01*
X12110Y21560D02*X12290D01*
G54D26*X16650Y6750D02*X17300D01*
X16650Y6250D02*X17300D01*
X16650Y5750D02*X17300D01*
X16650Y5250D02*X17300D01*
X18700D02*X19350D01*
X18700Y5750D02*X19350D01*
X18700Y6250D02*X19350D01*
X18700Y6750D02*X19350D01*
X22200Y6650D02*X22850D01*
X22200Y6150D02*X22850D01*
X22200Y5650D02*X22850D01*
X22200Y5150D02*X22850D01*
X24250D02*X24900D01*
X24250Y5650D02*X24900D01*
X24250Y6150D02*X24900D01*
X24250Y6650D02*X24900D01*
G54D19*X9320Y22030D02*X9680D01*
X9320Y21070D02*X9680D01*
X8280Y23530D02*Y23170D01*
X7320Y23530D02*Y23170D01*
G54D14*X26190Y6190D02*Y6010D01*
X25710Y6190D02*Y6010D01*
X14710Y21990D02*Y21810D01*
X15190Y21990D02*Y21810D01*
X20340Y6340D02*Y6160D01*
X19860Y6340D02*Y6160D01*
G54D19*X14270Y23230D02*Y22870D01*
X15230Y23230D02*Y22870D01*
G54D14*X14710Y21290D02*Y21110D01*
X15190Y21290D02*Y21110D01*
X7890Y20440D02*Y20260D01*
X7410Y20440D02*Y20260D01*
G54D19*X11120Y21620D02*X11480D01*
X11120Y22580D02*X11480D01*
G54D14*X6010Y21390D02*Y21210D01*
X6490Y21390D02*Y21210D01*
X7890Y24440D02*Y24260D01*
X7410Y24440D02*Y24260D01*
X18390Y4790D02*Y4610D01*
X17910Y4790D02*Y4610D01*
X23640Y4690D02*Y4510D01*
X23160Y4690D02*Y4510D01*
X7890Y19690D02*Y19510D01*
X7410Y19690D02*Y19510D01*
X19010Y3310D02*X19190D01*
X19010Y3790D02*X19190D01*
X7410Y21140D02*Y20960D01*
X7890Y21140D02*Y20960D01*
X7115Y22470D02*X7355D01*
X7115Y22100D02*X7355D01*
X7115Y21730D02*X7355D01*
X8145D02*X8385D01*
X8145Y22100D02*X8385D01*
X8145Y22470D02*X8385D01*
X24610Y3760D02*X24790D01*
X24610Y4240D02*X24790D01*
X21490Y5390D02*Y5210D01*
X21010Y5390D02*Y5210D01*
X16090Y5840D02*Y5660D01*
X15610Y5840D02*Y5660D01*
G54D19*X12920Y21780D02*Y21420D01*
X13880Y21780D02*Y21420D01*
G54D14*X13940Y18890D02*Y18710D01*
X13460Y18890D02*Y18710D01*
G54D36*X10410Y19300D02*X10690D01*
G54D26*X10410Y18800D02*X10690D01*
X10410Y18300D02*X10690D01*
X10410Y17800D02*X10690D01*
X12450D02*X12730D01*
X12450Y18300D02*X12730D01*
X12450Y18800D02*X12730D01*
X12450Y19300D02*X12730D01*
M02*
