G04 Title: TX Daughterboard, Fabrication Drawing *
G04 Creator: pcb-bin 1.99q *
G04 CreationDate: Fri Feb 10 03:52:58 2006 UTC *
G04 For: matt *
G04 Format: Gerber/RS-274X *
G04 PCB-Dimensions: 275000 250000 *
G04 PCB-Coordinate-Origin: lower left *
%MOIN*%
%FSLAX24Y24*%
%IPPOS*%
%ADD11C,0.0250*%
%ADD12C,0.0080*%
%ADD13C,0.0100*%
%ADD14R,0.0240X0.0240*%
%ADD15R,0.0440X0.0440*%
%ADD16R,0.0300X0.0300*%
%ADD17C,0.0060*%
%ADD18R,0.0540X0.0540*%
%ADD19R,0.0480X0.0480*%
%ADD20R,0.0680X0.0680*%
%ADD21C,0.0720*%
%ADD22C,0.0920X0.0720*%
%ADD23C,0.0920*%
%ADD24C,0.0240*%
%ADD25C,0.0340*%
%ADD26R,0.0200X0.0200*%
%ADD27R,0.0600X0.0600*%
%ADD28R,0.0660X0.0660*%
%ADD29R,0.0900X0.0900X0.0600X0.0600*%
%ADD30R,0.0900X0.0900*%
%ADD31C,0.0600*%
%ADD32C,0.0660*%
%AMTHERM1*7,0,0,0.0900,0.0600,0.0100,45*%
%ADD33THERM1*%
%ADD34C,0.0900X0.0600*%
%ADD35C,0.0900*%
%ADD36C,0.0200*%
%ADD37C,0.1200X0.0900*%
%ADD38C,0.1200*%
%ADD39C,0.0150*%
%AMTHERM2*7,0,0,0.1200,0.0900,0.0150,45*%
%ADD40THERM2*%
%ADD41C,0.0500*%
%ADD42R,0.0500X0.0500*%
%ADD43C,0.1320*%
%ADD44C,0.1520*%
%ADD45C,0.1520X0.1320*%
%ADD46C,0.0400*%
%ADD47C,0.0600X0.0400*%
%AMTHERM3*7,0,0,0.0600,0.0400,0.0100,45*%
%ADD48THERM3*%
%ADD49C,0.0800*%
%ADD50C,0.0800X0.0600*%
%ADD51C,0.0125*%
%AMTHERM4*7,0,0,0.0800,0.0600,0.0125,45*%
%ADD52THERM4*%
%ADD53C,0.0160*%
%AMTHERM5*7,0,0,0.0800,0.0600,0.0160,45*%
%ADD54THERM5*%
%ADD55C,0.0360*%
%ADD56C,0.0560*%
%ADD57C,0.0560X0.0360*%
%LNGROUP_3*%
%LPD*%
G01X0Y0D02*
G54D12*X1500Y23820D02*Y23180D01*
X1180Y23500D02*X1820D01*
X1340Y23660D02*X1660D01*
X1340D02*Y23340D01*
X1660D01*
Y23660D02*Y23340D01*
X26000Y23820D02*Y23180D01*
X25680Y23500D02*X26320D01*
X25840Y23660D02*X26160D01*
X25840D02*Y23340D01*
X26160D01*
Y23660D02*Y23340D01*
X26000Y1820D02*Y1180D01*
X25680Y1500D02*X26320D01*
X25840Y1660D02*X26160D01*
X25840D02*Y1340D01*
X26160D01*
Y1660D02*Y1340D01*
X5500Y5820D02*Y5180D01*
X5180Y5500D02*X5820D01*
X5340Y5660D02*X5660D01*
X5340D02*Y5340D01*
X5660D01*
Y5660D02*Y5340D01*
X1500Y26445D02*Y25805D01*
X1180Y26125D02*X1820D01*
X1340Y26285D02*X1660D01*
X1340D02*Y25965D01*
X1660D01*
Y26285D02*Y25965D01*
G04 Text: NO *
X14000Y26500D02*Y25900D01*
Y26500D02*Y26425D01*
X14375Y26050D01*
Y26500D02*Y25900D01*
X14555Y26425D02*Y25975D01*
Y26425D02*X14630Y26500D01*
X14780D01*
X14855Y26425D01*
Y25975D01*
X14780Y25900D02*X14855Y25975D01*
X14630Y25900D02*X14780D01*
X14555Y25975D02*X14630Y25900D01*
X14000Y25574D02*X15035D01*
G04 Text: 4 *
X9800Y26200D02*X10100Y26500D01*
X9800Y26200D02*X10175D01*
X10100Y26500D02*Y25900D01*
X9800Y25574D02*X10355D01*
G04 Text: 0.128 *
X4500Y25975D02*X4575Y25900D01*
X4500Y26425D02*Y25975D01*
Y26425D02*X4575Y26500D01*
X4725D01*
X4800Y26425D01*
Y25975D01*
X4725Y25900D02*X4800Y25975D01*
X4575Y25900D02*X4725D01*
X4500Y26050D02*X4800Y26350D01*
X4980Y25900D02*X5055D01*
X5310D02*X5460D01*
X5385Y26500D02*Y25900D01*
X5235Y26350D02*X5385Y26500D01*
X5640Y26425D02*X5715Y26500D01*
X5940D01*
X6015Y26425D01*
Y26275D01*
X5640Y25900D02*X6015Y26275D01*
X5640Y25900D02*X6015D01*
X6195Y25975D02*X6270Y25900D01*
X6195Y26125D02*Y25975D01*
Y26125D02*X6270Y26200D01*
X6420D01*
X6495Y26125D01*
Y25975D01*
X6420Y25900D02*X6495Y25975D01*
X6270Y25900D02*X6420D01*
X6195Y26275D02*X6270Y26200D01*
X6195Y26425D02*Y26275D01*
Y26425D02*X6270Y26500D01*
X6420D01*
X6495Y26425D01*
Y26275D01*
X6420Y26200D02*X6495Y26275D01*
X4500Y25574D02*X6675D01*
X22600Y1850D02*Y1530D01*
Y1850D02*X22877Y2010D01*
X22600Y1850D02*X22322Y2010D01*
X22440Y1850D02*G75*G03X22760Y1850I160J0D01*G01*
G75*G03X22440Y1850I-160J0D01*G01*
X21600Y850D02*Y530D01*
Y850D02*X21877Y1010D01*
X21600Y850D02*X21322Y1010D01*
X21440Y850D02*G75*G03X21760Y850I160J0D01*G01*
G75*G03X21440Y850I-160J0D01*G01*
X21600Y2850D02*Y2530D01*
Y2850D02*X21877Y3010D01*
X21600Y2850D02*X21322Y3010D01*
X21440Y2850D02*G75*G03X21760Y2850I160J0D01*G01*
G75*G03X21440Y2850I-160J0D01*G01*
X23600Y850D02*Y530D01*
Y850D02*X23877Y1010D01*
X23600Y850D02*X23322Y1010D01*
X23440Y850D02*G75*G03X23760Y850I160J0D01*G01*
G75*G03X23440Y850I-160J0D01*G01*
X23600Y2850D02*Y2530D01*
Y2850D02*X23877Y3010D01*
X23600Y2850D02*X23322Y3010D01*
X23440Y2850D02*G75*G03X23760Y2850I160J0D01*G01*
G75*G03X23440Y2850I-160J0D01*G01*
X16900Y2050D02*Y1730D01*
Y2050D02*X17177Y2210D01*
X16900Y2050D02*X16622Y2210D01*
X16740Y2050D02*G75*G03X17060Y2050I160J0D01*G01*
G75*G03X16740Y2050I-160J0D01*G01*
X15900Y1050D02*Y730D01*
Y1050D02*X16177Y1210D01*
X15900Y1050D02*X15622Y1210D01*
X15740Y1050D02*G75*G03X16060Y1050I160J0D01*G01*
G75*G03X15740Y1050I-160J0D01*G01*
X15900Y3050D02*Y2730D01*
Y3050D02*X16177Y3210D01*
X15900Y3050D02*X15622Y3210D01*
X15740Y3050D02*G75*G03X16060Y3050I160J0D01*G01*
G75*G03X15740Y3050I-160J0D01*G01*
X17900Y1050D02*Y730D01*
Y1050D02*X18177Y1210D01*
X17900Y1050D02*X17622Y1210D01*
X17740Y1050D02*G75*G03X18060Y1050I160J0D01*G01*
G75*G03X17740Y1050I-160J0D01*G01*
X17900Y3050D02*Y2730D01*
Y3050D02*X18177Y3210D01*
X17900Y3050D02*X17622Y3210D01*
X17740Y3050D02*G75*G03X18060Y3050I160J0D01*G01*
G75*G03X17740Y3050I-160J0D01*G01*
X1500Y27625D02*Y27305D01*
Y27625D02*X1777Y27785D01*
X1500Y27625D02*X1222Y27785D01*
X1340Y27625D02*G75*G03X1660Y27625I160J0D01*G01*
G75*G03X1340Y27625I-160J0D01*G01*
G04 Text: YES *
X13500Y28000D02*Y27925D01*
X13650Y27775D01*
X13800Y27925D01*
Y28000D02*Y27925D01*
X13650Y27775D02*Y27400D01*
X13980Y27700D02*X14205D01*
X13980Y27400D02*X14280D01*
X13980Y28000D02*Y27400D01*
Y28000D02*X14280D01*
X14760D02*X14835Y27925D01*
X14535Y28000D02*X14760D01*
X14460Y27925D02*X14535Y28000D01*
X14460Y27925D02*Y27775D01*
X14535Y27700D01*
X14760D01*
X14835Y27625D01*
Y27475D01*
X14760Y27400D02*X14835Y27475D01*
X14535Y27400D02*X14760D01*
X14460Y27475D02*X14535Y27400D01*
X13500Y27074D02*X15015D01*
G04 Text: 10 *
X9875Y27400D02*X10025D01*
X9950Y28000D02*Y27400D01*
X9800Y27850D02*X9950Y28000D01*
X10205Y27475D02*X10280Y27400D01*
X10205Y27925D02*Y27475D01*
Y27925D02*X10280Y28000D01*
X10430D01*
X10505Y27925D01*
Y27475D01*
X10430Y27400D02*X10505Y27475D01*
X10280Y27400D02*X10430D01*
X10205Y27550D02*X10505Y27850D01*
X9800Y27074D02*X10685D01*
G04 Text: 0.060 *
X4500Y27475D02*X4575Y27400D01*
X4500Y27925D02*Y27475D01*
Y27925D02*X4575Y28000D01*
X4725D01*
X4800Y27925D01*
Y27475D01*
X4725Y27400D02*X4800Y27475D01*
X4575Y27400D02*X4725D01*
X4500Y27550D02*X4800Y27850D01*
X4980Y27400D02*X5055D01*
X5235Y27475D02*X5310Y27400D01*
X5235Y27925D02*Y27475D01*
Y27925D02*X5310Y28000D01*
X5460D01*
X5535Y27925D01*
Y27475D01*
X5460Y27400D02*X5535Y27475D01*
X5310Y27400D02*X5460D01*
X5235Y27550D02*X5535Y27850D01*
X5940Y28000D02*X6015Y27925D01*
X5790Y28000D02*X5940D01*
X5715Y27925D02*X5790Y28000D01*
X5715Y27925D02*Y27475D01*
X5790Y27400D01*
X5940Y27700D02*X6015Y27625D01*
X5715Y27700D02*X5940D01*
X5790Y27400D02*X5940D01*
X6015Y27475D01*
Y27625D02*Y27475D01*
X6195D02*X6270Y27400D01*
X6195Y27925D02*Y27475D01*
Y27925D02*X6270Y28000D01*
X6420D01*
X6495Y27925D01*
Y27475D01*
X6420Y27400D02*X6495Y27475D01*
X6270Y27400D02*X6420D01*
X6195Y27550D02*X6495Y27850D01*
X4500Y27074D02*X6675D01*
X8670Y10460D02*X8990D01*
X8670D02*Y10140D01*
X8990D01*
Y10460D02*Y10140D01*
X22213Y10460D02*X22533D01*
X22213D02*Y10140D01*
X22533D01*
Y10460D02*Y10140D01*
X1340Y29285D02*X1660D01*
X1340D02*Y28965D01*
X1660D01*
Y29285D02*Y28965D01*
G04 Text: NO *
X14000Y29500D02*Y28900D01*
Y29500D02*Y29425D01*
X14375Y29050D01*
Y29500D02*Y28900D01*
X14555Y29425D02*Y28975D01*
Y29425D02*X14630Y29500D01*
X14780D01*
X14855Y29425D01*
Y28975D01*
X14780Y28900D02*X14855Y28975D01*
X14630Y28900D02*X14780D01*
X14555Y28975D02*X14630Y28900D01*
X14000Y28574D02*X15035D01*
G04 Text: 2 *
X9800Y29425D02*X9875Y29500D01*
X10100D01*
X10175Y29425D01*
Y29275D01*
X9800Y28900D02*X10175Y29275D01*
X9800Y28900D02*X10175D01*
X9800Y28574D02*X10355D01*
G04 Text: 0.056 *
X4500Y28975D02*X4575Y28900D01*
X4500Y29425D02*Y28975D01*
Y29425D02*X4575Y29500D01*
X4725D01*
X4800Y29425D01*
Y28975D01*
X4725Y28900D02*X4800Y28975D01*
X4575Y28900D02*X4725D01*
X4500Y29050D02*X4800Y29350D01*
X4980Y28900D02*X5055D01*
X5235Y28975D02*X5310Y28900D01*
X5235Y29425D02*Y28975D01*
Y29425D02*X5310Y29500D01*
X5460D01*
X5535Y29425D01*
Y28975D01*
X5460Y28900D02*X5535Y28975D01*
X5310Y28900D02*X5460D01*
X5235Y29050D02*X5535Y29350D01*
X5715Y29500D02*X6015D01*
X5715D02*Y29200D01*
X5790Y29275D01*
X5940D01*
X6015Y29200D01*
Y28975D01*
X5940Y28900D02*X6015Y28975D01*
X5790Y28900D02*X5940D01*
X5715Y28975D02*X5790Y28900D01*
X6420Y29500D02*X6495Y29425D01*
X6270Y29500D02*X6420D01*
X6195Y29425D02*X6270Y29500D01*
X6195Y29425D02*Y28975D01*
X6270Y28900D01*
X6420Y29200D02*X6495Y29125D01*
X6195Y29200D02*X6420D01*
X6270Y28900D02*X6420D01*
X6495Y28975D01*
Y29125D02*Y28975D01*
X4500Y28574D02*X6675D01*
X1820Y1200D02*G75*G03X1980Y1200I80J0D01*G01*
G75*G03X1820Y1200I-80J0D01*G01*
X820D02*G75*G03X980Y1200I80J0D01*G01*
G75*G03X820Y1200I-80J0D01*G01*
X1820Y2200D02*G75*G03X1980Y2200I80J0D01*G01*
G75*G03X1820Y2200I-80J0D01*G01*
X820D02*G75*G03X980Y2200I80J0D01*G01*
G75*G03X820Y2200I-80J0D01*G01*
X1820Y3200D02*G75*G03X1980Y3200I80J0D01*G01*
G75*G03X1820Y3200I-80J0D01*G01*
X820D02*G75*G03X980Y3200I80J0D01*G01*
G75*G03X820Y3200I-80J0D01*G01*
X1820Y4200D02*G75*G03X1980Y4200I80J0D01*G01*
G75*G03X1820Y4200I-80J0D01*G01*
X820D02*G75*G03X980Y4200I80J0D01*G01*
G75*G03X820Y4200I-80J0D01*G01*
X1820Y5200D02*G75*G03X1980Y5200I80J0D01*G01*
G75*G03X1820Y5200I-80J0D01*G01*
X820D02*G75*G03X980Y5200I80J0D01*G01*
G75*G03X820Y5200I-80J0D01*G01*
X1820Y6200D02*G75*G03X1980Y6200I80J0D01*G01*
G75*G03X1820Y6200I-80J0D01*G01*
X820D02*G75*G03X980Y6200I80J0D01*G01*
G75*G03X820Y6200I-80J0D01*G01*
X1820Y7200D02*G75*G03X1980Y7200I80J0D01*G01*
G75*G03X1820Y7200I-80J0D01*G01*
X820D02*G75*G03X980Y7200I80J0D01*G01*
G75*G03X820Y7200I-80J0D01*G01*
X1820Y8200D02*G75*G03X1980Y8200I80J0D01*G01*
G75*G03X1820Y8200I-80J0D01*G01*
X820D02*G75*G03X980Y8200I80J0D01*G01*
G75*G03X820Y8200I-80J0D01*G01*
X4420Y1300D02*G75*G03X4580Y1300I80J0D01*G01*
G75*G03X4420Y1300I-80J0D01*G01*
Y2300D02*G75*G03X4580Y2300I80J0D01*G01*
G75*G03X4420Y2300I-80J0D01*G01*
X5420Y1300D02*G75*G03X5580Y1300I80J0D01*G01*
G75*G03X5420Y1300I-80J0D01*G01*
Y2300D02*G75*G03X5580Y2300I80J0D01*G01*
G75*G03X5420Y2300I-80J0D01*G01*
X6420Y1300D02*G75*G03X6580Y1300I80J0D01*G01*
G75*G03X6420Y1300I-80J0D01*G01*
Y2300D02*G75*G03X6580Y2300I80J0D01*G01*
G75*G03X6420Y2300I-80J0D01*G01*
X7420Y1300D02*G75*G03X7580Y1300I80J0D01*G01*
G75*G03X7420Y1300I-80J0D01*G01*
Y2300D02*G75*G03X7580Y2300I80J0D01*G01*
G75*G03X7420Y2300I-80J0D01*G01*
X8420Y1300D02*G75*G03X8580Y1300I80J0D01*G01*
G75*G03X8420Y1300I-80J0D01*G01*
Y2300D02*G75*G03X8580Y2300I80J0D01*G01*
G75*G03X8420Y2300I-80J0D01*G01*
X9420Y1300D02*G75*G03X9580Y1300I80J0D01*G01*
G75*G03X9420Y1300I-80J0D01*G01*
Y2300D02*G75*G03X9580Y2300I80J0D01*G01*
G75*G03X9420Y2300I-80J0D01*G01*
X10420Y1300D02*G75*G03X10580Y1300I80J0D01*G01*
G75*G03X10420Y1300I-80J0D01*G01*
Y2300D02*G75*G03X10580Y2300I80J0D01*G01*
G75*G03X10420Y2300I-80J0D01*G01*
X11420Y1300D02*G75*G03X11580Y1300I80J0D01*G01*
G75*G03X11420Y1300I-80J0D01*G01*
Y2300D02*G75*G03X11580Y2300I80J0D01*G01*
G75*G03X11420Y2300I-80J0D01*G01*
X12420Y1300D02*G75*G03X12580Y1300I80J0D01*G01*
G75*G03X12420Y1300I-80J0D01*G01*
Y2300D02*G75*G03X12580Y2300I80J0D01*G01*
G75*G03X12420Y2300I-80J0D01*G01*
X13420Y1300D02*G75*G03X13580Y1300I80J0D01*G01*
G75*G03X13420Y1300I-80J0D01*G01*
Y2300D02*G75*G03X13580Y2300I80J0D01*G01*
G75*G03X13420Y2300I-80J0D01*G01*
X18820Y15400D02*G75*G03X18980Y15400I80J0D01*G01*
G75*G03X18820Y15400I-80J0D01*G01*
Y16400D02*G75*G03X18980Y16400I80J0D01*G01*
G75*G03X18820Y16400I-80J0D01*G01*
X19820Y15400D02*G75*G03X19980Y15400I80J0D01*G01*
G75*G03X19820Y15400I-80J0D01*G01*
Y16400D02*G75*G03X19980Y16400I80J0D01*G01*
G75*G03X19820Y16400I-80J0D01*G01*
X20820Y15400D02*G75*G03X20980Y15400I80J0D01*G01*
G75*G03X20820Y15400I-80J0D01*G01*
Y16400D02*G75*G03X20980Y16400I80J0D01*G01*
G75*G03X20820Y16400I-80J0D01*G01*
X21820Y15400D02*G75*G03X21980Y15400I80J0D01*G01*
G75*G03X21820Y15400I-80J0D01*G01*
Y16400D02*G75*G03X21980Y16400I80J0D01*G01*
G75*G03X21820Y16400I-80J0D01*G01*
X22820Y15400D02*G75*G03X22980Y15400I80J0D01*G01*
G75*G03X22820Y15400I-80J0D01*G01*
Y16400D02*G75*G03X22980Y16400I80J0D01*G01*
G75*G03X22820Y16400I-80J0D01*G01*
X8520Y15400D02*G75*G03X8680Y15400I80J0D01*G01*
G75*G03X8520Y15400I-80J0D01*G01*
Y16400D02*G75*G03X8680Y16400I80J0D01*G01*
G75*G03X8520Y16400I-80J0D01*G01*
X9520Y15400D02*G75*G03X9680Y15400I80J0D01*G01*
G75*G03X9520Y15400I-80J0D01*G01*
Y16400D02*G75*G03X9680Y16400I80J0D01*G01*
G75*G03X9520Y16400I-80J0D01*G01*
X10520Y15400D02*G75*G03X10680Y15400I80J0D01*G01*
G75*G03X10520Y15400I-80J0D01*G01*
Y16400D02*G75*G03X10680Y16400I80J0D01*G01*
G75*G03X10520Y16400I-80J0D01*G01*
X11520Y15400D02*G75*G03X11680Y15400I80J0D01*G01*
G75*G03X11520Y15400I-80J0D01*G01*
Y16400D02*G75*G03X11680Y16400I80J0D01*G01*
G75*G03X11520Y16400I-80J0D01*G01*
X12520Y15400D02*G75*G03X12680Y15400I80J0D01*G01*
G75*G03X12520Y15400I-80J0D01*G01*
Y16400D02*G75*G03X12680Y16400I80J0D01*G01*
G75*G03X12520Y16400I-80J0D01*G01*
X13520Y15400D02*G75*G03X13680Y15400I80J0D01*G01*
G75*G03X13520Y15400I-80J0D01*G01*
Y16400D02*G75*G03X13680Y16400I80J0D01*G01*
G75*G03X13520Y16400I-80J0D01*G01*
X14520Y15400D02*G75*G03X14680Y15400I80J0D01*G01*
G75*G03X14520Y15400I-80J0D01*G01*
Y16400D02*G75*G03X14680Y16400I80J0D01*G01*
G75*G03X14520Y16400I-80J0D01*G01*
X15520Y15400D02*G75*G03X15680Y15400I80J0D01*G01*
G75*G03X15520Y15400I-80J0D01*G01*
Y16400D02*G75*G03X15680Y16400I80J0D01*G01*
G75*G03X15520Y16400I-80J0D01*G01*
X1820Y11300D02*G75*G03X1980Y11300I80J0D01*G01*
G75*G03X1820Y11300I-80J0D01*G01*
X820D02*G75*G03X980Y11300I80J0D01*G01*
G75*G03X820Y11300I-80J0D01*G01*
X1820Y12300D02*G75*G03X1980Y12300I80J0D01*G01*
G75*G03X1820Y12300I-80J0D01*G01*
X820D02*G75*G03X980Y12300I80J0D01*G01*
G75*G03X820Y12300I-80J0D01*G01*
X1820Y13300D02*G75*G03X1980Y13300I80J0D01*G01*
G75*G03X1820Y13300I-80J0D01*G01*
X820D02*G75*G03X980Y13300I80J0D01*G01*
G75*G03X820Y13300I-80J0D01*G01*
X1820Y14300D02*G75*G03X1980Y14300I80J0D01*G01*
G75*G03X1820Y14300I-80J0D01*G01*
X820D02*G75*G03X980Y14300I80J0D01*G01*
G75*G03X820Y14300I-80J0D01*G01*
X1820Y15300D02*G75*G03X1980Y15300I80J0D01*G01*
G75*G03X1820Y15300I-80J0D01*G01*
X820D02*G75*G03X980Y15300I80J0D01*G01*
G75*G03X820Y15300I-80J0D01*G01*
X1820Y16300D02*G75*G03X1980Y16300I80J0D01*G01*
G75*G03X1820Y16300I-80J0D01*G01*
X820D02*G75*G03X980Y16300I80J0D01*G01*
G75*G03X820Y16300I-80J0D01*G01*
X1820Y17300D02*G75*G03X1980Y17300I80J0D01*G01*
G75*G03X1820Y17300I-80J0D01*G01*
X820D02*G75*G03X980Y17300I80J0D01*G01*
G75*G03X820Y17300I-80J0D01*G01*
X1820Y18300D02*G75*G03X1980Y18300I80J0D01*G01*
G75*G03X1820Y18300I-80J0D01*G01*
X820D02*G75*G03X980Y18300I80J0D01*G01*
G75*G03X820Y18300I-80J0D01*G01*
X1420Y30625D02*G75*G03X1580Y30625I80J0D01*G01*
G75*G03X1420Y30625I-80J0D01*G01*
G04 Text: YES *
X13500Y31000D02*Y30925D01*
X13650Y30775D01*
X13800Y30925D01*
Y31000D02*Y30925D01*
X13650Y30775D02*Y30400D01*
X13980Y30700D02*X14205D01*
X13980Y30400D02*X14280D01*
X13980Y31000D02*Y30400D01*
Y31000D02*X14280D01*
X14760D02*X14835Y30925D01*
X14535Y31000D02*X14760D01*
X14460Y30925D02*X14535Y31000D01*
X14460Y30925D02*Y30775D01*
X14535Y30700D01*
X14760D01*
X14835Y30625D01*
Y30475D01*
X14760Y30400D02*X14835Y30475D01*
X14535Y30400D02*X14760D01*
X14460Y30475D02*X14535Y30400D01*
X13500Y30074D02*X15015D01*
G04 Text: 78 *
X9800Y30400D02*X10175Y30775D01*
Y31000D02*Y30775D01*
X9800Y31000D02*X10175D01*
X10355Y30475D02*X10430Y30400D01*
X10355Y30625D02*Y30475D01*
Y30625D02*X10430Y30700D01*
X10580D01*
X10655Y30625D01*
Y30475D01*
X10580Y30400D02*X10655Y30475D01*
X10430Y30400D02*X10580D01*
X10355Y30775D02*X10430Y30700D01*
X10355Y30925D02*Y30775D01*
Y30925D02*X10430Y31000D01*
X10580D01*
X10655Y30925D01*
Y30775D01*
X10580Y30700D02*X10655Y30775D01*
X9800Y30074D02*X10835D01*
G04 Text: 0.040 *
X4500Y30475D02*X4575Y30400D01*
X4500Y30925D02*Y30475D01*
Y30925D02*X4575Y31000D01*
X4725D01*
X4800Y30925D01*
Y30475D01*
X4725Y30400D02*X4800Y30475D01*
X4575Y30400D02*X4725D01*
X4500Y30550D02*X4800Y30850D01*
X4980Y30400D02*X5055D01*
X5235Y30475D02*X5310Y30400D01*
X5235Y30925D02*Y30475D01*
Y30925D02*X5310Y31000D01*
X5460D01*
X5535Y30925D01*
Y30475D01*
X5460Y30400D02*X5535Y30475D01*
X5310Y30400D02*X5460D01*
X5235Y30550D02*X5535Y30850D01*
X5715Y30700D02*X6015Y31000D01*
X5715Y30700D02*X6090D01*
X6015Y31000D02*Y30400D01*
X6270Y30475D02*X6345Y30400D01*
X6270Y30925D02*Y30475D01*
Y30925D02*X6345Y31000D01*
X6495D01*
X6570Y30925D01*
Y30475D01*
X6495Y30400D02*X6570Y30475D01*
X6345Y30400D02*X6495D01*
X6270Y30550D02*X6570Y30850D01*
X4500Y30074D02*X6750D01*
X6130Y17820D02*X6370Y17580D01*
X6130D02*X6370Y17820D01*
X5180Y20470D02*X5420Y20230D01*
X5180D02*X5420Y20470D01*
X5230Y21470D02*X5470Y21230D01*
X5230D02*X5470Y21470D01*
X6180Y22220D02*X6420Y21980D01*
X6180D02*X6420Y22220D01*
X10180Y22770D02*X10420Y22530D01*
X10180D02*X10420Y22770D01*
X11330Y23620D02*X11570Y23380D01*
X11330D02*X11570Y23620D01*
X12330Y22970D02*X12570Y22730D01*
X12330D02*X12570Y22970D01*
X15080Y24170D02*X15320Y23930D01*
X15080D02*X15320Y24170D01*
X15780Y21620D02*X16020Y21380D01*
X15780D02*X16020Y21620D01*
X14630Y20220D02*X14870Y19980D01*
X14630D02*X14870Y20220D01*
X16830Y4470D02*X17070Y4230D01*
X16830D02*X17070Y4470D01*
X13630Y24370D02*X13870Y24130D01*
X13630D02*X13870Y24370D01*
X17880Y8370D02*X18120Y8130D01*
X17880D02*X18120Y8370D01*
X23380Y7220D02*X23620Y6980D01*
X23380D02*X23620Y7220D01*
X22430Y3920D02*X22670Y3680D01*
X22430D02*X22670Y3920D01*
X1380Y32245D02*X1620Y32005D01*
X1380D02*X1620Y32245D01*
G04 Text: YES *
X13500Y32500D02*Y32425D01*
X13650Y32275D01*
X13800Y32425D01*
Y32500D02*Y32425D01*
X13650Y32275D02*Y31900D01*
X13980Y32200D02*X14205D01*
X13980Y31900D02*X14280D01*
X13980Y32500D02*Y31900D01*
Y32500D02*X14280D01*
X14760D02*X14835Y32425D01*
X14535Y32500D02*X14760D01*
X14460Y32425D02*X14535Y32500D01*
X14460Y32425D02*Y32275D01*
X14535Y32200D01*
X14760D01*
X14835Y32125D01*
Y31975D01*
X14760Y31900D02*X14835Y31975D01*
X14535Y31900D02*X14760D01*
X14460Y31975D02*X14535Y31900D01*
X13500Y31574D02*X15015D01*
G04 Text: 15 *
X9875Y31900D02*X10025D01*
X9950Y32500D02*Y31900D01*
X9800Y32350D02*X9950Y32500D01*
X10205D02*X10505D01*
X10205D02*Y32200D01*
X10280Y32275D01*
X10430D01*
X10505Y32200D01*
Y31975D01*
X10430Y31900D02*X10505Y31975D01*
X10280Y31900D02*X10430D01*
X10205Y31975D02*X10280Y31900D01*
X9800Y31574D02*X10685D01*
G04 Text: 0.035 *
X4500Y31975D02*X4575Y31900D01*
X4500Y32425D02*Y31975D01*
Y32425D02*X4575Y32500D01*
X4725D01*
X4800Y32425D01*
Y31975D01*
X4725Y31900D02*X4800Y31975D01*
X4575Y31900D02*X4725D01*
X4500Y32050D02*X4800Y32350D01*
X4980Y31900D02*X5055D01*
X5235Y31975D02*X5310Y31900D01*
X5235Y32425D02*Y31975D01*
Y32425D02*X5310Y32500D01*
X5460D01*
X5535Y32425D01*
Y31975D01*
X5460Y31900D02*X5535Y31975D01*
X5310Y31900D02*X5460D01*
X5235Y32050D02*X5535Y32350D01*
X5715Y32425D02*X5790Y32500D01*
X5940D01*
X6015Y32425D01*
Y31975D01*
X5940Y31900D02*X6015Y31975D01*
X5790Y31900D02*X5940D01*
X5715Y31975D02*X5790Y31900D01*
Y32200D02*X6015D01*
X6195Y32500D02*X6495D01*
X6195D02*Y32200D01*
X6270Y32275D01*
X6420D01*
X6495Y32200D01*
Y31975D01*
X6420Y31900D02*X6495Y31975D01*
X6270Y31900D02*X6420D01*
X6195Y31975D02*X6270Y31900D01*
X4500Y31574D02*X6675D01*
X25950Y5460D02*Y5140D01*
X25790Y5300D02*X26110D01*
X15400Y4510D02*Y4190D01*
X15240Y4350D02*X15560D01*
X20300Y5610D02*Y5290D01*
X20140Y5450D02*X20460D01*
X1500Y33785D02*Y33465D01*
X1340Y33625D02*X1660D01*
G04 Text: YES *
X13500Y34000D02*Y33925D01*
X13650Y33775D01*
X13800Y33925D01*
Y34000D02*Y33925D01*
X13650Y33775D02*Y33400D01*
X13980Y33700D02*X14205D01*
X13980Y33400D02*X14280D01*
X13980Y34000D02*Y33400D01*
Y34000D02*X14280D01*
X14760D02*X14835Y33925D01*
X14535Y34000D02*X14760D01*
X14460Y33925D02*X14535Y34000D01*
X14460Y33925D02*Y33775D01*
X14535Y33700D01*
X14760D01*
X14835Y33625D01*
Y33475D01*
X14760Y33400D02*X14835Y33475D01*
X14535Y33400D02*X14760D01*
X14460Y33475D02*X14535Y33400D01*
X13500Y33074D02*X15015D01*
G04 Text: 3 *
X9800Y33925D02*X9875Y34000D01*
X10025D01*
X10100Y33925D01*
Y33475D01*
X10025Y33400D02*X10100Y33475D01*
X9875Y33400D02*X10025D01*
X9800Y33475D02*X9875Y33400D01*
Y33700D02*X10100D01*
X9800Y33074D02*X10280D01*
G04 Text: 0.028 *
X4500Y33475D02*X4575Y33400D01*
X4500Y33925D02*Y33475D01*
Y33925D02*X4575Y34000D01*
X4725D01*
X4800Y33925D01*
Y33475D01*
X4725Y33400D02*X4800Y33475D01*
X4575Y33400D02*X4725D01*
X4500Y33550D02*X4800Y33850D01*
X4980Y33400D02*X5055D01*
X5235Y33475D02*X5310Y33400D01*
X5235Y33925D02*Y33475D01*
Y33925D02*X5310Y34000D01*
X5460D01*
X5535Y33925D01*
Y33475D01*
X5460Y33400D02*X5535Y33475D01*
X5310Y33400D02*X5460D01*
X5235Y33550D02*X5535Y33850D01*
X5715Y33925D02*X5790Y34000D01*
X6015D01*
X6090Y33925D01*
Y33775D01*
X5715Y33400D02*X6090Y33775D01*
X5715Y33400D02*X6090D01*
X6270Y33475D02*X6345Y33400D01*
X6270Y33625D02*Y33475D01*
Y33625D02*X6345Y33700D01*
X6495D01*
X6570Y33625D01*
Y33475D01*
X6495Y33400D02*X6570Y33475D01*
X6345Y33400D02*X6495D01*
X6270Y33775D02*X6345Y33700D01*
X6270Y33925D02*Y33775D01*
Y33925D02*X6345Y34000D01*
X6495D01*
X6570Y33925D01*
Y33775D01*
X6495Y33700D02*X6570Y33775D01*
X4500Y33074D02*X6750D01*
X11100Y19400D02*Y19240D01*
Y19400D02*X11238Y19480D01*
X11100Y19400D02*X10961Y19480D01*
X16600Y11900D02*Y11740D01*
Y11900D02*X16738Y11980D01*
X16600Y11900D02*X16461Y11980D01*
X18900Y12900D02*Y12740D01*
Y12900D02*X19038Y12980D01*
X18900Y12900D02*X18761Y12980D01*
X20100Y12900D02*Y12740D01*
Y12900D02*X20238Y12980D01*
X20100Y12900D02*X19961Y12980D01*
X19700Y13600D02*Y13440D01*
Y13600D02*X19838Y13680D01*
X19700Y13600D02*X19561Y13680D01*
X14900Y14700D02*Y14540D01*
Y14700D02*X15038Y14780D01*
X14900Y14700D02*X14761Y14780D01*
X14600Y13300D02*Y13140D01*
Y13300D02*X14738Y13380D01*
X14600Y13300D02*X14461Y13380D01*
X13000Y13200D02*Y13040D01*
Y13200D02*X13138Y13280D01*
X13000Y13200D02*X12861Y13280D01*
X13400Y12600D02*Y12440D01*
Y12600D02*X13538Y12680D01*
X13400Y12600D02*X13261Y12680D01*
X10800Y12400D02*Y12240D01*
Y12400D02*X10938Y12480D01*
X10800Y12400D02*X10661Y12480D01*
X9000Y9300D02*Y9140D01*
Y9300D02*X9138Y9380D01*
X9000Y9300D02*X8861Y9380D01*
X18400Y12400D02*Y12240D01*
Y12400D02*X18538Y12480D01*
X18400Y12400D02*X18261Y12480D01*
X17400Y12400D02*Y12240D01*
Y12400D02*X17538Y12480D01*
X17400Y12400D02*X17261Y12480D01*
X14800Y18800D02*Y18640D01*
Y18800D02*X14938Y18880D01*
X14800Y18800D02*X14661Y18880D01*
X9000Y11100D02*Y10940D01*
Y11100D02*X9138Y11180D01*
X9000Y11100D02*X8861Y11180D01*
X6900Y20450D02*Y20290D01*
Y20450D02*X7038Y20530D01*
X6900Y20450D02*X6761Y20530D01*
X7750Y22700D02*Y22540D01*
Y22700D02*X7888Y22780D01*
X7750Y22700D02*X7611Y22780D01*
X21700Y12300D02*Y12140D01*
Y12300D02*X21838Y12380D01*
X21700Y12300D02*X21561Y12380D01*
X20950Y5900D02*Y5740D01*
Y5900D02*X21088Y5980D01*
X20950Y5900D02*X20811Y5980D01*
X21600Y5850D02*Y5690D01*
Y5850D02*X21738Y5930D01*
X21600Y5850D02*X21461Y5930D01*
X18000Y6400D02*Y6240D01*
Y6400D02*X18138Y6480D01*
X18000Y6400D02*X17861Y6480D01*
X17750Y5750D02*Y5590D01*
Y5750D02*X17888Y5830D01*
X17750Y5750D02*X17611Y5830D01*
X1500Y35125D02*Y34965D01*
Y35125D02*X1638Y35205D01*
X1500Y35125D02*X1361Y35205D01*
G04 Text: YES *
X13500Y35500D02*Y35425D01*
X13650Y35275D01*
X13800Y35425D01*
Y35500D02*Y35425D01*
X13650Y35275D02*Y34900D01*
X13980Y35200D02*X14205D01*
X13980Y34900D02*X14280D01*
X13980Y35500D02*Y34900D01*
Y35500D02*X14280D01*
X14760D02*X14835Y35425D01*
X14535Y35500D02*X14760D01*
X14460Y35425D02*X14535Y35500D01*
X14460Y35425D02*Y35275D01*
X14535Y35200D01*
X14760D01*
X14835Y35125D01*
Y34975D01*
X14760Y34900D02*X14835Y34975D01*
X14535Y34900D02*X14760D01*
X14460Y34975D02*X14535Y34900D01*
X13500Y34574D02*X15015D01*
G04 Text: 22 *
X9800Y35425D02*X9875Y35500D01*
X10100D01*
X10175Y35425D01*
Y35275D01*
X9800Y34900D02*X10175Y35275D01*
X9800Y34900D02*X10175D01*
X10355Y35425D02*X10430Y35500D01*
X10655D01*
X10730Y35425D01*
Y35275D01*
X10355Y34900D02*X10730Y35275D01*
X10355Y34900D02*X10730D01*
X9800Y34574D02*X10910D01*
G04 Text: 0.020 *
X4500Y34975D02*X4575Y34900D01*
X4500Y35425D02*Y34975D01*
Y35425D02*X4575Y35500D01*
X4725D01*
X4800Y35425D01*
Y34975D01*
X4725Y34900D02*X4800Y34975D01*
X4575Y34900D02*X4725D01*
X4500Y35050D02*X4800Y35350D01*
X4980Y34900D02*X5055D01*
X5235Y34975D02*X5310Y34900D01*
X5235Y35425D02*Y34975D01*
Y35425D02*X5310Y35500D01*
X5460D01*
X5535Y35425D01*
Y34975D01*
X5460Y34900D02*X5535Y34975D01*
X5310Y34900D02*X5460D01*
X5235Y35050D02*X5535Y35350D01*
X5715Y35425D02*X5790Y35500D01*
X6015D01*
X6090Y35425D01*
Y35275D01*
X5715Y34900D02*X6090Y35275D01*
X5715Y34900D02*X6090D01*
X6270Y34975D02*X6345Y34900D01*
X6270Y35425D02*Y34975D01*
Y35425D02*X6345Y35500D01*
X6495D01*
X6570Y35425D01*
Y34975D01*
X6495Y34900D02*X6570Y34975D01*
X6345Y34900D02*X6495D01*
X6270Y35050D02*X6570Y35350D01*
X4500Y34574D02*X6750D01*
G04 Text: Symbol *
X300Y37000D02*X375Y36925D01*
X75Y37000D02*X300D01*
X0Y36925D02*X75Y37000D01*
X0Y36925D02*Y36775D01*
X75Y36700D01*
X300D01*
X375Y36625D01*
Y36475D01*
X300Y36400D02*X375Y36475D01*
X75Y36400D02*X300D01*
X0Y36475D02*X75Y36400D01*
X555Y36700D02*Y36475D01*
X630Y36400D01*
X855Y36700D02*Y36250D01*
X780Y36175D02*X855Y36250D01*
X630Y36175D02*X780D01*
X555Y36250D02*X630Y36175D01*
Y36400D02*X780D01*
X855Y36475D01*
X1110Y36625D02*Y36400D01*
Y36625D02*X1185Y36700D01*
X1260D01*
X1335Y36625D01*
Y36400D01*
Y36625D02*X1410Y36700D01*
X1485D01*
X1560Y36625D01*
Y36400D01*
X1035Y36700D02*X1110Y36625D01*
X1740Y37000D02*Y36400D01*
Y36475D02*X1815Y36400D01*
X1965D01*
X2040Y36475D01*
Y36625D02*Y36475D01*
X1965Y36700D02*X2040Y36625D01*
X1815Y36700D02*X1965D01*
X1740Y36625D02*X1815Y36700D01*
X2220Y36625D02*Y36475D01*
Y36625D02*X2295Y36700D01*
X2445D01*
X2520Y36625D01*
Y36475D01*
X2445Y36400D02*X2520Y36475D01*
X2295Y36400D02*X2445D01*
X2220Y36475D02*X2295Y36400D01*
X2700Y37000D02*Y36475D01*
X2775Y36400D01*
G04 Text: Diam. (Inch) *
X4175Y37000D02*Y36400D01*
X4400Y37000D02*X4475Y36925D01*
Y36475D01*
X4400Y36400D02*X4475Y36475D01*
X4100Y36400D02*X4400D01*
X4100Y37000D02*X4400D01*
X4655Y36850D02*Y36775D01*
Y36625D02*Y36400D01*
X5030Y36700D02*X5105Y36625D01*
X4880Y36700D02*X5030D01*
X4805Y36625D02*X4880Y36700D01*
X4805Y36625D02*Y36475D01*
X4880Y36400D01*
X5105Y36700D02*Y36475D01*
X5180Y36400D01*
X4880D02*X5030D01*
X5105Y36475D01*
X5435Y36625D02*Y36400D01*
Y36625D02*X5510Y36700D01*
X5585D01*
X5660Y36625D01*
Y36400D01*
Y36625D02*X5735Y36700D01*
X5810D01*
X5885Y36625D01*
Y36400D01*
X5360Y36700D02*X5435Y36625D01*
X6065Y36400D02*X6140D01*
X6590Y36475D02*X6665Y36400D01*
X6590Y36925D02*X6665Y37000D01*
X6590Y36925D02*Y36475D01*
X6845Y37000D02*X6995D01*
X6920D02*Y36400D01*
X6845D02*X6995D01*
X7251Y36625D02*Y36400D01*
Y36625D02*X7326Y36700D01*
X7401D01*
X7476Y36625D01*
Y36400D01*
X7176Y36700D02*X7251Y36625D01*
X7731Y36700D02*X7956D01*
X7656Y36625D02*X7731Y36700D01*
X7656Y36625D02*Y36475D01*
X7731Y36400D01*
X7956D01*
X8136Y37000D02*Y36400D01*
Y36625D02*X8211Y36700D01*
X8361D01*
X8436Y36625D01*
Y36400D01*
X8616Y37000D02*X8691Y36925D01*
Y36475D01*
X8616Y36400D02*X8691Y36475D01*
G04 Text: Count *
X9575Y36400D02*X9800D01*
X9500Y36475D02*X9575Y36400D01*
X9500Y36925D02*Y36475D01*
Y36925D02*X9575Y37000D01*
X9800D01*
X9980Y36625D02*Y36475D01*
Y36625D02*X10055Y36700D01*
X10205D01*
X10280Y36625D01*
Y36475D01*
X10205Y36400D02*X10280Y36475D01*
X10055Y36400D02*X10205D01*
X9980Y36475D02*X10055Y36400D01*
X10460Y36700D02*Y36475D01*
X10535Y36400D01*
X10685D01*
X10760Y36475D01*
Y36700D02*Y36475D01*
X11015Y36625D02*Y36400D01*
Y36625D02*X11090Y36700D01*
X11165D01*
X11240Y36625D01*
Y36400D01*
X10940Y36700D02*X11015Y36625D01*
X11495Y37000D02*Y36475D01*
X11570Y36400D01*
X11420Y36775D02*X11570D01*
G04 Text: Plated? *
X13075Y37000D02*Y36400D01*
X13000Y37000D02*X13300D01*
X13375Y36925D01*
Y36775D01*
X13300Y36700D02*X13375Y36775D01*
X13075Y36700D02*X13300D01*
X13555Y37000D02*Y36475D01*
X13630Y36400D01*
X14005Y36700D02*X14080Y36625D01*
X13855Y36700D02*X14005D01*
X13780Y36625D02*X13855Y36700D01*
X13780Y36625D02*Y36475D01*
X13855Y36400D01*
X14080Y36700D02*Y36475D01*
X14155Y36400D01*
X13855D02*X14005D01*
X14080Y36475D01*
X14410Y37000D02*Y36475D01*
X14485Y36400D01*
X14335Y36775D02*X14485D01*
X14710Y36400D02*X14935D01*
X14635Y36475D02*X14710Y36400D01*
X14635Y36625D02*Y36475D01*
Y36625D02*X14710Y36700D01*
X14860D01*
X14935Y36625D01*
X14635Y36550D02*X14935D01*
Y36625D02*Y36550D01*
X15415Y37000D02*Y36400D01*
X15340D02*X15415Y36475D01*
X15190Y36400D02*X15340D01*
X15115Y36475D02*X15190Y36400D01*
X15115Y36625D02*Y36475D01*
Y36625D02*X15190Y36700D01*
X15340D01*
X15415Y36625D01*
X15745Y36700D02*Y36625D01*
Y36475D02*Y36400D01*
X15595Y36925D02*Y36850D01*
Y36925D02*X15670Y37000D01*
X15820D01*
X15895Y36925D01*
Y36850D01*
X15745Y36700D02*X15895Y36850D01*
G04 Text: There are 7 different drill sizes used in this layout, 134 holes total *
X0Y38500D02*X300D01*
X150D02*Y37900D01*
X480Y38500D02*Y37900D01*
Y38125D02*X555Y38200D01*
X705D01*
X780Y38125D01*
Y37900D01*
X1035D02*X1260D01*
X960Y37975D02*X1035Y37900D01*
X960Y38125D02*Y37975D01*
Y38125D02*X1035Y38200D01*
X1185D01*
X1260Y38125D01*
X960Y38050D02*X1260D01*
Y38125D02*Y38050D01*
X1515Y38125D02*Y37900D01*
Y38125D02*X1590Y38200D01*
X1740D01*
X1440D02*X1515Y38125D01*
X1995Y37900D02*X2220D01*
X1920Y37975D02*X1995Y37900D01*
X1920Y38125D02*Y37975D01*
Y38125D02*X1995Y38200D01*
X2145D01*
X2220Y38125D01*
X1920Y38050D02*X2220D01*
Y38125D02*Y38050D01*
X2895Y38200D02*X2970Y38125D01*
X2745Y38200D02*X2895D01*
X2670Y38125D02*X2745Y38200D01*
X2670Y38125D02*Y37975D01*
X2745Y37900D01*
X2970Y38200D02*Y37975D01*
X3045Y37900D01*
X2745D02*X2895D01*
X2970Y37975D01*
X3300Y38125D02*Y37900D01*
Y38125D02*X3375Y38200D01*
X3525D01*
X3225D02*X3300Y38125D01*
X3781Y37900D02*X4006D01*
X3706Y37975D02*X3781Y37900D01*
X3706Y38125D02*Y37975D01*
Y38125D02*X3781Y38200D01*
X3931D01*
X4006Y38125D01*
X3706Y38050D02*X4006D01*
Y38125D02*Y38050D01*
X4456Y37900D02*X4831Y38275D01*
Y38500D02*Y38275D01*
X4456Y38500D02*X4831D01*
X5581D02*Y37900D01*
X5506D02*X5581Y37975D01*
X5356Y37900D02*X5506D01*
X5281Y37975D02*X5356Y37900D01*
X5281Y38125D02*Y37975D01*
Y38125D02*X5356Y38200D01*
X5506D01*
X5581Y38125D01*
X5761Y38350D02*Y38275D01*
Y38125D02*Y37900D01*
X5986Y38425D02*Y37900D01*
Y38425D02*X6061Y38500D01*
X6136D01*
X5911Y38200D02*X6061D01*
X6361Y38425D02*Y37900D01*
Y38425D02*X6436Y38500D01*
X6511D01*
X6286Y38200D02*X6436D01*
X6736Y37900D02*X6961D01*
X6661Y37975D02*X6736Y37900D01*
X6661Y38125D02*Y37975D01*
Y38125D02*X6736Y38200D01*
X6886D01*
X6961Y38125D01*
X6661Y38050D02*X6961D01*
Y38125D02*Y38050D01*
X7217Y38125D02*Y37900D01*
Y38125D02*X7292Y38200D01*
X7442D01*
X7142D02*X7217Y38125D01*
X7697Y37900D02*X7922D01*
X7622Y37975D02*X7697Y37900D01*
X7622Y38125D02*Y37975D01*
Y38125D02*X7697Y38200D01*
X7847D01*
X7922Y38125D01*
X7622Y38050D02*X7922D01*
Y38125D02*Y38050D01*
X8177Y38125D02*Y37900D01*
Y38125D02*X8252Y38200D01*
X8327D01*
X8402Y38125D01*
Y37900D01*
X8102Y38200D02*X8177Y38125D01*
X8657Y38500D02*Y37975D01*
X8732Y37900D01*
X8582Y38275D02*X8732D01*
X9452Y38500D02*Y37900D01*
X9377D02*X9452Y37975D01*
X9227Y37900D02*X9377D01*
X9152Y37975D02*X9227Y37900D01*
X9152Y38125D02*Y37975D01*
Y38125D02*X9227Y38200D01*
X9377D01*
X9452Y38125D01*
X9707D02*Y37900D01*
Y38125D02*X9782Y38200D01*
X9932D01*
X9632D02*X9707Y38125D01*
X10113Y38350D02*Y38275D01*
Y38125D02*Y37900D01*
X10263Y38500D02*Y37975D01*
X10338Y37900D01*
X10488Y38500D02*Y37975D01*
X10563Y37900D01*
X11058D02*X11283D01*
X11358Y37975D01*
X11283Y38050D02*X11358Y37975D01*
X11058Y38050D02*X11283D01*
X10983Y38125D02*X11058Y38050D01*
X10983Y38125D02*X11058Y38200D01*
X11283D01*
X11358Y38125D01*
X10983Y37975D02*X11058Y37900D01*
X11538Y38350D02*Y38275D01*
Y38125D02*Y37900D01*
X11688Y38200D02*X11988D01*
X11688Y37900D02*X11988Y38200D01*
X11688Y37900D02*X11988D01*
X12243D02*X12468D01*
X12168Y37975D02*X12243Y37900D01*
X12168Y38125D02*Y37975D01*
Y38125D02*X12243Y38200D01*
X12393D01*
X12468Y38125D01*
X12168Y38050D02*X12468D01*
Y38125D02*Y38050D01*
X12724Y37900D02*X12949D01*
X13024Y37975D01*
X12949Y38050D02*X13024Y37975D01*
X12724Y38050D02*X12949D01*
X12649Y38125D02*X12724Y38050D01*
X12649Y38125D02*X12724Y38200D01*
X12949D01*
X13024Y38125D01*
X12649Y37975D02*X12724Y37900D01*
X13474Y38200D02*Y37975D01*
X13549Y37900D01*
X13699D01*
X13774Y37975D01*
Y38200D02*Y37975D01*
X14029Y37900D02*X14254D01*
X14329Y37975D01*
X14254Y38050D02*X14329Y37975D01*
X14029Y38050D02*X14254D01*
X13954Y38125D02*X14029Y38050D01*
X13954Y38125D02*X14029Y38200D01*
X14254D01*
X14329Y38125D01*
X13954Y37975D02*X14029Y37900D01*
X14584D02*X14809D01*
X14509Y37975D02*X14584Y37900D01*
X14509Y38125D02*Y37975D01*
Y38125D02*X14584Y38200D01*
X14734D01*
X14809Y38125D01*
X14509Y38050D02*X14809D01*
Y38125D02*Y38050D01*
X15289Y38500D02*Y37900D01*
X15214D02*X15289Y37975D01*
X15064Y37900D02*X15214D01*
X14989Y37975D02*X15064Y37900D01*
X14989Y38125D02*Y37975D01*
Y38125D02*X15064Y38200D01*
X15214D01*
X15289Y38125D01*
X15739Y38350D02*Y38275D01*
Y38125D02*Y37900D01*
X15964Y38125D02*Y37900D01*
Y38125D02*X16039Y38200D01*
X16114D01*
X16189Y38125D01*
Y37900D01*
X15889Y38200D02*X15964Y38125D01*
X16715Y38500D02*Y37975D01*
X16790Y37900D01*
X16640Y38275D02*X16790D01*
X16940Y38500D02*Y37900D01*
Y38125D02*X17015Y38200D01*
X17165D01*
X17240Y38125D01*
Y37900D01*
X17420Y38350D02*Y38275D01*
Y38125D02*Y37900D01*
X17645D02*X17870D01*
X17945Y37975D01*
X17870Y38050D02*X17945Y37975D01*
X17645Y38050D02*X17870D01*
X17570Y38125D02*X17645Y38050D01*
X17570Y38125D02*X17645Y38200D01*
X17870D01*
X17945Y38125D01*
X17570Y37975D02*X17645Y37900D01*
X18395Y38500D02*Y37975D01*
X18470Y37900D01*
X18845Y38200D02*X18920Y38125D01*
X18695Y38200D02*X18845D01*
X18620Y38125D02*X18695Y38200D01*
X18620Y38125D02*Y37975D01*
X18695Y37900D01*
X18920Y38200D02*Y37975D01*
X18995Y37900D01*
X18695D02*X18845D01*
X18920Y37975D01*
X19176Y38200D02*Y37975D01*
X19251Y37900D01*
X19476Y38200D02*Y37750D01*
X19401Y37675D02*X19476Y37750D01*
X19251Y37675D02*X19401D01*
X19176Y37750D02*X19251Y37675D01*
Y37900D02*X19401D01*
X19476Y37975D01*
X19656Y38125D02*Y37975D01*
Y38125D02*X19731Y38200D01*
X19881D01*
X19956Y38125D01*
Y37975D01*
X19881Y37900D02*X19956Y37975D01*
X19731Y37900D02*X19881D01*
X19656Y37975D02*X19731Y37900D01*
X20136Y38200D02*Y37975D01*
X20211Y37900D01*
X20361D01*
X20436Y37975D01*
Y38200D02*Y37975D01*
X20691Y38500D02*Y37975D01*
X20766Y37900D01*
X20616Y38275D02*X20766D01*
X20916Y37750D02*X21066Y37900D01*
X21591D02*X21741D01*
X21666Y38500D02*Y37900D01*
X21516Y38350D02*X21666Y38500D01*
X21921Y38425D02*X21996Y38500D01*
X22146D01*
X22221Y38425D01*
Y37975D01*
X22146Y37900D02*X22221Y37975D01*
X21996Y37900D02*X22146D01*
X21921Y37975D02*X21996Y37900D01*
Y38200D02*X22221D01*
X22402D02*X22702Y38500D01*
X22402Y38200D02*X22777D01*
X22702Y38500D02*Y37900D01*
X23227Y38500D02*Y37900D01*
Y38125D02*X23302Y38200D01*
X23452D01*
X23527Y38125D01*
Y37900D01*
X23707Y38125D02*Y37975D01*
Y38125D02*X23782Y38200D01*
X23932D01*
X24007Y38125D01*
Y37975D01*
X23932Y37900D02*X24007Y37975D01*
X23782Y37900D02*X23932D01*
X23707Y37975D02*X23782Y37900D01*
X24187Y38500D02*Y37975D01*
X24262Y37900D01*
X24487D02*X24712D01*
X24412Y37975D02*X24487Y37900D01*
X24412Y38125D02*Y37975D01*
Y38125D02*X24487Y38200D01*
X24637D01*
X24712Y38125D01*
X24412Y38050D02*X24712D01*
Y38125D02*Y38050D01*
X24967Y37900D02*X25192D01*
X25267Y37975D01*
X25192Y38050D02*X25267Y37975D01*
X24967Y38050D02*X25192D01*
X24892Y38125D02*X24967Y38050D01*
X24892Y38125D02*X24967Y38200D01*
X25192D01*
X25267Y38125D01*
X24892Y37975D02*X24967Y37900D01*
X25792Y38500D02*Y37975D01*
X25867Y37900D01*
X25717Y38275D02*X25867D01*
X26018Y38125D02*Y37975D01*
Y38125D02*X26093Y38200D01*
X26243D01*
X26318Y38125D01*
Y37975D01*
X26243Y37900D02*X26318Y37975D01*
X26093Y37900D02*X26243D01*
X26018Y37975D02*X26093Y37900D01*
X26573Y38500D02*Y37975D01*
X26648Y37900D01*
X26498Y38275D02*X26648D01*
X27023Y38200D02*X27098Y38125D01*
X26873Y38200D02*X27023D01*
X26798Y38125D02*X26873Y38200D01*
X26798Y38125D02*Y37975D01*
X26873Y37900D01*
X27098Y38200D02*Y37975D01*
X27173Y37900D01*
X26873D02*X27023D01*
X27098Y37975D01*
X27353Y38500D02*Y37975D01*
X27428Y37900D01*
G04 Text: Maximum Dimensions: 2750 mils wide, 2500 mils high *
X20000Y26500D02*Y25900D01*
Y26500D02*X20225Y26275D01*
X20450Y26500D01*
Y25900D01*
X20855Y26200D02*X20930Y26125D01*
X20705Y26200D02*X20855D01*
X20630Y26125D02*X20705Y26200D01*
X20630Y26125D02*Y25975D01*
X20705Y25900D01*
X20930Y26200D02*Y25975D01*
X21005Y25900D01*
X20705D02*X20855D01*
X20930Y25975D01*
X21185Y26200D02*X21485Y25900D01*
X21185D02*X21485Y26200D01*
X21665Y26350D02*Y26275D01*
Y26125D02*Y25900D01*
X21890Y26125D02*Y25900D01*
Y26125D02*X21965Y26200D01*
X22040D01*
X22115Y26125D01*
Y25900D01*
Y26125D02*X22190Y26200D01*
X22265D01*
X22340Y26125D01*
Y25900D01*
X21815Y26200D02*X21890Y26125D01*
X22520Y26200D02*Y25975D01*
X22595Y25900D01*
X22745D01*
X22820Y25975D01*
Y26200D02*Y25975D01*
X23075Y26125D02*Y25900D01*
Y26125D02*X23150Y26200D01*
X23225D01*
X23300Y26125D01*
Y25900D01*
Y26125D02*X23375Y26200D01*
X23450D01*
X23525Y26125D01*
Y25900D01*
X23000Y26200D02*X23075Y26125D01*
X24051Y26500D02*Y25900D01*
X24276Y26500D02*X24351Y26425D01*
Y25975D01*
X24276Y25900D02*X24351Y25975D01*
X23976Y25900D02*X24276D01*
X23976Y26500D02*X24276D01*
X24531Y26350D02*Y26275D01*
Y26125D02*Y25900D01*
X24756Y26125D02*Y25900D01*
Y26125D02*X24831Y26200D01*
X24906D01*
X24981Y26125D01*
Y25900D01*
Y26125D02*X25056Y26200D01*
X25131D01*
X25206Y26125D01*
Y25900D01*
X24681Y26200D02*X24756Y26125D01*
X25461Y25900D02*X25686D01*
X25386Y25975D02*X25461Y25900D01*
X25386Y26125D02*Y25975D01*
Y26125D02*X25461Y26200D01*
X25611D01*
X25686Y26125D01*
X25386Y26050D02*X25686D01*
Y26125D02*Y26050D01*
X25941Y26125D02*Y25900D01*
Y26125D02*X26016Y26200D01*
X26091D01*
X26166Y26125D01*
Y25900D01*
X25866Y26200D02*X25941Y26125D01*
X26421Y25900D02*X26646D01*
X26721Y25975D01*
X26646Y26050D02*X26721Y25975D01*
X26421Y26050D02*X26646D01*
X26346Y26125D02*X26421Y26050D01*
X26346Y26125D02*X26421Y26200D01*
X26646D01*
X26721Y26125D01*
X26346Y25975D02*X26421Y25900D01*
X26901Y26350D02*Y26275D01*
Y26125D02*Y25900D01*
X27052Y26125D02*Y25975D01*
Y26125D02*X27127Y26200D01*
X27277D01*
X27352Y26125D01*
Y25975D01*
X27277Y25900D02*X27352Y25975D01*
X27127Y25900D02*X27277D01*
X27052Y25975D02*X27127Y25900D01*
X27607Y26125D02*Y25900D01*
Y26125D02*X27682Y26200D01*
X27757D01*
X27832Y26125D01*
Y25900D01*
X27532Y26200D02*X27607Y26125D01*
X28087Y25900D02*X28312D01*
X28387Y25975D01*
X28312Y26050D02*X28387Y25975D01*
X28087Y26050D02*X28312D01*
X28012Y26125D02*X28087Y26050D01*
X28012Y26125D02*X28087Y26200D01*
X28312D01*
X28387Y26125D01*
X28012Y25975D02*X28087Y25900D01*
X28567Y26275D02*X28642D01*
X28567Y26125D02*X28642D01*
X29092Y26425D02*X29167Y26500D01*
X29392D01*
X29467Y26425D01*
Y26275D01*
X29092Y25900D02*X29467Y26275D01*
X29092Y25900D02*X29467D01*
X29647D02*X30022Y26275D01*
Y26500D02*Y26275D01*
X29647Y26500D02*X30022D01*
X30203D02*X30503D01*
X30203D02*Y26200D01*
X30278Y26275D01*
X30428D01*
X30503Y26200D01*
Y25975D01*
X30428Y25900D02*X30503Y25975D01*
X30278Y25900D02*X30428D01*
X30203Y25975D02*X30278Y25900D01*
X30683Y25975D02*X30758Y25900D01*
X30683Y26425D02*Y25975D01*
Y26425D02*X30758Y26500D01*
X30908D01*
X30983Y26425D01*
Y25975D01*
X30908Y25900D02*X30983Y25975D01*
X30758Y25900D02*X30908D01*
X30683Y26050D02*X30983Y26350D01*
X31508Y26125D02*Y25900D01*
Y26125D02*X31583Y26200D01*
X31658D01*
X31733Y26125D01*
Y25900D01*
Y26125D02*X31808Y26200D01*
X31883D01*
X31958Y26125D01*
Y25900D01*
X31433Y26200D02*X31508Y26125D01*
X32138Y26350D02*Y26275D01*
Y26125D02*Y25900D01*
X32288Y26500D02*Y25975D01*
X32363Y25900D01*
X32588D02*X32813D01*
X32888Y25975D01*
X32813Y26050D02*X32888Y25975D01*
X32588Y26050D02*X32813D01*
X32513Y26125D02*X32588Y26050D01*
X32513Y26125D02*X32588Y26200D01*
X32813D01*
X32888Y26125D01*
X32513Y25975D02*X32588Y25900D01*
X33338Y26200D02*Y25975D01*
X33413Y25900D01*
X33488D01*
X33563Y25975D01*
Y26200D02*Y25975D01*
X33638Y25900D01*
X33713D01*
X33788Y25975D01*
Y26200D02*Y25975D01*
X33969Y26350D02*Y26275D01*
Y26125D02*Y25900D01*
X34419Y26500D02*Y25900D01*
X34344D02*X34419Y25975D01*
X34194Y25900D02*X34344D01*
X34119Y25975D02*X34194Y25900D01*
X34119Y26125D02*Y25975D01*
Y26125D02*X34194Y26200D01*
X34344D01*
X34419Y26125D01*
X34674Y25900D02*X34899D01*
X34599Y25975D02*X34674Y25900D01*
X34599Y26125D02*Y25975D01*
Y26125D02*X34674Y26200D01*
X34824D01*
X34899Y26125D01*
X34599Y26050D02*X34899D01*
Y26125D02*Y26050D01*
X35079Y25750D02*X35229Y25900D01*
X35679Y26425D02*X35754Y26500D01*
X35979D01*
X36054Y26425D01*
Y26275D01*
X35679Y25900D02*X36054Y26275D01*
X35679Y25900D02*X36054D01*
X36234Y26500D02*X36534D01*
X36234D02*Y26200D01*
X36309Y26275D01*
X36459D01*
X36534Y26200D01*
Y25975D01*
X36459Y25900D02*X36534Y25975D01*
X36309Y25900D02*X36459D01*
X36234Y25975D02*X36309Y25900D01*
X36714Y25975D02*X36789Y25900D01*
X36714Y26425D02*Y25975D01*
Y26425D02*X36789Y26500D01*
X36939D01*
X37014Y26425D01*
Y25975D01*
X36939Y25900D02*X37014Y25975D01*
X36789Y25900D02*X36939D01*
X36714Y26050D02*X37014Y26350D01*
X37195Y25975D02*X37270Y25900D01*
X37195Y26425D02*Y25975D01*
Y26425D02*X37270Y26500D01*
X37420D01*
X37495Y26425D01*
Y25975D01*
X37420Y25900D02*X37495Y25975D01*
X37270Y25900D02*X37420D01*
X37195Y26050D02*X37495Y26350D01*
X38020Y26125D02*Y25900D01*
Y26125D02*X38095Y26200D01*
X38170D01*
X38245Y26125D01*
Y25900D01*
Y26125D02*X38320Y26200D01*
X38395D01*
X38470Y26125D01*
Y25900D01*
X37945Y26200D02*X38020Y26125D01*
X38650Y26350D02*Y26275D01*
Y26125D02*Y25900D01*
X38800Y26500D02*Y25975D01*
X38875Y25900D01*
X39100D02*X39325D01*
X39400Y25975D01*
X39325Y26050D02*X39400Y25975D01*
X39100Y26050D02*X39325D01*
X39025Y26125D02*X39100Y26050D01*
X39025Y26125D02*X39100Y26200D01*
X39325D01*
X39400Y26125D01*
X39025Y25975D02*X39100Y25900D01*
X39850Y26500D02*Y25900D01*
Y26125D02*X39925Y26200D01*
X40075D01*
X40150Y26125D01*
Y25900D01*
X40331Y26350D02*Y26275D01*
Y26125D02*Y25900D01*
X40706Y26200D02*X40781Y26125D01*
X40556Y26200D02*X40706D01*
X40481Y26125D02*X40556Y26200D01*
X40481Y26125D02*Y25975D01*
X40556Y25900D01*
X40706D01*
X40781Y25975D01*
X40481Y25750D02*X40556Y25675D01*
X40706D01*
X40781Y25750D01*
Y26200D02*Y25750D01*
X40961Y26500D02*Y25900D01*
Y26125D02*X41036Y26200D01*
X41186D01*
X41261Y26125D01*
Y25900D01*
*G04 Outline ***
G54D13*X0Y0D02*X27500Y0D01*
X27500Y0D02*X27500Y25000D01*
X27500Y25000D02*X0Y25000D01*
X0Y25000D02*X0Y0D01*
G04 Text: Board outline is the centerline of this 10 mil rectangle - 0,0 to 2750,2500 mils *
G54D12*Y-800D02*X300D01*
X375Y-725D01*
Y-575D02*Y-725D01*
X300Y-500D02*X375Y-575D01*
X75Y-500D02*X300D01*
X75Y-200D02*Y-800D01*
X0Y-200D02*X300D01*
X375Y-275D01*
Y-425D01*
X300Y-500D02*X375Y-425D01*
X555Y-575D02*Y-725D01*
Y-575D02*X630Y-500D01*
X780D01*
X855Y-575D01*
Y-725D01*
X780Y-800D02*X855Y-725D01*
X630Y-800D02*X780D01*
X555Y-725D02*X630Y-800D01*
X1260Y-500D02*X1335Y-575D01*
X1110Y-500D02*X1260D01*
X1035Y-575D02*X1110Y-500D01*
X1035Y-575D02*Y-725D01*
X1110Y-800D01*
X1335Y-500D02*Y-725D01*
X1410Y-800D01*
X1110D02*X1260D01*
X1335Y-725D01*
X1665Y-575D02*Y-800D01*
Y-575D02*X1740Y-500D01*
X1890D01*
X1590D02*X1665Y-575D01*
X2370Y-200D02*Y-800D01*
X2295D02*X2370Y-725D01*
X2145Y-800D02*X2295D01*
X2070Y-725D02*X2145Y-800D01*
X2070Y-575D02*Y-725D01*
Y-575D02*X2145Y-500D01*
X2295D01*
X2370Y-575D01*
X2820D02*Y-725D01*
Y-575D02*X2895Y-500D01*
X3045D01*
X3120Y-575D01*
Y-725D01*
X3045Y-800D02*X3120Y-725D01*
X2895Y-800D02*X3045D01*
X2820Y-725D02*X2895Y-800D01*
X3300Y-500D02*Y-725D01*
X3375Y-800D01*
X3525D01*
X3600Y-725D01*
Y-500D02*Y-725D01*
X3856Y-200D02*Y-725D01*
X3931Y-800D01*
X3781Y-425D02*X3931D01*
X4081Y-200D02*Y-725D01*
X4156Y-800D01*
X4306Y-350D02*Y-425D01*
Y-575D02*Y-800D01*
X4531Y-575D02*Y-800D01*
Y-575D02*X4606Y-500D01*
X4681D01*
X4756Y-575D01*
Y-800D01*
X4456Y-500D02*X4531Y-575D01*
X5011Y-800D02*X5236D01*
X4936Y-725D02*X5011Y-800D01*
X4936Y-575D02*Y-725D01*
Y-575D02*X5011Y-500D01*
X5161D01*
X5236Y-575D01*
X4936Y-650D02*X5236D01*
Y-575D02*Y-650D01*
X5686Y-350D02*Y-425D01*
Y-575D02*Y-800D01*
X5911D02*X6136D01*
X6211Y-725D01*
X6136Y-650D02*X6211Y-725D01*
X5911Y-650D02*X6136D01*
X5836Y-575D02*X5911Y-650D01*
X5836Y-575D02*X5911Y-500D01*
X6136D01*
X6211Y-575D01*
X5836Y-725D02*X5911Y-800D01*
X6737Y-200D02*Y-725D01*
X6812Y-800D01*
X6662Y-425D02*X6812D01*
X6962Y-200D02*Y-800D01*
Y-575D02*X7037Y-500D01*
X7187D01*
X7262Y-575D01*
Y-800D01*
X7517D02*X7742D01*
X7442Y-725D02*X7517Y-800D01*
X7442Y-575D02*Y-725D01*
Y-575D02*X7517Y-500D01*
X7667D01*
X7742Y-575D01*
X7442Y-650D02*X7742D01*
Y-575D02*Y-650D01*
X8267Y-500D02*X8492D01*
X8192Y-575D02*X8267Y-500D01*
X8192Y-575D02*Y-725D01*
X8267Y-800D01*
X8492D01*
X8747D02*X8972D01*
X8672Y-725D02*X8747Y-800D01*
X8672Y-575D02*Y-725D01*
Y-575D02*X8747Y-500D01*
X8897D01*
X8972Y-575D01*
X8672Y-650D02*X8972D01*
Y-575D02*Y-650D01*
X9227Y-575D02*Y-800D01*
Y-575D02*X9302Y-500D01*
X9377D01*
X9452Y-575D01*
Y-800D01*
X9152Y-500D02*X9227Y-575D01*
X9708Y-200D02*Y-725D01*
X9783Y-800D01*
X9633Y-425D02*X9783D01*
X10008Y-800D02*X10233D01*
X9933Y-725D02*X10008Y-800D01*
X9933Y-575D02*Y-725D01*
Y-575D02*X10008Y-500D01*
X10158D01*
X10233Y-575D01*
X9933Y-650D02*X10233D01*
Y-575D02*Y-650D01*
X10488Y-575D02*Y-800D01*
Y-575D02*X10563Y-500D01*
X10713D01*
X10413D02*X10488Y-575D01*
X10893Y-200D02*Y-725D01*
X10968Y-800D01*
X11118Y-350D02*Y-425D01*
Y-575D02*Y-800D01*
X11343Y-575D02*Y-800D01*
Y-575D02*X11418Y-500D01*
X11493D01*
X11568Y-575D01*
Y-800D01*
X11268Y-500D02*X11343Y-575D01*
X11823Y-800D02*X12048D01*
X11748Y-725D02*X11823Y-800D01*
X11748Y-575D02*Y-725D01*
Y-575D02*X11823Y-500D01*
X11973D01*
X12048Y-575D01*
X11748Y-650D02*X12048D01*
Y-575D02*Y-650D01*
X12499Y-575D02*Y-725D01*
Y-575D02*X12574Y-500D01*
X12724D01*
X12799Y-575D01*
Y-725D01*
X12724Y-800D02*X12799Y-725D01*
X12574Y-800D02*X12724D01*
X12499Y-725D02*X12574Y-800D01*
X13054Y-275D02*Y-800D01*
Y-275D02*X13129Y-200D01*
X13204D01*
X12979Y-500D02*X13129D01*
X13699Y-200D02*Y-725D01*
X13774Y-800D01*
X13624Y-425D02*X13774D01*
X13924Y-200D02*Y-800D01*
Y-575D02*X13999Y-500D01*
X14149D01*
X14224Y-575D01*
Y-800D01*
X14404Y-350D02*Y-425D01*
Y-575D02*Y-800D01*
X14629D02*X14854D01*
X14929Y-725D01*
X14854Y-650D02*X14929Y-725D01*
X14629Y-650D02*X14854D01*
X14554Y-575D02*X14629Y-650D01*
X14554Y-575D02*X14629Y-500D01*
X14854D01*
X14929Y-575D01*
X14554Y-725D02*X14629Y-800D01*
X15454D02*X15604D01*
X15529Y-200D02*Y-800D01*
X15379Y-350D02*X15529Y-200D01*
X15785Y-725D02*X15860Y-800D01*
X15785Y-275D02*Y-725D01*
Y-275D02*X15860Y-200D01*
X16010D01*
X16085Y-275D01*
Y-725D01*
X16010Y-800D02*X16085Y-725D01*
X15860Y-800D02*X16010D01*
X15785Y-650D02*X16085Y-350D01*
X16610Y-575D02*Y-800D01*
Y-575D02*X16685Y-500D01*
X16760D01*
X16835Y-575D01*
Y-800D01*
Y-575D02*X16910Y-500D01*
X16985D01*
X17060Y-575D01*
Y-800D01*
X16535Y-500D02*X16610Y-575D01*
X17240Y-350D02*Y-425D01*
Y-575D02*Y-800D01*
X17390Y-200D02*Y-725D01*
X17465Y-800D01*
X17960Y-575D02*Y-800D01*
Y-575D02*X18035Y-500D01*
X18185D01*
X17885D02*X17960Y-575D01*
X18440Y-800D02*X18665D01*
X18365Y-725D02*X18440Y-800D01*
X18365Y-575D02*Y-725D01*
Y-575D02*X18440Y-500D01*
X18590D01*
X18665Y-575D01*
X18365Y-650D02*X18665D01*
Y-575D02*Y-650D01*
X18921Y-500D02*X19146D01*
X18846Y-575D02*X18921Y-500D01*
X18846Y-575D02*Y-725D01*
X18921Y-800D01*
X19146D01*
X19401Y-200D02*Y-725D01*
X19476Y-800D01*
X19326Y-425D02*X19476D01*
X19851Y-500D02*X19926Y-575D01*
X19701Y-500D02*X19851D01*
X19626Y-575D02*X19701Y-500D01*
X19626Y-575D02*Y-725D01*
X19701Y-800D01*
X19926Y-500D02*Y-725D01*
X20001Y-800D01*
X19701D02*X19851D01*
X19926Y-725D01*
X20256Y-575D02*Y-800D01*
Y-575D02*X20331Y-500D01*
X20406D01*
X20481Y-575D01*
Y-800D01*
X20181Y-500D02*X20256Y-575D01*
X20886Y-500D02*X20961Y-575D01*
X20736Y-500D02*X20886D01*
X20661Y-575D02*X20736Y-500D01*
X20661Y-575D02*Y-725D01*
X20736Y-800D01*
X20886D01*
X20961Y-725D01*
X20661Y-950D02*X20736Y-1025D01*
X20886D01*
X20961Y-950D01*
Y-500D02*Y-950D01*
X21141Y-200D02*Y-725D01*
X21216Y-800D01*
X21441D02*X21666D01*
X21366Y-725D02*X21441Y-800D01*
X21366Y-575D02*Y-725D01*
Y-575D02*X21441Y-500D01*
X21591D01*
X21666Y-575D01*
X21366Y-650D02*X21666D01*
Y-575D02*Y-650D01*
X22117Y-500D02*X22417D01*
X22867Y-725D02*X22942Y-800D01*
X22867Y-275D02*Y-725D01*
Y-275D02*X22942Y-200D01*
X23092D01*
X23167Y-275D01*
Y-725D01*
X23092Y-800D02*X23167Y-725D01*
X22942Y-800D02*X23092D01*
X22867Y-650D02*X23167Y-350D01*
X23347Y-950D02*X23497Y-800D01*
X23677Y-725D02*X23752Y-800D01*
X23677Y-275D02*Y-725D01*
Y-275D02*X23752Y-200D01*
X23902D01*
X23977Y-275D01*
Y-725D01*
X23902Y-800D02*X23977Y-725D01*
X23752Y-800D02*X23902D01*
X23677Y-650D02*X23977Y-350D01*
X24502Y-200D02*Y-725D01*
X24577Y-800D01*
X24427Y-425D02*X24577D01*
X24727Y-575D02*Y-725D01*
Y-575D02*X24802Y-500D01*
X24952D01*
X25027Y-575D01*
Y-725D01*
X24952Y-800D02*X25027Y-725D01*
X24802Y-800D02*X24952D01*
X24727Y-725D02*X24802Y-800D01*
X25477Y-275D02*X25552Y-200D01*
X25777D01*
X25852Y-275D01*
Y-425D01*
X25477Y-800D02*X25852Y-425D01*
X25477Y-800D02*X25852D01*
X26033D02*X26408Y-425D01*
Y-200D02*Y-425D01*
X26033Y-200D02*X26408D01*
X26588D02*X26888D01*
X26588D02*Y-500D01*
X26663Y-425D01*
X26813D01*
X26888Y-500D01*
Y-725D01*
X26813Y-800D02*X26888Y-725D01*
X26663Y-800D02*X26813D01*
X26588Y-725D02*X26663Y-800D01*
X27068Y-725D02*X27143Y-800D01*
X27068Y-275D02*Y-725D01*
Y-275D02*X27143Y-200D01*
X27293D01*
X27368Y-275D01*
Y-725D01*
X27293Y-800D02*X27368Y-725D01*
X27143Y-800D02*X27293D01*
X27068Y-650D02*X27368Y-350D01*
X27548Y-950D02*X27698Y-800D01*
X27878Y-275D02*X27953Y-200D01*
X28178D01*
X28253Y-275D01*
Y-425D01*
X27878Y-800D02*X28253Y-425D01*
X27878Y-800D02*X28253D01*
X28433Y-200D02*X28733D01*
X28433D02*Y-500D01*
X28508Y-425D01*
X28658D01*
X28733Y-500D01*
Y-725D01*
X28658Y-800D02*X28733Y-725D01*
X28508Y-800D02*X28658D01*
X28433Y-725D02*X28508Y-800D01*
X28914Y-725D02*X28989Y-800D01*
X28914Y-275D02*Y-725D01*
Y-275D02*X28989Y-200D01*
X29139D01*
X29214Y-275D01*
Y-725D01*
X29139Y-800D02*X29214Y-725D01*
X28989Y-800D02*X29139D01*
X28914Y-650D02*X29214Y-350D01*
X29394Y-725D02*X29469Y-800D01*
X29394Y-275D02*Y-725D01*
Y-275D02*X29469Y-200D01*
X29619D01*
X29694Y-275D01*
Y-725D01*
X29619Y-800D02*X29694Y-725D01*
X29469Y-800D02*X29619D01*
X29394Y-650D02*X29694Y-350D01*
X30219Y-575D02*Y-800D01*
Y-575D02*X30294Y-500D01*
X30369D01*
X30444Y-575D01*
Y-800D01*
Y-575D02*X30519Y-500D01*
X30594D01*
X30669Y-575D01*
Y-800D01*
X30144Y-500D02*X30219Y-575D01*
X30849Y-350D02*Y-425D01*
Y-575D02*Y-800D01*
X30999Y-200D02*Y-725D01*
X31074Y-800D01*
X31299D02*X31524D01*
X31599Y-725D01*
X31524Y-650D02*X31599Y-725D01*
X31299Y-650D02*X31524D01*
X31224Y-575D02*X31299Y-650D01*
X31224Y-575D02*X31299Y-500D01*
X31524D01*
X31599Y-575D01*
X31224Y-725D02*X31299Y-800D01*
G04 Text: Date: Fri Feb 10 03:52:58 2006 UTC *
X20075Y28000D02*Y27400D01*
X20300Y28000D02*X20375Y27925D01*
Y27475D01*
X20300Y27400D02*X20375Y27475D01*
X20000Y27400D02*X20300D01*
X20000Y28000D02*X20300D01*
X20780Y27700D02*X20855Y27625D01*
X20630Y27700D02*X20780D01*
X20555Y27625D02*X20630Y27700D01*
X20555Y27625D02*Y27475D01*
X20630Y27400D01*
X20855Y27700D02*Y27475D01*
X20930Y27400D01*
X20630D02*X20780D01*
X20855Y27475D01*
X21185Y28000D02*Y27475D01*
X21260Y27400D01*
X21110Y27775D02*X21260D01*
X21485Y27400D02*X21710D01*
X21410Y27475D02*X21485Y27400D01*
X21410Y27625D02*Y27475D01*
Y27625D02*X21485Y27700D01*
X21635D01*
X21710Y27625D01*
X21410Y27550D02*X21710D01*
Y27625D02*Y27550D01*
X21890Y27775D02*X21965D01*
X21890Y27625D02*X21965D01*
X22415Y28000D02*Y27400D01*
Y28000D02*X22715D01*
X22415Y27700D02*X22640D01*
X22970Y27625D02*Y27400D01*
Y27625D02*X23045Y27700D01*
X23195D01*
X22895D02*X22970Y27625D01*
X23376Y27850D02*Y27775D01*
Y27625D02*Y27400D01*
X23796Y28000D02*Y27400D01*
Y28000D02*X24096D01*
X23796Y27700D02*X24021D01*
X24351Y27400D02*X24576D01*
X24276Y27475D02*X24351Y27400D01*
X24276Y27625D02*Y27475D01*
Y27625D02*X24351Y27700D01*
X24501D01*
X24576Y27625D01*
X24276Y27550D02*X24576D01*
Y27625D02*Y27550D01*
X24756Y28000D02*Y27400D01*
Y27475D02*X24831Y27400D01*
X24981D01*
X25056Y27475D01*
Y27625D02*Y27475D01*
X24981Y27700D02*X25056Y27625D01*
X24831Y27700D02*X24981D01*
X24756Y27625D02*X24831Y27700D01*
X25581Y27400D02*X25731D01*
X25656Y28000D02*Y27400D01*
X25506Y27850D02*X25656Y28000D01*
X25911Y27475D02*X25986Y27400D01*
X25911Y27925D02*Y27475D01*
Y27925D02*X25986Y28000D01*
X26136D01*
X26211Y27925D01*
Y27475D01*
X26136Y27400D02*X26211Y27475D01*
X25986Y27400D02*X26136D01*
X25911Y27550D02*X26211Y27850D01*
X26661Y27475D02*X26736Y27400D01*
X26661Y27925D02*Y27475D01*
Y27925D02*X26736Y28000D01*
X26886D01*
X26961Y27925D01*
Y27475D01*
X26886Y27400D02*X26961Y27475D01*
X26736Y27400D02*X26886D01*
X26661Y27550D02*X26961Y27850D01*
X27142Y27925D02*X27217Y28000D01*
X27367D01*
X27442Y27925D01*
Y27475D01*
X27367Y27400D02*X27442Y27475D01*
X27217Y27400D02*X27367D01*
X27142Y27475D02*X27217Y27400D01*
Y27700D02*X27442D01*
X27622Y27775D02*X27697D01*
X27622Y27625D02*X27697D01*
X27877Y28000D02*X28177D01*
X27877D02*Y27700D01*
X27952Y27775D01*
X28102D01*
X28177Y27700D01*
Y27475D01*
X28102Y27400D02*X28177Y27475D01*
X27952Y27400D02*X28102D01*
X27877Y27475D02*X27952Y27400D01*
X28357Y27925D02*X28432Y28000D01*
X28657D01*
X28732Y27925D01*
Y27775D01*
X28357Y27400D02*X28732Y27775D01*
X28357Y27400D02*X28732D01*
X28912Y27775D02*X28987D01*
X28912Y27625D02*X28987D01*
X29167Y28000D02*X29467D01*
X29167D02*Y27700D01*
X29242Y27775D01*
X29392D01*
X29467Y27700D01*
Y27475D01*
X29392Y27400D02*X29467Y27475D01*
X29242Y27400D02*X29392D01*
X29167Y27475D02*X29242Y27400D01*
X29648Y27475D02*X29723Y27400D01*
X29648Y27625D02*Y27475D01*
Y27625D02*X29723Y27700D01*
X29873D01*
X29948Y27625D01*
Y27475D01*
X29873Y27400D02*X29948Y27475D01*
X29723Y27400D02*X29873D01*
X29648Y27775D02*X29723Y27700D01*
X29648Y27925D02*Y27775D01*
Y27925D02*X29723Y28000D01*
X29873D01*
X29948Y27925D01*
Y27775D01*
X29873Y27700D02*X29948Y27775D01*
X30398Y27925D02*X30473Y28000D01*
X30698D01*
X30773Y27925D01*
Y27775D01*
X30398Y27400D02*X30773Y27775D01*
X30398Y27400D02*X30773D01*
X30953Y27475D02*X31028Y27400D01*
X30953Y27925D02*Y27475D01*
Y27925D02*X31028Y28000D01*
X31178D01*
X31253Y27925D01*
Y27475D01*
X31178Y27400D02*X31253Y27475D01*
X31028Y27400D02*X31178D01*
X30953Y27550D02*X31253Y27850D01*
X31433Y27475D02*X31508Y27400D01*
X31433Y27925D02*Y27475D01*
Y27925D02*X31508Y28000D01*
X31658D01*
X31733Y27925D01*
Y27475D01*
X31658Y27400D02*X31733Y27475D01*
X31508Y27400D02*X31658D01*
X31433Y27550D02*X31733Y27850D01*
X32138Y28000D02*X32213Y27925D01*
X31988Y28000D02*X32138D01*
X31913Y27925D02*X31988Y28000D01*
X31913Y27925D02*Y27475D01*
X31988Y27400D01*
X32138Y27700D02*X32213Y27625D01*
X31913Y27700D02*X32138D01*
X31988Y27400D02*X32138D01*
X32213Y27475D01*
Y27625D02*Y27475D01*
X32663Y28000D02*Y27475D01*
X32738Y27400D01*
X32888D01*
X32963Y27475D01*
Y28000D02*Y27475D01*
X33143Y28000D02*X33443D01*
X33293D02*Y27400D01*
X33699D02*X33924D01*
X33624Y27475D02*X33699Y27400D01*
X33624Y27925D02*Y27475D01*
Y27925D02*X33699Y28000D01*
X33924D01*
G04 Text: Author: Matt Ettus *
X20000Y29425D02*Y28900D01*
Y29425D02*X20075Y29500D01*
X20300D01*
X20375Y29425D01*
Y28900D01*
X20000Y29200D02*X20375D01*
X20555D02*Y28975D01*
X20630Y28900D01*
X20780D01*
X20855Y28975D01*
Y29200D02*Y28975D01*
X21110Y29500D02*Y28975D01*
X21185Y28900D01*
X21035Y29275D02*X21185D01*
X21335Y29500D02*Y28900D01*
Y29125D02*X21410Y29200D01*
X21560D01*
X21635Y29125D01*
Y28900D01*
X21815Y29125D02*Y28975D01*
Y29125D02*X21890Y29200D01*
X22040D01*
X22115Y29125D01*
Y28975D01*
X22040Y28900D02*X22115Y28975D01*
X21890Y28900D02*X22040D01*
X21815Y28975D02*X21890Y28900D01*
X22370Y29125D02*Y28900D01*
Y29125D02*X22445Y29200D01*
X22595D01*
X22295D02*X22370Y29125D01*
X22775Y29275D02*X22850D01*
X22775Y29125D02*X22850D01*
X23301Y29500D02*Y28900D01*
Y29500D02*X23526Y29275D01*
X23751Y29500D01*
Y28900D01*
X24156Y29200D02*X24231Y29125D01*
X24006Y29200D02*X24156D01*
X23931Y29125D02*X24006Y29200D01*
X23931Y29125D02*Y28975D01*
X24006Y28900D01*
X24231Y29200D02*Y28975D01*
X24306Y28900D01*
X24006D02*X24156D01*
X24231Y28975D01*
X24561Y29500D02*Y28975D01*
X24636Y28900D01*
X24486Y29275D02*X24636D01*
X24861Y29500D02*Y28975D01*
X24936Y28900D01*
X24786Y29275D02*X24936D01*
X25356Y29200D02*X25581D01*
X25356Y28900D02*X25656D01*
X25356Y29500D02*Y28900D01*
Y29500D02*X25656D01*
X25911D02*Y28975D01*
X25986Y28900D01*
X25836Y29275D02*X25986D01*
X26211Y29500D02*Y28975D01*
X26286Y28900D01*
X26136Y29275D02*X26286D01*
X26437Y29200D02*Y28975D01*
X26512Y28900D01*
X26662D01*
X26737Y28975D01*
Y29200D02*Y28975D01*
X26992Y28900D02*X27217D01*
X27292Y28975D01*
X27217Y29050D02*X27292Y28975D01*
X26992Y29050D02*X27217D01*
X26917Y29125D02*X26992Y29050D01*
X26917Y29125D02*X26992Y29200D01*
X27217D01*
X27292Y29125D01*
X26917Y28975D02*X26992Y28900D01*
G04 Text: Title: TX Daughterboard - Fabrication Drawing *
X20000Y31000D02*X20300D01*
X20150D02*Y30400D01*
X20480Y30850D02*Y30775D01*
Y30625D02*Y30400D01*
X20705Y31000D02*Y30475D01*
X20780Y30400D01*
X20630Y30775D02*X20780D01*
X20930Y31000D02*Y30475D01*
X21005Y30400D01*
X21230D02*X21455D01*
X21155Y30475D02*X21230Y30400D01*
X21155Y30625D02*Y30475D01*
Y30625D02*X21230Y30700D01*
X21380D01*
X21455Y30625D01*
X21155Y30550D02*X21455D01*
Y30625D02*Y30550D01*
X21635Y30775D02*X21710D01*
X21635Y30625D02*X21710D01*
X22160Y31000D02*X22460D01*
X22310D02*Y30400D01*
X22641Y31000D02*Y30925D01*
X23016Y30550D01*
Y30400D01*
X22641Y30550D02*Y30400D01*
Y30550D02*X23016Y30925D01*
Y31000D02*Y30925D01*
X23541Y31000D02*Y30400D01*
X23766Y31000D02*X23841Y30925D01*
Y30475D01*
X23766Y30400D02*X23841Y30475D01*
X23466Y30400D02*X23766D01*
X23466Y31000D02*X23766D01*
X24246Y30700D02*X24321Y30625D01*
X24096Y30700D02*X24246D01*
X24021Y30625D02*X24096Y30700D01*
X24021Y30625D02*Y30475D01*
X24096Y30400D01*
X24321Y30700D02*Y30475D01*
X24396Y30400D01*
X24096D02*X24246D01*
X24321Y30475D01*
X24576Y30700D02*Y30475D01*
X24651Y30400D01*
X24801D01*
X24876Y30475D01*
Y30700D02*Y30475D01*
X25281Y30700D02*X25356Y30625D01*
X25131Y30700D02*X25281D01*
X25056Y30625D02*X25131Y30700D01*
X25056Y30625D02*Y30475D01*
X25131Y30400D01*
X25281D01*
X25356Y30475D01*
X25056Y30250D02*X25131Y30175D01*
X25281D01*
X25356Y30250D01*
Y30700D02*Y30250D01*
X25536Y31000D02*Y30400D01*
Y30625D02*X25611Y30700D01*
X25761D01*
X25836Y30625D01*
Y30400D01*
X26091Y31000D02*Y30475D01*
X26166Y30400D01*
X26016Y30775D02*X26166D01*
X26392Y30400D02*X26617D01*
X26317Y30475D02*X26392Y30400D01*
X26317Y30625D02*Y30475D01*
Y30625D02*X26392Y30700D01*
X26542D01*
X26617Y30625D01*
X26317Y30550D02*X26617D01*
Y30625D02*Y30550D01*
X26872Y30625D02*Y30400D01*
Y30625D02*X26947Y30700D01*
X27097D01*
X26797D02*X26872Y30625D01*
X27277Y31000D02*Y30400D01*
Y30475D02*X27352Y30400D01*
X27502D01*
X27577Y30475D01*
Y30625D02*Y30475D01*
X27502Y30700D02*X27577Y30625D01*
X27352Y30700D02*X27502D01*
X27277Y30625D02*X27352Y30700D01*
X27757Y30625D02*Y30475D01*
Y30625D02*X27832Y30700D01*
X27982D01*
X28057Y30625D01*
Y30475D01*
X27982Y30400D02*X28057Y30475D01*
X27832Y30400D02*X27982D01*
X27757Y30475D02*X27832Y30400D01*
X28462Y30700D02*X28537Y30625D01*
X28312Y30700D02*X28462D01*
X28237Y30625D02*X28312Y30700D01*
X28237Y30625D02*Y30475D01*
X28312Y30400D01*
X28537Y30700D02*Y30475D01*
X28612Y30400D01*
X28312D02*X28462D01*
X28537Y30475D01*
X28867Y30625D02*Y30400D01*
Y30625D02*X28942Y30700D01*
X29092D01*
X28792D02*X28867Y30625D01*
X29573Y31000D02*Y30400D01*
X29498D02*X29573Y30475D01*
X29348Y30400D02*X29498D01*
X29273Y30475D02*X29348Y30400D01*
X29273Y30625D02*Y30475D01*
Y30625D02*X29348Y30700D01*
X29498D01*
X29573Y30625D01*
X30023Y30700D02*X30323D01*
X30773Y31000D02*Y30400D01*
Y31000D02*X31073D01*
X30773Y30700D02*X30998D01*
X31478D02*X31553Y30625D01*
X31328Y30700D02*X31478D01*
X31253Y30625D02*X31328Y30700D01*
X31253Y30625D02*Y30475D01*
X31328Y30400D01*
X31553Y30700D02*Y30475D01*
X31628Y30400D01*
X31328D02*X31478D01*
X31553Y30475D01*
X31808Y31000D02*Y30400D01*
Y30475D02*X31883Y30400D01*
X32033D01*
X32108Y30475D01*
Y30625D02*Y30475D01*
X32033Y30700D02*X32108Y30625D01*
X31883Y30700D02*X32033D01*
X31808Y30625D02*X31883Y30700D01*
X32363Y30625D02*Y30400D01*
Y30625D02*X32438Y30700D01*
X32588D01*
X32288D02*X32363Y30625D01*
X32768Y30850D02*Y30775D01*
Y30625D02*Y30400D01*
X32994Y30700D02*X33219D01*
X32919Y30625D02*X32994Y30700D01*
X32919Y30625D02*Y30475D01*
X32994Y30400D01*
X33219D01*
X33624Y30700D02*X33699Y30625D01*
X33474Y30700D02*X33624D01*
X33399Y30625D02*X33474Y30700D01*
X33399Y30625D02*Y30475D01*
X33474Y30400D01*
X33699Y30700D02*Y30475D01*
X33774Y30400D01*
X33474D02*X33624D01*
X33699Y30475D01*
X34029Y31000D02*Y30475D01*
X34104Y30400D01*
X33954Y30775D02*X34104D01*
X34254Y30850D02*Y30775D01*
Y30625D02*Y30400D01*
X34404Y30625D02*Y30475D01*
Y30625D02*X34479Y30700D01*
X34629D01*
X34704Y30625D01*
Y30475D01*
X34629Y30400D02*X34704Y30475D01*
X34479Y30400D02*X34629D01*
X34404Y30475D02*X34479Y30400D01*
X34959Y30625D02*Y30400D01*
Y30625D02*X35034Y30700D01*
X35109D01*
X35184Y30625D01*
Y30400D01*
X34884Y30700D02*X34959Y30625D01*
X35709Y31000D02*Y30400D01*
X35934Y31000D02*X36009Y30925D01*
Y30475D01*
X35934Y30400D02*X36009Y30475D01*
X35634Y30400D02*X35934D01*
X35634Y31000D02*X35934D01*
X36265Y30625D02*Y30400D01*
Y30625D02*X36340Y30700D01*
X36490D01*
X36190D02*X36265Y30625D01*
X36895Y30700D02*X36970Y30625D01*
X36745Y30700D02*X36895D01*
X36670Y30625D02*X36745Y30700D01*
X36670Y30625D02*Y30475D01*
X36745Y30400D01*
X36970Y30700D02*Y30475D01*
X37045Y30400D01*
X36745D02*X36895D01*
X36970Y30475D01*
X37225Y30700D02*Y30475D01*
X37300Y30400D01*
X37375D01*
X37450Y30475D01*
Y30700D02*Y30475D01*
X37525Y30400D01*
X37600D01*
X37675Y30475D01*
Y30700D02*Y30475D01*
X37855Y30850D02*Y30775D01*
Y30625D02*Y30400D01*
X38080Y30625D02*Y30400D01*
Y30625D02*X38155Y30700D01*
X38230D01*
X38305Y30625D01*
Y30400D01*
X38005Y30700D02*X38080Y30625D01*
X38710Y30700D02*X38785Y30625D01*
X38560Y30700D02*X38710D01*
X38485Y30625D02*X38560Y30700D01*
X38485Y30625D02*Y30475D01*
X38560Y30400D01*
X38710D01*
X38785Y30475D01*
X38485Y30250D02*X38560Y30175D01*
X38710D01*
X38785Y30250D01*
Y30700D02*Y30250D01*
M02*
