<?xml version="1.0" encoding="UTF-8" standalone="no"?>
<!-- Created with Inkscape (http://www.inkscape.org/) -->

<svg
   xmlns:dc="http://purl.org/dc/elements/1.1/"
   xmlns:cc="http://creativecommons.org/ns#"
   xmlns:rdf="http://www.w3.org/1999/02/22-rdf-syntax-ns#"
   xmlns:svg="http://www.w3.org/2000/svg"
   xmlns="http://www.w3.org/2000/svg"
   xmlns:sodipodi="http://sodipodi.sourceforge.net/DTD/sodipodi-0.dtd"
   xmlns:inkscape="http://www.inkscape.org/namespaces/inkscape"
   version="1.1"
   width="650"
   height="150"
   id="svg3965"
   sodipodi:docname="gnuradio_logo.svg"
   inkscape:version="0.92.3 (2405546, 2018-03-11)">
  <sodipodi:namedview
     pagecolor="#ffffff"
     bordercolor="#666666"
     borderopacity="1"
     objecttolerance="10"
     gridtolerance="10"
     guidetolerance="10"
     inkscape:pageopacity="0"
     inkscape:pageshadow="2"
     inkscape:window-width="1918"
     inkscape:window-height="1058"
     id="namedview1036"
     showgrid="false"
     inkscape:zoom="22.627417"
     inkscape:cx="628.94005"
     inkscape:cy="57.461991"
     inkscape:window-x="0"
     inkscape:window-y="20"
     inkscape:window-maximized="0"
     inkscape:current-layer="layer1" />
  <defs
     id="defs3967" />
  <metadata
     id="metadata3970">
    <rdf:RDF>
      <cc:Work
         rdf:about="">
        <dc:format>image/svg+xml</dc:format>
        <dc:type
           rdf:resource="http://purl.org/dc/dcmitype/StillImage" />
        <dc:title></dc:title>
      </cc:Work>
    </rdf:RDF>
  </metadata>
  <g
     transform="translate(-43.226591,-14.808419)"
     id="layer1">
    <g
       style="fill-rule:evenodd"
       id="_76325728"
       transform="matrix(3.543307,0,0,3.543307,-157.7788,-157.40844)">
      <path
         inkscape:connector-curvature="0"
         style="fill:#838281"
         id="_76325896"
         d="m 101.557,64.3855 c -0.3196,-0.5555 -0.7713,-1.0194 -1.278,-1.4073 -0.99,-0.6902 -2.2379,-0.8971 -3.4221,-0.8971 -1.771,0 -3.2664,0.6046 -4.3863,1.9932 -1.2413,1.6438 -1.6268,3.729 -1.6268,5.7476 0,2.0229 0.386,4.1414 1.6932,5.751 1.161,1.441 2.7658,1.9954 4.5871,1.9954 1.3327,0 2.5854,-0.3366 3.6077,-1.2214 0.9806,-0.8903 1.514,-2.065 1.7664,-3.3426 h -3.6847 v -4.1371 h 8.4151 v 9.0591 3.0536 0.7841 0.2612 0.0382 h -4.3907 v -2.6132 c -0.6581,0.7723 -1.4409,1.4127 -2.3727,1.862 l -0.004,0.002 -0.004,0.0017 c -1.2289,0.5205 -2.536,0.7475 -3.8672,0.7475 -3.1072,0 -5.8543,-0.961 -7.927,-3.3225 -2.2463,-2.4498 -2.979,-5.6727 -2.979,-8.919 0,-3.21 0.7195,-6.3993 2.9109,-8.8452 2.135,-2.3715 4.8959,-3.3906 8.0633,-3.3906 2.5639,0 5.0743,0.5551 7.1663,2.0986 l 0.003,0.0023 0.003,0.0025 c 1.8708,1.5083 2.972,3.4674 3.3278,5.8432 l 0.0312,0.2085 h -3.4048 c -1.0087,0 -1.7578,-0.4661 -2.2278,-1.3557 z" />
      <path
         inkscape:connector-curvature="0"
         style="fill:#838281"
         id="_76325824"
         d="m 109.029,60.2103 v 17.0272 4.5358 0.2519 h 4.8993 V 81.7733 77.2375 65.1814 l 9.8705,16.5919 0.1575,0.2519 h 1.3007 l 3.6573,-0.0015 -0.001,-0.2504 v -24.156 h -4.8993 v 16.592 l -9.8045,-16.592 h -2.6589 c -0.6991,0.0479 -1.2964,0.3167 -1.7865,0.8067 -0.49,0.4899 -0.7349,1.0814 -0.7349,1.7863 z" />
      <path
         inkscape:connector-curvature="0"
         style="fill:#838281"
         id="_76325752"
         d="m 130.646,60.276 v 12.9534 c 0,6.2259 2.5172,8.8248 9.4948,8.8248 7.3457,0 9.8276,-2.3814 9.8276,-8.8248 V 57.6173 h -4.9711 v 15.0564 c 0,3.4739 -1.172,5.1863 -4.741,5.1863 -3.5532,0 -4.5677,-1.7773 -4.5677,-5.1863 V 57.6173 h -2.5213 c -0.699,0 -1.2965,0.2689 -1.7864,0.8066 -0.49,0.5377 -0.7349,1.1532 -0.7349,1.8521 z" />
    </g>
    <g
       style="fill-rule:evenodd"
       id="_76325416"
       transform="matrix(3.543307,0,0,3.543307,-157.7788,-157.40844)">
      <g
         id="g3451">
        <path
           inkscape:connector-curvature="0"
           style="fill:#72706f"
           id="_76325656"
           d="m 149.943,57.6427 h -4.9204 v 15.031 c 0,3.4431 -1.1443,5.2117 -4.7663,5.2117 -3.615,0 -4.5932,-1.8476 -4.5932,-5.2117 v -15.031 h -2.4959 c -0.7065,0 -1.2928,0.2774 -1.7675,0.7984 -0.4754,0.5215 -0.7283,1.1279 -0.7283,1.8349 v 12.9534 c 0,6.6559 2.9906,8.7994 9.4694,8.7994 2.6312,0 6.0827,-0.2483 7.9875,-2.3243 1.555,-1.6948 1.8147,-4.2793 1.8147,-6.4751 z" />
      </g>
      <g
         id="g3454">
        <path
           inkscape:connector-curvature="0"
           style="fill:#72706f"
           id="_76325560"
           d="m 109.054,82 h 4.8486 V 65.089 l 9.9175,16.671 0.1501,0.24 h 1.2865 l 3.6317,-0.0017 -10e-4,-0.225 V 57.6427 h -4.8485 v 16.6595 l -9.8445,-16.6595 h -2.6431 c -0.6887,0.0471 -1.2813,0.3108 -1.7697,0.7993 -0.4895,0.4893 -0.7276,1.0765 -0.7276,1.7684 z" />
      </g>
      <g
         id="g3457">
        <path
           inkscape:connector-curvature="0"
           style="fill:#72706f"
           id="_76325464"
           d="m 107.16,65.7158 -0.0267,-0.1793 c -0.3546,-2.368 -1.4522,-4.3225 -3.319,-5.8274 l -0.002,-0.0019 -0.003,-0.0021 c -2.0872,-1.54 -4.5934,-2.0935 -7.1511,-2.0935 -3.1525,0 -5.9099,1.0111 -8.0445,3.3821 -2.1878,2.4419 -2.9044,5.6277 -2.9044,8.8282 0,3.2361 0.7296,6.4558 2.9727,8.9021 2.0725,2.3614 4.8172,3.3141 7.9078,3.3141 1.3267,0 2.6326,-0.2268 3.8572,-0.7456 l 0.003,-0.0014 0.004,-0.0018 c 0.9199,-0.4434 1.7038,-1.0802 2.3645,-1.8556 l 0.0447,-0.0525 v 2.6569 h 4.3401 V 68.8925 H 98.839 v 4.0864 h 3.6901 l -0.006,0.0303 c -0.2541,1.2861 -0.7917,2.4643 -1.7746,3.3567 -1.0271,0.8889 -2.2858,1.2278 -3.6244,1.2278 -1.8227,0 -3.4379,-0.554 -4.6068,-2.0047 -1.3112,-1.6146 -1.6989,-3.7384 -1.6989,-5.7671 0,-2.0241 0.3874,-4.1147 1.6325,-5.7634 1.127,-1.3976 2.6317,-2.0028 4.4059,-2.0028 1.19,0 2.4423,0.2085 3.4375,0.9022 0.5091,0.3898 0.9635,0.8567 1.2849,1.4154 0.4657,0.8813 1.2061,1.3425 2.2055,1.3425 z" />
      </g>
    </g>
    <path
       inkscape:connector-curvature="0"
       style="fill:#838281;fill-rule:evenodd"
       id="path3466"
       d="m 590.74481,60.054936 h 17.36007 v -5.20795 c 0,-2.32866 -0.82594,-4.31894 -2.47712,-5.97012 -1.12288,-1.12287 -2.40201,-1.86378 -3.83138,-2.22307 h -11.05157 z" />
    <g
       style="fill-rule:evenodd"
       id="_76324864"
       transform="matrix(3.543307,0,0,3.543307,-157.7788,-157.40844)">
      <path
         inkscape:connector-curvature="0"
         style="fill:#ff6905"
         id="_76324888"
         d="m 174.954,67.8006 h 4.6383 c 0.2319,-0.5026 0.6001,-0.8541 1.1233,-1.0426 0.5612,-0.2025 1.1618,-0.2819 1.7566,-0.2819 1.1135,0 3.1063,0.2036 3.104,1.7017 -0.001,0.6552 -0.005,1.3108 0.002,1.966 l 2e-4,0.025 -0.025,6e-4 c -1.6816,0.04 -3.4208,0.0409 -5.0909,0.2348 -1.2837,0.149 -2.596,0.4329 -3.7012,1.1334 -0.2083,0.132 -0.4077,0.2777 -0.5965,0.4364 -1.274,1.0708 -1.7032,2.5504 -1.7032,4.1747 0,3.7787 2.6098,5.8466 6.251,5.8511 h 0.0712 c 0.9473,-0.0031 1.9015,-0.0756 2.8433,-0.1728 0.6786,-0.0741 1.3445,-0.2261 1.9869,-0.4567 l 0.034,-0.0122 v 0.6346 h 4.4436 c 2e-4,-4.6985 0.0458,-9.3968 0.0458,-14.0953 0,-1.6487 -0.6548,-2.9563 -2.0174,-3.8927 -1.6096,-1.0999 -3.961,-1.326 -5.8564,-1.326 -1.8774,0 -3.8916,0.349 -5.3649,1.5991 -1.1071,0.9242 -1.755,2.0957 -1.9444,3.5228 z m 10.6937,5.9449 v 1.1355 c -0.009,0.8397 -0.0599,1.8098 -0.6908,2.4409 -0.8147,0.8149 -2.4367,0.9521 -3.5287,0.9521 -0.6201,0 -1.5153,-0.0797 -1.9893,-0.5269 -0.7293,-0.6879 -0.6842,-1.8547 -0.3142,-2.7127 0.3194,-0.7411 1.5067,-0.9883 2.2124,-1.0982 1.3736,-0.214 2.8958,-0.2059 4.2855,-0.191 z" />
    </g>
    <g
       style="fill-rule:evenodd"
       id="_97397480"
       transform="matrix(3.543307,0,0,3.543307,-157.7788,-157.40844)">
      <path
         inkscape:connector-curvature="0"
         style="fill:#ff6905"
         id="_97397504"
         d="m 224.408,81.7579 c 1.5517,0.3436 3.1086,0.3089 4.6431,-0.1074 1.7842,-0.3891 3.1857,-1.3857 4.2568,-2.8577 0.5675,-0.8248 0.9658,-1.7751 1.2573,-2.7294 0.3758,-1.2231 0.4887,-2.5659 0.4887,-3.8403 0,-1.8613 -0.3248,-3.7132 -1.1863,-5.3779 -0.8349,-1.7115 -2.1338,-2.9318 -3.9055,-3.6322 -1.6648,-0.6064 -3.4294,-0.6863 -5.1739,-0.4526 -1.8643,0.2505 -3.44,1.054 -4.6745,2.4771 -0.8003,0.9027 -1.3194,1.981 -1.6376,3.1387 -0.3444,1.2317 -0.5249,2.4958 -0.5249,3.7752 0,1.5049 0.2016,2.9936 0.6263,4.4381 0.3902,1.3134 1.0481,2.4872 2.0957,3.3878 1.0446,0.9375 2.3799,1.4756 3.7348,1.7806 z m -1.7457,-9.2888 c -0.0754,-1.674 0.159,-3.5273 1.3338,-4.8167 0.405,-0.3976 1.0179,-0.6486 1.5522,-0.813 0.7072,-0.2116 1.4182,-0.1974 2.1184,0.0361 0.8132,0.271 1.4155,0.9184 1.8656,1.6236 0.6751,1.0502 0.8105,2.5791 0.8105,3.7962 -0.0323,1.2628 -0.194,2.9892 -0.9124,4.0704 -0.4729,0.7093 -1.1046,1.3449 -1.9438,1.5877 -0.7208,0.2085 -1.4445,0.1866 -2.1489,-0.0723 -0.5291,-0.1944 -1.1357,-0.4892 -1.4807,-0.9518 -0.9176,-1.1057 -1.1364,-3.0811 -1.1947,-4.4602 z" />
    </g>
    <path
       inkscape:connector-curvature="0"
       style="fill:#72706f;fill-rule:evenodd"
       id="path3476"
       d="m 590.83693,59.964936 h 17.18008 v -5.11795 c 0,-2.30776 -0.81921,-4.275 -2.45091,-5.90634 -1.06689,-1.06689 -2.31838,-1.83047 -3.77291,-2.19756 l -10.95626,7.1e-4 z" />
    <g
       style="fill-rule:evenodd"
       id="_97397288"
       transform="matrix(3.543307,0,0,3.543307,-157.7788,-157.40844)">
      <path
         inkscape:connector-curvature="0"
         style="fill:#ff6905"
         id="_97397312"
         d="m 211.276,62.6847 v 19.2979 h 4.8486 V 65.0373 c 0,-0.6484 -0.2333,-1.2026 -0.6917,-1.6609 -0.4584,-0.4584 -1.0125,-0.6917 -1.6609,-0.6917 z" />
    </g>
    <path
       inkscape:connector-curvature="0"
       style="fill:#ff6905;fill-rule:evenodd"
       id="path3480"
       d="m 567.59638,46.743796 v 28.24937 l -0.16583,-0.2615 c -2.01756,-3.17586 -4.68602,-5.71322 -7.90653,-7.65425 -3.36898,-1.77555 -7.09654,-2.46578 -10.88079,-2.46578 -7.93594,0 -14.21291,3.36862 -19.02401,9.63956 -5.47052,7.15748 -7.17981,16.18264 -7.17981,25.011144 0,8.7665 1.6363,17.93233 7.1791,24.98882 2.5735,3.27827 5.94779,5.46095 9.88724,6.78756 4.07906,1.40173 8.29843,2.11217 12.60957,2.11217 7.91185,0 15.27838,-2.07319 22.0337,-6.18981 8.20453,-4.98401 10.14023,-14.81031 10.14023,-23.7398 V 54.825376 c 0,-2.24185 -0.91878,-4.14709 -2.45232,-5.75965 -1.06547,-1.12039 -2.32937,-1.93748 -3.82075,-2.32264 z m -3.74386,37.56154 c 2.90268,4.06842 3.74386,9.301894 3.74386,14.194844 0,5.00102 -0.6502,10.9187 -3.48874,15.18874 -2.5565,3.5837 -6.10866,5.24586 -10.48925,5.24586 -4.43658,0 -8.13012,-1.58315 -10.74331,-5.24515 -3.02315,-4.23815 -3.74279,-10.12075 -3.74279,-15.18945 0,-4.78311 0.80185,-10.018704 3.74315,-13.940434 2.50441,-3.51 5.92618,-5.24516 10.23484,-5.24516 4.36181,0 7.99972,1.5672 10.74224,4.99075 z" />
    <g
       style="fill-rule:evenodd"
       id="_97397096"
       transform="matrix(3.543307,0,0,3.543307,-157.7788,-157.40844)">
      <path
         inkscape:connector-curvature="0"
         style="fill:#ff6905"
         id="_97397120"
         d="m 153.775,81.9833 h 4.9201 v -9.7139 h 5.2773 c 2.705,0 3.787,1.3818 3.787,3.997 v 0.0614 c -6e-4,0.7956 -0.0129,1.5912 -0.0112,2.3868 l -1e-4,0.0406 c -8e-4,0.4319 0.002,0.864 0.0113,1.2962 v 1.9319 h 4.9202 v -6.5666 c 0.0449,-1.3642 -0.2441,-2.7551 -1.1138,-3.8386 -0.5123,-0.6382 -1.2271,-1.1608 -2.0034,-1.4282 l -0.0692,-0.0238 0.0691,-0.0242 c 1.0968,-0.3835 2.0388,-1.0137 2.6459,-2.0211 0.7274,-1.0944 0.9757,-2.4002 0.9757,-3.6965 0,-1.9213 -0.4789,-3.7779 -1.9511,-5.0956 -1.5307,-1.3564 -3.8218,-1.6724 -5.7906,-1.6724 h -9.1714 c -0.6888,0 -1.281,0.24 -1.7683,0.7275 -0.4876,0.4875 -0.7275,1.0795 -0.7275,1.7684 z m 13.572,-19.4404 c 0.7054,0.6005 0.9168,1.5044 0.9168,2.397 0,0.8945 -0.2097,1.8009 -0.9172,2.4034 -0.752,0.6341 -1.8701,0.7767 -2.8186,0.7767 h -5.8329 v -6.426 h 6.1137 c 0.908,0 1.8736,0.1842 2.5382,0.8489 z" />
    </g>
    <path
       inkscape:connector-curvature="0"
       style="fill:#ff6905;fill-rule:evenodd"
       id="path3484"
       d="m 128.1636,81.874976 c 3.50539,3.465 5.25827,7.69571 5.25827,12.691774 0,4.87524 -1.7426,9.05563 -5.2278,12.54083 -3.4852,3.4852 -7.64539,5.22779 -12.48024,5.22779 -3.39165,0 -6.44775,-0.82488 -9.16795,-2.47464 l -6.34075,6.34075 c 3.94548,4.48866 5.91804,9.83941 5.91804,16.05189 0,6.69649 -2.39351,12.43842 -7.180871,17.22578 -4.787008,4.78736 -10.501299,7.18087 -17.142874,7.18087 -6.751771,0 -12.535866,-2.38004 -17.350511,-7.13977 -4.815,-4.75937 -7.222323,-10.51511 -7.222323,-17.26688 0,-6.75248 2.324055,-12.53587 6.973582,-17.35087 4.648819,-4.815 10.349292,-7.22232 17.101417,-7.22232 5.988189,0 11.187992,1.78334 15.600827,5.34968 l 6.036023,-6.03567 c -3.409724,-3.437 -5.114409,-7.57948 -5.114409,-12.42744 0,-4.915634 1.692283,-9.126144 5.076849,-12.631534 0.31429,-0.32528 0.63532,-0.63567 0.96272,-0.93083 l -6.172797,-6.17279 c -2.681929,2.54799 -5.857441,3.82216 -9.526536,3.82216 -3.871062,0 -7.187598,-1.36453 -9.948188,-4.09358 -2.760945,-2.72906 -4.141418,-6.02929 -4.141418,-9.90071 0,-3.87142 1.332993,-7.18795 3.998622,-9.94854 2.66563,-2.76095 5.933977,-4.14142 9.805394,-4.14142 3.967086,0 7.330393,1.36488 10.091693,4.09394 2.76024,2.7287 4.14071,6.06082 4.14071,9.99602 0,2.69256 -0.67465,5.11583 -2.02429,7.27016 l 6.85275,6.85311 c 2.49768,-1.40351 5.30114,-2.10544 8.41146,-2.10544 5.03646,0 9.3072,1.73233 12.8126,5.19768 z M 88.164267,56.757896 c -2.189409,0 -4.030157,0.77704 -5.521535,2.3322 -1.491378,1.5548 -2.237244,3.4115 -2.237244,5.56937 0,2.22094 0.729921,4.07764 2.189764,5.56937 1.459842,1.49138 3.316181,2.23689 5.569015,2.23689 2.126339,0 3.927048,-0.76925 5.402835,-2.30846 1.475433,-1.53922 2.213149,-3.37182 2.213149,-5.4978 0,-1.0474 -0.190275,-2.04697 -0.571181,-2.99905 -0.380551,-0.95209 -0.920196,-1.77697 -1.618228,-2.47536 -0.698386,-0.72957 -1.531063,-1.31669 -2.499094,-1.76102 -0.967677,-0.44433 -1.943504,-0.66614 -2.927481,-0.66614 z m -6.364842,61.714484 c -3.818976,0 -7.028858,1.35567 -9.629645,4.06736 -2.601496,2.71205 -3.902244,5.94992 -3.902244,9.71363 0,3.87354 1.272755,7.11141 3.818976,9.71291 2.545512,2.60079 5.78374,3.90153 9.712913,3.90153 3.708071,0 6.848858,-1.34185 9.422362,-4.02661 2.57315,-2.6837 3.860433,-5.87976 3.860433,-9.58783 0,-1.82693 -0.332008,-3.56989 -0.996378,-5.23028 -0.664016,-1.66039 -1.604764,-3.09933 -2.822598,-4.31681 -1.217481,-1.27311 -2.670236,-2.29677 -4.358622,-3.07169 -1.687323,-0.77492 -3.389528,-1.16221 -5.105197,-1.16221 z M 115.71383,84.534226 c -2.78043,0 -5.11724,0.98681 -7.01078,2.96115 -1.8939,1.97433 -2.84067,4.33133 -2.84067,7.071374 0,2.82048 0.92657,5.17748 2.78008,7.07138 1.8535,1.89354 4.21051,2.84032 7.07137,2.84032 2.6993,0 4.98579,-0.97725 6.85949,-2.93138 1.87335,-1.95414 2.8102,-4.28067 2.8102,-6.98032 0,-1.3298 -0.24165,-2.599014 -0.72532,-3.807634 -0.4833,-1.20863 -1.16822,-2.25638 -2.05476,-3.14256 -0.88654,-0.92693 -1.94421,-1.67209 -3.17303,-2.23618 -1.22882,-0.56445 -2.46756,-0.84615 -3.71658,-0.84615 z" />
    <path
       inkscape:connector-curvature="0"
       style="fill:#ff6905;fill-rule:evenodd"
       id="path3486"
       d="m 63.293796,44.662816 c 4.548897,-8.03374 13.97622,-13.55421 24.865865,-13.55421 10.854212,0 20.255669,5.48503 24.821569,13.4759 l 5.54103,-5.68453 c -6.21354,-9.32279 -17.48799,-15.55547 -30.362599,-15.55547 -12.967086,0 -24.311338,6.32303 -30.49618,15.7578 z" />
    <path
       inkscape:connector-curvature="0"
       style="fill:#ff6905;fill-rule:evenodd"
       id="path3488"
       d="m 88.092693,36.893756 c -9.484725,0 -17.688189,4.48441 -21.598228,10.99595 l 5.61685,5.5474 c 2.163189,-5.05347 8.501457,-8.71335 15.981378,-8.71335 7.554684,0 13.944327,3.73358 16.044447,8.86536 l 5.55449,-5.69835 c -3.91004,-6.51224 -12.113505,-10.99701 -21.598937,-10.99701 z" />
    <text
       style="font-weight:bold;font-size:17.76259804px;font-family:Harabara;fill:#969594;fill-rule:evenodd"
       id="text3490"
       y="156.5569"
       x="145.83229">T</text>
    <text
       style="font-weight:bold;font-size:17.76259804px;font-family:Harabara;fill:#969594;fill-rule:evenodd"
       id="text3492"
       y="156.5569"
       x="159.77911">H</text>
    <text
       style="font-weight:bold;font-size:17.76259804px;font-family:Harabara;fill:#969594;fill-rule:evenodd"
       id="text3494"
       y="156.5569"
       x="174.14331">E</text>
    <text
       style="font-weight:bold;font-size:17.76259804px;font-family:Harabara;fill:#969594;fill-rule:evenodd"
       id="text3496"
       y="156.5569"
       x="187.22275" />
    <text
       style="font-weight:bold;font-size:17.76259804px;font-family:Harabara;fill:#969594;fill-rule:evenodd"
       id="text3498"
       y="156.5569"
       x="195.20438">F</text>
    <text
       style="font-weight:bold;font-size:17.76259804px;font-family:Harabara;fill:#969594;fill-rule:evenodd"
       id="text3500"
       y="156.5569"
       x="208.28378">R</text>
    <text
       style="font-weight:bold;font-size:17.76259804px;font-family:Harabara;fill:#969594;fill-rule:evenodd"
       id="text3502"
       y="156.5569"
       x="222.61295">E</text>
    <text
       style="font-weight:bold;font-size:17.76259804px;font-family:Harabara;fill:#969594;fill-rule:evenodd"
       id="text3504"
       y="156.5569"
       x="235.69127">E</text>
    <text
       style="font-weight:bold;font-size:17.76259804px;font-family:Harabara;fill:#969594;fill-rule:evenodd"
       id="text3506"
       y="156.5569"
       x="248.77316" />
    <text
       style="font-weight:bold;font-size:17.76259804px;font-family:Harabara;fill:#969594;fill-rule:evenodd"
       id="text3508"
       y="156.5569"
       x="256.75269">&amp;</text>
    <text
       style="font-weight:bold;font-size:17.76259804px;font-family:Harabara;fill:#969594;fill-rule:evenodd"
       id="text3510"
       y="156.5569"
       x="271.70544" />
    <text
       style="font-weight:bold;font-size:17.76259804px;font-family:Harabara;fill:#969594;fill-rule:evenodd"
       id="text3512"
       y="156.5569"
       x="279.68851">O</text>
    <text
       style="font-weight:bold;font-size:17.76259804px;font-family:Harabara;fill:#969594;fill-rule:evenodd"
       id="text3514"
       y="156.5569"
       x="295.64758">P</text>
    <text
       style="font-weight:bold;font-size:17.76259804px;font-family:Harabara;fill:#969594;fill-rule:evenodd"
       id="text3516"
       y="156.5569"
       x="309.21136">E</text>
    <text
       style="font-weight:bold;font-size:17.76259804px;font-family:Harabara;fill:#969594;fill-rule:evenodd"
       id="text3518"
       y="156.5569"
       x="322.29324">N</text>
    <text
       style="font-weight:bold;font-size:17.76259804px;font-family:Harabara;fill:#969594;fill-rule:evenodd"
       id="text3520"
       y="156.5569"
       x="336.62241" />
    <text
       style="font-weight:bold;font-size:17.76259804px;font-family:Harabara;fill:#969594;fill-rule:evenodd"
       id="text3522"
       y="156.5569"
       x="344.60193">S</text>
    <text
       style="font-weight:bold;font-size:17.76259804px;font-family:Harabara;fill:#969594;fill-rule:evenodd"
       id="text3524"
       y="156.5569"
       x="358.79282">O</text>
    <text
       style="font-weight:bold;font-size:17.76259804px;font-family:Harabara;fill:#969594;fill-rule:evenodd"
       id="text3526"
       y="156.5569"
       x="374.75192">F</text>
    <text
       style="font-weight:bold;font-size:17.76259804px;font-family:Harabara;fill:#969594;fill-rule:evenodd"
       id="text3528"
       y="156.5569"
       x="387.83026">T</text>
    <text
       style="font-weight:bold;font-size:17.76259804px;font-family:Harabara;fill:#969594;fill-rule:evenodd"
       id="text3530"
       y="156.5569"
       x="401.77673">W</text>
    <text
       style="font-weight:bold;font-size:17.76259804px;font-family:Harabara;fill:#969594;fill-rule:evenodd"
       id="text3532"
       y="156.5569"
       x="421.72906">A</text>
    <text
       style="font-weight:bold;font-size:17.76259804px;font-family:Harabara;fill:#969594;fill-rule:evenodd"
       id="text3534"
       y="156.5569"
       x="437.68811">R</text>
    <text
       style="font-weight:bold;font-size:17.76259804px;font-family:Harabara;fill:#969594;fill-rule:evenodd"
       id="text3536"
       y="156.5569"
       x="452.01727">E</text>
    <text
       style="font-weight:bold;font-size:17.76259804px;font-family:Harabara;fill:#969594;fill-rule:evenodd"
       id="text3538"
       y="156.5569"
       x="465.09561" />
    <text
       style="font-weight:bold;font-size:17.76259804px;font-family:Harabara;fill:#969594;fill-rule:evenodd"
       id="text3540"
       y="156.5569"
       x="473.0787">R</text>
    <text
       style="font-weight:bold;font-size:17.76259804px;font-family:Harabara;fill:#969594;fill-rule:evenodd"
       id="text3542"
       y="156.5569"
       x="487.40781">A</text>
    <text
       style="font-weight:bold;font-size:17.76259804px;font-family:Harabara;fill:#969594;fill-rule:evenodd"
       id="text3544"
       y="156.5569"
       x="503.36685">D</text>
    <text
       style="font-weight:bold;font-size:17.76259804px;font-family:Harabara;fill:#969594;fill-rule:evenodd"
       id="text3546"
       y="156.5569"
       x="517.97241">I</text>
    <text
       style="font-weight:bold;font-size:17.76259804px;font-family:Harabara;fill:#969594;fill-rule:evenodd"
       id="text3548"
       y="156.5569"
       x="524.53101">O</text>
    <text
       style="font-weight:bold;font-size:17.76259804px;font-family:Harabara;fill:#969594;fill-rule:evenodd"
       id="text3550"
       y="156.5569"
       x="540.49011" />
    <text
       style="font-weight:bold;font-size:17.76259804px;font-family:Harabara;fill:#969594;fill-rule:evenodd"
       id="text3552"
       y="156.5569"
       x="548.47321">E</text>
    <text
       style="font-weight:bold;font-size:17.76259804px;font-family:Harabara;fill:#969594;fill-rule:evenodd"
       id="text3554"
       y="156.5569"
       x="561.55151">C</text>
    <text
       style="font-weight:bold;font-size:17.76259804px;font-family:Harabara;fill:#969594;fill-rule:evenodd"
       id="text3556"
       y="156.5569"
       x="576.71332">O</text>
    <text
       style="font-weight:bold;font-size:17.76259804px;font-family:Harabara;fill:#969594;fill-rule:evenodd"
       id="text3558"
       y="156.5569"
       x="592.67242">S</text>
    <text
       style="font-weight:bold;font-size:17.76259804px;font-family:Harabara;fill:#969594;fill-rule:evenodd"
       id="text3560"
       y="156.5569"
       x="606.86334">Y</text>
    <text
       style="font-weight:bold;font-size:17.76259804px;font-family:Harabara;fill:#969594;fill-rule:evenodd"
       id="text3562"
       y="156.5569"
       x="622.09247">S</text>
    <text
       style="font-weight:bold;font-size:17.76259804px;font-family:Harabara;fill:#969594;fill-rule:evenodd"
       id="text3564"
       y="156.5569"
       x="636.28345">T</text>
    <text
       style="font-weight:bold;font-size:17.76259804px;font-family:Harabara;fill:#969594;fill-rule:evenodd"
       id="text3566"
       y="156.5569"
       x="650.22986">E</text>
    <text
       style="font-weight:bold;font-size:17.76259804px;font-family:Harabara;fill:#969594;fill-rule:evenodd"
       id="text3568"
       y="156.5569"
       x="663.30823">M</text>
    <text
       style="font-weight:bold;font-size:17.76259804px;font-family:Harabara;fill:#969594;fill-rule:evenodd"
       id="text3570"
       y="156.5569"
       x="679.89447" />
  </g>
</svg>
