G04 Title: RX Daughterboard, layergroup #2 *
G04 Creator: pcb-bin 1.99p *
G04 CreationDate: Thu Dec 30 23:48:06 2004 UTC *
G04 For: matt *
G04 Format: Gerber/RS-274X *
G04 PCB-Dimensions: 275000 250000 *
G04 PCB-Coordinate-Origin: lower left *
%MOIN*%
%FSLAX24Y24*%
G04 contains layers component (3) *
%IPPOS*%
%ADD11C,0.0100*%
%ADD12C,0.0300*%
%ADD13R,0.0600X0.0600*%
%ADD14R,0.0660X0.0660*%
%ADD15R,0.0900X0.0900X0.0600X0.0600*%
%ADD16R,0.0900X0.0900*%
%ADD17C,0.0600*%
%ADD18C,0.0660*%
%ADD19C,0.0900X0.0600*%
%ADD20C,0.0900*%
%ADD21C,0.0125*%
%AMTHERM1*7,0,0,0.0900,0.0600,0.0125,45*%
%ADD22THERM1*%
%ADD23C,0.1300*%
%ADD24C,0.1360*%
%ADD25C,0.1600X0.1300*%
%ADD26C,0.1600*%
%ADD27C,0.0150*%
%ADD28C,0.0250*%
%ADD29C,0.0080*%
%AMTHERM2*7,0,0,0.0900,0.0600,0.0100,45*%
%ADD30THERM2*%
%ADD31C,0.0200*%
%ADD32R,0.0240X0.0240*%
%ADD33R,0.0440X0.0440*%
%ADD34R,0.0300X0.0300*%
%ADD35C,0.0060*%
%ADD36C,0.0160*%
%ADD37C,0.0460*%
%ADD38C,0.0220*%
%ADD39R,0.0160X0.0160*%
%ADD40R,0.0460X0.0460*%
%ADD41R,0.0220X0.0220*%
%ADD42C,0.0500*%
%ADD43R,0.0200X0.0200*%
%ADD44R,0.0500X0.0500*%
%ADD45R,0.0540X0.0540*%
%ADD46R,0.0650X0.0650*%
%ADD47R,0.0950X0.0950*%
%ADD48C,0.1200X0.0900*%
%ADD49C,0.1200*%
%AMTHERM3*7,0,0,0.1200,0.0900,0.0150,45*%
%ADD50THERM3*%
%ADD51C,0.0720*%
%ADD52C,0.0920X0.0720*%
%ADD53C,0.0920*%
%ADD54C,0.0240*%
%ADD55C,0.0340*%
%ADD56C,0.0119*%
%ADD57C,0.1320*%
%ADD58C,0.1100*%
%ADD59C,0.1520*%
%ADD60C,0.1520X0.1320*%
%ADD61C,0.0400*%
%ADD62C,0.0600X0.0400*%
%AMTHERM4*7,0,0,0.0600,0.0400,0.0100,45*%
%ADD63THERM4*%
%ADD64C,0.0800*%
%ADD65C,0.0800X0.0600*%
%AMTHERM5*7,0,0,0.0800,0.0600,0.0160,45*%
%ADD66THERM5*%
%LNGROUP_1*%
%LPD*%
G01X0Y0D02*
G54D11*X12250Y6350D02*X11750Y6050D01*
X5060Y4910D02*X7000Y6800D01*
X10180Y9100D03*
X10380Y9300D03*
X12605Y11305D03*
X11050Y9750D03*
X14499Y12590D03*
X13050Y8750D03*
Y9750D03*
X13919Y12010D03*
X12010Y10710D03*
X10349Y9269D03*
X22800Y4050D02*X23300D01*
X22790Y4040D02*X22800Y4050D01*
X23350Y4680D02*Y2800D01*
X23950Y5280D02*X23350Y4680D01*
X19700Y5750D02*Y5200D01*
X20000Y6050D02*X19700Y5750D01*
X19220Y6050D02*X20000D01*
X19210Y6060D02*X19220Y6050D01*
X15050Y3400D02*Y2850D01*
X15560Y3910D02*X15050Y3400D01*
X15550Y4580D02*Y4090D01*
X16000Y5030D02*X15550Y4580D01*
X22420Y9500D02*X23350D01*
X22410Y9510D02*X22420Y9500D01*
X16520Y9350D02*X17550D01*
X16510Y9360D02*X16520Y9350D01*
X8940Y5600D02*X9950Y4590D01*
Y4250D01*
X12250Y6680D02*Y6350D01*
X12240Y6690D02*X12250Y6680D01*
X7000Y6800D02*X7050D01*
X8660Y5600D02*X8650Y5590D01*
X7050Y6750D02*X7700Y6100D01*
X7050Y8750D02*Y6750D01*
X9050Y6100D02*X8750D01*
X9850Y5300D02*X9050Y6100D01*
X11727Y5314D02*X9850Y5300D01*
X12877Y6464D02*X11727Y5314D01*
X12863Y7150D02*X12877Y6464D01*
X12300Y7150D02*X12863Y7150D01*
X11030Y7150D02*X12300D01*
X10980Y7100D02*X11030Y7150D01*
X19200Y9350D02*Y7550D01*
X17050Y3900D02*X18100Y4950D01*
X16050Y3900D02*X17050D01*
X10050Y9700D02*Y10900D01*
X15990Y9840D02*Y9850D01*
X17000Y5200D02*X17150D01*
X15140Y10310D02*X15950Y11450D01*
X18000Y8400D02*X18200D01*
X13610Y10310D02*X14499D01*
X17000Y8300D02*X17100D01*
X10050Y8969D02*X10180Y9100D01*
X16000Y8400D02*X15950D01*
X22900Y7200D02*Y8350D01*
X10180Y9100D02*X10349Y9269D01*
X20000Y6500D02*Y6540D01*
X23600Y10500D02*X23360D01*
X19300Y7100D02*Y7110D01*
X22410Y10000D02*X21700D01*
X19300Y6550D02*Y6540D01*
X20090Y7500D02*X20150D01*
X20090Y7590D02*Y7500D01*
X24010Y10000D02*X23400D01*
X20090Y7590D02*Y7650D01*
X17150Y7100D02*Y5200D01*
X20090Y7110D02*Y7100D01*
X22310Y3950D02*X22350D01*
X20000Y6540D02*Y6500D01*
X22310Y3900D02*X22250D01*
X10980Y6600D02*X11650D01*
X10050Y9750D02*Y10000D01*
X22410Y9990D02*Y10000D01*
X10380Y9300D02*X10600Y9519D01*
X22590Y9990D02*Y10000D01*
X15200Y10310D02*X14500D01*
X23440Y9990D02*Y9950D01*
X15189Y11660D02*X16029Y12500D01*
X21840Y9510D02*Y9500D01*
X16029Y12960D02*X15909Y13080D01*
X21660Y9990D02*Y10000D01*
X8940Y7100D02*Y7150D01*
X18160Y9360D02*Y9350D01*
X14380Y13080D02*X15909D01*
X16050Y1850D02*Y1800D01*
X12605Y11305D02*X12010Y10710D01*
X24010Y9510D02*Y9500D01*
X23360Y10500D02*X22900Y10039D01*
X24010Y9990D02*Y10000D01*
X10700Y5600D02*Y5550D01*
X24100Y10000D02*Y9990D01*
X10750Y6100D02*X10700Y6050D01*
X17640Y9840D02*Y9900D01*
X14639Y12730D02*X15679D01*
X22950Y5300D02*X22900D01*
X13030Y10510D03*
X23950Y8650D02*X24050D01*
X10050Y9750D02*Y10000D01*
X22950Y8350D02*X22900D01*
X11760Y6550D02*X11700D01*
X21950Y8650D02*X21800D01*
X14499Y12590D02*X13919Y12010D01*
X16040Y4000D02*X16050D01*
X22900Y10039D02*Y9550D01*
X16040Y3900D02*X16050D01*
X16510Y9840D02*Y9850D01*
X17000Y16450D02*X16980D01*
X18000Y17300D02*X17950D01*
X18000D02*Y17250D01*
X7550Y10150D02*X9200Y11800D01*
X17350Y10550D02*Y10139D01*
X13050Y9750D02*X13610Y10310D01*
X14499D02*X14500Y10310D01*
X7550Y9250D02*Y10150D01*
X7700Y6100D02*X8700D01*
X7050Y8750D02*X7550Y9250D01*
X9200Y11800D02*X9250D01*
X17350Y10139D02*X17100Y9889D01*
X12600Y10080D02*Y9200D01*
Y10080D02*X13030Y10510D01*
X13710Y11801D02*Y11190D01*
Y11801D02*X13919Y12010D01*
X17100Y9889D02*Y9350D01*
X14499Y12590D02*X14639Y12730D01*
X15679D02*X15679Y12730D01*
X15679D01*
X9700Y20950D02*X9150Y21500D01*
X11050Y9750D02*X12010Y10710D01*
X9150Y21500D02*X3700D01*
X12605Y11305D02*X14380Y13080D01*
X16029Y12500D02*Y12960D01*
X14149Y11660D02*X15189D01*
X14149D02*Y11009D01*
X10600Y12700D02*Y9519D01*
X3700Y21500D02*X3250Y21950D01*
X10380Y9300D02*X10349Y9269D01*
X3250Y21950D02*X1600D01*
X10050Y8750D02*Y8969D01*
X9600Y6700D02*X9650Y6650D01*
X9600Y9300D02*Y6700D01*
X10050Y9750D02*X9600Y9300D01*
X10100Y8700D02*Y6650D01*
X10050Y8750D02*X10100Y8700D01*
X8900Y8600D02*Y7100D01*
X9050Y8750D02*X8900Y8600D01*
X8350Y7500D02*Y6900D01*
X8550Y7700D02*X8350Y7500D01*
X8550Y9250D02*Y7700D01*
X9050Y9750D02*X8550Y9250D01*
X13710Y11190D02*X13030Y10510D01*
X8950Y7150D02*X8900Y7100D01*
X8350Y6900D02*X8650Y6600D01*
X10050Y9700D02*Y9750D01*
X10100Y6700D02*X10750Y6050D01*
X11650Y6600D02*X11700Y6550D01*
X16690Y9840D02*Y9850D01*
X9600Y6700D02*X10750Y5550D01*
X18000Y17300D02*Y17250D01*
X20450Y7600D02*X19700D01*
X23550Y11050D02*X22500Y10000D01*
X23550Y14850D02*Y11050D01*
X22150Y16250D02*X23550Y14850D01*
X22150Y16450D02*Y16250D01*
X22000Y16600D02*X22150Y16450D01*
X21950Y16600D02*X22000D01*
X21900Y16650D02*X21950Y16600D01*
X20900Y16650D02*X21900D01*
X19300Y6550D02*Y7100D01*
X19350Y6500D02*X19300Y6550D01*
X17700Y16600D02*Y9900D01*
X16980Y16450D02*Y10350D01*
X17150Y8250D02*X17100Y8300D01*
X20000Y7100D02*Y6540D01*
X1600Y21950D02*X1150Y22400D01*
X24100Y14700D02*Y10000D01*
X22550Y16250D02*X24100Y14700D01*
X22550Y16500D02*Y16250D01*
X20000Y6500D02*X19350D01*
X15950Y9300D02*Y8400D01*
X18150Y9350D02*Y8450D01*
X19300Y7100D02*X17150D01*
X17950Y17300D02*X17700Y16600D01*
X17150Y8250D02*Y7100D01*
X23400Y10000D02*X23350Y9950D01*
X15990Y9360D02*Y9300D01*
X12600Y9200D02*X13050Y8750D01*
X21800Y9500D02*Y8650D01*
X24050Y9500D02*Y8650D01*
X19600Y7200D02*X22900D01*
X17640Y9840D02*X18160D01*
X16650Y10019D02*Y9850D01*
X20150Y7500D02*X20000Y7650D01*
X16980Y10350D02*X16650Y10019D01*
X20250Y12950D02*X20650D01*
X18150Y8450D02*X18200Y8400D01*
X15900Y9850D02*X16510D01*
X22900Y5300D02*Y7200D01*
X10950Y12250D02*X12400D01*
X10900Y12300D02*X11000Y12250D01*
X21950Y4200D02*X22250Y3900D01*
X21950Y5200D02*Y4200D01*
X22350Y1850D02*Y3950D01*
X16050Y1800D02*Y3900D01*
X20650Y12950D02*X21350Y12250D01*
G04 Text: COMPONENT *
G54D29*X22500Y19800D02*X22650D01*
X22450Y19850D02*X22500Y19800D01*
X22450Y20150D02*Y19850D01*
Y20150D02*X22500Y20200D01*
X22650D01*
X22770Y20150D02*Y19850D01*
Y20150D02*X22820Y20200D01*
X22920D01*
X22970Y20150D01*
Y19850D01*
X22920Y19800D02*X22970Y19850D01*
X22820Y19800D02*X22920D01*
X22770Y19850D02*X22820Y19800D01*
X23090Y20200D02*Y19800D01*
Y20200D02*X23240Y20050D01*
X23390Y20200D01*
Y19800D01*
X23560Y20200D02*Y19800D01*
X23510Y20200D02*X23710D01*
X23760Y20150D01*
Y20050D01*
X23710Y20000D02*X23760Y20050D01*
X23560Y20000D02*X23710D01*
X23880Y20150D02*Y19850D01*
Y20150D02*X23930Y20200D01*
X24030D01*
X24080Y20150D01*
Y19850D01*
X24030Y19800D02*X24080Y19850D01*
X23930Y19800D02*X24030D01*
X23880Y19850D02*X23930Y19800D01*
X24200Y20200D02*Y19800D01*
Y20200D02*Y20150D01*
X24450Y19900D01*
Y20200D02*Y19800D01*
X24570Y20000D02*X24720D01*
X24570Y19800D02*X24770D01*
X24570Y20200D02*Y19800D01*
Y20200D02*X24770D01*
X24890D02*Y19800D01*
Y20200D02*Y20150D01*
X25140Y19900D01*
Y20200D02*Y19800D01*
X25260Y20200D02*X25460D01*
X25360D02*Y19800D01*
G54D13*X5650Y4210D03*
G54D17*X6730D03*
X7810D03*
X8890D03*
X9970D03*
X6190Y3090D03*
X7270D03*
X8350D03*
X9430D03*
G54D23*X2950Y3650D03*
X12670D03*
G54D13*X1100Y23500D03*
G54D17*X2100D03*
X1100Y22500D03*
X2100D03*
X1100Y21500D03*
X2100D03*
X1100Y20500D03*
X2100D03*
X1100Y19500D03*
X2100D03*
X1100Y18500D03*
X2100D03*
X1100Y17500D03*
X2100D03*
X1100Y16500D03*
X2100D03*
G54D13*X1050Y11750D03*
G54D17*X2050D03*
X1050Y10750D03*
X2050D03*
X1050Y9750D03*
X2050D03*
X1050Y8750D03*
X2050D03*
X1050Y7750D03*
X2050D03*
X1050Y6750D03*
X2050D03*
X1050Y5750D03*
X2050D03*
X1050Y4750D03*
X2050D03*
G54D13*X7050Y8750D03*
G54D17*Y9750D03*
X8050Y8750D03*
Y9750D03*
X9050Y8750D03*
Y9750D03*
X10050Y8750D03*
Y9750D03*
X11050Y8750D03*
Y9750D03*
X12050Y8750D03*
Y9750D03*
X13050Y8750D03*
Y9750D03*
X14050Y8750D03*
Y9750D03*
G54D20*X22350Y1850D03*
X21350Y2850D03*
X23350D03*
X21350Y850D03*
X23350D03*
X16050Y1850D03*
X15050Y2850D03*
X17050D03*
X15050Y850D03*
X17050D03*
G54D13*X18350Y11250D03*
G54D17*Y12250D03*
X19350Y11250D03*
Y12250D03*
X20350Y11250D03*
Y12250D03*
X21350Y11250D03*
Y12250D03*
X22350Y11250D03*
Y12250D03*
G54D13*X7700Y20950D03*
G54D17*Y21950D03*
X8700Y20950D03*
Y21950D03*
X9700Y20950D03*
Y21950D03*
X10700Y20950D03*
Y21950D03*
X11700Y20950D03*
Y21950D03*
X12700Y20950D03*
Y21950D03*
X13700Y20950D03*
Y21950D03*
X14700Y20950D03*
Y21950D03*
X15700Y20950D03*
Y21950D03*
X16700Y20950D03*
Y21950D03*
G54D61*X9250Y11800D03*
X22550Y16500D03*
X20900Y16650D03*
X17000Y16450D03*
X18000Y17300D03*
X20450Y7600D03*
X20250Y12950D03*
X10600Y12700D03*
X14149Y11009D03*
X16550Y17100D03*
X15679Y12730D03*
X15990Y11460D03*
X12350Y12300D03*
X9950Y10900D03*
X10950Y12300D03*
X19200Y9350D03*
X14149Y11660D03*
G54D17*X7600Y7050D03*
G54D61*X11828Y5970D03*
X8700Y15850D03*
X8500Y13500D03*
X19650Y5200D03*
X22300Y13700D03*
X17350Y12600D03*
X23600Y10500D03*
X17350Y10550D03*
G54D17*X14500Y6300D03*
X5060Y4910D03*
X3650Y8050D03*
X4700Y8250D03*
X5900Y7100D03*
G54D61*X9350Y6400D03*
X9750Y5950D03*
G54D31*X8660Y7100D02*X8940D01*
G54D43*X8660Y6600D02*X8940D01*
X8660Y6100D02*X8940D01*
X8660Y5600D02*X8940D01*
X10700D02*X10980D01*
X10700Y6100D02*X10980D01*
X10700Y6600D02*X10980D01*
X10700Y7100D02*X10980D01*
G54D32*X12240Y6690D02*Y6510D01*
X11760Y6690D02*Y6510D01*
X16510Y9840D02*X16690D01*
X16510Y9360D02*X16690D01*
X15810D02*X15990D01*
X15810Y9840D02*X15990D01*
G54D46*X16000Y5380D02*Y5030D01*
X17000Y5380D02*Y5030D01*
X18000Y5380D02*Y5030D01*
Y8370D02*Y8020D01*
X17000Y8370D02*Y8020D01*
X16000Y8370D02*Y8020D01*
G54D32*X19910Y6540D02*X20090D01*
X19910Y6060D02*X20090D01*
X19160Y7590D02*X19340D01*
X19160Y7110D02*X19340D01*
X19210Y6540D02*X19390D01*
X19210Y6060D02*X19390D01*
X19910Y7590D02*X20090D01*
X19910Y7110D02*X20090D01*
X22310Y4040D02*Y3860D01*
X22790Y4040D02*Y3860D01*
X22410Y9990D02*X22590D01*
X22410Y9510D02*X22590D01*
X23260Y9990D02*X23440D01*
X23260Y9510D02*X23440D01*
X21660D02*X21840D01*
X21660Y9990D02*X21840D01*
X18160Y9360D02*X18340D01*
X18160Y9840D02*X18340D01*
X24010Y9510D02*X24190D01*
X24010Y9990D02*X24190D01*
X17460Y9840D02*X17640D01*
X17460Y9360D02*X17640D01*
G54D46*X21950Y5630D02*Y5280D01*
X22950Y5630D02*Y5280D01*
X23950Y5630D02*Y5280D01*
Y8620D02*Y8270D01*
X22950Y8620D02*Y8270D01*
X21950Y8620D02*Y8270D01*
G54D32*X16040Y4090D02*Y3910D01*
X15560Y4090D02*Y3910D01*
M02*
