G04 Title: RX Daughterboard, silkscreen, solder side *
G04 Creator: pcb-bin 1.99p *
G04 CreationDate: Thu Dec 30 23:48:06 2004 UTC *
G04 For: matt *
G04 Format: Gerber/RS-274X *
G04 PCB-Dimensions: 275000 250000 *
G04 PCB-Coordinate-Origin: lower left *
%MOIN*%
%FSLAX24Y24*%
%IPPOS*%
%ADD11C,0.0100*%
%ADD12C,0.0300*%
%ADD13R,0.0600X0.0600*%
%ADD14R,0.0660X0.0660*%
%ADD15R,0.0900X0.0900X0.0600X0.0600*%
%ADD16R,0.0900X0.0900*%
%ADD17C,0.0600*%
%ADD18C,0.0660*%
%ADD19C,0.0900X0.0600*%
%ADD20C,0.0900*%
%ADD21C,0.0125*%
%AMTHERM1*7,0,0,0.0900,0.0600,0.0125,45*%
%ADD22THERM1*%
%ADD23C,0.1300*%
%ADD24C,0.1360*%
%ADD25C,0.1600X0.1300*%
%ADD26C,0.1600*%
%ADD27C,0.0150*%
%ADD28C,0.0250*%
%ADD29C,0.0080*%
%AMTHERM2*7,0,0,0.0900,0.0600,0.0100,45*%
%ADD30THERM2*%
%ADD31C,0.0200*%
%ADD32R,0.0240X0.0240*%
%ADD33R,0.0440X0.0440*%
%ADD34R,0.0300X0.0300*%
%ADD35C,0.0060*%
%ADD36C,0.0160*%
%ADD37C,0.0460*%
%ADD38C,0.0220*%
%ADD39R,0.0160X0.0160*%
%ADD40R,0.0460X0.0460*%
%ADD41R,0.0220X0.0220*%
%ADD42C,0.0500*%
%ADD43R,0.0200X0.0200*%
%ADD44R,0.0500X0.0500*%
%ADD45R,0.0540X0.0540*%
%ADD46R,0.0650X0.0650*%
%ADD47R,0.0950X0.0950*%
%ADD48C,0.1200X0.0900*%
%ADD49C,0.1200*%
%AMTHERM3*7,0,0,0.1200,0.0900,0.0150,45*%
%ADD50THERM3*%
%ADD51C,0.0720*%
%ADD52C,0.0920X0.0720*%
%ADD53C,0.0920*%
%ADD54C,0.0240*%
%ADD55C,0.0340*%
%ADD56C,0.0119*%
%ADD57C,0.1320*%
%ADD58C,0.1100*%
%ADD59C,0.1520*%
%ADD60C,0.1520X0.1320*%
%ADD61C,0.0400*%
%ADD62C,0.0600X0.0400*%
%AMTHERM4*7,0,0,0.0600,0.0400,0.0100,45*%
%ADD63THERM4*%
%ADD64C,0.0800*%
%ADD65C,0.0800X0.0600*%
%AMTHERM5*7,0,0,0.0800,0.0600,0.0160,45*%
%ADD66THERM5*%
%LNGROUP_3*%
%LPD*%
G01X0Y0D02*
G54D35*X4170Y5220D02*Y4680D01*
X3330D02*X4170D01*
X3330Y5220D02*Y4680D01*
Y5220D02*X4170D01*
G04 Text: C492 *
G54D29*X3350Y5830D02*X3500D01*
X3300Y5780D02*X3350Y5830D01*
X3300Y5480D02*Y5780D01*
Y5480D02*X3350Y5430D01*
X3500D01*
X3620Y5630D02*X3820Y5430D01*
X3620Y5630D02*X3870D01*
X3820Y5430D02*Y5830D01*
X3990D02*X4190Y5630D01*
Y5480D02*Y5630D01*
X4140Y5430D02*X4190Y5480D01*
X4040Y5430D02*X4140D01*
X3990Y5480D02*X4040Y5430D01*
X3990Y5480D02*Y5580D01*
X4040Y5630D01*
X4190D01*
X4310Y5480D02*X4360Y5430D01*
X4510D01*
X4560Y5480D01*
Y5580D01*
X4310Y5830D02*X4560Y5580D01*
X4310Y5830D02*X4560D01*
G54D11*X9830Y7400D02*X11200D01*
X8700D02*X10070D01*
X8700D02*Y5360D01*
X11200D01*
Y7400D02*Y5360D01*
X9830Y7400D02*G75*G03X10070Y7400I120J0D01*G01*
G04 Text: U410 *
G54D29*X6900Y6050D02*Y6400D01*
X6950Y6450D01*
X7050D01*
X7100Y6400D01*
Y6050D02*Y6400D01*
X7220Y6250D02*X7420Y6050D01*
X7220Y6250D02*X7470D01*
X7420Y6050D02*Y6450D01*
X7640D02*X7740D01*
X7690Y6050D02*Y6450D01*
X7590Y6150D02*X7690Y6050D01*
X7860Y6400D02*X7910Y6450D01*
X7860Y6100D02*Y6400D01*
Y6100D02*X7910Y6050D01*
X8010D01*
X8060Y6100D01*
Y6400D01*
X8010Y6450D02*X8060Y6400D01*
X7910Y6450D02*X8010D01*
X7860Y6350D02*X8060Y6150D01*
G54D35*X12530Y6720D02*X13070D01*
Y5880D01*
X12530D02*X13070D01*
X12530Y6720D02*Y5880D01*
G04 Text: C489 *
G54D29*X13200Y6030D02*X13350D01*
X13150Y5980D02*X13200Y6030D01*
X13150Y5680D02*Y5980D01*
Y5680D02*X13200Y5630D01*
X13350D01*
X13470Y5830D02*X13670Y5630D01*
X13470Y5830D02*X13720D01*
X13670Y5630D02*Y6030D01*
X13840Y5980D02*X13890Y6030D01*
X13840Y5880D02*Y5980D01*
Y5880D02*X13890Y5830D01*
X13990D01*
X14040Y5880D01*
Y5980D01*
X13990Y6030D02*X14040Y5980D01*
X13890Y6030D02*X13990D01*
X13840Y5780D02*X13890Y5830D01*
X13840Y5680D02*Y5780D01*
Y5680D02*X13890Y5630D01*
X13990D01*
X14040Y5680D01*
Y5780D01*
X13990Y5830D02*X14040Y5780D01*
X14160Y6030D02*X14360Y5830D01*
Y5680D02*Y5830D01*
X14310Y5630D02*X14360Y5680D01*
X14210Y5630D02*X14310D01*
X14160Y5680D02*X14210Y5630D01*
X14160Y5680D02*Y5780D01*
X14210Y5830D01*
X14360D01*
G54D35*X10770Y8120D02*Y7580D01*
X9930D02*X10770D01*
X9930Y8120D02*Y7580D01*
Y8120D02*X10770D01*
G04 Text: C475 *
G54D29*X8500Y8130D02*X8650D01*
X8450Y8080D02*X8500Y8130D01*
X8450Y7780D02*Y8080D01*
Y7780D02*X8500Y7730D01*
X8650D01*
X8770Y7930D02*X8970Y7730D01*
X8770Y7930D02*X9020D01*
X8970Y7730D02*Y8130D01*
X9140D02*X9390Y7880D01*
Y7730D02*Y7880D01*
X9140Y7730D02*X9390D01*
X9510D02*X9710D01*
X9510D02*Y7930D01*
X9560Y7880D01*
X9660D01*
X9710Y7930D01*
Y8080D01*
X9660Y8130D02*X9710Y8080D01*
X9560Y8130D02*X9660D01*
X9510Y8080D02*X9560Y8130D01*
G54D35*X11630Y5030D02*Y5570D01*
X12470D01*
Y5030D01*
X11630D01*
G04 Text: C491 *
G54D29*X12600Y5130D02*X12750D01*
X12550Y5080D02*X12600Y5130D01*
X12550Y4780D02*Y5080D01*
Y4780D02*X12600Y4730D01*
X12750D01*
X12870Y4930D02*X13070Y4730D01*
X12870Y4930D02*X13120D01*
X13070Y4730D02*Y5130D01*
X13240D02*X13440Y4930D01*
Y4780D02*Y4930D01*
X13390Y4730D02*X13440Y4780D01*
X13290Y4730D02*X13390D01*
X13240Y4780D02*X13290Y4730D01*
X13240Y4780D02*Y4880D01*
X13290Y4930D01*
X13440D01*
X13610Y5130D02*X13710D01*
X13660Y4730D02*Y5130D01*
X13560Y4830D02*X13660Y4730D01*
G54D35*X11680Y6680D02*Y7220D01*
X12520D01*
Y6680D01*
X11680D01*
G04 Text: C490 *
G54D29*X12000Y7780D02*X12150D01*
X11950Y7730D02*X12000Y7780D01*
X11950Y7430D02*Y7730D01*
Y7430D02*X12000Y7380D01*
X12150D01*
X12270Y7580D02*X12470Y7380D01*
X12270Y7580D02*X12520D01*
X12470Y7380D02*Y7780D01*
X12640D02*X12840Y7580D01*
Y7430D02*Y7580D01*
X12790Y7380D02*X12840Y7430D01*
X12690Y7380D02*X12790D01*
X12640Y7430D02*X12690Y7380D01*
X12640Y7430D02*Y7530D01*
X12690Y7580D01*
X12840D01*
X12960Y7730D02*X13010Y7780D01*
X12960Y7430D02*Y7730D01*
Y7430D02*X13010Y7380D01*
X13110D01*
X13160Y7430D01*
Y7730D01*
X13110Y7780D02*X13160Y7730D01*
X13010Y7780D02*X13110D01*
X12960Y7680D02*X13160Y7480D01*
G54D11*X8399Y16318D02*Y13018D01*
Y16318D02*X22899D01*
X8399Y13018D02*X22899D01*
Y16318D02*Y13018D01*
G04 Text: J2 *
G54D29*X7699Y14518D02*X7849D01*
Y14868D01*
X7799Y14918D02*X7849Y14868D01*
X7749Y14918D02*X7799D01*
X7699Y14868D02*X7749Y14918D01*
X7969Y14568D02*X8019Y14518D01*
X8169D01*
X8219Y14568D01*
Y14668D01*
X7969Y14918D02*X8219Y14668D01*
X7969Y14918D02*X8219D01*
G04 Text: BACK SILK *
X22450Y21100D02*X22650D01*
X22700Y21050D01*
Y20950D02*Y21050D01*
X22650Y20900D02*X22700Y20950D01*
X22500Y20900D02*X22650D01*
X22500Y20700D02*Y21100D01*
X22450Y20700D02*X22650D01*
X22700Y20750D01*
Y20850D01*
X22650Y20900D02*X22700Y20850D01*
X22820Y20750D02*Y21100D01*
Y20750D02*X22870Y20700D01*
X23020D01*
X23070Y20750D01*
Y21100D01*
X22820Y20900D02*X23070D01*
X23240Y21100D02*X23390D01*
X23190Y21050D02*X23240Y21100D01*
X23190Y20750D02*Y21050D01*
Y20750D02*X23240Y20700D01*
X23390D01*
X23510D02*Y21100D01*
Y20900D02*X23710Y20700D01*
X23510Y20900D02*X23710Y21100D01*
X24210Y20700D02*X24260Y20750D01*
X24060Y20700D02*X24210D01*
X24010Y20750D02*X24060Y20700D01*
X24010Y20750D02*Y20850D01*
X24060Y20900D01*
X24210D01*
X24260Y20950D01*
Y21050D01*
X24210Y21100D02*X24260Y21050D01*
X24060Y21100D02*X24210D01*
X24010Y21050D02*X24060Y21100D01*
X24380Y20700D02*X24480D01*
X24430D02*Y21100D01*
X24380D02*X24480D01*
X24600Y20700D02*Y21100D01*
X24800D01*
X24920Y20700D02*Y21100D01*
Y20900D02*X25120Y20700D01*
X24920Y20900D02*X25120Y21100D01*
%LNCUTS*%
%LPC*%
G54D13*X5650Y4210D03*
G54D17*X6730D03*
X7810D03*
X8890D03*
X9970D03*
X6190Y3090D03*
X7270D03*
X8350D03*
X9430D03*
G54D23*X2950Y3650D03*
G54D36*X10900Y7280D02*X11120D01*
G54D39*X10900Y7020D02*X11120D01*
X10900Y6770D02*X11120D01*
X10900Y6510D02*X11120D01*
X10900Y6250D02*X11120D01*
X10900Y6000D02*X11120D01*
X10900Y5740D02*X11120D01*
X10900Y5490D02*X11120D01*
X8780Y5480D02*X9000D01*
X8780Y5740D02*X9000D01*
X8780Y5990D02*X9000D01*
X8780Y6250D02*X9000D01*
X8780Y6510D02*X9000D01*
X8780Y6760D02*X9000D01*
X8780Y7020D02*X9000D01*
X8780Y7270D02*X9000D01*
G54D32*X12710Y6060D02*X12890D01*
X11860Y7040D02*Y6860D01*
X12340Y7040D02*Y6860D01*
M02*
