G04 Title: RX Daughterboard, solder paste, solder side *
G04 Creator: pcb-bin 1.99p *
G04 CreationDate: Thu Dec 30 23:48:06 2004 UTC *
G04 For: matt *
G04 Format: Gerber/RS-274X *
G04 PCB-Dimensions: 275000 250000 *
G04 PCB-Coordinate-Origin: lower left *
%MOIN*%
%FSLAX24Y24*%
%IPPOS*%
%ADD11C,0.0100*%
%ADD12C,0.0300*%
%ADD13R,0.0600X0.0600*%
%ADD14R,0.0660X0.0660*%
%ADD15R,0.0900X0.0900X0.0600X0.0600*%
%ADD16R,0.0900X0.0900*%
%ADD17C,0.0600*%
%ADD18C,0.0660*%
%ADD19C,0.0900X0.0600*%
%ADD20C,0.0900*%
%ADD21C,0.0125*%
%AMTHERM1*7,0,0,0.0900,0.0600,0.0125,45*%
%ADD22THERM1*%
%ADD23C,0.1300*%
%ADD24C,0.1360*%
%ADD25C,0.1600X0.1300*%
%ADD26C,0.1600*%
%ADD27C,0.0150*%
%ADD28C,0.0250*%
%ADD29C,0.0080*%
%AMTHERM2*7,0,0,0.0900,0.0600,0.0100,45*%
%ADD30THERM2*%
%ADD31C,0.0200*%
%ADD32R,0.0240X0.0240*%
%ADD33R,0.0440X0.0440*%
%ADD34R,0.0300X0.0300*%
%ADD35C,0.0060*%
%ADD36C,0.0160*%
%ADD37C,0.0460*%
%ADD38C,0.0220*%
%ADD39R,0.0160X0.0160*%
%ADD40R,0.0460X0.0460*%
%ADD41R,0.0220X0.0220*%
%ADD42C,0.0500*%
%ADD43R,0.0200X0.0200*%
%ADD44R,0.0500X0.0500*%
%ADD45R,0.0540X0.0540*%
%ADD46R,0.0650X0.0650*%
%ADD47R,0.0950X0.0950*%
%ADD48C,0.1200X0.0900*%
%ADD49C,0.1200*%
%AMTHERM3*7,0,0,0.1200,0.0900,0.0150,45*%
%ADD50THERM3*%
%ADD51C,0.0720*%
%ADD52C,0.0920X0.0720*%
%ADD53C,0.0920*%
%ADD54C,0.0240*%
%ADD55C,0.0340*%
%ADD56C,0.0119*%
%ADD57C,0.1320*%
%ADD58C,0.1100*%
%ADD59C,0.1520*%
%ADD60C,0.1520X0.1320*%
%ADD61C,0.0400*%
%ADD62C,0.0600X0.0400*%
%AMTHERM4*7,0,0,0.0600,0.0400,0.0100,45*%
%ADD63THERM4*%
%ADD64C,0.0800*%
%ADD65C,0.0800X0.0600*%
%AMTHERM5*7,0,0,0.0800,0.0600,0.0160,45*%
%ADD66THERM5*%
%LNGROUP_3*%
%LPD*%
G01X0Y0D02*
G54D32*X3990Y5040D02*Y4860D01*
X3510Y5040D02*Y4860D01*
G54D36*X10900Y7280D02*X11120D01*
G54D39*X10900Y7020D02*X11120D01*
X10900Y6770D02*X11120D01*
X10900Y6510D02*X11120D01*
X10900Y6250D02*X11120D01*
X10900Y6000D02*X11120D01*
X10900Y5740D02*X11120D01*
X10900Y5490D02*X11120D01*
X8780Y5480D02*X9000D01*
X8780Y5740D02*X9000D01*
X8780Y5990D02*X9000D01*
X8780Y6250D02*X9000D01*
X8780Y6510D02*X9000D01*
X8780Y6760D02*X9000D01*
X8780Y7020D02*X9000D01*
X8780Y7270D02*X9000D01*
G54D32*X12710Y6540D02*X12890D01*
X12710Y6060D02*X12890D01*
X10590Y7940D02*Y7760D01*
X10110Y7940D02*Y7760D01*
X11810Y5390D02*Y5210D01*
X12290Y5390D02*Y5210D01*
X11860Y7040D02*Y6860D01*
X12340Y7040D02*Y6860D01*
G54D54*X9499Y14428D02*Y13518D01*
X21704Y15881D02*Y14971D01*
X10286Y14428D02*Y13518D01*
X9893Y14428D02*Y13518D01*
X10680Y14428D02*Y13518D01*
X9499Y15881D02*Y14971D01*
X11074Y14428D02*Y13518D01*
X10286Y15881D02*Y14971D01*
X11467Y14428D02*Y13518D01*
X10680Y15881D02*Y14971D01*
X11861Y14428D02*Y13518D01*
X11074Y15881D02*Y14971D01*
X12255Y14428D02*Y13518D01*
X11467Y15881D02*Y14971D01*
X12648Y14428D02*Y13518D01*
X11861Y15881D02*Y14971D01*
X13042Y14428D02*Y13518D01*
X12255Y15881D02*Y14971D01*
X13436Y14428D02*Y13518D01*
X12648Y15881D02*Y14971D01*
X13042Y15881D02*Y14971D01*
X13436Y15881D02*Y14971D01*
X13830Y15881D02*Y14971D01*
X14223Y15881D02*Y14971D01*
X14617Y15881D02*Y14971D01*
X15011Y15881D02*Y14971D01*
X15404Y15881D02*Y14971D01*
X15798Y15881D02*Y14971D01*
X16192Y15881D02*Y14971D01*
X16585Y15881D02*Y14971D01*
X16979Y15881D02*Y14971D01*
X17373Y15881D02*Y14971D01*
X17767Y15881D02*Y14971D01*
X18160Y15881D02*Y14971D01*
X18554Y15881D02*Y14971D01*
X19341Y15881D02*Y14971D01*
X18948Y15881D02*Y14971D01*
X19735Y15881D02*Y14971D01*
X20129Y15881D02*Y14971D01*
X20522Y15881D02*Y14971D01*
X20916Y15881D02*Y14971D01*
X9893Y15881D02*Y14971D01*
X13830Y14428D02*Y13518D01*
X14223Y14428D02*Y13518D01*
X14617Y14428D02*Y13518D01*
X15011Y14428D02*Y13518D01*
X15404Y14428D02*Y13518D01*
X15798Y14428D02*Y13518D01*
X16192Y14428D02*Y13518D01*
X16585Y14428D02*Y13518D01*
X16979Y14428D02*Y13518D01*
X17373Y14428D02*Y13518D01*
X17767Y14428D02*Y13518D01*
X18160Y14428D02*Y13518D01*
X18554Y14428D02*Y13518D01*
X18948Y14428D02*Y13518D01*
X19341Y14428D02*Y13518D01*
X19735Y14428D02*Y13518D01*
X20129Y14428D02*Y13518D01*
X20522Y14428D02*Y13518D01*
X20916Y14428D02*Y13518D01*
X21310Y14428D02*Y13518D01*
X21704Y14428D02*Y13518D01*
X21310Y15881D02*Y14971D01*
M02*
