M48
INCH,TZ
T01C0.020
T02C0.028
T03C0.035
T04C0.040
T05C0.058
T06C0.060
T07C0.125
T08C0.128
%
T01
X009250Y011800
X022550Y016500
X020900Y016650
X017000Y016450
X018000Y017300
X020450Y007600
X020250Y012950
X010600Y012700
X014149Y011009
X016550Y017100
X015679Y012730
X015990Y011460
X012350Y012300
X009950Y010900
X010950Y012300
X019200Y009350
X014149Y011660
X011828Y005970
X008700Y015850
X008500Y013500
X019650Y005200
X022300Y013700
X017350Y012600
X023600Y010500
X017350Y010550
X009350Y006400
X009750Y005950
T02
X007600Y007050
X014500Y006300
X005060Y004910
X003650Y008050
X004700Y008250
X005900Y007100
T03
X005650Y004210
X006730Y004210
X007810Y004210
X008890Y004210
X009970Y004210
X006190Y003090
X007270Y003090
X008350Y003090
X009430Y003090
T04
X001100Y023500
X002100Y023500
X001100Y022500
X002100Y022500
X001100Y021500
X002100Y021500
X001100Y020500
X002100Y020500
X001100Y019500
X002100Y019500
X001100Y018500
X002100Y018500
X001100Y017500
X002100Y017500
X001100Y016500
X002100Y016500
X001050Y011750
X002050Y011750
X001050Y010750
X002050Y010750
X001050Y009750
X002050Y009750
X001050Y008750
X002050Y008750
X001050Y007750
X002050Y007750
X001050Y006750
X002050Y006750
X001050Y005750
X002050Y005750
X001050Y004750
X002050Y004750
X007050Y008750
X007050Y009750
X008050Y008750
X008050Y009750
X009050Y008750
X009050Y009750
X010050Y008750
X010050Y009750
X011050Y008750
X011050Y009750
X012050Y008750
X012050Y009750
X013050Y008750
X013050Y009750
X014050Y008750
X014050Y009750
X018350Y011250
X018350Y012250
X019350Y011250
X019350Y012250
X020350Y011250
X020350Y012250
X021350Y011250
X021350Y012250
X022350Y011250
X022350Y012250
X007700Y020950
X007700Y021950
X008700Y020950
X008700Y021950
X009700Y020950
X009700Y021950
X010700Y020950
X010700Y021950
X011700Y020950
X011700Y021950
X012700Y020950
X012700Y021950
X013700Y020950
X013700Y021950
X014700Y020950
X014700Y021950
X015700Y020950
X015700Y021950
X016700Y020950
X016700Y021950
T06
X022350Y001850
X021350Y002850
X023350Y002850
X021350Y000850
X023350Y000850
X016050Y001850
X015050Y002850
X017050Y002850
X015050Y000850
X017050Y000850
T07
X002950Y003650
X012670Y003650
T05
X008830Y014700
X022373Y014700
T08
X001500Y001500
X026000Y023500
X026000Y001500
X005500Y019500
M30
