G04 Title: RX Daughterboard, solder mask component side *
G04 Creator: pcb-bin 1.99p *
G04 CreationDate: Thu Dec 30 23:48:06 2004 UTC *
G04 For: matt *
G04 Format: Gerber/RS-274X *
G04 PCB-Dimensions: 275000 250000 *
G04 PCB-Coordinate-Origin: lower left *
%MOIN*%
%FSLAX24Y24*%
%IPPOS*%
%ADD11C,0.0100*%
%ADD12C,0.0300*%
%ADD13R,0.0600X0.0600*%
%ADD14R,0.0660X0.0660*%
%ADD15R,0.0900X0.0900X0.0600X0.0600*%
%ADD16R,0.0900X0.0900*%
%ADD17C,0.0600*%
%ADD18C,0.0660*%
%ADD19C,0.0900X0.0600*%
%ADD20C,0.0900*%
%ADD21C,0.0125*%
%AMTHERM1*7,0,0,0.0900,0.0600,0.0125,45*%
%ADD22THERM1*%
%ADD23C,0.1300*%
%ADD24C,0.1360*%
%ADD25C,0.1600X0.1300*%
%ADD26C,0.1600*%
%ADD27C,0.0150*%
%ADD28C,0.0250*%
%ADD29C,0.0080*%
%AMTHERM2*7,0,0,0.0900,0.0600,0.0100,45*%
%ADD30THERM2*%
%ADD31C,0.0200*%
%ADD32R,0.0240X0.0240*%
%ADD33R,0.0440X0.0440*%
%ADD34R,0.0300X0.0300*%
%ADD35C,0.0060*%
%ADD36C,0.0160*%
%ADD37C,0.0460*%
%ADD38C,0.0220*%
%ADD39R,0.0160X0.0160*%
%ADD40R,0.0460X0.0460*%
%ADD41R,0.0220X0.0220*%
%ADD42C,0.0500*%
%ADD43R,0.0200X0.0200*%
%ADD44R,0.0500X0.0500*%
%ADD45R,0.0540X0.0540*%
%ADD46R,0.0650X0.0650*%
%ADD47R,0.0950X0.0950*%
%ADD48C,0.1200X0.0900*%
%ADD49C,0.1200*%
%AMTHERM3*7,0,0,0.1200,0.0900,0.0150,45*%
%ADD50THERM3*%
%ADD51C,0.0720*%
%ADD52C,0.0920X0.0720*%
%ADD53C,0.0920*%
%ADD54C,0.0240*%
%ADD55C,0.0340*%
%ADD56C,0.0119*%
%ADD57C,0.1320*%
%ADD58C,0.1100*%
%ADD59C,0.1520*%
%ADD60C,0.1520X0.1320*%
%ADD61C,0.0400*%
%ADD62C,0.0600X0.0400*%
%AMTHERM4*7,0,0,0.0600,0.0400,0.0100,45*%
%ADD63THERM4*%
%ADD64C,0.0800*%
%ADD65C,0.0800X0.0600*%
%AMTHERM5*7,0,0,0.0800,0.0600,0.0160,45*%
%ADD66THERM5*%
%LNGROUP_3*%
%LPD*%
G01X0Y0D02*
G54D31*X8660Y7100D02*X8940D01*
G54D43*X8660Y6600D02*X8940D01*
X8660Y6100D02*X8940D01*
X8660Y5600D02*X8940D01*
X10700D02*X10980D01*
X10700Y6100D02*X10980D01*
X10700Y6600D02*X10980D01*
X10700Y7100D02*X10980D01*
G54D32*X12240Y6690D02*Y6510D01*
X11760Y6690D02*Y6510D01*
X16510Y9840D02*X16690D01*
X16510Y9360D02*X16690D01*
X15810D02*X15990D01*
X15810Y9840D02*X15990D01*
G54D46*X16000Y5380D02*Y5030D01*
X17000Y5380D02*Y5030D01*
X18000Y5380D02*Y5030D01*
Y8370D02*Y8020D01*
X17000Y8370D02*Y8020D01*
X16000Y8370D02*Y8020D01*
G54D32*X19910Y6540D02*X20090D01*
X19910Y6060D02*X20090D01*
X19160Y7590D02*X19340D01*
X19160Y7110D02*X19340D01*
X19210Y6540D02*X19390D01*
X19210Y6060D02*X19390D01*
X19910Y7590D02*X20090D01*
X19910Y7110D02*X20090D01*
X22310Y4040D02*Y3860D01*
X22790Y4040D02*Y3860D01*
X22410Y9990D02*X22590D01*
X22410Y9510D02*X22590D01*
X23260Y9990D02*X23440D01*
X23260Y9510D02*X23440D01*
X21660D02*X21840D01*
X21660Y9990D02*X21840D01*
X18160Y9360D02*X18340D01*
X18160Y9840D02*X18340D01*
X24010Y9510D02*X24190D01*
X24010Y9990D02*X24190D01*
X17460Y9840D02*X17640D01*
X17460Y9360D02*X17640D01*
G54D46*X21950Y5630D02*Y5280D01*
X22950Y5630D02*Y5280D01*
X23950Y5630D02*Y5280D01*
Y8620D02*Y8270D01*
X22950Y8620D02*Y8270D01*
X21950Y8620D02*Y8270D01*
G54D32*X16040Y4090D02*Y3910D01*
X15560Y4090D02*Y3910D01*
G54D14*X5650Y4210D03*
G54D18*X6730D03*
X7810D03*
X8890D03*
X9970D03*
X6190Y3090D03*
X7270D03*
X8350D03*
X9430D03*
G54D24*X2950Y3650D03*
X12670D03*
G54D14*X1100Y23500D03*
G54D18*X2100D03*
X1100Y22500D03*
X2100D03*
X1100Y21500D03*
X2100D03*
X1100Y20500D03*
X2100D03*
X1100Y19500D03*
X2100D03*
X1100Y18500D03*
X2100D03*
X1100Y17500D03*
X2100D03*
X1100Y16500D03*
X2100D03*
G54D14*X1050Y11750D03*
G54D18*X2050D03*
X1050Y10750D03*
X2050D03*
X1050Y9750D03*
X2050D03*
X1050Y8750D03*
X2050D03*
X1050Y7750D03*
X2050D03*
X1050Y6750D03*
X2050D03*
X1050Y5750D03*
X2050D03*
X1050Y4750D03*
X2050D03*
G54D14*X7050Y8750D03*
G54D18*Y9750D03*
X8050Y8750D03*
Y9750D03*
X9050Y8750D03*
Y9750D03*
X10050Y8750D03*
Y9750D03*
X11050Y8750D03*
Y9750D03*
X12050Y8750D03*
Y9750D03*
X13050Y8750D03*
Y9750D03*
X14050Y8750D03*
Y9750D03*
G54D20*X22350Y1850D03*
X21350Y2850D03*
X23350D03*
X21350Y850D03*
X23350D03*
X16050Y1850D03*
X15050Y2850D03*
X17050D03*
X15050Y850D03*
X17050D03*
G54D14*X18350Y11250D03*
G54D18*Y12250D03*
X19350Y11250D03*
Y12250D03*
X20350Y11250D03*
Y12250D03*
X21350Y11250D03*
Y12250D03*
X22350Y11250D03*
Y12250D03*
G54D14*X7700Y20950D03*
G54D18*Y21950D03*
X8700Y20950D03*
Y21950D03*
X9700Y20950D03*
Y21950D03*
X10700Y20950D03*
Y21950D03*
X11700Y20950D03*
Y21950D03*
X12700Y20950D03*
Y21950D03*
X13700Y20950D03*
Y21950D03*
X14700Y20950D03*
Y21950D03*
X15700Y20950D03*
Y21950D03*
X16700Y20950D03*
Y21950D03*
G54D51*X8830Y14700D03*
X22373D03*
G54D58*X1500Y1500D03*
X26000Y23500D03*
Y1500D03*
X5500Y19500D03*
M02*
