G04 Title: RX Daughterboard, layergroup #3 *
G04 Creator: pcb-bin 1.99p *
G04 CreationDate: Thu Dec 30 23:48:06 2004 UTC *
G04 For: matt *
G04 Format: Gerber/RS-274X *
G04 PCB-Dimensions: 275000 250000 *
G04 PCB-Coordinate-Origin: lower left *
%MOIN*%
%FSLAX24Y24*%
G04 contains layers GND-sldr (1) *
%IPPOS*%
%ADD11C,0.0100*%
%ADD12C,0.0300*%
%ADD13R,0.0600X0.0600*%
%ADD14R,0.0660X0.0660*%
%ADD15R,0.0900X0.0900X0.0600X0.0600*%
%ADD16R,0.0900X0.0900*%
%ADD17C,0.0600*%
%ADD18C,0.0660*%
%ADD19C,0.0900X0.0600*%
%ADD20C,0.0900*%
%ADD21C,0.0125*%
%AMTHERM1*7,0,0,0.0900,0.0600,0.0125,45*%
%ADD22THERM1*%
%ADD23C,0.1300*%
%ADD24C,0.1360*%
%ADD25C,0.1600X0.1300*%
%ADD26C,0.1600*%
%ADD27C,0.0150*%
%ADD28C,0.0250*%
%ADD29C,0.0080*%
%AMTHERM2*7,0,0,0.0900,0.0600,0.0100,45*%
%ADD30THERM2*%
%ADD31C,0.0200*%
%ADD32R,0.0240X0.0240*%
%ADD33R,0.0440X0.0440*%
%ADD34R,0.0300X0.0300*%
%ADD35C,0.0060*%
%ADD36C,0.0160*%
%ADD37C,0.0460*%
%ADD38C,0.0220*%
%ADD39R,0.0160X0.0160*%
%ADD40R,0.0460X0.0460*%
%ADD41R,0.0220X0.0220*%
%ADD42C,0.0500*%
%ADD43R,0.0200X0.0200*%
%ADD44R,0.0500X0.0500*%
%ADD45R,0.0540X0.0540*%
%ADD46R,0.0650X0.0650*%
%ADD47R,0.0950X0.0950*%
%ADD48C,0.1200X0.0900*%
%ADD49C,0.1200*%
%AMTHERM3*7,0,0,0.1200,0.0900,0.0150,45*%
%ADD50THERM3*%
%ADD51C,0.0720*%
%ADD52C,0.0920X0.0720*%
%ADD53C,0.0920*%
%ADD54C,0.0240*%
%ADD55C,0.0340*%
%ADD56C,0.0119*%
%ADD57C,0.1320*%
%ADD58C,0.1100*%
%ADD59C,0.1520*%
%ADD60C,0.1520X0.1320*%
%ADD61C,0.0400*%
%ADD62C,0.0600X0.0400*%
%AMTHERM4*7,0,0,0.0600,0.0400,0.0100,45*%
%ADD63THERM4*%
%ADD64C,0.0800*%
%ADD65C,0.0800X0.0600*%
%AMTHERM5*7,0,0,0.0800,0.0600,0.0160,45*%
%ADD66THERM5*%
%LNGROUP_2*%
%LPD*%
G01X0Y0D02*
G54D11*G36*
X16900Y350D02*X27250D01*
Y19500D01*
X16900D01*
Y350D01*
G37*
G36*
X400Y4800D02*X15350D01*
Y10450D01*
X400D01*
Y4800D01*
G37*
G36*
X14650Y350D02*X15900D01*
Y4600D01*
X14650D01*
Y350D01*
G37*
G36*
X14200Y450D02*X400D01*
Y5200D01*
X14200D01*
Y450D01*
G37*
G36*
X15500Y350D02*X17650D01*
Y10250D01*
X15500D01*
Y350D01*
G37*
G36*
X150Y10450D02*X16800D01*
Y24900D01*
X150D01*
Y10450D01*
G37*
%LNCUTS*%
%LPC*%
G54D17*X22550Y16500D03*
X20900Y16650D03*
X17000Y16450D03*
X18000Y17300D03*
X20450Y7600D03*
X20250Y12950D03*
X19200Y9350D03*
X19650Y5200D03*
X22300Y13700D03*
X23600Y10500D03*
X17350Y12600D03*
Y10550D03*
G54D16*X18350Y11250D03*
G54D20*Y12250D03*
X19350Y11250D03*
Y12250D03*
X20350Y11250D03*
Y12250D03*
X21350Y11250D03*
Y12250D03*
X22350Y11250D03*
Y12250D03*
G54D49*X17050Y850D03*
Y2850D03*
X21350D03*
Y850D03*
X23350D03*
X22350Y1850D03*
X23350Y2850D03*
G54D64*X7600Y7050D03*
X5060Y4910D03*
X5900Y7100D03*
X14500Y6300D03*
G54D17*X11828Y5970D03*
X9750Y5950D03*
X9350Y6400D03*
G54D64*X3650Y8050D03*
X4700Y8250D03*
G54D20*X13050Y9750D03*
X14050D03*
X7050D03*
X8050D03*
X9050D03*
X10050D03*
X11050D03*
X12050D03*
X1050Y10750D03*
X2050D03*
X1050Y9750D03*
X2050D03*
X1050Y8750D03*
X2050D03*
X1050Y7750D03*
X2050D03*
X1050Y6750D03*
X2050D03*
X1050Y5750D03*
X2050D03*
X1050Y4750D03*
X2050D03*
G54D16*X7050Y8750D03*
G54D20*X8050D03*
X9050D03*
X10050D03*
X11050D03*
X12050D03*
X13050D03*
X14050D03*
G54D49*X16050Y1850D03*
X15050Y2850D03*
Y850D03*
G54D64*X5060Y4910D03*
G54D26*X2950Y3650D03*
X12670D03*
G54D20*X1050Y4750D03*
X2050D03*
G54D16*X5650Y4210D03*
G54D20*X6730D03*
X6190Y3090D03*
X7270D03*
X7810Y4210D03*
X8890D03*
X9970D03*
X8350Y3090D03*
X9430D03*
G54D49*X16050Y1850D03*
X15050Y2850D03*
X17050Y850D03*
Y2850D03*
X15050Y850D03*
G54D17*X10600Y12700D03*
X15679Y12730D03*
X12350Y12300D03*
X10950D03*
X14149Y11009D03*
X15990Y11460D03*
X9950Y10900D03*
X14149Y11660D03*
X9250Y11800D03*
X8700Y15850D03*
X8500Y13500D03*
X17000Y16450D03*
X16550Y17100D03*
G54D16*X1100Y23500D03*
G54D20*X2100D03*
X1100Y22500D03*
X2100D03*
X1100Y21500D03*
X2100D03*
Y20500D03*
Y19500D03*
Y18500D03*
Y17500D03*
Y16500D03*
X1100Y20500D03*
Y19500D03*
Y18500D03*
Y17500D03*
Y16500D03*
G54D16*X1050Y11750D03*
G54D20*X2050D03*
X1050Y10750D03*
X2050D03*
G54D16*X7700Y20950D03*
G54D20*Y21950D03*
X8700Y20950D03*
Y21950D03*
X9700Y20950D03*
Y21950D03*
X10700Y20950D03*
Y21950D03*
X11700D03*
X12700D03*
X11700Y20950D03*
X12700D03*
X13700D03*
X14700D03*
X15700D03*
X16700D03*
X13700Y21950D03*
X14700D03*
X15700D03*
X16700D03*
%LNTRACKS*%
%LPD*%
G54D13*X5650Y4210D03*
G54D17*X6730D03*
X7810D03*
X8890D03*
X9970D03*
G54D21*X9655Y4525D02*X10285Y3895D01*
X9655D02*X10285Y4525D01*
G54D17*X6190Y3090D03*
X7270D03*
X8350D03*
X9430D03*
G54D23*X2950Y3650D03*
X12670D03*
G54D13*X1100Y23500D03*
G54D17*X2100D03*
G54D11*X1785Y23815D02*X2415Y23185D01*
X1785D02*X2415Y23815D01*
G54D17*X1100Y22500D03*
X2100D03*
G54D11*X1785Y22815D02*X2415Y22185D01*
X1785D02*X2415Y22815D01*
G54D17*X1100Y21500D03*
X2100D03*
G54D11*X1785Y21815D02*X2415Y21185D01*
X1785D02*X2415Y21815D01*
G54D17*X1100Y20500D03*
X2100D03*
G54D11*X1785Y20815D02*X2415Y20185D01*
X1785D02*X2415Y20815D01*
G54D17*X1100Y19500D03*
X2100D03*
G54D11*X1785Y19815D02*X2415Y19185D01*
X1785D02*X2415Y19815D01*
G54D17*X1100Y18500D03*
X2100D03*
G54D11*X1785Y18815D02*X2415Y18185D01*
X1785D02*X2415Y18815D01*
G54D17*X1100Y17500D03*
X2100D03*
G54D11*X1785Y17815D02*X2415Y17185D01*
X1785D02*X2415Y17815D01*
G54D17*X1100Y16500D03*
X2100D03*
G54D11*X1785Y16815D02*X2415Y16185D01*
X1785D02*X2415Y16815D01*
G54D13*X1050Y11750D03*
G54D17*X2050D03*
G54D11*X1735Y12065D02*X2365Y11435D01*
X1735D02*X2365Y12065D01*
G54D17*X1050Y10750D03*
X2050D03*
G54D11*X1735Y11065D02*X2365Y10435D01*
X1735D02*X2365Y11065D01*
G54D17*X1050Y9750D03*
X2050D03*
G54D11*X1735Y10065D02*X2365Y9435D01*
X1735D02*X2365Y10065D01*
G54D17*X1050Y8750D03*
X2050D03*
G54D11*X1735Y9065D02*X2365Y8435D01*
X1735D02*X2365Y9065D01*
G54D17*X1050Y7750D03*
X2050D03*
G54D11*X1735Y8065D02*X2365Y7435D01*
X1735D02*X2365Y8065D01*
G54D17*X1050Y6750D03*
X2050D03*
G54D11*X1735Y7065D02*X2365Y6435D01*
X1735D02*X2365Y7065D01*
G54D17*X1050Y5750D03*
X2050D03*
G54D11*X1735Y6065D02*X2365Y5435D01*
X1735D02*X2365Y6065D01*
G54D17*X1050Y4750D03*
X2050D03*
G54D11*X1735Y5065D02*X2365Y4435D01*
X1735D02*X2365Y5065D01*
G54D13*X7050Y8750D03*
G54D17*Y9750D03*
G54D11*X6735Y10065D02*X7365Y9435D01*
X6735D02*X7365Y10065D01*
G54D17*X8050Y8750D03*
Y9750D03*
G54D11*X7735Y10065D02*X8365Y9435D01*
X7735D02*X8365Y10065D01*
G54D17*X9050Y8750D03*
Y9750D03*
X10050Y8750D03*
Y9750D03*
X11050Y8750D03*
Y9750D03*
X12050Y8750D03*
Y9750D03*
X13050Y8750D03*
Y9750D03*
X14050Y8750D03*
Y9750D03*
G54D11*X13735Y10065D02*X14365Y9435D01*
X13735D02*X14365Y10065D01*
G54D20*X22350Y1850D03*
X21350Y2850D03*
G54D27*X20930Y3270D02*X21770Y2430D01*
X20930D02*X21770Y3270D01*
G54D20*X23350Y2850D03*
G54D27*X22930Y3270D02*X23770Y2430D01*
X22930D02*X23770Y3270D01*
G54D20*X21350Y850D03*
G54D27*X20930Y1270D02*X21770Y430D01*
X20930D02*X21770Y1270D01*
G54D20*X23350Y850D03*
G54D27*X22930Y1270D02*X23770Y430D01*
X22930D02*X23770Y1270D01*
G54D20*X16050Y1850D03*
X15050Y2850D03*
G54D27*X14630Y3270D02*X15470Y2430D01*
X14630D02*X15470Y3270D01*
G54D20*X17050Y2850D03*
G54D27*X16630Y3270D02*X17470Y2430D01*
X16630D02*X17470Y3270D01*
G54D20*X15050Y850D03*
G54D27*X14630Y1270D02*X15470Y430D01*
X14630D02*X15470Y1270D01*
G54D20*X17050Y850D03*
G54D27*X16630Y1270D02*X17470Y430D01*
X16630D02*X17470Y1270D01*
G54D13*X18350Y11250D03*
G54D17*Y12250D03*
X19350Y11250D03*
Y12250D03*
X20350Y11250D03*
Y12250D03*
X21350Y11250D03*
Y12250D03*
X22350Y11250D03*
G54D11*X22035Y11565D02*X22665Y10935D01*
X22035D02*X22665Y11565D01*
G54D17*X22350Y12250D03*
G54D11*X22035Y12565D02*X22665Y11935D01*
X22035D02*X22665Y12565D01*
G54D13*X7700Y20950D03*
G54D17*Y21950D03*
X8700Y20950D03*
Y21950D03*
X9700Y20950D03*
Y21950D03*
X10700Y20950D03*
Y21950D03*
X11700Y20950D03*
Y21950D03*
X12700Y20950D03*
Y21950D03*
X13700Y20950D03*
Y21950D03*
X14700Y20950D03*
Y21950D03*
X15700Y20950D03*
Y21950D03*
X16700Y20950D03*
Y21950D03*
G54D11*X16385Y22265D02*X17015Y21635D01*
X16385D02*X17015Y22265D01*
G54D61*X9250Y11800D03*
X22550Y16500D03*
X20900Y16650D03*
X17000Y16450D03*
X18000Y17300D03*
X20450Y7600D03*
X20250Y12950D03*
X10600Y12700D03*
X14149Y11009D03*
X16550Y17100D03*
G54D11*X16340Y17310D02*X16760Y16890D01*
X16340D02*X16760Y17310D01*
G54D61*X15679Y12730D03*
X15990Y11460D03*
X12350Y12300D03*
X9950Y10900D03*
X10950Y12300D03*
X19200Y9350D03*
X14149Y11660D03*
G54D17*X7600Y7050D03*
G54D61*X11828Y5970D03*
G54D11*X11618Y6180D02*X12038Y5760D01*
X11618D02*X12038Y6180D01*
G54D61*X8700Y15850D03*
G54D11*X8490Y16060D02*X8910Y15640D01*
X8490D02*X8910Y16060D01*
G54D61*X8500Y13500D03*
G54D11*X8290Y13710D02*X8710Y13290D01*
X8290D02*X8710Y13710D01*
G54D61*X19650Y5200D03*
G54D11*X19440Y5410D02*X19860Y4990D01*
X19440D02*X19860Y5410D01*
G54D61*X22300Y13700D03*
G54D11*X22090Y13910D02*X22510Y13490D01*
X22090D02*X22510Y13910D01*
G54D61*X17350Y12600D03*
G54D11*X17140Y12810D02*X17560Y12390D01*
X17140D02*X17560Y12810D01*
G54D61*X23600Y10500D03*
G54D11*X23390Y10710D02*X23810Y10290D01*
X23390D02*X23810Y10710D01*
G54D61*X17350Y10550D03*
G54D11*X17140Y10760D02*X17560Y10340D01*
X17140D02*X17560Y10760D01*
G54D17*X14500Y6300D03*
G54D36*X14220Y6580D02*X14780Y6020D01*
X14220D02*X14780Y6580D01*
G54D17*X5060Y4910D03*
X3650Y8050D03*
X4700Y8250D03*
X5900Y7100D03*
G54D61*X9350Y6400D03*
X9750Y5950D03*
M02*
