G04 Title: TX Daughterboard, solder mask solder side *
G04 Creator: pcb-bin 1.99p *
G04 CreationDate: Thu Dec 30 02:16:24 2004 UTC *
G04 For: matt *
G04 Format: Gerber/RS-274X *
G04 PCB-Dimensions: 275000 250000 *
G04 PCB-Coordinate-Origin: lower left *
%MOIN*%
%FSLAX24Y24*%
%IPPOS*%
%ADD11C,0.0100*%
%ADD12C,0.0160*%
%ADD13C,0.0460*%
%ADD14C,0.0220*%
%ADD15R,0.0160X0.0160*%
%ADD16R,0.0460X0.0460*%
%ADD17R,0.0220X0.0220*%
%ADD18C,0.0080*%
%ADD19R,0.0600X0.0600*%
%ADD20R,0.0660X0.0660*%
%ADD21R,0.0900X0.0900X0.0600X0.0600*%
%ADD22R,0.0900X0.0900*%
%ADD23C,0.0600*%
%ADD24C,0.0660*%
%ADD25C,0.0900X0.0600*%
%ADD26C,0.0900*%
%ADD27C,0.0125*%
%AMTHERM1*7,0,0,0.0900,0.0600,0.0125,45*%
%ADD28THERM1*%
%ADD29C,0.1300*%
%ADD30C,0.1360*%
%ADD31C,0.1600X0.1300*%
%ADD32C,0.1600*%
%ADD33C,0.0200*%
%ADD34R,0.0240X0.0240*%
%ADD35R,0.0440X0.0440*%
%ADD36R,0.0300X0.0300*%
%ADD37C,0.0060*%
%AMTHERM2*7,0,0,0.0900,0.0600,0.0100,45*%
%ADD38THERM2*%
%ADD39R,0.0540X0.0540*%
%ADD40R,0.0650X0.0650*%
%ADD41R,0.0950X0.0950*%
%ADD42C,0.1200X0.0900*%
%ADD43C,0.1200*%
%ADD44C,0.0150*%
%AMTHERM3*7,0,0,0.1200,0.0900,0.0150,45*%
%ADD45THERM3*%
%ADD46C,0.0720*%
%ADD47C,0.0920X0.0720*%
%ADD48C,0.0920*%
%ADD49C,0.0240*%
%ADD50C,0.0340*%
%ADD51C,0.0500*%
%ADD52R,0.0200X0.0200*%
%ADD53R,0.0500X0.0500*%
%ADD54C,0.0137*%
%ADD55C,0.1320*%
%ADD56C,0.1520*%
%ADD57C,0.1520X0.1320*%
%ADD58C,0.0400*%
%ADD59C,0.0600X0.0400*%
%AMTHERM4*7,0,0,0.0600,0.0400,0.0100,45*%
%ADD60THERM4*%
%ADD61C,0.0800*%
%ADD62C,0.0800X0.0600*%
%AMTHERM5*7,0,0,0.0800,0.0600,0.0160,45*%
%ADD63THERM5*%
%LNGROUP_3*%
%LPD*%
G01X0Y0D02*
G54D50*X9499Y10028D02*Y9118D01*
X21704Y11481D02*Y10571D01*
X10286Y10028D02*Y9118D01*
X9893Y10028D02*Y9118D01*
X10680Y10028D02*Y9118D01*
X9499Y11481D02*Y10571D01*
X11074Y10028D02*Y9118D01*
X10286Y11481D02*Y10571D01*
X11467Y10028D02*Y9118D01*
X10680Y11481D02*Y10571D01*
X11861Y10028D02*Y9118D01*
X11074Y11481D02*Y10571D01*
X12255Y10028D02*Y9118D01*
X11467Y11481D02*Y10571D01*
X12648Y10028D02*Y9118D01*
X11861Y11481D02*Y10571D01*
X13042Y10028D02*Y9118D01*
X12255Y11481D02*Y10571D01*
X13436Y10028D02*Y9118D01*
X12648Y11481D02*Y10571D01*
X13042Y11481D02*Y10571D01*
X13436Y11481D02*Y10571D01*
X13830Y11481D02*Y10571D01*
X14223Y11481D02*Y10571D01*
X14617Y11481D02*Y10571D01*
X15011Y11481D02*Y10571D01*
X15404Y11481D02*Y10571D01*
X15798Y11481D02*Y10571D01*
X16192Y11481D02*Y10571D01*
X16585Y11481D02*Y10571D01*
X16979Y11481D02*Y10571D01*
X17373Y11481D02*Y10571D01*
X17767Y11481D02*Y10571D01*
X18160Y11481D02*Y10571D01*
X18554Y11481D02*Y10571D01*
X19341Y11481D02*Y10571D01*
X18948Y11481D02*Y10571D01*
X19735Y11481D02*Y10571D01*
X20129Y11481D02*Y10571D01*
X20522Y11481D02*Y10571D01*
X20916Y11481D02*Y10571D01*
X9893Y11481D02*Y10571D01*
X13830Y10028D02*Y9118D01*
X14223Y10028D02*Y9118D01*
X14617Y10028D02*Y9118D01*
X15011Y10028D02*Y9118D01*
X15404Y10028D02*Y9118D01*
X15798Y10028D02*Y9118D01*
X16192Y10028D02*Y9118D01*
X16585Y10028D02*Y9118D01*
X16979Y10028D02*Y9118D01*
X17373Y10028D02*Y9118D01*
X17767Y10028D02*Y9118D01*
X18160Y10028D02*Y9118D01*
X18554Y10028D02*Y9118D01*
X18948Y10028D02*Y9118D01*
X19341Y10028D02*Y9118D01*
X19735Y10028D02*Y9118D01*
X20129Y10028D02*Y9118D01*
X20522Y10028D02*Y9118D01*
X20916Y10028D02*Y9118D01*
X21310Y10028D02*Y9118D01*
X21704Y10028D02*Y9118D01*
X21310Y11481D02*Y10571D01*
G54D20*X12200Y20740D03*
G54D24*X11120D03*
X10040D03*
X8960D03*
X7880D03*
X11660Y21860D03*
X10580D03*
X9500D03*
X8420D03*
G54D30*X14900Y21300D03*
X5180D03*
G54D20*X1900Y1200D03*
G54D24*X900D03*
X1900Y2200D03*
X900D03*
X1900Y3200D03*
X900D03*
X1900Y4200D03*
X900D03*
X1900Y5200D03*
X900D03*
X1900Y6200D03*
X900D03*
X1900Y7200D03*
X900D03*
X1900Y8200D03*
X900D03*
G54D20*X1900Y11300D03*
G54D24*X900D03*
X1900Y12300D03*
X900D03*
X1900Y13300D03*
X900D03*
X1900Y14300D03*
X900D03*
X1900Y15300D03*
X900D03*
X1900Y16300D03*
X900D03*
X1900Y17300D03*
X900D03*
X1900Y18300D03*
X900D03*
G54D19*X4500Y1300D03*
G54D23*Y2300D03*
X5500Y1300D03*
Y2300D03*
X6500Y1300D03*
Y2300D03*
X7500Y1300D03*
Y2300D03*
X8500Y1300D03*
Y2300D03*
X9500Y1300D03*
Y2300D03*
X10500Y1300D03*
Y2300D03*
X11500Y1300D03*
Y2300D03*
X12500Y1300D03*
Y2300D03*
X13500Y1300D03*
Y2300D03*
G54D19*X18900Y15400D03*
G54D23*Y16400D03*
X19900Y15400D03*
Y16400D03*
X20900Y15400D03*
Y16400D03*
X21900Y15400D03*
Y16400D03*
X22900Y15400D03*
Y16400D03*
G54D26*X22600Y2200D03*
X21600Y1200D03*
Y3200D03*
X23600Y1200D03*
Y3200D03*
G54D19*X8600Y15400D03*
G54D23*Y16400D03*
X9600Y15400D03*
Y16400D03*
X10600Y15400D03*
Y16400D03*
X11600Y15400D03*
Y16400D03*
X12600Y15400D03*
Y16400D03*
X13600Y15400D03*
Y16400D03*
X14600Y15400D03*
Y16400D03*
X15600Y15400D03*
Y16400D03*
G54D26*X16900Y2200D03*
X15900Y1200D03*
Y3200D03*
X17900Y1200D03*
Y3200D03*
G54D46*X8830Y10300D03*
X22373D03*
M02*
