M48
INCH,TZ
T01C0.020
T02C0.028
T03C0.035
T04C0.040
T05C0.056
T06C0.060
T07C0.125
T08C0.128
%
T01
X022300Y009400
X016600Y011900
X018900Y012900
X020100Y012900
X019700Y013600
X014900Y014700
X014600Y013300
X013000Y013200
X013400Y012600
X019300Y007500
X020800Y007600
X020100Y008400
X018100Y007600
X017800Y006600
X014800Y018800
X009000Y011100
X009000Y009300
X018400Y012400
X021700Y012300
X010800Y012400
X011100Y019400
X021700Y007600
X017400Y012400
T02
X005300Y017900
X005900Y018400
X004500Y016400
X007900Y014200
X007200Y016000
T03
X012200Y020740
X011120Y020740
X010040Y020740
X008960Y020740
X007880Y020740
X011660Y021860
X010580Y021860
X009500Y021860
X008420Y021860
T04
X001900Y001200
X000900Y001200
X001900Y002200
X000900Y002200
X001900Y003200
X000900Y003200
X001900Y004200
X000900Y004200
X001900Y005200
X000900Y005200
X001900Y006200
X000900Y006200
X001900Y007200
X000900Y007200
X001900Y008200
X000900Y008200
X001900Y011300
X000900Y011300
X001900Y012300
X000900Y012300
X001900Y013300
X000900Y013300
X001900Y014300
X000900Y014300
X001900Y015300
X000900Y015300
X001900Y016300
X000900Y016300
X001900Y017300
X000900Y017300
X001900Y018300
X000900Y018300
X004500Y001300
X004500Y002300
X005500Y001300
X005500Y002300
X006500Y001300
X006500Y002300
X007500Y001300
X007500Y002300
X008500Y001300
X008500Y002300
X009500Y001300
X009500Y002300
X010500Y001300
X010500Y002300
X011500Y001300
X011500Y002300
X012500Y001300
X012500Y002300
X013500Y001300
X013500Y002300
X018900Y015400
X018900Y016400
X019900Y015400
X019900Y016400
X020900Y015400
X020900Y016400
X021900Y015400
X021900Y016400
X022900Y015400
X022900Y016400
X008600Y015400
X008600Y016400
X009600Y015400
X009600Y016400
X010600Y015400
X010600Y016400
X011600Y015400
X011600Y016400
X012600Y015400
X012600Y016400
X013600Y015400
X013600Y016400
X014600Y015400
X014600Y016400
X015600Y015400
X015600Y016400
T06
X022600Y002200
X021600Y001200
X021600Y003200
X023600Y001200
X023600Y003200
X016900Y002200
X015900Y001200
X015900Y003200
X017900Y001200
X017900Y003200
T07
X014900Y021300
X005180Y021300
M30
