G04 Title: TX Daughterboard, layergroup #2 *
G04 Creator: pcb-bin 1.99p *
G04 CreationDate: Thu Dec 30 02:16:24 2004 UTC *
G04 For: matt *
G04 Format: Gerber/RS-274X *
G04 PCB-Dimensions: 275000 250000 *
G04 PCB-Coordinate-Origin: lower left *
%MOIN*%
%FSLAX24Y24*%
G04 contains layers component (3) *
%IPPOS*%
%ADD11C,0.0100*%
%ADD12C,0.0160*%
%ADD13C,0.0460*%
%ADD14C,0.0220*%
%ADD15R,0.0160X0.0160*%
%ADD16R,0.0460X0.0460*%
%ADD17R,0.0220X0.0220*%
%ADD18C,0.0080*%
%ADD19R,0.0600X0.0600*%
%ADD20R,0.0660X0.0660*%
%ADD21R,0.0900X0.0900X0.0600X0.0600*%
%ADD22R,0.0900X0.0900*%
%ADD23C,0.0600*%
%ADD24C,0.0660*%
%ADD25C,0.0900X0.0600*%
%ADD26C,0.0900*%
%ADD27C,0.0125*%
%AMTHERM1*7,0,0,0.0900,0.0600,0.0125,45*%
%ADD28THERM1*%
%ADD29C,0.1300*%
%ADD30C,0.1360*%
%ADD31C,0.1600X0.1300*%
%ADD32C,0.1600*%
%ADD33C,0.0200*%
%ADD34R,0.0240X0.0240*%
%ADD35R,0.0440X0.0440*%
%ADD36R,0.0300X0.0300*%
%ADD37C,0.0060*%
%AMTHERM2*7,0,0,0.0900,0.0600,0.0100,45*%
%ADD38THERM2*%
%ADD39R,0.0540X0.0540*%
%ADD40R,0.0650X0.0650*%
%ADD41R,0.0950X0.0950*%
%ADD42C,0.1200X0.0900*%
%ADD43C,0.1200*%
%ADD44C,0.0150*%
%AMTHERM3*7,0,0,0.1200,0.0900,0.0150,45*%
%ADD45THERM3*%
%ADD46C,0.0720*%
%ADD47C,0.0920X0.0720*%
%ADD48C,0.0920*%
%ADD49C,0.0240*%
%ADD50C,0.0340*%
%ADD51C,0.0500*%
%ADD52R,0.0200X0.0200*%
%ADD53R,0.0500X0.0500*%
%ADD54C,0.0137*%
%ADD55C,0.1320*%
%ADD56C,0.1520*%
%ADD57C,0.1520X0.1320*%
%ADD58C,0.0400*%
%ADD59C,0.0600X0.0400*%
%AMTHERM4*7,0,0,0.0600,0.0400,0.0100,45*%
%ADD60THERM4*%
%ADD61C,0.0800*%
%ADD62C,0.0800X0.0600*%
%AMTHERM5*7,0,0,0.0800,0.0600,0.0160,45*%
%ADD63THERM5*%
%LNGROUP_1*%
%LPD*%
G01X0Y0D02*
G54D11*X6260Y16000D02*X7200D01*
X6220Y15960D02*X6260Y16000D01*
X5700Y16500D02*X6300Y15900D01*
X5700Y16700D02*Y16500D01*
X4720Y17680D02*X5700Y16700D01*
X4600Y17680D02*X4720D01*
X7900Y20720D02*Y18900D01*
X7880Y20740D02*X7900Y20720D01*
X7240Y14200D02*X7800D01*
X7180Y14260D02*X7240Y14200D01*
X7040Y14700D02*X7100D01*
X7000Y14740D02*X7040Y14700D01*
X5860Y14740D02*X7000D01*
X5200Y15400D02*X5860Y14740D01*
X5200Y16830D02*Y15400D01*
X4600Y17430D02*X5200Y16830D01*
X7940Y14740D02*X7100D01*
X9100Y15900D02*X7940Y14740D01*
X4000Y18200D02*X4250Y18450D01*
X4000Y16900D02*Y18200D01*
X4500Y16400D02*X4000Y16900D01*
X4100Y18700D02*X4500D01*
X3700Y18300D02*X4100Y18700D01*
X3700Y16300D02*Y18300D01*
X8300Y11700D02*X3700Y16300D01*
X13200Y11700D02*X8300D01*
X13900Y12400D02*X13200Y11700D01*
X13900Y14100D02*Y12400D01*
X12600Y15400D02*X13900Y14100D01*
X6200Y16900D02*X6300Y16440D01*
X6280Y17680D02*X6200Y16900D01*
X6500Y17680D02*X6280D01*
X6720Y18700D02*X7460D01*
X8400D02*X8600D01*
X8100Y18400D02*X8400Y18700D01*
X6770Y18400D02*X8100D01*
X6720Y18450D02*X6770Y18400D01*
X9700Y21300D02*X7800D01*
X7400Y20900D02*Y19560D01*
X7800Y21300D02*X7400Y20900D01*
X8450Y18190D02*X6700D01*
X8520Y18260D02*X8450Y18190D01*
X7510Y17930D02*X6600D01*
X7520Y17940D02*X7510Y17930D01*
X6540Y17460D02*X7600D01*
X6500Y17420D02*X6540Y17460D01*
X5000Y18400D02*X5900D01*
X4800Y18200D02*X5000Y18400D01*
X4610Y18200D02*X4800D01*
X4600Y18190D02*X4610Y18200D01*
X5300Y17900D02*X4500D01*
X10260Y21860D02*X10580D01*
X9700Y21300D02*X10260Y21860D01*
X7400Y19560D02*X6739Y18900D01*
X6700Y18939D01*
Y18960D01*
X9500Y22200D02*Y21900D01*
X9100Y22600D02*X9500Y22200D01*
X7700Y22600D02*X9100D01*
X7100Y22000D02*X7700Y22600D01*
X7100Y19810D02*Y22000D01*
X6500Y19210D02*X7100Y19810D01*
X2840Y18960D02*X4500D01*
X2800Y19000D02*X2840Y18960D01*
X2600Y19000D02*X2800D01*
X1900Y18300D02*X2600Y19000D01*
X1800Y17300D02*X1900D01*
X1400Y17700D02*X1800Y17300D01*
X1400Y18800D02*Y17700D01*
X1800Y19200D02*X1400Y18800D01*
X4360Y19200D02*X1800D01*
X4380Y19220D02*X4360Y19200D01*
X2600Y8200D02*X1900D01*
X4000Y6800D02*X2600Y8200D01*
X4000Y4900D02*Y6800D01*
X5000Y3900D02*X4000Y4900D01*
X8100Y3900D02*X5000D01*
X9000Y3000D02*X8100Y3900D01*
X9000Y1800D02*Y3000D01*
X9500Y1300D02*X9000Y1800D01*
X2100Y7200D02*X1900D01*
X3800Y5500D02*X2100Y7200D01*
X3800Y3900D02*Y5500D01*
X4600Y3100D02*X3800Y3900D01*
X7700Y3100D02*X4600D01*
X8500Y2300D02*X7700Y3100D01*
X3100Y5000D02*X1900Y6200D01*
X3100Y2700D02*Y5000D01*
X4000Y1800D02*X3100Y2700D01*
X8000Y1800D02*X4000D01*
X8500Y1300D02*X8000Y1800D01*
X22700Y8900D02*Y9000D01*
X21700Y10200D02*X22700Y8900D01*
X22000Y10800D02*X21600Y10400D01*
X22000Y11100D02*Y10800D01*
X21900Y11100D02*X22700D01*
X12000Y19900D02*X12500Y19300D01*
X10200Y19900D02*X12000D01*
X10000D02*X10200D01*
X10000Y18700D02*Y19900D01*
X4250Y18450D02*X4380D01*
X9100Y17800D02*Y15900D01*
X10000Y18700D02*X9100Y17800D01*
X10500Y18300D02*X10000Y18700D01*
X10400Y17200D02*X10500Y17800D01*
X9600Y16400D02*X10400Y17200D01*
X17800Y6400D02*X18300Y5900D01*
X17800Y6600D02*Y6400D01*
X18300Y7100D02*X18100Y6900D01*
X17300Y5500D02*Y6100D01*
X21600Y3200D02*X21800Y5200D01*
X20700Y5300D02*X21800D01*
X14000Y18800D02*X14800D01*
X17300Y11600D02*X22700D01*
X21700Y12300D02*Y11600D01*
Y7600D02*Y8500D01*
X10600Y19300D03*
X11100Y19400D02*X10600Y19300D01*
X10700Y18800D02*X10600D01*
X11200D02*X10700D01*
X11200Y18200D02*Y18800D01*
Y17300D02*Y18200D01*
X10700Y16400D02*X11200Y17300D01*
X13000Y18300D02*X12700D01*
X13000Y17600D02*Y18300D01*
X12100Y16700D02*X13000Y17600D01*
X12100Y16000D02*Y16700D01*
X11600Y15500D02*X12100Y16000D01*
X11600Y15400D02*Y15500D01*
Y17200D02*X12700Y17800D01*
X11600Y16400D02*Y17200D01*
X12600Y18800D02*X13400D01*
X17500Y8200D02*X18100Y7600D01*
X20800Y8300D02*Y7600D01*
X19300Y7500D02*Y8300D01*
X10600Y14000D02*Y15400D01*
X11800Y12800D02*X10600Y14000D01*
X13200Y12800D02*X11800D01*
X13400Y12600D02*X13200Y12800D01*
X11100Y16100D02*X10700Y16500D01*
X11100Y14300D02*Y16100D01*
X11900Y13500D02*X11100Y14300D01*
X12700Y13500D02*X11900D01*
X13000Y13200D02*X12700Y13500D01*
X15600Y14300D02*X14600Y13300D01*
X15600Y15400D02*Y14300D01*
X14300Y14700D02*X14900D01*
X13600Y15400D02*X14300Y14700D01*
X16900Y3300D02*X19200Y5300D01*
X16900Y2200D02*Y3300D01*
X22800Y5300D02*X22600Y2200D01*
X17300Y6100D02*X18100Y6900D01*
X18600Y7400D02*X18300Y7100D01*
X18600Y7800D02*Y7400D01*
X18300Y8100D02*X18600Y7800D01*
X21200Y11100D02*Y10400D01*
X21100Y9900D02*Y10200D01*
X21000Y9800D02*X21100Y9900D01*
X21000Y8800D02*Y9800D01*
X18300Y8300D02*Y8100D01*
X20500Y11200D02*X21200D01*
X18100Y11100D02*Y10200D01*
X19300Y9600D02*Y8700D01*
X18700Y10200D02*X19300Y9600D01*
X18600Y10200D02*X18700D01*
X18600Y11100D02*Y10200D01*
Y11200D02*X19300D01*
X17300Y11100D02*X17900D01*
X17300Y9500D02*X18000Y10200D01*
X17300Y8600D02*Y9500D01*
X20400Y15900D02*X20900Y16400D01*
X20400Y14600D02*Y15900D01*
X19700Y13900D02*X20400Y14600D01*
X19700Y13600D02*Y13900D01*
X21400Y15900D02*X21900Y16400D01*
X21400Y14200D02*Y15900D01*
X20100Y12900D02*X21400Y14200D01*
X17900Y15400D02*X18900Y16400D01*
X17900Y13900D02*Y15400D01*
X18900Y12900D02*X17900Y13900D01*
G04 Text: COMP *
G54D18*X24050Y20500D02*X24200D01*
X24000Y20550D02*X24050Y20500D01*
X24000Y20850D02*Y20550D01*
Y20850D02*X24050Y20900D01*
X24200D01*
X24320Y20850D02*Y20550D01*
Y20850D02*X24370Y20900D01*
X24470D01*
X24520Y20850D01*
Y20550D01*
X24470Y20500D02*X24520Y20550D01*
X24370Y20500D02*X24470D01*
X24320Y20550D02*X24370Y20500D01*
X24640Y20900D02*Y20500D01*
Y20900D02*X24790Y20750D01*
X24940Y20900D01*
Y20500D01*
X25110Y20900D02*Y20500D01*
X25060Y20900D02*X25260D01*
X25310Y20850D01*
Y20750D01*
X25260Y20700D02*X25310Y20750D01*
X25110Y20700D02*X25260D01*
G54D19*X12200Y20740D03*
G54D23*X11120D03*
X10040D03*
X8960D03*
X7880D03*
X11660Y21860D03*
X10580D03*
X9500D03*
X8420D03*
G54D29*X14900Y21300D03*
X5180D03*
G54D19*X1900Y1200D03*
G54D23*X900D03*
X1900Y2200D03*
X900D03*
X1900Y3200D03*
X900D03*
X1900Y4200D03*
X900D03*
X1900Y5200D03*
X900D03*
X1900Y6200D03*
X900D03*
X1900Y7200D03*
X900D03*
X1900Y8200D03*
X900D03*
G54D19*X1900Y11300D03*
G54D23*X900D03*
X1900Y12300D03*
X900D03*
X1900Y13300D03*
X900D03*
X1900Y14300D03*
X900D03*
X1900Y15300D03*
X900D03*
X1900Y16300D03*
X900D03*
X1900Y17300D03*
X900D03*
X1900Y18300D03*
X900D03*
G54D19*X4500Y1300D03*
G54D23*Y2300D03*
X5500Y1300D03*
Y2300D03*
X6500Y1300D03*
Y2300D03*
X7500Y1300D03*
Y2300D03*
X8500Y1300D03*
Y2300D03*
X9500Y1300D03*
Y2300D03*
X10500Y1300D03*
Y2300D03*
X11500Y1300D03*
Y2300D03*
X12500Y1300D03*
Y2300D03*
X13500Y1300D03*
Y2300D03*
G54D19*X18900Y15400D03*
G54D23*Y16400D03*
X19900Y15400D03*
Y16400D03*
X20900Y15400D03*
Y16400D03*
X21900Y15400D03*
Y16400D03*
X22900Y15400D03*
Y16400D03*
G54D26*X22600Y2200D03*
X21600Y1200D03*
Y3200D03*
X23600Y1200D03*
Y3200D03*
G54D19*X8600Y15400D03*
G54D23*Y16400D03*
X9600Y15400D03*
Y16400D03*
X10600Y15400D03*
Y16400D03*
X11600Y15400D03*
Y16400D03*
X12600Y15400D03*
Y16400D03*
X13600Y15400D03*
Y16400D03*
X14600Y15400D03*
Y16400D03*
X15600Y15400D03*
Y16400D03*
G54D26*X16900Y2200D03*
X15900Y1200D03*
Y3200D03*
X17900Y1200D03*
Y3200D03*
G54D58*X22300Y9400D03*
X16600Y11900D03*
X18900Y12900D03*
X20100D03*
X19700Y13600D03*
X14900Y14700D03*
X14600Y13300D03*
X13000Y13200D03*
X13400Y12600D03*
X19300Y7500D03*
X20800Y7600D03*
X20100Y8400D03*
X18100Y7600D03*
X17800Y6600D03*
X14800Y18800D03*
X9000Y11100D03*
Y9300D03*
X18400Y12400D03*
X21700Y12300D03*
X10800Y12400D03*
X11100Y19400D03*
X21700Y7600D03*
X17400Y12400D03*
G54D23*X5300Y17900D03*
X5900Y18400D03*
X4500Y16400D03*
X7900Y14200D03*
X7200Y16000D03*
G54D12*X6500Y17420D02*X6720D01*
G54D15*X6500Y17680D02*X6720D01*
X6500Y17930D02*X6720D01*
X6500Y18190D02*X6720D01*
X6500Y18450D02*X6720D01*
X6500Y18700D02*X6720D01*
X6500Y18960D02*X6720D01*
X6500Y19210D02*X6720D01*
X4380Y19220D02*X4600D01*
X4380Y18960D02*X4600D01*
X4380Y18710D02*X4600D01*
X4380Y18450D02*X4600D01*
X4380Y18190D02*X4600D01*
X4380Y17940D02*X4600D01*
X4380Y17680D02*X4600D01*
X4380Y17430D02*X4600D01*
G54D34*X7000Y14740D02*X7180D01*
X7000Y14260D02*X7180D01*
X8520Y18260D02*X8700D01*
X8520Y18740D02*X8700D01*
X7520Y17460D02*X7700D01*
X7520Y17940D02*X7700D01*
X7460Y19000D02*Y18820D01*
X7940Y19000D02*Y18820D01*
X6220Y16440D02*X6400D01*
X6220Y15960D02*X6400D01*
X22610Y11160D02*X22790D01*
X22610Y11640D02*X22790D01*
G54D40*X17300Y5680D02*Y5330D01*
X18300Y5680D02*Y5330D01*
X19300Y5680D02*Y5330D01*
Y8670D02*Y8320D01*
X18300Y8670D02*Y8320D01*
X17300Y8670D02*Y8320D01*
G54D34*X21160Y10390D02*Y10210D01*
X21640Y10390D02*Y10210D01*
X21210Y11160D02*X21390D01*
X21210Y11640D02*X21390D01*
X20510Y11160D02*X20690D01*
X20510Y11640D02*X20690D01*
X19310Y11160D02*X19490D01*
X19310Y11640D02*X19490D01*
X17910Y11160D02*X18090D01*
X17910Y11640D02*X18090D01*
X17210Y11160D02*X17390D01*
X17210Y11640D02*X17390D01*
X18610Y11160D02*X18790D01*
X18610Y11640D02*X18790D01*
X18060Y10290D02*Y10110D01*
X18540Y10290D02*Y10110D01*
G54D40*X20800Y5680D02*Y5330D01*
X21800Y5680D02*Y5330D01*
X22800Y5680D02*Y5330D01*
Y8670D02*Y8320D01*
X21800Y8670D02*Y8320D01*
X20800Y8670D02*Y8320D01*
G54D34*X21910Y11160D02*X22090D01*
X21910Y11640D02*X22090D01*
X13940Y18890D02*Y18710D01*
X13460Y18890D02*Y18710D01*
G54D33*X10410Y19300D02*X10690D01*
G54D52*X10410Y18800D02*X10690D01*
X10410Y18300D02*X10690D01*
X10410Y17800D02*X10690D01*
X12450D02*X12730D01*
X12450Y18300D02*X12730D01*
X12450Y18800D02*X12730D01*
X12450Y19300D02*X12730D01*
M02*
