G04 Title: TX Daughterboard, solder paste, component side *
G04 Creator: pcb-bin 1.99p *
G04 CreationDate: Thu Dec 30 02:16:24 2004 UTC *
G04 For: matt *
G04 Format: Gerber/RS-274X *
G04 PCB-Dimensions: 275000 250000 *
G04 PCB-Coordinate-Origin: lower left *
%MOIN*%
%FSLAX24Y24*%
%IPPOS*%
%ADD11C,0.0100*%
%ADD12C,0.0160*%
%ADD13C,0.0460*%
%ADD14C,0.0220*%
%ADD15R,0.0160X0.0160*%
%ADD16R,0.0460X0.0460*%
%ADD17R,0.0220X0.0220*%
%ADD18C,0.0080*%
%ADD19R,0.0600X0.0600*%
%ADD20R,0.0660X0.0660*%
%ADD21R,0.0900X0.0900X0.0600X0.0600*%
%ADD22R,0.0900X0.0900*%
%ADD23C,0.0600*%
%ADD24C,0.0660*%
%ADD25C,0.0900X0.0600*%
%ADD26C,0.0900*%
%ADD27C,0.0125*%
%AMTHERM1*7,0,0,0.0900,0.0600,0.0125,45*%
%ADD28THERM1*%
%ADD29C,0.1300*%
%ADD30C,0.1360*%
%ADD31C,0.1600X0.1300*%
%ADD32C,0.1600*%
%ADD33C,0.0200*%
%ADD34R,0.0240X0.0240*%
%ADD35R,0.0440X0.0440*%
%ADD36R,0.0300X0.0300*%
%ADD37C,0.0060*%
%AMTHERM2*7,0,0,0.0900,0.0600,0.0100,45*%
%ADD38THERM2*%
%ADD39R,0.0540X0.0540*%
%ADD40R,0.0650X0.0650*%
%ADD41R,0.0950X0.0950*%
%ADD42C,0.1200X0.0900*%
%ADD43C,0.1200*%
%ADD44C,0.0150*%
%AMTHERM3*7,0,0,0.1200,0.0900,0.0150,45*%
%ADD45THERM3*%
%ADD46C,0.0720*%
%ADD47C,0.0920X0.0720*%
%ADD48C,0.0920*%
%ADD49C,0.0240*%
%ADD50C,0.0340*%
%ADD51C,0.0500*%
%ADD52R,0.0200X0.0200*%
%ADD53R,0.0500X0.0500*%
%ADD54C,0.0137*%
%ADD55C,0.1320*%
%ADD56C,0.1520*%
%ADD57C,0.1520X0.1320*%
%ADD58C,0.0400*%
%ADD59C,0.0600X0.0400*%
%AMTHERM4*7,0,0,0.0600,0.0400,0.0100,45*%
%ADD60THERM4*%
%ADD61C,0.0800*%
%ADD62C,0.0800X0.0600*%
%AMTHERM5*7,0,0,0.0800,0.0600,0.0160,45*%
%ADD63THERM5*%
%LNGROUP_3*%
%LPD*%
G01X0Y0D02*
G54D12*X6500Y17420D02*X6720D01*
G54D15*X6500Y17680D02*X6720D01*
X6500Y17930D02*X6720D01*
X6500Y18190D02*X6720D01*
X6500Y18450D02*X6720D01*
X6500Y18700D02*X6720D01*
X6500Y18960D02*X6720D01*
X6500Y19210D02*X6720D01*
X4380Y19220D02*X4600D01*
X4380Y18960D02*X4600D01*
X4380Y18710D02*X4600D01*
X4380Y18450D02*X4600D01*
X4380Y18190D02*X4600D01*
X4380Y17940D02*X4600D01*
X4380Y17680D02*X4600D01*
X4380Y17430D02*X4600D01*
G54D34*X7000Y14740D02*X7180D01*
X7000Y14260D02*X7180D01*
X8520Y18260D02*X8700D01*
X8520Y18740D02*X8700D01*
X7520Y17460D02*X7700D01*
X7520Y17940D02*X7700D01*
X7460Y19000D02*Y18820D01*
X7940Y19000D02*Y18820D01*
X6220Y16440D02*X6400D01*
X6220Y15960D02*X6400D01*
X22610Y11160D02*X22790D01*
X22610Y11640D02*X22790D01*
G54D40*X17300Y5680D02*Y5330D01*
X18300Y5680D02*Y5330D01*
X19300Y5680D02*Y5330D01*
Y8670D02*Y8320D01*
X18300Y8670D02*Y8320D01*
X17300Y8670D02*Y8320D01*
G54D34*X21160Y10390D02*Y10210D01*
X21640Y10390D02*Y10210D01*
X21210Y11160D02*X21390D01*
X21210Y11640D02*X21390D01*
X20510Y11160D02*X20690D01*
X20510Y11640D02*X20690D01*
X19310Y11160D02*X19490D01*
X19310Y11640D02*X19490D01*
X17910Y11160D02*X18090D01*
X17910Y11640D02*X18090D01*
X17210Y11160D02*X17390D01*
X17210Y11640D02*X17390D01*
X18610Y11160D02*X18790D01*
X18610Y11640D02*X18790D01*
X18060Y10290D02*Y10110D01*
X18540Y10290D02*Y10110D01*
G54D40*X20800Y5680D02*Y5330D01*
X21800Y5680D02*Y5330D01*
X22800Y5680D02*Y5330D01*
Y8670D02*Y8320D01*
X21800Y8670D02*Y8320D01*
X20800Y8670D02*Y8320D01*
G54D34*X21910Y11160D02*X22090D01*
X21910Y11640D02*X22090D01*
X13940Y18890D02*Y18710D01*
X13460Y18890D02*Y18710D01*
G54D33*X10410Y19300D02*X10690D01*
G54D52*X10410Y18800D02*X10690D01*
X10410Y18300D02*X10690D01*
X10410Y17800D02*X10690D01*
X12450D02*X12730D01*
X12450Y18300D02*X12730D01*
X12450Y18800D02*X12730D01*
X12450Y19300D02*X12730D01*
M02*
