*
*
G04 PowerPCB (Build Number 501.037) generated Gerber (RS-274-X) file*
G04 PC Version=2.1*
*
%IN "USRP_REV 4.1.pcb"*%
*
%MOIN*%
*
%FSLAX35Y35*%
*
*
*
*
G04 PC Standard Apertures*
*
*
G04 Thermal Relief Aperture macro.*
%AMTER*
1,1,$1,0,0*
1,0,$1-$2,0,0*
21,0,$3,$4,0,0,45*
21,0,$3,$4,0,0,135*
%
*
*
G04 Annular Aperture macro.*
%AMANN*
1,1,$1,0,0*
1,0,$2,0,0*
%
*
*
G04 Odd Aperture macro.*
%AMODD*
1,1,$1,0,0*
1,0,$1-0.005,0,0*
%
*
*
G04 PC Custom Aperture Macros*
*
*
*
*
*
*
G04 PC Aperture Table*
*
%ADD010C,0.01*%
%ADD025C,0.06*%
%ADD048C,0.098*%
%ADD081C,0.065*%
%ADD085R,0.065X0.065*%
%ADD093C,0.103*%
%ADD098C,0.13*%
%ADD099R,0.035X0.035*%
%ADD100R,0.06799X0.06799*%
%ADD101C,0.12*%
%ADD102R,0.063X0.063*%
%ADD103C,0.063*%
%ADD104C,0.165*%
%ADD105C,0.145*%
%ADD106R,0.03256X0.03256*%
*
*
*
*
G04 PC Custom Flashes*
G04 Layer Name USRP_REV 4.1.pcb - flashes*
%LPD*%
*
*
G04 PC Circuitry*
G04 Layer Name USRP_REV 4.1.pcb - circuitry*
%LPD*%
*
G54D10*
G01X1685000Y1355750D02*
Y1990750D01*
X2315000*
Y1355750*
X1685000*
X2032681Y1214875D02*
X2032227Y1215500D01*
X2031545Y1215812*
X2031545D02*
X2030636D01*
X2030636D02*
X2029954Y1215500D01*
X2029954D02*
X2029500Y1214875D01*
Y1214250*
X2029727Y1213625*
X2029954Y1213312*
X2029954D02*
X2030409Y1213000D01*
X2031772Y1212375*
X2031772D02*
X2032227Y1212062D01*
X2032227D02*
X2032454Y1211750D01*
X2032454D02*
X2032681Y1211125D01*
X2032681D02*
Y1210187D01*
X2032681D02*
X2032227Y1209562D01*
X2032227D02*
X2031545Y1209250D01*
X2030636*
X2029954Y1209562*
X2029954D02*
X2029500Y1210187D01*
X2036090Y1215812D02*
X2035636Y1215500D01*
X2035181Y1214875*
X2035181D02*
X2034954Y1214250D01*
X2034954D02*
X2034727Y1213312D01*
X2034727D02*
Y1211750D01*
X2034954Y1210812*
X2034954D02*
X2035181Y1210187D01*
X2035181D02*
X2035636Y1209562D01*
X2035636D02*
X2036090Y1209250D01*
X2036090D02*
X2037000D01*
X2037454Y1209562*
X2037454D02*
X2037909Y1210187D01*
X2037909D02*
X2038136Y1210812D01*
X2038136D02*
X2038363Y1211750D01*
X2038363D02*
Y1213312D01*
X2038363D02*
X2038136Y1214250D01*
X2037909Y1214875*
X2037454Y1215500*
X2037454D02*
X2037000Y1215812D01*
X2037000D02*
X2036090D01*
X2040409D02*
Y1209250D01*
X2043136*
X2045181Y1215812D02*
Y1209250D01*
Y1215812D02*
X2046772D01*
X2046772D02*
X2047454Y1215500D01*
X2047454D02*
X2047909Y1214875D01*
X2048136Y1214250*
X2048363Y1213312*
X2048363D02*
Y1211750D01*
X2048363D02*
X2048136Y1210812D01*
X2048136D02*
X2047909Y1210187D01*
X2047909D02*
X2047454Y1209562D01*
X2047454D02*
X2046772Y1209250D01*
X2046772D02*
X2045181D01*
X2050409Y1215812D02*
Y1209250D01*
Y1215812D02*
X2053363D01*
X2050409Y1212687D02*
X2052227D01*
X2050409Y1209250D02*
X2053363D01*
X2055409Y1215812D02*
Y1209250D01*
Y1215812D02*
X2057454D01*
X2057454D02*
X2058136Y1215500D01*
X2058363Y1215187*
X2058363D02*
X2058590Y1214562D01*
X2058590D02*
Y1213937D01*
X2058590D02*
X2058363Y1213312D01*
X2058363D02*
X2058136Y1213000D01*
X2057454Y1212687*
X2057454D02*
X2055409D01*
X2057000D02*
X2058590Y1209250D01*
X2067909Y1214875D02*
X2067454Y1215500D01*
X2067454D02*
X2066772Y1215812D01*
X2066772D02*
X2065863D01*
X2065863D02*
X2065181Y1215500D01*
X2065181D02*
X2064727Y1214875D01*
Y1214250*
X2064954Y1213625*
X2064954D02*
X2065181Y1213312D01*
X2065181D02*
X2065636Y1213000D01*
X2067000Y1212375*
X2067454Y1212062*
X2067454D02*
X2067681Y1211750D01*
X2067681D02*
X2067909Y1211125D01*
Y1210187*
X2067909D02*
X2067454Y1209562D01*
X2067454D02*
X2066772Y1209250D01*
X2066772D02*
X2065863D01*
X2065863D02*
X2065181Y1209562D01*
X2065181D02*
X2064727Y1210187D01*
X2069954Y1215812D02*
Y1209250D01*
X2072000Y1215812D02*
Y1209250D01*
Y1215812D02*
X2073590D01*
X2073590D02*
X2074272Y1215500D01*
X2074272D02*
X2074727Y1214875D01*
X2074954Y1214250*
X2074954D02*
X2075181Y1213312D01*
X2075181D02*
Y1211750D01*
X2075181D02*
X2074954Y1210812D01*
X2074954D02*
X2074727Y1210187D01*
X2074727D02*
X2074272Y1209562D01*
X2074272D02*
X2073590Y1209250D01*
X2073590D02*
X2072000D01*
X2077227Y1215812D02*
Y1209250D01*
Y1215812D02*
X2080181D01*
X2077227Y1212687D02*
X2079045D01*
X2077227Y1209250D02*
X2080181D01*
X2086318Y1215812D02*
Y1209250D01*
Y1215812D02*
X2088136Y1209250D01*
X2089954Y1215812D02*
X2088136Y1209250D01*
X2089954Y1215812D02*
Y1209250D01*
X2093818Y1215812D02*
X2092000Y1209250D01*
X2093818Y1215812D02*
X2095636Y1209250D01*
X2092681Y1211437D02*
X2094954D01*
X2100863Y1214875D02*
X2100409Y1215500D01*
X2099727Y1215812*
X2099727D02*
X2098818D01*
X2098818D02*
X2098136Y1215500D01*
X2097681Y1214875*
X2097681D02*
Y1214250D01*
X2097681D02*
X2097909Y1213625D01*
X2098136Y1213312*
X2098136D02*
X2098590Y1213000D01*
X2098590D02*
X2099954Y1212375D01*
X2099954D02*
X2100409Y1212062D01*
X2100409D02*
X2100636Y1211750D01*
X2100863Y1211125*
X2100863D02*
Y1210187D01*
X2100863D02*
X2100409Y1209562D01*
X2100409D02*
X2099727Y1209250D01*
X2098818*
X2098136Y1209562*
X2098136D02*
X2097681Y1210187D01*
X2102909Y1215812D02*
Y1209250D01*
X2106090Y1215812D02*
X2102909Y1211437D01*
X2104045Y1213000D02*
X2106090Y1209250D01*
G54D25*
X2128307Y1577731D03*
X2263740D03*
X2128307Y1843731D03*
X2263740D03*
X1871692Y1843768D03*
X1736259D03*
X1871692Y1578768D03*
X1736259D03*
G54D48*
X2007500Y1959750D03*
X2008000Y1910750D03*
G54D81*
X2025000Y1414250D03*
Y1406250D03*
X2035000D03*
G54D85*
Y1414250D03*
G54D93*
X1997500Y1949750D03*
X2017500D03*
Y1969750D03*
X1997500D03*
X1998000Y1900750D03*
X2018000D03*
Y1920750D03*
X1998000D03*
G54D98*
X1700000Y1975750D03*
X1945000D03*
X1700000Y1755750D03*
X1905000Y1795750D03*
X2095000D03*
X2055000Y1975750D03*
X2300000D03*
Y1755750D03*
X1700000Y1445750D03*
Y1665750D03*
X1945000Y1445750D03*
X1905000Y1625750D03*
X2300000Y1665750D03*
Y1445750D03*
X2055000D03*
X2095000Y1625750D03*
G54D99*
X1976500Y1621750D02*
X1977300D01*
X1982700D02*
X1983500D01*
X1977750Y1541000D02*
Y1540200D01*
Y1534800D02*
Y1534000D01*
X1971500Y1540750D02*
Y1539950D01*
Y1534550D02*
Y1533750D01*
X2033000Y1610250D02*
X2032200D01*
X2026800D02*
X2026000D01*
X1999000Y1610750D02*
X1999800D01*
X2005200D02*
X2006000D01*
X2042500Y1597250D02*
Y1598050D01*
Y1603450D02*
Y1604250D01*
X1969000Y1614250D02*
X1969800D01*
X1975200D02*
X1976000D01*
X1957000Y1595750D02*
Y1596550D01*
Y1601950D02*
Y1602750D01*
X2042500Y1570750D02*
Y1571550D01*
Y1576950D02*
Y1577750D01*
X1964000Y1548750D02*
X1964800D01*
X1970200D02*
X1971000D01*
X2034500Y1550750D02*
X2033700D01*
X2028300D02*
X2027500D01*
X2174500Y1731750D02*
X2173700D01*
X2168300D02*
X2167500D01*
X2151000Y1756750D02*
X2150200D01*
X2144800D02*
X2144000D01*
X2158000D02*
X2158800D01*
X2164200D02*
X2165000D01*
X2199000Y1756250D02*
X2198200D01*
X2192800D02*
X2192000D01*
X2002000Y1776750D02*
X2002800D01*
X2008200D02*
X2009000D01*
X1954500D02*
X1955300D01*
X1960700D02*
X1961500D01*
X1933500Y1754250D02*
Y1753450D01*
Y1748050D02*
Y1747250D01*
Y1729250D02*
Y1728450D01*
Y1723050D02*
Y1722250D01*
Y1704750D02*
Y1703950D01*
Y1698550D02*
Y1697750D01*
Y1672750D02*
Y1671950D01*
Y1666550D02*
Y1665750D01*
X1959500Y1645250D02*
X1958700D01*
X1953300D02*
X1952500D01*
X2004000Y1644750D02*
X2003200D01*
X1997800D02*
X1997000D01*
X2042500Y1644250D02*
X2041700D01*
X2036300D02*
X2035500D01*
X2067000Y1673750D02*
Y1672950D01*
Y1667550D02*
Y1666750D01*
X2066000Y1722750D02*
Y1721950D01*
Y1716550D02*
Y1715750D01*
X2066500Y1753250D02*
Y1752450D01*
Y1747050D02*
Y1746250D01*
X2043500Y1776250D02*
X2042700D01*
X2037300D02*
X2036500D01*
X2003000Y1769750D02*
X2003800D01*
X2009200D02*
X2010000D01*
X1949500Y1764750D02*
X1950300D01*
X1955700D02*
X1956500D01*
X1959500Y1651250D02*
X1958700D01*
X1953300D02*
X1952500D01*
X2004000D02*
X2003200D01*
X1997800D02*
X1997000D01*
X2043000Y1650750D02*
X2042200D01*
X2036800D02*
X2036000D01*
X2036500Y1783250D02*
X2037300D01*
X2042700D02*
X2043500D01*
X2022000Y1773250D02*
Y1774050D01*
Y1779450D02*
Y1780250D01*
X1964000Y1764750D02*
X1964800D01*
X1970200D02*
X1971000D01*
X1980000D02*
X1980800D01*
X1986200D02*
X1987000D01*
X1939500Y1722750D02*
Y1723550D01*
Y1728950D02*
Y1729750D01*
X1951500Y1659250D02*
X1952300D01*
X1957700D02*
X1958500D01*
X1983500Y1644750D02*
X1982700D01*
X1977300D02*
X1976500D01*
X1997000Y1638750D02*
X1997800D01*
X2003200D02*
X2004000D01*
X2012811Y1646797D02*
X2013611D01*
X2019011D02*
X2019811D01*
X2036000Y1658750D02*
X2036800D01*
X2042200D02*
X2043000D01*
X2054000Y1718250D02*
Y1719050D01*
Y1724450D02*
Y1725250D01*
X2018975Y1640206D02*
X2018175D01*
X2012775D02*
X2011975D01*
X1982000Y1776250D02*
X1981200D01*
X1975800D02*
X1975000D01*
X1966500Y1661750D02*
X1967300D01*
X1972700D02*
X1973500D01*
X2206000Y1753750D02*
Y1752950D01*
Y1747550D02*
Y1746750D01*
X2182500Y1736750D02*
X2183300D01*
X2188700D02*
X2189500D01*
X2174500Y1737250D02*
X2173700D01*
X2168300D02*
X2167500D01*
X2174500Y1726250D02*
X2173700D01*
X2168300D02*
X2167500D01*
X2174500Y1720250D02*
X2173700D01*
X2168300D02*
X2167500D01*
X2174500Y1712750D02*
X2173700D01*
X2168300D02*
X2167500D01*
X2143500Y1701750D02*
X2144300D01*
X2149700D02*
X2150500D01*
X2144000Y1695750D02*
X2144800D01*
X2150200D02*
X2151000D01*
X2182500Y1731750D02*
X2183300D01*
X2188700D02*
X2189500D01*
X2144500Y1750750D02*
Y1749950D01*
Y1744550D02*
Y1743750D01*
X2171000Y1756750D02*
X2171800D01*
X2177200D02*
X2178000D01*
X1854500Y1729250D02*
X1855300D01*
X1860700D02*
X1861500D01*
X1829500Y1667250D02*
X1828700D01*
X1823300D02*
X1822500D01*
X1857500Y1675250D02*
Y1676050D01*
Y1681450D02*
Y1682250D01*
X1800500Y1675750D02*
X1799700D01*
X1794300D02*
X1793500D01*
X1841500Y1690750D02*
Y1691550D01*
Y1696950D02*
Y1697750D01*
X1800500Y1681250D02*
X1799700D01*
X1794300D02*
X1793500D01*
X1848500Y1690750D02*
Y1691550D01*
Y1696950D02*
Y1697750D01*
X1856000Y1718750D02*
Y1717950D01*
Y1712550D02*
Y1711750D01*
X2195000Y1685250D02*
Y1684450D01*
Y1679050D02*
Y1678250D01*
X2182500Y1672750D02*
X2181700D01*
X2176300D02*
X2175500D01*
X2156500Y1669250D02*
Y1670050D01*
Y1675450D02*
Y1676250D01*
X2151000Y1669250D02*
Y1670050D01*
Y1675450D02*
Y1676250D01*
X2142500Y1683750D02*
X2143300D01*
X2148700D02*
X2149500D01*
X2142500Y1689750D02*
X2143300D01*
X2148700D02*
X2149500D01*
X2194000Y1691750D02*
Y1692550D01*
Y1697950D02*
Y1698750D01*
X2193500Y1724750D02*
X2192700D01*
X2187300D02*
X2186500D01*
X2206000Y1740250D02*
Y1739450D01*
Y1734050D02*
Y1733250D01*
X2205500Y1719250D02*
Y1720050D01*
Y1725450D02*
Y1726250D01*
X2206000Y1694750D02*
Y1693950D01*
Y1688550D02*
Y1687750D01*
Y1702250D02*
Y1703050D01*
Y1708450D02*
Y1709250D01*
X1847500Y1748750D02*
Y1749550D01*
Y1754950D02*
Y1755750D01*
X1822500Y1749750D02*
Y1750550D01*
Y1755950D02*
Y1756750D01*
X1840000Y1742250D02*
X1839200D01*
X1833800D02*
X1833000D01*
X1854000Y1748750D02*
Y1749550D01*
Y1754950D02*
Y1755750D01*
X1801500Y1731750D02*
X1800700D01*
X1795300D02*
X1794500D01*
X1801500Y1700750D02*
X1800700D01*
X1795300D02*
X1794500D01*
X1797000Y1687250D02*
Y1688050D01*
Y1693450D02*
Y1694250D01*
X1801000Y1708750D02*
X1800200D01*
X1794800D02*
X1794000D01*
X1801500Y1714250D02*
X1800700D01*
X1795300D02*
X1794500D01*
X1801500Y1725750D02*
X1800700D01*
X1795300D02*
X1794500D01*
X1801500Y1740750D02*
X1800700D01*
X1795300D02*
X1794500D01*
X1840500Y1749250D02*
Y1750050D01*
Y1755450D02*
Y1756250D01*
X1783000Y1776250D02*
X1782200D01*
X1776800D02*
X1776000D01*
X2165000Y1685750D02*
X2165800D01*
X2171200D02*
X2172000D01*
X1970000Y1621750D02*
X1969200D01*
X1963800D02*
X1963000D01*
X2186500Y1719250D02*
X2187300D01*
X2192700D02*
X2193500D01*
X1834250Y1698000D02*
X1833450D01*
X1828050D02*
X1827250D01*
Y1691750D02*
X1828050D01*
X1833450D02*
X1834250D01*
X2186500Y1708250D02*
X2187300D01*
X2192700D02*
X2193500D01*
Y1713750D02*
X2192700D01*
X2187300D02*
X2186500D01*
X1875500Y1729750D02*
X1876300D01*
X1881700D02*
X1882500D01*
X2174000Y1705250D02*
X2173200D01*
X2167800D02*
X2167000D01*
X1937400Y1890850D02*
Y1891650D01*
Y1897050D02*
Y1897850D01*
X1943500Y1890750D02*
Y1891550D01*
Y1896950D02*
Y1897750D01*
X1931400Y1890850D02*
Y1891650D01*
Y1897050D02*
Y1897850D01*
X1869500Y1730250D02*
Y1729450D01*
Y1724050D02*
Y1723250D01*
X2182500Y1703250D02*
X2183300D01*
X2188700D02*
X2189500D01*
X1812000Y1749250D02*
Y1750050D01*
Y1755450D02*
Y1756250D01*
X1857000Y1667250D02*
X1856200D01*
X1850800D02*
X1850000D01*
X1843000D02*
X1842200D01*
X1836800D02*
X1836000D01*
X2086000Y1517250D02*
Y1516450D01*
Y1511050D02*
Y1510250D01*
X2132500Y1682750D02*
X2131700D01*
X2126300D02*
X2125500D01*
X1778500Y1573750D02*
X1779300D01*
X1784700D02*
X1785500D01*
X2157900Y1767950D02*
X2158700D01*
X2164100D02*
X2164900D01*
X2160700Y1741550D02*
X2159900D01*
X2154500D02*
X2153700D01*
X1844000Y1682650D02*
Y1681850D01*
Y1676450D02*
Y1675650D01*
X1837500Y1654550D02*
X1838300D01*
X1843700D02*
X1844500D01*
X1951400Y1890850D02*
Y1891650D01*
Y1897050D02*
Y1897850D01*
G54D100*
X1787000Y1766856D02*
Y1767643D01*
X1776000Y1766856D02*
Y1767643D01*
X2165500Y1693143D02*
Y1692356D01*
X2176500Y1693143D02*
Y1692356D01*
X1949000Y1537643D02*
Y1536856D01*
X1960000Y1537643D02*
Y1536856D01*
X2116500Y1673543D02*
Y1672756D01*
X2127500Y1673543D02*
Y1672756D01*
X1841000Y1708356D02*
Y1709143D01*
X1830000Y1708356D02*
Y1709143D01*
X1840750Y1718606D02*
Y1719393D01*
X1829750Y1718606D02*
Y1719393D01*
G54D101*
X2053700Y1395750D03*
X2006300D03*
G54D102*
X1771000Y1365750D03*
G54D103*
X1781000D03*
X1791000D03*
X1801000D03*
G54D104*
X1963000Y1410250D03*
G54D105*
Y1385750D03*
X1982000Y1398250D03*
G54D106*
X1818500Y1952456D02*
Y1953243D01*
Y1947256D02*
Y1948043D01*
X1823000Y1952456D02*
Y1953243D01*
Y1947256D02*
Y1948043D01*
X1814000Y1952456D02*
Y1953243D01*
Y1947256D02*
Y1948043D01*
X1833500Y1952456D02*
Y1953243D01*
Y1947256D02*
Y1948043D01*
X1838000Y1952456D02*
Y1953243D01*
Y1947256D02*
Y1948043D01*
X1829000Y1952456D02*
Y1953243D01*
Y1947256D02*
Y1948043D01*
X1849000Y1952456D02*
Y1953243D01*
Y1947256D02*
Y1948043D01*
X1853500Y1952456D02*
Y1953243D01*
Y1947256D02*
Y1948043D01*
X1844000Y1952456D02*
Y1953243D01*
Y1947256D02*
Y1948043D01*
X1864000Y1952456D02*
Y1953243D01*
Y1947256D02*
Y1948043D01*
X1869000Y1952456D02*
Y1953243D01*
Y1947256D02*
Y1948043D01*
X1859500Y1952456D02*
Y1953243D01*
Y1947256D02*
Y1948043D01*
X1879500Y1952456D02*
Y1953243D01*
Y1947256D02*
Y1948043D01*
X1884000Y1952456D02*
Y1953243D01*
Y1947256D02*
Y1948043D01*
X1874500Y1952456D02*
Y1953243D01*
Y1947256D02*
Y1948043D01*
X1895000Y1952456D02*
Y1953243D01*
Y1947256D02*
Y1948043D01*
X1899500Y1952456D02*
Y1953243D01*
Y1947256D02*
Y1948043D01*
X1890000Y1952456D02*
Y1953243D01*
Y1947256D02*
Y1948043D01*
X1910000Y1952456D02*
Y1953243D01*
Y1947256D02*
Y1948043D01*
X1914500Y1952456D02*
Y1953243D01*
Y1947256D02*
Y1948043D01*
X1905500Y1952456D02*
Y1953243D01*
Y1947256D02*
Y1948043D01*
X1925000Y1952456D02*
Y1953243D01*
Y1947256D02*
Y1948043D01*
X1929600Y1952456D02*
Y1953243D01*
Y1947256D02*
Y1948043D01*
X1920500Y1952456D02*
Y1953243D01*
Y1947256D02*
Y1948043D01*
X1940500Y1952456D02*
Y1953243D01*
Y1947256D02*
Y1948043D01*
X1945000Y1952456D02*
Y1953243D01*
Y1947256D02*
Y1948043D01*
X1935500Y1952456D02*
Y1953243D01*
Y1947256D02*
Y1948043D01*
X1956000Y1952456D02*
Y1953243D01*
Y1947256D02*
Y1948043D01*
X1961000Y1952456D02*
Y1953243D01*
Y1947256D02*
Y1948043D01*
X1951000Y1952456D02*
Y1953243D01*
Y1947256D02*
Y1948043D01*
X1973100Y1952456D02*
Y1953243D01*
Y1947256D02*
Y1948043D01*
X1977600Y1952456D02*
Y1953243D01*
Y1947256D02*
Y1948043D01*
X1968600Y1952456D02*
Y1953243D01*
Y1947256D02*
Y1948043D01*
X0Y0D02*
M02*
