*
*
G04 PowerPCB (Build Number 501.037) generated Gerber (RS-274-X) file*
G04 PC Version=2.1*
*
%IN "GNU_RADIO_REV 3.pcb"*%
*
%MOIN*%
*
%FSLAX23Y23*%
*
*
*
*
G04 PC Standard Apertures*
*
*
G04 Thermal Relief Aperture macro.*
%AMTER*
1,1,$1,0,0*
1,0,$1-$2,0,0*
21,0,$3,$4,0,0,45*
21,0,$3,$4,0,0,135*
%
*
*
G04 Annular Aperture macro.*
%AMANN*
1,1,$1,0,0*
1,0,$2,0,0*
%
*
*
G04 Odd Aperture macro.*
%AMODD*
1,1,$1,0,0*
1,0,$1-0.005,0,0*
%
*
*
G04 PC Custom Aperture Macros*
*
*
*
*
*
*
G04 PC Aperture Table*
*
%ADD010C,0.01*%
%ADD020R,0.038X0.03*%
%ADD021R,0.03X0.038*%
%ADD022R,0.06299X0.07087*%
*
*
*
*
G04 PC Custom Flashes*
G04 Layer Name GNU_RADIO_REV 3.pcb - flashes*
%LPD*%
*
*
G04 PC Circuitry*
G04 Layer Name GNU_RADIO_REV 3.pcb - circuitry*
%LPD*%
*
G54D10*
G01X16850Y13557D02*
Y19907D01*
X16850D02*
X23150D01*
X23150D02*
Y13557D01*
X23150D02*
X16850D01*
X20295Y12158D02*
Y12092D01*
Y12158D02*
X20315D01*
X20322Y12155*
X20324Y12151*
X20324D02*
X20326Y12145D01*
X20326D02*
Y12136D01*
X20326D02*
X20324Y12130D01*
X20324D02*
X20322Y12126D01*
X20322D02*
X20315Y12123D01*
X20315D02*
X20295D01*
X20365Y12158D02*
X20347Y12092D01*
X20365Y12158D02*
X20383Y12092D01*
X20354Y12114D02*
X20376D01*
X20435Y12148D02*
X20431Y12155D01*
X20424Y12158*
X20424D02*
X20415D01*
X20408Y12155*
X20408D02*
X20404Y12148D01*
X20404D02*
Y12142D01*
X20404D02*
X20406Y12136D01*
X20408Y12133*
X20408D02*
X20413Y12130D01*
X20426Y12123*
X20426D02*
X20431Y12120D01*
X20431D02*
X20433Y12117D01*
X20433D02*
X20435Y12111D01*
X20435D02*
Y12101D01*
X20435D02*
X20431Y12095D01*
X20431D02*
X20424Y12092D01*
X20424D02*
X20415D01*
X20415D02*
X20408Y12095D01*
X20408D02*
X20404Y12101D01*
X20472Y12158D02*
Y12092D01*
X20456Y12158D02*
X20488D01*
X20508D02*
Y12092D01*
Y12158D02*
X20538D01*
X20508Y12126D02*
X20526D01*
X20508Y12092D02*
X20538D01*
X20599Y12158D02*
Y12092D01*
Y12158D02*
X20617Y12092D01*
X20635Y12158D02*
X20617Y12092D01*
X20635Y12158D02*
Y12092D01*
X20674Y12158D02*
X20656Y12092D01*
X20674Y12158D02*
X20692Y12092D01*
X20663Y12114D02*
X20685D01*
X20745Y12148D02*
X20740Y12155D01*
X20733Y12158*
X20733D02*
X20724D01*
X20724D02*
X20717Y12155D01*
X20717D02*
X20713Y12148D01*
X20713D02*
Y12142D01*
X20713D02*
X20715Y12136D01*
X20717Y12133*
X20717D02*
X20722Y12130D01*
X20735Y12123*
X20735D02*
X20740Y12120D01*
X20740D02*
X20742Y12117D01*
X20742D02*
X20745Y12111D01*
Y12101*
X20745D02*
X20740Y12095D01*
X20740D02*
X20733Y12092D01*
X20733D02*
X20724D01*
X20724D02*
X20717Y12095D01*
X20717D02*
X20713Y12101D01*
X20765Y12158D02*
Y12092D01*
X20797Y12158D02*
X20765Y12114D01*
X20776Y12130D02*
X20797Y12092D01*
X20858Y12158D02*
Y12092D01*
Y12158D02*
X20879D01*
X20885Y12155*
X20885D02*
X20888Y12151D01*
X20888D02*
X20890Y12145D01*
X20890D02*
Y12139D01*
X20888Y12133*
X20885Y12130*
X20885D02*
X20879Y12126D01*
X20858D02*
X20879D01*
X20879D02*
X20885Y12123D01*
X20885D02*
X20888Y12120D01*
X20888D02*
X20890Y12114D01*
Y12105*
X20888Y12098*
X20888D02*
X20885Y12095D01*
X20885D02*
X20879Y12092D01*
X20879D02*
X20858D01*
X20924Y12158D02*
X20920Y12155D01*
X20915Y12148*
X20915D02*
X20913Y12142D01*
X20913D02*
X20910Y12133D01*
X20910D02*
Y12117D01*
X20910D02*
X20913Y12108D01*
X20915Y12101*
X20915D02*
X20920Y12095D01*
X20920D02*
X20924Y12092D01*
X20924D02*
X20933D01*
X20933D02*
X20938Y12095D01*
X20938D02*
X20942Y12101D01*
X20942D02*
X20945Y12108D01*
X20947Y12117*
X20947D02*
Y12133D01*
X20945Y12142*
X20945D02*
X20942Y12148D01*
X20942D02*
X20938Y12155D01*
X20933Y12158*
X20933D02*
X20924D01*
X20983D02*
Y12092D01*
X20967Y12158D02*
X20999D01*
X21035D02*
Y12092D01*
X21020Y12158D02*
X21051D01*
X21085D02*
X21081Y12155D01*
X21076Y12148*
X21076D02*
X21074Y12142D01*
X21074D02*
X21072Y12133D01*
Y12117*
X21072D02*
X21074Y12108D01*
X21074D02*
X21076Y12101D01*
X21076D02*
X21081Y12095D01*
X21081D02*
X21085Y12092D01*
X21085D02*
X21095D01*
X21095D02*
X21099Y12095D01*
X21099D02*
X21104Y12101D01*
X21104D02*
X21106Y12108D01*
X21108Y12117*
X21108D02*
Y12133D01*
X21108D02*
X21106Y12142D01*
X21106D02*
X21104Y12148D01*
X21104D02*
X21099Y12155D01*
X21099D02*
X21095Y12158D01*
X21085*
X21129D02*
Y12092D01*
Y12158D02*
X21147Y12092D01*
X21165Y12158D02*
X21147Y12092D01*
X21165Y12158D02*
Y12092D01*
G54D20*
X19769Y16217D03*
X19831D03*
X20326Y16102D03*
X20264D03*
X19994Y16107D03*
X20056D03*
X19694Y16142D03*
X19756D03*
X19644Y15487D03*
X19706D03*
X20341Y15507D03*
X20279D03*
X21741Y17317D03*
X21679D03*
X21506Y17567D03*
X21444D03*
X21584D03*
X21646D03*
X21986Y17562D03*
X21924D03*
X20024Y17767D03*
X20086D03*
X19549D03*
X19611D03*
X19591Y16452D03*
X19529D03*
X20036Y16447D03*
X19974D03*
X20421Y16442D03*
X20359D03*
X20431Y17762D03*
X20369D03*
X20034Y17697D03*
X20096D03*
X19499Y17647D03*
X19561D03*
X19591Y16512D03*
X19529D03*
X20036D03*
X19974D03*
X20426Y16507D03*
X20364D03*
X20369Y17832D03*
X20431D03*
X19644Y17647D03*
X19706D03*
X19804D03*
X19866D03*
X19519Y16592D03*
X19581D03*
X19831Y16447D03*
X19769D03*
X19974Y16387D03*
X20036D03*
X20132Y16467D03*
X20194D03*
X20364Y16382D03*
X20426D03*
X20185Y16402D03*
X20123D03*
X19816Y17762D03*
X19754D03*
X19669Y16617D03*
X19731D03*
X21829Y17367D03*
X21891D03*
X21741Y17372D03*
X21679D03*
X21741Y17262D03*
X21679D03*
X21741Y17202D03*
X21679D03*
X21741Y17127D03*
X21679D03*
X21439Y17017D03*
X21501D03*
X21444Y16957D03*
X21506D03*
X21829Y17317D03*
X21891D03*
X21714Y17567D03*
X21776D03*
X18549Y17292D03*
X18611D03*
X18291Y16672D03*
X18229D03*
X18001Y16757D03*
X17939D03*
X18001Y16812D03*
X17939D03*
X21821Y16727D03*
X21759D03*
X21429Y16837D03*
X21491D03*
X21429Y16897D03*
X21491D03*
X21931Y17247D03*
X21869D03*
X18396Y17422D03*
X18334D03*
X18011Y17317D03*
X17949D03*
X18011Y17007D03*
X17949D03*
X18006Y17087D03*
X17944D03*
X18011Y17142D03*
X17949D03*
X18011Y17257D03*
X17949D03*
X18011Y17407D03*
X17949D03*
X17826Y17762D03*
X17764D03*
X21654Y16857D03*
X21716D03*
X19696Y16217D03*
X19634D03*
X21869Y17192D03*
X21931D03*
X18338Y16980D03*
X18276D03*
Y16917D03*
X18338D03*
X21869Y17082D03*
X21931D03*
Y17137D03*
X21869D03*
X18759Y17297D03*
X18821D03*
X21736Y17052D03*
X21674D03*
X21829Y17032D03*
X21891D03*
X18566Y16672D03*
X18504D03*
X18426D03*
X18364D03*
X21321Y16827D03*
X21259D03*
X17789Y15737D03*
X17851D03*
X21583Y17679D03*
X21645D03*
X21603Y17415D03*
X21541D03*
X18379Y16545D03*
X18441D03*
G54D21*
X19777Y15406D03*
Y15344D03*
X19715Y15403D03*
Y15341D03*
X20425Y15976D03*
Y16038D03*
X19570Y15961D03*
Y16023D03*
X20425Y15711D03*
Y15773D03*
X19335Y17538D03*
Y17476D03*
Y17288D03*
Y17226D03*
Y17043D03*
Y16981D03*
Y16723D03*
Y16661D03*
X20670Y16733D03*
Y16671D03*
X20660Y17223D03*
Y17161D03*
X20665Y17528D03*
Y17466D03*
X20220Y17736D03*
Y17798D03*
X19395Y17231D03*
Y17293D03*
X20540Y17186D03*
Y17248D03*
X22060Y17533D03*
Y17471D03*
X21445Y17503D03*
Y17441D03*
X18575Y16756D03*
Y16818D03*
X18415Y16911D03*
Y16973D03*
X18485Y16911D03*
Y16973D03*
X18560Y17183D03*
Y17121D03*
X21950Y16848D03*
Y16786D03*
X21565Y16696D03*
Y16758D03*
X21510Y16696D03*
Y16758D03*
X21940Y16921D03*
Y16983D03*
X22060Y17398D03*
Y17336D03*
X22055Y17196D03*
Y17258D03*
X22060Y16943D03*
Y16881D03*
Y17026D03*
Y17088D03*
X18475Y17491D03*
Y17553D03*
X18225Y17501D03*
Y17563D03*
X18540Y17491D03*
Y17553D03*
X17970Y16876D03*
Y16938D03*
X18405Y17496D03*
Y17558D03*
X18695Y17298D03*
Y17236D03*
X18120Y17496D03*
Y17558D03*
X20545Y17548D03*
Y17486D03*
X18440Y16822D03*
Y16760D03*
G54D22*
X17870Y17672D03*
X17760D03*
X21655Y16927D03*
X21765D03*
X19490Y15372D03*
X19600D03*
X21165Y16731D03*
X21275D03*
X18410Y17087D03*
X18300D03*
X18407Y17190D03*
X18297D03*
X0Y0D02*
M02*
