*
*
G04 PowerPCB (Build Number 501.037) generated Gerber (RS-274-X) file*
G04 PC Version=2.1*
*
%IN "GNU_RADIO_REV 3.pcb"*%
*
%MOIN*%
*
%FSLAX23Y23*%
*
*
*
*
G04 PC Standard Apertures*
*
*
G04 Thermal Relief Aperture macro.*
%AMTER*
1,1,$1,0,0*
1,0,$1-$2,0,0*
21,0,$3,$4,0,0,45*
21,0,$3,$4,0,0,135*
%
*
*
G04 Annular Aperture macro.*
%AMANN*
1,1,$1,0,0*
1,0,$2,0,0*
%
*
*
G04 Odd Aperture macro.*
%AMODD*
1,1,$1,0,0*
1,0,$1-0.005,0,0*
%
*
*
G04 PC Custom Aperture Macros*
*
*
*
*
*
*
G04 PC Aperture Table*
*
%ADD010C,0.01*%
%ADD012C,0.005*%
%ADD019C,0.125*%
%ADD027C,0.115*%
%ADD032C,0.055*%
%ADD045C,0.058*%
%ADD046C,0.16*%
%ADD047C,0.14*%
%ADD048C,0.093*%
%ADD049C,0.098*%
%ADD050C,0.08*%
%ADD056C,0.009*%
%ADD060C,0.024*%
%ADD061C,0.036*%
*
*
*
*
G04 PC Custom Flashes*
G04 Layer Name GNU_RADIO_REV 3.pcb - flashes*
%LPD*%
*
*
G04 PC Circuitry*
G04 Layer Name GNU_RADIO_REV 3.pcb - circuitry*
%LPD*%
*
G54D10*
G01X16850Y13557D02*
Y19907D01*
X16850D02*
X23150D01*
X23150D02*
Y13557D01*
X23150D02*
X16850D01*
X20295Y12158D02*
Y12092D01*
X20326Y12158D02*
Y12092D01*
X20295Y12126D02*
X20326D01*
X20347Y12158D02*
Y12092D01*
X20401Y12142D02*
X20399Y12148D01*
X20399D02*
X20395Y12155D01*
X20390Y12158*
X20381*
X20376Y12155*
X20376D02*
X20372Y12148D01*
X20372D02*
X20370Y12142D01*
X20370D02*
X20367Y12133D01*
X20367D02*
Y12117D01*
X20367D02*
X20370Y12108D01*
X20372Y12101*
X20372D02*
X20376Y12095D01*
X20376D02*
X20381Y12092D01*
X20381D02*
X20390D01*
X20390D02*
X20395Y12095D01*
X20395D02*
X20399Y12101D01*
X20399D02*
X20401Y12108D01*
X20401D02*
Y12117D01*
X20390D02*
X20401D01*
X20422Y12158D02*
Y12092D01*
X20454Y12158D02*
Y12092D01*
X20422Y12126D02*
X20454D01*
X20547Y12148D02*
X20542Y12155D01*
X20542D02*
X20535Y12158D01*
X20535D02*
X20526D01*
X20526D02*
X20520Y12155D01*
X20515Y12148*
X20515D02*
Y12142D01*
X20515D02*
X20517Y12136D01*
X20517D02*
X20520Y12133D01*
X20524Y12130*
X20524D02*
X20538Y12123D01*
X20538D02*
X20542Y12120D01*
X20542D02*
X20545Y12117D01*
X20545D02*
X20547Y12111D01*
Y12101*
X20547D02*
X20542Y12095D01*
X20542D02*
X20535Y12092D01*
X20535D02*
X20526D01*
X20526D02*
X20520Y12095D01*
X20520D02*
X20515Y12101D01*
X20567Y12158D02*
Y12092D01*
Y12158D02*
X20588D01*
X20595Y12155*
X20597Y12151*
X20597D02*
X20599Y12145D01*
X20599D02*
Y12136D01*
X20599D02*
X20597Y12130D01*
X20595Y12126*
X20595D02*
X20588Y12123D01*
X20588D02*
X20567D01*
X20620Y12158D02*
Y12092D01*
Y12158D02*
X20649D01*
X20620Y12126D02*
X20638D01*
X20620Y12092D02*
X20649D01*
X20670Y12158D02*
Y12092D01*
Y12158D02*
X20699D01*
X20670Y12126D02*
X20688D01*
X20670Y12092D02*
X20699D01*
X20720Y12158D02*
Y12092D01*
Y12158D02*
X20735D01*
X20735D02*
X20742Y12155D01*
X20742D02*
X20747Y12148D01*
X20747D02*
X20749Y12142D01*
X20749D02*
X20751Y12133D01*
X20751D02*
Y12117D01*
X20751D02*
X20749Y12108D01*
X20749D02*
X20747Y12101D01*
X20747D02*
X20742Y12095D01*
X20742D02*
X20735Y12092D01*
X20735D02*
X20720D01*
X20845Y12148D02*
X20840Y12155D01*
X20833Y12158*
X20833D02*
X20824D01*
X20824D02*
X20817Y12155D01*
X20817D02*
X20813Y12148D01*
X20813D02*
Y12142D01*
X20813D02*
X20815Y12136D01*
X20817Y12133*
X20817D02*
X20822Y12130D01*
X20835Y12123*
X20835D02*
X20840Y12120D01*
X20840D02*
X20842Y12117D01*
X20842D02*
X20845Y12111D01*
Y12101*
X20845D02*
X20840Y12095D01*
X20840D02*
X20833Y12092D01*
X20833D02*
X20824D01*
X20824D02*
X20817Y12095D01*
X20817D02*
X20813Y12101D01*
X20865Y12158D02*
Y12092D01*
X20920Y12142D02*
X20917Y12148D01*
X20917D02*
X20913Y12155D01*
X20908Y12158*
X20908D02*
X20899D01*
X20899D02*
X20895Y12155D01*
X20890Y12148*
X20890D02*
X20888Y12142D01*
X20888D02*
X20885Y12133D01*
X20885D02*
Y12117D01*
X20885D02*
X20888Y12108D01*
X20890Y12101*
X20890D02*
X20895Y12095D01*
X20895D02*
X20899Y12092D01*
X20899D02*
X20908D01*
X20908D02*
X20913Y12095D01*
X20913D02*
X20917Y12101D01*
X20917D02*
X20920Y12108D01*
Y12117*
X20908D02*
X20920D01*
X20940Y12158D02*
Y12092D01*
Y12158D02*
X20972Y12092D01*
Y12158D02*
Y12092D01*
X21010Y12158D02*
X20992Y12092D01*
X21010Y12158D02*
X21029Y12092D01*
X20999Y12114D02*
X21022D01*
X21049Y12158D02*
Y12092D01*
X21049D02*
X21076D01*
X21138Y12158D02*
Y12092D01*
X21138D02*
X21165D01*
X21204Y12158D02*
X21185Y12092D01*
X21204Y12158D02*
X21222Y12092D01*
X21192Y12114D02*
X21215D01*
X21242Y12158D02*
X21260Y12126D01*
X21260D02*
Y12092D01*
X21279Y12158D02*
X21260Y12126D01*
X21299Y12158D02*
Y12092D01*
Y12158D02*
X21329D01*
X21299Y12126D02*
X21317D01*
X21299Y12092D02*
X21329D01*
X21349Y12158D02*
Y12092D01*
Y12158D02*
X21370D01*
X21376Y12155*
X21376D02*
X21379Y12151D01*
X21379D02*
X21381Y12145D01*
X21381D02*
Y12139D01*
X21379Y12133*
X21376Y12130*
X21376D02*
X21370Y12126D01*
X21370D02*
X21349D01*
X21365D02*
X21381Y12092D01*
X21465Y12158D02*
X21442Y12114D01*
X21442D02*
X21476D01*
X21465Y12158D02*
Y12092D01*
G54D12*
X18007Y15592D02*
X18195D01*
X18195D02*
X18290Y15687D01*
X18290D02*
X19265D01*
X18007Y15592D02*
X17975Y15624D01*
X18160Y15647D02*
Y15747D01*
X18160D02*
X18325Y15912D01*
X18325D02*
X20130D01*
X18020Y15627D02*
X18020D01*
X18020D02*
Y15637D01*
X18020D02*
X18315Y15932D01*
X18315D02*
X19960D01*
X19960D02*
X19970Y15942D01*
X18130Y15632D02*
Y15732D01*
X18130D02*
X18320Y15922D01*
X18320D02*
X20050D01*
X20050D02*
X20105Y15977D01*
X18195Y15647D02*
Y15767D01*
X18195D02*
X18330Y15902D01*
X18330D02*
X20110D01*
X20480Y15693D02*
X20804D01*
X20804D02*
X20818Y15707D01*
X20818D02*
X21560D01*
X21560D02*
X21620Y15767D01*
X20480Y15693D02*
X20409D01*
X20409D02*
X20390Y15712D01*
X20390D02*
X20300D01*
X20300D02*
X20175D01*
X20175D02*
X19995Y15892D01*
X20310Y15682D02*
X20180D01*
X20180D02*
X19985Y15877D01*
X19985D02*
X18505D01*
X20798Y15657D02*
X20170D01*
X20170D02*
X20020Y15807D01*
X20020D02*
X19815D01*
X19815D02*
X19800Y15822D01*
X19800D02*
X19660D01*
X20798Y15657D02*
X20815D01*
X20815D02*
X20840Y15682D01*
X20840D02*
X21580D01*
X20802Y15669D02*
X20323D01*
X20323D02*
X20310Y15682D01*
X20802Y15669D02*
X20830Y15697D01*
X20830D02*
X21605D01*
X21665Y15637D02*
X21605Y15697D01*
X21945Y15607D02*
X21970Y15632D01*
X21970D02*
Y15752D01*
X21970D02*
X21990Y15772D01*
X21945Y15607D02*
X21655D01*
X21655D02*
X21580Y15682D01*
X21865Y15632D02*
Y15777D01*
X21865D02*
X21775Y15867D01*
X21775D02*
X20625D01*
X21820Y15632D02*
Y15707D01*
X21820D02*
X21680Y15847D01*
X18165Y15972D02*
X18190D01*
X18165Y15982D02*
X18190D01*
X18165Y15992D02*
X18190D01*
X18165Y16002D02*
X18190D01*
X18165Y16012D02*
X18190D01*
X18125Y15972D02*
X18165D01*
X18125Y15982D02*
X18165D01*
X18125Y15992D02*
X18165D01*
X18125Y16002D02*
X18165D01*
X18085Y15972D02*
X18125D01*
X18085Y15982D02*
X18125D01*
X18085Y15992D02*
X18125D01*
X18055Y15972D02*
X18085D01*
X18055Y15982D02*
X18085D01*
X18015Y15972D02*
X18055D01*
X18060Y15782D02*
X18140D01*
X18140D02*
X18300Y15942D01*
X18300D02*
X19665D01*
X19665D02*
X19705Y15982D01*
X19705D02*
Y15987D01*
X19705D02*
X19735Y16017D01*
X18190Y16022D02*
X18165D01*
X18165D02*
X18110Y16077D01*
X18020Y16027D02*
X18055Y15992D01*
X18055D02*
X18085D01*
X18055Y15982D02*
X18015D01*
X18015D02*
X18000Y15997D01*
X17980Y15972D02*
X18015D01*
X18125Y16002D02*
X18085D01*
X18085D02*
X18055Y16032D01*
X18095Y16042D02*
X18125Y16012D01*
X18125D02*
X18165D01*
X18205Y15972D02*
X19385D01*
X19385D02*
X19575Y16162D01*
X19575D02*
Y16232D01*
X18205Y15982D02*
X19380D01*
X19380D02*
X19555Y16157D01*
X19555D02*
Y16332D01*
X18205Y15992D02*
X19375D01*
X19375D02*
X19545Y16162D01*
X19545D02*
Y16297D01*
X19545D02*
X19535Y16307D01*
X18205Y16002D02*
X19370D01*
X19370D02*
X19515Y16147D01*
X19515D02*
Y16277D01*
X18205Y16012D02*
X19365D01*
X19365D02*
X19475Y16122D01*
X19475D02*
Y16277D01*
X18205Y16022D02*
X19360D01*
X19360D02*
X19450Y16112D01*
X19450D02*
Y16302D01*
X18205Y16032D02*
X19355D01*
X19355D02*
X19425Y16102D01*
X19425D02*
Y16322D01*
X18190Y15972D02*
X18205D01*
X18190Y15982D02*
X18205D01*
X18190Y15992D02*
X18205D01*
X18190Y16002D02*
X18205D01*
X18190Y16012D02*
X18205D01*
X18190Y16022D02*
X18205D01*
X18375Y15782D02*
X18392D01*
X18392D02*
X18502Y15892D01*
X18502D02*
X19995D01*
X18140Y16082D02*
X18190Y16032D01*
X18190D02*
X18205D01*
Y16042D02*
X19350D01*
X19350D02*
X19400Y16092D01*
X19400D02*
Y16342D01*
X18205Y16042D02*
X18170Y16077D01*
X18170D02*
Y16097D01*
X18375Y15762D02*
X18390D01*
X18390D02*
X18505Y15877D01*
X18375Y15762D02*
X18355D01*
X18355D02*
X18335Y15782D01*
Y16117D02*
X18590D01*
X18590D02*
X18990Y16517D01*
X18990D02*
X19265D01*
X19342Y16055D02*
X18262D01*
X18210Y16107*
X18210*
X19342Y16055D02*
X19375Y16087D01*
X19375D02*
Y16362D01*
X19675Y15982D02*
Y16007D01*
X19675D02*
X19655Y16027D01*
X19655D02*
Y16457D01*
X19655D02*
X19780Y16582D01*
X19780D02*
X19840D01*
X19650Y15962D02*
Y15987D01*
X19650D02*
X19645Y15992D01*
X19645D02*
Y16532D01*
X19645D02*
X19700Y16587D01*
X19705Y16042D02*
Y16102D01*
X19705D02*
X19675Y16132D01*
X19675D02*
Y16447D01*
X19675D02*
X19765Y16537D01*
X19765D02*
X19840D01*
X19695Y16007D02*
X19665Y16037D01*
X19665D02*
Y16452D01*
X19665D02*
X19770Y16557D01*
X19770D02*
X19870D01*
X20155Y15887D02*
X20130Y15912D01*
X20103Y16049D02*
X20090Y16062D01*
X20090D02*
Y16167D01*
X20090D02*
X20005Y16253D01*
Y16627*
X20005D02*
X20015Y16637D01*
X20015D02*
Y16692D01*
X20178Y16043D02*
X20106Y16116D01*
Y16167*
X20015Y16258*
Y16622*
X20015D02*
X20045Y16652D01*
X20045D02*
Y16752D01*
X20320Y15892D02*
Y15922D01*
X20320D02*
X20300Y15942D01*
X20300D02*
Y16052D01*
X20300D02*
X20250Y16102D01*
X20250D02*
Y16262D01*
X20250D02*
X20290Y16302D01*
X20290D02*
Y16524D01*
X20290D02*
X20326Y16561D01*
X20326D02*
Y16596D01*
X20495Y15792D02*
Y15812D01*
X20495D02*
X20540Y15857D01*
X20540D02*
X21680D01*
X20300Y15792D02*
X20270Y15822D01*
X20270D02*
Y16022D01*
X20270D02*
X20210Y16082D01*
X20210D02*
Y16348D01*
X20194Y16364*
X20405Y15737D02*
X20535Y15867D01*
X20535D02*
X20625D01*
X20405Y15737D02*
X20295D01*
X20295D02*
X20240Y15792D01*
X20240D02*
Y15917D01*
X20240D02*
X20180Y15977D01*
X20180D02*
X20105D01*
X20325Y15837D02*
X20290Y15872D01*
X20290D02*
Y16042D01*
X20290D02*
X20235Y16097D01*
X20235D02*
Y16282D01*
X20235D02*
X20275Y16322D01*
X20275D02*
Y16532D01*
X20275D02*
X20255Y16552D01*
X20399Y15747D02*
X20529Y15877D01*
X20529D02*
X21830D01*
X20399Y15747D02*
X20300D01*
X20300D02*
X20250Y15797D01*
X20250D02*
Y15927D01*
X20250D02*
X20165Y16012D01*
X20165D02*
X19940D01*
X19940D02*
X19900Y16052D01*
X19900D02*
X19830D01*
X20170Y15862D02*
X20165Y15867D01*
X20165D02*
X20145D01*
X20145D02*
X20110Y15902D01*
X20300Y15822D02*
X20280Y15842D01*
X20280D02*
Y16032D01*
X20280D02*
X20220Y16092D01*
Y16362*
X20220D02*
X20160Y16422D01*
X20160D02*
Y16514D01*
X20330Y15767D02*
X20295D01*
X20295D02*
X20260Y15802D01*
X20260D02*
Y16012D01*
X20260D02*
X20200Y16072D01*
X20200D02*
Y16320D01*
X20200D02*
X20179Y16341D01*
X20550Y15822D02*
X20575Y15847D01*
X20575D02*
X21680D01*
X20705Y15957D02*
X20680D01*
X20680D02*
X20515Y16122D01*
X20515D02*
Y16157D01*
X20515D02*
X20530Y16172D01*
X20705Y15967D02*
X20695D01*
X20695D02*
X20545Y16117D01*
X20545D02*
Y16142D01*
X20705Y15977D02*
X21780D01*
X21780D02*
X21810Y16007D01*
X21810D02*
X21870D01*
X20705Y15977D02*
X20570Y16112D01*
X20570D02*
Y16122D01*
X20710Y15897D02*
X20480Y16127D01*
X20480D02*
Y16222D01*
X20480D02*
X20505Y16247D01*
X20710Y15897D02*
X21835D01*
X21835D02*
X21860Y15922D01*
X21680Y15857D02*
X21715D01*
X21785Y15957D02*
X20705D01*
X21785Y15967D02*
X21805Y15987D01*
X21805D02*
X21870D01*
X21785Y15967D02*
X20705D01*
X21925Y15782D02*
X21830Y15877D01*
X21805Y15957D02*
X21810Y15962D01*
X21810D02*
X21850D01*
X21805Y15957D02*
X21785D01*
X21805Y15767D02*
X21715Y15857D01*
X21715*
X21895Y15932D02*
X21885Y15942D01*
X21885D02*
X21610D01*
X21610D02*
X21605Y15947D01*
X21605D02*
X20675D01*
X20675D02*
X20500Y16122D01*
X20500D02*
Y16187D01*
X20500D02*
X20515Y16202D01*
X21900Y15752D02*
X21890Y15762D01*
X21890D02*
Y15777D01*
X21900Y15752D02*
X21935D01*
X21935D02*
X21945Y15762D01*
X21945D02*
Y15792D01*
X21945D02*
X21850Y15887D01*
X21850D02*
X20690D01*
X20690D02*
X20555Y16022D01*
X21910Y15997D02*
X21900Y16007D01*
X21900D02*
X21870D01*
X22415Y15782D02*
Y16202D01*
X22415D02*
X22180Y16437D01*
X22180D02*
X21785D01*
X21785D02*
X21655Y16567D01*
X21655D02*
Y16777D01*
X18465Y16182D02*
X18605D01*
X18465Y16207D02*
X18612D01*
X18612D02*
X19012Y16607D01*
X19012D02*
X19195D01*
X18370Y16142D02*
X18600D01*
X18600D02*
X19000Y16542D01*
X19000D02*
X19245D01*
X18530Y16227D02*
X18614D01*
X18614D02*
X19021Y16634D01*
X18435Y16182D02*
X18465D01*
X18405Y16162D02*
X18605D01*
X18605D02*
X19005Y16562D01*
X19005D02*
X19231D01*
X19231D02*
X19236Y16567D01*
X19236D02*
X19260D01*
X18605Y16182D02*
X19001Y16579D01*
X19001D02*
X19221D01*
X19221D02*
X19230Y16587D01*
X19605Y16162D02*
X19630Y16188D01*
X19630D02*
Y16543D01*
X19630D02*
X19697Y16610D01*
X19697D02*
X19882D01*
X20126Y16184D02*
Y16241D01*
X20126D02*
X20127Y16242D01*
Y16300*
X20127D02*
X20106Y16321D01*
X20106D02*
Y16584D01*
X20106D02*
X20385Y16862D01*
X20142Y16355D02*
X20151Y16364D01*
X20194*
X20045Y16274D02*
Y16297D01*
X20045D02*
X20060Y16312D01*
X20060D02*
Y16396D01*
X20060D02*
X20090Y16427D01*
X20090D02*
Y16598D01*
X20090D02*
X20350Y16857D01*
X20250Y16365D02*
Y16401D01*
X20250D02*
X20225Y16426D01*
X20225D02*
Y16597D01*
X18395Y16792D02*
X18445D01*
X18445D02*
X18496Y16844D01*
X18496D02*
X18706D01*
X18706D02*
X18880Y17017D01*
X18880D02*
Y17646D01*
X18880D02*
X18674Y17852D01*
X18674D02*
X18560D01*
X18560D02*
X18070Y18342D01*
X18070D02*
Y18552D01*
X18091Y18573*
X18091D02*
Y18599D01*
X18091D02*
X18078Y18611D01*
X18515Y16877D02*
X18700D01*
X18700D02*
X18860Y17037D01*
X18860D02*
Y17628D01*
X18860D02*
X18656Y17832D01*
X18656D02*
X18550D01*
X18550D02*
X18040Y18342D01*
X18040D02*
Y18522D01*
X18040D02*
X17980Y18582D01*
X18350Y16797D02*
X18370Y16817D01*
X18370D02*
X18455D01*
X18455D02*
X18491Y16854D01*
X18491D02*
X18655D01*
X18660Y16859*
X18700*
X18870Y17029*
Y17637*
X18870D02*
X18665Y17842D01*
X18665D02*
X18555D01*
X18555D02*
X18050Y18347D01*
X18050D02*
Y18567D01*
X18050D02*
X18065Y18582D01*
X18695Y16757D02*
Y16787D01*
X18695D02*
X18910Y17002D01*
X18910D02*
Y17678D01*
X18910D02*
X18706Y17882D01*
X18706D02*
X18575D01*
X18575D02*
X18100Y18357D01*
X18100D02*
Y18457D01*
X18100D02*
X18225Y18582D01*
X18800Y16767D02*
Y16837D01*
X18800D02*
X18950Y16987D01*
X18950D02*
Y17701D01*
X18950D02*
X18728Y17923D01*
X18728D02*
X18589D01*
X18589D02*
X18575Y17937D01*
X18575D02*
X18575D01*
X18575D02*
X18375Y18137D01*
X18375D02*
Y18577D01*
X18755Y16747D02*
Y16807D01*
X18755D02*
X18940Y16992D01*
X18940D02*
Y17691D01*
X18940D02*
X18718Y17913D01*
X18718D02*
X18584D01*
X18584D02*
X18335Y18162D01*
X18335D02*
Y18587D01*
X18655Y16762D02*
X18900Y17007D01*
X18900D02*
Y17663D01*
X18900D02*
X18691Y17872D01*
X18691D02*
X18570D01*
X18570D02*
X18090Y18352D01*
X18090D02*
Y18517D01*
X18090D02*
X18165Y18592D01*
X18630Y16727D02*
Y16767D01*
X18630D02*
X18650Y16787D01*
X18650D02*
X18665D01*
X18665D02*
X18890Y17012D01*
X18890D02*
Y17655D01*
X18890D02*
X18683Y17862D01*
X18683D02*
X18565D01*
X18565D02*
X18080Y18347D01*
X18080D02*
Y18542D01*
X18080D02*
X18135Y18597D01*
X19045Y16682D02*
X19005Y16642D01*
X19005D02*
X18585D01*
X18585D02*
X18575Y16652D01*
X18575D02*
X18475D01*
X18475D02*
X18380Y16747D01*
X19245Y16627D02*
X19234D01*
X19234D02*
X19227Y16634D01*
X19227D02*
X19021D01*
X19700Y16582D02*
Y16587D01*
X19780Y16672D02*
X19750D01*
X19750D02*
X19740Y16682D01*
X19740D02*
X19045D01*
X19900Y16582D02*
Y16592D01*
X19900D02*
X19882Y16610D01*
X19890Y16532D02*
X19884D01*
X19884D02*
X19879Y16537D01*
X19879D02*
X19840D01*
X18095Y17427D02*
X17905Y17617D01*
X17905D02*
X17830D01*
X18095Y17427D02*
X18335D01*
X18335D02*
X18365Y17457D01*
X20905Y17692D02*
X20850Y17747D01*
X20850D02*
X20775D01*
X20775D02*
X20715Y17807D01*
X20715D02*
Y18087D01*
X20715D02*
X20915Y18287D01*
X20915D02*
X21600D01*
X21600D02*
X21695Y18382D01*
X21695D02*
Y18427D01*
X21695D02*
X21845Y18577D01*
X21845D02*
Y18592D01*
X21845D02*
X21860Y18607D01*
X21860D02*
X21945D01*
X20965Y17407D02*
X21505D01*
X21505D02*
X21560Y17462D01*
X21560D02*
X21630D01*
X20920Y17387D02*
X21505D01*
X21505D02*
X21555Y17437D01*
X21555D02*
X21660D01*
X20805Y17647D02*
X20670Y17782D01*
X20670D02*
Y18102D01*
X20670D02*
X20900Y18332D01*
X20900D02*
X21585D01*
X21585D02*
X21625Y18372D01*
X21625D02*
Y18592D01*
X20865Y17667D02*
Y17717D01*
X20865D02*
X20845Y17737D01*
X20845D02*
X20770D01*
X20770D02*
X20705Y17802D01*
X20705D02*
Y18092D01*
X20705D02*
X20910Y18297D01*
X20910D02*
X21595D01*
X21595D02*
X21685Y18387D01*
X21685D02*
Y18447D01*
X21685D02*
X21825Y18587D01*
X20845Y17707D02*
X20785D01*
X20785D02*
X20695Y17797D01*
X20695D02*
Y18097D01*
X20695D02*
X20905Y18307D01*
X20905D02*
X21590D01*
X21590D02*
X21675Y18392D01*
X21675D02*
Y18462D01*
X21675D02*
X21780Y18567D01*
X21780D02*
Y18607D01*
X20825Y17672D02*
X20800D01*
X20800D02*
X20680Y17792D01*
X20680D02*
Y18097D01*
X20680D02*
X20900Y18317D01*
X20900D02*
X21585D01*
X21585D02*
X21664Y18397D01*
X21664D02*
Y18587D01*
X21000Y17427D02*
X21505D01*
X21505D02*
X21520Y17442D01*
X21520D02*
Y17477D01*
X20995Y17367D02*
X21505D01*
X21505D02*
X21550Y17412D01*
X21550D02*
X21665D01*
X21665D02*
X21700Y17447D01*
X21700D02*
Y17462D01*
X21520Y17477D02*
X21545Y17502D01*
X21545D02*
Y17512D01*
X21545D02*
X21570Y17537D01*
X21570D02*
X21930D01*
X21930D02*
X21980Y17587D01*
X21980D02*
Y17692D01*
X21830Y17467D02*
X21870Y17507D01*
X21870D02*
X21915D01*
X21915D02*
X22000Y17592D01*
X22000D02*
Y17717D01*
X21860Y17467D02*
X21890Y17497D01*
X21890D02*
X21920D01*
X21920D02*
X22020Y17597D01*
X22020D02*
Y17672D01*
X18020Y18577D02*
Y18601D01*
X18030Y18611*
X18030D02*
X18078D01*
X22030Y18582D02*
X22005Y18607D01*
X22005D02*
X21945D01*
G54D19*
X17000Y19757D03*
X19450D03*
X17000Y17557D03*
X19050Y17957D03*
X20950D03*
X20550Y19757D03*
X23000D03*
Y17557D03*
X17000Y14457D03*
Y16657D03*
X19450Y14457D03*
X19050Y16257D03*
X23000Y16657D03*
Y14457D03*
X20550D03*
X20950Y16257D03*
G54D27*
X20537Y13957D03*
X20063D03*
G54D32*
X20350Y14142D03*
X20250D03*
Y14062D03*
X20350D03*
X21283Y15777D03*
X22637D03*
X21283Y18437D03*
X22637D03*
X18716D03*
X17362D03*
X18716Y15787D03*
X17362D03*
G54D45*
X17710Y13657D03*
X17810D03*
X17910D03*
X18010D03*
G54D46*
X19630Y14102D03*
G54D47*
Y13857D03*
X19820Y13982D03*
G54D48*
X19958Y19277D03*
G54D49*
X19858Y19177D03*
X20058D03*
Y19377D03*
X19858D03*
G54D50*
X19220Y14712D02*
X19170D01*
X19170D02*
Y14827D01*
X19170D02*
X18775Y15222D01*
X18775D02*
X18680D01*
X18680D02*
X18590Y15312D01*
X19220Y14712D02*
X19278D01*
X19278D02*
X20880D01*
X20880D02*
X21205Y15037D01*
X21205D02*
Y15477D01*
X21205D02*
X21275Y15547D01*
X18040Y15319D02*
X17993D01*
X17990Y15322*
X18040Y15319D02*
X18065D01*
X18065D02*
X18085D01*
Y15317D02*
X18065Y15319D01*
X18590Y15497D02*
Y15312D01*
X18590D02*
X18583Y15319D01*
X18085*
X17990Y15322D02*
X17982Y15330D01*
X17982D02*
X17467D01*
X17467D02*
X17160Y15637D01*
X17160D02*
Y15937D01*
X17160D02*
X17300Y16077D01*
X17300D02*
Y17962D01*
X17300D02*
X17197Y18065D01*
Y18584*
X17197D02*
X17340Y18727D01*
X17340D02*
X18486D01*
X18590Y15497D02*
Y15562D01*
X21275Y15547D02*
X21314Y15585D01*
X20060Y18476D02*
X20111Y18527D01*
X20111D02*
X21360D01*
X21360D02*
X21410Y18577D01*
X21410D02*
Y18592D01*
X20060Y18476D02*
X19078D01*
X19078D02*
X18957Y18597D01*
X18957D02*
X18652D01*
X18600D02*
X18601Y18612D01*
X18601D02*
X18486Y18727D01*
X18600Y18597D02*
X18652D01*
G54D56*
X18160Y15607D02*
X18190D01*
X18190D02*
X18227Y15645D01*
X18227D02*
X18227D01*
X18227D02*
X18284Y15702D01*
X18284D02*
X19140D01*
X19140D02*
X19195Y15757D01*
X19195D02*
X19980D01*
X18160Y15607D02*
X18105D01*
X18105D02*
X18100Y15612D01*
X18199Y15576D02*
X17978D01*
X17978D02*
X17947Y15607D01*
X18199Y15576D02*
X18295Y15672D01*
X18295D02*
X18787D01*
X19265Y15657D02*
X18802D01*
X18802D02*
X18787Y15672D01*
X20165Y15642D02*
X20020Y15787D01*
X20020D02*
X19635D01*
X20165Y15642D02*
X21145D01*
X21145D02*
X21165Y15662D01*
X21165D02*
X21575D01*
X20774Y15577D02*
X20410D01*
X20410D02*
X20390Y15597D01*
X20390D02*
X20165D01*
X20165D02*
X20005Y15757D01*
X20005D02*
X19980D01*
X20774Y15577D02*
X20775D01*
X20775D02*
X20805Y15607D01*
X21160*
X21190Y15637*
X21419*
X21680Y15537D02*
X21610Y15607D01*
X21449*
X21449D02*
X21419Y15637D01*
X21680Y15537D02*
X21810D01*
X21810D02*
X21835Y15562D01*
X21835D02*
X21905D01*
X22000Y15622D02*
X21970Y15592D01*
X21970D02*
X21645D01*
X21645D02*
X21575Y15662D01*
X19985Y16047D02*
Y16102D01*
X19985D02*
X19970Y16117D01*
X19970D02*
Y16332D01*
X19970D02*
X19940Y16362D01*
X19940D02*
Y16577D01*
X19940D02*
X19775Y16742D01*
X19775D02*
X19440D01*
X18295Y16762D02*
X18340D01*
X18340D02*
X18347Y16770D01*
X18347D02*
X18390D01*
X18725Y16702D02*
X18830D01*
X18830D02*
X18870Y16742D01*
X18870D02*
X19440D01*
X18725Y16702D02*
X18510D01*
X18510D02*
X18485Y16727D01*
X18485D02*
Y16742D01*
X18485D02*
X18457Y16770D01*
X18457D02*
X18390D01*
X18725Y16702D02*
Y16797D01*
X18725D02*
X18925Y16997D01*
X18925D02*
Y17682D01*
X18925D02*
X18710Y17897D01*
X18710D02*
X18580D01*
X18580D02*
X18120Y18357D01*
X18120D02*
Y18447D01*
X19440Y16742D02*
Y17112D01*
X19440D02*
X19830D01*
X19830D02*
X20035Y17317D01*
X20035D02*
X21535D01*
X21535D02*
X21615Y17397D01*
X21615D02*
X21670D01*
X21670D02*
X21725Y17452D01*
X21725D02*
Y17462D01*
X21725D02*
X21750Y17487D01*
G54D60*
X17470Y14047D03*
X17640D03*
X17710Y13897D03*
X17540D03*
X17710Y13767D03*
X17540D03*
X17800Y14047D03*
X17990D03*
X18090Y13897D03*
X17890D03*
X18090Y13767D03*
X17900D03*
X18170Y14047D03*
X18380D03*
X18430Y13897D03*
X18260D03*
X18430Y13767D03*
X18260D03*
X18570Y14047D03*
X18730D03*
X18900Y14037D03*
X18930Y13897D03*
X18770D03*
X18590D03*
X18940Y13757D03*
X18770D03*
X18590Y13767D03*
X19050Y14027D03*
Y13897D03*
X19060Y13747D03*
X17540Y14347D03*
X17700D03*
X17720Y14207D03*
X17550D03*
X17545Y14502D03*
X17870Y14347D03*
X18040D03*
X18080Y14197D03*
X17890D03*
X18210Y14347D03*
X18360D03*
X18520D03*
X18460Y14197D03*
X18260D03*
X18700Y14347D03*
X18850D03*
Y14197D03*
X18650D03*
X18860Y14512D03*
X19030Y14347D03*
X19040Y14187D03*
Y14497D03*
X17530Y14907D03*
X17540Y14662D03*
X17530Y14777D03*
X17750Y14582D03*
Y14657D03*
Y14732D03*
Y14782D03*
Y14907D03*
X17650D03*
Y14782D03*
Y14707D03*
Y14632D03*
Y14532D03*
X17690Y14527D03*
X18125Y14882D03*
Y14607D03*
Y14707D03*
X17900D03*
Y14607D03*
X18000D03*
Y14707D03*
X18125Y14782D03*
X18000D03*
X17900D03*
X17825D03*
X18025Y14907D03*
X17875D03*
X17775Y14532D03*
X17875D03*
X17950D03*
X18025D03*
X18150D03*
X18425Y14907D03*
X18375Y14832D03*
X18525Y14907D03*
Y14807D03*
Y14632D03*
X18375D03*
Y14532D03*
X18500D03*
X18525Y14732D03*
X18375D03*
X18250Y14532D03*
Y14632D03*
Y14732D03*
Y14807D03*
X18860Y14607D03*
X18855Y14702D03*
X18750Y14832D03*
X18625D03*
Y14907D03*
X18675Y14632D03*
X18650Y14532D03*
X18750D03*
Y14632D03*
Y14732D03*
X18650D03*
X19050Y14627D03*
X17960Y15087D03*
X17800D03*
X18145Y14992D03*
X18150Y15057D03*
X17885Y15002D03*
X18250Y14932D03*
X18400Y15057D03*
X18375Y14982D03*
X18555Y15002D03*
X18680Y15137D03*
X19715Y15310D03*
X19777D03*
X20115Y15292D03*
X21680Y15277D03*
X21375D03*
X17745Y15647D03*
X17400Y15712D03*
X17475Y15647D03*
X17590Y15642D03*
X17625Y15627D03*
X17505D03*
X17700D03*
X17665Y15642D03*
X17545Y15632D03*
X17955Y15547D03*
X17785Y15647D03*
X17860D03*
X17947Y15607D03*
X18100Y15612D03*
X17975Y15624D03*
X18160Y15647D03*
X18125Y15537D03*
X18020Y15627D03*
X18130Y15632D03*
X18505Y15402D03*
X18465Y15647D03*
X18530D03*
X18295Y15637D03*
X18195Y15647D03*
X18255Y15582D03*
Y15442D03*
X18330Y15582D03*
Y15442D03*
X18710Y15642D03*
X18650Y15647D03*
X18655Y15367D03*
X19265Y15687D03*
Y15657D03*
X19480Y15427D03*
X19630Y15717D03*
X19510Y15597D03*
X19675Y15442D03*
X19630D03*
X19540Y15327D03*
X19860Y15667D03*
X19885Y15712D03*
X19825Y15617D03*
X19855Y15637D03*
X20165Y15567D03*
X20105Y15557D03*
X20115Y15432D03*
X20000Y15427D03*
X19805Y15435D03*
X19935Y15422D03*
X19980Y15350D03*
X20270Y15321D03*
X20480Y15717D03*
X20565Y15552D03*
X20300Y15712D03*
X20265Y15442D03*
X20330Y15557D03*
X20560Y15612D03*
X20280Y15557D03*
X20310Y15682D03*
X20740Y15617D03*
X20650Y15607D03*
X21130Y15477D03*
X21125Y15327D03*
X21130Y15412D03*
X21410Y15487D03*
X21480Y15497D03*
X21525Y15402D03*
X21755Y15567D03*
X21680Y15327D03*
Y15377D03*
Y15427D03*
X21505Y15632D03*
X21690Y15562D03*
X21665Y15637D03*
X21995Y15537D03*
X21905Y15562D03*
X22050Y15627D03*
X21865Y15632D03*
X21940D03*
X21820D03*
X22000Y15622D03*
X22175D03*
X22215D03*
X22370Y15632D03*
X22530Y15622D03*
X22490Y15637D03*
X22410Y15627D03*
X22295Y15632D03*
X22335Y15617D03*
X22455Y15632D03*
X17735Y15787D03*
X17550Y15792D03*
X17625Y15927D03*
X17400Y15862D03*
X17595Y15967D03*
X17760Y16087D03*
X17865Y15797D03*
X17840Y16012D03*
X17780Y16017D03*
X17785Y15792D03*
X18060Y15782D03*
X18055Y16032D03*
X18000Y15997D03*
X17980Y15972D03*
X18095Y16042D03*
X18110Y16077D03*
X18020Y16027D03*
X18140Y16082D03*
X18335Y15782D03*
X18375D03*
X18210Y16107D03*
X18335Y16117D03*
X18170Y16097D03*
X18571Y15792D03*
X18650D03*
X19735Y16017D03*
X19505Y15962D03*
Y16022D03*
X19675Y15982D03*
X19650Y15962D03*
X19660Y15822D03*
X19635Y15787D03*
X19705Y16042D03*
X19695Y16007D03*
X19980Y15757D03*
X19970Y15942D03*
X19985Y16047D03*
X19945Y15732D03*
X20155Y15887D03*
X19830Y16052D03*
X20105Y15977D03*
X20103Y16049D03*
X19795Y16032D03*
X20178Y16043D03*
X20320Y15892D03*
X20510Y15747D03*
X20495Y15792D03*
X20300D03*
X20325Y15837D03*
X20170Y15862D03*
X20300Y15822D03*
X20350Y15912D03*
X20480Y15892D03*
X20325Y15957D03*
X20330Y15767D03*
X20360Y15997D03*
X20485Y16017D03*
X20555Y16022D03*
X20550Y15822D03*
X20580Y15915D03*
X20810Y15922D03*
X21350Y15777D03*
X21340Y16022D03*
X21185D03*
X21370Y15927D03*
X21620Y15767D03*
X21475Y16052D03*
X21375Y16067D03*
X21440Y16052D03*
X21400Y16042D03*
X21610D03*
X21575Y16032D03*
X21540Y16042D03*
X21665Y16087D03*
X21675Y16032D03*
X21645Y16042D03*
X21505D03*
X21850Y15962D03*
X21990Y15772D03*
X21890Y15777D03*
X22140D03*
X22060Y15917D03*
X21925Y15782D03*
X21805Y15767D03*
X21860Y15922D03*
X21870Y15987D03*
X21895Y15932D03*
X21910Y15997D03*
X22240Y16057D03*
X22180Y15917D03*
Y16057D03*
X22240Y15917D03*
X22440Y15957D03*
X22385Y15967D03*
X22415Y15782D03*
X22570Y15917D03*
Y15767D03*
X17200Y16392D03*
X17215Y16152D03*
X17765Y16377D03*
Y16247D03*
X17790Y16182D03*
X18465Y16207D03*
X18370Y16142D03*
X18530Y16227D03*
X18435Y16182D03*
X18405Y16162D03*
X19265Y16517D03*
X19605Y16162D03*
X19725Y16377D03*
X19595Y16317D03*
X19485Y16512D03*
X19575Y16382D03*
X19695Y16177D03*
X19580Y16277D03*
X19725Y16192D03*
X19755Y16172D03*
X19575Y16232D03*
X19555Y16332D03*
X19375Y16362D03*
X19400Y16342D03*
X19475Y16277D03*
X19535Y16307D03*
X19515Y16277D03*
X19450Y16302D03*
X19425Y16322D03*
X19760Y16367D03*
X20107Y16286D03*
X20126Y16184D03*
X19835Y16167D03*
X19840Y16367D03*
X19815Y16512D03*
X20160Y16514D03*
X20142Y16355D03*
X20085Y16387D03*
X20077Y16291D03*
X19930Y16337D03*
X20000Y16187D03*
X20035Y16337D03*
X19940Y16257D03*
X20165Y16272D03*
X19985Y16357D03*
X20070Y16512D03*
X20045Y16274D03*
X19795Y16367D03*
X20035Y16172D03*
X19770Y16512D03*
X20250Y16365D03*
X20505Y16247D03*
X20320Y16512D03*
X20415Y16352D03*
X20365Y16357D03*
X20470Y16512D03*
X20530Y16172D03*
X20545Y16142D03*
X20250Y16512D03*
X20179Y16341D03*
X20200Y16512D03*
X20270Y16187D03*
X20375Y16277D03*
X20335Y16177D03*
X20395Y16227D03*
X20415Y16252D03*
X20460Y16282D03*
X20515Y16202D03*
X20570Y16122D03*
X22695Y16352D03*
X22610Y16257D03*
X18040Y16772D03*
X18065Y16877D03*
X17890Y16792D03*
X17900Y16757D03*
X18025Y16892D03*
X18045Y16807D03*
X18458Y16599D03*
Y16719D03*
X18395Y16792D03*
X18515Y16877D03*
X18295Y16762D03*
X18380Y16747D03*
X18420Y16612D03*
X18505D03*
X18442Y16853D03*
X18512Y16743D03*
X18380Y16917D03*
X18290Y16727D03*
X18520Y16817D03*
X18450Y16912D03*
X18350Y16797D03*
X18230Y16737D03*
X18365Y16612D03*
X18695Y16757D03*
X18800Y16767D03*
X18720Y16617D03*
X18755Y16747D03*
X18655Y16762D03*
X18630Y16727D03*
X18610Y16672D03*
X19260Y16567D03*
X19230Y16587D03*
X19195Y16607D03*
X19245Y16627D03*
Y16542D03*
X19400Y16647D03*
X19390Y16717D03*
X19620Y16572D03*
X19730Y16657D03*
X19670D03*
X19575Y16552D03*
X19521Y16547D03*
X19580Y16627D03*
X19520Y16632D03*
X19700Y16582D03*
X19780Y16672D03*
X20129Y16531D03*
X20045Y16752D03*
X20015Y16692D03*
X20010Y16817D03*
X19974Y16568D03*
X20140Y16827D03*
X20080Y16807D03*
X20040Y16802D03*
X20085Y16842D03*
X19900Y16582D03*
X19870Y16557D03*
X19840Y16582D03*
X19890Y16532D03*
X20326Y16596D03*
X20425Y16542D03*
X20355D03*
X20180Y16555D03*
X20255Y16552D03*
X20225Y16597D03*
X20350Y16857D03*
X20385Y16862D03*
X20305Y16867D03*
X20255Y16857D03*
X20205Y16872D03*
X20175Y16832D03*
X20275Y16887D03*
X20205Y16837D03*
X20585Y16732D03*
X20720Y16692D03*
X21159Y16784D03*
X21106Y16717D03*
X21279Y16678D03*
X21140Y16675D03*
X21310Y16567D03*
X21320Y16862D03*
X21250Y16792D03*
X21285Y16787D03*
X21335Y16737D03*
X21080Y16677D03*
X21140Y16607D03*
X21250Y16577D03*
X21715Y16817D03*
X21630Y16667D03*
X21510Y16657D03*
X21765Y16882D03*
X21530Y16837D03*
X21470Y16717D03*
X21760Y16777D03*
X21390Y16897D03*
X21530Y16877D03*
X21655Y16777D03*
X21570Y16797D03*
X21390Y16837D03*
X21540Y16657D03*
X21680Y16667D03*
X22000Y16877D03*
X21800Y16777D03*
X21880Y16792D03*
X22000Y16797D03*
X21810Y16667D03*
X21920D03*
X22050Y16582D03*
Y16622D03*
X21990Y16837D03*
X22510Y16772D03*
X22480Y16752D03*
X22420D03*
X22460Y16682D03*
X22490Y16697D03*
Y16622D03*
X22610Y16677D03*
X22690Y16592D03*
X17605Y17142D03*
X17595Y17272D03*
X17715Y17052D03*
X17645Y17292D03*
X17710Y17107D03*
X17575Y17247D03*
X17550Y17217D03*
X17535Y17192D03*
X17910Y17257D03*
Y17142D03*
X18050Y17087D03*
X18055Y17157D03*
X18050Y17317D03*
Y17257D03*
X17905Y17087D03*
X18020Y16937D03*
X17890Y17287D03*
X17900Y17012D03*
X18055Y17007D03*
X18350Y17277D03*
X18360Y17017D03*
X18510Y17302D03*
X18415Y17017D03*
X18500Y17122D03*
X18225Y17192D03*
X18375Y17187D03*
X18510Y17182D03*
X18485Y17012D03*
X18230Y17087D03*
X18465D03*
X18225Y16982D03*
X18650Y17302D03*
X19265Y17207D03*
Y17157D03*
X19270Y17017D03*
X19265Y17272D03*
X19440Y17112D03*
X19430Y17292D03*
X19435Y17247D03*
X19420Y17157D03*
X19395Y17102D03*
X19400Y17027D03*
X19390Y16922D03*
X20510Y17122D03*
X20320Y17152D03*
X20540Y17292D03*
X20330Y17212D03*
X20875Y17042D03*
X20835Y17252D03*
X20585Y17112D03*
X20870Y16982D03*
X20720Y17097D03*
X20590Y17187D03*
X20585Y17247D03*
X20580Y16927D03*
X21650Y17262D03*
X21385Y16957D03*
X21705Y17082D03*
X21550Y16957D03*
X21645Y17127D03*
X21650Y17202D03*
X21645Y17317D03*
X21540Y17017D03*
X21925Y17317D03*
X21775Y17127D03*
Y17202D03*
X21780Y17262D03*
Y17317D03*
X21830Y17097D03*
X21980Y17007D03*
X22120Y17142D03*
X22000Y17262D03*
Y17157D03*
X22005Y17217D03*
X22110Y17087D03*
X21985Y16947D03*
X22110Y17007D03*
X21835Y17137D03*
X21995Y17047D03*
X21970Y17192D03*
X21975Y17097D03*
X22420Y17177D03*
X22425Y16952D03*
X22410Y17142D03*
X22375Y17117D03*
X22335Y17087D03*
X22305Y16947D03*
X17575Y17347D03*
X17565Y17472D03*
X17425Y17577D03*
X17475Y17482D03*
X17505Y17522D03*
X17705Y17672D03*
X17450Y17557D03*
X17455Y17522D03*
X18118Y17455D03*
X17955Y17637D03*
X18110Y17602D03*
X18050Y17407D03*
X17830Y17617D03*
X17900Y17417D03*
X18360Y17587D03*
X18220Y17667D03*
X18510Y17377D03*
X18475Y17452D03*
X18225Y17602D03*
X18365Y17457D03*
X18315D03*
X18405D03*
X18540Y17592D03*
X18225Y17457D03*
X18425Y17392D03*
X18495Y17597D03*
X18820Y17337D03*
X18580Y17497D03*
X18630Y17402D03*
X19450Y17377D03*
X19550Y17707D03*
X19400Y17537D03*
X19405Y17492D03*
X19560Y17607D03*
X19500D03*
X19635Y17697D03*
X19755Y17702D03*
X19705Y17677D03*
X19805Y17672D03*
X19815Y17702D03*
X19865Y17677D03*
X19980Y17687D03*
X20105Y17662D03*
X20220Y17697D03*
X20545Y17587D03*
X20435Y17692D03*
X20355Y17697D03*
X20905Y17692D03*
X20965Y17407D03*
X20920Y17387D03*
X20805Y17647D03*
X20865Y17667D03*
X20845Y17707D03*
X20590Y17512D03*
X20720Y17527D03*
X20825Y17672D03*
X21000Y17427D03*
X20995Y17367D03*
X21560Y17487D03*
X21700Y17462D03*
X21630D03*
X21505Y17512D03*
X21630Y17497D03*
X21500Y17452D03*
X21640Y17372D03*
X21660Y17437D03*
X21580Y17517D03*
X21520Y17477D03*
X21750Y17487D03*
X21445Y17597D03*
X21730Y17512D03*
X21980Y17692D03*
X21900Y17457D03*
X21890Y17402D03*
X21780Y17372D03*
X22020Y17672D03*
X22000Y17717D03*
X21845Y17517D03*
X22000Y17337D03*
X21990Y17447D03*
Y17387D03*
X22120Y17437D03*
X21830Y17467D03*
X21860D03*
X21920Y17367D03*
X21775Y17517D03*
X17715Y17762D03*
X19580Y17832D03*
X19430Y17932D03*
X19370Y17977D03*
X19765Y17997D03*
X19490Y17877D03*
X19485Y17912D03*
X19740Y18017D03*
X19405Y17997D03*
X19395Y17957D03*
X19375Y18017D03*
X19945Y17942D03*
X20040Y17837D03*
X20075D03*
X20120Y17847D03*
X19992Y17865D03*
X19865Y17912D03*
X19815Y17957D03*
X19790Y17977D03*
X19840Y17932D03*
X19900Y17877D03*
X20180Y17942D03*
X20410Y17867D03*
X20365Y17872D03*
X20220Y17842D03*
X20260Y18057D03*
X17410Y18287D03*
X17550Y18292D03*
X17745Y18282D03*
X17625Y18292D03*
X17585D03*
X17815Y18232D03*
X18120Y18447D03*
X17950Y18427D03*
X17855Y18207D03*
X18680Y18513D03*
X18675Y18362D03*
X19364Y18339D03*
X19220D03*
X19328Y18357D03*
X19298D03*
X19112Y18297D03*
X19256Y18345D03*
X19154Y18315D03*
X19184Y18327D03*
X19680Y18207D03*
X19700Y18142D03*
X19560Y18262D03*
X19725Y18182D03*
X19650Y18217D03*
X19540Y18287D03*
X19595Y18247D03*
X19620Y18232D03*
X20140Y18227D03*
X20025Y18382D03*
X20149Y18427D03*
X20207Y18173D03*
X20294Y18363D03*
X20565Y18372D03*
X20483Y18379D03*
X20207Y18373D03*
X20605Y18232D03*
X20610Y18282D03*
X21428Y18429D03*
X21380Y18427D03*
X22130Y18147D03*
X21900Y18437D03*
X22025Y18257D03*
X22140Y18297D03*
X22190Y18142D03*
X22380Y18427D03*
X22220Y18297D03*
X22450Y18427D03*
X22240Y18247D03*
X22415Y18287D03*
X22570Y18427D03*
X17430Y18577D03*
X17745Y18597D03*
X17585Y18602D03*
X17625Y18637D03*
X17705Y18607D03*
X17660D03*
X17510Y18597D03*
X17465Y18587D03*
X17545Y18582D03*
X17810Y18637D03*
X17955Y18617D03*
X17855Y18647D03*
X18020Y18577D03*
X18135Y18597D03*
X17980Y18582D03*
X18165Y18592D03*
X18065Y18582D03*
X18375Y18577D03*
X18540Y18582D03*
X18495D03*
X18295Y18587D03*
X18365Y18652D03*
X18225Y18582D03*
X18335Y18587D03*
X18662Y18681D03*
X19755Y18572D03*
X19740Y18887D03*
X20132Y18746D03*
X19820Y18757D03*
X19950Y18727D03*
X19780D03*
X19910Y18757D03*
X19860D03*
X19910Y18707D03*
X19800Y18567D03*
X19850Y18677D03*
X19780Y18887D03*
X19920D03*
X19955Y18882D03*
X19990D03*
X19780Y18672D03*
X19840Y18567D03*
X20000Y18577D03*
X19955D03*
X19820Y18707D03*
X20210Y18822D03*
X20450Y18672D03*
Y18827D03*
X21330Y18587D03*
X21740D03*
X21664D03*
X21465Y18672D03*
X21525Y18667D03*
X21380Y18687D03*
X21625Y18592D03*
X22125Y18692D03*
X22150Y18587D03*
X21975Y18582D03*
X21780Y18607D03*
X22030Y18582D03*
X21865D03*
X21945Y18587D03*
X21825D03*
X22200Y18577D03*
X22535Y18582D03*
X22495Y18597D03*
X22455Y18612D03*
X22410Y18627D03*
X22375Y18612D03*
X22305Y18587D03*
X22335Y18602D03*
X22260Y18577D03*
X22580D03*
X19855Y19037D03*
X20050Y18927D03*
Y18992D03*
X19920D03*
Y18927D03*
G54D61*
X19170Y14712D03*
X19220D03*
X19278D03*
X18040Y15317D03*
X18085D03*
X17990Y15322D03*
X18360Y15402D03*
X18260Y15397D03*
X18590Y15497D03*
Y15562D03*
X21314Y15585D03*
X21275Y15547D03*
X18652Y18597D03*
X18600D03*
X21410Y18592D03*
X0Y0D02*
M02*
