*
*
G04 PowerPCB (Build Number 501.037) generated Gerber (RS-274-X) file*
G04 PC Version=2.1*
*
%IN "USRP_REV 4.1.pcb"*%
*
%MOIN*%
*
%FSLAX35Y35*%
*
*
*
*
G04 PC Standard Apertures*
*
*
G04 Thermal Relief Aperture macro.*
%AMTER*
1,1,$1,0,0*
1,0,$1-$2,0,0*
21,0,$3,$4,0,0,45*
21,0,$3,$4,0,0,135*
%
*
*
G04 Annular Aperture macro.*
%AMANN*
1,1,$1,0,0*
1,0,$2,0,0*
%
*
*
G04 Odd Aperture macro.*
%AMODD*
1,1,$1,0,0*
1,0,$1-0.005,0,0*
%
*
*
G04 PC Custom Aperture Macros*
*
*
*
*
*
*
G04 PC Aperture Table*
*
%ADD010C,0.01*%
%ADD012C,0.005*%
%ADD019C,0.125*%
%ADD024R,0.06X0.06*%
%ADD061C,0.02*%
%ADD071C,0.135*%
%ADD075R,0.04X0.04*%
%ADD076R,0.07299X0.07299*%
%ADD077R,0.1X0.1*%
%ADD078R,0.07X0.07*%
%ADD079C,0.07*%
%ADD080R,0.034X0.034*%
%ADD081C,0.065*%
%ADD082C,0.023*%
%ADD083C,0.03362*%
%ADD084R,0.13X0.13*%
%ADD085R,0.065X0.065*%
%ADD086R,0.36X0.36*%
%ADD087R,0.09X0.09*%
%ADD088R,0.082X0.082*%
%ADD089R,0.068X0.068*%
%ADD090C,0.068*%
%ADD091C,0.17*%
%ADD092C,0.15*%
%ADD093C,0.103*%
%ADD094C,0.108*%
%ADD095R,0.02614X0.02614*%
%ADD096R,0.0228X0.0228*%
%ADD097R,0.13795X0.13795*%
*
*
*
*
G04 PC Custom Flashes*
G04 Layer Name USRP_REV 4.1.pcb - flashes*
%LPD*%
*
*
G04 PC Circuitry*
G04 Layer Name USRP_REV 4.1.pcb - circuitry*
%LPD*%
*
G54D10*
G01X1685000Y1355750D02*
Y1990750D01*
X2315000*
Y1355750*
X1685000*
X2032909Y1214250D02*
X2032681Y1214875D01*
X2032681D02*
X2032227Y1215500D01*
X2031772Y1215812*
X2031772D02*
X2030863D01*
X2030863D02*
X2030409Y1215500D01*
X2029954Y1214875*
X2029954D02*
X2029727Y1214250D01*
X2029500Y1213312*
X2029500D02*
Y1211750D01*
X2029727Y1210812*
X2029727D02*
X2029954Y1210187D01*
X2029954D02*
X2030409Y1209562D01*
X2030409D02*
X2030863Y1209250D01*
X2030863D02*
X2031772D01*
X2031772D02*
X2032227Y1209562D01*
X2032227D02*
X2032681Y1210187D01*
X2032681D02*
X2032909Y1210812D01*
X2036318Y1215812D02*
X2035863Y1215500D01*
X2035863D02*
X2035409Y1214875D01*
X2035181Y1214250*
X2035181D02*
X2034954Y1213312D01*
X2034954D02*
Y1211750D01*
X2034954D02*
X2035181Y1210812D01*
X2035181D02*
X2035409Y1210187D01*
X2035409D02*
X2035863Y1209562D01*
X2035863D02*
X2036318Y1209250D01*
X2037227*
X2037681Y1209562*
X2037681D02*
X2038136Y1210187D01*
X2038136D02*
X2038363Y1210812D01*
X2038363D02*
X2038590Y1211750D01*
X2038590D02*
Y1213312D01*
X2038590D02*
X2038363Y1214250D01*
X2038363D02*
X2038136Y1214875D01*
X2037681Y1215500*
X2037681D02*
X2037227Y1215812D01*
X2037227D02*
X2036318D01*
X2040636D02*
Y1209250D01*
Y1215812D02*
X2042454Y1209250D01*
X2044272Y1215812D02*
X2042454Y1209250D01*
X2044272Y1215812D02*
Y1209250D01*
X2046318Y1215812D02*
Y1209250D01*
Y1215812D02*
X2048363D01*
X2048363D02*
X2049045Y1215500D01*
X2049272Y1215187*
X2049272D02*
X2049500Y1214562D01*
X2049500D02*
Y1213625D01*
X2049272Y1213000*
X2049272D02*
X2049045Y1212687D01*
X2049045D02*
X2048363Y1212375D01*
X2048363D02*
X2046318D01*
X2052909Y1215812D02*
X2052454Y1215500D01*
X2052454D02*
X2052000Y1214875D01*
X2051772Y1214250*
X2051772D02*
X2051545Y1213312D01*
X2051545D02*
Y1211750D01*
X2051772Y1210812*
X2051772D02*
X2052000Y1210187D01*
X2052000D02*
X2052454Y1209562D01*
X2052454D02*
X2052909Y1209250D01*
X2053818*
X2054272Y1209562*
X2054272D02*
X2054727Y1210187D01*
X2054727D02*
X2054954Y1210812D01*
X2054954D02*
X2055181Y1211750D01*
X2055181D02*
Y1213312D01*
X2055181D02*
X2054954Y1214250D01*
X2054954D02*
X2054727Y1214875D01*
X2054272Y1215500*
X2054272D02*
X2053818Y1215812D01*
X2053818D02*
X2052909D01*
X2057227D02*
Y1209250D01*
Y1215812D02*
X2060409Y1209250D01*
Y1215812D02*
Y1209250D01*
X2062454Y1215812D02*
Y1209250D01*
Y1215812D02*
X2065409D01*
X2062454Y1212687D02*
X2064272D01*
X2062454Y1209250D02*
X2065409D01*
X2067454Y1215812D02*
Y1209250D01*
Y1215812D02*
X2070636Y1209250D01*
Y1215812D02*
Y1209250D01*
X2074272Y1215812D02*
Y1209250D01*
X2072681Y1215812D02*
X2075863D01*
X2085181Y1214875D02*
X2084727Y1215500D01*
X2084045Y1215812*
X2084045D02*
X2083136D01*
X2083136D02*
X2082454Y1215500D01*
X2082454D02*
X2082000Y1214875D01*
Y1214250*
X2082227Y1213625*
X2082454Y1213312*
X2082454D02*
X2082909Y1213000D01*
X2084272Y1212375*
X2084272D02*
X2084727Y1212062D01*
X2084727D02*
X2084954Y1211750D01*
X2084954D02*
X2085181Y1211125D01*
X2085181D02*
Y1210187D01*
X2085181D02*
X2084727Y1209562D01*
X2084727D02*
X2084045Y1209250D01*
X2083136*
X2082454Y1209562*
X2082454D02*
X2082000Y1210187D01*
X2087227Y1215812D02*
Y1209250D01*
X2089272Y1215812D02*
Y1209250D01*
Y1215812D02*
X2090863D01*
X2090863D02*
X2091545Y1215500D01*
X2092000Y1214875*
X2092227Y1214250*
X2092454Y1213312*
X2092454D02*
Y1211750D01*
X2092454D02*
X2092227Y1210812D01*
X2092227D02*
X2092000Y1210187D01*
X2092000D02*
X2091545Y1209562D01*
X2091545D02*
X2090863Y1209250D01*
X2090863D02*
X2089272D01*
X2094500Y1215812D02*
Y1209250D01*
Y1215812D02*
X2097454D01*
X2094500Y1212687D02*
X2096318D01*
X2094500Y1209250D02*
X2097454D01*
X2103590Y1215812D02*
Y1209250D01*
Y1215812D02*
X2105409Y1209250D01*
X2107227Y1215812D02*
X2105409Y1209250D01*
X2107227Y1215812D02*
Y1209250D01*
X2111090Y1215812D02*
X2109272Y1209250D01*
X2111090Y1215812D02*
X2112909Y1209250D01*
X2109954Y1211437D02*
X2112227D01*
X2118136Y1214875D02*
X2117681Y1215500D01*
X2117681D02*
X2117000Y1215812D01*
X2117000D02*
X2116090D01*
X2116090D02*
X2115409Y1215500D01*
X2114954Y1214875*
X2114954D02*
Y1214250D01*
X2114954D02*
X2115181Y1213625D01*
X2115181D02*
X2115409Y1213312D01*
X2115409D02*
X2115863Y1213000D01*
X2115863D02*
X2117227Y1212375D01*
X2117681Y1212062*
X2117681D02*
X2117909Y1211750D01*
X2118136Y1211125*
Y1210187*
X2118136D02*
X2117681Y1209562D01*
X2117681D02*
X2117000Y1209250D01*
X2116090*
X2116090D02*
X2115409Y1209562D01*
X2115409D02*
X2114954Y1210187D01*
X2120181Y1215812D02*
Y1209250D01*
X2123363Y1215812D02*
X2120181Y1211437D01*
X2121318Y1213000D02*
X2123363Y1209250D01*
G54D12*
X1801750Y1532150D02*
G75*
G03X1801750I-2750D01*
G01X1811750Y1531750D02*
G03X1811750I-2750D01*
G01X1861750Y1556250D02*
G03X1861750I-2750D01*
G01X1930250Y1471250D02*
G03X1930250I-2750D01*
G01X2130150Y1554850D02*
G03X2130150I-2750D01*
G01X1862650Y1859650D02*
G03X1862650I-2750D01*
G01X2143650Y1859350D02*
G03X2143650I-2750D01*
G01X1806750Y1531750D02*
G03X1806750I-2750D01*
G01X2133750Y1558250D02*
G03X2133750I-2750D01*
G01X1919250Y1471250D02*
G03X1919250I-2750D01*
G01X1924750D02*
G03X1924750I-2750D01*
G01X1867750Y1859750D02*
G03X1867750I-2750D01*
G01X1801750Y1532150D02*
G03X1801750I-2750D01*
G01X1811750Y1531750D02*
G03X1811750I-2750D01*
G01X1861750Y1556250D02*
G03X1861750I-2750D01*
G01X1930250Y1471250D02*
G03X1930250I-2750D01*
G01X2130150Y1554850D02*
G03X2130150I-2750D01*
G01X1862650Y1859650D02*
G03X1862650I-2750D01*
G01X2143650Y1859350D02*
G03X2143650I-2750D01*
G01X1806750Y1531750D02*
G03X1806750I-2750D01*
G01X2133750Y1558250D02*
G03X2133750I-2750D01*
G01X1919250Y1471250D02*
G03X1919250I-2750D01*
G01X1924750D02*
G03X1924750I-2750D01*
G01X1867750Y1859750D02*
G03X1867750I-2750D01*
G01X1796261Y1532398D02*
X1801738D01*
X1796354Y1531398D02*
X1801645D01*
X1796549Y1533398D02*
X1801450D01*
X1796879Y1530398D02*
X1801120D01*
X1797416Y1534398D02*
X1800583D01*
X1806261Y1531998D02*
X1811738D01*
X1806354Y1530998D02*
X1811645D01*
X1806549Y1532998D02*
X1811450D01*
X1806879Y1529998D02*
X1811120D01*
X1807416Y1533998D02*
X1810583D01*
X1856261Y1556498D02*
X1861738D01*
X1856354Y1555498D02*
X1861645D01*
X1856549Y1557498D02*
X1861450D01*
X1856879Y1554498D02*
X1861120D01*
X1857416Y1558498D02*
X1860583D01*
X1924761Y1471498D02*
X1930238D01*
X1924854Y1470498D02*
X1930145D01*
X1925049Y1472498D02*
X1929950D01*
X1925379Y1469498D02*
X1929620D01*
X1925916Y1473498D02*
X1929083D01*
X2124661Y1555098D02*
X2130138D01*
X2124754Y1554098D02*
X2130045D01*
X2124949Y1556098D02*
X2129850D01*
X2125279Y1553098D02*
X2129520D01*
X2125816Y1557098D02*
X2128983D01*
X1857161Y1859898D02*
X1862638D01*
X1857254Y1858898D02*
X1862545D01*
X1857449Y1860898D02*
X1862350D01*
X1857779Y1857898D02*
X1862020D01*
X1858316Y1861898D02*
X1861483D01*
X2138161Y1859598D02*
X2143638D01*
X2138254Y1858598D02*
X2143545D01*
X2138449Y1860598D02*
X2143350D01*
X2138779Y1857598D02*
X2143020D01*
X2139316Y1861598D02*
X2142483D01*
X1801261Y1531998D02*
X1806738D01*
X1801354Y1530998D02*
X1806645D01*
X1801549Y1532998D02*
X1806450D01*
X1801879Y1529998D02*
X1806120D01*
X1802416Y1533998D02*
X1805583D01*
X2128261Y1558498D02*
X2133738D01*
X2128354Y1557498D02*
X2133645D01*
X2128549Y1559498D02*
X2133450D01*
X2128879Y1556498D02*
X2133120D01*
X2129416Y1560498D02*
X2132583D01*
X1913761Y1471498D02*
X1919238D01*
X1913854Y1470498D02*
X1919145D01*
X1914049Y1472498D02*
X1918950D01*
X1914379Y1469498D02*
X1918620D01*
X1914916Y1473498D02*
X1918083D01*
X1919261Y1471498D02*
X1924738D01*
X1919354Y1470498D02*
X1924645D01*
X1919549Y1472498D02*
X1924450D01*
X1919879Y1469498D02*
X1924120D01*
X1920416Y1473498D02*
X1923583D01*
X1862261Y1859998D02*
X1867738D01*
X1862354Y1858998D02*
X1867645D01*
X1862549Y1860998D02*
X1867450D01*
X1862879Y1857998D02*
X1867120D01*
X1863416Y1861998D02*
X1866583D01*
X1801250Y1530568D02*
Y1533731D01*
X1800250Y1529700D02*
Y1534599D01*
X1799250Y1529411D02*
Y1534888D01*
X1798250Y1529504D02*
Y1534795D01*
X1797250Y1530028D02*
Y1534271D01*
X1811250Y1530168D02*
Y1533331D01*
X1810250Y1529300D02*
Y1534199D01*
X1809250Y1529011D02*
Y1534488D01*
X1808250Y1529104D02*
Y1534395D01*
X1807250Y1529628D02*
Y1533871D01*
X1861250Y1554668D02*
Y1557831D01*
X1860250Y1553800D02*
Y1558699D01*
X1859250Y1553511D02*
Y1558988D01*
X1858250Y1553604D02*
Y1558895D01*
X1857250Y1554128D02*
Y1558371D01*
X1929750Y1469668D02*
Y1472831D01*
X1928750Y1468800D02*
Y1473699D01*
X1927750Y1468511D02*
Y1473988D01*
X1926750Y1468604D02*
Y1473895D01*
X1925750Y1469128D02*
Y1473371D01*
X2129650Y1553268D02*
Y1556431D01*
X2128650Y1552400D02*
Y1557299D01*
X2127650Y1552111D02*
Y1557588D01*
X2126650Y1552204D02*
Y1557495D01*
X2125650Y1552728D02*
Y1556971D01*
X1862150Y1858068D02*
Y1861231D01*
X1861150Y1857200D02*
Y1862099D01*
X1860150Y1856911D02*
Y1862388D01*
X1859150Y1857004D02*
Y1862295D01*
X1858150Y1857528D02*
Y1861771D01*
X2143150Y1857768D02*
Y1860931D01*
X2142150Y1856900D02*
Y1861799D01*
X2141150Y1856611D02*
Y1862088D01*
X2140150Y1856704D02*
Y1861995D01*
X2139150Y1857228D02*
Y1861471D01*
X1806250Y1530168D02*
Y1533331D01*
X1805250Y1529300D02*
Y1534199D01*
X1804250Y1529011D02*
Y1534488D01*
X1803250Y1529104D02*
Y1534395D01*
X1802250Y1529628D02*
Y1533871D01*
X2133250Y1556668D02*
Y1559831D01*
X2132250Y1555800D02*
Y1560699D01*
X2131250Y1555511D02*
Y1560988D01*
X2130250Y1555604D02*
Y1560895D01*
X2129250Y1556128D02*
Y1560371D01*
X1918750Y1469668D02*
Y1472831D01*
X1917750Y1468800D02*
Y1473699D01*
X1916750Y1468511D02*
Y1473988D01*
X1915750Y1468604D02*
Y1473895D01*
X1914750Y1469128D02*
Y1473371D01*
X1924250Y1469668D02*
Y1472831D01*
X1923250Y1468800D02*
Y1473699D01*
X1922250Y1468511D02*
Y1473988D01*
X1921250Y1468604D02*
Y1473895D01*
X1920250Y1469128D02*
Y1473371D01*
X1867250Y1858168D02*
Y1861331D01*
X1866250Y1857300D02*
Y1862199D01*
X1865250Y1857011D02*
Y1862488D01*
X1864250Y1857104D02*
Y1862395D01*
X1863250Y1857628D02*
Y1861871D01*
G54D19*
X2053700Y1395750D03*
X2006300D03*
G54D24*
X1963650Y1492050D02*
Y1493050D01*
Y1501050D02*
Y1502050D01*
X1973400Y1492050D02*
Y1493050D01*
Y1501050D02*
Y1502050D01*
G54D61*
X2208400Y1678105D02*
X2202400D01*
X2208400Y1680075D02*
X2202400D01*
X2208400Y1682045D02*
X2202400D01*
X2208400Y1684015D02*
X2202400D01*
X2208400Y1685985D02*
X2202400D01*
X2208400Y1687955D02*
X2202400D01*
X2208400Y1689925D02*
X2202400D01*
X2208400Y1691895D02*
X2202400D01*
X2208400Y1693865D02*
X2202400D01*
X2208400Y1695835D02*
X2202400D01*
X2208400Y1697805D02*
X2202400D01*
X2208400Y1699775D02*
X2202400D01*
X2208400Y1701745D02*
X2202400D01*
X2208400Y1703715D02*
X2202400D01*
X2208400Y1705685D02*
X2202400D01*
X2208400Y1707655D02*
X2202400D01*
X2208400Y1709625D02*
X2202400D01*
X2208400Y1711595D02*
X2202400D01*
X2208400Y1713565D02*
X2202400D01*
X2208400Y1715535D02*
X2202400D01*
X2208400Y1717505D02*
X2202400D01*
X2208400Y1719475D02*
X2202400D01*
X2208400Y1721445D02*
X2202400D01*
X2208400Y1723415D02*
X2202400D01*
X2208400Y1725385D02*
X2202400D01*
X2208400Y1727355D02*
X2202400D01*
X2208400Y1729325D02*
X2202400D01*
X2208400Y1731295D02*
X2202400D01*
X2208400Y1733265D02*
X2202400D01*
X2208400Y1735235D02*
X2202400D01*
X2208400Y1737205D02*
X2202400D01*
X2208400Y1739175D02*
X2202400D01*
X2208400Y1741145D02*
X2202400D01*
X2208400Y1743115D02*
X2202400D01*
X2208400Y1745085D02*
X2202400D01*
X2208400Y1747055D02*
X2202400D01*
X2208400Y1749025D02*
X2202400D01*
X2208400Y1750995D02*
X2202400D01*
X2199525Y1760050D02*
Y1754050D01*
X2197555Y1760050D02*
Y1754050D01*
X2195585Y1760050D02*
Y1754050D01*
X2193615Y1760050D02*
Y1754050D01*
X2191645Y1760050D02*
Y1754050D01*
X2189675Y1760050D02*
Y1754050D01*
X2187705Y1760050D02*
Y1754050D01*
X2185735Y1760050D02*
Y1754050D01*
X2183765Y1760050D02*
Y1754050D01*
X2181795Y1760050D02*
Y1754050D01*
X2179825Y1760050D02*
Y1754050D01*
X2177855Y1760050D02*
Y1754050D01*
X2175885Y1760050D02*
Y1754050D01*
X2173915Y1760050D02*
Y1754050D01*
X2171945Y1760050D02*
Y1754050D01*
X2169975Y1760050D02*
Y1754050D01*
X2168005Y1760050D02*
Y1754050D01*
X2166035Y1760050D02*
Y1754050D01*
X2164065Y1760050D02*
Y1754050D01*
X2162095Y1760050D02*
Y1754050D01*
X2160125Y1760050D02*
Y1754050D01*
X2158155Y1760050D02*
Y1754050D01*
X2156185Y1760050D02*
Y1754050D01*
X2154215Y1760050D02*
Y1754050D01*
X2152245Y1760050D02*
Y1754050D01*
X2150275Y1760050D02*
Y1754050D01*
X2147400Y1750995D02*
X2141400D01*
X2147400Y1749025D02*
X2141400D01*
X2147400Y1747055D02*
X2141400D01*
X2147400Y1745085D02*
X2141400D01*
X2147400Y1743115D02*
X2141400D01*
X2147400Y1741145D02*
X2141400D01*
X2147400Y1739175D02*
X2141400D01*
X2147400Y1737205D02*
X2141400D01*
X2147400Y1735235D02*
X2141400D01*
X2147400Y1733265D02*
X2141400D01*
X2147400Y1731295D02*
X2141400D01*
X2147400Y1729325D02*
X2141400D01*
X2147400Y1727355D02*
X2141400D01*
X2147400Y1725385D02*
X2141400D01*
X2147400Y1723415D02*
X2141400D01*
X2147400Y1721445D02*
X2141400D01*
X2147400Y1719475D02*
X2141400D01*
X2147400Y1717505D02*
X2141400D01*
X2147400Y1715535D02*
X2141400D01*
X2147400Y1713565D02*
X2141400D01*
X2147400Y1711595D02*
X2141400D01*
X2147400Y1709625D02*
X2141400D01*
X2147400Y1707655D02*
X2141400D01*
X2147400Y1705685D02*
X2141400D01*
X2147400Y1703715D02*
X2141400D01*
X2147400Y1701745D02*
X2141400D01*
X2147400Y1699775D02*
X2141400D01*
X2147400Y1697805D02*
X2141400D01*
X2147400Y1695835D02*
X2141400D01*
X2147400Y1693865D02*
X2141400D01*
X2147400Y1691895D02*
X2141400D01*
X2147400Y1689925D02*
X2141400D01*
X2147400Y1687955D02*
X2141400D01*
X2147400Y1685985D02*
X2141400D01*
X2147400Y1684015D02*
X2141400D01*
X2147400Y1682045D02*
X2141400D01*
X2147400Y1680075D02*
X2141400D01*
X2147400Y1678105D02*
X2141400D01*
X2150275Y1675050D02*
Y1669050D01*
X2152245Y1675050D02*
Y1669050D01*
X2154215Y1675050D02*
Y1669050D01*
X2156185Y1675050D02*
Y1669050D01*
X2158155Y1675050D02*
Y1669050D01*
X2160125Y1675050D02*
Y1669050D01*
X2162095Y1675050D02*
Y1669050D01*
X2164065Y1675050D02*
Y1669050D01*
X2166035Y1675050D02*
Y1669050D01*
X2168005Y1675050D02*
Y1669050D01*
X2169975Y1675050D02*
Y1669050D01*
X2171945Y1675050D02*
Y1669050D01*
X2173915Y1675050D02*
Y1669050D01*
X2175885Y1675050D02*
Y1669050D01*
X2177855Y1675050D02*
Y1669050D01*
X2179825Y1675050D02*
Y1669050D01*
X2181795Y1675050D02*
Y1669050D01*
X2183765Y1675050D02*
Y1669050D01*
X2185735Y1675050D02*
Y1669050D01*
X2187705Y1675050D02*
Y1669050D01*
X2189675Y1675050D02*
Y1669050D01*
X2191645Y1675050D02*
Y1669050D01*
X2193615Y1675050D02*
Y1669050D01*
X2195585Y1675050D02*
Y1669050D01*
X2197555Y1675050D02*
Y1669050D01*
X2199525Y1675050D02*
Y1669050D01*
X1793500Y1745495D02*
X1799500D01*
X1793500Y1743525D02*
X1799500D01*
X1793500Y1741555D02*
X1799500D01*
X1793500Y1739585D02*
X1799500D01*
X1793500Y1737615D02*
X1799500D01*
X1793500Y1735645D02*
X1799500D01*
X1793500Y1733675D02*
X1799500D01*
X1793500Y1731705D02*
X1799500D01*
X1793500Y1729735D02*
X1799500D01*
X1793500Y1727765D02*
X1799500D01*
X1793500Y1725795D02*
X1799500D01*
X1793500Y1723825D02*
X1799500D01*
X1793500Y1721855D02*
X1799500D01*
X1793500Y1719885D02*
X1799500D01*
X1793500Y1717915D02*
X1799500D01*
X1793500Y1715945D02*
X1799500D01*
X1793500Y1713975D02*
X1799500D01*
X1793500Y1712005D02*
X1799500D01*
X1793500Y1710035D02*
X1799500D01*
X1793500Y1708065D02*
X1799500D01*
X1793500Y1706095D02*
X1799500D01*
X1793500Y1704125D02*
X1799500D01*
X1793500Y1702155D02*
X1799500D01*
X1793500Y1700185D02*
X1799500D01*
X1793500Y1698215D02*
X1799500D01*
X1793500Y1696245D02*
X1799500D01*
X1793500Y1694275D02*
X1799500D01*
X1793500Y1692305D02*
X1799500D01*
X1793500Y1690335D02*
X1799500D01*
X1793500Y1688365D02*
X1799500D01*
X1793500Y1686395D02*
X1799500D01*
X1793500Y1684425D02*
X1799500D01*
X1793500Y1682455D02*
X1799500D01*
X1793500Y1680485D02*
X1799500D01*
X1793500Y1678515D02*
X1799500D01*
X1793500Y1676545D02*
X1799500D01*
X1793500Y1674575D02*
X1799500D01*
X1793500Y1672605D02*
X1799500D01*
X1802375Y1663550D02*
Y1669550D01*
X1804345Y1663550D02*
Y1669550D01*
X1806315Y1663550D02*
Y1669550D01*
X1808285Y1663550D02*
Y1669550D01*
X1810255Y1663550D02*
Y1669550D01*
X1812225Y1663550D02*
Y1669550D01*
X1814195Y1663550D02*
Y1669550D01*
X1816165Y1663550D02*
Y1669550D01*
X1818135Y1663550D02*
Y1669550D01*
X1820105Y1663550D02*
Y1669550D01*
X1822075Y1663550D02*
Y1669550D01*
X1824045Y1663550D02*
Y1669550D01*
X1826015Y1663550D02*
Y1669550D01*
X1827985Y1663550D02*
Y1669550D01*
X1829955Y1663550D02*
Y1669550D01*
X1831925Y1663550D02*
Y1669550D01*
X1833895Y1663550D02*
Y1669550D01*
X1835865Y1663550D02*
Y1669550D01*
X1837835Y1663550D02*
Y1669550D01*
X1839805Y1663550D02*
Y1669550D01*
X1841775Y1663550D02*
Y1669550D01*
X1843745Y1663550D02*
Y1669550D01*
X1845715Y1663550D02*
Y1669550D01*
X1847685Y1663550D02*
Y1669550D01*
X1849655Y1663550D02*
Y1669550D01*
X1851625Y1663550D02*
Y1669550D01*
X1854500Y1672605D02*
X1860500D01*
X1854500Y1674575D02*
X1860500D01*
X1854500Y1676545D02*
X1860500D01*
X1854500Y1678515D02*
X1860500D01*
X1854500Y1680485D02*
X1860500D01*
X1854500Y1682455D02*
X1860500D01*
X1854500Y1684425D02*
X1860500D01*
X1854500Y1686395D02*
X1860500D01*
X1854500Y1688365D02*
X1860500D01*
X1854500Y1690335D02*
X1860500D01*
X1854500Y1692305D02*
X1860500D01*
X1854500Y1694275D02*
X1860500D01*
X1854500Y1696245D02*
X1860500D01*
X1854500Y1698215D02*
X1860500D01*
X1854500Y1700185D02*
X1860500D01*
X1854500Y1702155D02*
X1860500D01*
X1854500Y1704125D02*
X1860500D01*
X1854500Y1706095D02*
X1860500D01*
X1854500Y1708065D02*
X1860500D01*
X1854500Y1710035D02*
X1860500D01*
X1854500Y1712005D02*
X1860500D01*
X1854500Y1713975D02*
X1860500D01*
X1854500Y1715945D02*
X1860500D01*
X1854500Y1717915D02*
X1860500D01*
X1854500Y1719885D02*
X1860500D01*
X1854500Y1721855D02*
X1860500D01*
X1854500Y1723825D02*
X1860500D01*
X1854500Y1725795D02*
X1860500D01*
X1854500Y1727765D02*
X1860500D01*
X1854500Y1729735D02*
X1860500D01*
X1854500Y1731705D02*
X1860500D01*
X1854500Y1733675D02*
X1860500D01*
X1854500Y1735645D02*
X1860500D01*
X1854500Y1737615D02*
X1860500D01*
X1854500Y1739585D02*
X1860500D01*
X1854500Y1741555D02*
X1860500D01*
X1854500Y1743525D02*
X1860500D01*
X1854500Y1745495D02*
X1860500D01*
X1851625Y1748550D02*
Y1754550D01*
X1849655Y1748550D02*
Y1754550D01*
X1847685Y1748550D02*
Y1754550D01*
X1845715Y1748550D02*
Y1754550D01*
X1843745Y1748550D02*
Y1754550D01*
X1841775Y1748550D02*
Y1754550D01*
X1839805Y1748550D02*
Y1754550D01*
X1837835Y1748550D02*
Y1754550D01*
X1835865Y1748550D02*
Y1754550D01*
X1833895Y1748550D02*
Y1754550D01*
X1831925Y1748550D02*
Y1754550D01*
X1829955Y1748550D02*
Y1754550D01*
X1827985Y1748550D02*
Y1754550D01*
X1826015Y1748550D02*
Y1754550D01*
X1824045Y1748550D02*
Y1754550D01*
X1822075Y1748550D02*
Y1754550D01*
X1820105Y1748550D02*
Y1754550D01*
X1818135Y1748550D02*
Y1754550D01*
X1816165Y1748550D02*
Y1754550D01*
X1814195Y1748550D02*
Y1754550D01*
X1812225Y1748550D02*
Y1754550D01*
X1810255Y1748550D02*
Y1754550D01*
X1808285Y1748550D02*
Y1754550D01*
X1806315Y1748550D02*
Y1754550D01*
X1804345Y1748550D02*
Y1754550D01*
X1802375Y1748550D02*
Y1754550D01*
X1929500Y1768865D02*
X1936500D01*
X1929500Y1766895D02*
X1936500D01*
X1929500Y1764925D02*
X1936500D01*
X1929500Y1762955D02*
X1936500D01*
X1929500Y1760985D02*
X1936500D01*
X1929500Y1759015D02*
X1936500D01*
X1929500Y1757045D02*
X1936500D01*
X1929500Y1755075D02*
X1936500D01*
X1929500Y1753105D02*
X1936500D01*
X1929500Y1751135D02*
X1936500D01*
X1929500Y1749165D02*
X1936500D01*
X1929500Y1747195D02*
X1936500D01*
X1929500Y1745225D02*
X1936500D01*
X1929500Y1743255D02*
X1936500D01*
X1929500Y1741285D02*
X1936500D01*
X1929500Y1739315D02*
X1936500D01*
X1929500Y1737345D02*
X1936500D01*
X1929500Y1735375D02*
X1936500D01*
X1929500Y1733405D02*
X1936500D01*
X1929500Y1731435D02*
X1936500D01*
X1929500Y1729465D02*
X1936500D01*
X1929500Y1727495D02*
X1936500D01*
X1929500Y1725525D02*
X1936500D01*
X1929500Y1723555D02*
X1936500D01*
X1929500Y1721585D02*
X1936500D01*
X1929500Y1719615D02*
X1936500D01*
X1929500Y1717645D02*
X1936500D01*
X1929500Y1715675D02*
X1936500D01*
X1929500Y1713705D02*
X1936500D01*
X1929500Y1711735D02*
X1936500D01*
X1929500Y1709765D02*
X1936500D01*
X1929500Y1707795D02*
X1936500D01*
X1929500Y1705825D02*
X1936500D01*
X1929500Y1703855D02*
X1936500D01*
X1929500Y1701885D02*
X1936500D01*
X1929500Y1699915D02*
X1936500D01*
X1929500Y1697945D02*
X1936500D01*
X1929500Y1695975D02*
X1936500D01*
X1929500Y1694005D02*
X1936500D01*
X1929500Y1692035D02*
X1936500D01*
X1929500Y1690065D02*
X1936500D01*
X1929500Y1688095D02*
X1936500D01*
X1929500Y1686125D02*
X1936500D01*
X1929500Y1684155D02*
X1936500D01*
X1929500Y1682185D02*
X1936500D01*
X1929500Y1680215D02*
X1936500D01*
X1929500Y1678245D02*
X1936500D01*
X1929500Y1676275D02*
X1936500D01*
X1929500Y1674305D02*
X1936500D01*
X1929500Y1672335D02*
X1936500D01*
X1929500Y1670365D02*
X1936500D01*
X1929500Y1668395D02*
X1936500D01*
X1929500Y1666425D02*
X1936500D01*
X1929500Y1664455D02*
X1936500D01*
X1929500Y1662485D02*
X1936500D01*
X1929500Y1660515D02*
X1936500D01*
X1929500Y1658545D02*
X1936500D01*
X1929500Y1656575D02*
X1936500D01*
X1929500Y1654605D02*
X1936500D01*
X1929500Y1652635D02*
X1936500D01*
X1940885Y1641250D02*
Y1648250D01*
X1942855Y1641250D02*
Y1648250D01*
X1944825Y1641250D02*
Y1648250D01*
X1946795Y1641250D02*
Y1648250D01*
X1948765Y1641250D02*
Y1648250D01*
X1950735Y1641250D02*
Y1648250D01*
X1952705Y1641250D02*
Y1648250D01*
X1954675Y1641250D02*
Y1648250D01*
X1956645Y1641250D02*
Y1648250D01*
X1958615Y1641250D02*
Y1648250D01*
X1960585Y1641250D02*
Y1648250D01*
X1962555Y1641250D02*
Y1648250D01*
X1964525Y1641250D02*
Y1648250D01*
X1966495Y1641250D02*
Y1648250D01*
X1968465Y1641250D02*
Y1648250D01*
X1970435Y1641250D02*
Y1648250D01*
X1972405Y1641250D02*
Y1648250D01*
X1974375Y1641250D02*
Y1648250D01*
X1976345Y1641250D02*
Y1648250D01*
X1978315Y1641250D02*
Y1648250D01*
X1980285Y1641250D02*
Y1648250D01*
X1982255Y1641250D02*
Y1648250D01*
X1984225Y1641250D02*
Y1648250D01*
X1986195Y1641250D02*
Y1648250D01*
X1988165Y1641250D02*
Y1648250D01*
X1990135Y1641250D02*
Y1648250D01*
X1992105Y1641250D02*
Y1648250D01*
X1994075Y1641250D02*
Y1648250D01*
X1996045Y1641250D02*
Y1648250D01*
X1998015Y1641250D02*
Y1648250D01*
X1999985Y1641250D02*
Y1648250D01*
X2001955Y1641250D02*
Y1648250D01*
X2003925Y1641250D02*
Y1648250D01*
X2005895Y1641250D02*
Y1648250D01*
X2007865Y1641250D02*
Y1648250D01*
X2009835Y1641250D02*
Y1648250D01*
X2011805Y1641250D02*
Y1648250D01*
X2013775Y1641250D02*
Y1648250D01*
X2015745Y1641250D02*
Y1648250D01*
X2017715Y1641250D02*
Y1648250D01*
X2019685Y1641250D02*
Y1648250D01*
X2021655Y1641250D02*
Y1648250D01*
X2023625Y1641250D02*
Y1648250D01*
X2025595Y1641250D02*
Y1648250D01*
X2027565Y1641250D02*
Y1648250D01*
X2029535Y1641250D02*
Y1648250D01*
X2031505Y1641250D02*
Y1648250D01*
X2033475Y1641250D02*
Y1648250D01*
X2035445Y1641250D02*
Y1648250D01*
X2037415Y1641250D02*
Y1648250D01*
X2039385Y1641250D02*
Y1648250D01*
X2041355Y1641250D02*
Y1648250D01*
X2043325Y1641250D02*
Y1648250D01*
X2045295Y1641250D02*
Y1648250D01*
X2047265Y1641250D02*
Y1648250D01*
X2049235Y1641250D02*
Y1648250D01*
X2051205Y1641250D02*
Y1648250D01*
X2053175Y1641250D02*
Y1648250D01*
X2055145Y1641250D02*
Y1648250D01*
X2057115Y1641250D02*
Y1648250D01*
X2061500Y1652635D02*
X2068500D01*
X2061500Y1654605D02*
X2068500D01*
X2061500Y1656575D02*
X2068500D01*
X2061500Y1658545D02*
X2068500D01*
X2061500Y1660515D02*
X2068500D01*
X2061500Y1662485D02*
X2068500D01*
X2061500Y1664455D02*
X2068500D01*
X2061500Y1666425D02*
X2068500D01*
X2061500Y1668395D02*
X2068500D01*
X2061500Y1670365D02*
X2068500D01*
X2061500Y1672335D02*
X2068500D01*
X2061500Y1674305D02*
X2068500D01*
X2061500Y1676275D02*
X2068500D01*
X2061500Y1678245D02*
X2068500D01*
X2061500Y1680215D02*
X2068500D01*
X2061500Y1682185D02*
X2068500D01*
X2061500Y1684155D02*
X2068500D01*
X2061500Y1686125D02*
X2068500D01*
X2061500Y1688095D02*
X2068500D01*
X2061500Y1690065D02*
X2068500D01*
X2061500Y1692035D02*
X2068500D01*
X2061500Y1694005D02*
X2068500D01*
X2061500Y1695975D02*
X2068500D01*
X2061500Y1697945D02*
X2068500D01*
X2061500Y1699915D02*
X2068500D01*
X2061500Y1701885D02*
X2068500D01*
X2061500Y1703855D02*
X2068500D01*
X2061500Y1705825D02*
X2068500D01*
X2061500Y1707795D02*
X2068500D01*
X2061500Y1709765D02*
X2068500D01*
X2061500Y1711735D02*
X2068500D01*
X2061500Y1713705D02*
X2068500D01*
X2061500Y1715675D02*
X2068500D01*
X2061500Y1717645D02*
X2068500D01*
X2061500Y1719615D02*
X2068500D01*
X2061500Y1721585D02*
X2068500D01*
X2061500Y1723555D02*
X2068500D01*
X2061500Y1725525D02*
X2068500D01*
X2061500Y1727495D02*
X2068500D01*
X2061500Y1729465D02*
X2068500D01*
X2061500Y1731435D02*
X2068500D01*
X2061500Y1733405D02*
X2068500D01*
X2061500Y1735375D02*
X2068500D01*
X2061500Y1737345D02*
X2068500D01*
X2061500Y1739315D02*
X2068500D01*
X2061500Y1741285D02*
X2068500D01*
X2061500Y1743255D02*
X2068500D01*
X2061500Y1745225D02*
X2068500D01*
X2061500Y1747195D02*
X2068500D01*
X2061500Y1749165D02*
X2068500D01*
X2061500Y1751135D02*
X2068500D01*
X2061500Y1753105D02*
X2068500D01*
X2061500Y1755075D02*
X2068500D01*
X2061500Y1757045D02*
X2068500D01*
X2061500Y1759015D02*
X2068500D01*
X2061500Y1760985D02*
X2068500D01*
X2061500Y1762955D02*
X2068500D01*
X2061500Y1764925D02*
X2068500D01*
X2061500Y1766895D02*
X2068500D01*
X2061500Y1768865D02*
X2068500D01*
X2057115Y1773250D02*
Y1780250D01*
X2055145Y1773250D02*
Y1780250D01*
X2053175Y1773250D02*
Y1780250D01*
X2051205Y1773250D02*
Y1780250D01*
X2049235Y1773250D02*
Y1780250D01*
X2047265Y1773250D02*
Y1780250D01*
X2045295Y1773250D02*
Y1780250D01*
X2043325Y1773250D02*
Y1780250D01*
X2041355Y1773250D02*
Y1780250D01*
X2039385Y1773250D02*
Y1780250D01*
X2037415Y1773250D02*
Y1780250D01*
X2035445Y1773250D02*
Y1780250D01*
X2033475Y1773250D02*
Y1780250D01*
X2031505Y1773250D02*
Y1780250D01*
X2029535Y1773250D02*
Y1780250D01*
X2027565Y1773250D02*
Y1780250D01*
X2025595Y1773250D02*
Y1780250D01*
X2023625Y1773250D02*
Y1780250D01*
X2021655Y1773250D02*
Y1780250D01*
X2019685Y1773250D02*
Y1780250D01*
X2017715Y1773250D02*
Y1780250D01*
X2015745Y1773250D02*
Y1780250D01*
X2013775Y1773250D02*
Y1780250D01*
X2011805Y1773250D02*
Y1780250D01*
X2009835Y1773250D02*
Y1780250D01*
X2007865Y1773250D02*
Y1780250D01*
X2005895Y1773250D02*
Y1780250D01*
X2003925Y1773250D02*
Y1780250D01*
X2001955Y1773250D02*
Y1780250D01*
X1999985Y1773250D02*
Y1780250D01*
X1998015Y1773250D02*
Y1780250D01*
X1996045Y1773250D02*
Y1780250D01*
X1994075Y1773250D02*
Y1780250D01*
X1992105Y1773250D02*
Y1780250D01*
X1990135Y1773250D02*
Y1780250D01*
X1988165Y1773250D02*
Y1780250D01*
X1986195Y1773250D02*
Y1780250D01*
X1984225Y1773250D02*
Y1780250D01*
X1982255Y1773250D02*
Y1780250D01*
X1980285Y1773250D02*
Y1780250D01*
X1978315Y1773250D02*
Y1780250D01*
X1976345Y1773250D02*
Y1780250D01*
X1974375Y1773250D02*
Y1780250D01*
X1972405Y1773250D02*
Y1780250D01*
X1970435Y1773250D02*
Y1780250D01*
X1968465Y1773250D02*
Y1780250D01*
X1966495Y1773250D02*
Y1780250D01*
X1964525Y1773250D02*
Y1780250D01*
X1962555Y1773250D02*
Y1780250D01*
X1960585Y1773250D02*
Y1780250D01*
X1958615Y1773250D02*
Y1780250D01*
X1956645Y1773250D02*
Y1780250D01*
X1954675Y1773250D02*
Y1780250D01*
X1952705Y1773250D02*
Y1780250D01*
X1950735Y1773250D02*
Y1780250D01*
X1948765Y1773250D02*
Y1780250D01*
X1946795Y1773250D02*
Y1780250D01*
X1944825Y1773250D02*
Y1780250D01*
X1942855Y1773250D02*
Y1780250D01*
X1940885Y1773250D02*
Y1780250D01*
G54D71*
X1700000Y1975750D03*
X1945000D03*
X1700000Y1755750D03*
X1905000Y1795750D03*
X2095000D03*
X2055000Y1975750D03*
X2300000D03*
Y1755750D03*
X1700000Y1445750D03*
Y1665750D03*
X1945000Y1445750D03*
X1905000Y1625750D03*
X2300000Y1665750D03*
Y1445750D03*
X2055000D03*
X2095000Y1625750D03*
G54D75*
X1987250Y1535000D02*
X1988050D01*
X1993450D02*
X1994250D01*
X1964750Y1535500D02*
X1963950D01*
X1958550D02*
X1957750D01*
X1988000Y1810750D02*
X1988800D01*
X1994200D02*
X1995000D01*
X1981500D02*
X1980700D01*
X1975300D02*
X1974500D01*
X2114500Y1664750D02*
X2113700D01*
X2108300D02*
X2107500D01*
X2012000Y1539750D02*
Y1538950D01*
Y1533550D02*
Y1532750D01*
X2042500Y1540250D02*
Y1539450D01*
Y1534050D02*
Y1533250D01*
X2148000Y1560250D02*
Y1559450D01*
Y1554050D02*
Y1553250D01*
X2052500Y1561750D02*
Y1560950D01*
Y1555550D02*
Y1554750D01*
X2011500Y1790750D02*
X2012300D01*
X2017700D02*
X2018500D01*
X2001000D02*
X2000200D01*
X1994800D02*
X1994000D01*
X2146000Y1863250D02*
X2146800D01*
X2152200D02*
X2153000D01*
X2138500Y1865250D02*
X2137700D01*
X2132300D02*
X2131500D01*
X2176000Y1560250D02*
X2175200D01*
X2169800D02*
X2169000D01*
X1847500Y1865250D02*
X1846700D01*
X1841300D02*
X1840500D01*
X1855500D02*
X1856300D01*
X1861700D02*
X1862500D01*
X1825500D02*
X1826300D01*
X1831700D02*
X1832500D01*
X1871500Y1561250D02*
X1870700D01*
X1865300D02*
X1864500D01*
X1853000Y1560750D02*
X1852200D01*
X1846800D02*
X1846000D01*
X2199000Y1556750D02*
X2199800D01*
X2205200D02*
X2206000D01*
X2217500Y1595750D02*
X2218300D01*
X2223700D02*
X2224500D01*
X2217500Y1602250D02*
X2218300D01*
X2223700D02*
X2224500D01*
X2219500Y1818750D02*
X2218700D01*
X2213300D02*
X2212500D01*
X2219500Y1824750D02*
X2218700D01*
X2213300D02*
X2212500D01*
X2213000Y1862750D02*
X2212200D01*
X2206800D02*
X2206000D01*
X2220000D02*
X2220800D01*
X2226200D02*
X2227000D01*
X1784500Y1597750D02*
X1783700D01*
X1778300D02*
X1777500D01*
X1776000Y1618750D02*
Y1617950D01*
Y1612550D02*
Y1611750D01*
X1778000Y1561750D02*
X1778800D01*
X1784200D02*
X1785000D01*
X1776500Y1627750D02*
Y1628550D01*
Y1633950D02*
Y1634750D01*
X1781000Y1826750D02*
X1781800D01*
X1787200D02*
X1788000D01*
X1780500Y1860750D02*
X1781300D01*
X1786700D02*
X1787500D01*
X2222000Y1715250D02*
X2221200D01*
X2215800D02*
X2215000D01*
X1800000Y1763750D02*
X1800800D01*
X1806200D02*
X1807000D01*
X1822500Y1764250D02*
X1821700D01*
X1816300D02*
X1815500D01*
X1871000Y1752750D02*
Y1751950D01*
Y1746550D02*
Y1745750D01*
X2202000Y1662250D02*
X2201200D01*
X2195800D02*
X2195000D01*
X2202000Y1658250D02*
X2201200D01*
X2195800D02*
X2195000D01*
X2144000Y1660750D02*
X2143200D01*
X2137800D02*
X2137000D01*
X1782500Y1710750D02*
X1781700D01*
X1776300D02*
X1775500D01*
X1940000Y1471250D02*
X1939200D01*
X1933800D02*
X1933000D01*
X2023000Y1629750D02*
X2022200D01*
X2016800D02*
X2016000D01*
X2011000Y1623250D02*
X2011800D01*
X2017200D02*
X2018000D01*
X2005000D02*
X2004200D01*
X1998800D02*
X1998000D01*
X2119000Y1541250D02*
X2119800D01*
X2125200D02*
X2126000D01*
X2118500Y1547750D02*
X2119300D01*
X2124700D02*
X2125500D01*
X1982500Y1492750D02*
Y1491950D01*
Y1486550D02*
Y1485750D01*
X1954000Y1492750D02*
Y1491950D01*
Y1486550D02*
Y1485750D01*
X2119000Y1532750D02*
X2119800D01*
X2125200D02*
X2126000D01*
X2077000Y1704250D02*
X2077800D01*
X2083200D02*
X2084000D01*
X2077000Y1721750D02*
X2077800D01*
X2083200D02*
X2084000D01*
X2077000Y1698250D02*
X2077800D01*
X2083200D02*
X2084000D01*
X1982000Y1851750D02*
Y1852550D01*
Y1857950D02*
Y1858750D01*
X1775500Y1705250D02*
X1776300D01*
X1781700D02*
X1782500D01*
X2084000Y1709750D02*
X2083200D01*
X2077800D02*
X2077000D01*
X2141000Y1559250D02*
Y1558450D01*
Y1553050D02*
Y1552250D01*
X1785000Y1739250D02*
Y1740050D01*
Y1745450D02*
Y1746250D01*
X1779500D02*
Y1745450D01*
Y1740050D02*
Y1739250D01*
X2221000Y1687250D02*
Y1686450D01*
Y1681050D02*
Y1680250D01*
X2227000D02*
Y1681050D01*
Y1686450D02*
Y1687250D01*
X2084000Y1715750D02*
X2083200D01*
X2077800D02*
X2077000D01*
X1816000Y1547250D02*
Y1548050D01*
Y1553450D02*
Y1554250D01*
X1833000Y1547750D02*
Y1548550D01*
Y1553950D02*
Y1554750D01*
X1990500Y1858250D02*
X1991300D01*
X1996700D02*
X1997500D01*
X2114500Y1658250D02*
X2113700D01*
X2108300D02*
X2107500D01*
X1825500Y1547250D02*
Y1548050D01*
Y1553450D02*
Y1554250D01*
X1990500Y1851750D02*
X1991300D01*
X1996700D02*
X1997500D01*
X2124500Y1661250D02*
X2125300D01*
X2130700D02*
X2131500D01*
X2078500Y1517250D02*
Y1516450D01*
Y1511050D02*
Y1510250D01*
X2023400Y1538650D02*
Y1537850D01*
Y1532450D02*
Y1531650D01*
X1925000Y1882750D02*
X1925800D01*
X1931200D02*
X1932000D01*
X1896000Y1891250D02*
X1895200D01*
X1889800D02*
X1889000D01*
X1912000D02*
X1911200D01*
X1905800D02*
X1905000D01*
X2052900Y1517450D02*
Y1516650D01*
Y1511250D02*
Y1510450D01*
X2045400Y1517450D02*
Y1516650D01*
Y1511250D02*
Y1510450D01*
X1833300Y1909950D02*
Y1909150D01*
Y1903750D02*
Y1902950D01*
X1885500Y1900250D02*
Y1901050D01*
Y1906450D02*
Y1907250D01*
X1924000Y1897750D02*
Y1896950D01*
Y1891550D02*
Y1890750D01*
X1931500Y1897750D02*
Y1896950D01*
Y1891550D02*
Y1890750D01*
X1913200Y1921950D02*
X1912400D01*
X1907000D02*
X1906200D01*
X1913200Y1928450D02*
X1912400D01*
X1907000D02*
X1906200D01*
X1913200Y1915950D02*
X1912400D01*
X1907000D02*
X1906200D01*
X1913200Y1908750D02*
X1912400D01*
X1907000D02*
X1906200D01*
X1937500Y1897250D02*
Y1896450D01*
Y1891050D02*
Y1890250D01*
X1953000Y1910750D02*
X1953800D01*
X1959200D02*
X1960000D01*
X1953000Y1919750D02*
X1953800D01*
X1959200D02*
X1960000D01*
X1969800Y1915750D02*
X1970600D01*
X1976000D02*
X1976800D01*
X1940000Y1883250D02*
Y1882450D01*
Y1877050D02*
Y1876250D01*
X1977100Y1954550D02*
X1976300D01*
X1970900D02*
X1970100D01*
X1964000Y1898750D02*
X1963200D01*
X1957800D02*
X1957000D01*
X1879000Y1868250D02*
Y1869050D01*
Y1874450D02*
Y1875250D01*
Y1883750D02*
Y1884550D01*
Y1889950D02*
Y1890750D01*
X1879500Y1900250D02*
Y1901050D01*
Y1906450D02*
Y1907250D01*
Y1915250D02*
Y1916050D01*
Y1921450D02*
Y1922250D01*
G54D76*
X1816500Y1771843D02*
Y1771056D01*
X1805500Y1771843D02*
Y1771056D01*
X2148500Y1653643D02*
Y1652856D01*
X2137500Y1653643D02*
Y1652856D01*
X1773000Y1747643D02*
Y1746856D01*
X1762000Y1747643D02*
Y1746856D01*
X1773000Y1735143D02*
Y1734356D01*
X1762000Y1735143D02*
Y1734356D01*
X2233500Y1680356D02*
Y1681143D01*
X2244500Y1680356D02*
Y1681143D01*
X2233500Y1689356D02*
Y1690143D01*
X2244500Y1689356D02*
Y1690143D01*
X1999100Y1802543D02*
Y1801756D01*
X1988100Y1802543D02*
Y1801756D01*
X2116400Y1672756D02*
Y1673543D01*
X2127400Y1672756D02*
Y1673543D01*
X1841306Y1909550D02*
X1842093D01*
X1841306Y1898550D02*
X1842093D01*
X1889106Y1926750D02*
X1889893D01*
X1889106Y1915750D02*
X1889893D01*
X1912000Y1900143D02*
Y1899356D01*
X1901000Y1900143D02*
Y1899356D01*
X2071500Y1517643D02*
Y1516856D01*
X2060500Y1517643D02*
Y1516856D01*
G54D77*
X1788500Y1530750D02*
Y1533750D01*
Y1506750D02*
Y1509750D01*
X1858500Y1514000D02*
Y1511000D01*
Y1538000D02*
Y1535000D01*
X2014500Y1831250D02*
Y1828250D01*
Y1855250D02*
Y1852250D01*
X2261000Y1636750D02*
Y1633750D01*
Y1660750D02*
Y1657750D01*
X1729500Y1616750D02*
Y1613750D01*
Y1640750D02*
Y1637750D01*
X2033900Y1515450D02*
Y1518450D01*
Y1491450D02*
Y1494450D01*
G54D78*
X2035000Y1414250D03*
G54D79*
X2025000D03*
Y1406250D03*
X2035000D03*
G54D80*
X2135000Y1566950D02*
Y1573750D01*
Y1581713D02*
Y1588513D01*
X2138937Y1566950D02*
Y1573750D01*
Y1581713D02*
Y1588513D01*
X2142874Y1566950D02*
Y1573750D01*
Y1581713D02*
Y1588513D01*
X2146811Y1566950D02*
Y1573750D01*
Y1581713D02*
Y1588513D01*
X2150748Y1566950D02*
Y1573750D01*
Y1581713D02*
Y1588513D01*
X2154685Y1566950D02*
Y1573750D01*
Y1581713D02*
Y1588513D01*
X2158622Y1566950D02*
Y1573750D01*
Y1581713D02*
Y1588513D01*
X2162559Y1566950D02*
Y1573750D01*
Y1581713D02*
Y1588513D01*
X2166496Y1566950D02*
Y1573750D01*
Y1581713D02*
Y1588513D01*
X2170433Y1566950D02*
Y1573750D01*
Y1581713D02*
Y1588513D01*
X2174370Y1566950D02*
Y1573750D01*
Y1581713D02*
Y1588513D01*
X2178307Y1566950D02*
Y1573750D01*
Y1581713D02*
Y1588513D01*
X2182244Y1566950D02*
Y1573750D01*
Y1581713D02*
Y1588513D01*
X2186181Y1566950D02*
Y1573750D01*
Y1581713D02*
Y1588513D01*
X2190118Y1566950D02*
Y1573750D01*
Y1581713D02*
Y1588513D01*
X2194055Y1566950D02*
Y1573750D01*
Y1581713D02*
Y1588513D01*
X2197992Y1566950D02*
Y1573750D01*
Y1581713D02*
Y1588513D01*
X2201929Y1566950D02*
Y1573750D01*
Y1581713D02*
Y1588513D01*
X2205866Y1566950D02*
Y1573750D01*
Y1581713D02*
Y1588513D01*
X2209803Y1566950D02*
Y1573750D01*
Y1581713D02*
Y1588513D01*
X2213740Y1566950D02*
Y1573750D01*
Y1581713D02*
Y1588513D01*
X2217677Y1566950D02*
Y1573750D01*
Y1581713D02*
Y1588513D01*
X2221614Y1566950D02*
Y1573750D01*
Y1581713D02*
Y1588513D01*
X2225551Y1566950D02*
Y1573750D01*
Y1581713D02*
Y1588513D01*
X2229488Y1566950D02*
Y1573750D01*
Y1581713D02*
Y1588513D01*
X2233425Y1566950D02*
Y1573750D01*
Y1581713D02*
Y1588513D01*
X2237362Y1566950D02*
Y1573750D01*
Y1581713D02*
Y1588513D01*
X2241299Y1566950D02*
Y1573750D01*
Y1581713D02*
Y1588513D01*
X2245236Y1566950D02*
Y1573750D01*
Y1581713D02*
Y1588513D01*
X2249173Y1566950D02*
Y1573750D01*
Y1581713D02*
Y1588513D01*
X2253110Y1566950D02*
Y1573750D01*
Y1581713D02*
Y1588513D01*
X2257047Y1566950D02*
Y1573750D01*
Y1581713D02*
Y1588513D01*
X2135000Y1832950D02*
Y1839750D01*
Y1847713D02*
Y1854513D01*
X2138937Y1832950D02*
Y1839750D01*
Y1847713D02*
Y1854513D01*
X2142874Y1832950D02*
Y1839750D01*
Y1847713D02*
Y1854513D01*
X2146811Y1832950D02*
Y1839750D01*
Y1847713D02*
Y1854513D01*
X2150748Y1832950D02*
Y1839750D01*
Y1847713D02*
Y1854513D01*
X2154685Y1832950D02*
Y1839750D01*
Y1847713D02*
Y1854513D01*
X2158622Y1832950D02*
Y1839750D01*
Y1847713D02*
Y1854513D01*
X2162559Y1832950D02*
Y1839750D01*
Y1847713D02*
Y1854513D01*
X2166496Y1832950D02*
Y1839750D01*
Y1847713D02*
Y1854513D01*
X2170433Y1832950D02*
Y1839750D01*
Y1847713D02*
Y1854513D01*
X2174370Y1832950D02*
Y1839750D01*
Y1847713D02*
Y1854513D01*
X2178307Y1832950D02*
Y1839750D01*
Y1847713D02*
Y1854513D01*
X2182244Y1832950D02*
Y1839750D01*
Y1847713D02*
Y1854513D01*
X2186181Y1832950D02*
Y1839750D01*
Y1847713D02*
Y1854513D01*
X2190118Y1832950D02*
Y1839750D01*
Y1847713D02*
Y1854513D01*
X2194055Y1832950D02*
Y1839750D01*
Y1847713D02*
Y1854513D01*
X2197992Y1832950D02*
Y1839750D01*
Y1847713D02*
Y1854513D01*
X2201929Y1832950D02*
Y1839750D01*
Y1847713D02*
Y1854513D01*
X2205866Y1832950D02*
Y1839750D01*
Y1847713D02*
Y1854513D01*
X2209803Y1832950D02*
Y1839750D01*
Y1847713D02*
Y1854513D01*
X2213740Y1832950D02*
Y1839750D01*
Y1847713D02*
Y1854513D01*
X2217677Y1832950D02*
Y1839750D01*
Y1847713D02*
Y1854513D01*
X2221614Y1832950D02*
Y1839750D01*
Y1847713D02*
Y1854513D01*
X2225551Y1832950D02*
Y1839750D01*
Y1847713D02*
Y1854513D01*
X2229488Y1832950D02*
Y1839750D01*
Y1847713D02*
Y1854513D01*
X2233425Y1832950D02*
Y1839750D01*
Y1847713D02*
Y1854513D01*
X2237362Y1832950D02*
Y1839750D01*
Y1847713D02*
Y1854513D01*
X2241299Y1832950D02*
Y1839750D01*
Y1847713D02*
Y1854513D01*
X2245236Y1832950D02*
Y1839750D01*
Y1847713D02*
Y1854513D01*
X2249173Y1832950D02*
Y1839750D01*
Y1847713D02*
Y1854513D01*
X2253110Y1832950D02*
Y1839750D01*
Y1847713D02*
Y1854513D01*
X2257047Y1832950D02*
Y1839750D01*
Y1847713D02*
Y1854513D01*
X1865000Y1854550D02*
Y1847750D01*
Y1839786D02*
Y1832986D01*
X1861062Y1854550D02*
Y1847750D01*
Y1839786D02*
Y1832986D01*
X1857125Y1854550D02*
Y1847750D01*
Y1839786D02*
Y1832986D01*
X1853188Y1854550D02*
Y1847750D01*
Y1839786D02*
Y1832986D01*
X1849251Y1854550D02*
Y1847750D01*
Y1839786D02*
Y1832986D01*
X1845314Y1854550D02*
Y1847750D01*
Y1839786D02*
Y1832986D01*
X1841377Y1854550D02*
Y1847750D01*
Y1839786D02*
Y1832986D01*
X1837440Y1854550D02*
Y1847750D01*
Y1839786D02*
Y1832986D01*
X1833503Y1854550D02*
Y1847750D01*
Y1839786D02*
Y1832986D01*
X1829566Y1854550D02*
Y1847750D01*
Y1839786D02*
Y1832986D01*
X1825629Y1854550D02*
Y1847750D01*
Y1839786D02*
Y1832986D01*
X1821692Y1854550D02*
Y1847750D01*
Y1839786D02*
Y1832986D01*
X1817755Y1854550D02*
Y1847750D01*
Y1839786D02*
Y1832986D01*
X1813818Y1854550D02*
Y1847750D01*
Y1839786D02*
Y1832986D01*
X1809881Y1854550D02*
Y1847750D01*
Y1839786D02*
Y1832986D01*
X1805944Y1854550D02*
Y1847750D01*
Y1839786D02*
Y1832986D01*
X1802007Y1854550D02*
Y1847750D01*
Y1839786D02*
Y1832986D01*
X1798070Y1854550D02*
Y1847750D01*
Y1839786D02*
Y1832986D01*
X1794133Y1854550D02*
Y1847750D01*
Y1839786D02*
Y1832986D01*
X1790196Y1854550D02*
Y1847750D01*
Y1839786D02*
Y1832986D01*
X1786259Y1854550D02*
Y1847750D01*
Y1839786D02*
Y1832986D01*
X1782322Y1854550D02*
Y1847750D01*
Y1839786D02*
Y1832986D01*
X1778385Y1854550D02*
Y1847750D01*
Y1839786D02*
Y1832986D01*
X1774448Y1854550D02*
Y1847750D01*
Y1839786D02*
Y1832986D01*
X1770511Y1854550D02*
Y1847750D01*
Y1839786D02*
Y1832986D01*
X1766574Y1854550D02*
Y1847750D01*
Y1839786D02*
Y1832986D01*
X1762637Y1854550D02*
Y1847750D01*
Y1839786D02*
Y1832986D01*
X1758700Y1854550D02*
Y1847750D01*
Y1839786D02*
Y1832986D01*
X1754763Y1854550D02*
Y1847750D01*
Y1839786D02*
Y1832986D01*
X1750826Y1854550D02*
Y1847750D01*
Y1839786D02*
Y1832986D01*
X1746889Y1854550D02*
Y1847750D01*
Y1839786D02*
Y1832986D01*
X1742952Y1854550D02*
Y1847750D01*
Y1839786D02*
Y1832986D01*
X1865000Y1589550D02*
Y1582750D01*
Y1574786D02*
Y1567986D01*
X1861062Y1589550D02*
Y1582750D01*
Y1574786D02*
Y1567986D01*
X1857125Y1589550D02*
Y1582750D01*
Y1574786D02*
Y1567986D01*
X1853188Y1589550D02*
Y1582750D01*
Y1574786D02*
Y1567986D01*
X1849251Y1589550D02*
Y1582750D01*
Y1574786D02*
Y1567986D01*
X1845314Y1589550D02*
Y1582750D01*
Y1574786D02*
Y1567986D01*
X1841377Y1589550D02*
Y1582750D01*
Y1574786D02*
Y1567986D01*
X1837440Y1589550D02*
Y1582750D01*
Y1574786D02*
Y1567986D01*
X1833503Y1589550D02*
Y1582750D01*
Y1574786D02*
Y1567986D01*
X1829566Y1589550D02*
Y1582750D01*
Y1574786D02*
Y1567986D01*
X1825629Y1589550D02*
Y1582750D01*
Y1574786D02*
Y1567986D01*
X1821692Y1589550D02*
Y1582750D01*
Y1574786D02*
Y1567986D01*
X1817755Y1589550D02*
Y1582750D01*
Y1574786D02*
Y1567986D01*
X1813818Y1589550D02*
Y1582750D01*
Y1574786D02*
Y1567986D01*
X1809881Y1589550D02*
Y1582750D01*
Y1574786D02*
Y1567986D01*
X1805944Y1589550D02*
Y1582750D01*
Y1574786D02*
Y1567986D01*
X1802007Y1589550D02*
Y1582750D01*
Y1574786D02*
Y1567986D01*
X1798070Y1589550D02*
Y1582750D01*
Y1574786D02*
Y1567986D01*
X1794133Y1589550D02*
Y1582750D01*
Y1574786D02*
Y1567986D01*
X1790196Y1589550D02*
Y1582750D01*
Y1574786D02*
Y1567986D01*
X1786259Y1589550D02*
Y1582750D01*
Y1574786D02*
Y1567986D01*
X1782322Y1589550D02*
Y1582750D01*
Y1574786D02*
Y1567986D01*
X1778385Y1589550D02*
Y1582750D01*
Y1574786D02*
Y1567986D01*
X1774448Y1589550D02*
Y1582750D01*
Y1574786D02*
Y1567986D01*
X1770511Y1589550D02*
Y1582750D01*
Y1574786D02*
Y1567986D01*
X1766574Y1589550D02*
Y1582750D01*
Y1574786D02*
Y1567986D01*
X1762637Y1589550D02*
Y1582750D01*
Y1574786D02*
Y1567986D01*
X1758700Y1589550D02*
Y1582750D01*
Y1574786D02*
Y1567986D01*
X1754763Y1589550D02*
Y1582750D01*
Y1574786D02*
Y1567986D01*
X1750826Y1589550D02*
Y1582750D01*
Y1574786D02*
Y1567986D01*
X1746889Y1589550D02*
Y1582750D01*
Y1574786D02*
Y1567986D01*
X1742952Y1589550D02*
Y1582750D01*
Y1574786D02*
Y1567986D01*
G54D81*
X2128307Y1577731D03*
X2263740D03*
X2128307Y1843731D03*
X2263740D03*
X1871692Y1843768D03*
X1736259D03*
X1871692Y1578768D03*
X1736259D03*
G54D82*
X1962880Y1547250D02*
Y1552950D01*
X1965440Y1547250D02*
Y1552950D01*
X1968000Y1547250D02*
Y1552950D01*
X1970560Y1547250D02*
Y1552950D01*
X1973120Y1547250D02*
Y1552950D01*
X1975680Y1547250D02*
Y1552950D01*
X1978240Y1547250D02*
Y1552950D01*
X1980800Y1547250D02*
Y1552950D01*
X1983360Y1547250D02*
Y1552950D01*
X1985920Y1547250D02*
Y1552950D01*
X1988480Y1547250D02*
Y1552950D01*
X1991040Y1547250D02*
Y1552950D01*
X1993600Y1547250D02*
Y1552950D01*
X1996160Y1547250D02*
Y1552950D01*
X1998720Y1547250D02*
Y1552950D01*
X2001280Y1547250D02*
Y1552950D01*
X2003840Y1547250D02*
Y1552950D01*
X2006400Y1547250D02*
Y1552950D01*
X2008960Y1547250D02*
Y1552950D01*
X2011520Y1547250D02*
Y1552950D01*
X2014080Y1547250D02*
Y1552950D01*
X2016640Y1547250D02*
Y1552950D01*
X2019200Y1547250D02*
Y1552950D01*
X2021760Y1547250D02*
Y1552950D01*
X2024320Y1547250D02*
Y1552950D01*
X2026880Y1547250D02*
Y1552950D01*
X2029440Y1547250D02*
Y1552950D01*
X2032000Y1547250D02*
Y1552950D01*
X2034560Y1547250D02*
Y1552950D01*
X2037120Y1547250D02*
Y1552950D01*
X2045350Y1556430D02*
X2039650D01*
X2045350Y1558990D02*
X2039650D01*
X2045350Y1561550D02*
X2039650D01*
X2045350Y1564110D02*
X2039650D01*
X2045350Y1566670D02*
X2039650D01*
X2045350Y1569230D02*
X2039650D01*
X2045350Y1571790D02*
X2039650D01*
X2045350Y1574350D02*
X2039650D01*
X2045350Y1576910D02*
X2039650D01*
X2045350Y1579470D02*
X2039650D01*
X2045350Y1582030D02*
X2039650D01*
X2045350Y1584590D02*
X2039650D01*
X2045350Y1587150D02*
X2039650D01*
X2045350Y1589710D02*
X2039650D01*
X2045350Y1592270D02*
X2039650D01*
X2045350Y1594830D02*
X2039650D01*
X2045350Y1597390D02*
X2039650D01*
X2045350Y1599950D02*
X2039650D01*
X2045350Y1602510D02*
X2039650D01*
X2045350Y1605070D02*
X2039650D01*
X2037120Y1608550D02*
Y1614250D01*
X2034560Y1608550D02*
Y1614250D01*
X2032000Y1608550D02*
Y1614250D01*
X2029440Y1608550D02*
Y1614250D01*
X2026880Y1608550D02*
Y1614250D01*
X2024320Y1608550D02*
Y1614250D01*
X2021760Y1608550D02*
Y1614250D01*
X2019200Y1608550D02*
Y1614250D01*
X2016640Y1608550D02*
Y1614250D01*
X2014080Y1608550D02*
Y1614250D01*
X2011520Y1608550D02*
Y1614250D01*
X2008960Y1608550D02*
Y1614250D01*
X2006400Y1608550D02*
Y1614250D01*
X2003840Y1608550D02*
Y1614250D01*
X2001280Y1608550D02*
Y1614250D01*
X1998720Y1608550D02*
Y1614250D01*
X1996160Y1608550D02*
Y1614250D01*
X1993600Y1608550D02*
Y1614250D01*
X1991040Y1608550D02*
Y1614250D01*
X1988480Y1608550D02*
Y1614250D01*
X1985920Y1608550D02*
Y1614250D01*
X1983360Y1608550D02*
Y1614250D01*
X1980800Y1608550D02*
Y1614250D01*
X1978240Y1608550D02*
Y1614250D01*
X1975680Y1608550D02*
Y1614250D01*
X1973120Y1608550D02*
Y1614250D01*
X1970560Y1608550D02*
Y1614250D01*
X1968000Y1608550D02*
Y1614250D01*
X1965440Y1608550D02*
Y1614250D01*
X1962880Y1608550D02*
Y1614250D01*
X1960350Y1605070D02*
X1954650D01*
X1960350Y1602510D02*
X1954650D01*
X1960350Y1599950D02*
X1954650D01*
X1960350Y1597390D02*
X1954650D01*
X1960350Y1594830D02*
X1954650D01*
X1960350Y1592270D02*
X1954650D01*
X1960350Y1589710D02*
X1954650D01*
X1960350Y1587150D02*
X1954650D01*
X1960350Y1584590D02*
X1954650D01*
X1960350Y1582030D02*
X1954650D01*
X1960350Y1579470D02*
X1954650D01*
X1960350Y1576910D02*
X1954650D01*
X1960350Y1574350D02*
X1954650D01*
X1960350Y1571790D02*
X1954650D01*
X1960350Y1569230D02*
X1954650D01*
X1960350Y1566670D02*
X1954650D01*
X1960350Y1564110D02*
X1954650D01*
X1960350Y1561550D02*
X1954650D01*
X1960350Y1558990D02*
X1954650D01*
X1960350Y1556430D02*
X1954650D01*
X1975750Y1818650D02*
Y1823850D01*
X1978250Y1818650D02*
Y1823850D01*
X1980750Y1818650D02*
Y1823850D01*
X1983250Y1818650D02*
Y1823850D01*
X1985750Y1818650D02*
Y1823850D01*
X1988250Y1818650D02*
Y1823850D01*
X1990750Y1818650D02*
Y1823850D01*
X1993250Y1818650D02*
Y1823850D01*
X1995750Y1818650D02*
Y1823850D01*
X1998250Y1818650D02*
Y1823850D01*
Y1839650D02*
Y1844850D01*
X1995750Y1839650D02*
Y1844850D01*
X1993250Y1839650D02*
Y1844850D01*
X1990750Y1839650D02*
Y1844850D01*
X1988250Y1839650D02*
Y1844850D01*
X1985750Y1839650D02*
Y1844850D01*
X1983250Y1839650D02*
Y1844850D01*
X1980750Y1839650D02*
Y1844850D01*
X1978250Y1839650D02*
Y1844850D01*
X1975750Y1839650D02*
Y1844850D01*
G54D83*
X2165949Y1527750D02*
X2159650D01*
X2165949Y1532750D02*
X2159650D01*
X2165949Y1537750D02*
X2159650D01*
X2165949Y1542750D02*
X2159650D01*
X2146349D02*
X2140050D01*
X2146349Y1537750D02*
X2140050D01*
X2146349Y1532750D02*
X2140050D01*
X2146349Y1527750D02*
X2140050D01*
G54D84*
X1987000Y1831750D03*
G54D85*
X1836000Y1534750D02*
Y1529250D01*
X1826000Y1534750D02*
Y1529250D01*
X1816000Y1534750D02*
Y1529250D01*
G54D86*
X1826000Y1499250D03*
G54D87*
X1995000Y1520500D02*
X1981000D01*
X1958000D02*
X1944000D01*
G54D88*
X1894000Y1866050D02*
Y1866850D01*
X1914000Y1866050D02*
Y1866850D01*
Y1882650D02*
Y1883450D01*
X1894000Y1882650D02*
Y1883450D01*
G54D89*
X1771000Y1365750D03*
G54D90*
X1781000D03*
X1791000D03*
X1801000D03*
G54D91*
X1963000Y1410250D03*
G54D92*
Y1385750D03*
X1982000Y1398250D03*
G54D93*
X2007500Y1959750D03*
X2008000Y1910750D03*
G54D94*
X1997500Y1949750D03*
X2017500D03*
Y1969750D03*
X1997500D03*
X1998000Y1900750D03*
X2018000D03*
Y1920750D03*
X1998000D03*
G54D95*
X1872149Y1906911D02*
X1869748D01*
X1872149Y1909470D02*
X1869748D01*
X1872149Y1912029D02*
X1869748D01*
X1872149Y1914588D02*
X1869748D01*
X1853251D02*
X1850850D01*
X1853251Y1912029D02*
X1850850D01*
X1853251Y1909470D02*
X1850850D01*
X1853251Y1906911D02*
X1850850D01*
G54D96*
X1945187Y1911860D02*
X1943710D01*
X1945187Y1913828D02*
X1943710D01*
X1945187Y1915797D02*
X1943710D01*
X1945187Y1917765D02*
X1943710D01*
X1945187Y1919734D02*
X1943710D01*
X1945187Y1921702D02*
X1943710D01*
X1945187Y1923671D02*
X1943710D01*
X1945187Y1925639D02*
X1943710D01*
X1941889Y1928937D02*
Y1927460D01*
X1939921Y1928937D02*
Y1927460D01*
X1937952Y1928937D02*
Y1927460D01*
X1935984Y1928937D02*
Y1927460D01*
X1934015Y1928937D02*
Y1927460D01*
X1932047Y1928937D02*
Y1927460D01*
X1930078Y1928937D02*
Y1927460D01*
X1928110Y1928937D02*
Y1927460D01*
X1926289Y1925639D02*
X1924812D01*
X1926289Y1923671D02*
X1924812D01*
X1926289Y1921702D02*
X1924812D01*
X1926289Y1919734D02*
X1924812D01*
X1926289Y1917765D02*
X1924812D01*
X1926289Y1915797D02*
X1924812D01*
X1926289Y1913828D02*
X1924812D01*
X1926289Y1911860D02*
X1924812D01*
X1928110Y1910039D02*
Y1908562D01*
X1930078Y1910039D02*
Y1908562D01*
X1932047Y1910039D02*
Y1908562D01*
X1934015Y1910039D02*
Y1908562D01*
X1935984Y1910039D02*
Y1908562D01*
X1937952Y1910039D02*
Y1908562D01*
X1939921Y1910039D02*
Y1908562D01*
X1941889Y1910039D02*
Y1908562D01*
G54D97*
X1935000Y1918750D03*
G74*
X0Y0D02*
M02*
