*
*
G04 PowerPCB (Build Number 501.037) generated Gerber (RS-274-X) file*
G04 PC Version=2.1*
*
%IN "USRP_REV 4.1.pcb"*%
*
%MOIN*%
*
%FSLAX35Y35*%
*
*
*
*
G04 PC Standard Apertures*
*
*
G04 Thermal Relief Aperture macro.*
%AMTER*
1,1,$1,0,0*
1,0,$1-$2,0,0*
21,0,$3,$4,0,0,45*
21,0,$3,$4,0,0,135*
%
*
*
G04 Annular Aperture macro.*
%AMANN*
1,1,$1,0,0*
1,0,$2,0,0*
%
*
*
G04 Odd Aperture macro.*
%AMODD*
1,1,$1,0,0*
1,0,$1-0.005,0,0*
%
*
*
G04 PC Custom Aperture Macros*
*
*
*
*
*
*
G04 PC Aperture Table*
*
%ADD010C,0.01*%
%ADD020R,0.038X0.03*%
%ADD021R,0.03X0.038*%
%ADD022R,0.06299X0.07087*%
%ADD066R,0.02756X0.03543*%
*
*
*
*
G04 PC Custom Flashes*
G04 Layer Name USRP_REV 4.1.pcb - flashes*
%LPD*%
*
*
G04 PC Circuitry*
G04 Layer Name USRP_REV 4.1.pcb - circuitry*
%LPD*%
*
G54D10*
G01X1685000Y1355750D02*
Y1990750D01*
X2315000*
Y1355750*
X1685000*
X2029500Y1215812D02*
Y1209250D01*
Y1215812D02*
X2031545D01*
X2031545D02*
X2032227Y1215500D01*
X2032454Y1215187*
X2032454D02*
X2032681Y1214562D01*
X2032681D02*
Y1213625D01*
X2032681D02*
X2032454Y1213000D01*
X2032454D02*
X2032227Y1212687D01*
X2032227D02*
X2031545Y1212375D01*
X2029500*
X2036545Y1215812D02*
X2034727Y1209250D01*
X2036545Y1215812D02*
X2038363Y1209250D01*
X2035409Y1211437D02*
X2037681D01*
X2043590Y1214875D02*
X2043136Y1215500D01*
X2042454Y1215812*
X2042454D02*
X2041545D01*
X2041545D02*
X2040863Y1215500D01*
X2040863D02*
X2040409Y1214875D01*
Y1214250*
X2040636Y1213625*
X2040863Y1213312*
X2040863D02*
X2041318Y1213000D01*
X2042681Y1212375*
X2042681D02*
X2043136Y1212062D01*
X2043136D02*
X2043363Y1211750D01*
X2043363D02*
X2043590Y1211125D01*
X2043590D02*
Y1210187D01*
X2043590D02*
X2043136Y1209562D01*
X2043136D02*
X2042454Y1209250D01*
X2042454D02*
X2041545D01*
X2040863Y1209562*
X2040863D02*
X2040409Y1210187D01*
X2047227Y1215812D02*
Y1209250D01*
X2045636Y1215812D02*
X2048818D01*
X2050863D02*
Y1209250D01*
Y1215812D02*
X2053818D01*
X2050863Y1212687D02*
X2052681D01*
X2050863Y1209250D02*
X2053818D01*
X2059954Y1215812D02*
Y1209250D01*
Y1215812D02*
X2061772Y1209250D01*
X2063590Y1215812D02*
X2061772Y1209250D01*
X2063590Y1215812D02*
Y1209250D01*
X2067454Y1215812D02*
X2065636Y1209250D01*
X2067454Y1215812D02*
X2069272Y1209250D01*
X2066318Y1211437D02*
X2068590D01*
X2074500Y1214875D02*
X2074045Y1215500D01*
X2073363Y1215812*
X2073363D02*
X2072454D01*
X2072454D02*
X2071772Y1215500D01*
X2071772D02*
X2071318Y1214875D01*
Y1214250*
X2071545Y1213625*
X2071772Y1213312*
X2071772D02*
X2072227Y1213000D01*
X2073590Y1212375*
X2073590D02*
X2074045Y1212062D01*
X2074045D02*
X2074272Y1211750D01*
X2074272D02*
X2074500Y1211125D01*
Y1210187*
X2074500D02*
X2074045Y1209562D01*
X2074045D02*
X2073363Y1209250D01*
X2073363D02*
X2072454D01*
X2072454D02*
X2071772Y1209562D01*
X2071772D02*
X2071318Y1210187D01*
X2076545Y1215812D02*
Y1209250D01*
X2079727Y1215812D02*
X2076545Y1211437D01*
X2077681Y1213000D02*
X2079727Y1209250D01*
X2085863Y1215812D02*
Y1209250D01*
Y1215812D02*
X2087909D01*
X2087909D02*
X2088590Y1215500D01*
X2088590D02*
X2088818Y1215187D01*
X2088818D02*
X2089045Y1214562D01*
X2089045D02*
Y1213937D01*
X2089045D02*
X2088818Y1213312D01*
X2088818D02*
X2088590Y1213000D01*
X2088590D02*
X2087909Y1212687D01*
X2085863D02*
X2087909D01*
X2087909D02*
X2088590Y1212375D01*
X2088590D02*
X2088818Y1212062D01*
X2088818D02*
X2089045Y1211437D01*
X2089045D02*
Y1210500D01*
X2088818Y1209875*
X2088590Y1209562*
X2088590D02*
X2087909Y1209250D01*
X2085863*
X2092454Y1215812D02*
X2092000Y1215500D01*
X2091545Y1214875*
X2091318Y1214250*
X2091090Y1213312*
X2091090D02*
Y1211750D01*
X2091090D02*
X2091318Y1210812D01*
X2091318D02*
X2091545Y1210187D01*
X2091545D02*
X2092000Y1209562D01*
X2092000D02*
X2092454Y1209250D01*
X2092454D02*
X2093363D01*
X2093363D02*
X2093818Y1209562D01*
X2093818D02*
X2094272Y1210187D01*
X2094272D02*
X2094500Y1210812D01*
X2094500D02*
X2094727Y1211750D01*
Y1213312*
X2094727D02*
X2094500Y1214250D01*
X2094272Y1214875*
X2094272D02*
X2093818Y1215500D01*
X2093363Y1215812*
X2093363D02*
X2092454D01*
X2098363D02*
Y1209250D01*
X2096772Y1215812D02*
X2099954D01*
X2103590D02*
Y1209250D01*
X2102000Y1215812D02*
X2105181D01*
X2108590D02*
X2108136Y1215500D01*
X2107681Y1214875*
X2107681D02*
X2107454Y1214250D01*
X2107454D02*
X2107227Y1213312D01*
X2107227D02*
Y1211750D01*
X2107454Y1210812*
X2107454D02*
X2107681Y1210187D01*
X2107681D02*
X2108136Y1209562D01*
X2108136D02*
X2108590Y1209250D01*
X2108590D02*
X2109500D01*
X2109954Y1209562*
X2109954D02*
X2110409Y1210187D01*
X2110409D02*
X2110636Y1210812D01*
X2110636D02*
X2110863Y1211750D01*
X2110863D02*
Y1213312D01*
X2110863D02*
X2110636Y1214250D01*
X2110409Y1214875*
X2109954Y1215500*
X2109954D02*
X2109500Y1215812D01*
X2109500D02*
X2108590D01*
X2112909D02*
Y1209250D01*
Y1215812D02*
X2114727Y1209250D01*
X2116545Y1215812D02*
X2114727Y1209250D01*
X2116545Y1215812D02*
Y1209250D01*
G54D20*
X1976900Y1621750D03*
X1983100D03*
X2032600Y1610250D03*
X2026400D03*
X1999400Y1610750D03*
X2005600D03*
X1969400Y1614250D03*
X1975600D03*
X1964400Y1548750D03*
X1970600D03*
X2034100Y1550750D03*
X2027900D03*
X2174100Y1731750D03*
X2167900D03*
X2150600Y1756750D03*
X2144400D03*
X2158400D03*
X2164600D03*
X2198600Y1756250D03*
X2192400D03*
X2002400Y1776750D03*
X2008600D03*
X1954900D03*
X1961100D03*
X1959100Y1645250D03*
X1952900D03*
X2003600Y1644750D03*
X1997400D03*
X2042100Y1644250D03*
X2035900D03*
X2043100Y1776250D03*
X2036900D03*
X2003400Y1769750D03*
X2009600D03*
X1949900Y1764750D03*
X1956100D03*
X1959100Y1651250D03*
X1952900D03*
X2003600D03*
X1997400D03*
X2042600Y1650750D03*
X2036400D03*
X2036900Y1783250D03*
X2043100D03*
X1964400Y1764750D03*
X1970600D03*
X1980400D03*
X1986600D03*
X1951900Y1659250D03*
X1958100D03*
X1983100Y1644750D03*
X1976900D03*
X1997400Y1638750D03*
X2003600D03*
X2013211Y1646797D03*
X2019411D03*
X2036400Y1658750D03*
X2042600D03*
X2018575Y1640206D03*
X2012375D03*
X1981600Y1776250D03*
X1975400D03*
X1966900Y1661750D03*
X1973100D03*
X2182900Y1736750D03*
X2189100D03*
X2174100Y1737250D03*
X2167900D03*
X2174100Y1726250D03*
X2167900D03*
X2174100Y1720250D03*
X2167900D03*
X2174100Y1712750D03*
X2167900D03*
X2143900Y1701750D03*
X2150100D03*
X2144400Y1695750D03*
X2150600D03*
X2182900Y1731750D03*
X2189100D03*
X2171400Y1756750D03*
X2177600D03*
X1854900Y1729250D03*
X1861100D03*
X1829100Y1667250D03*
X1822900D03*
X1800100Y1675750D03*
X1793900D03*
X1800100Y1681250D03*
X1793900D03*
X2182100Y1672750D03*
X2175900D03*
X2142900Y1683750D03*
X2149100D03*
X2142900Y1689750D03*
X2149100D03*
X2193100Y1724750D03*
X2186900D03*
X1839600Y1742250D03*
X1833400D03*
X1801100Y1731750D03*
X1794900D03*
X1801100Y1700750D03*
X1794900D03*
X1800600Y1708750D03*
X1794400D03*
X1801100Y1714250D03*
X1794900D03*
X1801100Y1725750D03*
X1794900D03*
X1801100Y1740750D03*
X1794900D03*
X1782600Y1776250D03*
X1776400D03*
X2165400Y1685750D03*
X2171600D03*
X1969600Y1621750D03*
X1963400D03*
X2186900Y1719250D03*
X2193100D03*
X1833850Y1698000D03*
X1827650D03*
Y1691750D03*
X1833850D03*
X2186900Y1708250D03*
X2193100D03*
Y1713750D03*
X2186900D03*
X1875900Y1729750D03*
X1882100D03*
X2173600Y1705250D03*
X2167400D03*
X2182900Y1703250D03*
X2189100D03*
X1856600Y1667250D03*
X1850400D03*
X1842600D03*
X1836400D03*
X2132100Y1682750D03*
X2125900D03*
X1778900Y1573750D03*
X1785100D03*
X2158300Y1767950D03*
X2164500D03*
X2160300Y1741550D03*
X2154100D03*
X1837900Y1654550D03*
X1844100D03*
G54D21*
X1977750Y1540600D03*
Y1534400D03*
X1971500Y1540350D03*
Y1534150D03*
X2042500Y1597650D03*
Y1603850D03*
X1957000Y1596150D03*
Y1602350D03*
X2042500Y1571150D03*
Y1577350D03*
X1933500Y1753850D03*
Y1747650D03*
Y1728850D03*
Y1722650D03*
Y1704350D03*
Y1698150D03*
Y1672350D03*
Y1666150D03*
X2067000Y1673350D03*
Y1667150D03*
X2066000Y1722350D03*
Y1716150D03*
X2066500Y1752850D03*
Y1746650D03*
X2022000Y1773650D03*
Y1779850D03*
X1939500Y1723150D03*
Y1729350D03*
X2054000Y1718650D03*
Y1724850D03*
X2206000Y1753350D03*
Y1747150D03*
X2144500Y1750350D03*
Y1744150D03*
X1857500Y1675650D03*
Y1681850D03*
X1841500Y1691150D03*
Y1697350D03*
X1848500Y1691150D03*
Y1697350D03*
X1856000Y1718350D03*
Y1712150D03*
X2195000Y1684850D03*
Y1678650D03*
X2156500Y1669650D03*
Y1675850D03*
X2151000Y1669650D03*
Y1675850D03*
X2194000Y1692150D03*
Y1698350D03*
X2206000Y1739850D03*
Y1733650D03*
X2205500Y1719650D03*
Y1725850D03*
X2206000Y1694350D03*
Y1688150D03*
Y1702650D03*
Y1708850D03*
X1847500Y1749150D03*
Y1755350D03*
X1822500Y1750150D03*
Y1756350D03*
X1854000Y1749150D03*
Y1755350D03*
X1797000Y1687650D03*
Y1693850D03*
X1840500Y1749650D03*
Y1755850D03*
X1937400Y1891250D03*
Y1897450D03*
X1943500Y1891150D03*
Y1897350D03*
X1931400Y1891250D03*
Y1897450D03*
X1869500Y1729850D03*
Y1723650D03*
X1812000Y1749650D03*
Y1755850D03*
X2086000Y1516850D03*
Y1510650D03*
X1844000Y1682250D03*
Y1676050D03*
X1951400Y1891250D03*
Y1897450D03*
G54D22*
X1787000Y1767250D03*
X1776000D03*
X2165500Y1692750D03*
X2176500D03*
X1949000Y1537250D03*
X1960000D03*
X2116500Y1673150D03*
X2127500D03*
X1841000Y1708750D03*
X1830000D03*
X1840750Y1719000D03*
X1829750D03*
G54D66*
X1818500Y1952850D03*
Y1947650D03*
X1823000Y1952850D03*
Y1947650D03*
X1814000Y1952850D03*
Y1947650D03*
X1833500Y1952850D03*
Y1947650D03*
X1838000Y1952850D03*
Y1947650D03*
X1829000Y1952850D03*
Y1947650D03*
X1849000Y1952850D03*
Y1947650D03*
X1853500Y1952850D03*
Y1947650D03*
X1844000Y1952850D03*
Y1947650D03*
X1864000Y1952850D03*
Y1947650D03*
X1869000Y1952850D03*
Y1947650D03*
X1859500Y1952850D03*
Y1947650D03*
X1879500Y1952850D03*
Y1947650D03*
X1884000Y1952850D03*
Y1947650D03*
X1874500Y1952850D03*
Y1947650D03*
X1895000Y1952850D03*
Y1947650D03*
X1899500Y1952850D03*
Y1947650D03*
X1890000Y1952850D03*
Y1947650D03*
X1910000Y1952850D03*
Y1947650D03*
X1914500Y1952850D03*
Y1947650D03*
X1905500Y1952850D03*
Y1947650D03*
X1925000Y1952850D03*
Y1947650D03*
X1929600Y1952850D03*
Y1947650D03*
X1920500Y1952850D03*
Y1947650D03*
X1940500Y1952850D03*
Y1947650D03*
X1945000Y1952850D03*
Y1947650D03*
X1935500Y1952850D03*
Y1947650D03*
X1956000Y1952850D03*
Y1947650D03*
X1961000Y1952850D03*
Y1947650D03*
X1951000Y1952850D03*
Y1947650D03*
X1973100Y1952850D03*
Y1947650D03*
X1977600Y1952850D03*
Y1947650D03*
X1968600Y1952850D03*
Y1947650D03*
X0Y0D02*
M02*
