*
*
G04 PowerPCB (Build Number 501.037) generated Gerber (RS-274-X) file*
G04 PC Version=2.1*
*
%IN "USRP_REV 4.1.pcb"*%
*
%MOIN*%
*
%FSLAX35Y35*%
*
*
*
*
G04 PC Standard Apertures*
*
*
G04 Thermal Relief Aperture macro.*
%AMTER*
1,1,$1,0,0*
1,0,$1-$2,0,0*
21,0,$3,$4,0,0,45*
21,0,$3,$4,0,0,135*
%
*
*
G04 Annular Aperture macro.*
%AMANN*
1,1,$1,0,0*
1,0,$2,0,0*
%
*
*
G04 Odd Aperture macro.*
%AMODD*
1,1,$1,0,0*
1,0,$1-0.005,0,0*
%
*
*
G04 PC Custom Aperture Macros*
*
*
*
*
*
*
G04 PC Aperture Table*
*
%ADD010C,0.01*%
%ADD012C,0.005*%
%ADD019C,0.125*%
%ADD026C,0.115*%
%ADD031C,0.055*%
%ADD044C,0.058*%
%ADD045C,0.16*%
%ADD046C,0.14*%
%ADD047C,0.093*%
%ADD048C,0.098*%
%ADD054C,0.08*%
%ADD059C,0.05*%
%ADD062C,0.009*%
%ADD063C,0.024*%
%ADD064C,0.036*%
*
*
*
*
G04 PC Custom Flashes*
G04 Layer Name USRP_REV 4.1.pcb - flashes*
%LPD*%
*
*
G04 PC Circuitry*
G04 Layer Name USRP_REV 4.1.pcb - circuitry*
%LPD*%
*
G54D10*
G01X1685000Y1355750D02*
Y1990750D01*
X2315000*
Y1355750*
X1685000*
X2029500Y1215812D02*
Y1209250D01*
X2032681Y1215812D02*
Y1209250D01*
X2029500Y1212687D02*
X2032681D01*
X2034727Y1215812D02*
Y1209250D01*
X2040181Y1214250D02*
X2039954Y1214875D01*
X2039954D02*
X2039500Y1215500D01*
X2039045Y1215812*
X2039045D02*
X2038136D01*
X2038136D02*
X2037681Y1215500D01*
X2037681D02*
X2037227Y1214875D01*
X2037000Y1214250*
X2036772Y1213312*
X2036772D02*
Y1211750D01*
X2036772D02*
X2037000Y1210812D01*
X2037000D02*
X2037227Y1210187D01*
X2037227D02*
X2037681Y1209562D01*
X2037681D02*
X2038136Y1209250D01*
X2039045*
X2039500Y1209562*
X2039500D02*
X2039954Y1210187D01*
X2039954D02*
X2040181Y1210812D01*
X2040181D02*
Y1211750D01*
X2039045D02*
X2040181D01*
X2042227Y1215812D02*
Y1209250D01*
X2045409Y1215812D02*
Y1209250D01*
X2042227Y1212687D02*
X2045409D01*
X2054727Y1214875D02*
X2054272Y1215500D01*
X2054272D02*
X2053590Y1215812D01*
X2053590D02*
X2052681D01*
X2052681D02*
X2052000Y1215500D01*
X2051545Y1214875*
Y1214250*
X2051772Y1213625*
X2051772D02*
X2052000Y1213312D01*
X2052000D02*
X2052454Y1213000D01*
X2052454D02*
X2053818Y1212375D01*
X2054272Y1212062*
X2054272D02*
X2054500Y1211750D01*
X2054727Y1211125*
Y1210187*
X2054727D02*
X2054272Y1209562D01*
X2054272D02*
X2053590Y1209250D01*
X2053590D02*
X2052681D01*
X2052681D02*
X2052000Y1209562D01*
X2052000D02*
X2051545Y1210187D01*
X2056772Y1215812D02*
Y1209250D01*
Y1215812D02*
X2058818D01*
X2058818D02*
X2059500Y1215500D01*
X2059727Y1215187*
X2059727D02*
X2059954Y1214562D01*
X2059954D02*
Y1213625D01*
X2059954D02*
X2059727Y1213000D01*
X2059500Y1212687*
X2059500D02*
X2058818Y1212375D01*
X2056772*
X2062000Y1215812D02*
Y1209250D01*
Y1215812D02*
X2064954D01*
X2062000Y1212687D02*
X2063818D01*
X2062000Y1209250D02*
X2064954D01*
X2067000Y1215812D02*
Y1209250D01*
Y1215812D02*
X2069954D01*
X2067000Y1212687D02*
X2068818D01*
X2067000Y1209250D02*
X2069954D01*
X2072000Y1215812D02*
Y1209250D01*
Y1215812D02*
X2073590D01*
X2073590D02*
X2074272Y1215500D01*
X2074272D02*
X2074727Y1214875D01*
X2074954Y1214250*
X2074954D02*
X2075181Y1213312D01*
X2075181D02*
Y1211750D01*
X2075181D02*
X2074954Y1210812D01*
X2074954D02*
X2074727Y1210187D01*
X2074727D02*
X2074272Y1209562D01*
X2074272D02*
X2073590Y1209250D01*
X2073590D02*
X2072000D01*
X2084500Y1214875D02*
X2084045Y1215500D01*
X2083363Y1215812*
X2083363D02*
X2082454D01*
X2082454D02*
X2081772Y1215500D01*
X2081772D02*
X2081318Y1214875D01*
Y1214250*
X2081545Y1213625*
X2081772Y1213312*
X2081772D02*
X2082227Y1213000D01*
X2083590Y1212375*
X2083590D02*
X2084045Y1212062D01*
X2084045D02*
X2084272Y1211750D01*
X2084272D02*
X2084500Y1211125D01*
Y1210187*
X2084500D02*
X2084045Y1209562D01*
X2084045D02*
X2083363Y1209250D01*
X2083363D02*
X2082454D01*
X2082454D02*
X2081772Y1209562D01*
X2081772D02*
X2081318Y1210187D01*
X2086545Y1215812D02*
Y1209250D01*
X2092000Y1214250D02*
X2091772Y1214875D01*
X2091772D02*
X2091318Y1215500D01*
X2090863Y1215812*
X2090863D02*
X2089954D01*
X2089954D02*
X2089500Y1215500D01*
X2089045Y1214875*
X2088818Y1214250*
X2088590Y1213312*
X2088590D02*
Y1211750D01*
X2088590D02*
X2088818Y1210812D01*
X2088818D02*
X2089045Y1210187D01*
X2089045D02*
X2089500Y1209562D01*
X2089500D02*
X2089954Y1209250D01*
X2089954D02*
X2090863D01*
X2090863D02*
X2091318Y1209562D01*
X2091318D02*
X2091772Y1210187D01*
X2091772D02*
X2092000Y1210812D01*
X2092000D02*
Y1211750D01*
X2090863D02*
X2092000D01*
X2094045Y1215812D02*
Y1209250D01*
Y1215812D02*
X2097227Y1209250D01*
Y1215812D02*
Y1209250D01*
X2101090Y1215812D02*
X2099272Y1209250D01*
X2101090Y1215812D02*
X2102909Y1209250D01*
X2099954Y1211437D02*
X2102227D01*
X2104954Y1215812D02*
Y1209250D01*
X2104954D02*
X2107681D01*
X2113818Y1215812D02*
Y1209250D01*
X2116545*
X2120409Y1215812D02*
X2118590Y1209250D01*
X2120409Y1215812D02*
X2122227Y1209250D01*
X2119272Y1211437D02*
X2121545D01*
X2124272Y1215812D02*
X2126090Y1212687D01*
X2126090D02*
Y1209250D01*
X2127909Y1215812D02*
X2126090Y1212687D01*
X2129954Y1215812D02*
Y1209250D01*
Y1215812D02*
X2132909D01*
X2129954Y1212687D02*
X2131772D01*
X2129954Y1209250D02*
X2132909D01*
X2134954Y1215812D02*
Y1209250D01*
Y1215812D02*
X2137000D01*
X2137000D02*
X2137681Y1215500D01*
X2137681D02*
X2137909Y1215187D01*
X2137909D02*
X2138136Y1214562D01*
X2138136D02*
Y1213937D01*
X2138136D02*
X2137909Y1213312D01*
X2137909D02*
X2137681Y1213000D01*
X2137681D02*
X2137000Y1212687D01*
X2137000D02*
X2134954D01*
X2136545D02*
X2138136Y1209250D01*
X2146545Y1215812D02*
X2144272Y1211437D01*
X2144272D02*
X2147681D01*
X2146545Y1215812D02*
Y1209250D01*
X1812500Y1550050D02*
X1794800D01*
X1788900Y1555950*
Y1640350*
X1779300Y1649950*
Y1788450*
X1788600Y1797750*
Y1862550*
X1791600Y1865550*
X1824300*
X1812500Y1550050D02*
X1831900D01*
X1840800Y1558950*
Y1561250*
X1812500Y1551550D02*
X1831000D01*
X1837500Y1558050*
Y1560350*
X1812500Y1551550D02*
X1795500D01*
X1790600Y1556450*
Y1640850*
X1780800Y1650650*
Y1787750*
X1790100Y1797050*
Y1861850*
X1792300Y1864050*
X1823300*
X2158700Y1552250D02*
X2195500D01*
X2203000Y1559750*
Y1605250*
X2161000Y1647250*
Y1689250*
X2174700Y1702950*
Y1741950*
X2181500Y1748750*
Y1757750*
X2189000Y1765250*
Y1781750*
X2158000Y1812750*
Y1841750*
X2160700Y1844450*
X2191611Y1553950D02*
X2164100D01*
X2162900Y1555150*
X2154700*
X2191611Y1553950D02*
X2192700D01*
X2201500Y1562750*
Y1604250*
X2159500Y1646250*
Y1690250*
X2173000Y1703750*
Y1743250*
X2180000Y1750250*
Y1758750*
X2187500Y1766250*
Y1780750*
X2156400Y1811850*
Y1844750*
X1841400Y1859250D02*
X1839200Y1861450D01*
X1825900*
X1823300Y1864050*
X1845300Y1858750D02*
X1841000Y1863050D01*
X1826800*
X1824300Y1865550*
G54D12*
X1800782Y1559250D02*
X1819500D01*
X1829000Y1568750*
X1926500*
X1800782Y1559250D02*
X1797578Y1562454D01*
X1816000Y1564750D02*
Y1574750D01*
X1832500Y1591250*
X2003500*
X1802000Y1562750D02*
X1802012Y1562762D01*
Y1563762*
X1831500Y1593250*
X1996000*
X1997000Y1594250*
X1813000Y1563250D02*
Y1573250D01*
X1832000Y1592250*
X2005000*
X2010500Y1597750*
X1819500Y1564750D02*
Y1576750D01*
X1833000Y1590250*
X2002000*
X2048000Y1569350D02*
X2080400D01*
X2081800Y1570750*
X2156000*
X2162000Y1576750*
X2048000Y1569350D02*
X2040900D01*
X2039000Y1571250*
X2030000*
X2017500*
X1999500Y1589250*
X2031000Y1568250D02*
X2018000D01*
X1998500Y1587750*
X1850500*
X2079800Y1565750D02*
X2017000D01*
X2002000Y1580750*
X1981500*
X1980000Y1582250*
X1966000*
X2079800Y1565750D02*
X2081500D01*
X2084000Y1568250*
X2158000*
X2080227Y1566950D02*
X2032300D01*
X2031000Y1568250*
X2080227Y1566950D02*
X2083027Y1569750D01*
X2160500*
X2166500Y1563750D02*
X2160500Y1569750D01*
X2180900Y1560250D02*
X2179500Y1561650D01*
X2164600*
X2158000Y1568250*
X2180900Y1560250D02*
X2195500D01*
X2199000Y1563750*
Y1577250*
X2186500Y1563250D02*
Y1577750D01*
X2177500Y1586750*
X2062500*
X2182000Y1563250D02*
Y1570750D01*
X2168000Y1584750*
X1816500Y1598250D02*
X1819000D01*
X1816500Y1599250D02*
X1819000D01*
X1816500Y1600250D02*
X1819000D01*
X1816500Y1601250D02*
X1819000D01*
X1812500Y1598250D02*
X1816500D01*
X1812500Y1599250D02*
X1816500D01*
X1812500Y1600250D02*
X1816500D01*
X1808500Y1598250D02*
X1812500D01*
X1808500Y1599250D02*
X1812500D01*
X1805500Y1598250D02*
X1808500D01*
X1806000Y1578250D02*
X1814000D01*
X1830000Y1594250*
X1970000*
X1973500Y1597750*
Y1601750*
X1819000Y1602250D02*
X1816500D01*
X1811000Y1607750*
X1802000Y1602750D02*
X1805500Y1599250D01*
X1808500*
X1805500Y1598250D02*
X1801500D01*
X1800000Y1599750*
X1798000Y1597250D02*
X1820500D01*
X1812500Y1600250D02*
X1808500D01*
X1805500Y1603250*
X1809500Y1604250D02*
X1812500Y1601250D01*
X1816500*
X1820500Y1597250D02*
X1938500D01*
X1957500Y1616250*
Y1623250*
X1820500Y1598250D02*
X1938000D01*
X1955500Y1615750*
Y1633250*
X1820500Y1599250D02*
X1937500D01*
X1954500Y1616250*
Y1629750*
X1953500Y1630750*
X1820500Y1600250D02*
X1937000D01*
X1951500Y1614750*
Y1627750*
X1820500Y1601250D02*
X1936500D01*
X1947500Y1612250*
Y1627750*
X1820500Y1602250D02*
X1936000D01*
X1945000Y1611250*
Y1630250*
X1820500Y1603250D02*
X1935500D01*
X1942500Y1610250*
Y1632250*
X1819000Y1598250D02*
X1820500D01*
X1819000Y1599250D02*
X1820500D01*
X1819000Y1600250D02*
X1820500D01*
X1819000Y1601250D02*
X1820500D01*
X1819000Y1602250D02*
X1820500D01*
X1837500Y1578250D02*
X1839259D01*
X1850259Y1589250*
X1999500*
X1814000Y1608250D02*
X1819000Y1603250D01*
X1820500*
Y1604250D02*
X1935000D01*
X1940000Y1609250*
Y1634250*
X1820500Y1604250D02*
X1817000Y1607750D01*
Y1609750*
X1837500Y1576250D02*
X1839000D01*
X1850500Y1587750*
X1837500Y1576250D02*
X1835500D01*
X1833500Y1578250*
Y1611750D02*
X1859000D01*
X1899000Y1651750*
X1926500*
X1934296Y1605546D02*
X1826203D01*
X1826203D02*
X1821000Y1610749D01*
X1821000D02*
Y1610750D01*
X1934296Y1605546D02*
X1937500Y1608750D01*
Y1636250*
X1967500Y1598250D02*
Y1600750D01*
X1965500Y1602750*
Y1645750*
X1978000Y1658250*
X1984000*
X1965000Y1596250D02*
Y1598750D01*
X1964500Y1599250*
Y1653250*
X1970000Y1658750*
X1970500Y1604250D02*
Y1610250D01*
X1967500Y1613250*
Y1644750*
X1976500Y1653750*
X1984000*
X1969500Y1600750D02*
X1966500Y1603750D01*
Y1645250*
X1977000Y1655750*
X1987000*
X2015500Y1588750D02*
X2006000D01*
X2003500Y1591250*
X2010397Y1604965D02*
X2007000Y1608362D01*
Y1620250*
X2001500Y1625750*
Y1631250*
X2000500Y1632250*
Y1635250*
X2001500Y1636250*
Y1669250*
X2017857Y1604352D02*
X2008000Y1614209D01*
Y1620750*
X2002500Y1626250*
Y1631750*
X2001500Y1632750*
Y1634750*
X2004500Y1637750*
Y1675250*
X2032000Y1589250D02*
X2030000Y1591250D01*
Y1605250*
X2025000Y1610250*
Y1626250*
X2029000Y1630250*
Y1652484*
X2032674Y1656158*
Y1659685*
X2049500Y1579250D02*
Y1581250D01*
X2054000Y1585750*
X2171500*
X2030000Y1579250D02*
X2027000Y1582250D01*
Y1602250*
X2021000Y1608250*
Y1634834*
X2019408Y1636425*
X2040500Y1573750D02*
X2053500Y1586750D01*
X2062500*
X2040500Y1573750D02*
X2029500D01*
X2024000Y1579250*
Y1591750*
X2018000Y1597750*
X2010500*
X2032500Y1583750D02*
X2029000Y1587250D01*
Y1604250*
X2023500Y1609750*
Y1628250*
X2027500Y1632250*
Y1653250*
X2025500Y1655250*
X2039999Y1574750D02*
X2052999Y1587750D01*
X2052999D02*
X2183000D01*
X2039999Y1574750D02*
X2030000D01*
X2025000Y1579750*
Y1592750*
X2016500Y1601250*
X1994000*
X1990000Y1605250*
X1983000*
X2017000Y1586250D02*
X2006000D01*
X2002000Y1590250*
X2030000Y1582250D02*
X2028000Y1584250D01*
Y1603250*
X2022000Y1609249*
X2022000D02*
Y1636279D01*
X2022000D02*
X2016005Y1642275D01*
Y1651472*
X2033000Y1576750D02*
X2029500D01*
X2026000Y1580250*
Y1601250*
X2020000Y1607250*
Y1632084*
X2017907Y1634177*
X2055000Y1582250D02*
X2057500Y1584750D01*
X2168000*
X2070500Y1595750D02*
X2068000D01*
X2051500Y1612250*
Y1615750*
X2053000Y1617250*
X2070500Y1596750D02*
X2069500D01*
X2054500Y1611750*
Y1614250*
X2070500Y1597750D02*
X2178000D01*
X2181000Y1600750*
X2187000*
X2070500Y1597750D02*
X2057000Y1611250D01*
Y1612250*
X2071000Y1589750D02*
X2046500Y1614250D01*
Y1623250*
X2048000Y1624750*
X2050500*
X2071000Y1589750D02*
X2183500D01*
X2186000Y1592250*
X2178500Y1595750D02*
X2070500D01*
X2178500Y1596750D02*
X2180500Y1598750D01*
X2187000*
X2178500Y1596750D02*
X2070500D01*
X2192500Y1578250D02*
X2183000Y1587750D01*
X2180500Y1595750D02*
X2181000Y1596250D01*
X2185000*
X2180500Y1595750D02*
X2178500D01*
X2180500Y1576750D02*
X2171500Y1585749D01*
X2171500D02*
Y1585750D01*
X2189500Y1593250D02*
X2188500Y1594250D01*
X2161000*
X2160500Y1594750*
X2067500*
X2050000Y1612250*
Y1618750*
X2051500Y1620250*
X2190000Y1575250D02*
X2189000Y1576250D01*
Y1577750*
X2190000Y1575250D02*
X2193500D01*
X2194500Y1576250*
Y1579250*
X2185000Y1588750*
X2069000*
X2055500Y1602250*
X2191000Y1599750D02*
X2190000Y1600750D01*
X2187000*
X2241500Y1578250D02*
Y1620250D01*
X2218000Y1643750*
X2199500*
X2165500Y1677750*
X1846500Y1618250D02*
X1860500D01*
X1846500Y1620750D02*
X1861299D01*
X1861299D02*
X1901299Y1660750D01*
X1901299D02*
X1919500D01*
X1837000Y1614250D02*
X1860000D01*
X1900000Y1654250*
X1924500*
X1853000Y1622750D02*
X1861446D01*
X1902100Y1663404*
X1843500Y1618250D02*
X1846500D01*
X1840500Y1616250D02*
X1860500D01*
X1900537Y1656287*
X1923179*
X1923642Y1656750*
X1926000*
X1860500Y1618250D02*
X1900185Y1657935D01*
X1922185*
X1923000Y1658750*
X1960500Y1616250D02*
X1963086Y1618836D01*
X1963086D02*
Y1654336D01*
X1963086D02*
X1969750Y1661000D01*
X1988250*
X2012645Y1618453D02*
Y1624153D01*
X2012718Y1624226*
Y1630051*
X2010655Y1632113*
X2010655D02*
Y1658405D01*
X2010655D02*
X2038500Y1686250D01*
X2014248Y1635568D02*
X2015105Y1636425D01*
X2015105D02*
X2019408D01*
X2004547Y1627420D02*
Y1629797D01*
X2006000Y1631250*
Y1639681*
X2009069Y1642750*
Y1659819*
X2035000Y1685750*
X2025074Y1636553D02*
Y1640110D01*
X2022500Y1642684*
Y1659750*
X1839500Y1679250D02*
X1844500D01*
X1849660Y1684410*
X1870660*
X1888000Y1701750*
Y1764650*
X1867400Y1785250*
X1856000*
X1807000Y1834250*
Y1855216*
X1809169Y1857385*
Y1859917*
X1807892Y1861194*
X1851500Y1687750D02*
X1870000D01*
X1886000Y1703750*
Y1762850*
X1865600Y1783250*
X1855000*
X1804000Y1834250*
Y1852250*
X1798000Y1858250*
X1835000Y1679750D02*
X1837000Y1681750D01*
X1845500*
X1849160Y1685410*
X1865500*
X1866000Y1685910*
X1870000*
X1887000Y1702910*
Y1763750*
X1866500Y1784250*
X1855500*
X1805000Y1834750*
Y1856750*
X1806500Y1858250*
X1869500Y1675750D02*
Y1678750D01*
X1891000Y1700250*
Y1767850*
X1870600Y1788250*
X1857500*
X1810000Y1835750*
Y1845750*
X1822500Y1858250*
X1880000Y1676750D02*
X1894400Y1691150D01*
Y1771150*
X1837500Y1828050*
Y1857750*
X1875500Y1674750D02*
X1877500Y1676750D01*
Y1683350*
X1893400Y1699250*
Y1770650*
X1833500Y1830550*
Y1858750*
X1865500Y1676250D02*
X1890000Y1700750D01*
Y1766350*
X1869100Y1787250*
X1857000*
X1809000Y1835250*
Y1851750*
X1816500Y1859250*
X1863000Y1672750D02*
Y1676550D01*
X1869800Y1683350*
X1871100*
X1889000Y1701250*
Y1765150*
X1867900Y1786250*
X1856500*
X1808000Y1834750*
Y1854250*
X1813500Y1859750*
X1904500Y1668250D02*
X1900500Y1664250D01*
X1858500*
X1857500Y1665250*
X1847500*
X1838000Y1674750*
X1924500Y1662750D02*
X1923452D01*
X1923452D02*
X1922798Y1663404D01*
X1922798D02*
X1902100D01*
X1970000Y1658250D02*
Y1658750D01*
X1978000Y1667250D02*
X1975000D01*
X1974000Y1668250*
X1904500*
X1990000Y1658250D02*
Y1659250D01*
X1988250Y1661000*
X1989000Y1653250D02*
X1988494D01*
X1988494D02*
X1987994Y1653750D01*
X1987994D02*
X1984000D01*
X1809500Y1742750D02*
X1790500Y1761750D01*
X1783000*
X1809500Y1742750D02*
X1833500D01*
X1836500Y1745750*
X2090500Y1769250D02*
X2085000Y1774750D01*
X2077500*
X2071500Y1780750*
Y1808750*
X2091500Y1828750*
X2136300*
X2160000Y1852450*
X2172400*
X2176200Y1856250*
X2176800*
X2096500Y1740750D02*
X2152600D01*
X2158100Y1746250*
X2163000*
X2092000Y1738750D02*
X2152200D01*
X2157300Y1743850*
X2080500Y1764750D02*
X2067000Y1778250D01*
Y1810250*
X2090000Y1833250*
X2131300*
X2140400Y1842350*
Y1843350*
X2154400Y1857350*
X2160600*
X2162500Y1859250*
X2086500Y1766750D02*
Y1771750D01*
X2084500Y1773750*
X2077000*
X2070500Y1780250*
Y1809250*
X2091000Y1829750*
X2135800*
X2159500Y1853450*
X2171900*
X2177200Y1858750*
X2182500*
X2084500Y1770750D02*
X2078500D01*
X2069500Y1779750*
Y1809750*
X2090500Y1830750*
X2135300*
X2159900Y1855350*
X2166000*
X2171400Y1860750*
X2178000*
X2082500Y1767250D02*
X2080000D01*
X2068000Y1779250*
Y1809750*
X2090000Y1831750*
X2134800*
X2159400Y1856350*
X2164096*
X2166496Y1858750*
X2100000Y1742750D02*
X2150300D01*
X2152000Y1744450*
Y1747750*
X2099500Y1736750D02*
X2152100D01*
X2156500Y1741150*
X2166300*
X2170000Y1744850*
Y1746250*
X2166000Y1743750D02*
X2157400D01*
X2157300Y1743850*
X2152000Y1747750D02*
X2154700Y1750450D01*
Y1751250*
X2172700Y1769250*
X2185000*
X1802000Y1857750D02*
Y1860121D01*
X1803073Y1861194*
X1807892*
X2182950Y1856200D02*
X2187950D01*
X2192500Y1860750*
X2194500*
X2182950Y1856200D02*
X2182900Y1856250D01*
X2176800*
X2203000Y1858250D02*
X2200500Y1860750D01*
X2194500*
G54D19*
X1700000Y1975750D03*
X1945000D03*
X1700000Y1755750D03*
X1905000Y1795750D03*
X2095000D03*
X2055000Y1975750D03*
X2300000D03*
Y1755750D03*
X1700000Y1445750D03*
Y1665750D03*
X1945000Y1445750D03*
X1905000Y1625750D03*
X2300000Y1665750D03*
Y1445750D03*
X2055000D03*
X2095000Y1625750D03*
G54D26*
X2053700Y1395750D03*
X2006300D03*
G54D31*
X2035000Y1414250D03*
X2025000D03*
Y1406250D03*
X2035000D03*
X2128307Y1577731D03*
X2263740D03*
X2128307Y1843731D03*
X2263740D03*
X1871692Y1843768D03*
X1736259D03*
X1871692Y1578768D03*
X1736259D03*
G54D44*
X1771000Y1365750D03*
X1781000D03*
X1791000D03*
X1801000D03*
G54D45*
X1963000Y1410250D03*
G54D46*
Y1385750D03*
X1982000Y1398250D03*
G54D47*
X2007500Y1959750D03*
X2008000Y1910750D03*
G54D48*
X1997500Y1949750D03*
X2017500D03*
Y1969750D03*
X1997500D03*
X1998000Y1900750D03*
X2018000D03*
Y1920750D03*
X1998000D03*
G54D54*
X1922000Y1471250D02*
X1917000D01*
Y1482750*
X1877500Y1522250*
X1868000*
X1859000Y1531250*
X1922000Y1471250D02*
X1927800D01*
X2088000*
X2120500Y1503750*
Y1547750*
X2127500Y1554750*
X1806561Y1531926D02*
X1805400D01*
Y1532249*
X1805400D02*
X1805399Y1532250D01*
X1805399D02*
X1804000D01*
X1808500Y1531926D02*
X1806561D01*
X1808500Y1531750*
X1859000Y1549750D02*
Y1531250D01*
X1858323Y1531926*
X1858323D02*
X1808500D01*
X1804000Y1532250D02*
X1799000D01*
X1784300Y1546950*
X1756200*
X1728900Y1574250*
Y1851750*
X1749900Y1872750*
X1836500*
X1859000Y1549750D02*
Y1556250D01*
X2127500Y1554750D02*
X2131400Y1558550D01*
X2006000Y1847625D02*
X1907875D01*
X1895750Y1859750*
X1865200*
X2006000Y1847625D02*
X2045500D01*
X2050625Y1852750*
X2136000*
X2141000Y1857750*
Y1859250*
X1860000Y1859750D02*
X1860117Y1861279D01*
X1860117D02*
X1848647Y1872750D01*
X1836500*
X1860000Y1859750D02*
X1865200D01*
G54D59*
X1836500Y1872750D02*
Y1915350D01*
Y1919450*
G54D62*
X1816000Y1560750D02*
X1819000D01*
X1822750Y1564500*
X1822750*
X1828499Y1570250*
X1828499D02*
X1914000D01*
X1919500Y1575750*
X1998000*
X1816000Y1560750D02*
X1810500D01*
X1810000Y1561250*
X1819949Y1557699D02*
X1797852D01*
X1797852D02*
X1794772Y1560780D01*
X1819949Y1557699D02*
X1829500Y1567250D01*
X1878750*
X1926500Y1565750D02*
X1880250D01*
X1878750Y1567250*
X2016551Y1564250D02*
X2002051Y1578750D01*
X1963500*
X2016551Y1564250D02*
X2114500D01*
X2116500Y1566250*
X2157500*
X2029000Y1550750D02*
X2020000Y1559750D01*
X2016500*
X2000500Y1575750*
X1998000*
X2029000Y1550750D02*
X2082000D01*
X2092000Y1560749*
X2092000D02*
X2116000D01*
X2116000D02*
X2119000Y1563749D01*
X2119000D02*
X2141999D01*
X2193500Y1558250D02*
X2193000Y1558750D01*
X2190500Y1556250D02*
X2179100D01*
X2176400Y1558950*
X2162800*
X2161000Y1560749*
X2161000D02*
X2144999D01*
X2144999D02*
X2141999Y1563749D01*
X2193000Y1558750D02*
X2179700D01*
X2178000Y1560450*
X2163300*
X2157500Y1566250*
X1998500Y1604750D02*
Y1610250D01*
X1996500Y1612250*
Y1630250*
X1996000Y1630750*
Y1652750*
X1993500Y1655250*
Y1658250*
X1977500Y1674250*
X1944000*
X1829500Y1676250D02*
X1834000D01*
X1834750Y1677000*
X1839040*
X1872500Y1670250D02*
X1883000D01*
X1887000Y1674250*
X1944000*
X1872500Y1670250D02*
X1851000D01*
X1848500Y1672750*
Y1674250*
X1845750Y1677000*
X1839040*
X1872500Y1670250D02*
Y1680050D01*
X1892200Y1699750*
Y1768350*
X1870800Y1789750*
X1858000*
X1816000Y1831750*
X1812000Y1835750*
Y1844750*
X1944000Y1674250D02*
Y1711250D01*
X1983100*
X2004800Y1732950*
X2151100*
X2158100Y1739950*
X2166800*
X2172800Y1745950*
Y1746550*
X2175000Y1748750*
G54D63*
X1747000Y1404750D03*
X1764000D03*
X1771000Y1389750D03*
X1754000D03*
X1771000Y1376750D03*
X1754000D03*
X1780000Y1404750D03*
X1799000D03*
X1809000Y1389750D03*
X1789000D03*
X1809000Y1376750D03*
X1790000D03*
X1817000Y1404750D03*
X1838000D03*
X1843000Y1389750D03*
X1826000D03*
X1843000Y1376750D03*
X1826000D03*
X1857000Y1404750D03*
X1873000D03*
X1890000Y1403750D03*
X1893000Y1389750D03*
X1877000D03*
X1859000D03*
X1894000Y1375750D03*
X1877000D03*
X1859000Y1376750D03*
X1905000Y1402750D03*
Y1389750D03*
X1906000Y1374750D03*
X1754000Y1434750D03*
X1770000D03*
X1772000Y1420750D03*
X1755000D03*
X1754500Y1450250D03*
X1787000Y1434750D03*
X1804000D03*
X1808000Y1419750D03*
X1789000D03*
X1821000Y1434750D03*
X1836000D03*
X1852000D03*
X1846000Y1419750D03*
X1826000D03*
X1870000Y1434750D03*
X1885000D03*
Y1419750D03*
X1865000D03*
X1886000Y1451250D03*
X1903000Y1434750D03*
X1904000Y1418750D03*
Y1449750D03*
X1753000Y1490750D03*
X1754000Y1466250D03*
X1753000Y1477750D03*
X1775000Y1458250D03*
Y1465750D03*
Y1473250D03*
Y1478250D03*
Y1490750D03*
X1765000D03*
Y1478250D03*
Y1470750D03*
Y1463250D03*
Y1453250D03*
X1769000Y1452750D03*
X1812500Y1488250D03*
Y1460750D03*
Y1470750D03*
X1790000D03*
Y1460750D03*
X1800000D03*
Y1470750D03*
X1812500Y1478250D03*
X1800000D03*
X1790000D03*
X1782500D03*
X1802500Y1490750D03*
X1787500D03*
X1777500Y1453250D03*
X1787500D03*
X1795000D03*
X1802500D03*
X1815000D03*
X1842500Y1490750D03*
X1837500Y1483250D03*
X1852500Y1490750D03*
Y1480750D03*
Y1463250D03*
X1837500D03*
Y1453250D03*
X1850000D03*
X1852500Y1473250D03*
X1837500D03*
X1825000Y1453250D03*
Y1463250D03*
Y1473250D03*
Y1480750D03*
X1886000Y1460750D03*
X1885500Y1470250D03*
X1875000Y1483250D03*
X1862500D03*
Y1490750D03*
X1867500Y1463250D03*
X1865000Y1453250D03*
X1875000D03*
Y1463250D03*
Y1473250D03*
X1865000D03*
X1905000Y1462750D03*
X1954000Y1482250D03*
X1982500Y1481750D03*
X2034000Y1484250D03*
X1796000Y1508750D03*
X1780000D03*
X1814500Y1499250D03*
X1815000Y1505750D03*
X1788500Y1500250D03*
X1825000Y1493250D03*
X1840000Y1505750D03*
X1837500Y1498250D03*
X1855500Y1500250D03*
X1957500Y1501750D03*
X1971500Y1531000D03*
X1979500Y1501750D03*
X1977750Y1531000D03*
X2011500Y1529250D03*
X2053000Y1520250D03*
X2026500Y1516750D03*
X2024500Y1492750D03*
X2040500Y1516750D03*
X2053000Y1505750D03*
X2041500Y1492750D03*
X2045500Y1505750D03*
X2034000Y1524750D03*
X2042500Y1529750D03*
X2045500Y1521250D03*
X2022000Y1527750D03*
X2086000Y1504750D03*
X2060500Y1522250D03*
X2078500Y1505250D03*
Y1521750D03*
X2071500Y1522750D03*
X2086000Y1521250D03*
X2168000Y1527750D03*
X2137500D03*
X1774500Y1564750D03*
X1740000Y1571250D03*
X1747500Y1564750D03*
X1759000Y1564250D03*
X1762500Y1562750D03*
X1750500D03*
X1770000D03*
X1766500Y1564250D03*
X1754500Y1563250D03*
X1795500Y1554750D03*
X1778500Y1564750D03*
X1786000D03*
X1794772Y1560780D03*
X1810000Y1561250D03*
X1797578Y1562454D03*
X1816000Y1564750D03*
X1812500Y1553750D03*
X1802000Y1562750D03*
X1813000Y1563250D03*
X1840800Y1561250D03*
X1837500Y1560350D03*
X1850500Y1540250D03*
X1846500Y1564750D03*
X1853000D03*
X1829500Y1563750D03*
X1819500Y1564750D03*
X1825500Y1558250D03*
Y1544250D03*
X1833000Y1558250D03*
Y1544250D03*
X1871000Y1564250D03*
X1865000Y1564750D03*
X1865500Y1536750D03*
X1926500Y1568750D03*
Y1565750D03*
X1948000Y1542750D03*
X1963000Y1571750D03*
X1951000Y1559750D03*
X1967500Y1544250D03*
X1963000D03*
X1954000Y1532750D03*
X1986000Y1566750D03*
X1988500Y1571250D03*
X1982500Y1561750D03*
X1985500Y1563750D03*
X2016500Y1556750D03*
X2010500Y1555750D03*
X2011500Y1543250D03*
X2000000Y1542750D03*
X1980500Y1543500D03*
X1993500Y1542250D03*
X1998000Y1535000D03*
X2037500Y1561750D03*
X2042500Y1544250D03*
X2048000Y1571750D03*
X2056500Y1555250D03*
X2030000Y1571250D03*
X2026500Y1544250D03*
X2033000Y1555750D03*
X2028000D03*
X2031000Y1568250D03*
X2057000Y1561250D03*
X2113500Y1541250D03*
X2113000Y1547750D03*
X2112500Y1532750D03*
X2154700Y1555150D03*
X2158700Y1552250D03*
X2141000Y1548750D03*
X2148000Y1549750D03*
X2152500Y1540250D03*
X2175500Y1556750D03*
X2168000Y1532750D03*
Y1537750D03*
Y1542750D03*
X2150500Y1563250D03*
X2169000Y1556250D03*
X2166500Y1563750D03*
X2193500Y1558250D03*
X2190500Y1556250D03*
X2199500Y1551250D03*
X2186500Y1563250D03*
X2194000D03*
X2182000D03*
X2205500Y1561250D03*
X2217500Y1562250D03*
X2221500D03*
X2237000Y1563250D03*
X2253000Y1562250D03*
X2249000Y1563750D03*
X2241000Y1562750D03*
X2229500Y1563250D03*
X2233500Y1561750D03*
X2245500Y1563250D03*
X1773500Y1578750D03*
X1755000Y1579250D03*
X1762500Y1592750D03*
X1740000Y1586250D03*
X1759500Y1596750D03*
X1776000Y1608750D03*
X1786500Y1579750D03*
X1784000Y1601250D03*
X1778000Y1601750D03*
X1778500Y1579250D03*
X1806000Y1578250D03*
X1805500Y1603250D03*
X1800000Y1599750D03*
X1798000Y1597250D03*
X1809500Y1604250D03*
X1811000Y1607750D03*
X1802000Y1602750D03*
X1814000Y1608250D03*
X1833500Y1578250D03*
X1837500D03*
X1821000Y1610750D03*
X1833500Y1611750D03*
X1817000Y1609750D03*
X1857100Y1579250D03*
X1865000D03*
X1973500Y1601750D03*
X1950500Y1596250D03*
Y1602250D03*
X1967500Y1598250D03*
X1965000Y1596250D03*
X1966000Y1582250D03*
X1963500Y1578750D03*
X1970500Y1604250D03*
X1969500Y1600750D03*
X2013500Y1595750D03*
X1998000Y1575750D03*
X1997000Y1594250D03*
X1998500Y1604750D03*
X1994500Y1573250D03*
X2011000Y1593750D03*
X2015500Y1588750D03*
X1983000Y1605250D03*
X2010500Y1597750D03*
X2010397Y1604965D03*
X1979500Y1603250D03*
X2017857Y1604352D03*
X2032000Y1589250D03*
X2051000Y1574750D03*
X2049500Y1579250D03*
X2030000D03*
X2032500Y1583750D03*
X2017000Y1586250D03*
X2030000Y1582250D03*
X2048000Y1589250D03*
X2033000Y1576750D03*
X2036000Y1599750D03*
X2048500Y1601750D03*
X2055500Y1602250D03*
X2055000Y1582250D03*
X2135000Y1577750D03*
X2137000Y1592750D03*
X2162000Y1576750D03*
X2147500Y1605250D03*
X2137500Y1606750D03*
X2144000Y1605250D03*
X2140000Y1604250D03*
X2161000D03*
X2157500Y1603250D03*
X2154000Y1604250D03*
X2166500Y1608750D03*
X2167500Y1603250D03*
X2164500Y1604250D03*
X2150500D03*
X2185000Y1596250D03*
X2199000Y1577250D03*
X2189000Y1577750D03*
X2214000D03*
X2206000Y1591750D03*
X2192500Y1578250D03*
X2180500Y1576750D03*
X2186000Y1592250D03*
X2187000Y1598750D03*
X2189500Y1593250D03*
X2191000Y1599750D03*
X2224000Y1605750D03*
X2218000Y1591750D03*
Y1605750D03*
X2224000Y1591750D03*
X2244000Y1595750D03*
X2238500Y1596750D03*
X2241500Y1578250D03*
X2257000Y1591750D03*
Y1576750D03*
X1720000Y1639250D03*
X1721500Y1615250D03*
X1776500Y1637750D03*
Y1624750D03*
X1779000Y1618250D03*
X1846500Y1620750D03*
X1837000Y1614250D03*
X1853000Y1622750D03*
X1843500Y1618250D03*
X1840500Y1616250D03*
X1926500Y1651750D03*
X1959500Y1620750D03*
X1960500Y1616250D03*
X1972500Y1637750D03*
X1959500Y1631750D03*
X1948500Y1651250D03*
X1957500Y1638250D03*
X1969500Y1617750D03*
X1972500Y1619250D03*
X1975500Y1617250D03*
X1957500Y1623250D03*
X1955500Y1633250D03*
X1937500Y1636250D03*
X1940000Y1634250D03*
X1947500Y1627750D03*
X1953500Y1630750D03*
X1951500Y1627750D03*
X1945000Y1630250D03*
X1942500Y1632250D03*
X1976000Y1636750D03*
X1999000Y1628250D03*
X1993000Y1650750D03*
X1993500Y1636250D03*
X2010768Y1628685D03*
X2012645Y1618453D03*
X1999500Y1617750D03*
X1983500Y1616750D03*
X1984000Y1636750D03*
X1981500Y1651250D03*
X2016005Y1651472D03*
X2014248Y1635568D03*
X2008500Y1638750D03*
X2007715Y1629106D03*
X1994000Y1625750D03*
X2016500Y1627250D03*
X2007000Y1651250D03*
X2004547Y1627420D03*
X1979500Y1636750D03*
X2003500Y1617250D03*
X1977000Y1651250D03*
X2032500Y1616750D03*
X2048500Y1622250D03*
X2025074Y1636553D03*
X2042000Y1621250D03*
X2050500Y1624750D03*
X2032000Y1651250D03*
X2041500Y1617250D03*
X2047000Y1651250D03*
X2053000Y1617250D03*
X2054500Y1614250D03*
X2025000Y1651250D03*
X2017907Y1634177D03*
X2020000Y1651250D03*
X2027000Y1618750D03*
X2044000Y1624250D03*
X2051500Y1620250D03*
X2057000Y1612250D03*
X2269500Y1635250D03*
X2261000Y1625750D03*
X1804000Y1677250D03*
X1806500Y1687750D03*
X1789000Y1679250D03*
X1790000Y1675750D03*
X1802500Y1689250D03*
X1804500Y1680750D03*
X1845800Y1659950D03*
Y1671950D03*
X1839500Y1679250D03*
X1851500Y1687750D03*
X1829500Y1676250D03*
X1838000Y1674750D03*
X1842000Y1661250D03*
X1850500D03*
X1844200Y1685350D03*
X1851200Y1674350D03*
X1838000Y1691750D03*
X1829000Y1672750D03*
X1852000Y1681750D03*
X1845000Y1691250D03*
X1835000Y1679750D03*
X1823000Y1673750D03*
X1836500Y1661250D03*
X1869500Y1675750D03*
X1880000Y1676750D03*
X1872000Y1661750D03*
X1875500Y1674750D03*
X1865500Y1676250D03*
X1863000Y1672750D03*
X1861000Y1667250D03*
X1926000Y1656750D03*
X1923000Y1658750D03*
X1919500Y1660750D03*
X1924500Y1662750D03*
Y1654250D03*
X1940000Y1664750D03*
X1939000Y1671750D03*
X1962000Y1657250D03*
X1973000Y1665750D03*
X1967000D03*
X1957500Y1655250D03*
X1952100Y1654750D03*
X1958000Y1662750D03*
X1952000Y1663250D03*
X1970000Y1658250D03*
X1978000Y1667250D03*
X2012940Y1653132D03*
X2004500Y1675250D03*
X2001500Y1669250D03*
X2001000Y1681750D03*
X1997447Y1656824D03*
X2014000Y1682750D03*
X2008000Y1680750D03*
X2004000Y1680250D03*
X2008500Y1684250D03*
X1990000Y1658250D03*
X1987000Y1655750D03*
X1984000Y1658250D03*
X1989000Y1653250D03*
X2033500Y1663750D03*
X2032674Y1659685D03*
X2044500Y1654250D03*
X2035500D03*
X2046500Y1658750D03*
X2018000Y1655585D03*
X2025500Y1655250D03*
X2022500Y1659750D03*
X2035000Y1685750D03*
X2038500Y1686250D03*
X2030500Y1686750D03*
X2025500Y1685750D03*
X2020500Y1687250D03*
X2017500Y1683250D03*
X2027500Y1688750D03*
X2020500Y1683750D03*
X2058500Y1673250D03*
X2072000Y1669250D03*
X2115900Y1678450D03*
X2110600Y1671750D03*
X2127900Y1667850D03*
X2114000Y1667550D03*
X2131000Y1656750D03*
X2132000Y1686250D03*
X2125000Y1679250D03*
X2128500Y1678750D03*
X2133500Y1673750D03*
X2108000Y1667750D03*
X2114000Y1660750D03*
X2125000Y1657750D03*
X2171500Y1681750D03*
X2163500Y1666750D03*
X2151000Y1665750D03*
X2176500Y1688250D03*
X2153000Y1683750D03*
X2147000Y1671750D03*
X2176000Y1677750D03*
X2139000Y1689750D03*
X2153000Y1687750D03*
X2165500Y1677750D03*
X2157000Y1679750D03*
X2139000Y1683750D03*
X2154000Y1665750D03*
X2168000Y1666750D03*
X2200000Y1687750D03*
X2180000Y1677750D03*
X2188000Y1679250D03*
X2200000Y1679750D03*
X2181000Y1666750D03*
X2192000D03*
X2205000Y1658250D03*
Y1662250D03*
X2199000Y1683750D03*
X2251000Y1677250D03*
X2248000Y1675250D03*
X2242000D03*
X2246000Y1668250D03*
X2249000Y1669750D03*
Y1662250D03*
X2261000Y1667750D03*
X2269000Y1659250D03*
X1760500Y1714250D03*
X1759500Y1727250D03*
X1771500Y1705250D03*
X1764500Y1729250D03*
X1771000Y1710750D03*
X1757500Y1724750D03*
X1755000Y1721750D03*
X1753500Y1719250D03*
X1791000Y1725750D03*
Y1714250D03*
X1805000Y1708750D03*
X1805500Y1715750D03*
X1805000Y1731750D03*
Y1725750D03*
X1790500Y1708750D03*
X1802000Y1693750D03*
X1789000Y1728750D03*
X1790000Y1701250D03*
X1805500Y1700750D03*
X1835000Y1727750D03*
X1836000Y1701750D03*
X1851000Y1730250D03*
X1841500Y1701750D03*
X1850000Y1712250D03*
X1822500Y1719250D03*
X1837500Y1718750D03*
X1851000Y1718250D03*
X1848500Y1701250D03*
X1823000Y1708750D03*
X1846500D03*
X1822500Y1698250D03*
X1865000Y1730250D03*
X1926500Y1720750D03*
Y1715750D03*
X1927000Y1701750D03*
X1926500Y1727250D03*
X1944000Y1711250D03*
X1943000Y1729250D03*
X1943500Y1724750D03*
X1942000Y1715750D03*
X1939500Y1710250D03*
X1940000Y1702750D03*
X1939000Y1692250D03*
X2051000Y1712250D03*
X2032000Y1715250D03*
X2054000Y1729250D03*
X2033000Y1721250D03*
X2087500Y1704250D03*
X2083500Y1725250D03*
X2058500Y1711250D03*
X2087000Y1698250D03*
X2072000Y1709750D03*
X2059000Y1718750D03*
X2058500Y1724750D03*
X2058000Y1692750D03*
X2165000Y1726250D03*
X2138500Y1695750D03*
X2170500Y1708250D03*
X2155000Y1695750D03*
X2164500Y1712750D03*
X2165000Y1720250D03*
X2164500Y1731750D03*
X2154000Y1701750D03*
X2192500Y1731750D03*
X2177500Y1712750D03*
Y1720250D03*
X2178000Y1726250D03*
Y1731750D03*
X2183000Y1709750D03*
X2198000Y1700750D03*
X2212000Y1714250D03*
X2200000Y1726250D03*
Y1715750D03*
X2200500Y1721750D03*
X2211000Y1708750D03*
X2198500Y1694750D03*
X2211000Y1700750D03*
X2183500Y1713750D03*
X2199500Y1704750D03*
X2197000Y1719250D03*
X2197500Y1709750D03*
X2242000Y1717750D03*
X2242500Y1695250D03*
X2241000Y1714250D03*
X2237500Y1711750D03*
X2233500Y1708750D03*
X2230500Y1694750D03*
X1757500Y1734750D03*
X1756500Y1747250D03*
X1742500Y1757750D03*
X1747500Y1748250D03*
X1750500Y1752250D03*
X1770500Y1767250D03*
X1745000Y1755750D03*
X1745500Y1752250D03*
X1811877Y1745597D03*
X1795500Y1763750D03*
X1811000Y1760250D03*
X1805000Y1740750D03*
X1783000Y1761750D03*
X1790000Y1741750D03*
X1836000Y1758750D03*
X1822000Y1766750D03*
X1851000Y1737750D03*
X1847500Y1745250D03*
X1822500Y1760250D03*
X1836500Y1745750D03*
X1831500D03*
X1840500D03*
X1854000Y1759250D03*
X1822500Y1745750D03*
X1842500Y1739250D03*
X1849500Y1759750D03*
X1882000Y1733750D03*
X1858000Y1749750D03*
X1863000Y1740250D03*
X1945000Y1737750D03*
X1955000Y1770750D03*
X1940000Y1753750D03*
X1940500Y1749250D03*
X1956000Y1760750D03*
X1950000D03*
X1963500Y1769750D03*
X1975500Y1770250D03*
X1970500Y1767750D03*
X1980500Y1767250D03*
X1981500Y1770250D03*
X1986500Y1767750D03*
X1998000Y1768750D03*
X2010500Y1766250D03*
X2022000Y1769750D03*
X2043500Y1769250D03*
X2035500Y1769750D03*
X2090500Y1769250D03*
X2096500Y1740750D03*
X2092000Y1738750D03*
X2080500Y1764750D03*
X2086500Y1766750D03*
X2084500Y1770750D03*
X2059000Y1751250D03*
X2072000Y1752750D03*
X2082500Y1767250D03*
X2100000Y1742750D03*
X2099500Y1736750D03*
X2156000Y1748750D03*
X2170000Y1746250D03*
X2163000D03*
X2150500Y1751250D03*
X2163000Y1749750D03*
X2150000Y1745250D03*
X2164000Y1737250D03*
X2166000Y1743750D03*
X2158000Y1751750D03*
X2152000Y1747750D03*
X2175000Y1748750D03*
X2144500Y1759750D03*
X2173000Y1751250D03*
X2185000Y1769250D03*
X2190000Y1745750D03*
X2193100Y1740250D03*
X2178000Y1737250D03*
X2184500Y1751750D03*
X2200000Y1733750D03*
X2199000Y1744750D03*
Y1738750D03*
X2212000Y1743750D03*
X2183000Y1746750D03*
X2186000D03*
X2192000Y1736750D03*
X2177500Y1751750D03*
X1771500Y1776250D03*
X1976000Y1805250D03*
X1958000Y1783250D03*
X1943000Y1793250D03*
X1937000Y1797750D03*
X1976500Y1799750D03*
X1949000Y1787750D03*
X1948500Y1791250D03*
X1974000Y1801750D03*
X1940500Y1799750D03*
X1939500Y1795750D03*
X1937500Y1801750D03*
X1994500Y1786750D03*
X2000000Y1808750D03*
X2004000Y1802250D03*
X2005500Y1797750D03*
X2004000Y1783750D03*
X2007500D03*
X2012000Y1784750D03*
X1999250Y1786500D03*
X1986500Y1791250D03*
X1981500Y1795750D03*
X1979000Y1797750D03*
X1984000Y1793250D03*
X1990000Y1787750D03*
X2018000Y1794250D03*
X2041000Y1786750D03*
X2036500Y1787250D03*
X2022000Y1784250D03*
X1741000Y1828750D03*
X1755000Y1829250D03*
X1774500Y1828250D03*
X1762500Y1829250D03*
X1758500D03*
X1781500Y1823250D03*
X1812000Y1844750D03*
X1795000Y1842750D03*
X1785500Y1820750D03*
X1868000Y1851350D03*
X1867500Y1836250D03*
X1936400Y1833950D03*
X1922000D03*
X1932800Y1835750D03*
X1929800D03*
X1911200Y1829750D03*
X1925600Y1834550D03*
X1915400Y1831550D03*
X1918400Y1832750D03*
X1970000Y1814250D03*
X1972000Y1818250D03*
X1976000Y1835750D03*
Y1815750D03*
X1968000Y1820750D03*
X1956000Y1826250D03*
X1965000Y1821750D03*
X1954000Y1828750D03*
X1959500Y1824750D03*
X1962000Y1823250D03*
X1978500Y1826750D03*
X1986000D03*
X2014500Y1820750D03*
X1981000Y1816750D03*
X1994500Y1814750D03*
X1998500Y1815750D03*
X2006500Y1829750D03*
X1991500Y1835750D03*
Y1827750D03*
X1982500Y1831250D03*
Y1835750D03*
X1986500D03*
X1991500Y1831750D03*
X1986500Y1831250D03*
X2022000Y1829750D03*
X2160700Y1844450D03*
X2156400Y1844750D03*
X2142800Y1842950D03*
X2138000Y1842750D03*
X2213000Y1814750D03*
X2190000Y1843750D03*
X2202500Y1825750D03*
X2214000Y1829750D03*
X2219000Y1814250D03*
X2238000Y1842750D03*
X2222000Y1829750D03*
X2245000Y1842750D03*
X2224000Y1824750D03*
X2241500Y1828750D03*
X2257000Y1842750D03*
X1743000Y1857750D03*
X1774500Y1859750D03*
X1758500Y1860250D03*
X1762500Y1863750D03*
X1770500Y1860750D03*
X1766000D03*
X1751000Y1859750D03*
X1746500Y1858750D03*
X1754500Y1858250D03*
X1781000Y1863750D03*
X1795500Y1861750D03*
X1785500Y1864750D03*
X1802000Y1857750D03*
X1813500Y1859750D03*
X1798000Y1858250D03*
X1816500Y1859250D03*
X1806500Y1858250D03*
X1841400Y1859250D03*
X1845300Y1858750D03*
X1837500Y1857750D03*
X1854000Y1858250D03*
X1849500D03*
X1829500Y1858750D03*
X1836500Y1865250D03*
X1822500Y1858250D03*
X1833500Y1858750D03*
X1874500Y1868750D03*
X1895500Y1888250D03*
X1887500Y1883050D03*
X1883000Y1890350D03*
X1866200Y1868150D03*
X1920500Y1866250D03*
X1931500Y1887350D03*
X1924000D03*
X1915400Y1891250D03*
X1914000Y1860750D03*
X1901600Y1891250D03*
X1940000Y1871750D03*
X1938000Y1886750D03*
X1951500Y1887250D03*
X1946700Y1883950D03*
X2014500Y1862250D03*
X1997000Y1854750D03*
X1982000Y1862750D03*
X1997000Y1861750D03*
X1991000Y1854750D03*
X2007500Y1853750D03*
X1991000Y1861750D03*
X2023000Y1855250D03*
X2133000Y1858750D03*
X2138000Y1869250D03*
X2146500Y1867750D03*
X2174000Y1858750D03*
X2166496D03*
X2152500Y1866750D03*
X2162500Y1859250D03*
X2212500Y1869250D03*
X2215000Y1858750D03*
X2197500Y1858250D03*
X2178000Y1860750D03*
X2203000Y1858250D03*
X2186500D03*
X2194500Y1858750D03*
X2182500D03*
X2220000Y1857750D03*
X2253500Y1858250D03*
X2249500Y1859750D03*
X2245500Y1861250D03*
X2241000Y1862750D03*
X2237500Y1861250D03*
X2230500Y1858750D03*
X2233500Y1860250D03*
X2226000Y1857750D03*
X2258000D03*
X1841000Y1892750D03*
X1836500Y1919450D03*
Y1915350D03*
X1828500Y1903250D03*
X1849000Y1898750D03*
X1895000Y1926750D03*
X1889500Y1931250D03*
X1879500Y1926650D03*
X1895100Y1915750D03*
X1889500Y1911150D03*
X1874700Y1909450D03*
X1896300Y1899750D03*
X1875500Y1900750D03*
X1889000D03*
X1874600Y1906950D03*
Y1912050D03*
X1875000Y1915750D03*
X1889500Y1895250D03*
X1930500Y1913750D03*
X1917500Y1923250D03*
X1935000Y1901250D03*
X1902400Y1923650D03*
X1902500Y1915950D03*
X1920500Y1912750D03*
X1906600Y1904750D03*
X1924000Y1901150D03*
X1901000Y1894650D03*
Y1904550D03*
X1901900Y1908750D03*
X1919000Y1915750D03*
X1900000Y1925750D03*
X1917400Y1899750D03*
X1916500Y1914250D03*
X1918400Y1928450D03*
X1912500Y1905250D03*
X1929400Y1905050D03*
X1934100Y1905450D03*
X1901900Y1928450D03*
X1918500Y1919750D03*
X1930500Y1916250D03*
X1934000Y1919250D03*
Y1916250D03*
X1930500Y1923250D03*
Y1919250D03*
X1934000Y1913750D03*
Y1923250D03*
X1963500Y1910750D03*
X1964000Y1919750D03*
X1963000Y1902750D03*
X1949000Y1901750D03*
X1939900Y1912850D03*
X1949000Y1918450D03*
X1976400Y1919150D03*
X1948100Y1911850D03*
X1938500Y1904950D03*
X1937000Y1919250D03*
Y1923250D03*
X1940000D03*
Y1919250D03*
X1937000Y1916250D03*
Y1913750D03*
X1940000Y1915750D03*
X1818500Y1956750D03*
X1823000D03*
X1833500D03*
X1838000D03*
X1849000D03*
X1838000Y1943950D03*
X1854300Y1943450D03*
X1853500Y1956750D03*
X1823000Y1943750D03*
X1869000Y1956750D03*
X1864000D03*
X1879500Y1956550D03*
X1884000Y1956450D03*
X1895000Y1956550D03*
X1869000Y1943750D03*
X1884000Y1943150D03*
X1929600Y1956650D03*
X1925000D03*
X1914500Y1956850D03*
X1899500D03*
X1910000Y1956550D03*
X1899400Y1942950D03*
X1914600Y1943150D03*
X1929800D03*
X1973000Y1958250D03*
X1965200Y1947650D03*
X1965900Y1952850D03*
X1961000Y1956450D03*
X1956000Y1956550D03*
X1945000D03*
X1940500Y1956450D03*
X1941900Y1943150D03*
X1951000Y1943450D03*
X1978000Y1958750D03*
G54D64*
X1917000Y1471250D03*
X1922000D03*
X1927800D03*
X1804000Y1531750D03*
X1808500D03*
X1799000Y1532250D03*
X1836000Y1540250D03*
X1826000Y1539750D03*
X1859000Y1549750D03*
Y1556250D03*
X2131400Y1558550D03*
X2127500Y1554750D03*
X1865200Y1859750D03*
X1860000D03*
X2141000Y1859250D03*
X0Y0D02*
M02*
