*
*
G04 PowerPCB (Build Number 501.037) generated Gerber (RS-274-X) file*
G04 PC Version=2.1*
*
%IN "USRP_REV 4.1.pcb"*%
*
%MOIN*%
*
%FSLAX35Y35*%
*
*
*
*
G04 PC Standard Apertures*
*
*
G04 Thermal Relief Aperture macro.*
%AMTER*
1,1,$1,0,0*
1,0,$1-$2,0,0*
21,0,$3,$4,0,0,45*
21,0,$3,$4,0,0,135*
%
*
*
G04 Annular Aperture macro.*
%AMANN*
1,1,$1,0,0*
1,0,$2,0,0*
%
*
*
G04 Odd Aperture macro.*
%AMODD*
1,1,$1,0,0*
1,0,$1-0.005,0,0*
%
*
*
G04 PC Custom Aperture Macros*
*
*
*
*
*
*
G04 PC Aperture Table*
*
%ADD010C,0.01*%
%ADD020R,0.038X0.03*%
%ADD021R,0.03X0.038*%
%ADD022R,0.06299X0.07087*%
%ADD023R,0.09X0.12*%
%ADD027R,0.05X0.06*%
%ADD028O,0.07X0.01*%
%ADD029O,0.01X0.07*%
%ADD030R,0.024X0.092*%
%ADD032O,0.08X0.01*%
%ADD033O,0.01X0.08*%
%ADD034O,0.013X0.07*%
%ADD035O,0.07X0.013*%
%ADD036O,0.08661X0.02362*%
%ADD037O,0.013X0.065*%
%ADD038R,0.12X0.12*%
%ADD039R,0.055X0.11*%
%ADD040R,0.35X0.35*%
%ADD041R,0.22X0.08*%
%ADD042R,0.072X0.08*%
%ADD049R,0.07087X0.06299*%
%ADD050R,0.04016X0.01614*%
%ADD051R,0.02756X0.0128*%
%ADD052R,0.0128X0.02756*%
%ADD053R,0.12795X0.12795*%
*
*
*
*
G04 PC Custom Flashes*
G04 Layer Name USRP_REV 4.1.pcb - flashes*
%LPD*%
*
*
G04 PC Circuitry*
G04 Layer Name USRP_REV 4.1.pcb - circuitry*
%LPD*%
*
G54D10*
G01X1685000Y1355750D02*
Y1990750D01*
X2315000*
Y1355750*
X1685000*
X2029500Y1215812D02*
Y1209250D01*
Y1215812D02*
X2031545D01*
X2031545D02*
X2032227Y1215500D01*
X2032454Y1215187*
X2032454D02*
X2032681Y1214562D01*
X2032681D02*
Y1213625D01*
X2032681D02*
X2032454Y1213000D01*
X2032454D02*
X2032227Y1212687D01*
X2032227D02*
X2031545Y1212375D01*
X2029500*
X2036545Y1215812D02*
X2034727Y1209250D01*
X2036545Y1215812D02*
X2038363Y1209250D01*
X2035409Y1211437D02*
X2037681D01*
X2043590Y1214875D02*
X2043136Y1215500D01*
X2042454Y1215812*
X2042454D02*
X2041545D01*
X2041545D02*
X2040863Y1215500D01*
X2040863D02*
X2040409Y1214875D01*
Y1214250*
X2040636Y1213625*
X2040863Y1213312*
X2040863D02*
X2041318Y1213000D01*
X2042681Y1212375*
X2042681D02*
X2043136Y1212062D01*
X2043136D02*
X2043363Y1211750D01*
X2043363D02*
X2043590Y1211125D01*
X2043590D02*
Y1210187D01*
X2043590D02*
X2043136Y1209562D01*
X2043136D02*
X2042454Y1209250D01*
X2042454D02*
X2041545D01*
X2040863Y1209562*
X2040863D02*
X2040409Y1210187D01*
X2047227Y1215812D02*
Y1209250D01*
X2045636Y1215812D02*
X2048818D01*
X2050863D02*
Y1209250D01*
Y1215812D02*
X2053818D01*
X2050863Y1212687D02*
X2052681D01*
X2050863Y1209250D02*
X2053818D01*
X2059954Y1215812D02*
Y1209250D01*
Y1215812D02*
X2061772Y1209250D01*
X2063590Y1215812D02*
X2061772Y1209250D01*
X2063590Y1215812D02*
Y1209250D01*
X2067454Y1215812D02*
X2065636Y1209250D01*
X2067454Y1215812D02*
X2069272Y1209250D01*
X2066318Y1211437D02*
X2068590D01*
X2074500Y1214875D02*
X2074045Y1215500D01*
X2073363Y1215812*
X2073363D02*
X2072454D01*
X2072454D02*
X2071772Y1215500D01*
X2071772D02*
X2071318Y1214875D01*
Y1214250*
X2071545Y1213625*
X2071772Y1213312*
X2071772D02*
X2072227Y1213000D01*
X2073590Y1212375*
X2073590D02*
X2074045Y1212062D01*
X2074045D02*
X2074272Y1211750D01*
X2074272D02*
X2074500Y1211125D01*
Y1210187*
X2074500D02*
X2074045Y1209562D01*
X2074045D02*
X2073363Y1209250D01*
X2073363D02*
X2072454D01*
X2072454D02*
X2071772Y1209562D01*
X2071772D02*
X2071318Y1210187D01*
X2076545Y1215812D02*
Y1209250D01*
X2079727Y1215812D02*
X2076545Y1211437D01*
X2077681Y1213000D02*
X2079727Y1209250D01*
X2087454Y1215812D02*
Y1209250D01*
X2085863Y1215812D02*
X2089045D01*
X2092454D02*
X2092000Y1215500D01*
X2091545Y1214875*
X2091318Y1214250*
X2091090Y1213312*
X2091090D02*
Y1211750D01*
X2091090D02*
X2091318Y1210812D01*
X2091318D02*
X2091545Y1210187D01*
X2091545D02*
X2092000Y1209562D01*
X2092000D02*
X2092454Y1209250D01*
X2092454D02*
X2093363D01*
X2093363D02*
X2093818Y1209562D01*
X2093818D02*
X2094272Y1210187D01*
X2094272D02*
X2094500Y1210812D01*
X2094500D02*
X2094727Y1211750D01*
Y1213312*
X2094727D02*
X2094500Y1214250D01*
X2094272Y1214875*
X2094272D02*
X2093818Y1215500D01*
X2093363Y1215812*
X2093363D02*
X2092454D01*
X2096772D02*
Y1209250D01*
Y1215812D02*
X2098818D01*
X2098818D02*
X2099500Y1215500D01*
X2099727Y1215187*
X2099727D02*
X2099954Y1214562D01*
X2099954D02*
Y1213625D01*
X2099954D02*
X2099727Y1213000D01*
X2099500Y1212687*
X2099500D02*
X2098818Y1212375D01*
X2096772*
G54D20*
X1987650Y1535000D03*
X1993850D03*
X1964350Y1535500D03*
X1958150D03*
X1988400Y1810750D03*
X1994600D03*
X1981100D03*
X1974900D03*
X2114100Y1664750D03*
X2107900D03*
X2011900Y1790750D03*
X2018100D03*
X2000600D03*
X1994400D03*
X2146400Y1863250D03*
X2152600D03*
X2138100Y1865250D03*
X2131900D03*
X2175600Y1560250D03*
X2169400D03*
X1847100Y1865250D03*
X1840900D03*
X1855900D03*
X1862100D03*
X1825900D03*
X1832100D03*
X1871100Y1561250D03*
X1864900D03*
X1852600Y1560750D03*
X1846400D03*
X2199400Y1556750D03*
X2205600D03*
X2217900Y1595750D03*
X2224100D03*
X2217900Y1602250D03*
X2224100D03*
X2219100Y1818750D03*
X2212900D03*
X2219100Y1824750D03*
X2212900D03*
X2212600Y1862750D03*
X2206400D03*
X2220400D03*
X2226600D03*
X1784100Y1597750D03*
X1777900D03*
X1778400Y1561750D03*
X1784600D03*
X1781400Y1826750D03*
X1787600D03*
X1780900Y1860750D03*
X1787100D03*
X2221600Y1715250D03*
X2215400D03*
X1800400Y1763750D03*
X1806600D03*
X1822100Y1764250D03*
X1815900D03*
X2201600Y1662250D03*
X2195400D03*
X2201600Y1658250D03*
X2195400D03*
X2143600Y1660750D03*
X2137400D03*
X1782100Y1710750D03*
X1775900D03*
X1939600Y1471250D03*
X1933400D03*
X2022600Y1629750D03*
X2016400D03*
X2011400Y1623250D03*
X2017600D03*
X2004600D03*
X1998400D03*
X2119400Y1541250D03*
X2125600D03*
X2118900Y1547750D03*
X2125100D03*
X2119400Y1532750D03*
X2125600D03*
X2077400Y1704250D03*
X2083600D03*
X2077400Y1721750D03*
X2083600D03*
X2077400Y1698250D03*
X2083600D03*
X1775900Y1705250D03*
X1782100D03*
X2083600Y1709750D03*
X2077400D03*
X2083600Y1715750D03*
X2077400D03*
X1990900Y1858250D03*
X1997100D03*
X2114100Y1658250D03*
X2107900D03*
X1990900Y1851750D03*
X1997100D03*
X2124900Y1661250D03*
X2131100D03*
X1925400Y1882750D03*
X1931600D03*
X1895600Y1891250D03*
X1889400D03*
X1911600D03*
X1905400D03*
X1912800Y1921950D03*
X1906600D03*
X1912800Y1928450D03*
X1906600D03*
X1912800Y1915950D03*
X1906600D03*
X1912800Y1908750D03*
X1906600D03*
X1953400Y1910750D03*
X1959600D03*
X1953400Y1919750D03*
X1959600D03*
X1970200Y1915750D03*
X1976400D03*
X1976700Y1954550D03*
X1970500D03*
X1963600Y1898750D03*
X1957400D03*
G54D21*
X2012000Y1539350D03*
Y1533150D03*
X2042500Y1539850D03*
Y1533650D03*
X2148000Y1559850D03*
Y1553650D03*
X2052500Y1561350D03*
Y1555150D03*
X1776000Y1618350D03*
Y1612150D03*
X1776500Y1628150D03*
Y1634350D03*
X1871000Y1752350D03*
Y1746150D03*
X1982500Y1492350D03*
Y1486150D03*
X1954000Y1492350D03*
Y1486150D03*
X1982000Y1852150D03*
Y1858350D03*
X2141000Y1558850D03*
Y1552650D03*
X1785000Y1739650D03*
Y1745850D03*
X1779500D03*
Y1739650D03*
X2221000Y1686850D03*
Y1680650D03*
X2227000D03*
Y1686850D03*
X1816000Y1547650D03*
Y1553850D03*
X1833000Y1548150D03*
Y1554350D03*
X1825500Y1547650D03*
Y1553850D03*
X2078500Y1516850D03*
Y1510650D03*
X2023400Y1538250D03*
Y1532050D03*
X2052900Y1517050D03*
Y1510850D03*
X2045400Y1517050D03*
Y1510850D03*
X1833300Y1909550D03*
Y1903350D03*
X1885500Y1900650D03*
Y1906850D03*
X1924000Y1897350D03*
Y1891150D03*
X1931500Y1897350D03*
Y1891150D03*
X1937500Y1896850D03*
Y1890650D03*
X1940000Y1882850D03*
Y1876650D03*
X1879000Y1868650D03*
Y1874850D03*
Y1884150D03*
Y1890350D03*
X1879500Y1900650D03*
Y1906850D03*
Y1915650D03*
Y1921850D03*
G54D22*
X1816500Y1771450D03*
X1805500D03*
X2148500Y1653250D03*
X2137500D03*
X1773000Y1747250D03*
X1762000D03*
X1773000Y1734750D03*
X1762000D03*
X2233500Y1680750D03*
X2244500D03*
X2233500Y1689750D03*
X2244500D03*
X1999100Y1802150D03*
X1988100D03*
X2116400Y1673150D03*
X2127400D03*
X1912000Y1899750D03*
X1901000D03*
X2071500Y1517250D03*
X2060500D03*
G54D23*
X1788500Y1532250D03*
Y1508250D03*
X1858500Y1512500D03*
Y1536500D03*
X2014500Y1829750D03*
Y1853750D03*
X2261000Y1635250D03*
Y1659250D03*
X1729500Y1615250D03*
Y1639250D03*
X2033900Y1516950D03*
Y1492950D03*
G54D27*
X1963650Y1492550D03*
Y1501550D03*
X1973400Y1492550D03*
Y1501550D03*
G54D28*
X2205400Y1678105D03*
Y1680075D03*
Y1682045D03*
Y1684015D03*
Y1685985D03*
Y1687955D03*
Y1689925D03*
Y1691895D03*
Y1693865D03*
Y1695835D03*
Y1697805D03*
Y1699775D03*
Y1701745D03*
Y1703715D03*
Y1705685D03*
Y1707655D03*
Y1709625D03*
Y1711595D03*
Y1713565D03*
Y1715535D03*
Y1717505D03*
Y1719475D03*
Y1721445D03*
Y1723415D03*
Y1725385D03*
Y1727355D03*
Y1729325D03*
Y1731295D03*
Y1733265D03*
Y1735235D03*
Y1737205D03*
Y1739175D03*
Y1741145D03*
Y1743115D03*
Y1745085D03*
Y1747055D03*
Y1749025D03*
Y1750995D03*
X2144400D03*
Y1749025D03*
Y1747055D03*
Y1745085D03*
Y1743115D03*
Y1741145D03*
Y1739175D03*
Y1737205D03*
Y1735235D03*
Y1733265D03*
Y1731295D03*
Y1729325D03*
Y1727355D03*
Y1725385D03*
Y1723415D03*
Y1721445D03*
Y1719475D03*
Y1717505D03*
Y1715535D03*
Y1713565D03*
Y1711595D03*
Y1709625D03*
Y1707655D03*
Y1705685D03*
Y1703715D03*
Y1701745D03*
Y1699775D03*
Y1697805D03*
Y1695835D03*
Y1693865D03*
Y1691895D03*
Y1689925D03*
Y1687955D03*
Y1685985D03*
Y1684015D03*
Y1682045D03*
Y1680075D03*
Y1678105D03*
X1796500Y1745495D03*
Y1743525D03*
Y1741555D03*
Y1739585D03*
Y1737615D03*
Y1735645D03*
Y1733675D03*
Y1731705D03*
Y1729735D03*
Y1727765D03*
Y1725795D03*
Y1723825D03*
Y1721855D03*
Y1719885D03*
Y1717915D03*
Y1715945D03*
Y1713975D03*
Y1712005D03*
Y1710035D03*
Y1708065D03*
Y1706095D03*
Y1704125D03*
Y1702155D03*
Y1700185D03*
Y1698215D03*
Y1696245D03*
Y1694275D03*
Y1692305D03*
Y1690335D03*
Y1688365D03*
Y1686395D03*
Y1684425D03*
Y1682455D03*
Y1680485D03*
Y1678515D03*
Y1676545D03*
Y1674575D03*
Y1672605D03*
X1857500D03*
Y1674575D03*
Y1676545D03*
Y1678515D03*
Y1680485D03*
Y1682455D03*
Y1684425D03*
Y1686395D03*
Y1688365D03*
Y1690335D03*
Y1692305D03*
Y1694275D03*
Y1696245D03*
Y1698215D03*
Y1700185D03*
Y1702155D03*
Y1704125D03*
Y1706095D03*
Y1708065D03*
Y1710035D03*
Y1712005D03*
Y1713975D03*
Y1715945D03*
Y1717915D03*
Y1719885D03*
Y1721855D03*
Y1723825D03*
Y1725795D03*
Y1727765D03*
Y1729735D03*
Y1731705D03*
Y1733675D03*
Y1735645D03*
Y1737615D03*
Y1739585D03*
Y1741555D03*
Y1743525D03*
Y1745495D03*
G54D29*
X2199525Y1757050D03*
X2197555D03*
X2195585D03*
X2193615D03*
X2191645D03*
X2189675D03*
X2187705D03*
X2185735D03*
X2183765D03*
X2181795D03*
X2179825D03*
X2177855D03*
X2175885D03*
X2173915D03*
X2171945D03*
X2169975D03*
X2168005D03*
X2166035D03*
X2164065D03*
X2162095D03*
X2160125D03*
X2158155D03*
X2156185D03*
X2154215D03*
X2152245D03*
X2150275D03*
Y1672050D03*
X2152245D03*
X2154215D03*
X2156185D03*
X2158155D03*
X2160125D03*
X2162095D03*
X2164065D03*
X2166035D03*
X2168005D03*
X2169975D03*
X2171945D03*
X2173915D03*
X2175885D03*
X2177855D03*
X2179825D03*
X2181795D03*
X2183765D03*
X2185735D03*
X2187705D03*
X2189675D03*
X2191645D03*
X2193615D03*
X2195585D03*
X2197555D03*
X2199525D03*
X1802375Y1666550D03*
X1804345D03*
X1806315D03*
X1808285D03*
X1810255D03*
X1812225D03*
X1814195D03*
X1816165D03*
X1818135D03*
X1820105D03*
X1822075D03*
X1824045D03*
X1826015D03*
X1827985D03*
X1829955D03*
X1831925D03*
X1833895D03*
X1835865D03*
X1837835D03*
X1839805D03*
X1841775D03*
X1843745D03*
X1845715D03*
X1847685D03*
X1849655D03*
X1851625D03*
Y1751550D03*
X1849655D03*
X1847685D03*
X1845715D03*
X1843745D03*
X1841775D03*
X1839805D03*
X1837835D03*
X1835865D03*
X1833895D03*
X1831925D03*
X1829955D03*
X1827985D03*
X1826015D03*
X1824045D03*
X1822075D03*
X1820105D03*
X1818135D03*
X1816165D03*
X1814195D03*
X1812225D03*
X1810255D03*
X1808285D03*
X1806315D03*
X1804345D03*
X1802375D03*
G54D30*
X2135000Y1570350D03*
Y1585113D03*
X2138937Y1570350D03*
Y1585113D03*
X2142874Y1570350D03*
Y1585113D03*
X2146811Y1570350D03*
Y1585113D03*
X2150748Y1570350D03*
Y1585113D03*
X2154685Y1570350D03*
Y1585113D03*
X2158622Y1570350D03*
Y1585113D03*
X2162559Y1570350D03*
Y1585113D03*
X2166496Y1570350D03*
Y1585113D03*
X2170433Y1570350D03*
Y1585113D03*
X2174370Y1570350D03*
Y1585113D03*
X2178307Y1570350D03*
Y1585113D03*
X2182244Y1570350D03*
Y1585113D03*
X2186181Y1570350D03*
Y1585113D03*
X2190118Y1570350D03*
Y1585113D03*
X2194055Y1570350D03*
Y1585113D03*
X2197992Y1570350D03*
Y1585113D03*
X2201929Y1570350D03*
Y1585113D03*
X2205866Y1570350D03*
Y1585113D03*
X2209803Y1570350D03*
Y1585113D03*
X2213740Y1570350D03*
Y1585113D03*
X2217677Y1570350D03*
Y1585113D03*
X2221614Y1570350D03*
Y1585113D03*
X2225551Y1570350D03*
Y1585113D03*
X2229488Y1570350D03*
Y1585113D03*
X2233425Y1570350D03*
Y1585113D03*
X2237362Y1570350D03*
Y1585113D03*
X2241299Y1570350D03*
Y1585113D03*
X2245236Y1570350D03*
Y1585113D03*
X2249173Y1570350D03*
Y1585113D03*
X2253110Y1570350D03*
Y1585113D03*
X2257047Y1570350D03*
Y1585113D03*
X2135000Y1836350D03*
Y1851113D03*
X2138937Y1836350D03*
Y1851113D03*
X2142874Y1836350D03*
Y1851113D03*
X2146811Y1836350D03*
Y1851113D03*
X2150748Y1836350D03*
Y1851113D03*
X2154685Y1836350D03*
Y1851113D03*
X2158622Y1836350D03*
Y1851113D03*
X2162559Y1836350D03*
Y1851113D03*
X2166496Y1836350D03*
Y1851113D03*
X2170433Y1836350D03*
Y1851113D03*
X2174370Y1836350D03*
Y1851113D03*
X2178307Y1836350D03*
Y1851113D03*
X2182244Y1836350D03*
Y1851113D03*
X2186181Y1836350D03*
Y1851113D03*
X2190118Y1836350D03*
Y1851113D03*
X2194055Y1836350D03*
Y1851113D03*
X2197992Y1836350D03*
Y1851113D03*
X2201929Y1836350D03*
Y1851113D03*
X2205866Y1836350D03*
Y1851113D03*
X2209803Y1836350D03*
Y1851113D03*
X2213740Y1836350D03*
Y1851113D03*
X2217677Y1836350D03*
Y1851113D03*
X2221614Y1836350D03*
Y1851113D03*
X2225551Y1836350D03*
Y1851113D03*
X2229488Y1836350D03*
Y1851113D03*
X2233425Y1836350D03*
Y1851113D03*
X2237362Y1836350D03*
Y1851113D03*
X2241299Y1836350D03*
Y1851113D03*
X2245236Y1836350D03*
Y1851113D03*
X2249173Y1836350D03*
Y1851113D03*
X2253110Y1836350D03*
Y1851113D03*
X2257047Y1836350D03*
Y1851113D03*
X1865000Y1851150D03*
Y1836386D03*
X1861062Y1851150D03*
Y1836386D03*
X1857125Y1851150D03*
Y1836386D03*
X1853188Y1851150D03*
Y1836386D03*
X1849251Y1851150D03*
Y1836386D03*
X1845314Y1851150D03*
Y1836386D03*
X1841377Y1851150D03*
Y1836386D03*
X1837440Y1851150D03*
Y1836386D03*
X1833503Y1851150D03*
Y1836386D03*
X1829566Y1851150D03*
Y1836386D03*
X1825629Y1851150D03*
Y1836386D03*
X1821692Y1851150D03*
Y1836386D03*
X1817755Y1851150D03*
Y1836386D03*
X1813818Y1851150D03*
Y1836386D03*
X1809881Y1851150D03*
Y1836386D03*
X1805944Y1851150D03*
Y1836386D03*
X1802007Y1851150D03*
Y1836386D03*
X1798070Y1851150D03*
Y1836386D03*
X1794133Y1851150D03*
Y1836386D03*
X1790196Y1851150D03*
Y1836386D03*
X1786259Y1851150D03*
Y1836386D03*
X1782322Y1851150D03*
Y1836386D03*
X1778385Y1851150D03*
Y1836386D03*
X1774448Y1851150D03*
Y1836386D03*
X1770511Y1851150D03*
Y1836386D03*
X1766574Y1851150D03*
Y1836386D03*
X1762637Y1851150D03*
Y1836386D03*
X1758700Y1851150D03*
Y1836386D03*
X1754763Y1851150D03*
Y1836386D03*
X1750826Y1851150D03*
Y1836386D03*
X1746889Y1851150D03*
Y1836386D03*
X1742952Y1851150D03*
Y1836386D03*
X1865000Y1586150D03*
Y1571386D03*
X1861062Y1586150D03*
Y1571386D03*
X1857125Y1586150D03*
Y1571386D03*
X1853188Y1586150D03*
Y1571386D03*
X1849251Y1586150D03*
Y1571386D03*
X1845314Y1586150D03*
Y1571386D03*
X1841377Y1586150D03*
Y1571386D03*
X1837440Y1586150D03*
Y1571386D03*
X1833503Y1586150D03*
Y1571386D03*
X1829566Y1586150D03*
Y1571386D03*
X1825629Y1586150D03*
Y1571386D03*
X1821692Y1586150D03*
Y1571386D03*
X1817755Y1586150D03*
Y1571386D03*
X1813818Y1586150D03*
Y1571386D03*
X1809881Y1586150D03*
Y1571386D03*
X1805944Y1586150D03*
Y1571386D03*
X1802007Y1586150D03*
Y1571386D03*
X1798070Y1586150D03*
Y1571386D03*
X1794133Y1586150D03*
Y1571386D03*
X1790196Y1586150D03*
Y1571386D03*
X1786259Y1586150D03*
Y1571386D03*
X1782322Y1586150D03*
Y1571386D03*
X1778385Y1586150D03*
Y1571386D03*
X1774448Y1586150D03*
Y1571386D03*
X1770511Y1586150D03*
Y1571386D03*
X1766574Y1586150D03*
Y1571386D03*
X1762637Y1586150D03*
Y1571386D03*
X1758700Y1586150D03*
Y1571386D03*
X1754763Y1586150D03*
Y1571386D03*
X1750826Y1586150D03*
Y1571386D03*
X1746889Y1586150D03*
Y1571386D03*
X1742952Y1586150D03*
Y1571386D03*
G54D32*
X1933000Y1768865D03*
Y1766895D03*
Y1764925D03*
Y1762955D03*
Y1760985D03*
Y1759015D03*
Y1757045D03*
Y1755075D03*
Y1753105D03*
Y1751135D03*
Y1749165D03*
Y1747195D03*
Y1745225D03*
Y1743255D03*
Y1741285D03*
Y1739315D03*
Y1737345D03*
Y1735375D03*
Y1733405D03*
Y1731435D03*
Y1729465D03*
Y1727495D03*
Y1725525D03*
Y1723555D03*
Y1721585D03*
Y1719615D03*
Y1717645D03*
Y1715675D03*
Y1713705D03*
Y1711735D03*
Y1709765D03*
Y1707795D03*
Y1705825D03*
Y1703855D03*
Y1701885D03*
Y1699915D03*
Y1697945D03*
Y1695975D03*
Y1694005D03*
Y1692035D03*
Y1690065D03*
Y1688095D03*
Y1686125D03*
Y1684155D03*
Y1682185D03*
Y1680215D03*
Y1678245D03*
Y1676275D03*
Y1674305D03*
Y1672335D03*
Y1670365D03*
Y1668395D03*
Y1666425D03*
Y1664455D03*
Y1662485D03*
Y1660515D03*
Y1658545D03*
Y1656575D03*
Y1654605D03*
Y1652635D03*
X2065000D03*
Y1654605D03*
Y1656575D03*
Y1658545D03*
Y1660515D03*
Y1662485D03*
Y1664455D03*
Y1666425D03*
Y1668395D03*
Y1670365D03*
Y1672335D03*
Y1674305D03*
Y1676275D03*
Y1678245D03*
Y1680215D03*
Y1682185D03*
Y1684155D03*
Y1686125D03*
Y1688095D03*
Y1690065D03*
Y1692035D03*
Y1694005D03*
Y1695975D03*
Y1697945D03*
Y1699915D03*
Y1701885D03*
Y1703855D03*
Y1705825D03*
Y1707795D03*
Y1709765D03*
Y1711735D03*
Y1713705D03*
Y1715675D03*
Y1717645D03*
Y1719615D03*
Y1721585D03*
Y1723555D03*
Y1725525D03*
Y1727495D03*
Y1729465D03*
Y1731435D03*
Y1733405D03*
Y1735375D03*
Y1737345D03*
Y1739315D03*
Y1741285D03*
Y1743255D03*
Y1745225D03*
Y1747195D03*
Y1749165D03*
Y1751135D03*
Y1753105D03*
Y1755075D03*
Y1757045D03*
Y1759015D03*
Y1760985D03*
Y1762955D03*
Y1764925D03*
Y1766895D03*
Y1768865D03*
G54D33*
X1940885Y1644750D03*
X1942855D03*
X1944825D03*
X1946795D03*
X1948765D03*
X1950735D03*
X1952705D03*
X1954675D03*
X1956645D03*
X1958615D03*
X1960585D03*
X1962555D03*
X1964525D03*
X1966495D03*
X1968465D03*
X1970435D03*
X1972405D03*
X1974375D03*
X1976345D03*
X1978315D03*
X1980285D03*
X1982255D03*
X1984225D03*
X1986195D03*
X1988165D03*
X1990135D03*
X1992105D03*
X1994075D03*
X1996045D03*
X1998015D03*
X1999985D03*
X2001955D03*
X2003925D03*
X2005895D03*
X2007865D03*
X2009835D03*
X2011805D03*
X2013775D03*
X2015745D03*
X2017715D03*
X2019685D03*
X2021655D03*
X2023625D03*
X2025595D03*
X2027565D03*
X2029535D03*
X2031505D03*
X2033475D03*
X2035445D03*
X2037415D03*
X2039385D03*
X2041355D03*
X2043325D03*
X2045295D03*
X2047265D03*
X2049235D03*
X2051205D03*
X2053175D03*
X2055145D03*
X2057115D03*
Y1776750D03*
X2055145D03*
X2053175D03*
X2051205D03*
X2049235D03*
X2047265D03*
X2045295D03*
X2043325D03*
X2041355D03*
X2039385D03*
X2037415D03*
X2035445D03*
X2033475D03*
X2031505D03*
X2029535D03*
X2027565D03*
X2025595D03*
X2023625D03*
X2021655D03*
X2019685D03*
X2017715D03*
X2015745D03*
X2013775D03*
X2011805D03*
X2009835D03*
X2007865D03*
X2005895D03*
X2003925D03*
X2001955D03*
X1999985D03*
X1998015D03*
X1996045D03*
X1994075D03*
X1992105D03*
X1990135D03*
X1988165D03*
X1986195D03*
X1984225D03*
X1982255D03*
X1980285D03*
X1978315D03*
X1976345D03*
X1974375D03*
X1972405D03*
X1970435D03*
X1968465D03*
X1966495D03*
X1964525D03*
X1962555D03*
X1960585D03*
X1958615D03*
X1956645D03*
X1954675D03*
X1952705D03*
X1950735D03*
X1948765D03*
X1946795D03*
X1944825D03*
X1942855D03*
X1940885D03*
G54D34*
X1962880Y1550100D03*
X1965440D03*
X1968000D03*
X1970560D03*
X1973120D03*
X1975680D03*
X1978240D03*
X1980800D03*
X1983360D03*
X1985920D03*
X1988480D03*
X1991040D03*
X1993600D03*
X1996160D03*
X1998720D03*
X2001280D03*
X2003840D03*
X2006400D03*
X2008960D03*
X2011520D03*
X2014080D03*
X2016640D03*
X2019200D03*
X2021760D03*
X2024320D03*
X2026880D03*
X2029440D03*
X2032000D03*
X2034560D03*
X2037120D03*
Y1611400D03*
X2034560D03*
X2032000D03*
X2029440D03*
X2026880D03*
X2024320D03*
X2021760D03*
X2019200D03*
X2016640D03*
X2014080D03*
X2011520D03*
X2008960D03*
X2006400D03*
X2003840D03*
X2001280D03*
X1998720D03*
X1996160D03*
X1993600D03*
X1991040D03*
X1988480D03*
X1985920D03*
X1983360D03*
X1980800D03*
X1978240D03*
X1975680D03*
X1973120D03*
X1970560D03*
X1968000D03*
X1965440D03*
X1962880D03*
G54D35*
X2042500Y1556430D03*
Y1558990D03*
Y1561550D03*
Y1564110D03*
Y1566670D03*
Y1569230D03*
Y1571790D03*
Y1574350D03*
Y1576910D03*
Y1579470D03*
Y1582030D03*
Y1584590D03*
Y1587150D03*
Y1589710D03*
Y1592270D03*
Y1594830D03*
Y1597390D03*
Y1599950D03*
Y1602510D03*
Y1605070D03*
X1957500D03*
Y1602510D03*
Y1599950D03*
Y1597390D03*
Y1594830D03*
Y1592270D03*
Y1589710D03*
Y1587150D03*
Y1584590D03*
Y1582030D03*
Y1579470D03*
Y1576910D03*
Y1574350D03*
Y1571790D03*
Y1569230D03*
Y1566670D03*
Y1564110D03*
Y1561550D03*
Y1558990D03*
Y1556430D03*
G54D36*
X2162800Y1527750D03*
Y1532750D03*
Y1537750D03*
Y1542750D03*
X2143200D03*
Y1537750D03*
Y1532750D03*
Y1527750D03*
G54D37*
X1975750Y1821250D03*
X1978250D03*
X1980750D03*
X1983250D03*
X1985750D03*
X1988250D03*
X1990750D03*
X1993250D03*
X1995750D03*
X1998250D03*
Y1842250D03*
X1995750D03*
X1993250D03*
X1990750D03*
X1988250D03*
X1985750D03*
X1983250D03*
X1980750D03*
X1978250D03*
X1975750D03*
G54D38*
X1987000Y1831750D03*
G54D39*
X1836000Y1532000D03*
X1826000D03*
X1816000D03*
G54D40*
X1826000Y1499250D03*
G54D41*
X1988000Y1520500D03*
X1951000D03*
G54D42*
X1894000Y1866450D03*
X1914000D03*
Y1883050D03*
X1894000D03*
G54D49*
X1841700Y1909550D03*
Y1898550D03*
X1889500Y1926750D03*
Y1915750D03*
G54D50*
X1870948Y1906911D03*
Y1909470D03*
Y1912029D03*
Y1914588D03*
X1852051D03*
Y1912029D03*
Y1909470D03*
Y1906911D03*
G54D51*
X1944448Y1911860D03*
Y1913828D03*
Y1915797D03*
Y1917765D03*
Y1919734D03*
Y1921702D03*
Y1923671D03*
Y1925639D03*
X1925551D03*
Y1923671D03*
Y1921702D03*
Y1919734D03*
Y1917765D03*
Y1915797D03*
Y1913828D03*
Y1911860D03*
G54D52*
X1941889Y1928198D03*
X1939921D03*
X1937952D03*
X1935984D03*
X1934015D03*
X1932047D03*
X1930078D03*
X1928110D03*
Y1909301D03*
X1930078D03*
X1932047D03*
X1934015D03*
X1935984D03*
X1937952D03*
X1939921D03*
X1941889D03*
G54D53*
X1935000Y1918750D03*
X0Y0D02*
M02*
