/* XPM */
static char * hunter_xpm[] = {
"32 32 4 1",
" 	c #000000",
".	c #FF0000",
"+	c #00FF80",
"@	c #00FF00",
"             .....              ",
"         .............          ",
"        .....     ......        ",
"      ....     +      ...       ",
"     ...      @+@      ...      ",
"    ...       @+@       ...     ",
"   ...        @+@        ...    ",
"   ..         @+@         ..    ",
"  ..          @+@          ..   ",
" ...          @+@          ...  ",
" ..           @+@           ..  ",
" ..           @+@           ..  ",
" ..           @+@           ..  ",
"..            @+@            .. ",
"..            @@@            .. ",
"..            @@@            .. ",
"..            @@@            .. ",
"..                           .. ",
" ..                         ..  ",
" ..                         ..  ",
" ..                         ..  ",
" ...                       ...  ",
"  ..                       ..   ",
"   ..                     ..    ",
"   ...                   ...    ",
"    ...                 ...     ",
"     ...               ...      ",
"      ....           ....       ",
"        .....     .....         ",
"         .............          ",
"             .....              ",
"                                "};
